<svg width="500" height="500" viewBox="0 0 500 500" fill="none" xmlns="http://www.w3.org/2000/svg">
<g>
<path d="M418.517 461.217L358.392 450.367C355.225 449.792 355.2 445.258 358.367 444.658L401.467 436.508C408.584 435.167 409.3 426.608 402.484 424.383L386.15 419.05C369.825 413.717 352.084 412.542 335.017 415.667L111.009 456.583C105 457.683 104.959 466.275 110.95 467.433L153.867 475.75C166.9 478.275 180.3 478.308 193.35 475.842L310.425 453.708C323.867 451.167 337.659 451.092 351.125 453.475L413.767 464.583C415.509 464.892 417.3 464.533 418.784 463.592L418.959 463.483C419.917 462.875 419.625 461.408 418.509 461.208L418.517 461.217Z" fill="black" stroke="black" stroke-width="0.833333" stroke-miterlimit="10"/>
<path d="M62.0499 207.375C101.675 195.167 127 162.008 132.175 154.733C132.75 153.925 132.642 152.817 131.917 152.142L99.0332 121.15C98.1665 120.333 96.7665 120.458 96.0749 121.425C90.3749 129.342 66.0415 160.5 28.3332 172.967C26.9082 173.433 26.5082 175.258 27.5999 176.283L60.0915 206.908C60.6082 207.4 61.3582 207.575 62.0415 207.367L62.0499 207.375Z" fill="#C7C7C7"/>
<mask id="mask0_69562_10432" style="mask-type:luminance" maskUnits="userSpaceOnUse" x="26" y="120" width="107" height="88">
<path d="M62.0499 207.375C101.675 195.167 127 162.008 132.175 154.733C132.75 153.925 132.642 152.817 131.917 152.142L99.0332 121.15C98.1665 120.333 96.7665 120.458 96.0749 121.425C90.3749 129.342 66.0415 160.5 28.3332 172.967C26.9082 173.433 26.5082 175.258 27.5999 176.283L60.0915 206.908C60.6082 207.4 61.3582 207.575 62.0415 207.367L62.0499 207.375Z" fill="white"/>
</mask>
<g mask="url(#mask0_69562_10432)">
<path d="M26.8496 174.6L86.4663 175.192L91.9913 149.9L26.8496 174.6Z" fill="black" stroke="black" stroke-width="0.833333" stroke-miterlimit="10"/>
<path d="M26.8496 174.6L87.7829 173.675L97.7413 120.608" fill="#F3F3F3"/>
<path d="M26.8496 174.6L87.7829 173.675L97.7413 120.608" stroke="black" stroke-width="0.833333" stroke-miterlimit="10"/>
<g opacity="0.5" style="mix-blend-mode:multiply">
<path d="M69.4668 147.267C69.4668 147.267 71.3835 154.667 83.1335 161.267C94.8835 167.867 104.6 167.125 114.958 175.15L127.683 167.867L83.7668 129.517L69.4668 147.267Z" fill="#C7C7C7"/>
</g>
</g>
<path d="M62.0499 207.375C101.675 195.167 127 162.008 132.175 154.733C132.75 153.925 132.642 152.817 131.917 152.142L99.0332 121.15C98.1665 120.333 96.7665 120.458 96.0749 121.425C90.3749 129.342 66.0415 160.5 28.3332 172.967C26.9082 173.433 26.5082 175.258 27.5999 176.283L60.0915 206.908C60.6082 207.4 61.3582 207.575 62.0415 207.367L62.0499 207.375Z" stroke="black" stroke-width="0.833333" stroke-miterlimit="10"/>
<path d="M74.0174 173.883L61.1924 207.442" stroke="black" stroke-width="0.416667" stroke-miterlimit="10"/>
<path d="M132.542 153.708L90.3003 160.258" stroke="black" stroke-width="0.416667" stroke-miterlimit="10"/>
<path d="M346 326.567L253.934 152.617C252.642 150.175 249.65 149.2 247.167 150.408L57.5504 242.758C54.8671 244.067 53.8671 247.375 55.3754 249.95L137.792 390.717L159.334 427.508C159.95 428.558 161 429.292 162.2 429.5C164.367 429.883 166.45 428.508 166.959 426.375L167.775 422.95L346 326.567Z" fill="black"/>
<mask id="mask1_69562_10432" style="mask-type:luminance" maskUnits="userSpaceOnUse" x="54" y="149" width="293" height="281">
<path d="M346.001 326.567L253.935 152.617C252.643 150.175 249.651 149.2 247.168 150.408L57.5514 242.758C54.8681 244.067 53.8681 247.375 55.3764 249.95L137.793 390.717L159.335 427.508C159.951 428.558 161.001 429.292 162.201 429.5C164.368 429.883 166.451 428.508 166.96 426.375L167.776 422.95L346.001 326.567Z" fill="white"/>
</mask>
<g mask="url(#mask1_69562_10432)">
<path d="M347.935 325.217L255.868 151.267C254.577 148.825 251.585 147.85 249.102 149.058L59.485 241.408C56.8017 242.717 55.8017 246.025 57.31 248.6L139.727 389.367L161.268 426.158C161.885 427.208 162.935 427.942 164.135 428.15C166.302 428.533 168.385 427.158 168.893 425.025L169.71 421.6L347.935 325.217Z" fill="#566578"/>
<path d="M74.8677 265.45L163.493 427.133L335.726 332.525L270.926 168.592L74.8677 265.45Z" fill="black" stroke="black" stroke-width="0.833333" stroke-miterlimit="10"/>
</g>
<path d="M346 326.567L253.934 152.617C252.642 150.175 249.65 149.2 247.167 150.408L57.5504 242.758C54.8671 244.067 53.8671 247.375 55.3754 249.95L137.792 390.717L159.334 427.508C159.95 428.558 161 429.292 162.2 429.5C164.367 429.883 166.45 428.508 166.959 426.375L167.775 422.95L346 326.567Z" stroke="black" stroke-width="0.833333" stroke-miterlimit="10"/>
<path d="M76.4507 256.425L163.492 427.133L335.726 332.525L272.509 159.567L76.4507 256.425Z" fill="#F3F3F3"/>
<mask id="mask2_69562_10432" style="mask-type:luminance" maskUnits="userSpaceOnUse" x="76" y="159" width="260" height="269">
<path d="M76.4517 256.425L163.493 427.133L335.727 332.525L272.51 159.567L76.4517 256.425Z" fill="white"/>
</mask>
<g mask="url(#mask2_69562_10432)">
<path d="M106.808 299.525L161.2 411.983L301.625 339.925L260.483 191.742L109.425 266.367C108.158 266.992 107.308 268.233 107.183 269.642L105.358 290.058C105.066 293.283 105.575 296.542 106.825 299.525H106.808Z" fill="#C7C7C7"/>
</g>
<path d="M76.4507 256.425L163.492 427.133L335.726 332.525L272.509 159.567L76.4507 256.425Z" stroke="black" stroke-width="0.833333" stroke-miterlimit="10"/>
<path d="M108.142 286.308L165.225 422.85L330.025 332.317L283.167 163.533L111.117 248.533C109.675 249.25 108.7 250.658 108.558 252.267L106.475 275.517C106.142 279.192 106.717 282.9 108.142 286.3V286.308Z" fill="#C7C7C7"/>
<path d="M108.142 286.308L165.225 422.85L330.025 332.317L283.167 163.533L111.117 248.533C109.675 249.25 108.7 250.658 108.558 252.267L106.475 275.517C106.142 279.192 106.717 282.9 108.142 286.3V286.308Z" stroke="black" stroke-width="0.833333" stroke-miterlimit="10"/>
<path d="M113.775 228.4C116.142 280.567 169.009 420.583 169.009 420.583L349.425 323.358C349.425 323.358 312.909 170.7 316.992 129.025L113.775 228.4Z" fill="#F3F3F3"/>
<mask id="mask3_69562_10432" style="mask-type:luminance" maskUnits="userSpaceOnUse" x="113" y="129" width="237" height="292">
<path d="M113.776 228.4C116.143 280.567 169.01 420.583 169.01 420.583L349.426 323.358C349.426 323.358 312.91 170.7 316.993 129.025L113.776 228.4Z" fill="white"/>
</mask>
<g mask="url(#mask3_69562_10432)">
<path d="M144.293 317.85C151.685 365.242 169.018 420.575 169.018 420.575L349.435 323.35C349.435 323.35 318.893 240.242 344.626 173.717L176.676 255.85C153.468 267.2 140.318 292.325 144.301 317.85H144.293Z" fill="#C7C7C7"/>
<path d="M141.884 214.65C141.884 214.65 150.584 220.358 160.55 250.142L167.075 239.375C167.075 239.375 158.775 213.708 155.625 207.925L141.884 214.642V214.65Z" fill="#C7C7C7"/>
</g>
<path d="M113.775 228.4C116.142 280.567 169.009 420.583 169.009 420.583L349.425 323.358C349.425 323.358 312.909 170.7 316.992 129.025L113.775 228.4Z" stroke="black" stroke-width="0.833333" stroke-miterlimit="10"/>
<path d="M162.875 241.725C144.725 297.342 168.475 418.792 168.475 418.792L348.891 321.567C348.891 321.567 340.358 208.867 366.091 142.35L162.875 241.725Z" fill="#F3F3F3" stroke="black" stroke-width="0.833333" stroke-miterlimit="10"/>
<path d="M209.767 260.85C207.342 262.033 205.575 264.233 204.942 266.858C198.942 292.05 167.6 423.65 166.95 426.383C166.3 429.117 163.9 429.5 163.325 429.55C163.309 429.55 163.309 429.575 163.325 429.583C163.675 429.642 164.775 429.767 166.4 429.433C167.534 429.2 168.617 428.758 169.634 428.2L348.417 329.408C350.55 328.225 352.184 326.308 353.009 324.008L400.684 190.425C401.334 188.608 399.451 186.917 397.709 187.767L271.167 249.4C269.842 250.05 268.267 249.225 268.034 247.775L266.509 238.3C266.134 235.95 263.592 234.633 261.45 235.675L209.75 260.858L209.767 260.85Z" fill="#F3F3F3"/>
<mask id="mask4_69562_10432" style="mask-type:luminance" maskUnits="userSpaceOnUse" x="163" y="187" width="238" height="243">
<path d="M209.767 260.85C207.342 262.033 205.575 264.233 204.942 266.858C198.942 292.05 167.6 423.65 166.95 426.383C166.3 429.117 163.9 429.5 163.325 429.55C163.309 429.55 163.309 429.575 163.325 429.583C163.675 429.642 164.775 429.767 166.4 429.433C167.534 429.2 168.617 428.758 169.634 428.2L348.417 329.408C350.55 328.225 352.184 326.308 353.009 324.008L400.684 190.425C401.334 188.608 399.451 186.917 397.709 187.767L271.167 249.4C269.842 250.05 268.267 249.225 268.034 247.775L266.509 238.3C266.134 235.95 263.592 234.633 261.45 235.675L209.75 260.858L209.767 260.85Z" fill="white"/>
</mask>
<g mask="url(#mask4_69562_10432)">
<path d="M211.941 262.925C209.516 264.108 207.75 266.308 207.116 268.933C201.116 294.125 169.775 425.725 169.125 428.458C168.475 431.2 166.075 431.575 165.5 431.625C165.483 431.625 165.483 431.65 165.5 431.658C165.85 431.717 166.95 431.842 168.575 431.508C169.708 431.275 170.791 430.833 171.808 430.275L350.591 331.483C352.725 330.3 354.358 328.383 355.183 326.083L402.858 192.5C403.508 190.683 401.625 188.992 399.883 189.842L273.341 251.475C272.016 252.125 270.441 251.3 270.208 249.85L268.683 240.375C268.308 238.025 265.766 236.708 263.625 237.75L211.925 262.933L211.941 262.925Z" fill="#CEC4A1"/>
</g>
<path d="M209.767 260.85C207.342 262.033 205.575 264.233 204.942 266.858C198.942 292.05 167.6 423.65 166.95 426.383C166.3 429.117 163.9 429.5 163.325 429.55C163.309 429.55 163.309 429.575 163.325 429.583C163.675 429.642 164.775 429.767 166.4 429.433C167.534 429.2 168.617 428.758 169.634 428.2L348.417 329.408C350.55 328.225 352.184 326.308 353.009 324.008L400.684 190.425C401.334 188.608 399.45 186.917 397.709 187.767L271.167 249.4C269.842 250.05 268.267 249.225 268.034 247.775L266.509 238.3C266.134 235.95 263.592 234.633 261.45 235.675L209.75 260.858L209.767 260.85Z" stroke="black" stroke-width="0.833333" stroke-miterlimit="10"/>
<path d="M108.859 288.017L107.701 285.25C106.442 282.233 106.176 278.883 107.001 275.717C109.842 264.875 116.001 260.875 116.001 260.875L110.142 251.783C109.417 250.658 109.834 249.158 111.034 248.567L111.109 248.533C109.259 249.525 108.051 251.4 107.917 253.492L106.409 276.417C106.184 279.867 106.792 283.325 108.184 286.483L108.859 288.008V288.017Z" fill="#F3F3F3" stroke="black" stroke-width="0.833333" stroke-miterlimit="10"/>
<path d="M110.842 267.375L112.667 272.233C112.667 272.233 106.15 279.65 107.709 285.25C107.709 285.25 105.134 277.667 110.842 267.375Z" fill="black" stroke="black" stroke-width="0.833333" stroke-miterlimit="10"/>
<path d="M252.309 197.558L245.642 177.633C239.117 158.142 226.075 141.492 208.709 130.492L192.8 120.408C177.759 110.875 167.034 95.8334 162.934 78.5L156.275 50.3334C155.659 47.7167 152.767 46.35 150.35 47.5334L73.967 85.0084C71.5503 86.1917 70.2753 88.8917 70.892 91.5167L77.7003 120.317C81.8003 137.65 92.517 152.692 107.567 162.225L123.475 172.308C140.842 183.308 153.884 199.958 160.409 219.45L167.075 239.375" fill="#F3F3F3"/>
<mask id="mask5_69562_10432" style="mask-type:luminance" maskUnits="userSpaceOnUse" x="70" y="47" width="183" height="193">
<path d="M252.309 197.558L245.642 177.633C239.117 158.142 226.075 141.492 208.709 130.492L192.8 120.408C177.759 110.875 167.034 95.8334 162.934 78.5L156.275 50.3334C155.659 47.7167 152.767 46.35 150.35 47.5334L73.967 85.0084C71.5503 86.1917 70.2753 88.8917 70.892 91.5167L77.7003 120.317C81.8003 137.65 92.517 152.692 107.567 162.225L123.475 172.308C140.842 183.308 153.884 199.958 160.409 219.45L167.075 239.375" fill="white"/>
</mask>
<g mask="url(#mask5_69562_10432)">
<path d="M186.76 116.108C189.168 118.483 189.001 120.617 186.06 122.075L119.768 154.983C115.226 157.242 110.16 158.225 105.11 157.85L101.326 157.567L128.493 180.133L140.335 186.133C140.335 186.133 145.41 190.95 151.993 187.667C155.918 185.708 226.059 150.767 226.059 150.767C230.843 148.367 224.468 141.283 224.468 141.283C218.743 134.225 186.768 116.108 186.768 116.108H186.76Z" fill="white" stroke="black" stroke-width="0.416667" stroke-miterlimit="10"/>
<path d="M89.3345 77.9333L134.784 55.2667L136.326 61.6333C136.559 62.5917 136.093 63.575 135.218 64.0083L93.6095 84.6C92.4011 85.2 90.9595 84.525 90.6345 83.2167L89.3345 77.925V77.9333Z" fill="#FF5200"/>
</g>
<path d="M252.309 197.558L245.642 177.633C239.117 158.142 226.075 141.492 208.709 130.492L192.8 120.408C177.759 110.875 167.034 95.8334 162.934 78.5L156.275 50.3334C155.659 47.7167 152.767 46.35 150.35 47.5334L73.967 85.0084C71.5503 86.1917 70.2753 88.8917 70.892 91.5167L77.7003 120.317C81.8003 137.65 92.517 152.692 107.567 162.225L123.475 172.308C140.842 183.308 153.884 199.958 160.409 219.45L167.075 239.375" stroke="black" stroke-width="0.833333" stroke-miterlimit="10"/>
<path d="M178.9 118.875C168.4 111.625 160.817 100.858 157.525 88.5167C157.317 87.75 156.475 87.35 155.767 87.7L90.8751 119.533C90.3417 119.792 90.0584 120.392 90.2084 120.967C93.5501 133.983 101.642 145.283 112.9 152.625C113.267 152.867 113.742 152.892 114.142 152.7L178.733 121.008C179.583 120.592 179.683 119.408 178.9 118.867V118.875Z" fill="black"/>
<path d="M87.8418 99.8917L147.717 70.5167" stroke="black" stroke-width="0.833333" stroke-miterlimit="10"/>
<path d="M88.333 106.75L148.2 77.375" stroke="black" stroke-width="0.833333" stroke-miterlimit="10"/>
<path d="M125.4 156.133L185.275 126.758" stroke="black" stroke-width="0.833333" stroke-miterlimit="10"/>
<path d="M130.575 160.425L190.442 131.05" stroke="black" stroke-width="0.833333" stroke-miterlimit="10"/>
<path d="M136.708 164.042L196.575 134.667" stroke="black" stroke-width="0.833333" stroke-miterlimit="10"/>
<path d="M176.2 217.05L236.067 187.675" stroke="black" stroke-width="0.833333" stroke-miterlimit="10"/>
<path d="M178.475 223.367L238.35 193.992" stroke="black" stroke-width="0.833333" stroke-miterlimit="10"/>
<path d="M211.85 141.417L144.267 174.575C143.45 174.975 143.333 176.075 144.025 176.658C153.933 185.008 161.492 195.875 165.875 208.175C166.125 208.883 166.925 209.217 167.6 208.883L235.392 175.625C235.958 175.35 236.242 174.683 236.025 174.083C231.533 161.308 223.608 150.075 213.2 141.567C212.817 141.258 212.292 141.2 211.85 141.417Z" fill="black"/>
<path d="M386.783 108.292L318.825 142.275C313.758 144.808 310.291 149.692 309.575 155.308L305.558 186.625L308.55 188.842L382.341 148.108C387.425 145.558 390.9 140.633 391.591 134.983L395.35 111.133C395.35 111.133 393.6 109.875 392.25 108.825C390.775 107.683 388.708 107.333 386.783 108.292Z" fill="#F3F3F3" stroke="black" stroke-width="0.833333" stroke-miterlimit="10"/>
<path d="M309.841 38.3L239.083 73.6833C234.608 75.9167 232.316 80.9833 233.574 85.8167L242.658 120.7L245.649 122.917L319.866 81.9667C324.358 79.7167 326.649 74.6083 325.341 69.7583L318.549 40.8917C318.549 40.8917 316.749 39.5417 315.758 38.8167C314.116 37.6 311.841 37.3 309.841 38.3Z" fill="#C7C7C7" stroke="black" stroke-width="0.833333" stroke-miterlimit="10"/>
<path d="M389.783 110.508L321.825 144.492C316.758 147.025 313.292 151.908 312.575 157.525L308.608 188.408C308.583 188.592 308.775 188.725 308.942 188.642L385.342 150.325C390.425 147.775 393.9 142.85 394.592 137.2L397.208 115.75C397.708 111.667 393.467 108.675 389.783 110.517V110.508Z" fill="#C7C7C7" stroke="black" stroke-width="0.833333" stroke-miterlimit="10"/>
<path d="M312.833 40.525L242.075 75.9083C237.6 78.1417 235.308 83.2083 236.566 88.0417L245.575 122.642C245.608 122.783 245.766 122.858 245.899 122.792L322.858 84.1917C327.35 81.9417 329.641 76.8333 328.333 71.9833L320.849 44.1333C319.916 40.6667 316.041 38.925 312.825 40.5333L312.833 40.525Z" fill="#566578"/>
<mask id="mask6_69562_10432" style="mask-type:luminance" maskUnits="userSpaceOnUse" x="236" y="39" width="93" height="84">
<path d="M312.833 40.525L242.075 75.9083C237.6 78.1417 235.308 83.2083 236.566 88.0417L245.575 122.642C245.608 122.783 245.766 122.858 245.899 122.792L322.858 84.1917C327.35 81.9417 329.641 76.8333 328.333 71.9833L320.849 44.1333C319.916 40.6667 316.041 38.925 312.825 40.5333L312.833 40.525Z" fill="white"/>
</mask>
<g mask="url(#mask6_69562_10432)">
<path d="M276.35 58.6166C276.35 58.6166 277.025 58.3666 277.708 58.6166C279.15 59.15 280.758 58.9417 282.141 58.2667L313.733 42.8C315.916 41.7333 318.525 42.9416 319.125 45.2916C319.125 45.2916 322.391 58.15 322.725 59.35C322.858 59.85 323.208 60.1583 323.6 60.3583C324.35 60.7333 325.208 60.075 325.058 59.25L319.308 37.6917L276.366 58.6083L276.35 58.6166Z" fill="#C7C7C7"/>
</g>
<path d="M312.833 40.525L242.075 75.9083C237.6 78.1417 235.308 83.2083 236.566 88.0417L245.575 122.642C245.608 122.783 245.766 122.858 245.899 122.792L322.858 84.1917C327.35 81.9417 329.641 76.8333 328.333 71.9833L320.849 44.1333C319.916 40.6667 316.041 38.925 312.825 40.5333L312.833 40.525Z" stroke="black" stroke-width="0.833333" stroke-miterlimit="10"/>
<path d="M363.175 49.9916L293.025 85.0666C288.092 87.5333 285.125 92.7416 285.525 98.2416L287.384 123.758C287.492 125.233 288.234 126.458 289.292 127.242C289.442 127.35 292.492 129.55 292.492 129.55L372.834 88.2833L371.259 52.7166C371.259 52.7166 369.092 51.0083 367.9 50.2416C366.559 49.3833 364.792 49.1833 363.184 49.9916H363.175Z" fill="#FF945B" stroke="black" stroke-width="0.833333" stroke-linejoin="round"/>
<path d="M366.166 52.2083L296.016 87.2833C291.083 89.75 288.116 94.9583 288.516 100.458L290.375 125.975C290.625 129.367 294.241 131.425 297.283 129.9L375.825 90.5083L373.066 56.1C372.8 52.725 369.2 50.6917 366.166 52.2083Z" fill="#FF5200"/>
<mask id="mask7_69562_10432" style="mask-type:luminance" maskUnits="userSpaceOnUse" x="288" y="51" width="88" height="80">
<path d="M366.166 52.2083L296.016 87.2833C291.083 89.75 288.116 94.9583 288.516 100.458L290.375 125.975C290.625 129.367 294.241 131.425 297.283 129.9L375.825 90.5083L373.066 56.1C372.8 52.725 369.2 50.6917 366.166 52.2083Z" fill="white"/>
</mask>
<g mask="url(#mask7_69562_10432)">
<path d="M323.933 73.3333L341.483 66.4417C343.649 65.5917 345.824 67.65 345.099 69.8583L333.758 104.3C332.349 108.575 329.799 112.392 326.383 115.325L349.658 103.65L346.683 103.1C345.658 102.908 345.058 101.842 345.424 100.875L359.666 63.1417C361.316 58.775 363.958 54.8583 367.391 51.6917L367.583 51.5167L323.933 73.3417V73.3333Z" fill="#FF945B"/>
</g>
<path d="M366.166 52.2083L296.016 87.2833C291.083 89.75 288.116 94.9583 288.516 100.458L290.375 125.975C290.625 129.367 294.241 131.425 297.283 129.9L375.825 90.5083L373.066 56.1C372.8 52.725 369.2 50.6917 366.166 52.2083Z" stroke="black" stroke-width="0.833333" stroke-miterlimit="10"/>
<path d="M332.679 163.697C334.42 159.056 333.131 154.281 329.8 153.031C326.469 151.782 322.358 154.532 320.617 159.173C318.876 163.814 320.165 168.589 323.496 169.838C326.827 171.088 330.939 168.338 332.679 163.697Z" fill="#FF5200"/>
<path d="M340.116 149.167L339.899 150.825L386.741 127.45L387.041 125.725L340.116 149.167Z" fill="black"/>
<path d="M338.55 158.117L338.325 159.783L385.175 136.408L385.475 134.683L338.55 158.117Z" fill="black"/>
<path d="M365.458 79.3028C367.199 74.6618 365.91 69.8866 362.579 68.6372C359.248 67.3878 355.136 70.1373 353.396 74.7783C351.655 79.4193 352.944 84.1945 356.275 85.4439C359.606 86.6933 363.718 83.9438 365.458 79.3028Z" fill="#F3F3F3"/>
<path d="M298.042 103.475L298.167 104.967L345.009 81.5917L344.967 80.0417L298.042 103.475Z" fill="#F3F3F3"/>
<path d="M298.292 111.525L298.425 113.008L345.267 89.6417L345.217 88.0917L298.292 111.525Z" fill="#F3F3F3"/>
<path d="M262.572 93.8572C262.663 88.9012 259.349 84.8216 255.171 84.745C250.993 84.6684 247.532 88.6239 247.441 93.5798C247.35 98.5358 250.664 102.615 254.842 102.692C259.021 102.769 262.481 98.8131 262.572 93.8572Z" fill="#C7C7C7"/>
<path d="M267.633 82.05L268.217 83.3083L315.058 59.9416L314.55 58.6166L267.633 82.05Z" fill="#C7C7C7"/>
<path d="M270.525 90.9583L271.1 92.225L317.95 68.85L317.442 67.5333L270.525 90.9583Z" fill="#C7C7C7"/>
<path d="M456.117 268C415.217 243.15 351.617 235.2 335.683 233.55C333.567 233.333 331.633 234.733 331.192 236.817L316.117 306.708C315.592 309.125 317.275 311.467 319.733 311.725C336.675 313.533 396.625 321.35 436.833 344.633C439.283 346.05 442.4 344.692 442.992 341.925L457.983 272.425C458.358 270.708 457.617 268.917 456.117 268.008V268Z" fill="#C7C7C7"/>
<mask id="mask8_69562_10432" style="mask-type:luminance" maskUnits="userSpaceOnUse" x="316" y="233" width="143" height="113">
<path d="M456.117 268C415.217 243.15 351.617 235.2 335.683 233.55C333.567 233.333 331.633 234.733 331.192 236.817L316.117 306.708C315.592 309.125 317.275 311.467 319.733 311.725C336.675 313.533 396.625 321.35 436.833 344.633C439.283 346.05 442.4 344.692 442.992 341.925L457.983 272.425C458.358 270.708 457.617 268.917 456.117 268.008V268Z" fill="white"/>
</mask>
<g mask="url(#mask8_69562_10432)">
<path d="M335.115 236.617L385.657 297.325L457.174 270.3L335.115 236.617Z" fill="black" stroke="black" stroke-width="0.833333" stroke-miterlimit="10"/>
<path d="M333.024 234.183L386.091 295.858L457.841 270.067L458.074 266.492C458.074 266.492 428.241 247.225 397.166 240.375C366.091 233.525 333.633 230.725 333.633 230.725L333.016 234.183H333.024Z" fill="#F3F3F3" stroke="black" stroke-width="0.833333" stroke-miterlimit="10"/>
<path d="M316.499 309.492L375.974 284.1" stroke="black" stroke-width="0.416667" stroke-miterlimit="10"/>
<path d="M405.416 288.917L440.449 344.95" stroke="black" stroke-width="0.416667" stroke-miterlimit="10"/>
</g>
<path d="M456.117 268C415.217 243.15 351.617 235.2 335.683 233.55C333.567 233.333 331.633 234.733 331.192 236.817L316.117 306.708C315.592 309.125 317.275 311.467 319.733 311.725C336.675 313.533 396.625 321.35 436.833 344.633C439.283 346.05 442.4 344.692 442.992 341.925L457.983 272.425C458.358 270.708 457.617 268.917 456.117 268.008V268Z" stroke="black" stroke-width="0.833333" stroke-miterlimit="10"/>
</g>
<defs>
</defs>
</svg>
