<svg width="500" height="500" viewBox="0 0 500 500" fill="none" xmlns="http://www.w3.org/2000/svg">
<g>
<g clip-path="url(#clip0_69562_10287)">
<path d="M500 -0.346191H0V499.654H500V-0.346191Z" fill="white"/>
<path d="M300.284 473.671L70.617 413.112C61.3587 410.671 58.817 398.729 66.2837 392.729L133.425 338.796C141.767 332.096 152.8 329.746 163.15 332.479L395.867 393.837C403.25 395.787 405.275 405.312 399.325 410.096L327.342 467.921C319.742 474.021 309.7 476.162 300.284 473.671Z" fill="black" stroke="black" stroke-width="0.833333" stroke-miterlimit="10"/>
<path d="M338.275 439.521L409.983 458.562C413.483 459.487 417.208 458.704 420.033 456.446L420.9 455.746C423.35 453.779 422.542 449.871 419.508 449.037L353.375 430.954L338.267 439.512L338.275 439.521Z" fill="black" stroke="black" stroke-width="0.833333" stroke-miterlimit="10"/>
<path d="M52.3081 358.546L121.65 376.954L132.891 367.946L65.5998 349.546C61.6831 348.479 57.4998 348.996 53.9664 350.996L51.5081 352.387C48.8998 353.862 49.3998 357.771 52.2998 358.537L52.3081 358.546Z" fill="black" stroke="black" stroke-width="0.833333" stroke-miterlimit="10"/>
<path d="M64.2915 176.829L41.5082 172.046C38.0998 171.329 34.3748 175.354 33.1832 181.029C31.9915 186.704 33.7832 191.887 37.1915 192.604L60.4082 197.479" fill="#C7C7C7"/>
<mask id="mask0_69562_10287" style="mask-type:luminance" maskUnits="userSpaceOnUse" x="32" y="171" width="33" height="27">
<path d="M64.2915 176.829L41.5082 172.046C38.0998 171.329 34.3748 175.354 33.1832 181.029C31.9915 186.704 33.7832 191.887 37.1915 192.604L60.4082 197.479" fill="white"/>
</mask>
<g mask="url(#mask0_69562_10287)">
<path d="M31.1759 181.354C31.1759 181.354 33.8426 190.296 39.6426 190.296C45.4426 190.296 64.2926 194.846 64.2926 194.846L62.5426 202.687L33.6759 195.629C33.6759 195.629 30.0676 190.137 31.1676 181.354H31.1759Z" fill="#566578"/>
</g>
<path d="M64.2915 176.829L41.5082 172.046C38.0998 171.329 34.3748 175.354 33.1832 181.029C31.9915 186.704 33.7832 191.887 37.1915 192.604L60.4082 197.479" stroke="black" stroke-width="0.833333" stroke-miterlimit="10"/>
<path d="M189.701 57.3038L182.718 55.8371C133.601 45.5205 79.8343 103.562 62.6343 185.47C45.4343 267.379 71.3093 342.145 120.426 352.462L127.409 353.929" fill="#963000"/>
<mask id="mask1_69562_10287" style="mask-type:luminance" maskUnits="userSpaceOnUse" x="57" y="54" width="133" height="300">
<path d="M189.702 57.3038L182.719 55.8371C133.602 45.5205 79.8353 103.562 62.6353 185.47C45.4353 267.379 71.3103 342.145 120.427 352.462L127.41 353.929" fill="white"/>
</mask>
<g mask="url(#mask1_69562_10287)">
<path d="M58.5684 182.429L78.885 187.445L138.102 82.3704L224.177 41.3954L155.002 35.2621C155.002 35.2621 60.835 91.3371 58.5684 182.42V182.429Z" fill="#FF945B"/>
</g>
<path d="M189.701 57.3038L182.718 55.8371C133.601 45.5205 79.8343 103.562 62.6343 185.47C45.4343 267.379 71.3093 342.145 120.426 352.462L127.409 353.929" stroke="black" stroke-width="0.833333" stroke-miterlimit="10"/>
<path d="M247.484 224.294C264.685 142.382 238.813 67.6173 189.695 57.3024C140.578 46.9876 86.8154 105.029 69.6135 186.941C52.4117 268.853 78.2844 343.617 127.402 353.932C176.519 364.247 230.282 306.206 247.484 224.294Z" fill="#FF5200"/>
<mask id="mask2_69562_10287" style="mask-type:luminance" maskUnits="userSpaceOnUse" x="64" y="56" width="189" height="300">
<path d="M247.485 224.294C264.686 142.382 238.814 67.6172 189.696 57.3023C140.579 46.9875 86.8163 105.028 69.6145 186.94C52.4126 268.852 78.2854 343.617 127.403 353.932C176.52 364.247 230.283 306.206 247.485 224.294Z" fill="white"/>
</mask>
<g mask="url(#mask2_69562_10287)">
<path d="M96.5762 244.821C96.5762 244.821 98.0012 330.921 151.176 346.221C171.31 352.012 180.976 339.946 180.976 339.946L218.026 279.521L96.5762 244.821Z" fill="black" stroke="black" stroke-width="0.833333" stroke-miterlimit="10"/>
</g>
<path d="M247.484 224.294C264.685 142.382 238.813 67.6173 189.695 57.3024C140.578 46.9876 86.8154 105.029 69.6135 186.941C52.4117 268.853 78.2844 343.617 127.402 353.932C176.519 364.247 230.282 306.206 247.484 224.294Z" stroke="black" stroke-width="0.833333" stroke-miterlimit="10"/>
<path d="M273.433 101.912L199.941 86.4788C159.35 77.9538 114.925 125.912 100.708 193.604C86.4913 261.287 107.875 323.071 148.466 331.596L217.858 349.846" fill="#C7C7C7"/>
<mask id="mask3_69562_10287" style="mask-type:luminance" maskUnits="userSpaceOnUse" x="96" y="85" width="178" height="265">
<path d="M273.432 101.912L199.94 86.4788C159.349 77.9538 114.924 125.912 100.707 193.604C86.4904 261.287 107.874 323.071 148.465 331.596L217.857 349.846" fill="white"/>
</mask>
<g mask="url(#mask3_69562_10287)">
<path d="M136.332 115.07C136.332 115.07 131.191 122.687 139.232 122.962C143.941 123.12 148.266 119.887 158.816 122.095C158.816 122.095 157.649 124.645 160.249 125.495C163.782 126.645 168.632 125.395 175.107 125.979C179.716 126.395 186.024 129.129 189.699 130.154C205.357 134.545 208.949 128.562 208.949 128.562L213.116 136.412L200.066 146.937C200.066 146.937 199.016 140.312 186.841 135.445C176.416 131.279 170.099 135.57 160.082 133.295C150.066 131.02 149.649 126.887 143.191 126.354C131.174 125.37 118.907 134.937 118.907 134.937C118.907 134.937 122.099 116.537 136.324 115.07H136.332Z" fill="#F3F3F3"/>
<path d="M166.158 91.5704C166.158 91.5704 178.742 85.2371 192.483 87.6871C194.5 88.0454 200.758 88.6121 203.983 89.5538C205.842 90.0954 205.708 91.3038 205.708 91.3038C205.708 91.3038 212.975 90.9621 216.283 91.6038C224.95 93.2871 232.858 95.4538 237.442 96.3538C239.675 96.7954 239.8 98.0538 239.8 98.0538C239.8 98.0538 244.183 97.5704 246.517 98.2871C247.942 98.7288 247.325 99.8788 247.325 99.8788C250.383 100.004 254.825 99.2121 254.1 102.262L276.175 101.254C276.175 101.254 210.692 79.7288 189.708 79.7288C168.725 79.7288 166.167 91.5538 166.167 91.5538L166.158 91.5704Z" fill="#566578"/>
<path d="M244.016 100.537C251.008 98.9204 258.058 98.7538 264.991 100.212" stroke="black" stroke-width="0.833333" stroke-miterlimit="10"/>
<path d="M169.341 255.179C167.825 258.495 160.5 256.079 160.925 252.97C160.558 255.637 152.158 254.895 152.158 249.995C151.625 251.162 148.541 253.429 138.858 249.654C132.541 247.195 124.208 246.47 117.941 243.987C113.158 242.087 112.791 239.02 112.791 239.02C112.791 239.02 111.5 241.412 108.191 240.312C104.883 239.212 104.575 236.695 104.575 236.695C104.575 236.695 102.575 238.162 100.55 237.129C97.2998 235.47 96.4581 231.52 96.3165 228.595C96.3165 228.595 93.8165 243.654 97.7998 265.879C98.8915 271.954 100.325 278.879 101.833 285.729C106.666 307.67 123.258 325.129 144.941 331.02L213.075 349.529L169.35 255.179H169.341Z" fill="#566578"/>
<path d="M164.249 208.979C166.907 196.304 170.616 184.312 175.149 173.229C188.132 141.504 207.891 117.287 229.332 106.07" stroke="black" stroke-width="0.833333" stroke-miterlimit="10"/>
<path d="M212.733 349.079C197.5 345.879 184.933 335.287 175.867 319.745" stroke="black" stroke-width="0.833333" stroke-miterlimit="10"/>
<path d="M158.725 196.021C175.466 133.304 217.875 90.2955 256.808 98.4705" stroke="black" stroke-width="0.833333" stroke-miterlimit="10"/>
<path d="M204.541 347.337C192.524 344.812 182.166 337.687 173.874 327.162" stroke="black" stroke-width="0.833333" stroke-miterlimit="10"/>
<path d="M147.866 205.495C151.766 186.945 157.891 169.854 165.582 154.954C177.099 132.637 192.099 115.245 208.307 105.245" stroke="black" stroke-width="0.833333" stroke-miterlimit="10"/>
<path d="M196.35 345.604C179.45 342.054 165.825 329.412 156.634 310.987" stroke="black" stroke-width="0.833333" stroke-miterlimit="10"/>
<path d="M145.924 180.57C156.415 149.004 173.49 123.454 192.899 108.495" stroke="black" stroke-width="0.833333" stroke-miterlimit="10"/>
<path d="M143.766 162.97C155.166 136.537 171.299 115.629 189.074 103.604" stroke="black" stroke-width="0.833333" stroke-miterlimit="10"/>
<path d="M115.1 198.537C123.958 156.345 144.383 121.704 168.367 103.245" stroke="black" stroke-width="0.833333" stroke-miterlimit="10"/>
<path d="M163.583 338.646C149.591 335.704 137.849 326.537 129.008 313.021" stroke="black" stroke-width="0.833333" stroke-miterlimit="10"/>
<path d="M203.283 91.7954C210.2 90.2288 217.175 90.0787 224.042 91.5204" stroke="black" stroke-width="0.833333" stroke-miterlimit="10"/>
<path d="M133.167 167.079C144.533 138.129 161.525 115.154 180.392 102.195" stroke="black" stroke-width="0.833333" stroke-miterlimit="10"/>
<path d="M109.816 184.72C119.525 148.954 137.591 119.679 158.558 102.787" stroke="black" stroke-width="0.833333" stroke-miterlimit="10"/>
<path d="M155.392 336.904C139.675 333.604 126.792 322.437 117.667 306.07" stroke="black" stroke-width="0.833333" stroke-miterlimit="10"/>
<path d="M165.2 204.287C162.466 217.504 160.266 240.52 161.266 250.762C161.375 251.904 161.641 253.029 162.15 254.054C162.616 254.995 163.333 255.987 164.408 256.479C166.816 257.595 156.575 254.654 156.575 254.654C156.575 254.654 159.225 254.912 159.191 252.629C159.125 248.695 159.216 242.312 160.133 236.745C161.583 227.945 159.525 226.995 160.933 220.495C162.708 212.279 165.208 204.287 165.208 204.287H165.2Z" fill="#566578"/>
<path d="M128.733 182.445C128.733 182.445 123.333 198.47 122.024 215.32C122.024 215.32 120.224 201.095 128.733 182.445Z" fill="#566578"/>
<path d="M105.608 217.679C105.608 217.679 105 227.737 104.858 235.604C104.791 239.021 106.2 239.487 107.55 240.629C111.575 244.037 99.8748 241.187 102.416 238.646C103.458 237.604 104.291 236.079 103.891 232.754C103.316 228.021 104.058 225.104 104.566 222.637C105.166 219.721 105.608 217.671 105.608 217.671V217.679Z" fill="#566578"/>
<path d="M152.607 239.771C152.607 239.771 151.341 252.237 153.224 255.92C155.107 259.604 146.966 251.954 146.966 251.954C146.966 251.954 150.157 251.829 150.316 250.154C150.716 246.029 152.607 239.771 152.607 239.771Z" fill="#566578"/>
</g>
<path d="M273.433 101.912L199.941 86.4788C159.35 77.9538 114.925 125.912 100.708 193.604C86.4913 261.287 107.875 323.071 148.466 331.596L217.858 349.846" stroke="black" stroke-width="0.833333" stroke-miterlimit="10"/>
<path d="M171.76 282.137C168.076 260.82 168.476 236.279 173.81 210.912C188.243 142.187 233.351 93.4955 274.56 102.154C315.768 110.812 337.476 173.537 323.043 242.254C308.61 310.979 263.501 359.67 222.293 351.012C211.035 348.645 201.235 342.245 193.226 332.795" fill="#566578"/>
<mask id="mask4_69562_10287" style="mask-type:luminance" maskUnits="userSpaceOnUse" x="169" y="101" width="159" height="252">
<path d="M171.761 282.137C168.077 260.82 168.477 236.279 173.811 210.912C188.244 142.187 233.352 93.4955 274.561 102.154C315.769 110.812 337.477 173.537 323.044 242.254C308.611 310.979 263.502 359.67 222.294 351.012C211.036 348.645 201.236 342.245 193.227 332.795" fill="white"/>
</mask>
<g mask="url(#mask4_69562_10287)">
<path d="M264.519 107.337L228.169 131.912L174.202 202.562C174.202 202.562 178.452 161.512 206.26 131.587C234.06 101.662 264.527 107.346 264.527 107.346L264.519 107.337Z" fill="black"/>
<path d="M169.36 255.512C169.427 258.646 178.077 260.196 178.077 252.937C178.077 240.887 328.652 105.512 307.118 99.3705C294.452 95.7539 279.643 90.7039 272.393 98.5039C253.352 118.996 237.077 120.112 224.243 129.446C210.502 139.437 206.66 148.979 200.61 151.462C197.418 152.771 199.418 146.687 199.418 146.687C154.918 199.104 169.293 252.396 169.36 255.521V255.512Z" fill="#C7C7C7"/>
</g>
<path d="M171.76 282.137C168.076 260.82 168.476 236.279 173.81 210.912C188.243 142.187 233.351 93.4955 274.56 102.154C315.768 110.812 337.476 173.537 323.043 242.254C308.61 310.979 263.501 359.67 222.293 351.012C211.035 348.645 201.235 342.245 193.226 332.795" stroke="black" stroke-width="0.833333" stroke-miterlimit="10"/>
<path d="M249.443 350.495L228.318 345.262C189.218 337.054 168.627 277.537 182.318 212.337C196.01 147.137 238.81 100.937 277.91 109.145L299.277 113.629" fill="#566578"/>
<mask id="mask5_69562_10287" style="mask-type:luminance" maskUnits="userSpaceOnUse" x="178" y="108" width="122" height="243">
<path d="M249.444 350.495L228.319 345.262C189.219 337.054 168.628 277.537 182.319 212.337C196.011 147.137 238.811 100.937 277.911 109.145L299.277 113.629" fill="white"/>
</mask>
<g mask="url(#mask5_69562_10287)">
<path d="M178.077 246.937C178.077 246.937 180.602 252.454 187.66 250.729C187.66 250.729 190.71 256.371 196.519 253.179C196.519 253.179 196.885 257.346 203.285 257.346C209.685 257.346 208.81 255.604 218.269 259.129C231.944 264.221 237.194 261.946 237.194 261.946C237.194 261.946 234.819 240.912 247.21 211.971C259.602 183.029 258.252 177.379 258.252 177.379C258.252 177.379 248.135 172.412 243.144 175.687C243.144 175.687 244.51 174.562 233.469 171.496C225.919 169.396 225.385 171.929 225.385 171.929C225.385 171.929 221.61 165.812 215.927 171.221C215.927 171.221 216.11 169.346 212.552 168.304C209.369 167.371 207.202 169.029 207.202 169.029C207.202 169.029 207.827 163.029 198.935 164.712C192.077 166.012 170.494 226.471 178.06 246.937H178.077Z" fill="#C7C7C7"/>
<path d="M268.71 110.779C260.277 111.345 241.735 116.02 222.918 143.52C222.918 143.52 224.768 141.195 228.568 141.937C230.002 142.212 230.852 142.845 231.36 143.47C231.968 144.22 233.01 144.495 233.918 144.162C235.035 143.745 236.552 143.404 238.143 143.662C240.677 144.07 243.593 146.929 243.868 146.97C243.868 146.97 257.085 149.804 259.693 149.487C267.785 148.504 266.76 155.487 274.218 150.279L299.277 121.695L295.56 113.987C295.56 113.987 289.177 114.087 282.677 114.087C279.102 114.087 276.668 113.12 275.202 112.254C273.252 111.104 270.985 110.629 268.727 110.779H268.71Z" fill="#C7C7C7"/>
<path d="M218.976 338.095C192.568 317.587 180.593 267.754 191.868 214.07C197.826 185.712 209.285 160.945 223.551 142.687" stroke="black" stroke-width="0.833333" stroke-miterlimit="10"/>
<path d="M216.418 328.162C198.226 303.621 191.251 261.171 200.735 215.987C207.268 184.887 220.418 158.112 236.635 139.504" stroke="black" stroke-width="0.833333" stroke-miterlimit="10"/>
<path d="M232.968 343.512C229.893 341.687 226.984 339.495 224.251 336.962" stroke="black" stroke-width="0.833333" stroke-miterlimit="10"/>
<path d="M255.601 350.82C216.501 342.612 195.91 283.095 209.601 217.895C214.893 192.687 224.543 170.32 236.643 152.837" stroke="black" stroke-width="0.833333" stroke-miterlimit="10"/>
<path d="M239.885 163.512C243.818 156.887 248.085 150.812 252.601 145.379" stroke="black" stroke-width="0.833333" stroke-miterlimit="10"/>
<path d="M264.46 352.729C225.36 344.521 204.768 285.004 218.46 219.804C221.793 203.921 226.86 189.171 233.168 176.062" stroke="black" stroke-width="0.833333" stroke-miterlimit="10"/>
<path d="M273.318 354.646C234.218 346.437 213.627 286.921 227.318 221.721C233.552 192.054 245.81 166.321 261.002 147.854" stroke="black" stroke-width="0.833333" stroke-miterlimit="10"/>
<path d="M282.184 356.554C243.084 348.345 222.493 288.829 236.184 223.629C241.718 197.287 251.993 174.054 264.868 156.245" stroke="black" stroke-width="0.833333" stroke-miterlimit="10"/>
<path d="M245.918 125.437C245.918 125.437 251.96 122.095 256.543 126.104C256.543 126.104 260.568 124.845 263.41 126.345C266.252 127.845 267.06 130.445 273.435 131.495C284.427 133.304 295.06 134.87 295.06 134.87L298.118 130.087C298.118 130.087 285.552 128.562 271.668 125.112C262.702 122.879 258.668 124.295 258.668 124.295C258.668 124.295 256.868 121.662 254.827 121.437C251.143 121.029 245.918 125.429 245.918 125.429V125.437Z" fill="#F3F3F3"/>
</g>
<path d="M249.443 350.496L228.318 345.262C189.218 337.054 168.627 277.537 182.318 212.337C196.01 147.137 238.81 100.937 277.91 109.145L299.277 113.629" stroke="black" stroke-width="0.833333" stroke-miterlimit="10"/>
<path d="M379.341 85.1288L371.724 83.5288C318.133 72.2705 259.474 135.595 240.708 224.962C221.941 314.329 250.166 395.904 303.758 407.154L311.374 408.754" fill="#963000"/>
<mask id="mask6_69562_10287" style="mask-type:luminance" maskUnits="userSpaceOnUse" x="234" y="82" width="146" height="327">
<path d="M379.34 85.1288L371.723 83.5288C318.132 72.2705 259.473 135.595 240.707 224.962C221.94 314.329 250.165 395.904 303.757 407.154L311.373 408.754" fill="white"/>
</mask>
<g mask="url(#mask6_69562_10287)">
<path d="M233.565 223.262L253.882 228.279L313.099 123.204L399.174 82.2288L329.999 76.0955C329.999 76.0955 235.832 132.17 233.565 223.254V223.262Z" fill="#FF945B"/>
</g>
<path d="M379.341 85.1288L371.724 83.5288C318.133 72.2705 259.474 135.595 240.708 224.962C221.941 314.329 250.166 395.904 303.758 407.154L311.374 408.754" stroke="black" stroke-width="0.833333" stroke-miterlimit="10"/>
<path d="M442.382 267.309C461.149 177.943 432.92 96.3736 379.33 85.1195C325.74 73.8653 267.082 137.188 248.315 226.554C229.548 315.92 257.777 397.489 311.367 408.744C364.957 419.998 423.615 356.675 442.382 267.309Z" fill="#FF5200"/>
<mask id="mask7_69562_10287" style="mask-type:luminance" maskUnits="userSpaceOnUse" x="242" y="83" width="207" height="328">
<path d="M442.382 267.309C461.149 177.943 432.92 96.3736 379.33 85.1195C325.74 73.8653 267.082 137.188 248.315 226.554C229.548 315.92 257.777 397.489 311.367 408.744C364.957 419.998 423.615 356.675 442.382 267.309Z" fill="white"/>
</mask>
<g mask="url(#mask7_69562_10287)">
<path d="M344.199 260.195L344.616 260.829C345.333 261.904 345.716 263.162 345.716 264.454V360.179C345.716 362.712 348.949 363.762 350.441 361.72C351.933 359.679 353.308 356.529 353.441 352.02C353.658 344.779 353.524 280.254 353.491 265.337C353.491 263.362 354.233 261.47 355.583 260.029L356.133 259.445L344.191 260.204L344.199 260.195Z" fill="black" stroke="black" stroke-width="0.833333" stroke-miterlimit="10"/>
<path d="M429.266 266.596C412.316 347.321 360.241 404.712 312.958 394.779C300.1 392.079 288.933 384.671 279.808 373.704C289.45 386.162 301.508 394.571 315.516 397.512C363.875 407.671 417.133 348.971 434.466 266.404C435.916 259.521 430.366 261.312 429.258 266.587L429.266 266.596Z" fill="#FF945B"/>
</g>
<path d="M442.382 267.309C461.149 177.943 432.92 96.3736 379.33 85.1195C325.74 73.8653 267.082 137.188 248.315 226.554C229.548 315.92 257.777 397.489 311.367 408.744C364.957 419.998 423.615 356.675 442.382 267.309Z" stroke="black" stroke-width="0.833333" stroke-miterlimit="10"/>
<path d="M360.847 249.605C362.688 240.84 359.919 232.839 354.663 231.736C349.406 230.632 343.653 236.842 341.812 245.607C339.972 254.372 342.741 262.373 347.997 263.477C353.253 264.58 359.006 258.37 360.847 249.605Z" fill="black" stroke="black" stroke-width="0.833333" stroke-miterlimit="10"/>
<path d="M462.092 258.562L355.683 236.212C351.775 235.396 347.508 240.004 346.142 246.521C344.775 253.029 346.833 258.971 350.733 259.796L457.142 282.146" fill="#C7C7C7"/>
<mask id="mask8_69562_10287" style="mask-type:luminance" maskUnits="userSpaceOnUse" x="345" y="236" width="118" height="47">
<path d="M462.091 258.562L355.682 236.212C351.774 235.396 347.507 240.004 346.141 246.521C344.774 253.029 346.832 258.971 350.732 259.796L457.141 282.146" fill="white"/>
</mask>
<g mask="url(#mask8_69562_10287)">
<path d="M346.717 244.396C345.734 249.921 347.892 253.354 351.342 254.771C354.792 256.187 365.459 255.571 380.359 260.587C395.259 265.596 423.984 274.837 443.834 276.212C446.459 276.396 448.117 275.837 449.125 275.229C449.784 274.837 450.617 275.162 450.8 275.904C451.375 278.246 452.959 282.046 457.242 283.279C462.084 284.671 344.634 260.829 344.634 260.829L346.725 244.396H346.717Z" fill="#566578"/>
</g>
<path d="M462.092 258.562L355.683 236.212C351.775 235.396 347.508 240.004 346.142 246.521C344.775 253.029 346.833 258.971 350.733 259.796L457.142 282.146" stroke="black" stroke-width="0.833333" stroke-miterlimit="10"/>
<path d="M466.686 271.827C468.054 265.314 465.997 259.369 462.092 258.549C458.187 257.729 453.913 262.344 452.545 268.857C451.177 275.37 453.234 281.314 457.139 282.134C461.044 282.955 465.319 278.34 466.686 271.827Z" fill="#566578" stroke="black" stroke-width="0.833333" stroke-miterlimit="10"/>
<path d="M463.803 271.231C464.893 266.042 463.253 261.306 460.141 260.652C457.029 259.999 453.622 263.675 452.533 268.864C451.443 274.053 453.083 278.789 456.195 279.442C459.307 280.096 462.714 276.42 463.803 271.231Z" fill="black" stroke="black" stroke-width="0.833333" stroke-miterlimit="10"/>
<path d="M274.209 108.537C256.701 105.587 218.634 113.837 180.734 164.62C144.334 213.395 92.5591 327.912 88.5091 336.92C88.3674 337.229 88.0007 337.354 87.7007 337.204L80.5091 333.604C80.3841 333.545 80.3341 333.404 80.3924 333.279C97.4757 296.487 141.792 203.929 174.059 160.687C214.942 105.912 251.292 100.562 268.926 101.329" fill="#566578"/>
<mask id="mask9_69562_10287" style="mask-type:luminance" maskUnits="userSpaceOnUse" x="80" y="101" width="195" height="237">
<path d="M274.21 108.537C256.702 105.587 218.635 113.837 180.735 164.62C144.335 213.395 92.5601 327.912 88.5101 336.92C88.3684 337.229 88.0017 337.354 87.7017 337.204L80.5101 333.604C80.3851 333.545 80.3351 333.404 80.3934 333.279C97.4767 296.487 141.793 203.929 174.06 160.687C214.943 105.912 251.293 100.562 268.927 101.329" fill="white"/>
</mask>
<g mask="url(#mask9_69562_10287)">
<path d="M144.634 207.054C144.634 207.054 138.792 216.129 142.159 215.52C146.209 214.787 150.934 205.662 157.675 194.629C163.117 185.729 174.292 167.87 188.459 151.62C200.384 137.945 214.792 125.537 226.117 119.112C250.775 105.129 267.7 107.329 272.85 108.312C278 109.295 284.842 105.604 284.842 105.604L266.592 85.4955C266.592 85.4955 212.217 113.395 189.692 138.12C165.109 165.104 144.625 207.054 144.625 207.054H144.634Z" fill="#C7C7C7"/>
<path d="M207.292 124.979C205.842 126.129 202.517 128.762 203.117 130.037C203.584 131.037 207.65 128.646 208.634 127.912C220.825 118.921 226.467 114.921 239.292 109.621C241.009 108.912 238.675 105.854 228.75 110.904C217.925 116.412 208.742 123.821 207.292 124.971V124.979Z" fill="#F3F3F3"/>
</g>
<path d="M274.209 108.537C256.701 105.587 218.634 113.837 180.734 164.62C144.334 213.395 92.5591 327.912 88.5091 336.92C88.3674 337.229 88.0007 337.354 87.7007 337.204L80.5091 333.604C80.3841 333.545 80.3341 333.404 80.3924 333.279C97.4758 296.487 141.792 203.929 174.059 160.687C214.942 105.912 251.292 100.562 268.926 101.329" stroke="black" stroke-width="0.833333" stroke-miterlimit="10"/>
<path d="M88.2625 337.485C88.9116 336.189 87.6531 334.244 85.4514 333.142C83.2498 332.039 80.9388 332.196 80.2896 333.493C79.6405 334.789 80.8991 336.734 83.1007 337.836C85.3023 338.939 87.6134 338.782 88.2625 337.485Z" fill="black" stroke="black" stroke-width="0.833333" stroke-miterlimit="10"/>
<path d="M270.318 101.462L267.784 101.287" stroke="black" stroke-width="0.833333" stroke-miterlimit="10"/>
<path d="M418.367 128.454C408.1 112.629 394.517 101.929 378.317 98.5288C329.958 88.3705 276.7 147.07 259.367 229.637C255.142 249.77 253.442 269.462 253.983 287.879" stroke="black" stroke-width="0.833333" stroke-miterlimit="10"/>
</g>
</g>
<defs>
<clipPath id="clip0_69562_10287">
<rect width="500" height="500" fill="white"/>
</clipPath>
</defs>
</svg>
