<svg width="500" height="500" viewBox="0 0 500 500" fill="none" xmlns="http://www.w3.org/2000/svg">
<g>
<path d="M403.999 414.083L177.641 337.333C168.541 334.25 158.874 332.842 149.249 333.117C140.908 333.35 132.574 332.267 124.674 329.592L99.6328 321.1C91.5828 318.367 82.8662 318.333 74.7912 321L66.8495 323.617C60.1162 325.833 59.4745 333.683 65.7745 336.675L92.3245 349.275C95.7662 350.908 97.9662 354.275 98.3912 358.058C98.9078 362.642 101.858 367.058 107.383 369.683L288.124 455.467C305.833 463.875 326.974 465.367 346.083 459.575L403.408 442.183C418.791 437.517 419.183 419.225 404.016 414.075L403.999 414.083Z" fill="black"/>
<path d="M36.6831 214.5V234.392C36.6831 235.492 37.1914 236.425 37.9498 237.025C38.9248 237.8 39.7748 238.458 39.7748 238.458L59.5081 228.367L36.6831 214.5Z" fill="#566578" stroke="black" stroke-width="0.833333" stroke-linecap="round" stroke-linejoin="round"/>
<path d="M117.949 263.9L37.3242 214.933C37.3242 214.933 55.7992 217.467 68.5409 210.767C81.2826 204.058 82.0159 192.8 82.0159 192.8L139.749 226.133L117.941 263.908L117.949 263.9Z" fill="#CEC4A1"/>
<path d="M117.949 263.9L37.3242 214.933C37.3242 214.933 55.7992 217.467 68.5409 210.767C81.2826 204.058 82.0159 192.8 82.0159 192.8L139.749 226.133L117.941 263.908L117.949 263.9Z" stroke="black" stroke-width="0.833333" stroke-linejoin="round"/>
<path d="M38.2832 215.508C42.9916 215.833 57.1666 216.267 67.6416 210.758C80.3832 204.05 81.5499 193.408 81.5499 193.408L82.7249 194.125C82.7249 194.125 78.3999 202.658 81.2832 207.925C82.9582 210.983 87.0166 213.842 90.1749 215.717C91.9832 216.792 91.9582 219.417 90.1416 220.467C86.9916 222.3 83.1916 222.6 79.7832 221.317C76.1582 219.958 71.1082 218.333 66.2499 217.667C56.7332 216.358 43.9166 216.3 39.6332 216.317L38.2749 215.492L38.2832 215.508Z" fill="black" stroke="black" stroke-width="0.833333" stroke-linecap="round" stroke-linejoin="round"/>
<path d="M36.6831 214.467C36.6831 214.467 54.8998 216.558 67.6414 209.85C80.3831 203.142 81.5498 192.5 81.5498 192.5L82.7248 193.217C82.7248 193.217 78.3998 201.75 81.2831 207.017C82.9581 210.075 87.0164 212.933 90.1748 214.808C91.9831 215.883 91.9581 218.508 90.1414 219.558C86.9914 221.392 83.1914 221.692 79.7831 220.408C76.1581 219.05 71.1081 217.425 66.2498 216.758C54.6498 215.167 38.1664 215.425 38.1664 215.425L36.6831 214.45V214.467Z" fill="#566578" stroke="black" stroke-width="0.833333" stroke-linecap="round" stroke-linejoin="round"/>
<path d="M38.2827 215.758V235.65C38.2827 238.158 40.9327 239.792 43.1744 238.658L61.1077 229.617L38.2827 215.75V215.758Z" fill="black" stroke="black" stroke-width="0.833333" stroke-linecap="round" stroke-linejoin="round"/>
<path d="M76.7915 238.717C76.7915 238.717 95.3832 240.85 108.383 234.008C121.391 227.167 122.583 216.3 122.583 216.3" stroke="black" stroke-width="0.833333" stroke-linecap="round" stroke-linejoin="round"/>
<path d="M87.9746 221.208L121.8 241.083" stroke="black" stroke-width="0.833333" stroke-linecap="round" stroke-linejoin="round"/>
<path d="M85.417 208.208C89.7087 202.917 90.242 198.017 90.242 198.017" stroke="black" stroke-width="0.833333" stroke-linecap="round" stroke-linejoin="round"/>
<path d="M94.5747 213.042C98.708 207.833 99.233 203.067 99.233 203.067" stroke="black" stroke-width="0.833333" stroke-linecap="round" stroke-linejoin="round"/>
<path d="M102.658 219.167C107.616 213.558 108.208 208.125 108.208 208.125" stroke="black" stroke-width="0.833333" stroke-linecap="round" stroke-linejoin="round"/>
<path d="M111.024 224.892C116.549 219.058 117.191 213.175 117.191 213.175" stroke="black" stroke-width="0.833333" stroke-linecap="round" stroke-linejoin="round"/>
<path d="M39.9668 217.908C39.9668 217.908 46.1001 218.608 53.7751 217.908" stroke="black" stroke-width="0.833333" stroke-linecap="round" stroke-linejoin="round"/>
<path d="M82.4834 203.55C85.3584 199.15 85.7584 195.492 85.7584 195.492" stroke="black" stroke-width="0.833333" stroke-linecap="round" stroke-linejoin="round"/>
<path d="M48.9512 222.958C48.9512 222.958 55.0678 223.658 62.7345 222.958" stroke="black" stroke-width="0.833333" stroke-linecap="round" stroke-linejoin="round"/>
<path d="M91.3584 208.75C94.3251 204.275 94.7334 200.542 94.7334 200.542" stroke="black" stroke-width="0.833333" stroke-linecap="round" stroke-linejoin="round"/>
<path d="M57.9258 228.008C57.9258 228.008 64.0258 228.708 71.6841 228.017" stroke="black" stroke-width="0.833333" stroke-linecap="round" stroke-linejoin="round"/>
<path d="M100.242 213.958C103.3 209.417 103.717 205.592 103.717 205.592" stroke="black" stroke-width="0.833333" stroke-linecap="round" stroke-linejoin="round"/>
<path d="M109.118 219.167C112.268 214.558 112.701 210.65 112.701 210.65" stroke="black" stroke-width="0.833333" stroke-linecap="round" stroke-linejoin="round"/>
<path d="M66.9092 233.067C66.9092 233.067 73.0008 233.767 80.6425 233.075" stroke="black" stroke-width="0.833333" stroke-linecap="round" stroke-linejoin="round"/>
<path d="M85.5244 244.083C85.5244 244.083 91.6577 244.783 99.3327 244.083" stroke="black" stroke-width="0.833333" stroke-linecap="round" stroke-linejoin="round"/>
<path d="M123.833 227.217C126.708 222.817 127.108 219.158 127.108 219.158" stroke="black" stroke-width="0.833333" stroke-linecap="round" stroke-linejoin="round"/>
<path d="M93.7837 249.133C93.7837 249.133 99.9004 249.833 107.567 249.133" stroke="black" stroke-width="0.833333" stroke-linecap="round" stroke-linejoin="round"/>
<path d="M102.467 254.342C102.467 254.342 108.567 255.042 116.225 254.35" stroke="black" stroke-width="0.833333" stroke-linecap="round" stroke-linejoin="round"/>
<path d="M110.759 259.392C110.759 259.392 113.784 259.742 118.242 259.7" stroke="black" stroke-width="0.833333" stroke-linecap="round" stroke-linejoin="round"/>
<path d="M150.35 152.992L144.908 161.45C144.617 161.908 144.525 162.475 144.667 163L145.9 167.675C146.033 168.183 145.958 168.725 145.683 169.175L143.35 173.067C143.075 173.525 143 174.083 143.15 174.6L144.383 178.917C144.533 179.45 144.45 180.025 144.158 180.492L141.942 184C141.65 184.467 141.567 185.033 141.708 185.558L142.95 190.033C143.092 190.533 143.025 191.058 142.767 191.508L140.325 195.85C140.058 196.317 140 196.875 140.167 197.383L141.292 201.008C141.517 201.733 142.142 202.258 142.9 202.358L145.608 202.717C146.675 202.858 147.65 202.108 147.792 201.042L153.367 158.758C153.425 158.317 153.333 157.867 153.1 157.492L150.358 152.992H150.35Z" fill="black"/>
<path d="M445.625 216.558C442.842 190.6 435.892 165.808 425.892 143.592C425.475 142.667 424.983 141.783 424.417 140.942C415.6 127.825 388.05 91.8416 338.517 69.675C309.592 56.7333 289.45 55.0166 279.6 55.225C276.725 55.2833 273.892 56.0166 271.375 57.45C269.017 58.7916 266.717 60.2583 264.483 61.85L211.283 83.2083C211.283 83.2083 211.975 151.542 217.417 202.283C220.625 232.2 229.375 260.575 241.942 285.233L381.325 366.292C426 349.075 453.467 289.525 445.633 216.55L445.625 216.558Z" fill="#C7C7C7"/>
<mask id="mask0_69562_10700" style="mask-type:luminance" maskUnits="userSpaceOnUse" x="211" y="55" width="236" height="312">
<path d="M445.625 216.558C442.842 190.6 435.892 165.808 425.892 143.592C425.475 142.667 424.983 141.783 424.417 140.942C415.6 127.825 388.05 91.8416 338.517 69.675C309.592 56.7333 289.45 55.0166 279.6 55.225C276.725 55.2833 273.892 56.0166 271.375 57.45C269.017 58.7916 266.717 60.2583 264.483 61.85L211.283 83.2083C211.283 83.2083 211.975 151.542 217.417 202.283C220.625 232.2 229.375 260.575 241.942 285.233L381.325 366.292C426 349.075 453.467 289.525 445.633 216.55L445.625 216.558Z" fill="white"/>
</mask>
<g mask="url(#mask0_69562_10700)">
<path d="M341.134 242.658C341.134 242.658 346.567 255.942 377.034 257.6L444.084 230.592C445.65 229.958 446.692 228.467 446.75 226.783L446.809 225.158L340.05 236.617L341.134 242.65V242.658Z" fill="#F3F3F3"/>
<path d="M285.842 56.3833L220.192 82.9917C219.192 83.4 218.392 84.175 217.925 85.1583C213.3 94.9833 200.825 100.208 195.442 109.658C194.633 111.075 194.425 112.75 194.767 114.342C195.192 116.292 196.125 118.883 198.167 120.508C203.908 125.05 340.042 236.633 340.042 236.633C343.433 253.75 377.158 255.775 377.158 255.775L444.242 228.583C445.658 228.008 446.65 226.7 446.808 225.175L447.258 220.875C447.258 220.875 445.733 162.425 419.9 126.408C394.733 91.3083 329.625 56.175 291.308 55.3667C289.433 55.325 287.575 55.6833 285.842 56.3917V56.3833Z" fill="#FF945B" stroke="black" stroke-width="0.833333" stroke-miterlimit="10"/>
</g>
<path d="M445.625 216.558C442.842 190.6 435.892 165.808 425.892 143.592C425.475 142.667 424.983 141.783 424.417 140.942C415.6 127.825 388.05 91.8416 338.517 69.675C309.592 56.7333 289.45 55.0166 279.6 55.225C276.725 55.2833 273.892 56.0166 271.375 57.45C269.017 58.7916 266.717 60.2583 264.483 61.85L211.283 83.2083C211.283 83.2083 211.975 151.542 217.417 202.283C220.625 232.2 229.375 260.575 241.942 285.233L381.325 366.292C426 349.075 453.467 289.525 445.633 216.55L445.625 216.558Z" stroke="black" stroke-width="0.833333" stroke-miterlimit="10"/>
<path d="M376.2 244.617C373.817 219.083 367.192 194.608 357.417 172.617C357 171.675 356.5 170.775 355.925 169.917C347.158 156.85 319.758 121.05 269.792 98.4333C240.583 85.2083 220.117 83.175 210.092 83.2083C207.167 83.2166 204.283 83.8916 201.692 85.25C162.158 106.083 138.092 160.5 144.258 226.617C147.008 256.067 155.408 284.1 167.758 308.55L308.158 390.625C353.908 374.483 382.9 316.45 376.2 244.608V244.617Z" fill="#566578"/>
<mask id="mask1_69562_10700" style="mask-type:luminance" maskUnits="userSpaceOnUse" x="143" y="83" width="235" height="308">
<path d="M376.2 244.617C373.817 219.083 367.192 194.608 357.417 172.617C357 171.675 356.5 170.775 355.925 169.917C347.158 156.85 319.758 121.05 269.792 98.4333C240.583 85.2083 220.117 83.175 210.092 83.2083C207.167 83.2166 204.283 83.8916 201.692 85.25C162.158 106.083 138.092 160.5 144.258 226.617C147.008 256.067 155.408 284.1 167.758 308.55L308.158 390.625C353.908 374.483 382.9 316.45 376.2 244.608V244.617Z" fill="white"/>
</mask>
<g mask="url(#mask1_69562_10700)">
<path d="M341.134 242.658C341.134 242.658 346.567 255.942 377.034 257.6L446.659 229.558L446.809 225.158L340.05 236.617L341.134 242.65V242.658Z" fill="#C7C7C7"/>
<path d="M285.841 56.3833L220.191 82.9917C219.191 83.4 218.391 84.175 217.924 85.1583C213.299 94.9833 200.824 100.208 195.441 109.658C194.633 111.075 194.424 112.75 194.766 114.342C195.191 116.292 196.124 118.883 198.166 120.508C203.908 125.05 340.041 236.633 340.041 236.633C343.433 253.75 377.158 255.775 377.158 255.775L444.241 228.583C445.658 228.008 446.649 226.7 446.808 225.175L447.258 220.875C447.258 220.875 445.733 162.425 419.899 126.408C394.733 91.3083 329.624 56.175 291.308 55.3667C289.433 55.325 287.574 55.6833 285.841 56.3917V56.3833Z" fill="#FF5200" stroke="black" stroke-width="0.833333" stroke-miterlimit="10"/>
<path d="M340.866 241.092C353.666 315.667 322.274 375.408 270.749 374.525C219.224 373.642 167.074 312.475 154.274 237.9C141.474 163.325 172.866 103.583 224.391 104.467C275.916 105.35 328.066 166.517 340.866 241.092Z" fill="black"/>
<mask id="mask2_69562_10700" style="mask-type:luminance" maskUnits="userSpaceOnUse" x="151" y="104" width="193" height="271">
<path d="M340.865 241.092C353.665 315.667 322.273 375.408 270.748 374.525C219.223 373.642 167.073 312.475 154.273 237.9C141.473 163.325 172.865 103.583 224.39 104.467C275.915 105.35 328.065 166.517 340.865 241.092Z" fill="white"/>
</mask>
<g mask="url(#mask2_69562_10700)">
<path d="M285.84 56.3833L220.19 82.9917C219.19 83.4 218.39 84.175 217.923 85.1583C213.298 94.9833 200.823 100.208 195.44 109.658C194.631 111.075 194.423 112.75 194.765 114.342C195.19 116.292 196.123 118.883 198.165 120.508C203.906 125.05 340.04 236.633 340.04 236.633C343.431 253.75 377.156 255.775 377.156 255.775L444.24 228.583C445.656 228.008 446.648 226.7 446.806 225.175L447.256 220.875C447.256 220.875 445.731 162.425 419.898 126.408C394.731 91.3083 329.623 56.175 291.306 55.3667C289.431 55.325 287.573 55.6833 285.84 56.3917V56.3833Z" fill="#963000" stroke="black" stroke-width="0.833333" stroke-miterlimit="10"/>
<path d="M344.49 239.342C332.298 168.308 282.623 110.05 233.548 109.208C184.473 108.367 154.573 165.267 166.765 236.3C168.431 246.025 170.806 255.508 173.79 264.642C176.048 271.567 180.773 277.425 187.065 281.108L292.231 342.592C306.506 350.933 325.031 346.15 333.065 331.692C345.906 308.575 350.748 275.825 344.49 239.342Z" fill="#F3F3F3"/>
<mask id="mask3_69562_10700" style="mask-type:luminance" maskUnits="userSpaceOnUse" x="164" y="109" width="184" height="238">
<path d="M344.489 239.342C332.297 168.308 282.622 110.05 233.547 109.208C184.472 108.367 154.572 165.267 166.764 236.3C168.43 246.025 170.805 255.508 173.789 264.642C176.047 271.567 180.772 277.425 187.064 281.108L292.23 342.592C306.505 350.933 325.03 346.15 333.064 331.692C345.905 308.575 350.747 275.825 344.489 239.342Z" fill="white"/>
</mask>
<g mask="url(#mask3_69562_10700)">
<path d="M200.731 103.983C199.515 111.858 205.215 119.175 213.156 119.808C225.865 120.817 246.923 122.517 271.765 139.942C296.606 157.367 313.273 183.842 325.198 206.992C331.681 219.575 350.723 213.05 348.123 199.142C343.481 174.35 327.423 143.383 283.99 113.5C242.281 84.8083 200.74 103.983 200.74 103.983H200.731Z" fill="black" stroke="black" stroke-width="0.833333" stroke-miterlimit="10"/>
</g>
<path d="M344.49 239.342C332.298 168.308 282.623 110.05 233.548 109.208C184.473 108.367 154.573 165.267 166.765 236.3C168.431 246.025 170.806 255.508 173.79 264.642C176.048 271.567 180.773 277.425 187.065 281.108L292.231 342.592C306.506 350.933 325.031 346.15 333.065 331.692C345.906 308.575 350.748 275.825 344.49 239.342Z" stroke="black" stroke-width="0.833333" stroke-miterlimit="10"/>
</g>
<path d="M340.866 241.092C353.666 315.667 322.274 375.408 270.749 374.525C219.224 373.642 167.074 312.475 154.274 237.9C141.474 163.325 172.866 103.583 224.391 104.467C275.916 105.35 328.066 166.517 340.866 241.092Z" stroke="black" stroke-width="0.833333" stroke-miterlimit="10"/>
</g>
<path d="M376.2 244.617C373.817 219.083 367.192 194.608 357.417 172.617C357 171.675 356.5 170.775 355.925 169.917C347.158 156.85 319.758 121.05 269.792 98.4333C240.583 85.2083 220.117 83.175 210.092 83.2083C207.167 83.2166 204.283 83.8916 201.692 85.25C162.158 106.083 138.092 160.5 144.258 226.617C147.008 256.067 155.408 284.1 167.758 308.55L308.158 390.625C353.908 374.483 382.9 316.45 376.2 244.608V244.617Z" stroke="black" stroke-width="0.833333" stroke-miterlimit="10"/>
<path d="M332.709 238.708C334.675 239.858 335.917 238.967 335.484 236.733C332.725 222.333 328.375 208.533 322.809 195.758C322.284 194.55 320.5 194.75 320.259 196.05L314.6 226.85C314.475 227.533 314.792 228.225 315.392 228.575L332.717 238.7L332.709 238.708Z" fill="#566578"/>
<mask id="mask4_69562_10700" style="mask-type:luminance" maskUnits="userSpaceOnUse" x="314" y="194" width="22" height="46">
<path d="M332.709 238.708C334.675 239.858 335.917 238.967 335.484 236.733C332.725 222.333 328.375 208.533 322.809 195.758C322.284 194.55 320.5 194.75 320.259 196.05L314.6 226.85C314.475 227.533 314.792 228.225 315.392 228.575L332.717 238.7L332.709 238.708Z" fill="white"/>
</mask>
<g mask="url(#mask4_69562_10700)">
<path d="M334.376 236.175C336.168 237.225 337.31 236.417 336.918 234.375C334.393 221.208 330.418 208.583 325.318 196.9C324.835 195.792 323.21 195.983 322.985 197.167L317.81 225.342C317.693 225.967 317.985 226.6 318.535 226.917L334.376 236.175Z" fill="#C7C7C7"/>
</g>
<path d="M332.709 238.708C334.675 239.858 335.917 238.967 335.484 236.733C332.725 222.333 328.375 208.533 322.809 195.758C322.284 194.55 320.5 194.75 320.259 196.05L314.6 226.85C314.475 227.533 314.792 228.225 315.392 228.575L332.717 238.7L332.709 238.708Z" stroke="black" stroke-width="0.833333" stroke-miterlimit="10"/>
<path d="M306.525 220.833L313.884 180.817C314.142 179.408 313.901 177.95 313.184 176.708C309.584 170.525 305.701 164.7 301.567 159.292C300.926 158.45 299.584 158.783 299.392 159.825L289.826 211.892C289.651 212.833 290.084 213.783 290.917 214.267L304.084 221.958C305.075 222.533 306.334 221.958 306.542 220.833H306.525Z" fill="#566578"/>
<mask id="mask5_69562_10700" style="mask-type:luminance" maskUnits="userSpaceOnUse" x="289" y="158" width="25" height="65">
<path d="M306.526 220.833L313.885 180.817C314.143 179.408 313.901 177.95 313.185 176.708C309.585 170.525 305.701 164.7 301.568 159.292C300.926 158.45 299.585 158.783 299.393 159.825L289.826 211.892C289.651 212.833 290.085 213.783 290.918 214.267L304.085 221.958C305.076 222.533 306.335 221.958 306.543 220.833H306.526Z" fill="white"/>
</mask>
<g mask="url(#mask5_69562_10700)">
<path d="M308.385 218.242L315.11 181.65C315.343 180.367 315.127 179.025 314.468 177.892C311.177 172.233 307.618 166.908 303.843 161.958C303.252 161.192 302.027 161.492 301.852 162.442L293.102 210.058C292.943 210.917 293.343 211.783 294.093 212.233L306.135 219.275C307.043 219.8 308.193 219.275 308.385 218.242Z" fill="#C7C7C7"/>
</g>
<path d="M306.525 220.833L313.884 180.817C314.142 179.408 313.901 177.95 313.184 176.708C309.584 170.525 305.701 164.7 301.567 159.292C300.926 158.45 299.584 158.783 299.392 159.825L289.826 211.892C289.651 212.833 290.084 213.783 290.917 214.267L304.084 221.958C305.075 222.533 306.334 221.958 306.542 220.833H306.525Z" stroke="black" stroke-width="0.833333" stroke-miterlimit="10"/>
<path d="M175.643 212.342L331.051 303.192C332.793 304.208 335.026 303.25 335.468 301.292C337.868 290.717 339.018 279.05 338.734 266.617C338.676 264.058 337.293 261.717 335.093 260.425L180.534 170.067C178.826 169.067 176.634 169.967 176.134 171.883C173.459 182.233 172.026 193.7 172.001 205.975C172.001 208.592 173.384 211.017 175.651 212.342H175.643Z" fill="#566578"/>
<mask id="mask6_69562_10700" style="mask-type:luminance" maskUnits="userSpaceOnUse" x="172" y="169" width="167" height="135">
<path d="M175.643 212.342L331.051 303.192C332.793 304.208 335.026 303.25 335.468 301.292C337.868 290.717 339.018 279.05 338.734 266.617C338.676 264.058 337.293 261.717 335.093 260.425L180.534 170.067C178.826 169.067 176.634 169.967 176.134 171.883C173.459 182.233 172.026 193.7 172.001 205.975C172.001 208.592 173.384 211.017 175.651 212.342H175.643Z" fill="white"/>
</mask>
<g mask="url(#mask6_69562_10700)">
<path d="M174.833 214.933L327.958 304.45C329.666 305.45 331.875 304.508 332.308 302.575C334.675 292.15 335.8 280.658 335.525 268.408C335.466 265.892 334.108 263.575 331.933 262.308L179.65 173.283C177.966 172.3 175.808 173.192 175.316 175.075C172.675 185.267 171.266 196.575 171.241 208.667C171.241 211.25 172.608 213.633 174.833 214.942V214.933Z" fill="black" stroke="black" stroke-width="0.833333" stroke-miterlimit="10"/>
</g>
<path d="M175.643 212.342L331.051 303.192C332.793 304.208 335.026 303.25 335.468 301.292C337.868 290.717 339.018 279.05 338.734 266.617C338.676 264.058 337.293 261.717 335.093 260.425L180.534 170.067C178.826 169.067 176.634 169.967 176.134 171.883C173.459 182.233 172.026 193.7 172.001 205.975C172.001 208.592 173.384 211.017 175.651 212.342H175.643Z" stroke="black" stroke-width="0.833333" stroke-miterlimit="10"/>
<path d="M212.576 122.25C200.942 127.483 191.351 137.192 184.426 150.192C184.009 150.975 184.292 151.942 185.059 152.392L204.892 163.983C205.751 164.483 206.859 163.983 207.034 163L214.276 123.583C214.451 122.617 213.467 121.85 212.576 122.258V122.25Z" fill="#566578"/>
<mask id="mask7_69562_10700" style="mask-type:luminance" maskUnits="userSpaceOnUse" x="184" y="122" width="31" height="43">
<path d="M212.576 122.25C200.942 127.483 191.351 137.192 184.426 150.192C184.009 150.975 184.292 151.942 185.059 152.392L204.892 163.983C205.751 164.483 206.859 163.983 207.034 163L214.276 123.583C214.451 122.617 213.467 121.85 212.576 122.258V122.25Z" fill="white"/>
</mask>
<g mask="url(#mask7_69562_10700)">
<path d="M214.018 124.033C203.376 128.817 194.609 137.7 188.268 149.583C187.884 150.3 188.151 151.183 188.843 151.592L206.976 162.192C207.768 162.65 208.776 162.192 208.934 161.292L215.559 125.242C215.718 124.358 214.826 123.658 214.001 124.025L214.018 124.033Z" fill="#C7C7C7"/>
</g>
<path d="M212.576 122.25C200.942 127.483 191.351 137.192 184.426 150.192C184.009 150.975 184.292 151.942 185.059 152.392L204.892 163.983C205.751 164.483 206.859 163.983 207.034 163L214.276 123.583C214.451 122.617 213.467 121.85 212.576 122.258V122.25Z" stroke="black" stroke-width="0.833333" stroke-miterlimit="10"/>
<path d="M231.874 177.583L242.391 120.358C242.566 119.425 241.916 118.55 240.974 118.417C238.841 118.125 236.708 117.95 234.583 117.9C231.624 117.833 228.749 118 225.958 118.392C224.999 118.525 224.241 119.283 224.066 120.233L215.233 168.308C215.058 169.242 215.491 170.175 216.308 170.658L229.799 178.542C230.641 179.033 231.708 178.542 231.883 177.583H231.874Z" fill="#566578"/>
<mask id="mask8_69562_10700" style="mask-type:luminance" maskUnits="userSpaceOnUse" x="215" y="117" width="28" height="62">
<path d="M231.873 177.583L242.39 120.358C242.565 119.425 241.915 118.55 240.973 118.417C238.84 118.125 236.707 117.95 234.582 117.9C231.623 117.833 228.748 118 225.957 118.392C224.998 118.525 224.24 119.283 224.065 120.233L215.232 168.308C215.057 169.242 215.49 170.175 216.307 170.658L229.798 178.542C230.64 179.033 231.707 178.542 231.882 177.583H231.873Z" fill="white"/>
</mask>
<g mask="url(#mask8_69562_10700)">
<path d="M233.492 175.083L243.108 122.742C243.267 121.883 242.667 121.083 241.808 120.967C239.858 120.7 237.908 120.542 235.958 120.492C233.258 120.425 230.625 120.583 228.067 120.942C227.192 121.067 226.5 121.758 226.342 122.625L218.258 166.592C218.1 167.442 218.492 168.3 219.242 168.742L231.575 175.95C232.342 176.4 233.317 175.95 233.483 175.075L233.492 175.083Z" fill="#C7C7C7"/>
</g>
<path d="M231.874 177.583L242.391 120.358C242.566 119.425 241.916 118.55 240.974 118.417C238.841 118.125 236.708 117.95 234.583 117.9C231.624 117.833 228.749 118 225.958 118.392C224.999 118.525 224.241 119.283 224.066 120.233L215.233 168.308C215.058 169.242 215.491 170.175 216.308 170.658L229.799 178.542C230.641 179.033 231.708 178.542 231.883 177.583H231.874Z" stroke="black" stroke-width="0.833333" stroke-miterlimit="10"/>
<path d="M281.618 206.542L291.968 150.225C292.184 149.042 291.826 147.808 290.993 146.942C286.901 142.683 282.651 138.825 278.276 135.4C277.501 134.8 276.368 135.242 276.184 136.208L264.943 197.367C264.768 198.3 265.201 199.25 266.026 199.725L279.409 207.55C280.293 208.067 281.426 207.55 281.618 206.542Z" fill="#566578"/>
<mask id="mask9_69562_10700" style="mask-type:luminance" maskUnits="userSpaceOnUse" x="264" y="135" width="29" height="73">
<path d="M281.619 206.542L291.969 150.225C292.185 149.042 291.827 147.808 290.994 146.942C286.902 142.683 282.652 138.825 278.277 135.4C277.502 134.8 276.369 135.242 276.185 136.208L264.944 197.367C264.769 198.3 265.202 199.25 266.027 199.725L279.41 207.55C280.294 208.067 281.427 207.55 281.619 206.542Z" fill="white"/>
</mask>
<g mask="url(#mask9_69562_10700)">
<path d="M283.235 203.917L292.702 152.417C292.902 151.333 292.577 150.208 291.81 149.417C288.069 145.525 284.177 141.992 280.177 138.867C279.469 138.317 278.427 138.725 278.269 139.6L267.985 195.533C267.827 196.392 268.227 197.25 268.977 197.692L281.219 204.85C282.027 205.325 283.069 204.85 283.235 203.925V203.917Z" fill="#C7C7C7"/>
</g>
<path d="M281.618 206.542L291.968 150.225C292.184 149.042 291.826 147.808 290.993 146.942C286.901 142.683 282.651 138.825 278.276 135.4C277.501 134.8 276.368 135.242 276.184 136.208L264.943 197.367C264.768 198.3 265.201 199.25 266.026 199.725L279.409 207.55C280.293 208.067 281.426 207.55 281.618 206.542Z" stroke="black" stroke-width="0.833333" stroke-miterlimit="10"/>
<path d="M256.801 191.767L268.134 130.125C268.301 129.2 267.884 128.25 267.067 127.783C262.551 125.158 257.942 123.017 253.301 121.408C252.351 121.083 251.334 121.692 251.151 122.683L240.059 183.033C239.909 183.85 240.284 184.683 241.009 185.1L254.351 192.9C255.342 193.475 256.601 192.9 256.809 191.775L256.801 191.767Z" fill="#566578"/>
<mask id="mask10_69562_10700" style="mask-type:luminance" maskUnits="userSpaceOnUse" x="240" y="121" width="29" height="73">
<path d="M256.801 191.767L268.134 130.125C268.301 129.2 267.884 128.25 267.067 127.783C262.551 125.158 257.942 123.017 253.301 121.408C252.351 121.083 251.334 121.692 251.151 122.683L240.059 183.033C239.909 183.85 240.284 184.683 241.009 185.1L254.351 192.9C255.342 193.475 256.601 192.9 256.809 191.775L256.801 191.767Z" fill="white"/>
</mask>
<g mask="url(#mask10_69562_10700)">
<path d="M258.666 189.267L269.024 132.892C269.182 132.042 268.791 131.183 268.049 130.75C263.916 128.35 259.707 126.392 255.457 124.917C254.591 124.617 253.657 125.175 253.491 126.075L243.341 181.275C243.199 182.025 243.549 182.783 244.207 183.167L256.407 190.3C257.316 190.825 258.466 190.3 258.657 189.267H258.666Z" fill="#C7C7C7"/>
</g>
<path d="M256.801 191.767L268.134 130.125C268.301 129.2 267.884 128.25 267.067 127.783C262.551 125.158 257.942 123.017 253.301 121.408C252.351 121.083 251.334 121.692 251.151 122.683L240.059 183.033C239.909 183.85 240.284 184.683 241.009 185.1L254.351 192.9C255.342 193.475 256.601 192.9 256.809 191.775L256.801 191.767Z" stroke="black" stroke-width="0.833333" stroke-miterlimit="10"/>
<path d="M179.217 252.342L319.1 334.117C320.117 334.708 321.434 334.433 322.092 333.458C323.317 331.65 324.484 329.75 325.584 327.775C326.167 326.725 325.784 325.392 324.742 324.783L177.509 238.708C176.434 238.075 175.117 239.017 175.359 240.242C176 243.567 176.725 246.858 177.534 250.108C177.767 251.05 178.375 251.85 179.209 252.333L179.217 252.342Z" fill="#566578"/>
<mask id="mask11_69562_10700" style="mask-type:luminance" maskUnits="userSpaceOnUse" x="175" y="238" width="151" height="97">
<path d="M179.216 252.342L319.099 334.117C320.116 334.708 321.433 334.433 322.091 333.458C323.316 331.65 324.483 329.75 325.583 327.775C326.166 326.725 325.783 325.392 324.741 324.783L177.508 238.708C176.433 238.075 175.116 239.017 175.358 240.242C175.999 243.567 176.724 246.858 177.533 250.108C177.766 251.05 178.374 251.85 179.208 252.333L179.216 252.342Z" fill="white"/>
</mask>
<g mask="url(#mask11_69562_10700)">
<path d="M181.917 250.533L321.8 332.308C322.817 332.9 324.134 332.625 324.792 331.65C326.017 329.842 327.184 327.942 328.284 325.967C328.867 324.917 328.484 323.583 327.442 322.975L180.209 236.9C179.134 236.267 177.817 237.208 178.059 238.433C178.7 241.758 179.425 245.05 180.234 248.3C180.467 249.242 181.075 250.042 181.909 250.525L181.917 250.533Z" fill="#C7C7C7"/>
</g>
<path d="M179.217 252.342L319.1 334.117C320.117 334.708 321.434 334.433 322.092 333.458C323.317 331.65 324.484 329.75 325.584 327.775C326.167 326.725 325.784 325.392 324.742 324.783L177.509 238.708C176.434 238.075 175.117 239.017 175.359 240.242C176 243.567 176.725 246.858 177.534 250.108C177.767 251.05 178.375 251.85 179.209 252.333L179.217 252.342Z" stroke="black" stroke-width="0.833333" stroke-miterlimit="10"/>
<path d="M426.366 375.1C429.541 361.917 431.683 345.183 432.683 336.308C433.133 332.325 433.125 328.317 432.666 324.333L431.658 315.642L366.741 341.958C361.375 344.133 355.35 344 350.091 341.575L332.575 333.525C329.275 332.008 325.383 332.933 323.058 335.733C321.875 337.167 320.391 338.792 318.625 340.442C313.591 345.158 308.791 346.65 308.791 346.65C303.183 346.925 297.433 345.625 292.241 342.592L187.075 281.108C180.783 277.433 176.058 271.575 173.8 264.642C171.875 258.742 170.2 252.692 168.808 246.525C167.225 239.508 163.608 233.117 158.525 228.017L144.65 214.1C143.783 213.233 143.3 212.067 143.3 210.842V207.742L133.875 213.217C130.783 215.017 128.45 217.867 127.308 221.267C124.191 230.558 118.175 251.533 116.766 273.583C116.408 279.117 119.166 284.383 123.925 287.233L261.083 369.408C263 370.558 265.2 371.142 267.433 371.108L270.4 371.058L278.75 385.15C280.525 388.142 282.883 390.742 285.7 392.792C292.791 397.958 308.166 408.183 330.091 417.433C336.508 420.142 343.758 420.108 350.183 417.417C365.883 410.833 396.583 397.975 412.541 391.292C419.466 388.392 424.625 382.383 426.383 375.083L426.366 375.1Z" fill="#FF945B"/>
<mask id="mask12_69562_10700" style="mask-type:luminance" maskUnits="userSpaceOnUse" x="116" y="207" width="318" height="213">
<path d="M426.366 375.1C429.541 361.917 431.683 345.183 432.683 336.308C433.133 332.325 433.125 328.317 432.666 324.333L431.658 315.642L366.741 341.958C361.375 344.133 355.35 344 350.091 341.575L332.575 333.525C329.275 332.008 325.383 332.933 323.058 335.733C321.875 337.167 320.391 338.792 318.625 340.442C313.591 345.158 308.791 346.65 308.791 346.65C303.183 346.925 297.433 345.625 292.241 342.592L187.075 281.108C180.783 277.433 176.058 271.575 173.8 264.642C171.875 258.742 170.2 252.692 168.808 246.525C167.225 239.508 163.608 233.117 158.525 228.017L144.65 214.1C143.783 213.233 143.3 212.067 143.3 210.842V207.742L133.875 213.217C130.783 215.017 128.45 217.867 127.308 221.267C124.191 230.558 118.175 251.533 116.766 273.583C116.408 279.117 119.166 284.383 123.925 287.233L261.083 369.408C263 370.558 265.2 371.142 267.433 371.108L270.4 371.058L278.75 385.15C280.525 388.142 282.883 390.742 285.7 392.792C292.791 397.958 308.166 408.183 330.091 417.433C336.508 420.142 343.758 420.108 350.183 417.417C365.883 410.833 396.583 397.975 412.541 391.292C419.466 388.392 424.625 382.383 426.383 375.083L426.366 375.1Z" fill="white"/>
</mask>
<g mask="url(#mask12_69562_10700)">
<path d="M127.692 220.017C129.433 215.725 134.7 214.158 138.5 216.792C140.842 218.417 143.458 220.875 146.017 224.608C148.317 227.958 150.042 230.792 151.325 233.117C153.567 237.15 154.758 241.675 154.85 246.292C155.058 256.333 157.275 279.008 171.833 298.333C174.275 301.575 177.35 304.283 180.842 306.342L265.025 355.992L270.375 371.067C270.375 371.067 270.692 382.717 219.308 354.383C167.925 326.042 104.717 279.917 104.717 279.917C104.717 279.917 120.917 236.692 127.675 220.017H127.692Z" fill="#FF5200"/>
<mask id="mask13_69562_10700" style="mask-type:luminance" maskUnits="userSpaceOnUse" x="104" y="215" width="167" height="159">
<path d="M127.692 220.017C129.433 215.725 134.7 214.158 138.5 216.792C140.842 218.417 143.458 220.875 146.017 224.608C148.317 227.958 150.042 230.792 151.325 233.117C153.567 237.15 154.758 241.675 154.85 246.292C155.058 256.333 157.275 279.008 171.833 298.333C174.275 301.575 177.35 304.283 180.842 306.342L265.025 355.992L270.375 371.067C270.375 371.067 270.692 382.717 219.308 354.383C167.925 326.042 104.717 279.917 104.717 279.917C104.717 279.917 120.917 236.692 127.675 220.017H127.692Z" fill="white"/>
</mask>
<g mask="url(#mask13_69562_10700)">
<path d="M117.999 261.333C117.999 261.333 116.866 276.517 127.924 283.225C140.541 290.875 232.841 346.175 256.716 360.475C259.616 362.208 263.374 360.833 264.474 357.642L265.041 355.992C265.041 355.992 282.008 380.842 268.174 379.817C254.341 378.8 112.383 287.558 112.383 287.558L117.999 261.333Z" fill="#963000"/>
</g>
<path d="M127.692 220.017C129.433 215.725 134.7 214.158 138.5 216.792C140.842 218.417 143.458 220.875 146.017 224.608C148.317 227.958 150.042 230.792 151.325 233.117C153.567 237.15 154.758 241.675 154.85 246.292C155.058 256.333 157.275 279.008 171.833 298.333C174.275 301.575 177.35 304.283 180.842 306.342L265.025 355.992L270.375 371.067C270.375 371.067 270.692 382.717 219.308 354.383C167.925 326.042 104.717 279.917 104.717 279.917C104.717 279.917 120.917 236.692 127.675 220.017H127.692Z" stroke="black" stroke-width="0.833333" stroke-miterlimit="10"/>
<path d="M323.05 335.733C323.05 335.733 309.125 356.625 269.2 352.208L265.033 355.992C265.033 355.992 270.5 376.392 282.167 389.7C293.833 403.008 328.492 427.308 349.392 426.967C370.292 426.625 432.133 389.417 432.133 389.417L436.55 329.608L367.767 358.433C365.675 359.308 363.317 357.942 363.067 355.683C362.55 351.075 361.025 344.183 356.525 340.65C349.392 335.042 329.1 328.758 329.1 328.758L323.042 335.733H323.05Z" fill="#FF5200"/>
<path d="M330.075 417.45C337.392 420.425 350.6 418.067 356.692 408.042C358.675 404.775 361.534 402.142 365.059 400.675L426.367 375.108C426.367 375.108 428.909 385.708 416.167 395.625C403.425 405.542 338.767 423.658 338.767 423.658L330.067 417.45H330.075Z" fill="#963000"/>
<path d="M160.391 230.05C160.391 230.05 164.349 234.958 168.616 254.683C172.841 274.242 177.674 278.825 191.266 286.467C202.599 292.842 269.591 332.117 291.574 345.008C296.149 347.692 301.349 349.142 306.649 349.225L312.866 349.317L160.391 230.042V230.05Z" fill="#FF5200"/>
</g>
<path d="M426.366 375.1C429.541 361.917 431.683 345.183 432.683 336.308C433.133 332.325 433.125 328.317 432.666 324.333L431.658 315.642L366.741 341.958C361.375 344.133 355.35 344 350.091 341.575L332.575 333.525C329.275 332.008 325.383 332.933 323.058 335.733C321.875 337.167 320.391 338.792 318.625 340.442C313.591 345.158 308.791 346.65 308.791 346.65C303.183 346.925 297.433 345.625 292.241 342.592L187.075 281.108C180.783 277.433 176.058 271.575 173.8 264.642C171.875 258.742 170.2 252.692 168.808 246.525C167.225 239.508 163.608 233.117 158.525 228.017L144.65 214.1C143.783 213.233 143.3 212.067 143.3 210.842V207.742L133.875 213.217C130.783 215.017 128.45 217.867 127.308 221.267C124.191 230.558 118.175 251.533 116.766 273.583C116.408 279.117 119.166 284.383 123.925 287.233L261.083 369.408C263 370.558 265.2 371.142 267.433 371.108L270.4 371.058L278.75 385.15C280.525 388.142 282.883 390.742 285.7 392.792C292.791 397.958 308.166 408.183 330.091 417.433C336.508 420.142 343.758 420.108 350.183 417.417C365.883 410.833 396.583 397.975 412.541 391.292C419.466 388.392 424.625 382.383 426.383 375.083L426.366 375.1Z" stroke="black" stroke-width="0.833333" stroke-miterlimit="10"/>
<path d="M256.542 65.0417C256.542 65.0417 270.201 59.9417 272.626 58.1583L256.542 65.0417Z" fill="#F3F3F3"/>
<path d="M256.542 65.0417C256.542 65.0417 270.201 59.9417 272.626 58.1583" stroke="black" stroke-width="0.833333" stroke-miterlimit="10"/>
<path d="M308.784 346.65C308.784 346.65 294.109 354.058 271.217 352.375C269.9 352.275 268.609 352.742 267.634 353.633L265.042 355.983C265.042 355.983 266.275 364.25 270.392 371.058" fill="#FF5200"/>
<path d="M328.008 341.733C323.3 347.058 309.558 360 286.575 361.133C284.775 361.225 283.55 362.992 284.15 364.692C286.517 371.383 292.033 385.725 297.067 389.592C303.692 394.692 329.35 406.583 334.442 407.6C339.542 408.617 345.025 396.258 349.733 380.758C353.9 367.033 354.175 357.725 354.008 353.6C353.95 352.142 353.083 350.833 351.767 350.192L332.617 340.825C331.042 340.058 329.158 340.425 328 341.742L328.008 341.733Z" fill="#963000"/>
<mask id="mask14_69562_10700" style="mask-type:luminance" maskUnits="userSpaceOnUse" x="283" y="340" width="72" height="68">
<path d="M328.008 341.733C323.3 347.058 309.558 360 286.575 361.133C284.775 361.225 283.55 362.992 284.15 364.692C286.517 371.383 292.033 385.725 297.067 389.592C303.692 394.692 329.35 406.583 334.442 407.6C339.542 408.617 345.025 396.258 349.733 380.758C353.9 367.033 354.175 357.725 354.008 353.6C353.95 352.142 353.083 350.833 351.767 350.192L332.617 340.825C331.042 340.058 329.158 340.425 328 341.742L328.008 341.733Z" fill="white"/>
</mask>
<g mask="url(#mask14_69562_10700)">
<path d="M332.575 342.758C328.242 347.65 315.617 359.55 294.492 360.592C292.833 360.675 291.708 362.3 292.267 363.858C294.442 370.008 299.517 383.183 304.142 386.742C310.233 391.425 333.817 402.358 338.5 403.292C343.183 404.225 348.233 392.867 352.558 378.617C356.392 366 356.642 357.442 356.492 353.658C356.433 352.317 355.642 351.117 354.433 350.525L336.833 341.917C335.392 341.208 333.658 341.55 332.592 342.758H332.575Z" fill="#FF5200"/>
</g>
<path d="M328.008 341.733C323.3 347.058 309.558 360 286.575 361.133C284.775 361.225 283.55 362.992 284.15 364.692C286.517 371.383 292.033 385.725 297.067 389.592C303.692 394.692 329.35 406.583 334.442 407.6C339.542 408.617 345.025 396.258 349.733 380.758C353.9 367.033 354.175 357.725 354.008 353.6C353.95 352.142 353.083 350.833 351.767 350.192L332.617 340.825C331.042 340.058 329.158 340.425 328 341.742L328.008 341.733Z" stroke="black" stroke-width="0.833333" stroke-miterlimit="10"/>
<path d="M307.292 65.9667L266.001 82.875C261.734 84.625 257.042 85.05 252.534 84.0917C250.759 83.7167 249.867 82.2 249.867 80.7083C249.867 79.4583 249.867 78.225 249.867 78.225L293.251 60.7833C297.517 59.0333 305.009 58.3 305.009 58.3L309.384 59.875C309.384 59.875 309.326 61.3167 309.384 62.7417C309.434 64.0417 308.759 65.3667 307.301 65.9667H307.292Z" fill="#FF5200" stroke="black" stroke-width="0.833333" stroke-miterlimit="10"/>
<path d="M363.126 90.0083L318.468 108.292C314.001 110.117 308.959 109.842 304.718 107.533C303.509 106.875 302.868 105.725 302.776 104.55C302.659 103.033 302.776 101.733 302.776 101.733L349.751 82.5C354.218 80.675 365.451 83.9666 365.451 83.9666C365.451 83.9666 365.459 85.2833 365.451 86.5666C365.443 87.9833 364.651 89.3833 363.126 90.0083Z" fill="#FF5200" stroke="black" stroke-width="0.833333" stroke-miterlimit="10"/>
<path d="M378.809 197.767V202.817C378.809 207.033 383.084 209.908 386.992 208.308L431.25 190.183C433.992 189.058 435.784 186.392 435.784 183.425V175.05L378.809 197.767Z" fill="black" stroke="black" stroke-width="0.833333" stroke-miterlimit="10"/>
<path d="M410.417 132.95L364.992 151.55C361.683 152.9 357.892 152.15 355.358 149.633L354.05 148.333C353.125 147.417 352.667 146.258 352.625 145.1C352.55 143.167 352.625 142.308 352.625 142.308L401.058 121.808C404.367 120.458 408.158 121.208 410.692 123.725L413.433 126.025C413.433 126.025 413.425 127.133 413.425 128.108C413.425 130.1 412.483 132.108 410.425 132.95H410.417Z" fill="#FF5200" stroke="black" stroke-width="0.833333" stroke-miterlimit="10"/>
<path d="M433.984 186.525L384.684 206.5C384.684 206.5 383.642 206.075 381.875 205.025C380.842 204.408 380.134 203.3 379.767 202.033L379.092 199.708C378.067 196.15 379.884 192.4 383.309 191L430.042 171.867C431.484 171.275 433.017 171.333 434.334 171.892C435.825 172.525 437.267 173.433 437.267 173.433L438.2 177.817C439.225 181.375 437.409 185.125 433.984 186.525Z" fill="#FF5200" stroke="black" stroke-width="0.833333" stroke-miterlimit="10"/>
<path d="M307.292 63.2583L266 80.1666C261.733 81.9166 257.042 82.3416 252.533 81.3833C249.292 80.7 248.892 76.2333 251.95 74.9833L293.242 58.075C297.508 56.325 302.2 55.9 306.708 56.8583C309.95 57.5416 310.35 62.0083 307.292 63.2583Z" fill="#FF945B" stroke="black" stroke-width="0.833333" stroke-miterlimit="10"/>
<path d="M363.125 87.3L318.466 105.583C314 107.408 308.958 107.133 304.716 104.825C301.95 103.317 302.175 99.2667 305.091 98.075L349.75 79.7917C354.216 77.9667 359.258 78.2417 363.5 80.55C366.266 82.0583 366.041 86.1083 363.125 87.3Z" fill="#FF945B" stroke="black" stroke-width="0.833333" stroke-miterlimit="10"/>
<path d="M410.417 130.242L364.992 148.842C361.684 150.192 357.892 149.442 355.359 146.925L354.05 145.625C351.592 143.183 352.417 139.017 355.634 137.7L401.059 119.1C404.367 117.75 408.159 118.5 410.692 121.017L412 122.317C414.459 124.758 413.634 128.925 410.417 130.242Z" fill="#FF945B" stroke="black" stroke-width="0.833333" stroke-miterlimit="10"/>
<path d="M435.792 187.425L389.059 206.558C385.984 207.817 382.492 206.133 381.575 202.933L380.9 200.608C379.875 197.05 381.692 193.3 385.117 191.9L431.85 172.767C434.925 171.508 438.417 173.192 439.334 176.392L440.009 178.717C441.034 182.275 439.217 186.025 435.792 187.425Z" fill="#FF945B" stroke="black" stroke-width="0.833333" stroke-miterlimit="10"/>
</g>
<defs>
</defs>
</svg>
