<svg width="500" height="500" viewBox="0 0 500 500" fill="none" xmlns="http://www.w3.org/2000/svg">
<g>
<path d="M287.916 159.208C287.916 159.208 285.958 156.7 285.958 152.9C285.958 149.1 287.916 146.342 287.916 146.342L216.533 106.708L69.916 167.65V180.525L137.049 220.242L287.916 159.217V159.208Z" fill="#C7C7C7" stroke="black" stroke-width="0.833333" stroke-linecap="round" stroke-linejoin="round"/>
<path d="M69.916 167.642L114.858 194.117L78.6243 163.875L69.916 167.642Z" fill="black" stroke="black" stroke-width="0.833333" stroke-linecap="round" stroke-linejoin="round"/>
<path d="M287.916 146.333L216.533 106.7C217.291 106.2 92.5248 158.158 88.0498 160.108C76.6665 165.058 69.9248 159.642 69.9248 159.642C69.9248 159.642 85.2998 176.8 106.6 189.342C119.191 196.75 137.058 207.367 137.058 207.367L287.925 146.342L287.916 146.333Z" fill="#F3F3F3" stroke="black" stroke-width="0.833333" stroke-linejoin="round"/>
<path d="M280.5 145.108C282.108 142.725 284.833 141.158 287.925 141.158C292.867 141.158 296.875 145.167 296.875 150.108C296.875 155.05 292.867 159.058 287.925 159.058" stroke="black" stroke-width="0.833333" stroke-linecap="round" stroke-linejoin="round"/>
<path d="M272.683 140.842C274.291 138.458 277.016 136.892 280.108 136.892C285.049 136.892 289.058 140.9 289.058 145.842C289.058 148.508 287.891 150.9 286.049 152.542" stroke="black" stroke-width="0.833333" stroke-linecap="round" stroke-linejoin="round"/>
<path d="M264.875 136.567C266.483 134.183 269.208 132.617 272.3 132.617C277.242 132.617 281.25 136.625 281.25 141.567C281.25 141.867 281.233 142.167 281.208 142.467" stroke="black" stroke-width="0.833333" stroke-linecap="round" stroke-linejoin="round"/>
<path d="M257.058 132.3C258.666 129.917 261.391 128.35 264.483 128.35C269.424 128.35 273.433 132.358 273.433 137.3C273.433 137.575 273.424 137.85 273.399 138.117" stroke="black" stroke-width="0.833333" stroke-linecap="round" stroke-linejoin="round"/>
<path d="M249.25 128.025C250.858 125.642 253.583 124.075 256.675 124.075C261.617 124.075 265.625 128.083 265.625 133.025C265.625 133.292 265.617 133.55 265.592 133.808" stroke="black" stroke-width="0.833333" stroke-linecap="round" stroke-linejoin="round"/>
<path d="M233.625 119.483C235.233 117.1 237.958 115.533 241.05 115.533C245.992 115.533 250 119.542 250 124.483C250 124.717 249.992 124.942 249.975 125.167" stroke="black" stroke-width="0.833333" stroke-linecap="round" stroke-linejoin="round"/>
<path d="M241.433 123.758C243.041 121.375 245.766 119.808 248.858 119.808C253.799 119.808 257.808 123.817 257.808 128.758C257.808 128.975 257.808 129.192 257.783 129.408" stroke="black" stroke-width="0.833333" stroke-linecap="round" stroke-linejoin="round"/>
<path d="M225.808 115.217C227.416 112.833 230.141 111.267 233.233 111.267C238.174 111.267 242.183 115.275 242.183 120.217C242.183 120.417 242.183 120.625 242.166 120.825" stroke="black" stroke-width="0.833333" stroke-linecap="round" stroke-linejoin="round"/>
<path d="M218 110.942C219.608 108.558 222.333 106.992 225.425 106.992C230.366 106.992 234.375 111 234.375 115.942C234.375 116.158 234.375 116.367 234.35 116.575" stroke="black" stroke-width="0.833333" stroke-linecap="round" stroke-linejoin="round"/>
<path d="M90.6416 159.375L148.233 195.633" stroke="black" stroke-width="0.833333" stroke-linecap="round" stroke-linejoin="round"/>
<path d="M105.75 152.708L163.816 189.267" stroke="black" stroke-width="0.833333" stroke-linecap="round" stroke-linejoin="round"/>
<path d="M121.342 146.358L179.267 182.825" stroke="black" stroke-width="0.833333" stroke-linecap="round" stroke-linejoin="round"/>
<path d="M136.933 140.008L194.891 176.492" stroke="black" stroke-width="0.833333" stroke-linecap="round" stroke-linejoin="round"/>
<path d="M152.524 133.65L208.049 168.608" stroke="black" stroke-width="0.833333" stroke-linecap="round" stroke-linejoin="round"/>
<path d="M168.125 127.3L224.125 161.767" stroke="black" stroke-width="0.833333" stroke-linecap="round" stroke-linejoin="round"/>
<path d="M183.716 120.942L241.599 155.733" stroke="black" stroke-width="0.833333" stroke-linecap="round" stroke-linejoin="round"/>
<path d="M199.308 114.592L267.558 154.575" stroke="black" stroke-width="0.833333" stroke-linecap="round" stroke-linejoin="round"/>
<path d="M205.784 137.825L98.5591 155.825L109.651 151.133L205.784 137.825Z" fill="black" stroke="black" stroke-width="0.833333" stroke-linecap="round" stroke-linejoin="round"/>
<path d="M137.036 147.845C138.881 147.575 139.906 144.141 139.327 140.175C138.747 136.208 136.783 133.211 134.938 133.48C133.094 133.75 132.068 137.184 132.648 141.15C133.227 145.117 135.192 148.114 137.036 147.845Z" fill="black" stroke="black" stroke-width="0.833333" stroke-linecap="round" stroke-linejoin="round"/>
<path d="M206.4 137.085C208.664 136.755 210.069 133.548 209.54 129.923C209.01 126.298 206.746 123.627 204.483 123.958C202.22 124.289 200.814 127.495 201.343 131.12C201.873 134.745 204.137 137.416 206.4 137.085Z" fill="black" stroke="black" stroke-width="0.833333" stroke-linecap="round" stroke-linejoin="round"/>
<path d="M203.691 123.45L134.933 133.492L137.033 147.858L205.791 137.817C207.633 137.55 208.658 134.117 208.083 130.142C207.508 126.167 205.541 123.175 203.7 123.442L203.691 123.45Z" fill="#C7C7C7"/>
<mask id="mask0_69562_2831" style="mask-type:luminance" maskUnits="userSpaceOnUse" x="134" y="123" width="75" height="25">
<path d="M203.691 123.45L134.933 133.492L137.033 147.858L205.791 137.817C207.633 137.55 208.658 134.117 208.083 130.142C207.508 126.167 205.541 123.175 203.7 123.442L203.691 123.45Z" fill="white"/>
</mask>
<g mask="url(#mask0_69562_2831)">
<path d="M207.8 130.058L207.392 130.592C206.7 131.492 205.683 132.075 204.567 132.225L142.283 140.358C141.358 140.475 140.683 141.275 140.7 142.208C140.742 144.108 140.417 147.092 138.1 147.875C135.567 148.733 206.392 139.408 206.392 139.408C206.392 139.408 209.392 134.583 207.8 130.058Z" fill="#566578"/>
</g>
<path d="M203.691 123.45L134.933 133.492L137.033 147.858L205.791 137.817C207.633 137.55 208.658 134.117 208.083 130.142C207.508 126.167 205.541 123.175 203.7 123.442L203.691 123.45Z" stroke="black" stroke-width="0.833333" stroke-miterlimit="10"/>
<path d="M134.742 134.108C134.608 134.125 55.4165 146.592 55.4165 146.592L57.0915 158.042C57.0915 158.042 136.541 147.342 136.675 147.325C138.366 147.075 139.308 143.917 138.783 140.267C138.258 136.617 136.441 133.858 134.75 134.108H134.742Z" fill="#C7C7C7"/>
<mask id="mask1_69562_2831" style="mask-type:luminance" maskUnits="userSpaceOnUse" x="55" y="134" width="84" height="25">
<path d="M134.742 134.108C134.609 134.125 55.4175 146.592 55.4175 146.592L57.0925 158.042C57.0925 158.042 136.542 147.342 136.676 147.325C138.367 147.075 139.309 143.917 138.784 140.267C138.259 136.617 136.442 133.858 134.751 134.108H134.742Z" fill="white"/>
</mask>
<g mask="url(#mask1_69562_2831)">
<path d="M133.508 134.35C133.508 134.35 135.717 135.95 136.383 139.667C136.583 140.767 135.792 141.808 134.683 141.967L58.5168 152.708L57.1001 158.042L138.283 149.35C138.283 149.35 142.383 138.833 138.042 135.65C133.7 132.467 133.517 134.35 133.517 134.35H133.508Z" fill="#566578"/>
</g>
<path d="M134.741 134.108C134.608 134.125 55.4165 146.592 55.4165 146.592L57.0915 158.042C57.0915 158.042 136.541 147.342 136.675 147.325C138.366 147.075 139.308 143.917 138.783 140.267C138.258 136.617 136.441 133.858 134.75 134.108H134.741Z" stroke="black" stroke-width="0.833333" stroke-miterlimit="10"/>
<path d="M57.0929 158.035C58.5639 157.82 59.3821 155.084 58.9205 151.924C58.4589 148.763 56.8922 146.375 55.4212 146.59C53.9503 146.805 53.132 149.541 53.5937 152.702C54.0553 155.862 55.622 158.25 57.0929 158.035Z" fill="black" stroke="black" stroke-width="0.833333" stroke-linecap="round" stroke-linejoin="round"/>
<path d="M151.559 130.683L196.534 124.117L197.909 122.008L149.634 129.058L151.559 130.683Z" fill="black" stroke="black" stroke-width="0.833333" stroke-linecap="round" stroke-linejoin="round"/>
<path d="M392.583 247.733C417.251 247.733 437.249 240.551 437.249 231.692C437.249 222.832 417.251 215.65 392.583 215.65C367.914 215.65 347.916 222.832 347.916 231.692C347.916 240.551 367.914 247.733 392.583 247.733Z" fill="black" stroke="black" stroke-width="0.833333" stroke-miterlimit="10"/>
<path d="M344.584 86.8417L333.367 94.0667C330.876 95.6667 329.367 98.4334 329.367 101.392V123.908C329.367 133.908 333.026 143.567 339.651 151.058L344.584 156.642" fill="#FF5200"/>
<mask id="mask2_69562_2831" style="mask-type:luminance" maskUnits="userSpaceOnUse" x="329" y="86" width="16" height="71">
<path d="M344.584 86.8417L333.367 94.0667C330.876 95.6667 329.367 98.4334 329.367 101.392V123.908C329.367 133.908 333.026 143.567 339.651 151.058L344.584 156.642" fill="white"/>
</mask>
<g mask="url(#mask2_69562_2831)">
<path d="M330.901 96.0167C330.526 96.9667 331.618 97.8084 332.451 97.2167C334.326 95.8834 336.776 94.7084 338.935 95.5084C343.168 97.0751 344.585 97.3501 344.585 97.3501V86.8417L330.901 96.0167Z" fill="#FF945B"/>
</g>
<path d="M344.584 86.8417L333.367 94.0667C330.876 95.6667 329.367 98.4334 329.367 101.392V123.908C329.367 133.908 333.026 143.567 339.651 151.058L344.584 156.642" stroke="black" stroke-width="0.833333" stroke-miterlimit="10"/>
<path d="M344.583 97.35L339.433 95.775C335.6 94.6 331.725 97.475 331.725 101.483V122.508C331.725 132.408 335.166 142 341.458 149.642L344.583 153.442" fill="black"/>
<mask id="mask3_69562_2831" style="mask-type:luminance" maskUnits="userSpaceOnUse" x="331" y="95" width="14" height="59">
<path d="M344.583 97.35L339.433 95.775C335.6 94.6 331.725 97.475 331.725 101.483V122.508C331.725 132.408 335.166 142 341.458 149.642L344.583 153.442" fill="white"/>
</mask>
<g mask="url(#mask3_69562_2831)">
<path d="M345.366 130.008L331.725 137.508L346.308 157.933L345.366 130.008Z" fill="#566578" stroke="black" stroke-width="0.833333" stroke-miterlimit="10"/>
</g>
<path d="M344.583 97.35L339.433 95.775C335.6 94.6 331.725 97.475 331.725 101.483V122.508C331.725 132.408 335.166 142 341.458 149.642L344.583 153.442" stroke="black" stroke-width="0.833333" stroke-miterlimit="10"/>
<path d="M344.584 77.825V184.492C344.584 194.758 366.076 203.075 392.584 203.075C419.092 203.075 440.584 194.758 440.584 184.492V77.825" fill="#FF5200"/>
<mask id="mask4_69562_2831" style="mask-type:luminance" maskUnits="userSpaceOnUse" x="344" y="77" width="97" height="127">
<path d="M344.584 77.825V184.492C344.584 194.758 366.076 203.075 392.584 203.075C419.092 203.075 440.584 194.758 440.584 184.492V77.825" fill="white"/>
</mask>
<g mask="url(#mask4_69562_2831)">
<path d="M440.584 184.3V81.9917C440.584 88.6 431.667 94.4084 418.242 97.7C411.476 99.3584 406.692 105.392 406.692 112.358V196.708C406.692 198.342 408.126 199.617 409.742 199.408C436.792 195.933 440.584 184.292 440.584 184.292V184.3Z" fill="#FF945B"/>
</g>
<path d="M344.584 77.825V184.492C344.584 194.758 366.076 203.075 392.584 203.075C419.092 203.075 440.584 194.758 440.584 184.492V77.825" stroke="black" stroke-width="0.833333" stroke-linejoin="round"/>
<path d="M392.584 96.4083C419.094 96.4083 440.584 88.0883 440.584 77.825C440.584 67.5617 419.094 59.2416 392.584 59.2416C366.074 59.2416 344.584 67.5617 344.584 77.825C344.584 88.0883 366.074 96.4083 392.584 96.4083Z" fill="#FF945B" stroke="black" stroke-width="0.833333" stroke-miterlimit="10"/>
<path d="M392.583 93.4167C417.251 93.4167 437.249 86.2756 437.249 77.4667C437.249 68.6577 417.251 61.5167 392.583 61.5167C367.914 61.5167 347.916 68.6577 347.916 77.4667C347.916 86.2756 367.914 93.4167 392.583 93.4167Z" fill="#566578"/>
<mask id="mask5_69562_2831" style="mask-type:luminance" maskUnits="userSpaceOnUse" x="347" y="61" width="91" height="33">
<path d="M392.583 93.4167C417.251 93.4167 437.249 86.2756 437.249 77.4667C437.249 68.6577 417.251 61.5167 392.583 61.5167C367.914 61.5167 347.916 68.6577 347.916 77.4667C347.916 86.2756 367.914 93.4167 392.583 93.4167Z" fill="white"/>
</mask>
<g mask="url(#mask5_69562_2831)">
<path d="M374.858 64.6C374.858 64.6 395.567 61.5417 412.508 65.1917C412.508 65.1917 410.042 65.8417 410.042 69.3083V83.425H377.1V69.6917C377.1 65.575 374.867 64.6 374.867 64.6H374.858Z" fill="#C7C7C7"/>
<path d="M392.583 112.583C417.251 112.583 437.249 105.442 437.249 96.6333C437.249 87.8243 417.251 80.6833 392.583 80.6833C367.914 80.6833 347.916 87.8243 347.916 96.6333C347.916 105.442 367.914 112.583 392.583 112.583Z" fill="black"/>
<mask id="mask6_69562_2831" style="mask-type:luminance" maskUnits="userSpaceOnUse" x="347" y="80" width="91" height="33">
<path d="M392.583 112.583C417.251 112.583 437.249 105.442 437.249 96.6333C437.249 87.8243 417.251 80.6833 392.583 80.6833C367.914 80.6833 347.916 87.8243 347.916 96.6333C347.916 105.442 367.914 112.583 392.583 112.583Z" fill="white"/>
</mask>
<g mask="url(#mask6_69562_2831)">
<path d="M382.275 81.1084C382.275 81.1084 393.659 82.0167 393.217 83.425C392.775 84.8334 381.809 86.0167 377.1 88.3667C372.392 90.7167 368.042 93.4167 368.042 93.4167L387.192 95.5084C387.192 95.5084 381.517 94.2667 387.192 89.9584C392.867 85.65 400.559 86.8584 405.575 85.8917C407.075 85.6 408.242 85.2417 409.15 84.8667C410.875 84.1417 410.584 81.6084 408.742 81.275C402.317 80.0917 388.792 78.1417 382.284 81.1L382.275 81.1084Z" fill="#566578" stroke="black" stroke-width="0.833333" stroke-miterlimit="10"/>
</g>
<path d="M392.583 112.583C417.251 112.583 437.249 105.442 437.249 96.6333C437.249 87.8243 417.251 80.6833 392.583 80.6833C367.914 80.6833 347.916 87.8243 347.916 96.6333C347.916 105.442 367.914 112.583 392.583 112.583Z" stroke="black" stroke-width="0.833333" stroke-miterlimit="10"/>
</g>
<path d="M392.583 93.4167C417.251 93.4167 437.249 86.2756 437.249 77.4667C437.249 68.6577 417.251 61.5167 392.583 61.5167C367.914 61.5167 347.916 68.6577 347.916 77.4667C347.916 86.2756 367.914 93.4167 392.583 93.4167Z" stroke="black" stroke-width="0.833333" stroke-miterlimit="10"/>
<path d="M349.717 90.225C351.359 91.6166 354.167 93.4916 358.3 94.6166C359.45 94.9333 360.267 95.95 360.267 97.1416V192.783C360.267 193.908 359.125 194.667 358.092 194.233C356.225 193.45 353.467 192.142 351.125 190.4C348.992 188.817 347.792 186.267 347.792 183.608L347.909 91.0666C347.909 90.1333 349 89.6166 349.717 90.225Z" fill="#FF945B"/>
<path d="M427.391 114.142C421.083 116.092 409.124 118.858 392.616 118.633C389.633 118.592 387.183 120.992 387.183 123.975V162.825C387.183 164.95 388.866 166.692 390.991 166.758C398.641 166.992 416.199 166.908 428.499 161.975C430.941 160.992 432.516 158.6 432.516 155.967V117.892C432.516 115.233 429.941 113.358 427.408 114.142H427.391Z" fill="#C7C7C7"/>
<mask id="mask7_69562_2831" style="mask-type:luminance" maskUnits="userSpaceOnUse" x="387" y="113" width="46" height="54">
<path d="M427.391 114.142C421.083 116.092 409.124 118.858 392.616 118.633C389.633 118.592 387.183 120.992 387.183 123.975V162.825C387.183 164.95 388.866 166.692 390.991 166.758C398.641 166.992 416.199 166.908 428.499 161.975C430.941 160.992 432.516 158.6 432.516 155.967V117.892C432.516 115.233 429.941 113.358 427.408 114.142H427.391Z" fill="white"/>
</mask>
<g mask="url(#mask7_69562_2831)">
<path d="M429.716 119.867C425.475 124.675 412.075 138.517 389.991 149.367C389.233 149.742 388.741 150.508 388.741 151.358V162.992C388.741 164.358 390.075 165.325 391.375 164.9C401.05 161.7 420.125 153.733 429.425 147.983C430.525 147.3 431.191 146.108 431.191 144.817V120.433C431.191 119.658 430.233 119.292 429.716 119.875V119.867Z" fill="#F3F3F3"/>
<path d="M388.817 126.05V123.842C388.817 121.917 390.334 120.342 392.259 120.283C396.684 120.142 404.601 119.775 411.392 118.875C421.442 117.542 431.092 114.483 431.092 114.483L429.209 112.917L386.226 118.483V127.742H387.126C388.059 127.742 388.817 126.983 388.817 126.05Z" fill="#F3F3F3"/>
</g>
<path d="M427.391 114.142C421.083 116.092 409.124 118.858 392.616 118.633C389.633 118.592 387.183 120.992 387.183 123.975V162.825C387.183 164.95 388.866 166.692 390.991 166.758C398.641 166.992 416.199 166.908 428.499 161.975C430.941 160.992 432.516 158.6 432.516 155.967V117.892C432.516 115.233 429.941 113.358 427.408 114.142H427.391Z" stroke="black" stroke-width="0.833333" stroke-miterlimit="10"/>
<path d="M418.892 129.15L403.9 131.142C401.15 131.508 399.15 133.775 399.15 136.517V150.292C399.15 153.042 401.15 154.775 403.9 154.408L418.892 152.417C421.642 152.05 423.642 149.783 423.642 147.042V143.275L418.067 144.017L415.642 148.525L407.167 149.65L402.934 142.908L407.167 135.042L415.642 133.917L418.067 137.783L423.642 137.042V133.275C423.642 130.525 421.642 128.792 418.892 129.158V129.15Z" fill="black"/>
<path d="M409.158 138.242L406.941 142.375L409.158 145.908L413.608 145.325L415.825 141.192L413.608 137.65L409.158 138.242Z" fill="#FF5200"/>
<path d="M213.924 453.675L38.1656 352.725C32.4156 349.417 33.3572 342.25 39.8406 340.017L233.191 275.125C239.407 272.983 246.474 273.175 252.507 275.658L449.741 360.358C457.016 363.35 456.907 371.85 449.557 374.717L242.282 455.608C233.099 459.192 222.257 458.45 213.932 453.675H213.924Z" fill="black" stroke="black" stroke-width="0.833333" stroke-miterlimit="10"/>
<path d="M213.984 406.5L26.5088 272.675C23.6588 270.667 22.3505 267.567 22.4588 264.525C22.5838 261.025 22.4588 258.492 22.4588 258.492L234.542 172.742C241.176 169.933 248.709 170.183 255.142 173.433L471.276 285.242C471.276 285.242 471.317 290.042 471.276 293.783C471.234 297.525 469.25 301.242 465.326 303.125L244.234 409.033C234.434 413.725 222.867 412.758 213.992 406.5H213.984Z" fill="#566578" stroke="black" stroke-width="0.833333" stroke-miterlimit="10"/>
<path d="M213.983 394L26.5082 261.842C20.3749 257.517 21.3749 248.133 28.2916 245.2L234.533 160.242C241.167 157.433 248.7 157.683 255.133 160.933L465.517 271.825C473.275 275.742 473.158 286.867 465.317 290.625L244.225 396.533C234.425 401.225 222.858 400.258 213.983 394Z" fill="#C7C7C7"/>
<mask id="mask8_69562_2831" style="mask-type:luminance" maskUnits="userSpaceOnUse" x="22" y="158" width="450" height="242">
<path d="M213.983 394L26.5082 261.842C20.3749 257.517 21.3749 248.133 28.2916 245.2L234.533 160.242C241.167 157.433 248.7 157.683 255.133 160.933L465.517 271.825C473.275 275.742 473.158 286.867 465.317 290.625L244.225 396.533C234.425 401.225 222.858 400.258 213.983 394Z" fill="white"/>
</mask>
<g mask="url(#mask8_69562_2831)">
<path d="M58.9912 284.017C58.9912 284.017 94.0745 306.408 119.958 325.092C145.841 343.775 177.683 366.658 177.683 366.658L231.491 400.583L352.458 342.383L422.741 308.567L428.675 312.583L226.675 402.742L58.9995 284.017" fill="#F3F3F3"/>
</g>
<path d="M213.983 394L26.5082 261.842C20.3749 257.517 21.3749 248.133 28.2916 245.2L234.533 160.242C241.167 157.433 248.7 157.683 255.133 160.933L465.517 271.825C473.275 275.742 473.158 286.867 465.317 290.625L244.225 396.533C234.425 401.225 222.858 400.258 213.983 394Z" stroke="black" stroke-width="0.833333" stroke-miterlimit="10"/>
<path d="M224.067 377.725L46.9167 257.425C45.2917 256.317 45.5334 253.85 47.3417 253.083L242.658 172.775C245.667 171.5 249.092 171.617 252.008 173.092L442.608 274.042C444.833 275.167 444.8 278.358 442.55 279.433L235.55 378.592C231.833 380.367 227.458 380.042 224.05 377.725H224.067Z" fill="#F3F3F3"/>
<path d="M224.066 377.842L48.833 258.85C47.2247 257.758 47.4664 255.308 49.258 254.55L242.466 175.108C245.441 173.85 248.825 173.958 251.716 175.417L440.258 275.275C442.458 276.383 442.425 279.542 440.2 280.608L235.441 378.692C231.766 380.45 227.433 380.125 224.066 377.842Z" fill="black"/>
<mask id="mask9_69562_2831" style="mask-type:luminance" maskUnits="userSpaceOnUse" x="47" y="174" width="395" height="206">
<path d="M224.065 377.842L48.832 258.85C47.2237 257.758 47.4654 255.308 49.257 254.55L242.465 175.108C245.44 173.85 248.824 173.958 251.715 175.417L440.257 275.275C442.457 276.383 442.424 279.542 440.199 280.608L235.44 378.692C231.765 380.45 227.432 380.125 224.065 377.842Z" fill="white"/>
</mask>
<g mask="url(#mask9_69562_2831)">
<path d="M227.483 380.342L52.0328 261.2C50.7744 260.35 50.9661 258.442 52.3661 257.85L243.474 179.3C245.699 178.358 248.224 178.442 250.383 179.533L437.866 278.858C439.149 279.508 439.133 281.35 437.833 281.975L231.799 380.667C230.399 381.333 228.749 381.217 227.466 380.342H227.483Z" fill="#C7C7C7"/>
<mask id="mask10_69562_2831" style="mask-type:luminance" maskUnits="userSpaceOnUse" x="51" y="178" width="388" height="204">
<path d="M227.483 380.342L52.0328 261.2C50.7744 260.35 50.9661 258.442 52.3661 257.85L243.474 179.3C245.699 178.358 248.224 178.442 250.383 179.533L437.866 278.858C439.149 279.508 439.133 281.35 437.833 281.975L231.799 380.667C230.399 381.333 228.749 381.217 227.466 380.342H227.483Z" fill="white"/>
</mask>
<g mask="url(#mask10_69562_2831)">
<path d="M227.483 382.842L52.0333 263.7C50.7749 262.85 50.9666 260.942 52.3666 260.35L243.475 181.8C245.7 180.858 248.225 180.942 250.383 182.033L437.867 281.358C439.15 282.008 439.133 283.85 437.833 284.475L231.8 383.167C230.4 383.833 228.75 383.717 227.467 382.842H227.483Z" fill="#F3F3F3"/>
<path d="M231.458 358L93.9331 264.608L247.866 201.817L392.65 280.792L231.458 358Z" fill="#F3F3F3" stroke="black" stroke-width="0.833333" stroke-linejoin="round"/>
<path d="M133.275 248.558L273.242 337.992" stroke="black" stroke-width="0.833333" stroke-linejoin="round"/>
<path d="M173.925 231.975L313.867 318.525" stroke="black" stroke-width="0.833333" stroke-linejoin="round"/>
<path d="M212.175 216.375L353.258 299.658" stroke="black" stroke-width="0.833333" stroke-linejoin="round"/>
<path d="M289.476 224.508L134.459 292.258" stroke="black" stroke-width="0.833333" stroke-linejoin="round"/>
<path d="M287.917 233.092L358.625 272.925" stroke="black" stroke-width="0.833333" stroke-linejoin="round"/>
<path d="M279.584 237.258L347.792 276.258" stroke="black" stroke-width="0.833333" stroke-linejoin="round"/>
<path d="M269.584 240.592L315.617 267.492" stroke="black" stroke-width="0.833333" stroke-linejoin="round"/>
<path d="M249.584 250.825L321.126 293.992" stroke="black" stroke-width="0.833333" stroke-linejoin="round"/>
<path d="M239.584 254.992L286.459 283.558" stroke="black" stroke-width="0.833333" stroke-linejoin="round"/>
<path d="M202.009 271.808L276.05 319.142" stroke="black" stroke-width="0.833333" stroke-linejoin="round"/>
<path d="M211.275 267.425L258.15 296.825" stroke="black" stroke-width="0.833333" stroke-linejoin="round"/>
<path d="M171.483 284.725L247.791 333.767" stroke="black" stroke-width="0.833333" stroke-linejoin="round"/>
<path d="M162.317 288.892L214.492 322.983" stroke="black" stroke-width="0.833333" stroke-linejoin="round"/>
<path d="M151.483 293.058L216.533 335.433" stroke="black" stroke-width="0.833333" stroke-linejoin="round"/>
<path d="M239.033 214.775L262.55 228.225" stroke="black" stroke-width="0.833333" stroke-linejoin="round"/>
<path d="M205.759 226.617L228.917 240.592" stroke="black" stroke-width="0.833333" stroke-linejoin="round"/>
<path d="M195.759 230.783L216.534 243.442" stroke="black" stroke-width="0.833333" stroke-linejoin="round"/>
<path d="M161.976 245.633L186.017 261.008" stroke="black" stroke-width="0.833333" stroke-linejoin="round"/>
<path d="M127.467 260.325L149.375 274.625" stroke="black" stroke-width="0.833333" stroke-linejoin="round"/>
<path d="M117.283 264.65L130.042 272.983" stroke="black" stroke-width="0.833333" stroke-linejoin="round"/>
<path opacity="0.8" d="M306.166 208.35C306.166 208.35 310.816 211.425 303.266 214.533C295.716 217.642 161.499 232.533 133.283 235.642C107.474 238.483 106.633 230.783 106.633 230.783L44.2827 254.992C44.2827 254.992 45.6827 275.108 59.5077 267.917C73.3327 260.717 231.099 242.9 288.608 235.75C336.733 229.767 366.408 240.4 366.408 240.4L306.174 208.358L306.166 208.35Z" fill="white"/>
</g>
</g>
<path d="M224.066 377.842L48.833 258.85C47.2247 257.758 47.4664 255.308 49.258 254.55L242.466 175.108C245.441 173.85 248.825 173.958 251.716 175.417L440.258 275.275C442.458 276.383 442.425 279.542 440.2 280.608L235.441 378.692C231.766 380.45 227.433 380.125 224.066 377.842Z" stroke="black" stroke-width="0.833333" stroke-miterlimit="10"/>
<path d="M429.908 322.175C429.908 322.175 463.058 306.042 467.675 303.825C472.967 301.275 474.733 298.258 474.733 295.392V282.892L429.908 309.675V322.175Z" fill="#963000" stroke="black" stroke-width="0.833333" stroke-miterlimit="10"/>
<path d="M457.234 284.35C464.3 280.258 461.159 275.292 457.234 273.308C453.967 271.658 425.025 256.917 425.025 256.917C425.025 255.083 427.434 254.258 427.434 254.258L459.784 270.725C459.784 270.725 464.409 272.708 464.409 277.442C464.409 282.175 457.225 284.342 457.225 284.342L457.234 284.35Z" fill="#963000" stroke="black" stroke-width="0.833333" stroke-miterlimit="10"/>
<path d="M427.443 254.258C427.443 254.258 456.693 269.158 459.793 270.725C463.518 272.608 466.501 277.317 459.793 281.192C453.084 285.067 420.143 300.842 420.143 300.842L429.909 309.667C429.909 309.667 463.059 293.533 467.676 291.317C472.968 288.767 474.734 285.75 474.734 282.883C474.734 278.65 471.976 273.35 463.926 269.45C456.826 266.008 431.559 253.2 431.559 253.2L427.443 254.258Z" fill="#FF5200"/>
<mask id="mask11_69562_2831" style="mask-type:luminance" maskUnits="userSpaceOnUse" x="420" y="253" width="55" height="57">
<path d="M427.443 254.258C427.443 254.258 456.693 269.158 459.793 270.725C463.518 272.608 466.501 277.317 459.793 281.192C453.084 285.067 420.143 300.842 420.143 300.842L429.909 309.667C429.909 309.667 463.059 293.533 467.676 291.317C472.968 288.767 474.734 285.75 474.734 282.883C474.734 278.65 471.976 273.35 463.926 269.45C456.826 266.008 431.559 253.2 431.559 253.2L427.443 254.258Z" fill="white"/>
</mask>
<g mask="url(#mask11_69562_2831)">
<path d="M462.485 272.817C462.485 272.817 469.918 272.192 474.735 281.433C478.551 288.758 485.201 277.642 474.735 270.583C464.268 263.525 429.91 249.592 429.91 249.592L422.151 254.267L462.485 272.825V272.817Z" fill="#FF945B"/>
</g>
<path d="M427.443 254.258C427.443 254.258 456.693 269.158 459.793 270.725C463.518 272.608 466.501 277.317 459.793 281.192C453.084 285.067 420.143 300.842 420.143 300.842L429.909 309.667C429.909 309.667 463.059 293.533 467.676 291.317C472.968 288.767 474.734 285.75 474.734 282.883C474.734 278.65 471.976 273.35 463.926 269.45C456.826 266.008 431.559 253.2 431.559 253.2L427.443 254.258Z" stroke="black" stroke-width="0.833333" stroke-linecap="round" stroke-linejoin="round"/>
<path d="M429.908 322.175C429.908 322.175 428.842 322.658 424.55 322.658V312.575C424.55 311.042 423.883 309.583 422.725 308.575L417.783 304.267C417.783 301.733 420.142 300.85 420.142 300.85L429.908 309.675V322.175Z" fill="black" stroke="black" stroke-width="0.833333" stroke-miterlimit="10"/>
<path d="M274.983 374.275C274.983 374.275 245.283 387.992 237.849 391.433C230.974 394.617 225.799 394.067 218.191 388.867C210.683 383.733 182.183 364.15 182.183 364.15C174.049 365.85 171.283 370.808 171.283 370.808V382C171.283 382 209.041 409.008 214.624 413.017C223.383 419.3 233.383 418.3 241.441 414.417C248.908 410.817 284.266 394.4 284.266 394.4V382.85C284.266 382.85 283.716 377.617 274.983 374.267V374.275Z" fill="#963000"/>
<mask id="mask12_69562_2831" style="mask-type:luminance" maskUnits="userSpaceOnUse" x="171" y="364" width="114" height="54">
<path d="M274.982 374.275C274.982 374.275 245.282 387.992 237.848 391.433C230.973 394.617 225.798 394.067 218.19 388.867C210.682 383.733 182.182 364.15 182.182 364.15C174.048 365.85 171.282 370.808 171.282 370.808V382C171.282 382 209.04 409.008 214.623 413.017C223.382 419.3 233.382 418.3 241.44 414.417C248.907 410.817 284.265 394.4 284.265 394.4V382.85C284.265 382.85 283.715 377.617 274.982 374.267V374.275Z" fill="white"/>
</mask>
<g mask="url(#mask12_69562_2831)">
<path d="M167.666 368.325C180.491 377.133 205.866 394.558 213.407 399.717C223.774 406.8 230.824 407.55 240.199 403.217C250.332 398.525 290.807 379.833 290.807 379.833L277.916 370.725L176.741 356.842L167.674 368.317L167.666 368.325Z" fill="#FF5200"/>
<mask id="mask13_69562_2831" style="mask-type:luminance" maskUnits="userSpaceOnUse" x="167" y="356" width="124" height="50">
<path d="M167.666 368.325C180.491 377.133 205.866 394.558 213.407 399.717C223.774 406.8 230.824 407.55 240.199 403.217C250.332 398.525 290.807 379.833 290.807 379.833L277.916 370.725L176.741 356.842L167.674 368.317L167.666 368.325Z" fill="white"/>
</mask>
<g mask="url(#mask13_69562_2831)">
<path d="M173.924 366.508C173.924 366.508 176.741 364.158 186.466 371.058C192.957 375.667 209.182 386.783 219.257 393.675C224.541 397.283 231.316 397.867 237.132 395.208C250.599 389.058 274.049 378.333 276.041 377.333C278.849 375.925 281.516 377.175 281.516 377.175L273.124 369.958L178.924 361.333L173.916 366.508H173.924Z" fill="#FF945B"/>
</g>
<path d="M167.666 368.325C180.491 377.133 205.866 394.558 213.407 399.717C223.774 406.8 230.824 407.55 240.199 403.217C250.332 398.525 290.807 379.833 290.807 379.833L277.916 370.725L176.741 356.842L167.674 368.317L167.666 368.325Z" stroke="black" stroke-width="0.833333" stroke-linecap="round" stroke-linejoin="round"/>
</g>
<path d="M274.983 374.275C274.983 374.275 245.283 387.992 237.849 391.433C230.974 394.617 225.799 394.067 218.191 388.867C210.683 383.733 182.183 364.15 182.183 364.15C174.049 365.85 171.283 370.808 171.283 370.808V382C171.283 382 209.041 409.008 214.624 413.017C223.383 419.3 233.383 418.3 241.441 414.417C248.908 410.817 284.266 394.4 284.266 394.4V382.85C284.266 382.85 283.716 377.617 274.983 374.267V374.275Z" stroke="black" stroke-width="0.833333" stroke-miterlimit="10"/>
<path d="M196.766 176.233L203.891 177.925C205.333 178.267 206.841 178.15 208.208 177.583L238.349 165.183C242.466 163.492 247.116 163.625 251.124 165.567L281.433 180.225C282.349 180.667 283.383 180.833 284.391 180.683L292.083 179.592L290.383 175.833L255.483 161.733C248.883 158.433 241.174 158.167 234.366 160.992L198.991 172.317L196.766 176.225V176.233Z" fill="#963000" stroke="black" stroke-width="0.833333" stroke-miterlimit="10"/>
<path d="M198.992 172.325L205.958 173.767C207.442 174.075 208.983 173.933 210.383 173.35L238.35 161.85C242.467 160.158 247.117 160.292 251.125 162.233L280.175 176.283C281.075 176.717 282.075 176.883 283.067 176.758L290.392 175.842L255.492 158.408C248.892 155.108 241.183 154.842 234.375 157.667L199 172.325H198.992Z" fill="#FF5200"/>
<mask id="mask14_69562_2831" style="mask-type:luminance" maskUnits="userSpaceOnUse" x="198" y="155" width="93" height="22">
<path d="M198.993 172.325L205.959 173.767C207.443 174.075 208.984 173.933 210.384 173.35L238.351 161.85C242.468 160.158 247.118 160.292 251.126 162.233L280.176 176.283C281.076 176.717 282.076 176.883 283.068 176.758L290.393 175.842L255.493 158.408C248.893 155.108 241.184 154.842 234.376 157.667L199.001 172.325H198.993Z" fill="white"/>
</mask>
<g mask="url(#mask14_69562_2831)">
<path d="M198.993 172.325C198.993 172.325 203.368 172.833 210.351 169.9C214.801 168.033 227.376 162.833 235.918 159.308C241.293 157.083 247.343 157.283 252.568 159.842C262.643 164.775 278.776 172.683 281.876 174.242C286.443 176.55 289.468 175.85 289.468 175.85L273.393 179L203.826 176.5L198.993 172.333" fill="#FF945B"/>
</g>
<path d="M198.992 172.325L205.958 173.767C207.442 174.075 208.983 173.933 210.383 173.35L238.35 161.85C242.467 160.158 247.117 160.292 251.125 162.233L280.175 176.283C281.075 176.717 282.075 176.883 283.067 176.758L290.392 175.842L255.492 158.408C248.892 155.108 241.183 154.842 234.375 157.667L199 172.325H198.992Z" stroke="black" stroke-width="0.833333" stroke-linecap="round" stroke-linejoin="round"/>
<path d="M66.9666 227.775V236.183C66.9666 237.375 66.2499 238.45 65.1583 238.908L28.7166 254.242C26.4833 255.183 26.1499 258.217 28.1249 259.617L53.6833 285.267V295.267C53.6833 295.267 21.4333 272.233 17.9416 269.767C16.7333 268.917 15.6416 267.342 15.6416 265.433C15.6416 262.867 15.6416 255.65 15.6416 255.65L22.4416 249.067L66.9583 227.783L66.9666 227.775Z" fill="#963000" stroke="black" stroke-width="0.833333" stroke-miterlimit="10"/>
<path d="M66.9673 227.775V229.517C66.9673 230.708 66.2506 231.783 65.159 232.242L28.7173 247.575C26.484 248.517 26.1506 251.55 28.1256 252.95L60.634 275.975L53.684 285.267C53.684 285.267 20.684 261.7 17.9423 259.767C13.3506 256.525 15.984 249.225 22.8923 246.3C31.5756 242.625 66.959 227.783 66.959 227.783L66.9673 227.775Z" fill="#FF5200"/>
<mask id="mask15_69562_2831" style="mask-type:luminance" maskUnits="userSpaceOnUse" x="15" y="227" width="52" height="59">
<path d="M66.9673 227.775V229.517C66.9673 230.708 66.2506 231.783 65.159 232.242L28.7173 247.575C26.484 248.517 26.1506 251.55 28.1256 252.95L60.634 275.975L53.684 285.267C53.684 285.267 20.684 261.7 17.9423 259.767C13.3506 256.525 15.984 249.225 22.8923 246.3C31.5756 242.625 66.959 227.783 66.959 227.783L66.9673 227.775Z" fill="white"/>
</mask>
<g mask="url(#mask15_69562_2831)">
<path d="M15.6582 256.517C15.6582 256.517 18.3082 250 28.1915 247.367C38.0749 244.733 68.7415 232.167 68.7415 232.167L67.5082 226.05L16.9165 247.283L15.6582 256.517Z" fill="#FF945B"/>
</g>
<path d="M66.9673 227.775V229.517C66.9673 230.708 66.2506 231.783 65.159 232.242L28.7173 247.575C26.484 248.517 26.1506 251.55 28.1256 252.95L60.634 275.975L53.684 285.267C53.684 285.267 20.684 261.7 17.9423 259.767C13.3506 256.525 15.984 249.225 22.8923 246.3C31.5756 242.625 66.959 227.783 66.959 227.783L66.9673 227.775Z" stroke="black" stroke-width="0.833333" stroke-linecap="round" stroke-linejoin="round"/>
<path d="M60.6424 275.975L61.0007 282.308L58.9841 284.017C58.1007 284.767 57.5841 285.867 57.5757 287.025L57.5507 294.833L58.9341 295.825C56.7674 296.817 53.6841 295.267 53.6841 295.267V285.267L60.6341 275.975H60.6424Z" fill="black" stroke="black" stroke-width="0.833333" stroke-linecap="round" stroke-linejoin="round"/>
<path d="M151.675 207.358C156.88 207.358 161.1 205.556 161.1 203.333C161.1 201.11 156.88 199.308 151.675 199.308C146.469 199.308 142.25 201.11 142.25 203.333C142.25 205.556 146.469 207.358 151.675 207.358Z" fill="black"/>
<mask id="mask16_69562_2831" style="mask-type:luminance" maskUnits="userSpaceOnUse" x="142" y="199" width="20" height="9">
<path d="M151.674 207.358C156.879 207.358 161.099 205.556 161.099 203.333C161.099 201.11 156.879 199.308 151.674 199.308C146.468 199.308 142.249 201.11 142.249 203.333C142.249 205.556 146.468 207.358 151.674 207.358Z" fill="white"/>
</mask>
<g mask="url(#mask16_69562_2831)">
<path d="M151.673 207.95C155.433 207.95 158.481 206.648 158.481 205.042C158.481 203.435 155.433 202.133 151.673 202.133C147.913 202.133 144.865 203.435 144.865 205.042C144.865 206.648 147.913 207.95 151.673 207.95Z" fill="#C7C7C7" stroke="black" stroke-width="0.833333" stroke-linecap="round" stroke-linejoin="round"/>
</g>
<path d="M151.675 207.358C156.88 207.358 161.1 205.556 161.1 203.333C161.1 201.11 156.88 199.308 151.675 199.308C146.469 199.308 142.25 201.11 142.25 203.333C142.25 205.556 146.469 207.358 151.675 207.358Z" stroke="black" stroke-width="0.833333" stroke-miterlimit="10"/>
<path d="M69.917 177.35L116.192 205.042" stroke="black" stroke-width="0.833333" stroke-linecap="round" stroke-linejoin="round"/>
<path d="M80.667 176.492L126.934 204.192" stroke="black" stroke-width="0.833333" stroke-linecap="round" stroke-linejoin="round"/>
<path d="M285.917 154.575L267.559 161.767" stroke="black" stroke-width="0.833333" stroke-linecap="round" stroke-linejoin="round"/>
<path d="M279.159 153.7L260.801 160.9" stroke="black" stroke-width="0.833333" stroke-linecap="round" stroke-linejoin="round"/>
<path d="M337.999 313.208L282.716 335.433L245.016 305.058L299.407 283.558L337.999 313.208Z" fill="black"/>
<path d="M299.408 283.558L244.824 303.642C244.824 303.642 253.458 309.133 263.024 317.442C272.591 325.75 281.374 333.767 281.374 333.767C281.374 333.767 299.574 327.483 309.449 324.033C319.324 320.583 337.999 313.208 337.999 313.208L299.408 283.558Z" fill="#FF5200"/>
<mask id="mask17_69562_2831" style="mask-type:luminance" maskUnits="userSpaceOnUse" x="244" y="283" width="94" height="51">
<path d="M299.408 283.558L244.824 303.642C244.824 303.642 253.458 309.133 263.024 317.442C272.591 325.75 281.374 333.767 281.374 333.767C281.374 333.767 299.574 327.483 309.449 324.033C319.324 320.583 337.999 313.208 337.999 313.208L299.408 283.558Z" fill="white"/>
</mask>
<g mask="url(#mask17_69562_2831)">
<path d="M322.857 301.208C322.857 301.208 318.191 297.142 310.974 296.742C305.732 296.45 282.824 295.908 270.666 295.633C266.074 295.533 263.016 296.817 263.016 296.817L299.482 282.575L322.857 301.2V301.208Z" fill="#FF945B"/>
</g>
<path d="M181.683 339.467L232.241 368.25L271.633 349.125L217.208 328.425L181.683 339.467Z" fill="black"/>
<path d="M286.458 340.508L237.45 314.942C237.45 314.942 211.25 333.625 177.683 333.775L229.233 362.475C229.233 362.475 255.175 361.067 286.458 340.517V340.508Z" fill="#CEC4A1"/>
<path d="M290.8 293.992C290.8 293.992 298.625 297.525 299.408 300.35C300.191 303.175 300.816 305.842 304.9 307.092C308.983 308.342 309.916 309.442 310.075 311.325C310.233 313.208 313.691 314.242 313.691 314.242" stroke="black" stroke-width="0.833333" stroke-miterlimit="10" stroke-linecap="round"/>
<path d="M286.459 301.575C286.459 301.575 289.809 301.65 293.517 305.942C297.226 310.233 300.359 312.583 300.359 312.583" stroke="black" stroke-width="0.833333" stroke-miterlimit="10" stroke-linecap="round"/>
<path d="M271.634 310.075C271.634 310.075 273.709 309.292 276.05 311.333C278.392 313.375 288.9 322.992 288.9 322.992" stroke="black" stroke-width="0.833333" stroke-miterlimit="10" stroke-linecap="round"/>
<path d="M261.758 309.25C261.758 309.25 273.366 316.667 278.541 321.058C283.716 325.45 284.499 327.175 284.499 327.175" stroke="black" stroke-width="0.833333" stroke-miterlimit="10" stroke-linecap="round"/>
<path d="M232.065 327.175C232.065 327.175 236.59 330.625 243.29 331.25C249.99 331.875 248.424 335.433 248.424 335.433C248.424 335.433 255.015 333.917 256.107 336.892C257.199 339.867 254.699 338.775 259.557 342.692C264.415 346.608 268.024 346.617 268.024 346.617" stroke="black" stroke-width="0.833333" stroke-miterlimit="10" stroke-linecap="round"/>
<path d="M228.916 331.092C228.916 331.092 233.391 331.558 239.024 336.892C244.658 342.225 249.358 346.775 252.341 346.617" stroke="black" stroke-width="0.833333" stroke-miterlimit="10" stroke-linecap="round"/>
<path d="M211.966 332.458C211.966 332.458 227.608 334.075 228.925 336.892C230.241 339.708 221.291 336.108 224.75 340.342C228.208 344.575 240.05 346.775 243.3 351.633" stroke="black" stroke-width="0.833333" stroke-miterlimit="10" stroke-linecap="round"/>
</g>
<defs>
</defs>
</svg>
