<svg width="500" height="500" viewBox="0 0 500 500" fill="none" xmlns="http://www.w3.org/2000/svg">
<g>
<path d="M133.734 391.208C156.784 408.167 203.634 440.442 249.026 458.417C263.668 464.217 279.943 464.358 294.668 458.758L368.226 430.792C374.734 428.317 375.584 419.45 369.659 415.792C344.701 400.392 291.459 368.658 244.393 348.108C235.826 344.367 226.176 343.942 217.326 346.933L136.384 374.267C128.976 376.767 127.451 386.567 133.751 391.2L133.734 391.208Z" fill="black"/>
<path d="M284.325 416.785C318.286 400.666 310.049 312.24 265.928 219.279C221.807 126.318 158.509 64.0255 124.548 80.1441C90.5866 96.2628 98.8229 184.689 142.944 277.65C187.065 370.611 250.363 432.904 284.325 416.785Z" fill="#566578" stroke="black" stroke-width="0.833333" stroke-miterlimit="10"/>
<path d="M283.811 411.806C316.126 396.469 307.606 310.89 264.781 220.661C221.957 130.432 161.044 69.7202 128.73 85.0575C96.4149 100.395 104.935 185.973 147.76 276.202C190.584 366.431 251.497 427.143 283.811 411.806Z" fill="black" stroke="black" stroke-width="0.833333" stroke-miterlimit="10"/>
<path d="M136.557 136.383C136.557 136.383 130.599 141.842 128.774 154.333C126.94 166.825 131.274 193.883 134.24 209.575C139.574 237.8 157.39 286.708 175.174 316.158C180.84 325.55 186.007 333.658 190.324 340.225C198.082 352.025 211.415 358.925 225.524 358.433L226.374 358.4C227.682 358.358 228.89 357.675 229.574 356.558C231.04 354.167 233.357 349.375 233.874 342.25" fill="#566578"/>
<mask id="mask0_69562_2556" style="mask-type:luminance" maskUnits="userSpaceOnUse" x="128" y="136" width="106" height="223">
<path d="M136.557 136.383C136.557 136.383 130.599 141.842 128.774 154.333C126.94 166.825 131.274 193.883 134.24 209.575C139.574 237.8 157.39 286.708 175.174 316.158C180.84 325.55 186.007 333.658 190.324 340.225C198.082 352.025 211.415 358.925 225.524 358.433L226.374 358.4C227.682 358.358 228.89 357.675 229.574 356.558C231.04 354.167 233.357 349.375 233.874 342.25" fill="white"/>
</mask>
<g mask="url(#mask0_69562_2556)">
<path d="M191.05 322.183V328.55C191.05 333.783 186.808 338.017 181.583 338.017V315.642L191.05 322.183Z" fill="black" stroke="black" stroke-width="0.833333" stroke-miterlimit="10"/>
<path d="M141.183 217.15V228.008C141.183 230.325 139.299 232.208 136.983 232.208L131.933 216.367L141.183 217.15Z" fill="black" stroke="black" stroke-width="0.833333" stroke-miterlimit="10"/>
</g>
<path d="M136.557 136.383C136.557 136.383 130.599 141.842 128.774 154.333C126.94 166.825 131.274 193.883 134.24 209.575C139.574 237.8 157.39 286.708 175.174 316.158C180.84 325.55 186.007 333.658 190.324 340.225C198.082 352.025 211.415 358.925 225.524 358.433L226.374 358.4C227.682 358.358 228.89 357.675 229.574 356.558C231.04 354.167 233.357 349.375 233.874 342.25" stroke="black" stroke-width="0.833333" stroke-miterlimit="10"/>
<path d="M134 140.383L132.983 135.383C132.433 132.683 132.858 129.883 134.183 127.475L144.125 109.35C146.517 105.317 150.033 102.075 154.25 100.025C166.717 93.975 194.225 80.9667 210.717 75.9C233.592 68.8667 251.467 66.1 260.483 65.05C264.475 64.5833 268.525 64.925 272.375 66.0666L289.8 71.2166L292.167 71.0166C294.658 70.8083 297.142 71.5417 299.117 73.075L303.85 76.7416" fill="#C7C7C7"/>
<path d="M134 140.383L132.983 135.383C132.433 132.683 132.858 129.883 134.183 127.475L144.125 109.35C146.517 105.317 150.033 102.075 154.25 100.025C166.717 93.975 194.225 80.9667 210.717 75.9C233.592 68.8667 251.467 66.1 260.483 65.05C264.475 64.5833 268.525 64.925 272.375 66.0666L289.8 71.2166L292.167 71.0166C294.658 70.8083 297.142 71.5417 299.117 73.075L303.85 76.7416" stroke="black" stroke-width="0.833333" stroke-miterlimit="10"/>
<path d="M235.699 344.817C235.699 344.817 238.716 350.4 242.191 354.492C243.558 356.1 245.883 356.475 247.708 355.417C257.241 349.833 288.874 331.8 322.333 318.108C356.258 304.225 392.799 293.708 403.199 290.808C404.991 290.308 406.366 288.867 406.774 287.05L408.933 277.583C409.274 276.075 408.866 274.492 407.824 273.35L407.058 272.5" fill="black"/>
<path d="M235.699 344.817C235.699 344.817 238.716 350.4 242.191 354.492C243.558 356.1 245.883 356.475 247.708 355.417C257.241 349.833 288.874 331.8 322.333 318.108C356.258 304.225 392.799 293.708 403.199 290.808C404.991 290.308 406.366 288.867 406.774 287.05L408.933 277.583C409.274 276.075 408.866 274.492 407.824 273.35L407.058 272.5" stroke="black" stroke-width="0.833333" stroke-miterlimit="10"/>
<path d="M271.99 354.742L383.99 310.067L380.74 292.258L260.757 342.408L271.99 354.742L284.257 356.008L271.99 354.742Z" fill="black"/>
<path d="M399.183 183.166C403.171 181.87 404.012 173.46 401.062 164.382C398.113 155.304 392.489 148.995 388.501 150.291C384.514 151.586 383.672 159.996 386.622 169.074C389.572 178.152 395.195 184.461 399.183 183.166Z" fill="#FF5200" stroke="black" stroke-width="0.833333" stroke-miterlimit="10"/>
<path d="M265.616 345.342C267.316 345.042 268.974 346.017 269.541 347.642L280.649 379.775C281.166 381.258 280.232 382.85 278.691 383.133C272.299 384.325 265.382 383.45 260.416 379.842C255.732 376.433 237.466 364.792 230.982 360.667C229.632 359.808 229.041 358.133 229.557 356.617L229.574 356.567L231.974 338.742L402.832 269.717L403.207 290.808L403.432 290.942C405.582 292.175 406.699 294.642 406.224 297.067C404.941 303.55 402.416 316.117 400.907 322.142C398.824 330.467 390.632 334.367 390.632 334.367L385.691 323.833C385.691 323.833 386.599 315.542 381.732 303.2C381.016 301.383 380.624 299.442 380.624 297.483" fill="#566578"/>
<mask id="mask1_69562_2556" style="mask-type:luminance" maskUnits="userSpaceOnUse" x="229" y="269" width="178" height="115">
<path d="M265.616 345.342C267.316 345.042 268.974 346.017 269.541 347.642L280.649 379.775C281.166 381.258 280.232 382.85 278.691 383.133C272.299 384.325 265.382 383.45 260.416 379.842C255.732 376.433 237.466 364.792 230.982 360.667C229.632 359.808 229.041 358.133 229.557 356.617L229.574 356.567L231.974 338.742L402.832 269.717L403.207 290.808L403.432 290.942C405.582 292.175 406.699 294.642 406.224 297.067C404.941 303.55 402.416 316.117 400.907 322.142C398.824 330.467 390.632 334.367 390.632 334.367L385.691 323.833C385.691 323.833 386.599 315.542 381.732 303.2C381.016 301.383 380.624 299.442 380.624 297.483" fill="white"/>
</mask>
<g mask="url(#mask1_69562_2556)">
<path d="M403.875 286.658C400.825 283.008 395.734 281.825 391.392 283.767C378.434 289.558 350.467 302 325.275 312.742C298.584 324.125 261.184 337.017 246.1 342.117C241.717 343.6 237.842 346.3 234.934 349.908L231.909 353.667C231.209 354.542 229.8 353.975 229.892 352.858L231.5 334.358L406.317 269.708L403.867 286.658H403.875Z" fill="black" stroke="black" stroke-width="0.833333" stroke-miterlimit="10"/>
</g>
<path d="M265.616 345.342C267.316 345.042 268.974 346.017 269.541 347.642L280.649 379.775C281.166 381.258 280.232 382.85 278.691 383.133C272.299 384.325 265.382 383.45 260.416 379.842C255.732 376.433 237.466 364.792 230.982 360.667C229.632 359.808 229.041 358.133 229.557 356.617L229.574 356.567L231.974 338.742L402.832 269.717L403.207 290.808L403.432 290.942C405.582 292.175 406.699 294.642 406.224 297.067C404.941 303.55 402.416 316.117 400.907 322.142C398.824 330.467 390.632 334.367 390.632 334.367L385.691 323.833C385.691 323.833 386.599 315.542 381.732 303.2C381.016 301.383 380.624 299.442 380.624 297.483" stroke="black" stroke-width="0.833333" stroke-miterlimit="10"/>
<path d="M271.991 354.742L280.308 378.725C283.191 387.742 282.516 406.967 280.175 413.517C278.55 418.067 276.2 418.9 273.933 419.342C273.9 419.342 279.833 418.35 279.833 418.35C279.833 418.35 285.516 414.625 290.875 412.383C297.591 409.575 301.425 391.633 298.516 381.45C293.116 362.533 284.258 356.008 284.258 356.008L391.891 313.258C391.891 313.258 391.908 313.208 391.891 313.208L379.375 311.908L272 354.733L271.991 354.742Z" fill="#566578" stroke="black" stroke-width="0.833333" stroke-miterlimit="10"/>
<path d="M396.533 187.783C401.35 186.217 402.358 176.067 398.8 165.108C395.242 154.15 388.45 146.533 383.633 148.1L380.733 149.042L393.625 188.725L396.525 187.783H396.533Z" fill="#FF945B" stroke="black" stroke-width="0.833333" stroke-miterlimit="10"/>
<path d="M275.608 81.0583L175.933 119.175L175.608 105.633L275.617 69.9833C275.658 69.9666 275.617 81.0583 275.617 81.0583H275.608Z" fill="black" stroke="black" stroke-width="0.833333" stroke-miterlimit="10"/>
<path d="M393.635 188.739C398.45 187.175 399.466 177.021 395.905 166.061C392.343 155.101 385.553 147.484 380.739 149.048C375.924 150.613 374.907 160.766 378.469 171.726C382.03 182.687 388.82 190.304 393.635 188.739Z" fill="#963000" stroke="black" stroke-width="0.833333" stroke-miterlimit="10"/>
<path d="M127.033 85.9166C132.441 83.4666 141.458 83.5583 150.758 94.45C158.583 103.608 175.633 122.467 175.633 122.467V104.75L173.508 70.9916L131.049 74.025L125.508 79.7L124.558 80.125" fill="#566578"/>
<path d="M134 140.383L132.983 135.383C132.433 132.683 132.858 129.883 134.183 127.475L144.125 109.35C146.517 105.317 150.283 102.525 154.25 100.025L158.533 97.6166C159.617 97.0083 160.975 97.175 161.867 98.0416C163.433 99.575 165.858 102.417 167.783 106.8C169.833 111.483 172.175 117.1 172.175 117.1" fill="#C7C7C7"/>
<mask id="mask2_69562_2556" style="mask-type:luminance" maskUnits="userSpaceOnUse" x="132" y="97" width="41" height="44">
<path d="M134 140.383L132.983 135.383C132.433 132.683 132.858 129.883 134.183 127.475L144.125 109.35C146.517 105.317 150.283 102.525 154.25 100.025L158.533 97.6166C159.617 97.0083 160.975 97.175 161.867 98.0416C163.433 99.575 165.858 102.417 167.783 106.8C169.833 111.483 172.175 117.1 172.175 117.1" fill="white"/>
</mask>
<g mask="url(#mask2_69562_2556)">
<path d="M170.591 113.325L169.358 110.483C168.291 108.025 165.316 107.075 163.016 108.45L157.708 111.642C154.249 113.717 151.283 116.517 148.999 119.842L142.424 129.425C141.208 131.2 140.766 133.4 141.191 135.508L173.883 120.542L170.583 113.333L170.591 113.325Z" fill="#566578"/>
</g>
<path d="M134 140.383L132.983 135.383C132.433 132.683 132.858 129.883 134.183 127.475L144.125 109.35C146.517 105.317 150.283 102.525 154.25 100.025L158.533 97.6166C159.617 97.0083 160.975 97.175 161.867 98.0416C163.433 99.575 165.858 102.417 167.783 106.8C169.833 111.483 172.175 117.1 172.175 117.1" stroke="black" stroke-width="0.833333" stroke-miterlimit="10"/>
<path d="M275.616 70.1C275.616 70.1 271.766 55.5083 259.282 48.4583L252.366 50.925L247.741 49.8L242.707 40.3583L228.507 40.05L131.399 73.7C130.849 73.8917 130.841 74.7583 131.399 74.7667L142.732 75.0167L144.516 84.3666L148.791 86.3917L159.632 82.6666C172.116 89.7083 175.641 104.758 175.641 104.758L275.624 70.1H275.616Z" fill="#C7C7C7"/>
<mask id="mask3_69562_2556" style="mask-type:luminance" maskUnits="userSpaceOnUse" x="130" y="40" width="146" height="65">
<path d="M275.616 70.1C275.616 70.1 271.766 55.5083 259.282 48.4583L252.366 50.925L247.741 49.8L242.707 40.3583L228.507 40.05L131.399 73.7C130.849 73.8917 130.841 74.7583 131.399 74.7667L142.732 75.0167L144.516 84.3666L148.791 86.3917L159.632 82.6666C172.116 89.7083 175.641 104.758 175.641 104.758L275.624 70.1H275.616Z" fill="white"/>
</mask>
<g mask="url(#mask3_69562_2556)">
<path d="M142.724 75.0167L242.707 40.3583L228.524 38.325L125.466 75.0167H142.724Z" fill="#F3F3F3"/>
<path d="M259.282 48.4583L159.624 82.6666L169.382 94.5833L274.791 59.0333L259.282 48.4583Z" fill="#F3F3F3"/>
</g>
<path d="M275.616 70.1C275.616 70.1 271.766 55.5083 259.282 48.4583L252.366 50.925L247.741 49.8L242.707 40.3583L228.507 40.05L131.399 73.7C130.849 73.8917 130.841 74.7583 131.399 74.7667L142.732 75.0166L144.516 84.3667L148.791 86.3917L159.632 82.6666C172.116 89.7083 175.641 104.758 175.641 104.758L275.624 70.1H275.616Z" stroke="black" stroke-width="0.833333" stroke-miterlimit="10"/>
<path d="M131.442 158.5C130.133 149.233 134.258 140.033 142.083 134.9C156.558 125.4 182.858 109.742 216.008 96.975C252.558 82.9 288.875 77.0417 307.142 75.6C318.4 74.7084 329.508 78.6834 337.6 86.5667C352.192 100.767 370.692 128.15 386.217 159.417C401.95 191.108 410.167 229.175 413.9 251.017C415.708 261.583 410.458 272.092 400.917 276.983C383.892 285.717 355.058 299.917 325.275 311.917C300.333 321.967 264.458 333.55 240.875 340.875C226.333 345.392 210.575 339.75 202.192 327.042C189.25 307.4 170.25 276.642 156.258 245.792C140.717 211.517 134.117 177.4 131.442 158.508V158.5Z" fill="#C7C7C7"/>
<mask id="mask4_69562_2556" style="mask-type:luminance" maskUnits="userSpaceOnUse" x="131" y="75" width="284" height="268">
<path d="M131.442 158.5C130.133 149.233 134.258 140.033 142.083 134.9C156.558 125.4 182.858 109.742 216.008 96.975C252.558 82.9 288.875 77.0417 307.142 75.6C318.4 74.7084 329.508 78.6834 337.6 86.5667C352.192 100.767 370.692 128.15 386.217 159.417C401.95 191.108 410.167 229.175 413.9 251.017C415.708 261.583 410.458 272.092 400.917 276.983C383.892 285.717 355.058 299.917 325.275 311.917C300.333 321.967 264.458 333.55 240.875 340.875C226.333 345.392 210.575 339.75 202.192 327.042C189.25 307.4 170.25 276.642 156.258 245.792C140.717 211.517 134.117 177.4 131.442 158.508V158.5Z" fill="white"/>
</mask>
<g mask="url(#mask4_69562_2556)">
<path d="M132.759 145.233C132.759 145.233 135.425 140.392 144.667 142.525C153.909 144.658 178.109 152.642 178.109 152.642L309.5 107.975C309.5 107.975 319.517 93.2667 323.65 84.3667C326.259 78.7417 323 77.5917 323 77.5917C323 77.5917 327.584 72.3667 311.1 72.4084C294.617 72.4501 220.317 92.2084 178.242 109.2C136.167 126.192 132.767 145.242 132.767 145.242L132.759 145.233Z" fill="#F3F3F3"/>
<path d="M382.149 158.4C412.357 215.95 389.716 284.033 331.582 310.458C273.449 336.883 201.832 311.65 171.624 254.1C141.416 196.55 164.057 128.467 222.191 102.042C280.324 75.6167 351.941 100.85 382.149 158.4Z" fill="black" stroke="black" stroke-width="0.833333" stroke-miterlimit="10"/>
</g>
<path d="M131.442 158.5C130.133 149.233 134.258 140.033 142.083 134.9C156.558 125.4 182.858 109.742 216.008 96.975C252.558 82.9 288.875 77.0417 307.142 75.6C318.4 74.7084 329.508 78.6834 337.6 86.5667C352.192 100.767 370.692 128.15 386.217 159.417C401.95 191.108 410.167 229.175 413.9 251.017C415.708 261.583 410.458 272.092 400.917 276.983C383.892 285.717 355.058 299.917 325.275 311.917C300.333 321.967 264.458 333.55 240.875 340.875C226.333 345.392 210.575 339.75 202.192 327.042C189.25 307.4 170.25 276.642 156.258 245.792C140.717 211.517 134.117 177.4 131.442 158.508V158.5Z" stroke="black" stroke-width="0.833333" stroke-miterlimit="10"/>
<path d="M382.149 152.567C412.357 210.117 389.716 278.2 331.582 304.625C273.449 331.05 201.832 305.817 171.624 248.267C141.416 190.717 164.057 122.633 222.191 96.2083C280.324 69.7833 351.941 95.0167 382.149 152.567Z" fill="#566578" stroke="black" stroke-width="0.833333" stroke-miterlimit="10"/>
<path d="M380.391 150.483C409.841 206.583 387.766 272.95 331.099 298.708C274.424 324.467 204.616 299.875 175.166 243.767C145.716 187.667 167.791 121.3 224.457 95.5417C281.132 69.7834 350.941 94.375 380.391 150.483Z" fill="#F3F3F3"/>
<mask id="mask5_69562_2556" style="mask-type:luminance" maskUnits="userSpaceOnUse" x="162" y="85" width="232" height="224">
<path d="M380.391 150.483C409.841 206.583 387.766 272.95 331.099 298.708C274.424 324.467 204.616 299.875 175.166 243.767C145.716 187.667 167.791 121.3 224.457 95.5417C281.132 69.7834 350.941 94.375 380.391 150.483Z" fill="white"/>
</mask>
<g mask="url(#mask5_69562_2556)">
<path d="M396.341 187.467L391.458 168.192C389.991 162.4 383.883 159.108 378.241 161.067L376.841 161.55C374.175 162.475 372.733 165.383 373.65 168.05C389.083 212.983 369.291 261.742 325.075 281.842C276.2 304.058 215.991 282.842 190.6 234.458C190.241 233.775 189.891 233.092 189.558 232.408C188.158 229.583 184.891 228.217 181.916 229.258L177.391 230.825C172.091 232.667 169.65 238.767 172.216 243.767C185.966 270.517 232.425 341.925 324.183 309.742C428.158 273.275 396.333 187.458 396.333 187.458L396.341 187.467Z" fill="#C7C7C7"/>
</g>
<path d="M380.391 150.483C409.841 206.583 387.766 272.95 331.099 298.708C274.424 324.467 204.616 299.875 175.166 243.767C145.716 187.667 167.791 121.3 224.457 95.5417C281.132 69.7834 350.941 94.375 380.391 150.483Z" stroke="black" stroke-width="0.833333" stroke-miterlimit="10"/>
<path d="M363.517 155.4C387.909 201.875 369.626 256.85 322.684 278.192C275.734 299.533 217.901 279.158 193.509 232.683C169.117 186.208 187.401 131.233 234.342 109.892C281.292 88.55 339.126 108.925 363.517 155.4Z" fill="#566578"/>
<path d="M353.133 160.492C375.433 202.975 358.716 253.233 315.808 272.742C272.891 292.25 220.025 273.625 197.725 231.142C175.425 188.658 192.141 138.4 235.05 118.892C277.966 99.3834 330.833 118.008 353.133 160.492Z" fill="#C7C7C7" stroke="black" stroke-width="0.833333" stroke-miterlimit="10"/>
<path d="M390.617 334.367C390.617 334.367 392.609 315.083 388.667 304.317C384.851 293.908 380.601 297.875 380.601 297.875" stroke="black" stroke-width="0.833333" stroke-miterlimit="10"/>
<path d="M170.825 298.583L173 297.217C175.192 295.842 180.817 300.858 185.559 308.417C190.3 315.975 192.367 323.225 190.175 324.6L188 325.967" fill="#FF5200"/>
<path d="M170.825 298.583L173 297.217C175.192 295.842 180.817 300.858 185.559 308.417C190.3 315.975 192.367 323.225 190.175 324.6L188 325.967" stroke="black" stroke-width="0.833333" stroke-miterlimit="10"/>
<path d="M187.999 325.973C190.194 324.596 188.129 317.351 183.387 309.792C178.645 302.232 173.021 297.22 170.826 298.597C168.631 299.974 170.696 307.218 175.438 314.778C180.18 322.338 185.804 327.35 187.999 325.973Z" fill="#963000" stroke="black" stroke-width="0.833333" stroke-miterlimit="10"/>
<path d="M169.8 302.642L171.583 301.525C173.383 300.392 178 304.508 181.891 310.717C185.783 316.925 187.483 322.875 185.683 324L183.9 325.117" fill="#FF5200"/>
<path d="M169.8 302.642L171.583 301.525C173.383 300.392 178 304.508 181.891 310.717C185.783 316.925 187.483 322.875 185.683 324L183.9 325.117" stroke="black" stroke-width="0.833333" stroke-miterlimit="10"/>
<path d="M183.893 325.133C185.695 324.003 183.998 318.056 180.105 311.849C176.211 305.642 171.595 301.526 169.794 302.656C167.992 303.786 169.689 309.734 173.582 315.941C177.476 322.147 182.092 326.263 183.893 325.133Z" fill="#963000" stroke="black" stroke-width="0.833333" stroke-miterlimit="10"/>
<path d="M131.933 192.95L133.616 192.583C135.324 192.217 138.116 198.467 139.849 206.533C141.591 214.608 141.616 221.45 139.916 221.817L138.233 222.183" fill="#FF5200"/>
<path d="M131.933 192.95L133.616 192.583C135.324 192.217 138.116 198.467 139.849 206.533C141.591 214.608 141.616 221.45 139.916 221.817L138.233 222.183" stroke="black" stroke-width="0.833333" stroke-miterlimit="10"/>
<path d="M137.989 222.29C139.694 221.923 139.664 215.078 137.923 207.002C136.181 198.927 133.387 192.678 131.682 193.046C129.977 193.414 130.007 200.258 131.748 208.334C133.49 216.41 136.284 222.658 137.989 222.29Z" fill="#FF945B" stroke="black" stroke-width="0.833333" stroke-miterlimit="10"/>
<path d="M129.391 196.142L130.774 195.842C132.174 195.542 134.466 200.667 135.891 207.3C137.316 213.925 137.341 219.542 135.949 219.85L134.566 220.15" fill="#FF5200"/>
<path d="M129.391 196.142L130.774 195.842C132.174 195.542 134.466 200.667 135.891 207.3C137.316 213.925 137.341 219.542 135.949 219.85L134.566 220.15" stroke="black" stroke-width="0.833333" stroke-miterlimit="10"/>
<path d="M134.397 220.136C135.797 219.834 135.772 214.218 134.343 207.591C132.914 200.964 130.621 195.836 129.222 196.138C127.823 196.44 127.847 202.056 129.276 208.683C130.705 215.31 132.998 220.438 134.397 220.136Z" fill="#FF945B" stroke="black" stroke-width="0.833333" stroke-miterlimit="10"/>
<path d="M391.999 313.217L284.266 356.008L288.166 367.708L286.257 372.567L287.816 377.25L296.141 384.883C296.141 384.883 296.657 401.883 291.632 410.375L284.266 406.217C284.266 406.217 284.174 416.45 279.841 418.358L390.182 374.908L392.066 370.667" fill="black"/>
<path d="M391.999 313.217L284.266 356.008L288.166 367.708L286.257 372.567L287.816 377.25L296.141 384.883C296.141 384.883 296.657 401.883 291.632 410.375L284.266 406.217C284.266 406.217 284.174 416.45 279.841 418.358L390.182 374.908L392.066 370.667" stroke="black" stroke-width="0.833333" stroke-miterlimit="10"/>
<path d="M291.632 410.375C296.666 401.875 296.141 384.883 296.141 384.883L287.816 377.25L286.257 372.567L288.166 367.708L284.266 356.008L391.891 313.267C391.949 313.242 392.024 313.267 392.041 313.333L395.899 324.917L393.991 329.775L395.549 334.458L403.874 342.092C403.874 342.092 404.491 359.092 399.466 367.583L291.632 410.375Z" fill="#C7C7C7"/>
<mask id="mask6_69562_2556" style="mask-type:luminance" maskUnits="userSpaceOnUse" x="284" y="313" width="120" height="98">
<path d="M291.632 410.375C296.666 401.875 296.141 384.883 296.141 384.883L287.816 377.25L286.257 372.567L288.166 367.708L284.266 356.008L391.891 313.267C391.949 313.242 392.024 313.267 392.041 313.333L395.899 324.917L393.991 329.775L395.549 334.458L403.874 342.092C403.874 342.092 404.491 359.092 399.466 367.583L291.632 410.375Z" fill="white"/>
</mask>
<g mask="url(#mask6_69562_2556)">
<path d="M288.157 367.708L395.549 325.15L393.991 329.775L286.249 372.567L288.157 367.708Z" fill="black"/>
<path d="M286.249 378.092L397.932 333.383L395.532 329.775L283.582 373.7L286.249 378.092Z" fill="#566578" stroke="black" stroke-width="0.833333" stroke-miterlimit="10"/>
<path d="M403.874 342.092C403.874 342.092 405.207 352.892 397.207 356.017C389.207 359.142 318.44 388.3 301.524 394.217C299.224 395.017 297.907 394.683 297.157 394.025C297.157 394.025 296.782 397.783 295.84 402.092C294.507 408.208 292.065 412.325 292.065 412.325L404.899 367.7C404.899 367.7 409.682 348.467 403.874 342.083V342.092Z" fill="#566578"/>
</g>
<path d="M291.632 410.375C296.666 401.875 296.141 384.883 296.141 384.883L287.816 377.25L286.257 372.567L288.166 367.708L284.266 356.008L391.891 313.267C391.949 313.242 392.024 313.267 392.041 313.333L395.899 324.917L393.991 329.775L395.549 334.458L403.874 342.092C403.874 342.092 404.491 359.092 399.466 367.583L291.632 410.375Z" stroke="black" stroke-width="0.833333" stroke-miterlimit="10"/>
<path d="M284.258 356.008L271.991 354.742" stroke="black" stroke-width="0.833333" stroke-miterlimit="10"/>
<path d="M395.9 324.917L288.158 367.708" stroke="black" stroke-width="0.833333" stroke-miterlimit="10"/>
<path d="M393.992 329.775L286.25 372.567" stroke="black" stroke-width="0.833333" stroke-miterlimit="10"/>
<path d="M296.141 384.875L403.874 342.092" stroke="black" stroke-width="0.833333" stroke-miterlimit="10"/>
<path d="M148.783 86.3916L259.283 48.4583" stroke="black" stroke-width="0.833333" stroke-miterlimit="10"/>
<path d="M144.507 84.3667L247.74 49.8" stroke="black" stroke-width="0.833333" stroke-miterlimit="10"/>
<path d="M142.725 75.0167L242.708 40.3583" stroke="black" stroke-width="0.833333" stroke-miterlimit="10"/>
<path d="M345.375 163.708C335.258 144.425 318.2 130.567 298.808 123.725C296.85 123.033 294.716 123.017 292.75 123.683L210.091 151.483C207.991 152.192 206.2 153.617 205.083 155.525C192.75 176.658 191.5 203.658 204.216 227.883C213.75 246.05 229.441 259.408 247.441 266.617C249.483 267.433 251.741 267.483 253.825 266.783L340.933 237.483C343.175 236.733 345.066 235.158 346.158 233.067C356.925 212.417 357.5 186.8 345.383 163.708H345.375Z" fill="#FF5200" stroke="black" stroke-width="0.833333" stroke-miterlimit="10"/>
<path d="M255.991 171.067C262.099 182.708 257.524 196.475 245.766 201.817C234.007 207.158 219.524 202.058 213.416 190.417C207.307 178.775 211.882 165.008 223.641 159.667C235.399 154.325 249.882 159.425 255.991 171.067Z" fill="#963000" stroke="black" stroke-width="0.833333" stroke-miterlimit="10"/>
<path d="M251.833 172.95C256.725 182.275 253.058 193.3 243.641 197.583C234.225 201.867 222.625 197.775 217.733 188.45C212.841 179.125 216.508 168.1 225.925 163.817C235.341 159.533 246.941 163.625 251.833 172.95Z" fill="#C7C7C7" stroke="black" stroke-width="0.833333" stroke-miterlimit="10"/>
<path d="M239.566 178.525C240.941 181.142 239.907 184.242 237.266 185.442C234.624 186.642 231.366 185.5 229.991 182.875C228.616 180.25 229.649 177.158 232.291 175.958C234.932 174.758 238.191 175.9 239.566 178.525Z" fill="black" stroke="black" stroke-width="0.833333" stroke-miterlimit="10"/>
<path d="M213.149 220.633C212.307 220.917 211.907 221.883 212.315 222.675C212.315 222.675 212.315 222.683 212.315 222.692C220.682 238.633 234.449 250.358 250.249 256.683C252.04 257.4 254.024 257.442 255.849 256.833L332.29 231.125C334.265 230.458 335.924 229.075 336.882 227.233C344.34 212.908 346.224 195.867 341.432 179.35C341.207 178.558 340.357 178.125 339.574 178.392L213.132 220.642L213.149 220.633Z" fill="#C7C7C7" stroke="black" stroke-width="0.833333" stroke-miterlimit="10"/>
<path d="M267.017 166.133C270.967 173.658 272.117 181.733 270.842 189.25C270.55 190.975 272.167 192.4 273.825 191.825L335.017 170.7C336.2 170.292 336.717 168.908 336.1 167.817C327.158 152.1 312.833 140.767 296.633 135.05C294.925 134.45 293.067 134.433 291.35 135.008L253.358 147.783C251.95 148.258 251.725 150.15 252.983 150.942C258.758 154.608 263.675 159.75 267.017 166.125V166.133Z" fill="#C7C7C7" stroke="black" stroke-width="0.833333" stroke-miterlimit="10"/>
<path d="M244.917 223.075L246.859 231.45L246.217 232.467L247.2 232.992L249.742 243.9L245.825 241.658L244.059 234.008L244.692 232.958L243.692 232.475L242.492 227.275L241.525 227.592L239.417 226.717L240.459 224.525L244.925 223.075H244.917Z" fill="black"/>
<path d="M264.25 227.675L265.708 233.967C266.475 237.325 266.333 237.792 263.158 238.825L259.45 240.025C258.066 240.475 257.058 240.767 256.816 240.817C255.766 240.992 254.833 240.325 254.5 239.292C254.283 238.617 254.158 237.942 254.033 237.458L252.591 231.233L253.225 230.083L252.191 229.508L251.316 225.725C250.458 221.975 249.8 221.467 253.916 220.133L258.566 218.625C260.508 217.992 261.766 217.975 262.358 219.8C262.433 220.033 262.641 220.875 262.8 221.575L263.825 225.925L263.166 227.108L264.225 227.675H264.25ZM259.541 221.792L254.133 223.55L255.266 228.55L254.75 229.567L255.625 230.058L257.383 237.258L262.825 235.492L261.116 228.633L261.641 227.65L260.775 227.183L259.541 221.8V221.792Z" fill="black"/>
<path d="M272.934 232.208L273.701 235.375L270.551 236.4L269.784 233.233L272.934 232.208ZM271.309 225.417L272.076 228.583L268.926 229.608L268.159 226.442L271.309 225.417Z" fill="black"/>
<path d="M272.241 214.192L281.533 211.175L283.441 212.15L282.166 214.317L276.083 216.292L277.083 220.675L283.258 218.667L286.158 220.292L287.55 226.375C288.458 230.367 288.408 230.617 284.35 231.933L278.616 233.8L276.533 232.792L277.516 230.617L284.691 228.283L283.258 222.083L277.291 224.025L274.108 222.233L272.241 214.192Z" fill="black"/>
<path d="M301.433 214.525L302.408 215.117L303.933 221.708C304.7 225.067 303.892 225.592 300.717 226.617L296.508 227.983C294.975 228.483 293.292 229 292.583 226.817C292.525 226.642 292.258 225.717 292.075 224.833L290.7 218.908L291.425 217.633L290.275 217L289.467 213.525C288.783 210.525 288.308 208.958 291.192 208.025L296.483 206.308C298.042 205.8 299.842 205.35 300.6 207.667C300.725 208.05 300.967 208.883 301.15 209.758L301.983 213.425L301.425 214.517L301.433 214.525ZM299.442 216.892L294.033 218.65L295.467 224.85L300.875 223.092L299.442 216.892ZM297.708 209.358L292.3 211.117L293.317 215.433L298.7 213.683L297.717 209.358H297.708Z" fill="black"/>
<path d="M309.491 208.867L315.875 206.792L317.183 207.458L316.3 208.95L312.116 210.308L312.808 213.325L317.05 211.942L319.041 213.058L320 217.233C320.625 219.983 320.591 220.15 317.8 221.058L313.858 222.342L312.425 221.642L313.1 220.15L318.033 218.55L317.05 214.292L312.95 215.625L310.758 214.392L309.475 208.867H309.491Z" fill="black"/>
<path d="M330.199 209.625L331.199 213.95C331.724 216.258 331.624 216.583 329.441 217.292L326.891 218.117C325.941 218.425 325.249 218.625 325.082 218.658C324.366 218.783 323.724 218.317 323.491 217.608C323.341 217.142 323.257 216.675 323.166 216.35L322.182 212.067L322.616 211.275L321.907 210.883L321.307 208.283C320.716 205.708 320.266 205.358 323.099 204.442L326.291 203.4C327.624 202.967 328.491 202.95 328.899 204.208C328.949 204.375 329.099 204.95 329.207 205.425L329.907 208.417L329.457 209.233L330.191 209.625H330.199ZM326.966 205.575L323.249 206.783L324.032 210.217L323.674 210.917L324.274 211.258L325.482 216.208L329.224 214.992L328.049 210.275L328.407 209.6L327.807 209.283L326.957 205.583L326.966 205.575Z" fill="black"/>
<path d="M300.183 161.392L298.833 161.883L299.4 163.358L295.116 173.842L282.516 167.383L281.691 164.45L284.6 163.575L292.9 167.833L295.525 161.383L296.941 160.925L296.341 159.433L300.208 149.925L305.675 147.892L300.166 161.392H300.183Z" fill="#FF5200"/>
<path d="M334.817 148.208C337.484 157.05 336.326 166.608 331.626 174.558L295.109 236.242C289.284 246.083 281.292 254.467 271.742 260.758L312.992 246.883C310.967 245.167 310.467 242.233 311.809 239.942L344.426 184.233C346.151 181.283 350.242 180.825 352.576 183.325C352.576 183.325 349.342 164.408 334.809 148.208H334.817Z" fill="#F3F3F3"/>
<path d="M226.625 163.825L243.642 197.583" stroke="black" stroke-width="0.833333" stroke-miterlimit="10"/>
<path d="M218.249 189.217L251.541 172.433" stroke="black" stroke-width="0.833333" stroke-miterlimit="10"/>
<path d="M216.374 174.517L253.082 186.625" stroke="black" stroke-width="0.833333" stroke-miterlimit="10"/>
<path d="M229.383 198.133L240.874 163.275" stroke="black" stroke-width="0.833333" stroke-miterlimit="10"/>
</g>
<defs>
</defs>
</svg>
