<svg width="500" height="500" viewBox="0 0 500 500" fill="none" xmlns="http://www.w3.org/2000/svg">
<g>
<path d="M365.725 423.95C355.566 421.217 342.383 422.892 330.85 427.658C324.291 430.367 317.075 431.067 310.175 429.392L224.558 408.675L224.325 408.783L118.525 383.183C112.458 381.717 106.066 382.3 100.366 384.85L61.3997 402.25C57.233 404.108 57.6913 410.158 62.0913 411.375L238.416 460.008C245.383 461.933 252.825 461.108 259.2 457.708L270.741 451.567C274.258 449.7 278.35 449.242 282.191 450.3L299.183 454.992C302.608 455.933 305.708 457.958 307.683 460.917C309.875 464.2 313.775 466.808 319.316 468.3C335.175 472.567 358.425 466.092 371.241 453.85C384.058 441.6 381.591 428.217 365.725 423.958V423.95Z" fill="black"/>
<path d="M222.509 287.383L223.151 305.575C223.434 313.492 217.951 320.458 210.192 322.05L160.801 328.45C160.801 328.45 160.826 332.45 160.801 332.783C160.776 333.142 160.984 333.525 161.426 333.625L243.959 352.708C249.792 354.058 255.901 353.425 261.334 350.908L282.801 340.975C292.234 336.608 297.401 326.3 295.251 316.133L290.001 291.308L222.517 287.383H222.509Z" fill="black" stroke="black" stroke-width="0.833333" stroke-miterlimit="10"/>
<path d="M222.509 282.958L223.15 301.15C223.434 309.067 217.95 316.033 210.192 317.625L161.45 327.625C160.6 327.8 160.592 329 161.434 329.2L243.967 348.283C249.8 349.633 255.909 349 261.342 346.483L280.234 337.742C288.634 333.858 293.259 324.717 291.425 315.65L285.559 286.633L222.517 282.967L222.509 282.958Z" fill="#566578"/>
<mask id="mask0_69562_2674" style="mask-type:luminance" maskUnits="userSpaceOnUse" x="160" y="282" width="132" height="67">
<path d="M222.509 282.958L223.15 301.15C223.434 309.067 217.95 316.033 210.192 317.625L161.45 327.625C160.6 327.8 160.592 329 161.434 329.2L243.967 348.283C249.8 349.633 255.909 349 261.342 346.483L280.234 337.742C288.634 333.858 293.259 324.717 291.425 315.65L285.559 286.633L222.517 282.967L222.509 282.958Z" fill="white"/>
</mask>
<g mask="url(#mask0_69562_2674)">
<path d="M227.084 300L285.167 311.633C288.342 312.267 291.45 310.292 292.225 307.15L295.734 292.908L215.15 283.717L221.225 295.575C222.4 297.867 224.55 299.492 227.075 300H227.084Z" fill="black"/>
<path d="M210.191 317.633C210.191 317.633 214.5 316.125 219.158 316.833C223.816 317.542 284.466 330.042 286.3 330.375C288.133 330.708 286.416 333.283 286.416 333.283C286.416 333.283 293.675 325.208 291.825 319.708C291.825 319.708 291.283 322.075 286.975 323.375C279.516 325.625 241.241 323.875 224.95 314.5C221.758 312.658 221.933 307.967 221.933 307.967L210.208 317.633H210.191Z" fill="#C7C7C7"/>
</g>
<path d="M222.509 282.958L223.15 301.15C223.434 309.067 217.95 316.033 210.192 317.625L161.45 327.625C160.6 327.8 160.592 329 161.434 329.2L243.967 348.283C249.8 349.633 255.909 349 261.342 346.483L280.234 337.742C288.634 333.858 293.259 324.717 291.425 315.65L285.559 286.633L222.517 282.967L222.509 282.958Z" stroke="black" stroke-width="0.833333" stroke-miterlimit="10"/>
<path d="M122.792 65.8251L88.292 259.65C87.6836 263.067 383.809 315.983 383.809 315.983C387.042 316.533 390.359 316.325 393.5 315.383H393.525C398.317 313.942 401.892 309.925 402.767 305L441.942 84.8751C443.109 78.3251 442.7 71.6001 440.75 65.2417L439.9 62.4667L131.467 58.7751C127.225 58.6501 123.542 61.6584 122.792 65.8334V65.8251Z" fill="#566578" stroke="black" stroke-width="0.833333" stroke-miterlimit="10"/>
<path d="M110.017 57.0667L74.492 256.642C73.867 260.158 76.2253 263.517 79.7503 264.108L387.159 316.058C391.925 316.867 396.459 313.675 397.3 308.917L440.45 66.425C441.142 62.5583 438.225 58.9833 434.3 58.8667L118.934 49.8C114.567 49.675 110.767 52.7667 110.009 57.0667H110.017Z" fill="black" stroke="black" stroke-width="0.833333" stroke-miterlimit="10"/>
<path d="M114.176 59.1334L79.3175 255C78.9092 257.308 80.4508 259.5 82.7592 259.892L386.676 311.467C389.918 312.017 393.001 309.85 393.576 306.608L436.017 68.1084C436.467 65.575 434.559 63.2334 431.993 63.1584L120.251 54.2C117.284 54.1167 114.701 56.2167 114.176 59.1417V59.1334Z" fill="#C7C7C7"/>
<mask id="mask1_69562_2674" style="mask-type:luminance" maskUnits="userSpaceOnUse" x="79" y="54" width="358" height="258">
<path d="M114.176 59.1334L79.3175 255C78.9092 257.308 80.4508 259.5 82.7592 259.892L386.676 311.467C389.918 312.017 393.001 309.85 393.576 306.608L436.017 68.1084C436.467 65.575 434.559 63.2334 431.993 63.1584L120.251 54.2C117.284 54.1167 114.701 56.2167 114.176 59.1417V59.1334Z" fill="white"/>
</mask>
<g mask="url(#mask1_69562_2674)">
<path d="M115.942 60.9L81.0841 256.767C80.6758 259.075 82.2174 261.267 84.5258 261.658L388.442 313.233C391.684 313.783 394.767 311.617 395.342 308.375L437.784 69.875C438.234 67.3417 436.326 65 433.759 64.925L122.017 55.9667C119.051 55.8834 116.467 57.9833 115.942 60.9083V60.9Z" fill="#F3F3F3"/>
</g>
<path d="M380.666 292.908L94.6992 249.583L126.949 66.9667L420.033 76.35L380.666 292.908Z" fill="white"/>
<path d="M418.25 86.1417L125.5 75.2167L126.95 66.9667L420.033 76.35L418.25 86.1417Z" fill="black"/>
<path d="M414.533 106.6L122.449 92.4583L125.499 75.2167L418.249 86.1417L414.533 106.6Z" fill="#566578"/>
<path d="M139.266 256.333L94.6992 249.583L122.449 92.4583L167.949 94.6583L139.266 256.333Z" fill="#C7C7C7"/>
<path d="M139.267 256.333L171.1 76.9167" stroke="#C7C7C7" stroke-width="0.833333" stroke-miterlimit="10"/>
<path d="M166.075 260.392L195.325 95.9833" stroke="#C7C7C7" stroke-width="0.833333" stroke-miterlimit="10"/>
<path d="M193.808 264.592L223.641 97.3583" stroke="#C7C7C7" stroke-width="0.833333" stroke-miterlimit="10"/>
<path d="M222.508 268.942L252.958 98.775" stroke="#C7C7C7" stroke-width="0.833333" stroke-miterlimit="10"/>
<path d="M252.241 273.45L283.325 100.25" stroke="#C7C7C7" stroke-width="0.833333" stroke-miterlimit="10"/>
<path d="M283.049 278.117L314.799 101.767" stroke="#C7C7C7" stroke-width="0.833333" stroke-miterlimit="10"/>
<path d="M315.008 282.958L347.441 103.35" stroke="#C7C7C7" stroke-width="0.833333" stroke-miterlimit="10"/>
<path d="M348.167 287.983L381.317 104.992" stroke="#C7C7C7" stroke-width="0.833333" stroke-miterlimit="10"/>
<path d="M126.607 105.942L158.799 107.767" stroke="black" stroke-width="0.833333" stroke-miterlimit="10"/>
<path d="M130.675 119.642L156.391 121.325" stroke="black" stroke-width="0.833333" stroke-miterlimit="10"/>
<path d="M128.316 132.975L153.991 134.875" stroke="black" stroke-width="0.833333" stroke-miterlimit="10"/>
<path d="M125.958 146.3L151.591 148.417" stroke="black" stroke-width="0.833333" stroke-miterlimit="10"/>
<path d="M117.225 159.033L149.191 161.95" stroke="black" stroke-width="0.833333" stroke-miterlimit="10"/>
<path d="M121.25 172.933L146.792 175.483" stroke="black" stroke-width="0.833333" stroke-miterlimit="10"/>
<path d="M118.892 186.233L144.392 189.008" stroke="black" stroke-width="0.833333" stroke-miterlimit="10"/>
<path d="M116.541 199.533L141.999 202.525" stroke="black" stroke-width="0.833333" stroke-miterlimit="10"/>
<path d="M114.19 212.833L139.599 216.033" stroke="black" stroke-width="0.833333" stroke-miterlimit="10"/>
<path d="M105.517 225.267L137.208 229.533" stroke="black" stroke-width="0.833333" stroke-miterlimit="10"/>
<path d="M109.492 239.4L134.817 243.033" stroke="black" stroke-width="0.833333" stroke-miterlimit="10"/>
<path d="M258.216 115.475L170.941 110.408C170.324 110.375 169.916 109.767 170.041 109.067L170.474 106.617C170.599 105.908 171.208 105.367 171.824 105.4L259.158 110.2C259.849 110.242 260.299 110.875 260.166 111.617L259.708 114.2C259.574 114.95 258.908 115.517 258.216 115.475Z" fill="#FF5200"/>
<path d="M201.466 126.858L168.416 124.642C167.8 124.6 167.4 123.992 167.525 123.292L167.958 120.85C168.083 120.142 168.683 119.6 169.308 119.642L202.383 121.75C203.033 121.792 203.45 122.408 203.316 123.133L202.875 125.633C202.75 126.358 202.116 126.908 201.475 126.858H201.466Z" fill="#963000"/>
<path d="M201.316 140.967L238.108 143.75C238.783 143.8 239.441 143.242 239.575 142.508L240.033 139.95C240.166 139.208 239.725 138.575 239.05 138.525L202.233 135.858C201.583 135.808 200.958 136.358 200.833 137.083L200.391 139.583C200.266 140.308 200.683 140.925 201.325 140.975L201.316 140.967Z" fill="#963000"/>
<path d="M250.375 159.258L238 158.217C237.325 158.158 236.884 157.517 237.017 156.775L237.475 154.217C237.609 153.475 238.259 152.925 238.942 152.975L251.325 153.975C252.009 154.033 252.459 154.683 252.325 155.425L251.867 158C251.734 158.742 251.067 159.3 250.384 159.242L250.375 159.258Z" fill="#963000"/>
<path d="M340.467 182.233L196.633 168.875C195.833 168.8 195.317 168.017 195.483 167.125L195.817 165.25C195.975 164.358 196.75 163.692 197.55 163.767L341.475 176.675C342.417 176.758 343.042 177.617 342.867 178.592L342.5 180.633C342.325 181.608 341.417 182.325 340.475 182.233H340.467Z" fill="#FF5200"/>
<path d="M241.217 182.242L194.917 177.692C194.2 177.625 193.5 178.217 193.358 179.025L192.967 181.217C192.825 182.025 193.292 182.733 194.008 182.808L240.275 187.508C241.033 187.583 241.775 186.975 241.917 186.15L242.317 183.9C242.467 183.075 241.967 182.342 241.208 182.267L241.217 182.242Z" fill="#963000"/>
<path d="M241.283 196.85L281.675 201.175C282.4 201.25 282.883 201.942 282.741 202.717L282.275 205.3C282.133 206.075 281.433 206.642 280.708 206.558L240.341 202.108C239.65 202.033 239.2 201.358 239.333 200.6L239.783 198.083C239.916 197.325 240.591 196.775 241.283 196.85Z" fill="#963000"/>
<path d="M238.717 211.183L279.042 215.85C279.767 215.933 280.242 216.633 280.108 217.408L279.642 219.983C279.5 220.758 278.8 221.317 278.075 221.233L237.775 216.442C237.083 216.358 236.633 215.683 236.767 214.925L237.217 212.408C237.35 211.65 238.025 211.108 238.717 211.183Z" fill="#963000"/>
<path d="M330.683 237.275L279.158 230.867C278.358 230.767 277.592 231.375 277.442 232.225L277.025 234.533C276.875 235.383 277.392 236.15 278.192 236.258L329.683 242.825C330.533 242.933 331.342 242.308 331.5 241.433L331.933 239.058C332.092 238.183 331.533 237.383 330.683 237.283V237.275Z" fill="#963000"/>
<path d="M329.483 258.283L385.575 265.933L386.617 260.208L330.492 252.733C329.942 252.658 329.408 253.067 329.3 253.633L328.675 257.108C328.575 257.683 328.933 258.208 329.492 258.283H329.483Z" fill="#FF5200"/>
<path d="M363.624 272.967L327.608 267.858C326.916 267.758 326.249 268.258 326.116 268.983L325.583 271.925C325.449 272.642 325.908 273.308 326.599 273.408L362.591 278.633C363.316 278.742 364.008 278.225 364.141 277.492L364.683 274.483C364.816 273.75 364.341 273.075 363.616 272.967H363.624Z" fill="#963000"/>
<path opacity="0.3" d="M160.933 88.9L129.508 87.4833C128.874 87.4583 128.466 86.8333 128.599 86.0833L129.458 81.2167C129.591 80.475 130.208 79.8917 130.849 79.9167L162.308 81.1833C162.966 81.2083 163.399 81.85 163.266 82.6083L162.383 87.575C162.249 88.3333 161.599 88.925 160.941 88.8917L160.933 88.9Z" stroke="#C7C7C7" stroke-width="0.416667" stroke-miterlimit="10"/>
<path d="M175.742 89.5667L189.667 90.1917" stroke="#C7C7C7" stroke-width="0.833333" stroke-miterlimit="10"/>
<path d="M203.367 90.8084L217.776 91.4584" stroke="#C7C7C7" stroke-width="0.833333" stroke-miterlimit="10"/>
<path d="M231.95 92.0917L246.867 92.7667" stroke="#C7C7C7" stroke-width="0.833333" stroke-miterlimit="10"/>
<path d="M261.549 93.425L276.999 94.125" stroke="#C7C7C7" stroke-width="0.833333" stroke-miterlimit="10"/>
<path d="M292.208 94.8083L308.225 95.525" stroke="#C7C7C7" stroke-width="0.833333" stroke-miterlimit="10"/>
<path d="M324 96.2417L340.6 96.9834" stroke="#C7C7C7" stroke-width="0.833333" stroke-miterlimit="10"/>
<path d="M356.966 97.725L374.199 98.5" stroke="#C7C7C7" stroke-width="0.833333" stroke-miterlimit="10"/>
<path d="M391.191 99.2667L409.091 100.075" stroke="#C7C7C7" stroke-width="0.833333" stroke-miterlimit="10"/>
<path d="M255.208 86.6167L317.416 89.1834" stroke="#C7C7C7" stroke-width="0.833333" stroke-miterlimit="10"/>
<path opacity="0.4" d="M201.858 56.5333C206.483 58.5167 207.467 64.6417 203.692 67.975L110.8 149.933C106.8 153.467 100.475 151.058 99.8334 145.758L99.3751 141.975L85.8584 215.183C92.3001 202.283 101.2 190.767 112.067 181.292L214.983 91.4667C232.358 76.3083 253 65.3667 275.308 59.5167L278.292 58.7333L201.858 56.5333Z" fill="white"/>
<path d="M302.626 382.167C302.692 380.467 301.651 378.75 299.709 378.283L101.126 330.517C98.9756 330 96.7173 330.25 94.7339 331.225L45.5839 355.408C44.1839 356.092 43.6673 357.533 43.9423 358.808C43.9423 359.675 43.9423 361.933 43.9423 362.467C43.9506 363.133 44.3506 363.792 45.1256 364.008L244.659 419.983C247.226 420.608 249.984 420.267 252.242 419.042L300.851 392.7C302.159 391.992 302.642 391.017 302.634 389.683C302.626 388.333 302.634 382.167 302.634 382.167H302.626Z" fill="#566578"/>
<mask id="mask2_69562_2674" style="mask-type:luminance" maskUnits="userSpaceOnUse" x="43" y="330" width="260" height="91">
<path d="M302.626 382.167C302.692 380.467 301.651 378.75 299.709 378.283L101.126 330.517C98.9756 330 96.7173 330.25 94.7339 331.225L45.5839 355.408C44.1839 356.092 43.6673 357.533 43.9423 358.808C43.9423 359.675 43.9423 361.933 43.9423 362.467C43.9506 363.133 44.3506 363.792 45.1256 364.008L244.659 419.983C247.226 420.608 249.984 420.267 252.242 419.042L300.851 392.7C302.159 391.992 302.642 391.017 302.634 389.683C302.626 388.333 302.634 382.167 302.634 382.167H302.626Z" fill="white"/>
</mask>
<g mask="url(#mask2_69562_2674)">
<path d="M244.651 416.833L46.1089 361.125C43.3922 360.367 43.0506 356.65 45.5839 355.408L94.7339 331.225C96.7172 330.25 98.9756 330 101.126 330.517L299.709 378.283C303.001 379.075 303.717 383.442 300.851 385.242L252.242 415.733C249.984 417.15 247.226 417.55 244.659 416.825L244.651 416.833Z" fill="#C7C7C7"/>
</g>
<path d="M302.626 382.167C302.692 380.467 301.651 378.75 299.709 378.283L101.126 330.517C98.9756 330 96.7173 330.25 94.7339 331.225L45.5839 355.408C44.1839 356.092 43.6673 357.533 43.9423 358.808C43.9423 359.675 43.9423 361.933 43.9423 362.467C43.9506 363.133 44.3506 363.792 45.1256 364.008L244.659 419.983C247.226 420.608 249.984 420.267 252.242 419.042L300.851 392.7C302.159 391.992 302.642 391.017 302.634 389.683C302.626 388.333 302.634 382.167 302.634 382.167H302.626Z" stroke="black" stroke-width="0.833333" stroke-miterlimit="10"/>
<path d="M244.101 414.575L47.6509 359.917C47.2175 359.8 46.9759 359.442 46.9425 359.067C46.9092 358.692 46.9425 357.175 46.9425 357.175L95.9925 334.142C97.4759 333.408 99.1675 333.225 100.776 333.608L299.051 380.75C299.051 380.75 299.093 382.108 299.051 382.558C299.026 382.842 298.876 383.117 298.593 383.292L249.726 413.767C248.051 414.808 246.009 415.108 244.109 414.575H244.101Z" fill="black" stroke="black" stroke-width="0.416667" stroke-miterlimit="10"/>
<path d="M244.1 412.708L47.6503 358.05C46.792 357.808 46.6753 356.633 47.4837 356.233L95.992 332.275C97.4753 331.542 99.167 331.358 100.775 331.742L298.309 379.642C299.15 379.842 299.325 380.958 298.592 381.417L249.725 411.892C248.05 412.933 246.009 413.233 244.109 412.7L244.1 412.708Z" fill="#F3F3F3" stroke="black" stroke-width="0.416667" stroke-miterlimit="10"/>
<path d="M87.9834 336.225L290.25 386.625" stroke="black" stroke-width="0.416667" stroke-linejoin="round"/>
<path d="M77.5332 341.392L279.75 393.175" stroke="black" stroke-width="0.416667" stroke-linejoin="round"/>
<path d="M66.916 346.633L269.058 399.833" stroke="black" stroke-width="0.416667" stroke-linejoin="round"/>
<path d="M56.1416 351.958L258.175 406.625" stroke="black" stroke-width="0.416667" stroke-linejoin="round"/>
<path d="M110.183 334.033L99.875 339.192" stroke="black" stroke-width="0.416667" stroke-linejoin="round"/>
<path d="M122.467 337.008L112.142 342.25" stroke="black" stroke-width="0.416667" stroke-linejoin="round"/>
<path d="M135.016 340.05L124.675 345.367" stroke="black" stroke-width="0.416667" stroke-linejoin="round"/>
<path d="M147.832 343.158L137.482 348.558" stroke="black" stroke-width="0.416667" stroke-linejoin="round"/>
<path d="M160.934 346.333L150.575 351.825" stroke="black" stroke-width="0.416667" stroke-linejoin="round"/>
<path d="M174.317 349.583L163.95 355.158" stroke="black" stroke-width="0.416667" stroke-linejoin="round"/>
<path d="M188.009 352.9L177.634 358.567" stroke="black" stroke-width="0.416667" stroke-linejoin="round"/>
<path d="M201.999 356.3L191.633 362.05" stroke="black" stroke-width="0.416667" stroke-linejoin="round"/>
<path d="M216.317 359.767L205.95 365.625" stroke="black" stroke-width="0.416667" stroke-linejoin="round"/>
<path d="M230.967 363.325L220.601 369.275" stroke="black" stroke-width="0.416667" stroke-linejoin="round"/>
<path d="M245.958 366.958L235.6 373.008" stroke="black" stroke-width="0.416667" stroke-linejoin="round"/>
<path d="M261.308 370.675L250.958 376.833" stroke="black" stroke-width="0.416667" stroke-linejoin="round"/>
<path d="M277.016 374.492L266.683 380.758" stroke="black" stroke-width="0.416667" stroke-linejoin="round"/>
<path d="M105.867 340.683L95.3916 345.967" stroke="black" stroke-width="0.416667" stroke-linejoin="round"/>
<path d="M118.267 343.775L107.775 349.133" stroke="black" stroke-width="0.416667" stroke-linejoin="round"/>
<path d="M130.933 346.933L120.425 352.375" stroke="black" stroke-width="0.416667" stroke-linejoin="round"/>
<path d="M143.875 350.158L133.358 355.683" stroke="black" stroke-width="0.416667" stroke-linejoin="round"/>
<path d="M157.108 353.45L146.574 359.067" stroke="black" stroke-width="0.416667" stroke-linejoin="round"/>
<path d="M170.634 356.825L160.101 362.533" stroke="black" stroke-width="0.416667" stroke-linejoin="round"/>
<path d="M184.475 360.267L173.925 366.075" stroke="black" stroke-width="0.416667" stroke-linejoin="round"/>
<path d="M198.624 363.8L188.074 369.7" stroke="black" stroke-width="0.416667" stroke-linejoin="round"/>
<path d="M213.1 367.408L202.559 373.408" stroke="black" stroke-width="0.416667" stroke-linejoin="round"/>
<path d="M227.925 371.1L217.384 377.2" stroke="black" stroke-width="0.416667" stroke-linejoin="round"/>
<path d="M243.1 374.875L232.559 381.092" stroke="black" stroke-width="0.416667" stroke-linejoin="round"/>
<path d="M258.632 378.75L248.107 385.067" stroke="black" stroke-width="0.416667" stroke-linejoin="round"/>
<path d="M274.55 382.717L264.042 389.15" stroke="black" stroke-width="0.416667" stroke-linejoin="round"/>
<path d="M99.4996 347.017L88.8496 352.408" stroke="black" stroke-width="0.416667" stroke-linejoin="round"/>
<path d="M111.975 350.208L101.309 355.683" stroke="black" stroke-width="0.416667" stroke-linejoin="round"/>
<path d="M124.717 353.475L114.033 359.033" stroke="black" stroke-width="0.416667" stroke-linejoin="round"/>
<path d="M137.741 356.808L127.05 362.458" stroke="black" stroke-width="0.416667" stroke-linejoin="round"/>
<path d="M151.067 360.217L140.358 365.958" stroke="black" stroke-width="0.416667" stroke-linejoin="round"/>
<path d="M164.691 363.708L153.975 369.542" stroke="black" stroke-width="0.416667" stroke-linejoin="round"/>
<path d="M178.624 367.275L167.899 373.208" stroke="black" stroke-width="0.416667" stroke-linejoin="round"/>
<path d="M192.883 370.925L182.158 376.967" stroke="black" stroke-width="0.416667" stroke-linejoin="round"/>
<path d="M207.475 374.667L196.75 380.808" stroke="black" stroke-width="0.416667" stroke-linejoin="round"/>
<path d="M222.417 378.492L211.692 384.733" stroke="black" stroke-width="0.416667" stroke-linejoin="round"/>
<path d="M237.718 382.408L227.001 388.767" stroke="black" stroke-width="0.416667" stroke-linejoin="round"/>
<path d="M253.391 386.425L242.683 392.892" stroke="black" stroke-width="0.416667" stroke-linejoin="round"/>
<path d="M94.7249 353.95L83.8916 359.467" stroke="black" stroke-width="0.416667" stroke-linejoin="round"/>
<path d="M107.308 357.267L96.458 362.867" stroke="black" stroke-width="0.416667" stroke-linejoin="round"/>
<path d="M120.167 360.65L109.309 366.342" stroke="black" stroke-width="0.416667" stroke-linejoin="round"/>
<path d="M133.325 364.108L122.441 369.9" stroke="black" stroke-width="0.416667" stroke-linejoin="round"/>
<path d="M146.774 367.65L135.883 373.533" stroke="black" stroke-width="0.416667" stroke-linejoin="round"/>
<path d="M160.533 371.275L149.633 377.258" stroke="black" stroke-width="0.416667" stroke-linejoin="round"/>
<path d="M174.617 374.975L163.709 381.067" stroke="black" stroke-width="0.416667" stroke-linejoin="round"/>
<path d="M189.034 378.775L178.117 384.967" stroke="black" stroke-width="0.416667" stroke-linejoin="round"/>
<path d="M203.792 382.658L192.875 388.958" stroke="black" stroke-width="0.416667" stroke-linejoin="round"/>
<path d="M218.9 386.633L207.991 393.042" stroke="black" stroke-width="0.416667" stroke-linejoin="round"/>
<path d="M234.383 390.708L223.475 397.233" stroke="black" stroke-width="0.416667" stroke-linejoin="round"/>
<path d="M67.9667 355.158L57 360.65" stroke="black" stroke-width="0.416667" stroke-linejoin="round"/>
<path d="M80.1836 358.467L69.1836 364.042" stroke="black" stroke-width="0.416667" stroke-linejoin="round"/>
<path d="M92.6671 361.842L81.6504 367.508" stroke="black" stroke-width="0.416667" stroke-linejoin="round"/>
<path d="M105.425 365.292L94.3916 371.05" stroke="black" stroke-width="0.416667" stroke-linejoin="round"/>
<path d="M174.642 384.025L163.542 390.292" stroke="black" stroke-width="0.416667" stroke-linejoin="round"/>
<path d="M200.316 390.967L189.208 397.433" stroke="black" stroke-width="0.416667" stroke-linejoin="round"/>
<path d="M215.8 395.158L204.691 401.742" stroke="black" stroke-width="0.416667" stroke-linejoin="round"/>
<path d="M364.45 416.475C365.134 416.008 365.784 415.5 366.434 414.992C371.05 411.308 390.867 395.525 395.284 392.083C400.292 388.175 403.092 383.542 393.117 378.925C383.142 374.308 359.967 368.575 342.509 375.3C328.25 380.792 309.725 398.008 311.842 409.75C313.134 416.933 319.292 421.758 328.167 423.4C337.042 425.042 351.067 425.617 364.459 416.483L364.45 416.475Z" fill="#566578"/>
<mask id="mask3_69562_2674" style="mask-type:luminance" maskUnits="userSpaceOnUse" x="311" y="372" width="89" height="53">
<path d="M364.45 416.475C365.134 416.008 365.784 415.5 366.434 414.992C371.05 411.308 390.867 395.525 395.284 392.083C400.292 388.175 403.092 383.542 393.117 378.925C383.142 374.308 359.967 368.575 342.509 375.3C328.25 380.792 309.725 398.008 311.842 409.75C313.134 416.933 319.292 421.758 328.167 423.4C337.042 425.042 351.067 425.617 364.459 416.483L364.45 416.475Z" fill="white"/>
</mask>
<g mask="url(#mask3_69562_2674)">
<path d="M315.3 396.217C315.3 396.217 305.95 408.325 317.708 416.342C329.466 424.358 349.716 421.05 359.283 412.442C368.85 403.833 373.925 394.867 382.283 389.525C390.641 384.183 395.7 383.375 399.783 386.142C403.866 388.908 408.925 378.308 397.366 374.892C385.816 371.475 351.625 369.542 351.625 369.542C351.625 369.542 330.183 375.933 322.091 384.942C314 393.95 315.3 396.217 315.3 396.217Z" fill="#F0F0F0"/>
<mask id="mask4_69562_2674" style="mask-type:luminance" maskUnits="userSpaceOnUse" x="311" y="369" width="94" height="52">
<path d="M315.3 396.217C315.3 396.217 305.95 408.325 317.708 416.342C329.466 424.358 349.716 421.05 359.283 412.442C368.85 403.833 373.925 394.867 382.283 389.525C390.641 384.183 395.7 383.375 399.783 386.142C403.866 388.908 408.925 378.308 397.366 374.892C385.816 371.475 351.625 369.542 351.625 369.542C351.625 369.542 330.183 375.933 322.091 384.942C314 393.95 315.3 396.217 315.3 396.217Z" fill="white"/>
</mask>
<g mask="url(#mask4_69562_2674)">
<path d="M387.684 386.492C387.684 386.492 378.184 387.775 369.867 387.242C361.55 386.708 345.484 384.733 339.701 383.758C333.917 382.775 335.734 378.592 335.734 378.592C335.734 378.592 328.209 378.125 321.417 382.592C314.617 387.058 315.309 396.225 315.309 396.225C315.309 396.225 318.659 394.442 324.484 394.675C330.309 394.908 361.617 396.208 366.459 396.2C371.3 396.192 371.325 399.667 371.325 399.667L387.684 386.5V386.492Z" fill="white"/>
</g>
<path d="M315.3 396.217C315.3 396.217 305.95 408.325 317.708 416.342C329.466 424.358 349.716 421.05 359.283 412.442C368.85 403.833 373.925 394.867 382.283 389.525C390.641 384.183 395.7 383.375 399.783 386.142C403.866 388.908 408.925 378.308 397.366 374.892C385.816 371.475 351.625 369.542 351.625 369.542C351.625 369.542 330.183 375.933 322.091 384.942C314 393.95 315.3 396.217 315.3 396.217Z" stroke="black" stroke-width="0.833333" stroke-miterlimit="10"/>
</g>
<path d="M364.45 416.475C365.134 416.008 365.784 415.5 366.434 414.992C371.05 411.308 390.867 395.525 395.284 392.083C400.292 388.175 403.092 383.542 393.117 378.925C383.142 374.308 359.967 368.575 342.509 375.3C328.25 380.792 309.725 398.008 311.842 409.75C313.134 416.933 319.292 421.758 328.167 423.4C337.042 425.042 351.067 425.617 364.459 416.483L364.45 416.475Z" stroke="black" stroke-width="0.833333" stroke-miterlimit="10"/>
</g>
<defs>
</defs>
</svg>
