<svg width="504" height="504" viewBox="0 0 504 504" fill="none" xmlns="http://www.w3.org/2000/svg">
<g>
<path d="M395.858 426.859L315.613 396.476C303.021 391.713 276.737 389.546 252.831 391.31L158.743 398.24C128.99 400.432 115.063 407.858 129.259 413.965L204.783 446.439C207.874 447.766 211.696 448.968 216.098 450.018C222.196 451.479 227.723 454.747 231.965 459.375L241.844 470.161L244.523 454.251C262.197 455.73 282.399 455.746 301.013 453.982L363.87 448.002C401.309 444.44 416.236 434.578 395.858 426.859Z" fill="black"/>
<path d="M172.805 407.648L129.234 332.182C128.595 331.074 128.419 329.763 128.755 328.528L129.511 325.706L130.275 322.842C130.603 321.607 131.409 320.557 132.518 319.918L207.984 276.348C209.093 275.709 210.403 275.533 211.638 275.869L213.897 276.474L217.325 277.389C218.559 277.717 219.609 278.523 220.248 279.632L263.819 355.098C264.457 356.206 264.633 357.517 264.297 358.752L263.709 360.936L262.769 364.43C262.441 365.665 261.635 366.715 260.526 367.353L185.06 410.924C183.951 411.562 182.641 411.739 181.406 411.403L178.071 410.512L175.719 409.882C174.485 409.555 173.435 408.748 172.796 407.64L172.805 407.648Z" fill="#8D6E5B" stroke="black" stroke-width="0.84" stroke-miterlimit="10"/>
<path d="M174.619 400.953L131.048 325.488C130.41 324.379 130.233 323.068 130.569 321.834L131.325 319.011L132.09 316.147C132.417 314.912 133.224 313.862 134.333 313.224L209.798 269.653C210.907 269.014 212.217 268.838 213.452 269.174L215.712 269.779L219.139 270.694C220.374 271.022 221.424 271.828 222.062 272.937L265.633 348.403C266.271 349.512 266.448 350.822 266.112 352.057L265.524 354.241L264.583 357.735C264.255 358.97 263.449 360.02 262.34 360.658L186.875 404.229C185.766 404.868 184.455 405.044 183.221 404.708L179.886 403.818L177.534 403.188C176.299 402.86 175.249 402.054 174.611 400.945L174.619 400.953Z" fill="#CEC4A1"/>
<mask id="mask0_69562_3071" style="mask-type:luminance" maskUnits="userSpaceOnUse" x="130" y="269" width="137" height="136">
<path d="M174.619 400.953L131.048 325.488C130.41 324.379 130.233 323.068 130.569 321.834L131.325 319.011L132.09 316.147C132.417 314.912 133.224 313.862 134.333 313.224L209.798 269.653C210.907 269.014 212.217 268.838 213.452 269.174L215.712 269.779L219.139 270.694C220.374 271.022 221.424 271.828 222.062 272.937L265.633 348.403C266.271 349.512 266.448 350.822 266.112 352.057L265.524 354.241L264.583 357.735C264.255 358.97 263.449 360.02 262.34 360.658L186.875 404.229C185.766 404.868 184.455 405.044 183.221 404.708L179.886 403.818L177.534 403.188C176.299 402.86 175.249 402.054 174.611 400.945L174.619 400.953Z" fill="white"/>
</mask>
<g mask="url(#mask0_69562_3071)">
<path d="M209.798 269.653C209.798 269.653 208.513 276.045 198.341 281.64C188.168 287.234 152.67 302.64 152.67 302.64L209.807 269.653H209.798Z" fill="#F3F3F3"/>
</g>
<path d="M174.619 400.953L131.048 325.488C130.41 324.379 130.233 323.068 130.569 321.834L131.325 319.011L132.09 316.147C132.417 314.912 133.224 313.862 134.333 313.224L209.798 269.653C210.907 269.014 212.217 268.838 213.452 269.174L215.712 269.779L219.139 270.694C220.374 271.022 221.424 271.828 222.062 272.937L265.633 348.403C266.271 349.512 266.448 350.822 266.112 352.057L265.524 354.241L264.583 357.735C264.255 358.97 263.449 360.02 262.34 360.658L186.875 404.229C185.766 404.868 184.455 405.044 183.221 404.708L179.886 403.818L177.534 403.188C176.299 402.86 175.249 402.054 174.611 400.945L174.619 400.953Z" stroke="black" stroke-width="0.84" stroke-miterlimit="10"/>
<path d="M147.899 322.573L137.643 321.397L181.045 397.526L184.456 388.261L147.899 322.573Z" fill="#F3F3F3"/>
<path d="M249.319 347.853L214.392 287.357C213.35 285.553 211.043 284.935 209.24 285.977L148.744 320.904C146.94 321.945 146.322 324.252 147.363 326.056L182.291 386.552C183.332 388.356 185.639 388.974 187.443 387.932L247.938 353.005C249.742 351.963 250.36 349.657 249.319 347.853Z" fill="black"/>
<mask id="mask1_69562_3071" style="mask-type:luminance" maskUnits="userSpaceOnUse" x="146" y="285" width="104" height="104">
<path d="M249.318 347.853L214.391 287.357C213.349 285.553 211.042 284.935 209.239 285.977L148.743 320.904C146.939 321.945 146.321 324.252 147.362 326.056L182.29 386.552C183.331 388.356 185.638 388.974 187.442 387.932L247.937 353.005C249.741 351.963 250.359 349.657 249.318 347.853Z" fill="white"/>
</mask>
<g mask="url(#mask1_69562_3071)">
<path d="M248.476 349.528L213.549 289.032C212.507 287.228 210.201 286.61 208.397 287.652L147.901 322.579C146.097 323.62 145.479 325.927 146.521 327.731L181.448 388.227C182.489 390.031 184.796 390.649 186.6 389.607L247.096 354.68C248.9 353.638 249.518 351.332 248.476 349.528Z" fill="#566578" stroke="black" stroke-width="0.84" stroke-miterlimit="10"/>
</g>
<path d="M249.319 347.853L214.392 287.357C213.35 285.553 211.043 284.935 209.24 285.977L148.744 320.904C146.94 321.945 146.322 324.252 147.363 326.056L182.291 386.552C183.332 388.356 185.639 388.974 187.443 387.932L247.938 353.005C249.742 351.963 250.36 349.657 249.319 347.853Z" stroke="black" stroke-width="0.42" stroke-miterlimit="10"/>
<path d="M231.953 345.344L208.912 305.436C208.226 304.246 206.705 303.839 205.516 304.525L165.607 327.567C164.418 328.253 164.01 329.774 164.697 330.963L187.738 370.872C188.425 372.061 189.945 372.468 191.135 371.782L231.043 348.741C232.232 348.054 232.64 346.533 231.953 345.344Z" fill="black" stroke="black" stroke-width="0.84" stroke-miterlimit="10"/>
<path d="M231.965 344.138L208.924 304.229C208.237 303.04 206.717 302.632 205.527 303.319L165.619 326.36C164.43 327.047 164.022 328.567 164.709 329.757L187.75 369.665C188.437 370.854 189.957 371.262 191.146 370.575L231.055 347.534C232.244 346.847 232.652 345.327 231.965 344.138Z" fill="#F3F3F3" stroke="black" stroke-width="0.84" stroke-miterlimit="10"/>
<path d="M199.274 317.592L181.096 328.083C177.77 330.007 176.736 333.837 178.66 337.164L188.303 353.871C190.227 357.198 194.057 358.231 197.384 356.307L215.561 345.816C218.888 343.892 219.921 340.062 217.997 336.735L215.36 332.166L208.598 336.072V342.85L198.316 348.781L188.06 342.884L188.076 331.057L198.35 325.126L204.23 328.503L210.992 324.597L208.354 320.028C206.43 316.701 202.6 315.668 199.274 317.592Z" fill="black"/>
<path d="M192.94 333.862L192.932 340.07L198.308 343.161L203.7 340.045L203.709 333.846L198.333 330.746L192.94 333.862Z" fill="#FF5200"/>
<path opacity="0.5" d="M262.106 366.681L266.197 351.914C266.499 350.814 266.348 349.629 265.777 348.638L236.57 298.07L213.739 318.658C204.482 327.008 206.313 341.044 217.384 346.118L230.514 352.132C232.168 352.939 233.084 354.644 232.815 356.442L230.312 373.292C230.178 374.224 230.598 375.148 231.396 375.644L233.806 377.148V382.876L262.114 366.681H262.106Z" fill="black" stroke="black" stroke-width="0.84" stroke-miterlimit="10"/>
<path d="M217.215 220.219C214.897 219.639 209.269 230.408 209.269 240.127C209.269 249.846 212.881 269.065 212.881 269.065C212.881 269.065 220.81 263.386 221.919 243.495C223.028 223.604 217.223 220.227 217.223 220.227L217.215 220.219Z" fill="#963000" stroke="black" stroke-width="0.84" stroke-linejoin="round"/>
<path d="M421.008 407.9L416.405 392.553C416.262 391.94 415.993 391.352 415.624 390.848L362.72 318.524C361.712 317.146 361.544 315.441 362.284 314.223L373.296 296.138C373.414 295.953 373.506 295.752 373.573 295.542C373.607 295.441 374.48 291.955 374.48 291.955L355.194 268.3C354.161 266.923 352.456 266.1 350.902 266.217L335.874 267.402C334.53 267.511 333.06 267.007 331.968 266.007C323.753 258.481 311.581 255.81 302.291 260.253C298.721 261.967 293.194 268.494 293.194 268.494C293.194 268.494 292.597 270.804 292.169 272.559C291.152 276.709 291.514 281.346 293.387 285.907C293.958 287.293 293.731 288.763 292.866 289.855L282.853 300.682C282.853 300.682 282.131 303.589 281.996 304.093C281.686 305.252 281.921 306.562 282.685 307.688L301.501 335.148C302.652 336.819 304.66 337.726 306.575 337.424L332.472 333.325C334.093 333.064 335.832 333.862 336.865 335.324L346.248 348.588C347.054 349.73 348.205 350.57 349.474 350.956L360.671 354.367C361.318 354.56 361.763 355.266 361.654 355.921L360.612 362.271C360.494 362.977 360.998 363.724 361.696 363.876L369.214 365.53C369.877 365.673 370.373 366.379 370.306 367.076L369.726 372.738C369.692 373.082 369.793 373.443 370.003 373.737L379.336 386.858C379.47 387.043 379.63 387.194 379.823 387.295L388.996 392.394C389.458 392.646 389.768 393.183 389.777 393.721L389.92 399.878C389.936 400.642 390.516 401.323 391.196 401.373L395.833 401.709C396.421 401.751 396.959 402.289 397.085 402.969L397.622 405.918C397.883 407.354 398.815 408.622 400.025 409.185L413.414 415.401C416.195 416.695 419.353 414.444 420.126 411.42C420.336 410.588 421.008 407.892 421.008 407.892V407.9ZM328.02 273.475L327.835 273.76C323.207 281.119 314.614 285.68 304.357 285.999L303.895 286.016C302.778 286.05 301.686 285.344 301.241 284.328C298.175 277.347 300.434 269.938 306.936 266.73C313.337 263.571 321.838 265.47 327.449 270.846C328.255 271.618 328.499 272.702 328.012 273.483L328.02 273.475Z" fill="black" stroke="black" stroke-width="0.84" stroke-miterlimit="10"/>
<path d="M324.861 237.38C322.375 225.855 316.218 215.834 307.532 209.173C298.805 202.478 288.565 199.958 278.712 202.092C276.553 202.554 274.478 203.234 272.487 204.116C271.479 204.561 267.523 206.56 266.557 207.115C260.845 210.391 256.049 215.414 252.621 221.84C247.464 231.5 245.994 243.159 248.48 254.692C253.05 275.86 269.883 290.72 287.801 290.72C290.069 290.72 292.345 290.485 294.621 289.989C296.621 289.561 298.544 288.939 300.375 288.166C301.543 287.671 307.037 284.857 308.549 283.849C321.913 274.953 328.969 256.465 324.853 237.397L324.861 237.38ZM321.543 251.694C321.535 251.912 321.518 252.13 321.51 252.34C321.485 252.76 321.459 253.18 321.426 253.592C321.401 253.852 321.375 254.104 321.35 254.365C321.317 254.734 321.275 255.112 321.224 255.482C321.191 255.751 321.157 256.011 321.123 256.28C321.073 256.641 321.014 257.002 320.955 257.364C320.913 257.624 320.871 257.884 320.821 258.145C320.754 258.531 320.67 258.918 320.594 259.304C320.552 259.522 320.51 259.749 320.46 259.968C320.334 260.539 320.191 261.102 320.048 261.656C319.981 261.916 319.905 262.177 319.83 262.437C319.737 262.756 319.645 263.076 319.553 263.395C319.46 263.68 319.368 263.966 319.275 264.252C319.183 264.537 319.091 264.814 318.99 265.092C318.889 265.386 318.78 265.671 318.671 265.957C318.57 266.217 318.469 266.478 318.36 266.738C318.242 267.032 318.125 267.326 317.999 267.612C317.898 267.855 317.789 268.09 317.679 268.326C317.175 269.443 316.629 270.526 316.033 271.585C315.932 271.761 315.831 271.946 315.731 272.122C315.554 272.433 315.369 272.727 315.176 273.03C315.067 273.206 314.958 273.391 314.84 273.567C314.647 273.87 314.454 274.164 314.252 274.458C314.143 274.626 314.025 274.785 313.908 274.945C313.698 275.247 313.479 275.541 313.261 275.835C313.16 275.97 313.059 276.096 312.959 276.222C312.127 277.297 311.245 278.313 310.313 279.279C310.262 279.338 310.203 279.388 310.153 279.447C309.876 279.733 309.59 280.01 309.296 280.279C309.187 280.38 309.086 280.48 308.977 280.581C308.691 280.842 308.406 281.094 308.12 281.346C308.003 281.446 307.885 281.547 307.767 281.648C307.473 281.9 307.171 282.144 306.869 282.379C306.768 282.454 306.667 282.53 306.566 282.614C305.441 283.479 304.256 284.269 303.03 284.966C301.131 285.814 299.132 286.486 297.041 286.94C277.653 291.123 257.846 275.869 252.89 252.928C250.488 241.79 251.899 230.534 256.872 221.227C260.181 215.044 264.801 210.223 270.295 207.098C270.765 206.888 271.253 206.686 271.731 206.502C271.757 206.493 271.782 206.485 271.799 206.476C272.252 206.3 272.714 206.132 273.185 205.981C273.319 205.939 273.462 205.897 273.605 205.855C273.966 205.737 274.335 205.628 274.705 205.527C275.234 205.384 275.772 205.25 276.309 205.132C278.477 204.662 280.661 204.435 282.845 204.435C290.111 204.435 297.351 206.997 303.752 211.911C312.119 218.337 318.057 228.006 320.46 239.144C320.603 239.808 320.729 240.471 320.846 241.135C320.88 241.345 320.913 241.563 320.947 241.773C321.023 242.227 321.09 242.672 321.149 243.126C321.182 243.378 321.207 243.621 321.241 243.873C321.291 244.293 321.333 244.713 321.375 245.133C321.401 245.385 321.417 245.637 321.443 245.881C321.476 246.309 321.501 246.746 321.527 247.174C321.535 247.401 321.552 247.628 321.56 247.855C321.577 248.392 321.585 248.93 321.594 249.468C321.594 249.577 321.594 249.694 321.594 249.804C321.594 250.442 321.577 251.072 321.552 251.702L321.543 251.694Z" fill="#566578" stroke="black" stroke-width="0.84" stroke-miterlimit="10"/>
<path d="M324.602 172.398L267.003 72.3284C257.964 56.6288 239.098 49.4972 221.937 55.3016L154.401 78.1328C133.048 85.3484 123.052 109.818 133.241 129.927L187.446 236.876C200.256 262.152 230.555 273.038 256.52 261.706L301.636 242.017C328.508 230.29 339.218 197.808 324.593 172.389L324.602 172.398ZM292.043 224.385L253.025 241.412C234.428 249.526 212.73 241.731 203.549 223.646L153.04 124.156C146.883 112.027 152.897 97.2596 165.774 92.8832L223.331 73.3196C233.344 69.9176 244.373 74.0168 249.724 83.1392L306.5 179.941C315.975 196.094 309.204 216.901 292.043 224.394V224.385Z" fill="#566578" stroke="black" stroke-width="0.84" stroke-miterlimit="10"/>
<path d="M327.121 158.958L269.522 58.8884C260.484 43.1888 241.618 36.0572 224.456 41.8616L156.92 64.6928C135.568 71.9084 125.572 96.3776 135.761 116.487L189.966 223.436C202.776 248.712 233.075 259.598 259.039 248.266L304.156 228.577C331.027 216.85 341.737 184.368 327.113 158.949L327.121 158.958ZM294.563 210.945L255.545 227.972C236.947 236.086 215.25 228.291 206.069 210.206L155.56 110.716C149.402 98.5868 155.417 83.8196 168.294 79.4432L225.851 59.8796C235.864 56.4776 246.893 60.5768 252.244 69.6992L309.019 166.501C318.494 182.654 311.724 203.461 294.563 210.954V210.945Z" fill="#F3F3F3"/>
<mask id="mask2_69562_3071" style="mask-type:luminance" maskUnits="userSpaceOnUse" x="131" y="39" width="203" height="214">
<path d="M327.121 158.958L269.522 58.8884C260.484 43.1888 241.618 36.0572 224.456 41.8616L156.92 64.6928C135.568 71.9084 125.572 96.3776 135.761 116.487L189.966 223.436C202.776 248.712 233.075 259.598 259.039 248.266L304.156 228.577C331.027 216.85 341.737 184.368 327.113 158.949L327.121 158.958ZM294.563 210.945L255.545 227.972C236.947 236.086 215.25 228.291 206.069 210.206L155.56 110.716C149.402 98.5868 155.417 83.8196 168.294 79.4432L225.851 59.8796C235.864 56.4776 246.893 60.5768 252.244 69.6992L309.019 166.501C318.494 182.654 311.724 203.461 294.563 210.954V210.945Z" fill="white"/>
</mask>
<g mask="url(#mask2_69562_3071)">
<path d="M320.427 188.694C320.427 188.694 326.903 191.499 331.179 200.672C331.179 200.672 339.243 206.838 316.63 224.864C294.017 242.89 238.518 260.757 238.518 260.757C238.518 260.757 213.654 265.999 190.605 231.819C167.564 197.64 130.679 116.63 127.361 106.55C124.043 96.47 132.074 92.0432 132.074 92.0432C132.074 92.0432 139.852 84.1388 148.798 84.2648C157.744 84.3908 320.427 188.694 320.427 188.694Z" fill="#C7C7C7"/>
<path d="M299.837 213.213L258.727 231.147C237.711 240.32 213.191 231.508 202.817 211.054L149.309 105.534C142.513 92.1356 149.124 75.8312 163.329 70.9424L228.521 48.5144C238.878 44.9528 250.319 49.1864 255.863 58.6364L316.486 161.998C327.406 180.613 319.611 204.578 299.829 213.205L299.837 213.213Z" fill="#C7C7C7"/>
<mask id="mask3_69562_3071" style="mask-type:luminance" maskUnits="userSpaceOnUse" x="146" y="47" width="176" height="188">
<path d="M299.837 213.213L258.727 231.147C237.711 240.32 213.191 231.508 202.817 211.054L149.309 105.534C142.513 92.1356 149.124 75.8312 163.329 70.9424L228.521 48.5144C238.878 44.9528 250.319 49.1864 255.863 58.6364L316.486 161.998C327.406 180.613 319.611 204.578 299.829 213.205L299.837 213.213Z" fill="white"/>
</mask>
<g mask="url(#mask3_69562_3071)">
<path d="M145.865 83.1896C145.865 83.1896 152.291 84.4832 155.466 90.6824L312.294 190.222C312.294 190.222 314.579 188.534 320.434 188.702C320.434 188.702 324.861 206.527 289.438 223.293C254.015 240.06 230.21 244.621 230.21 244.621L211.326 232.777L143.967 102.174L145.865 83.198V83.1896Z" fill="#F3F3F3"/>
</g>
<path d="M299.837 213.213L258.727 231.147C237.711 240.32 213.191 231.508 202.817 211.054L149.309 105.534C142.513 92.1356 149.124 75.8312 163.329 70.9424L228.521 48.5144C238.878 44.9528 250.319 49.1864 255.863 58.6364L316.486 161.998C327.406 180.613 319.611 204.578 299.829 213.205L299.837 213.213Z" stroke="black" stroke-width="0.42" stroke-miterlimit="10"/>
</g>
<path d="M327.121 158.958L269.522 58.8884C260.484 43.1888 241.618 36.0572 224.456 41.8616L156.92 64.6928C135.568 71.9084 125.572 96.3776 135.761 116.487L189.966 223.436C202.776 248.712 233.075 259.598 259.039 248.266L304.156 228.577C331.027 216.85 341.737 184.368 327.113 158.949L327.121 158.958ZM294.563 210.945L255.545 227.972C236.947 236.086 215.25 228.291 206.069 210.206L155.56 110.716C149.402 98.5868 155.417 83.8196 168.294 79.4432L225.851 59.8796C235.864 56.4776 246.893 60.5768 252.244 69.6992L309.019 166.501C318.494 182.654 311.724 203.461 294.563 210.954V210.945Z" stroke="black" stroke-width="0.84" stroke-miterlimit="10"/>
<path d="M132.073 94.9412L129.839 106.55" stroke="black" stroke-width="0.84" stroke-miterlimit="10"/>
<path d="M332.598 193.767L330.489 205.057" stroke="black" stroke-width="0.84" stroke-miterlimit="10"/>
<path d="M164.523 128.726L162.297 127.525C160.525 126.576 158.442 126.399 156.543 127.054L145.06 131.011C143.985 131.38 143.196 132.296 142.986 133.413L140.776 145.207" stroke="black" stroke-width="0.42" stroke-miterlimit="10"/>
<path d="M203.179 204.494L200.634 203.125C199.072 202.285 197.224 202.167 195.577 202.806L184.221 207.199C182.935 207.694 181.995 208.828 181.751 210.189L179.685 221.554" stroke="black" stroke-width="0.42" stroke-miterlimit="10"/>
<path d="M148.219 162.628C148.219 162.628 147.48 157.647 147.429 156.942C147.152 153.002 150.907 148.046 156.846 144.98C162.541 142.04 168.497 141.746 171.663 143.938C172.394 144.442 176.426 148.382 176.426 148.382" fill="#FF945B"/>
<path d="M148.219 162.628C148.219 162.628 147.48 157.647 147.429 156.942C147.152 153.002 150.907 148.046 156.846 144.98C162.541 142.04 168.497 141.746 171.663 143.938C172.394 144.442 176.426 148.382 176.426 148.382" stroke="black" stroke-width="0.84" stroke-miterlimit="10"/>
<path d="M165.068 196.287L148.814 164.384C146.26 159.436 150.569 152.137 158.44 148.08C166.302 144.022 174.753 144.736 177.306 149.684L193.56 181.587C193.56 181.587 185.37 177.74 175.803 182.646C166.235 187.551 165.076 196.287 165.076 196.287H165.068Z" fill="#FF5200" stroke="black" stroke-width="0.84" stroke-linejoin="round"/>
<path d="M168.454 199.429C166.958 198.723 165.782 197.673 165.068 196.287C162.515 191.34 166.824 184.057 174.695 180C182.557 175.942 191.008 176.64 193.553 181.587C194.326 183.091 194.468 184.813 194.065 186.594L193.637 185.72C191.52 181.621 184.111 181.234 177.08 184.855C170.05 188.475 166.068 194.742 168.185 198.841L168.437 199.412L168.454 199.429Z" fill="#963000" stroke="black" stroke-width="0.84" stroke-miterlimit="10"/>
<path d="M151.073 168.769C148.52 163.821 152.829 156.522 160.7 152.464C168.562 148.407 177.013 149.121 179.566 154.069" stroke="black" stroke-width="0.42" stroke-linejoin="round"/>
<path d="M153.334 173.204C150.78 168.256 155.09 160.957 162.96 156.9C170.823 152.842 179.273 153.556 181.827 158.504" stroke="black" stroke-width="0.42" stroke-linejoin="round"/>
<path d="M155.602 177.648C153.048 172.7 157.357 165.4 165.228 161.343C173.09 157.286 181.541 158 184.094 162.948" stroke="black" stroke-width="0.42" stroke-linejoin="round"/>
<path d="M157.861 182.083C155.308 177.135 159.617 169.836 167.488 165.778C175.35 161.721 183.801 162.435 186.354 167.383" stroke="black" stroke-width="0.42" stroke-linejoin="round"/>
<path d="M160.12 186.526C157.567 181.579 161.876 174.279 169.747 170.222C177.609 166.165 186.059 166.879 188.613 171.826" stroke="black" stroke-width="0.42" stroke-linejoin="round"/>
<path d="M162.38 190.962C159.826 186.014 164.136 178.714 172.006 174.657C179.869 170.6 188.319 171.314 190.873 176.262" stroke="black" stroke-width="0.42" stroke-linejoin="round"/>
<path d="M158.667 148.08L174.854 179.848" stroke="black" stroke-width="0.42" stroke-linejoin="round"/>
<path d="M152.914 152.288L169.101 184.065" stroke="black" stroke-width="0.42" stroke-linejoin="round"/>
<path d="M165.899 146.08L182.086 177.858" stroke="black" stroke-width="0.42" stroke-linejoin="round"/>
<path d="M171.226 145.87L187.412 177.648" stroke="black" stroke-width="0.42" stroke-linejoin="round"/>
<path d="M149.713 156.144L165.9 187.921" stroke="black" stroke-width="0.42" stroke-linejoin="round"/>
<path d="M148.335 159.302L164.522 191.071" stroke="black" stroke-width="0.42" stroke-linejoin="round"/>
<path d="M174.241 146.744L190.428 178.521" stroke="black" stroke-width="0.42" stroke-linejoin="round"/>
<path d="M320.956 257.355C320.914 257.616 320.872 257.876 320.821 258.136C320.872 257.876 320.905 257.616 320.956 257.355Z" fill="black"/>
<path d="M318.982 265.075C318.881 265.369 318.772 265.654 318.663 265.94C318.772 265.654 318.881 265.36 318.982 265.075Z" fill="black"/>
<path d="M317.68 268.317C317.176 269.434 316.63 270.518 316.033 271.576C316.621 270.526 317.176 269.443 317.68 268.317Z" fill="black"/>
<path d="M320.594 259.296C320.552 259.514 320.51 259.741 320.46 259.959C320.51 259.741 320.552 259.522 320.594 259.296Z" fill="black"/>
<path d="M319.545 263.378C319.452 263.664 319.36 263.949 319.268 264.235C319.36 263.949 319.452 263.672 319.545 263.378Z" fill="black"/>
<path d="M320.041 261.648C319.973 261.908 319.898 262.168 319.822 262.429C319.898 262.168 319.973 261.916 320.041 261.648Z" fill="black"/>
<path d="M273.597 205.846C273.958 205.729 274.327 205.62 274.697 205.519C274.327 205.62 273.966 205.737 273.597 205.846Z" fill="black"/>
<path d="M271.8 206.468C272.253 206.292 272.715 206.124 273.186 205.972C272.724 206.124 272.262 206.292 271.8 206.468Z" fill="black"/>
<path d="M321.14 243.117C321.173 243.369 321.198 243.613 321.232 243.865C321.207 243.613 321.173 243.369 321.14 243.117Z" fill="black"/>
<path d="M321.543 251.694C321.535 251.912 321.518 252.13 321.51 252.34C321.518 252.122 321.535 251.912 321.543 251.694Z" fill="black"/>
<path d="M321.367 245.125C321.392 245.377 321.409 245.629 321.434 245.872C321.418 245.62 321.392 245.368 321.367 245.125Z" fill="black"/>
<path d="M307.776 281.64C307.482 281.892 307.179 282.135 306.877 282.37C307.179 282.135 307.482 281.883 307.776 281.64Z" fill="black"/>
<path d="M312.967 276.213C312.136 277.288 311.254 278.305 310.321 279.271C311.254 278.313 312.136 277.288 312.967 276.213Z" fill="black"/>
<path d="M310.161 279.439C309.884 279.724 309.599 280.002 309.305 280.27C309.59 279.993 309.876 279.724 310.161 279.439Z" fill="black"/>
<path d="M308.986 280.581C308.7 280.842 308.415 281.094 308.129 281.346C308.423 281.094 308.708 280.842 308.986 280.581Z" fill="black"/>
<path d="M315.731 272.114C315.555 272.425 315.37 272.719 315.177 273.021C315.362 272.719 315.546 272.416 315.731 272.114Z" fill="black"/>
<path d="M321.552 247.846C321.569 248.384 321.577 248.922 321.585 249.459C321.585 248.922 321.577 248.384 321.552 247.846Z" fill="black"/>
<path d="M321.435 245.872C321.468 246.301 321.493 246.738 321.519 247.166C321.493 246.738 321.468 246.309 321.435 245.872Z" fill="black"/>
<path d="M273.176 205.972C273.31 205.93 273.453 205.888 273.596 205.846C273.461 205.888 273.319 205.93 273.176 205.972Z" fill="black"/>
<path d="M271.731 206.493C271.731 206.493 271.782 206.476 271.799 206.468C271.774 206.476 271.748 206.485 271.731 206.493Z" fill="black"/>
<path d="M306.878 282.379C306.777 282.454 306.676 282.53 306.575 282.614C306.676 282.538 306.777 282.463 306.878 282.379Z" fill="black"/>
<path d="M319.267 264.235C319.175 264.52 319.082 264.798 318.981 265.075C319.082 264.798 319.175 264.512 319.267 264.235Z" fill="black"/>
<path d="M314.253 274.449C314.143 274.617 314.026 274.777 313.908 274.936C314.026 274.777 314.135 274.609 314.253 274.449Z" fill="black"/>
<path d="M319.822 262.42C319.73 262.74 319.637 263.059 319.545 263.378C319.646 263.059 319.73 262.74 319.822 262.42Z" fill="black"/>
<path d="M318.662 265.948C318.562 266.209 318.461 266.469 318.352 266.73C318.452 266.469 318.562 266.209 318.662 265.948Z" fill="black"/>
<path d="M309.312 280.27C309.203 280.371 309.102 280.472 308.993 280.573C309.102 280.472 309.212 280.371 309.312 280.27Z" fill="black"/>
<path d="M315.176 273.021C315.067 273.198 314.957 273.382 314.84 273.559C314.957 273.382 315.067 273.206 315.176 273.021Z" fill="black"/>
<path d="M320.459 259.959C320.333 260.53 320.191 261.093 320.048 261.648C320.199 261.085 320.333 260.522 320.459 259.959Z" fill="black"/>
<path d="M320.822 258.136C320.754 258.523 320.67 258.909 320.595 259.296C320.679 258.909 320.754 258.523 320.822 258.136Z" fill="black"/>
<path d="M321.351 254.365C321.317 254.734 321.275 255.112 321.225 255.482C321.267 255.112 321.309 254.743 321.351 254.365Z" fill="black"/>
<mask id="mask4_69562_3071" style="mask-type:luminance" maskUnits="userSpaceOnUse" x="247" y="198" width="82" height="96">
<path d="M248.279 230.316L255.545 227.964L296.209 210.156L312.53 235.498C312.53 235.498 287.33 248.266 280.753 251.139C274.176 254.012 254.091 262.899 254.091 262.899L247.842 264.655C247.842 264.655 264.171 301.354 299.754 291.51C335.336 281.665 329.876 248.938 325.13 230.559C320.384 212.18 299.561 190.634 271.731 201.352C243.902 212.062 248.287 230.324 248.287 230.324L248.279 230.316Z" fill="white"/>
</mask>
<g mask="url(#mask4_69562_3071)">
<path d="M308.557 283.832C321.921 274.936 328.977 256.448 324.861 237.38C322.375 225.855 316.218 215.834 307.532 209.173C298.805 202.478 288.565 199.958 278.712 202.092C276.553 202.554 274.478 203.234 272.487 204.116C271.479 204.561 267.523 206.56 266.557 207.115C260.845 210.391 256.049 215.414 252.621 221.84C247.464 231.5 245.994 243.159 248.48 254.692C253.05 275.86 269.883 290.72 287.801 290.72C290.069 290.72 292.345 290.485 294.621 289.989C296.621 289.561 298.544 288.939 300.375 288.166C301.543 287.671 307.037 284.857 308.549 283.849L308.557 283.832ZM250.118 254.323C247.716 243.184 249.127 231.928 254.1 222.621C258.216 214.91 264.373 209.324 271.731 206.502C271.757 206.493 271.782 206.485 271.799 206.476C272.252 206.3 272.714 206.132 273.185 205.981C273.319 205.939 273.462 205.897 273.605 205.855C273.966 205.737 274.335 205.628 274.705 205.527C275.234 205.384 275.772 205.25 276.309 205.132C278.477 204.662 280.661 204.435 282.845 204.435C290.111 204.435 297.351 206.997 303.752 211.911C312.119 218.337 318.057 228.006 320.46 239.144C320.603 239.808 320.729 240.471 320.846 241.135C320.88 241.345 320.913 241.563 320.947 241.773C321.023 242.227 321.09 242.672 321.149 243.126C321.182 243.378 321.207 243.621 321.241 243.873C321.291 244.293 321.333 244.713 321.375 245.133C321.401 245.385 321.417 245.637 321.443 245.881C321.476 246.309 321.501 246.746 321.527 247.174C321.535 247.401 321.552 247.628 321.56 247.855C321.577 248.392 321.585 248.93 321.594 249.468C321.594 249.577 321.594 249.694 321.594 249.804C321.594 250.442 321.577 251.072 321.552 251.702C321.543 251.92 321.527 252.139 321.518 252.349C321.493 252.769 321.468 253.189 321.434 253.6C321.409 253.861 321.384 254.113 321.359 254.373C321.325 254.743 321.283 255.121 321.233 255.49C321.199 255.759 321.165 256.02 321.132 256.288C321.081 256.65 321.023 257.011 320.964 257.372C320.922 257.632 320.88 257.893 320.829 258.153C320.762 258.54 320.678 258.926 320.603 259.312C320.561 259.531 320.519 259.758 320.468 259.976C320.342 260.547 320.199 261.11 320.057 261.664C319.989 261.925 319.914 262.185 319.838 262.446C319.746 262.765 319.653 263.084 319.561 263.403C319.469 263.689 319.376 263.974 319.284 264.26C319.191 264.546 319.099 264.823 318.998 265.1C318.897 265.394 318.788 265.68 318.679 265.965C318.578 266.226 318.477 266.486 318.368 266.746C318.251 267.04 318.133 267.334 318.007 267.62C317.906 267.864 317.797 268.099 317.688 268.334C317.184 269.451 316.638 270.535 316.041 271.593C315.941 271.77 315.84 271.954 315.739 272.131C315.563 272.442 315.378 272.736 315.185 273.038C315.075 273.214 314.966 273.399 314.849 273.576C314.655 273.878 314.462 274.172 314.261 274.466C314.151 274.634 314.034 274.794 313.916 274.953C313.706 275.256 313.488 275.55 313.269 275.844C313.169 275.978 313.068 276.104 312.967 276.23C312.135 277.305 311.253 278.322 310.321 279.288C310.271 279.346 310.212 279.397 310.161 279.456C309.884 279.741 309.599 280.018 309.305 280.287C309.195 280.388 309.095 280.489 308.985 280.59C308.7 280.85 308.414 281.102 308.129 281.354C308.011 281.455 307.893 281.556 307.776 281.656C307.482 281.908 307.179 282.152 306.877 282.387C306.776 282.463 306.675 282.538 306.575 282.622C302.979 285.369 298.838 287.36 294.277 288.343C274.89 292.534 255.083 277.272 250.127 254.331L250.118 254.323Z" fill="#C7C7C7" stroke="black" stroke-width="0.84" stroke-miterlimit="10"/>
<path d="M268.464 206.325C268.464 206.325 270.681 205.3 271.958 204.838C274.067 204.082 275.621 203.604 277.502 203.2C297.377 198.908 317.646 214.666 322.77 238.405C327.331 259.539 318.36 279.867 302.307 287.1" stroke="black" stroke-width="0.42" stroke-linejoin="round"/>
</g>
<path d="M303.601 317.524L285.911 289.04C284.668 287.041 282.937 285.453 280.921 284.386C280.888 284.37 280.863 284.344 280.846 284.302L276.419 274.147C275.949 273.072 274.957 272.332 273.807 272.198L258.535 270.442C257.376 270.308 256.217 270.804 255.495 271.744L248.615 280.674C248.615 280.674 248.565 280.724 248.523 280.732C246.271 281.329 244.155 282.496 242.424 284.185L217.468 308.503C208.27 317.466 210.227 332.67 221.349 338.256L234.537 344.875C236.2 345.765 237.124 347.622 236.872 349.562L233.789 367.269C233.789 367.269 233.789 367.328 233.797 367.362C233.94 367.689 234.864 369.823 235.612 370.327L242.55 375.048C243.592 375.762 243.651 377.332 242.659 378.214L237.04 381.675C236.796 381.826 236.712 382.129 236.83 382.381C237.124 382.986 237.645 384.027 237.838 384.195L242.458 388.152C242.903 388.538 242.861 389.269 242.374 389.647L237.023 392.587C236.847 392.688 236.771 392.898 236.863 393.082C237.132 393.628 237.661 394.704 237.829 394.838C239.005 395.787 240.87 397.299 242.181 398.383C243.13 399.164 243.6 400.416 243.441 401.701L240.139 427.791C240.139 427.791 240.114 427.867 240.089 427.892L235.461 432.487C235.41 432.537 235.393 432.613 235.427 432.68C235.603 433.041 236.183 434.209 236.334 434.385L238.787 437.124C239.19 437.569 239.056 438.316 238.518 438.636L233.302 440.736C233.151 440.794 233.075 440.971 233.142 441.122C233.377 441.651 233.89 442.777 234.091 442.978L236.25 445.104C236.746 445.591 236.788 446.406 236.351 447.002L234.469 449.598C233.554 450.858 233.369 452.512 233.999 453.865L240.979 468.901C242.844 472.924 250.018 473.277 252.563 469.48L262.71 454.394C263.113 453.798 263.365 453.109 263.449 452.395L275.327 353.292C275.554 351.368 276.898 349.747 278.704 349.209L292.623 345.412C304.685 342.12 310.179 328.142 303.585 317.516L303.601 317.524ZM255.285 281.505L259.174 276.44C259.644 275.818 260.4 275.499 261.165 275.583L269.951 276.583C270.707 276.667 271.362 277.154 271.665 277.86L274.176 283.622L255.293 281.497L255.285 281.505Z" fill="black" stroke="black" stroke-width="0.84" stroke-miterlimit="10"/>
<path d="M302.811 315.928L285.07 287.36C283.819 285.344 282.063 283.748 280.03 282.673L275.578 272.467C275.108 271.392 274.117 270.652 272.966 270.518L257.695 268.762C256.535 268.628 255.376 269.124 254.654 270.064L247.741 279.044C245.464 279.64 243.339 280.808 241.592 282.513L216.635 306.831C207.437 315.794 209.386 330.998 220.516 336.584L233.704 343.203C235.367 344.094 236.291 345.95 236.039 347.89L233.679 366.102C233.545 367.118 233.973 368.101 234.788 368.655L241.726 373.376C242.768 374.09 242.827 375.661 241.835 376.543L237.056 380.793C236.527 381.264 236.518 382.087 237.022 382.524L241.642 386.48C242.088 386.866 242.046 387.597 241.558 387.975L237.098 391.352C236.493 391.806 236.451 392.713 237.014 393.166C238.19 394.116 240.055 395.628 241.365 396.711C242.314 397.492 242.785 398.744 242.625 400.029L239.324 426.178L235.502 431.21C235.149 431.672 235.158 432.31 235.527 432.714L237.98 435.452C238.383 435.897 238.249 436.645 237.711 436.964L233.561 439.434C232.889 439.837 232.747 440.786 233.276 441.307L235.435 443.432C235.93 443.919 235.972 444.734 235.535 445.33L233.654 447.926C232.738 449.186 232.554 450.841 233.184 452.193L240.164 467.229C242.029 471.253 249.202 471.606 251.748 467.809L261.911 452.689C262.298 452.118 262.541 451.454 262.625 450.765L274.503 351.62C274.73 349.696 276.074 348.075 277.88 347.538L292.025 343.682C303.819 340.465 309.271 326.336 302.819 315.937L302.811 315.928ZM260.324 273.903L269.11 274.903C269.866 274.987 270.521 275.474 270.824 276.18L273.335 281.942L254.452 279.817L258.341 274.752C258.812 274.13 259.568 273.811 260.332 273.895L260.324 273.903Z" fill="#C7C7C7"/>
<mask id="mask5_69562_3071" style="mask-type:luminance" maskUnits="userSpaceOnUse" x="210" y="268" width="96" height="203">
<path d="M302.811 315.928L285.07 287.36C283.819 285.344 282.063 283.748 280.03 282.673L275.578 272.467C275.108 271.392 274.117 270.652 272.966 270.518L257.695 268.762C256.535 268.628 255.376 269.124 254.654 270.064L247.741 279.044C245.464 279.64 243.339 280.808 241.592 282.513L216.635 306.831C207.437 315.794 209.386 330.998 220.516 336.584L233.704 343.203C235.367 344.094 236.291 345.95 236.039 347.89L233.679 366.102C233.545 367.118 233.973 368.101 234.788 368.655L241.726 373.376C242.768 374.09 242.827 375.661 241.835 376.543L237.056 380.793C236.527 381.264 236.518 382.087 237.022 382.524L241.642 386.48C242.088 386.866 242.046 387.597 241.558 387.975L237.098 391.352C236.493 391.806 236.451 392.713 237.014 393.166C238.19 394.116 240.055 395.628 241.365 396.711C242.314 397.492 242.785 398.744 242.625 400.029L239.324 426.178L235.502 431.21C235.149 431.672 235.158 432.31 235.527 432.714L237.98 435.452C238.383 435.897 238.249 436.645 237.711 436.964L233.561 439.434C232.889 439.837 232.747 440.786 233.276 441.307L235.435 443.432C235.93 443.919 235.972 444.734 235.535 445.33L233.654 447.926C232.738 449.186 232.554 450.841 233.184 452.193L240.164 467.229C242.029 471.253 249.202 471.606 251.748 467.809L261.911 452.689C262.298 452.118 262.541 451.454 262.625 450.765L274.503 351.62C274.73 349.696 276.074 348.075 277.88 347.538L292.025 343.682C303.819 340.465 309.271 326.336 302.819 315.937L302.811 315.928ZM260.324 273.903L269.11 274.903C269.866 274.987 270.521 275.474 270.824 276.18L273.335 281.942L254.452 279.817L258.341 274.752C258.812 274.13 259.568 273.811 260.332 273.895L260.324 273.903Z" fill="white"/>
</mask>
<g mask="url(#mask5_69562_3071)">
<path d="M236.031 347.882C236.031 347.882 235.653 345.177 238.736 345.53C241.818 345.883 269.328 348.672 271.823 349.024C274.318 349.377 274.503 351.612 274.503 351.612L280.181 346.899C280.181 346.899 278.879 345.345 257.182 343.212C235.485 341.078 231.57 342.12 231.57 342.12L236.039 347.874L236.031 347.882Z" fill="#566578"/>
<path d="M247.741 279.036L280.039 282.673C280.039 282.673 285.323 282.076 290.312 287.62C295.302 293.164 311.077 325.614 311.077 325.614C311.077 325.614 310.01 340.826 298.939 344.505C287.868 348.184 280.19 346.891 280.19 346.891L231.571 342.111C231.571 342.111 218.139 339.171 209.916 329.368C201.692 319.566 208.967 308.184 217.661 299.481C226.355 290.779 240.584 279.027 240.584 279.027H247.741V279.036Z" fill="black"/>
<path d="M267.733 406.304C266.784 414.964 264.533 416.266 260.971 420.181C257.41 424.095 242.525 440.551 239.392 442.827C236.258 445.104 234.1 442.978 234.1 442.978C234.1 442.978 231.21 446.145 231.21 450.412C231.21 454.68 238.678 469.27 238.678 469.27C238.678 469.27 238.081 463.458 240.576 460.854C243.071 458.25 260.148 437.846 261.626 436.426C263.105 435.007 264.415 437.787 264.415 437.787L267.733 406.304Z" fill="#F3F3F3"/>
<path d="M242.869 475.344L255.738 371.486C256.04 369.016 256.561 366.572 257.275 364.186L259.216 357.727C259.468 356.895 260.686 357.004 260.778 357.87L261.374 363.304C261.736 366.622 261.719 369.999 261.307 373.351L248.926 474.428" fill="#566578"/>
<path d="M242.869 475.344L255.738 371.486C256.04 369.016 256.561 366.572 257.275 364.186L259.216 357.727C259.468 356.895 260.686 357.004 260.778 357.87L261.374 363.304C261.736 366.622 261.719 369.999 261.307 373.351L248.926 474.428" stroke="black" stroke-width="0.42" stroke-miterlimit="10"/>
<path d="M259.946 357.164L245.389 475.201" stroke="black" stroke-width="0.42" stroke-linejoin="round"/>
</g>
<path d="M302.811 315.928L285.07 287.36C283.819 285.344 282.063 283.748 280.03 282.673L275.578 272.467C275.108 271.392 274.117 270.652 272.966 270.518L257.695 268.762C256.535 268.628 255.376 269.124 254.654 270.064L247.741 279.044C245.464 279.64 243.339 280.808 241.592 282.513L216.635 306.831C207.437 315.794 209.386 330.998 220.516 336.584L233.704 343.203C235.367 344.094 236.291 345.95 236.039 347.89L233.679 366.102C233.545 367.118 233.973 368.101 234.788 368.655L241.726 373.376C242.768 374.09 242.827 375.661 241.835 376.543L237.056 380.793C236.527 381.264 236.518 382.087 237.022 382.524L241.642 386.48C242.088 386.866 242.046 387.597 241.558 387.975L237.098 391.352C236.493 391.806 236.451 392.713 237.014 393.166C238.19 394.116 240.055 395.628 241.365 396.711C242.314 397.492 242.785 398.744 242.625 400.029L239.324 426.178L235.502 431.21C235.149 431.672 235.158 432.31 235.527 432.714L237.98 435.452C238.383 435.897 238.249 436.645 237.711 436.964L233.561 439.434C232.889 439.837 232.747 440.786 233.276 441.307L235.435 443.432C235.93 443.919 235.972 444.734 235.535 445.33L233.654 447.926C232.738 449.186 232.554 450.841 233.184 452.193L240.164 467.229C242.029 471.253 249.202 471.606 251.748 467.809L261.911 452.689C262.298 452.118 262.541 451.454 262.625 450.765L274.503 351.62C274.73 349.696 276.074 348.075 277.88 347.538L292.025 343.682C303.819 340.465 309.271 326.336 302.819 315.937L302.811 315.928ZM260.324 273.903L269.11 274.903C269.866 274.987 270.521 275.474 270.824 276.18L273.335 281.942L254.452 279.817L258.341 274.752C258.812 274.13 259.568 273.811 260.332 273.895L260.324 273.903Z" stroke="black" stroke-width="0.84" stroke-miterlimit="10"/>
<path d="M351.741 262.866L336.713 264.05C335.369 264.159 333.899 263.655 332.807 262.656C324.592 255.129 312.42 252.458 303.13 256.902C293.84 261.345 289.976 272.232 294.226 282.547C294.797 283.933 294.57 285.403 293.705 286.495L283.55 299.33C282.441 300.733 282.432 302.715 283.541 304.328L302.357 331.788C303.508 333.459 305.516 334.366 307.431 334.064L333.328 329.965C334.949 329.704 336.688 330.502 337.721 331.964L347.104 345.228C347.91 346.37 349.061 347.21 350.33 347.596L361.527 351.007C362.174 351.2 362.619 351.906 362.51 352.561L361.468 358.911C361.35 359.617 361.854 360.364 362.552 360.516L370.07 362.17C370.733 362.313 371.229 363.019 371.162 363.716L370.582 369.378C370.549 369.722 370.649 370.083 370.859 370.377L380.192 383.498C380.326 383.683 380.486 383.834 380.679 383.935L389.852 389.034C390.314 389.286 390.625 389.823 390.633 390.361L390.776 396.518C390.792 397.282 391.372 397.963 392.053 398.013L396.689 398.349C397.277 398.391 397.815 398.929 397.941 399.609L398.479 402.558C398.739 403.994 399.671 405.262 400.881 405.825L414.27 412.041C417.824 413.688 421.982 409.572 421.024 405.439L417.261 389.185C417.118 388.572 416.849 387.984 416.48 387.48L363.576 315.156C362.568 313.778 362.4 312.073 363.14 310.855L374.152 292.77C374.908 291.526 374.698 289.779 373.631 288.36L356.05 264.94C355.017 263.563 353.312 262.74 351.758 262.857L351.741 262.866ZM307.784 263.361C314.184 260.203 322.685 262.101 328.296 267.477C329.103 268.25 329.346 269.334 328.859 270.115L328.674 270.4C324.046 277.759 315.453 282.32 305.196 282.639L304.734 282.656C303.617 282.69 302.525 281.984 302.08 280.968C299.014 273.987 301.274 266.578 307.775 263.37L307.784 263.361Z" fill="#FF945B"/>
<mask id="mask6_69562_3071" style="mask-type:luminance" maskUnits="userSpaceOnUse" x="282" y="254" width="140" height="159">
<path d="M351.741 262.866L336.713 264.05C335.369 264.159 333.899 263.655 332.807 262.656C324.592 255.129 312.42 252.458 303.13 256.902C293.84 261.345 289.976 272.232 294.226 282.547C294.797 283.933 294.57 285.403 293.705 286.495L283.55 299.33C282.441 300.733 282.432 302.715 283.541 304.328L302.357 331.788C303.508 333.459 305.516 334.366 307.431 334.064L333.328 329.965C334.949 329.704 336.688 330.502 337.721 331.964L347.104 345.228C347.91 346.37 349.061 347.21 350.33 347.596L361.527 351.007C362.174 351.2 362.619 351.906 362.51 352.561L361.468 358.911C361.35 359.617 361.854 360.364 362.552 360.516L370.07 362.17C370.733 362.313 371.229 363.019 371.162 363.716L370.582 369.378C370.549 369.722 370.649 370.083 370.859 370.377L380.192 383.498C380.326 383.683 380.486 383.834 380.679 383.935L389.852 389.034C390.314 389.286 390.625 389.823 390.633 390.361L390.776 396.518C390.792 397.282 391.372 397.963 392.053 398.013L396.689 398.349C397.277 398.391 397.815 398.929 397.941 399.609L398.479 402.558C398.739 403.994 399.671 405.262 400.881 405.825L414.27 412.041C417.824 413.688 421.982 409.572 421.024 405.439L417.261 389.185C417.118 388.572 416.849 387.984 416.48 387.48L363.576 315.156C362.568 313.778 362.4 312.073 363.14 310.855L374.152 292.77C374.908 291.526 374.698 289.779 373.631 288.36L356.05 264.94C355.017 263.563 353.312 262.74 351.758 262.857L351.741 262.866ZM307.784 263.361C314.184 260.203 322.685 262.101 328.296 267.477C329.103 268.25 329.346 269.334 328.859 270.115L328.674 270.4C324.046 277.759 315.453 282.32 305.196 282.639L304.734 282.656C303.617 282.69 302.525 281.984 302.08 280.968C299.014 273.987 301.274 266.578 307.775 263.37L307.784 263.361Z" fill="white"/>
</mask>
<g mask="url(#mask6_69562_3071)">
<path d="M414.253 412.05L352.244 325.857C350.505 323.438 347.347 322.598 345.171 324.001C342.979 325.412 342.609 328.562 344.365 331.023L357.788 349.873L360.417 366.219L397.419 411.05L414.253 412.05Z" fill="black"/>
<mask id="mask7_69562_3071" style="mask-type:luminance" maskUnits="userSpaceOnUse" x="343" y="323" width="72" height="90">
<path d="M414.253 412.05L352.244 325.857C350.505 323.438 347.347 322.598 345.171 324.001C342.979 325.412 342.609 328.562 344.365 331.023L357.788 349.873L360.417 366.219L397.419 411.05L414.253 412.05Z" fill="white"/>
</mask>
<g mask="url(#mask7_69562_3071)">
<path d="M413.414 412.89L351.405 326.697C349.666 324.278 346.508 323.438 344.332 324.841C342.14 326.252 341.77 329.402 343.526 331.863L356.949 350.713L359.578 367.059L396.58 411.89L413.414 412.89Z" fill="#FF5200" stroke="black" stroke-width="0.42" stroke-linejoin="round"/>
</g>
<path d="M414.253 412.05L352.244 325.857C350.505 323.438 347.347 322.598 345.171 324.001C342.979 325.412 342.609 328.562 344.365 331.023L357.788 349.873L360.417 366.219L397.419 411.05L414.253 412.05Z" stroke="black" stroke-width="0.42" stroke-linejoin="round"/>
<path d="M357.528 264.235L282.415 306.52" stroke="#FF5200" stroke-width="0.84" stroke-linejoin="round"/>
<path opacity="0.4" d="M358.084 264.68L282.971 306.966" stroke="#F3F3F3" stroke-width="0.42" stroke-miterlimit="10"/>
<path d="M360.308 267.628L285.75 310.888" stroke="#FF5200" stroke-width="0.84" stroke-linejoin="round"/>
<path opacity="0.4" d="M360.871 268.065L286.312 311.325" stroke="#F3F3F3" stroke-width="0.42" stroke-miterlimit="10"/>
<path d="M374.984 287.822L301.576 333.014" stroke="#FF5200" stroke-width="0.84" stroke-linejoin="round"/>
<path opacity="0.4" d="M375.554 288.25L302.146 333.434" stroke="#F3F3F3" stroke-width="0.42" stroke-miterlimit="10"/>
<path d="M370.027 280.212L295.905 324.211" stroke="#FF5200" stroke-width="0.84" stroke-linejoin="round"/>
<path opacity="0.4" d="M370.598 280.64L296.468 324.639" stroke="#F3F3F3" stroke-width="0.42" stroke-miterlimit="10"/>
</g>
<path d="M351.741 262.866L336.713 264.05C335.369 264.159 333.899 263.655 332.807 262.656C324.592 255.129 312.42 252.458 303.13 256.902C293.84 261.345 289.976 272.232 294.226 282.547C294.797 283.933 294.57 285.403 293.705 286.495L283.55 299.33C282.441 300.733 282.432 302.715 283.541 304.328L302.357 331.788C303.508 333.459 305.516 334.366 307.431 334.064L333.328 329.965C334.949 329.704 336.688 330.502 337.721 331.964L347.104 345.228C347.91 346.37 349.061 347.21 350.33 347.596L361.527 351.007C362.174 351.2 362.619 351.906 362.51 352.561L361.468 358.911C361.35 359.617 361.854 360.364 362.552 360.516L370.07 362.17C370.733 362.313 371.229 363.019 371.162 363.716L370.582 369.378C370.548 369.722 370.649 370.083 370.859 370.377L380.192 383.498C380.326 383.683 380.486 383.834 380.679 383.935L389.852 389.034C390.314 389.286 390.625 389.823 390.633 390.361L390.776 396.518C390.792 397.282 391.372 397.963 392.053 398.013L396.689 398.349C397.277 398.391 397.815 398.929 397.941 399.609L398.478 402.558C398.739 403.994 399.671 405.262 400.881 405.825L414.27 412.041C417.824 413.688 421.982 409.572 421.024 405.439L417.261 389.185C417.118 388.572 416.849 387.984 416.48 387.48L363.576 315.156C362.568 313.778 362.4 312.073 363.14 310.855L374.152 292.77C374.908 291.526 374.698 289.779 373.631 288.36L356.05 264.94C355.017 263.563 353.312 262.74 351.758 262.857L351.741 262.866ZM307.784 263.361C314.184 260.203 322.685 262.101 328.296 267.477C329.103 268.25 329.346 269.334 328.859 270.115L328.674 270.4C324.046 277.759 315.453 282.32 305.196 282.639L304.734 282.656C303.617 282.69 302.525 281.984 302.08 280.968C299.014 273.987 301.274 266.578 307.775 263.37L307.784 263.361Z" stroke="black" stroke-width="0.84" stroke-miterlimit="10"/>
<path d="M419.185 411.05L352.741 319.129" stroke="black" stroke-width="0.84" stroke-linejoin="round"/>
<mask id="mask8_69562_3071" style="mask-type:luminance" maskUnits="userSpaceOnUse" x="312" y="247" width="17" height="30">
<path d="M318.662 251.694C318.662 251.694 318.637 259.069 314.546 265.948C308.557 276.028 318.41 280.312 322.636 273.03C326.861 265.747 328.894 259.01 328.507 250.862C328.163 243.453 318.662 251.702 318.662 251.702V251.694Z" fill="white"/>
</mask>
<g mask="url(#mask8_69562_3071)">
<path d="M308.557 283.832C321.921 274.936 328.977 256.448 324.861 237.38C322.375 225.855 316.218 215.834 307.532 209.173C298.805 202.478 288.565 199.958 278.712 202.092C276.553 202.554 274.478 203.234 272.487 204.116C271.479 204.561 267.523 206.56 266.557 207.115C260.845 210.391 256.049 215.414 252.621 221.84C247.464 231.5 245.994 243.159 248.48 254.692C253.05 275.86 269.883 290.72 287.801 290.72C290.069 290.72 292.345 290.485 294.621 289.989C296.621 289.561 298.544 288.939 300.375 288.166C301.543 287.671 307.037 284.857 308.549 283.849L308.557 283.832ZM250.118 254.323C247.716 243.184 249.127 231.928 254.1 222.621C258.216 214.91 264.373 209.324 271.731 206.502C271.757 206.493 271.782 206.485 271.799 206.476C272.252 206.3 272.714 206.132 273.185 205.981C273.319 205.939 273.462 205.897 273.605 205.855C273.966 205.737 274.335 205.628 274.705 205.527C275.234 205.384 275.772 205.25 276.309 205.132C278.477 204.662 280.661 204.435 282.845 204.435C290.111 204.435 297.351 206.997 303.752 211.911C312.119 218.337 318.057 228.006 320.46 239.144C320.603 239.808 320.729 240.471 320.846 241.135C320.88 241.345 320.913 241.563 320.947 241.773C321.023 242.227 321.09 242.672 321.149 243.126C321.182 243.378 321.207 243.621 321.241 243.873C321.291 244.293 321.333 244.713 321.375 245.133C321.401 245.385 321.417 245.637 321.443 245.881C321.476 246.309 321.501 246.746 321.527 247.174C321.535 247.401 321.552 247.628 321.56 247.855C321.577 248.392 321.585 248.93 321.594 249.468C321.594 249.577 321.594 249.694 321.594 249.804C321.594 250.442 321.577 251.072 321.552 251.702C321.543 251.92 321.527 252.139 321.518 252.349C321.493 252.769 321.468 253.189 321.434 253.6C321.409 253.861 321.384 254.113 321.359 254.373C321.325 254.743 321.283 255.121 321.233 255.49C321.199 255.759 321.165 256.02 321.132 256.288C321.081 256.65 321.023 257.011 320.964 257.372C320.922 257.632 320.88 257.893 320.829 258.153C320.762 258.54 320.678 258.926 320.603 259.312C320.561 259.531 320.519 259.758 320.468 259.976C320.342 260.547 320.199 261.11 320.057 261.664C319.989 261.925 319.914 262.185 319.838 262.446C319.746 262.765 319.653 263.084 319.561 263.403C319.469 263.689 319.376 263.974 319.284 264.26C319.191 264.546 319.099 264.823 318.998 265.1C318.897 265.394 318.788 265.68 318.679 265.965C318.578 266.226 318.477 266.486 318.368 266.746C318.251 267.04 318.133 267.334 318.007 267.62C317.906 267.864 317.797 268.099 317.688 268.334C317.184 269.451 316.638 270.535 316.041 271.593C315.941 271.77 315.84 271.954 315.739 272.131C315.563 272.442 315.378 272.736 315.185 273.038C315.075 273.214 314.966 273.399 314.849 273.576C314.655 273.878 314.462 274.172 314.261 274.466C314.151 274.634 314.034 274.794 313.916 274.953C313.706 275.256 313.488 275.55 313.269 275.844C313.169 275.978 313.068 276.104 312.967 276.23C312.135 277.305 311.253 278.322 310.321 279.288C310.271 279.346 310.212 279.397 310.161 279.456C309.884 279.741 309.599 280.018 309.305 280.287C309.195 280.388 309.095 280.489 308.985 280.59C308.7 280.85 308.414 281.102 308.129 281.354C308.011 281.455 307.893 281.556 307.776 281.656C307.482 281.908 307.179 282.152 306.877 282.387C306.776 282.463 306.675 282.538 306.575 282.622C302.979 285.369 298.838 287.36 294.277 288.343C274.89 292.534 255.083 277.272 250.127 254.331L250.118 254.323Z" fill="#C7C7C7" stroke="black" stroke-width="0.84" stroke-miterlimit="10"/>
<path d="M268.464 206.325C268.464 206.325 270.681 205.3 271.958 204.838C274.067 204.082 275.621 203.604 277.502 203.2C297.377 198.908 317.646 214.666 322.77 238.405C327.331 259.539 318.36 279.867 302.307 287.1" stroke="black" stroke-width="0.42" stroke-linejoin="round"/>
</g>
<mask id="mask9_69562_3071" style="mask-type:luminance" maskUnits="userSpaceOnUse" x="262" y="276" width="28" height="16">
<path d="M270.824 276.188C270.824 276.188 267.531 276.222 264.322 279.439C256.056 287.746 278.123 291.745 285.557 291.829C290.186 291.879 289.976 290.796 289.43 282.656C289.11 277.927 270.824 276.188 270.824 276.188Z" fill="white"/>
</mask>
<g mask="url(#mask9_69562_3071)">
<path d="M324.861 237.38C322.375 225.855 316.218 215.834 307.532 209.173C298.805 202.478 288.565 199.958 278.712 202.092C276.553 202.554 274.478 203.234 272.487 204.116C271.479 204.561 267.523 206.56 266.557 207.115C260.845 210.391 256.049 215.414 252.621 221.84C247.464 231.5 245.994 243.159 248.48 254.692C253.05 275.86 269.883 290.72 287.801 290.72C290.069 290.72 292.345 290.485 294.621 289.989C296.621 289.561 298.544 288.939 300.375 288.166C301.543 287.671 307.037 284.857 308.549 283.849C321.913 274.953 328.969 256.465 324.853 237.397L324.861 237.38ZM321.543 251.694C321.535 251.912 321.518 252.13 321.51 252.34C321.485 252.76 321.459 253.18 321.426 253.592C321.401 253.852 321.375 254.104 321.35 254.365C321.317 254.734 321.275 255.112 321.224 255.482C321.191 255.751 321.157 256.011 321.123 256.28C321.073 256.641 321.014 257.002 320.955 257.364C320.913 257.624 320.871 257.884 320.821 258.145C320.754 258.531 320.67 258.918 320.594 259.304C320.552 259.522 320.51 259.749 320.46 259.968C320.334 260.539 320.191 261.102 320.048 261.656C319.981 261.916 319.905 262.177 319.83 262.437C319.737 262.756 319.645 263.076 319.553 263.395C319.46 263.68 319.368 263.966 319.275 264.252C319.183 264.537 319.091 264.814 318.99 265.092C318.889 265.386 318.78 265.671 318.671 265.957C318.57 266.217 318.469 266.478 318.36 266.738C318.242 267.032 318.125 267.326 317.999 267.612C317.898 267.855 317.789 268.09 317.679 268.326C317.175 269.443 316.629 270.526 316.033 271.585C315.932 271.761 315.831 271.946 315.731 272.122C315.554 272.433 315.369 272.727 315.176 273.03C315.067 273.206 314.958 273.391 314.84 273.567C314.647 273.87 314.454 274.164 314.252 274.458C314.143 274.626 314.025 274.785 313.908 274.945C313.698 275.247 313.479 275.541 313.261 275.835C313.16 275.97 313.059 276.096 312.959 276.222C312.127 277.297 311.245 278.313 310.313 279.279C310.262 279.338 310.203 279.388 310.153 279.447C309.876 279.733 309.59 280.01 309.296 280.279C309.187 280.38 309.086 280.48 308.977 280.581C308.691 280.842 308.406 281.094 308.12 281.346C308.003 281.446 307.885 281.547 307.767 281.648C307.473 281.9 307.171 282.144 306.869 282.379C306.768 282.454 306.667 282.53 306.566 282.614C305.441 283.479 304.256 284.269 303.03 284.966C301.131 285.814 299.132 286.486 297.041 286.94C277.653 291.123 257.846 275.869 252.89 252.928C250.488 241.79 251.899 230.534 256.872 221.227C260.181 215.044 264.801 210.223 270.295 207.098C270.765 206.888 271.253 206.686 271.731 206.502C271.757 206.493 271.782 206.485 271.799 206.476C272.252 206.3 272.714 206.132 273.185 205.981C273.319 205.939 273.462 205.897 273.605 205.855C273.966 205.737 274.335 205.628 274.705 205.527C275.234 205.384 275.772 205.25 276.309 205.132C278.477 204.662 280.661 204.435 282.845 204.435C290.111 204.435 297.351 206.997 303.752 211.911C312.119 218.337 318.057 228.006 320.46 239.144C320.603 239.808 320.729 240.471 320.846 241.135C320.88 241.345 320.913 241.563 320.947 241.773C321.023 242.227 321.09 242.672 321.149 243.126C321.182 243.378 321.207 243.621 321.241 243.873C321.291 244.293 321.333 244.713 321.375 245.133C321.401 245.385 321.417 245.637 321.443 245.881C321.476 246.309 321.501 246.746 321.527 247.174C321.535 247.401 321.552 247.628 321.56 247.855C321.577 248.392 321.585 248.93 321.594 249.468C321.594 249.577 321.594 249.694 321.594 249.804C321.594 250.442 321.577 251.072 321.552 251.702L321.543 251.694Z" fill="#566578" stroke="black" stroke-width="0.84" stroke-miterlimit="10"/>
<path d="M308.557 283.832C321.921 274.936 328.977 256.448 324.861 237.38C322.375 225.855 316.218 215.834 307.532 209.173C298.805 202.478 288.565 199.958 278.712 202.092C276.553 202.554 274.478 203.234 272.487 204.116C271.479 204.561 267.523 206.56 266.557 207.115C260.845 210.391 256.049 215.414 252.621 221.84C247.464 231.5 245.994 243.159 248.48 254.692C253.05 275.86 269.883 290.72 287.801 290.72C290.069 290.72 292.345 290.485 294.621 289.989C296.621 289.561 298.544 288.939 300.375 288.166C301.543 287.671 307.037 284.857 308.549 283.849L308.557 283.832ZM250.118 254.323C247.716 243.184 249.127 231.928 254.1 222.621C258.216 214.91 264.373 209.324 271.731 206.502C271.757 206.493 271.782 206.485 271.799 206.476C272.252 206.3 272.714 206.132 273.185 205.981C273.319 205.939 273.462 205.897 273.605 205.855C273.966 205.737 274.335 205.628 274.705 205.527C275.234 205.384 275.772 205.25 276.309 205.132C278.477 204.662 280.661 204.435 282.845 204.435C290.111 204.435 297.351 206.997 303.752 211.911C312.119 218.337 318.057 228.006 320.46 239.144C320.603 239.808 320.729 240.471 320.846 241.135C320.88 241.345 320.913 241.563 320.947 241.773C321.023 242.227 321.09 242.672 321.149 243.126C321.182 243.378 321.207 243.621 321.241 243.873C321.291 244.293 321.333 244.713 321.375 245.133C321.401 245.385 321.417 245.637 321.443 245.881C321.476 246.309 321.501 246.746 321.527 247.174C321.535 247.401 321.552 247.628 321.56 247.855C321.577 248.392 321.585 248.93 321.594 249.468C321.594 249.577 321.594 249.694 321.594 249.804C321.594 250.442 321.577 251.072 321.552 251.702C321.543 251.92 321.527 252.139 321.518 252.349C321.493 252.769 321.468 253.189 321.434 253.6C321.409 253.861 321.384 254.113 321.359 254.373C321.325 254.743 321.283 255.121 321.233 255.49C321.199 255.759 321.165 256.02 321.132 256.288C321.081 256.65 321.023 257.011 320.964 257.372C320.922 257.632 320.88 257.893 320.829 258.153C320.762 258.54 320.678 258.926 320.603 259.312C320.561 259.531 320.519 259.758 320.468 259.976C320.342 260.547 320.199 261.11 320.057 261.664C319.989 261.925 319.914 262.185 319.838 262.446C319.746 262.765 319.653 263.084 319.561 263.403C319.469 263.689 319.376 263.974 319.284 264.26C319.191 264.546 319.099 264.823 318.998 265.1C318.897 265.394 318.788 265.68 318.679 265.965C318.578 266.226 318.477 266.486 318.368 266.746C318.251 267.04 318.133 267.334 318.007 267.62C317.906 267.864 317.797 268.099 317.688 268.334C317.184 269.451 316.638 270.535 316.041 271.593C315.941 271.77 315.84 271.954 315.739 272.131C315.563 272.442 315.378 272.736 315.185 273.038C315.075 273.214 314.966 273.399 314.849 273.576C314.655 273.878 314.462 274.172 314.261 274.466C314.151 274.634 314.034 274.794 313.916 274.953C313.706 275.256 313.488 275.55 313.269 275.844C313.169 275.978 313.068 276.104 312.967 276.23C312.135 277.305 311.253 278.322 310.321 279.288C310.271 279.346 310.212 279.397 310.161 279.456C309.884 279.741 309.599 280.018 309.305 280.287C309.195 280.388 309.095 280.489 308.985 280.59C308.7 280.85 308.414 281.102 308.129 281.354C308.011 281.455 307.893 281.556 307.776 281.656C307.482 281.908 307.179 282.152 306.877 282.387C306.776 282.463 306.675 282.538 306.575 282.622C302.979 285.369 298.838 287.36 294.277 288.343C274.89 292.534 255.083 277.272 250.127 254.331L250.118 254.323Z" fill="#C7C7C7" stroke="black" stroke-width="0.84" stroke-miterlimit="10"/>
<path d="M268.464 206.325C268.464 206.325 270.681 205.3 271.958 204.838C274.067 204.082 275.621 203.604 277.502 203.2C297.377 198.908 317.646 214.666 322.77 238.405C327.331 259.539 318.36 279.867 302.307 287.1" stroke="black" stroke-width="0.42" stroke-linejoin="round"/>
</g>
<path d="M289.22 247.435C292.009 244.965 294.067 239.858 294.789 236.834C296.058 231.517 295.26 226.158 292.563 221.739L292.462 221.58C290.917 219.102 288.472 217.27 285.583 216.414L283.449 215.784C283.449 215.784 287.599 213.532 288.12 213.742C291.11 214.977 293.622 217.077 295.31 219.79L295.419 219.967C298.586 225.15 299.527 231.408 298.057 237.59C297.628 239.388 296.696 242.151 295.285 244.789C295.285 244.789 288.825 247.762 289.22 247.41V247.435Z" fill="black"/>
<path d="M303.139 256.91C303.139 256.91 305.885 259.984 304.18 266.402L307.498 264.63C308.96 259.632 306.877 255.49 306.877 255.49L303.139 256.918V256.91Z" fill="black"/>
<path d="M179.919 184.065C179.919 184.065 169.78 187.131 170.377 202.503L167.647 197.589C167.647 197.589 166.168 188.097 179.919 184.065Z" fill="black"/>
<path d="M217.215 220.219L240.071 227.199C241.659 227.686 242.743 229.173 242.667 230.828C242.465 235.414 238.769 245.595 219.937 270.988L213.443 269.166C213.443 269.166 223.607 223.612 217.215 220.21V220.219Z" fill="#FF5200"/>
<mask id="mask10_69562_3071" style="mask-type:luminance" maskUnits="userSpaceOnUse" x="213" y="220" width="30" height="51">
<path d="M217.215 220.219L240.071 227.199C241.659 227.686 242.743 229.173 242.667 230.828C242.465 235.414 238.769 245.595 219.937 270.988L213.443 269.166C213.443 269.166 223.607 223.612 217.215 220.21V220.219Z" fill="white"/>
</mask>
<g mask="url(#mask10_69562_3071)">
<path d="M242.314 228.661C242.314 228.661 242.079 230.324 238.518 229.375C234.956 228.426 222.944 224.629 220.97 223.839C218.996 223.05 217.896 220.824 217.896 220.824L218.458 228.182C218.458 228.182 217.173 225.108 223.028 226.216C228.883 227.325 235.754 229.375 238.366 231.592C240.979 233.81 242.323 236.498 242.323 236.498C242.323 236.498 245.33 234.045 242.323 228.669L242.314 228.661Z" fill="#FF945B"/>
</g>
<path d="M217.215 220.219L240.071 227.199C241.659 227.686 242.743 229.173 242.667 230.828C242.465 235.414 238.769 245.595 219.937 270.988L213.443 269.166C213.443 269.166 223.607 223.612 217.215 220.21V220.219Z" stroke="black" stroke-width="0.84" stroke-linejoin="round"/>
<path d="M176.745 402.894L174.611 409.353" stroke="black" stroke-width="0.42" stroke-miterlimit="10"/>
<path d="M184.38 404.884L182.238 411.344" stroke="black" stroke-width="0.42" stroke-miterlimit="10"/>
</g>
<defs>
</defs>
</svg>
