<svg width="500" height="500" viewBox="0 0 500 500" fill="none" xmlns="http://www.w3.org/2000/svg">
<g>
<path d="M456.359 301.989L323.517 231.481C322.767 231.081 321.884 231.039 321.1 231.364L41.5088 347.489C39.2921 348.406 39.1504 351.489 41.2671 352.614L169.717 420.789C173.25 422.664 177.425 422.856 181.117 421.331L262.65 387.464C265.934 386.097 269.659 386.272 272.8 387.939L300.034 402.389C303.159 404.047 306.85 404.231 310.125 402.889L401.092 365.656C403.317 364.747 403.475 361.647 401.35 360.522L374.242 346.139C372.125 345.014 372.267 341.931 374.484 341.014L456.117 307.106C458.334 306.189 458.475 303.106 456.359 301.981V301.989Z" fill="black" stroke="black" stroke-width="0.833333" stroke-linejoin="round"/>
<path d="M469.983 257.264L172.416 380.847L27.6328 304.006V290.672L325.199 180.422L469.983 244.364V257.264Z" fill="#566578" stroke="black" stroke-width="0.833333" stroke-miterlimit="10"/>
<path d="M464.15 243.072L325.175 169.314L34.6582 289.972L173.633 363.731L464.15 243.072Z" fill="#F3F3F3" stroke="black" stroke-width="0.833333" stroke-linejoin="round"/>
<path d="M407.708 312.131V308.739L403.958 306.747V303.356L400.433 301.489V298.097L373.775 283.947C373.583 283.756 373.775 297.506 373.775 297.506L412.866 318.256V314.864L407.708 312.131Z" fill="#C7C7C7" stroke="black" stroke-width="0.833333" stroke-linejoin="round"/>
<path d="M302.518 355.756V352.364L298.768 350.372V346.981L295.243 345.114V341.722L268.584 327.572C268.393 327.381 268.584 341.131 268.584 341.131L307.676 361.881V358.489L302.518 355.756Z" fill="#C7C7C7" stroke="black" stroke-width="0.833333" stroke-linejoin="round"/>
<path d="M469.983 243.931L325.199 167.089L27.6328 290.672L172.416 367.514L268.583 327.581L295.241 341.731L400.283 298.106L373.616 283.956L469.983 243.931Z" fill="#C7C7C7" stroke="black" stroke-width="0.833333" stroke-linejoin="round"/>
<path d="M307.675 361.881L412.866 318.256V314.872L307.675 358.489V361.881Z" fill="#566578" stroke="black" stroke-width="0.833333" stroke-linecap="round" stroke-linejoin="round"/>
<path d="M302.517 355.756L407.708 312.131L412.867 314.872L307.675 358.489L302.517 355.756Z" fill="#F3F3F3" stroke="black" stroke-width="0.833333" stroke-linecap="round" stroke-linejoin="round"/>
<path d="M302.517 352.364L407.708 308.747V312.131L302.517 355.756V352.364Z" fill="#566578" stroke="black" stroke-width="0.833333" stroke-linecap="round" stroke-linejoin="round"/>
<path d="M298.767 350.372L302.517 352.364L407.708 308.747L403.958 306.756L298.767 350.372Z" fill="#F3F3F3" stroke="black" stroke-width="0.833333" stroke-linecap="round" stroke-linejoin="round"/>
<path d="M298.767 346.989V350.372L403.958 306.756V303.364L298.767 346.989Z" fill="#566578" stroke="black" stroke-width="0.833333" stroke-linecap="round" stroke-linejoin="round"/>
<path d="M295.241 345.122L298.766 346.989L403.958 303.364L400.441 301.497L295.241 345.122Z" fill="#F3F3F3" stroke="black" stroke-width="0.833333" stroke-linecap="round" stroke-linejoin="round"/>
<path d="M295.241 341.731V345.122L400.441 301.497V298.106L295.241 341.731Z" fill="#566578" stroke="black" stroke-width="0.833333" stroke-linecap="round" stroke-linejoin="round"/>
<path d="M34.6582 289.972V217.739L172.417 290.847L173.633 290.347V363.731L34.6582 289.972Z" fill="#963000"/>
<mask id="mask0_69562_3265" style="mask-type:luminance" maskUnits="userSpaceOnUse" x="34" y="217" width="140" height="147">
<path d="M34.6582 289.972V217.739L172.417 290.847L173.633 290.347V363.731L34.6582 289.972Z" fill="white"/>
</mask>
<g mask="url(#mask0_69562_3265)">
<path d="M34.6582 220.789L173.633 294.914V286.681L34.6582 214.439V220.789Z" fill="black"/>
</g>
<path d="M34.6582 289.972V217.739L172.417 290.847L173.633 290.347V363.731L34.6582 289.972Z" stroke="black" stroke-width="0.833333" stroke-miterlimit="10"/>
<path d="M173.634 363.731L464.15 243.072V169.689L173.634 290.347V363.731Z" fill="#FF5200"/>
<mask id="mask1_69562_3265" style="mask-type:luminance" maskUnits="userSpaceOnUse" x="173" y="169" width="292" height="195">
<path d="M173.634 363.731L464.15 243.072V169.689L173.634 290.347V363.731Z" fill="white"/>
</mask>
<g mask="url(#mask1_69562_3265)">
<path d="M173.634 294.914L464.15 174.206V169.689L173.634 290.347V294.914Z" fill="#963000"/>
</g>
<path d="M173.634 363.731L464.15 243.072V169.689L173.634 290.347V363.731Z" stroke="black" stroke-width="0.833333" stroke-linejoin="round"/>
<path d="M269.584 238.814L280.742 234.247L269.584 228.297V238.814Z" fill="black" stroke="black" stroke-width="0.833333" stroke-miterlimit="10"/>
<path d="M272.232 322.772V265.381L365.557 225.031V284.014L272.232 322.772Z" fill="#566578" stroke="black" stroke-width="0.833333" stroke-miterlimit="10"/>
<path d="M358.133 279.981L365.558 283.956V225.031L358.133 228.239V279.981Z" fill="black" stroke="black" stroke-width="0.833333" stroke-linejoin="round"/>
<path d="M272.232 315.472L358.132 279.981L365.557 284.014L272.232 322.772V315.472Z" fill="black" stroke="black" stroke-width="0.833333" stroke-linejoin="round"/>
<path d="M288.083 309.181V278.322L338.275 256.614V288.339L288.083 309.181Z" fill="black"/>
<mask id="mask2_69562_3265" style="mask-type:luminance" maskUnits="userSpaceOnUse" x="288" y="256" width="51" height="54">
<path d="M288.083 309.181V278.322L338.275 256.614V288.339L288.083 309.181Z" fill="white"/>
</mask>
<g mask="url(#mask2_69562_3265)">
<path d="M304.81 266.714V304.906" stroke="#566578" stroke-width="0.833333" stroke-linecap="round" stroke-linejoin="round"/>
<path d="M322.226 260.881V299.081" stroke="#566578" stroke-width="0.833333" stroke-linecap="round" stroke-linejoin="round"/>
</g>
<path d="M289.608 332.347L289.408 333.155C289.258 333.755 289.425 334.397 289.867 334.822C290.933 335.839 293.333 336.547 296.133 336.547C299.075 336.547 301.583 335.764 302.55 334.656C302.9 334.256 302.992 333.681 302.858 333.164L302.658 332.331" fill="#C7C7C7"/>
<path d="M289.608 332.347L289.408 333.155C289.258 333.755 289.425 334.397 289.867 334.822C290.933 335.839 293.333 336.547 296.133 336.547C299.075 336.547 301.583 335.764 302.55 334.656C302.9 334.256 302.992 333.681 302.858 333.164L302.658 332.331" stroke="black" stroke-width="0.833333" stroke-miterlimit="10"/>
<path d="M296.133 335.314C299.737 335.314 302.658 333.986 302.658 332.347C302.658 330.709 299.737 329.381 296.133 329.381C292.53 329.381 289.608 330.709 289.608 332.347C289.608 333.986 292.53 335.314 296.133 335.314Z" fill="#F3F3F3" stroke="black" stroke-width="0.833333" stroke-miterlimit="10"/>
<path d="M291 249.781V330.881C291 332.172 293.3 333.214 296.133 333.214C298.966 333.214 301.266 332.172 301.266 330.881V249.781H290.991" fill="#F3F3F3"/>
<mask id="mask3_69562_3265" style="mask-type:luminance" maskUnits="userSpaceOnUse" x="290" y="249" width="12" height="85">
<path d="M291 249.781V330.881C291 332.172 293.3 333.214 296.133 333.214C298.966 333.214 301.266 332.172 301.266 330.881V249.781H290.991" fill="white"/>
</mask>
<g mask="url(#mask3_69562_3265)">
<path d="M301.951 253.639C301.951 255.097 299.351 256.281 296.134 256.281C295.709 256.281 295.293 256.256 294.884 256.222C293.943 256.131 293.143 256.897 293.143 257.839V332.847C293.143 332.847 291.001 333.081 291.001 330.881V250.706H301.484L301.951 253.639Z" fill="#C7C7C7"/>
</g>
<path d="M291 249.781V330.881C291 332.172 293.3 333.214 296.133 333.214C298.966 333.214 301.266 332.172 301.266 330.881V249.781H290.991" stroke="black" stroke-width="0.833333" stroke-miterlimit="10"/>
<path d="M296.134 252.114C299.346 252.114 301.951 250.931 301.951 249.472C301.951 248.013 299.346 246.831 296.134 246.831C292.922 246.831 290.317 248.013 290.317 249.472C290.317 250.931 292.922 252.114 296.134 252.114Z" fill="#C7C7C7" stroke="black" stroke-width="0.833333" stroke-miterlimit="10"/>
<path d="M289.826 238.814V247.831C289.826 249.414 292.651 250.697 296.134 250.697C299.617 250.697 302.442 249.414 302.442 247.831V238.814H289.817H289.826Z" fill="#C7C7C7" stroke="black" stroke-width="0.833333" stroke-miterlimit="10"/>
<path d="M305.767 325.731L305.567 326.539C305.417 327.139 305.583 327.781 306.025 328.206C307.092 329.222 309.492 329.931 312.292 329.931C315.233 329.931 317.742 329.147 318.708 328.039C319.058 327.639 319.15 327.064 319.017 326.547L318.817 325.714" fill="#C7C7C7"/>
<path d="M305.767 325.731L305.567 326.539C305.417 327.139 305.583 327.781 306.025 328.206C307.092 329.222 309.492 329.931 312.292 329.931C315.233 329.931 317.742 329.147 318.708 328.039C319.058 327.639 319.15 327.064 319.017 326.547L318.817 325.714" stroke="black" stroke-width="0.833333" stroke-miterlimit="10"/>
<path d="M312.292 328.697C315.895 328.697 318.817 327.369 318.817 325.731C318.817 324.092 315.895 322.764 312.292 322.764C308.688 322.764 305.767 324.092 305.767 325.731C305.767 327.369 308.688 328.697 312.292 328.697Z" fill="#F3F3F3" stroke="black" stroke-width="0.833333" stroke-miterlimit="10"/>
<path d="M307.159 243.164V324.264C307.159 325.556 309.459 326.597 312.292 326.597C315.125 326.597 317.425 325.556 317.425 324.264V243.164H307.15" fill="#F3F3F3"/>
<mask id="mask4_69562_3265" style="mask-type:luminance" maskUnits="userSpaceOnUse" x="307" y="243" width="11" height="84">
<path d="M307.159 243.164V324.264C307.159 325.556 309.459 326.597 312.292 326.597C315.125 326.597 317.425 325.556 317.425 324.264V243.164H307.15" fill="white"/>
</mask>
<g mask="url(#mask4_69562_3265)">
<path d="M318.1 247.022C318.1 248.481 315.5 249.664 312.284 249.664C311.859 249.664 311.442 249.639 311.034 249.606C310.092 249.514 309.292 250.281 309.292 251.222V326.231C309.292 326.231 307.15 326.464 307.15 324.264V244.089H317.634L318.1 247.022Z" fill="#C7C7C7"/>
</g>
<path d="M307.159 243.164V324.264C307.159 325.556 309.459 326.597 312.292 326.597C315.125 326.597 317.425 325.556 317.425 324.264V243.164H307.15" stroke="black" stroke-width="0.833333" stroke-miterlimit="10"/>
<path d="M312.291 245.497C315.504 245.497 318.108 244.314 318.108 242.856C318.108 241.397 315.504 240.214 312.291 240.214C309.079 240.214 306.475 241.397 306.475 242.856C306.475 244.314 309.079 245.497 312.291 245.497Z" fill="#C7C7C7" stroke="black" stroke-width="0.833333" stroke-miterlimit="10"/>
<path d="M305.975 232.197V241.214C305.975 242.797 308.8 244.081 312.283 244.081C315.767 244.081 318.592 242.797 318.592 241.214V232.197H305.967H305.975Z" fill="#C7C7C7" stroke="black" stroke-width="0.833333" stroke-miterlimit="10"/>
<path d="M321.917 319.114L321.717 319.922C321.567 320.522 321.734 321.164 322.175 321.589C323.242 322.606 325.642 323.314 328.442 323.314C331.384 323.314 333.892 322.531 334.859 321.422C335.209 321.022 335.3 320.447 335.167 319.931L334.967 319.097" fill="#C7C7C7"/>
<path d="M321.917 319.114L321.717 319.922C321.567 320.522 321.734 321.164 322.175 321.589C323.242 322.606 325.642 323.314 328.442 323.314C331.384 323.314 333.892 322.531 334.859 321.422C335.209 321.022 335.3 320.447 335.167 319.931L334.967 319.097" stroke="black" stroke-width="0.833333" stroke-miterlimit="10"/>
<path d="M328.45 322.081C332.053 322.081 334.975 320.752 334.975 319.114C334.975 317.475 332.053 316.147 328.45 316.147C324.846 316.147 321.925 317.475 321.925 319.114C321.925 320.752 324.846 322.081 328.45 322.081Z" fill="#F3F3F3" stroke="black" stroke-width="0.833333" stroke-miterlimit="10"/>
<path d="M323.308 236.547V317.647C323.308 318.939 325.608 319.981 328.441 319.981C331.275 319.981 333.575 318.939 333.575 317.647V236.547H323.3" fill="#F3F3F3"/>
<mask id="mask5_69562_3265" style="mask-type:luminance" maskUnits="userSpaceOnUse" x="323" y="236" width="11" height="84">
<path d="M323.308 236.547V317.647C323.308 318.939 325.608 319.981 328.441 319.981C331.275 319.981 333.575 318.939 333.575 317.647V236.547H323.3" fill="white"/>
</mask>
<g mask="url(#mask5_69562_3265)">
<path d="M334.258 240.589C334.258 242.047 331.658 243.231 328.441 243.231C328.016 243.231 327.599 243.206 327.191 243.172C326.249 243.081 325.449 243.847 325.449 244.789V319.797C325.449 319.797 323.308 320.031 323.308 317.831V237.656H333.791L334.258 240.589Z" fill="#C7C7C7"/>
</g>
<path d="M323.308 236.547V317.647C323.308 318.939 325.608 319.981 328.441 319.981C331.275 319.981 333.575 318.939 333.575 317.647V236.547H323.3" stroke="black" stroke-width="0.833333" stroke-miterlimit="10"/>
<path d="M328.449 238.881C331.662 238.881 334.266 237.698 334.266 236.239C334.266 234.78 331.662 233.597 328.449 233.597C325.237 233.597 322.633 234.78 322.633 236.239C322.633 237.698 325.237 238.881 328.449 238.881Z" fill="#C7C7C7" stroke="black" stroke-width="0.833333" stroke-miterlimit="10"/>
<path d="M322.132 225.581V234.597C322.132 236.181 324.957 237.464 328.441 237.464C331.924 237.464 334.749 236.181 334.749 234.597V225.581H322.124H322.132Z" fill="#C7C7C7" stroke="black" stroke-width="0.833333" stroke-miterlimit="10"/>
<path d="M346.558 308.789L346.358 309.597C346.208 310.197 346.374 310.839 346.816 311.264C347.883 312.281 350.283 312.989 353.083 312.989C356.024 312.989 358.533 312.205 359.499 311.097C359.849 310.697 359.941 310.122 359.808 309.605L359.608 308.772" fill="#C7C7C7"/>
<path d="M346.558 308.789L346.358 309.597C346.208 310.197 346.374 310.839 346.816 311.264C347.883 312.281 350.283 312.989 353.083 312.989C356.024 312.989 358.533 312.205 359.499 311.097C359.849 310.697 359.941 310.122 359.808 309.605L359.608 308.772" stroke="black" stroke-width="0.833333" stroke-miterlimit="10"/>
<path d="M353.083 311.756C356.686 311.756 359.608 310.427 359.608 308.789C359.608 307.151 356.686 305.822 353.083 305.822C349.479 305.822 346.558 307.151 346.558 308.789C346.558 310.427 349.479 311.756 353.083 311.756Z" fill="#F3F3F3" stroke="black" stroke-width="0.833333" stroke-miterlimit="10"/>
<path d="M347.951 226.231V307.331C347.951 308.622 350.251 309.664 353.084 309.664C355.917 309.664 358.217 308.622 358.217 307.331V226.231H347.942" fill="#F3F3F3"/>
<mask id="mask6_69562_3265" style="mask-type:luminance" maskUnits="userSpaceOnUse" x="347" y="226" width="12" height="84">
<path d="M347.951 226.231V307.331C347.951 308.622 350.251 309.664 353.084 309.664C355.917 309.664 358.217 308.622 358.217 307.331V226.231H347.942" fill="white"/>
</mask>
<g mask="url(#mask6_69562_3265)">
<path d="M358.9 229.806C358.9 231.264 356.3 232.447 353.084 232.447C352.659 232.447 352.242 232.422 351.834 232.389C350.892 232.297 350.092 233.064 350.092 234.006V309.014C350.092 309.014 347.95 309.247 347.95 307.047V226.872H358.434L358.9 229.806Z" fill="#C7C7C7"/>
</g>
<path d="M347.951 226.231V307.331C347.951 308.622 350.251 309.664 353.084 309.664C355.917 309.664 358.217 308.622 358.217 307.331V226.231H347.942" stroke="black" stroke-width="0.833333" stroke-miterlimit="10"/>
<path d="M353.083 228.564C356.296 228.564 358.9 227.381 358.9 225.922C358.9 224.463 356.296 223.281 353.083 223.281C349.871 223.281 347.267 224.463 347.267 225.922C347.267 227.381 349.871 228.564 353.083 228.564Z" fill="#C7C7C7" stroke="black" stroke-width="0.833333" stroke-miterlimit="10"/>
<path d="M346.775 215.264V224.281C346.775 225.864 349.6 227.147 353.083 227.147C356.567 227.147 359.392 225.864 359.392 224.281V215.264H346.767H346.775Z" fill="#C7C7C7" stroke="black" stroke-width="0.833333" stroke-miterlimit="10"/>
<path d="M397.692 207.089V259.797L380.259 267.089V214.389L397.692 207.089Z" fill="black"/>
<mask id="mask7_69562_3265" style="mask-type:luminance" maskUnits="userSpaceOnUse" x="380" y="207" width="18" height="61">
<path d="M397.692 207.089V259.797L380.259 267.089V214.389L397.692 207.089Z" fill="white"/>
</mask>
<g mask="url(#mask7_69562_3265)">
<path d="M396.859 206.164V258.872L374.834 268.097V215.389L396.859 206.164Z" fill="#F3F3F3" stroke="black" stroke-width="0.833333" stroke-linejoin="round"/>
<path d="M388.976 211.147V263.039" stroke="black" stroke-width="0.833333" stroke-linejoin="round"/>
<path d="M375.668 232.981L397.693 223.756" stroke="black" stroke-width="0.833333" stroke-miterlimit="10"/>
<path d="M375.668 249.647L397.693 240.422" stroke="black" stroke-width="0.833333" stroke-miterlimit="10"/>
</g>
<path d="M397.692 207.089V259.797L380.259 267.089V214.389L397.692 207.089Z" stroke="black" stroke-width="0.833333" stroke-miterlimit="10"/>
<path d="M425.384 195.589V248.289L407.95 255.581V202.881L425.384 195.589Z" fill="black"/>
<mask id="mask8_69562_3265" style="mask-type:luminance" maskUnits="userSpaceOnUse" x="407" y="195" width="19" height="61">
<path d="M425.384 195.589V248.289L407.95 255.581V202.881L425.384 195.589Z" fill="white"/>
</mask>
<g mask="url(#mask8_69562_3265)">
<path d="M424.549 194.656V247.364L402.516 256.589V203.881L424.549 194.656Z" fill="#F3F3F3" stroke="black" stroke-width="0.833333" stroke-linejoin="round"/>
<path d="M416.666 199.639V251.531" stroke="black" stroke-width="0.833333" stroke-linejoin="round"/>
<path d="M403.35 221.472L425.383 212.256" stroke="black" stroke-width="0.833333" stroke-miterlimit="10"/>
<path d="M403.35 238.139L425.383 228.922" stroke="black" stroke-width="0.833333" stroke-miterlimit="10"/>
</g>
<path d="M425.384 195.589V248.289L407.95 255.581V202.881L425.384 195.589Z" stroke="black" stroke-width="0.833333" stroke-miterlimit="10"/>
<path d="M453.066 184.081V236.781L435.633 244.072V191.381L453.066 184.081Z" fill="black"/>
<mask id="mask9_69562_3265" style="mask-type:luminance" maskUnits="userSpaceOnUse" x="435" y="184" width="19" height="61">
<path d="M453.066 184.081V236.781L435.633 244.072V191.381L453.066 184.081Z" fill="white"/>
</mask>
<g mask="url(#mask9_69562_3265)">
<path d="M452.234 183.147V235.856L430.209 245.081V192.372L452.234 183.147Z" fill="#F3F3F3" stroke="black" stroke-width="0.833333" stroke-linejoin="round"/>
<path d="M444.351 188.131V240.022" stroke="black" stroke-width="0.833333" stroke-linejoin="round"/>
<path d="M431.041 209.964L453.066 200.747" stroke="black" stroke-width="0.833333" stroke-miterlimit="10"/>
<path d="M431.041 226.631L453.066 217.414" stroke="black" stroke-width="0.833333" stroke-miterlimit="10"/>
</g>
<path d="M453.066 184.081V236.781L435.633 244.072V191.381L453.066 184.081Z" stroke="black" stroke-width="0.833333" stroke-miterlimit="10"/>
<path d="M362.717 302.181L362.517 302.989C362.367 303.589 362.533 304.231 362.975 304.656C364.042 305.672 366.442 306.381 369.242 306.381C372.183 306.381 374.692 305.597 375.658 304.489C376.008 304.089 376.1 303.514 375.967 302.997L375.767 302.164" fill="#C7C7C7"/>
<path d="M362.717 302.181L362.517 302.989C362.367 303.589 362.533 304.231 362.975 304.656C364.042 305.672 366.442 306.381 369.242 306.381C372.183 306.381 374.692 305.597 375.658 304.489C376.008 304.089 376.1 303.514 375.967 302.997L375.767 302.164" stroke="black" stroke-width="0.833333" stroke-miterlimit="10"/>
<path d="M369.242 305.147C372.845 305.147 375.767 303.819 375.767 302.181C375.767 300.542 372.845 299.214 369.242 299.214C365.638 299.214 362.717 300.542 362.717 302.181C362.717 303.819 365.638 305.147 369.242 305.147Z" fill="#F3F3F3" stroke="black" stroke-width="0.833333" stroke-miterlimit="10"/>
<path d="M364.108 219.614V300.714C364.108 302.006 366.408 303.047 369.241 303.047C372.075 303.047 374.375 302.006 374.375 300.714V219.614H364.1" fill="#F3F3F3"/>
<mask id="mask10_69562_3265" style="mask-type:luminance" maskUnits="userSpaceOnUse" x="364" y="219" width="11" height="85">
<path d="M364.108 219.614V300.714C364.108 302.006 366.408 303.047 369.241 303.047C372.075 303.047 374.375 302.006 374.375 300.714V219.614H364.1" fill="white"/>
</mask>
<g mask="url(#mask10_69562_3265)">
<path d="M375.057 223.472C375.057 224.931 372.457 226.114 369.241 226.114C368.816 226.114 368.399 226.089 367.991 226.056C367.049 225.964 366.249 226.731 366.249 227.672V302.681C366.249 302.681 364.107 302.914 364.107 300.714V220.539H374.591L375.057 223.472Z" fill="#C7C7C7"/>
</g>
<path d="M364.108 219.614V300.714C364.108 302.006 366.408 303.047 369.241 303.047C372.075 303.047 374.375 302.006 374.375 300.714V219.614H364.1" stroke="black" stroke-width="0.833333" stroke-miterlimit="10"/>
<path d="M369.241 221.947C372.453 221.947 375.057 220.765 375.057 219.306C375.057 217.847 372.453 216.664 369.241 216.664C366.028 216.664 363.424 217.847 363.424 219.306C363.424 220.765 366.028 221.947 369.241 221.947Z" fill="#C7C7C7" stroke="black" stroke-width="0.833333" stroke-miterlimit="10"/>
<path d="M362.933 208.647V217.664C362.933 219.247 365.758 220.531 369.241 220.531C372.725 220.531 375.55 219.247 375.55 217.664V208.647H362.925H362.933Z" fill="#C7C7C7" stroke="black" stroke-width="0.833333" stroke-miterlimit="10"/>
<path d="M378.875 295.564L378.675 296.372C378.525 296.972 378.692 297.614 379.133 298.039C380.2 299.056 382.6 299.764 385.4 299.764C388.342 299.764 390.85 298.981 391.817 297.872C392.167 297.472 392.258 296.897 392.125 296.381L391.925 295.547" fill="#C7C7C7"/>
<path d="M378.875 295.564L378.675 296.372C378.525 296.972 378.692 297.614 379.133 298.039C380.2 299.056 382.6 299.764 385.4 299.764C388.342 299.764 390.85 298.981 391.817 297.872C392.167 297.472 392.258 296.897 392.125 296.381L391.925 295.547" stroke="black" stroke-width="0.833333" stroke-miterlimit="10"/>
<path d="M385.4 298.531C389.004 298.531 391.925 297.202 391.925 295.564C391.925 293.925 389.004 292.597 385.4 292.597C381.796 292.597 378.875 293.925 378.875 295.564C378.875 297.202 381.796 298.531 385.4 298.531Z" fill="#F3F3F3" stroke="black" stroke-width="0.833333" stroke-miterlimit="10"/>
<path d="M380.258 212.997V294.097C380.258 295.389 382.558 296.431 385.392 296.431C388.225 296.431 390.525 295.389 390.525 294.097V212.997H380.25" fill="#F3F3F3"/>
<mask id="mask11_69562_3265" style="mask-type:luminance" maskUnits="userSpaceOnUse" x="380" y="212" width="11" height="85">
<path d="M380.258 212.997V294.097C380.258 295.389 382.558 296.431 385.392 296.431C388.225 296.431 390.525 295.389 390.525 294.097V212.997H380.25" fill="white"/>
</mask>
<g mask="url(#mask11_69562_3265)">
<path d="M391.209 216.856C391.209 218.314 388.609 219.497 385.392 219.497C384.967 219.497 384.55 219.472 384.142 219.439C383.2 219.347 382.4 220.114 382.4 221.056V296.064C382.4 296.064 380.259 296.297 380.259 294.097V213.922H390.742L391.209 216.856Z" fill="#C7C7C7"/>
</g>
<path d="M380.258 212.997V294.097C380.258 295.389 382.558 296.431 385.392 296.431C388.225 296.431 390.525 295.389 390.525 294.097V212.997H380.25" stroke="black" stroke-width="0.833333" stroke-miterlimit="10"/>
<path d="M385.401 215.331C388.613 215.331 391.217 214.148 391.217 212.689C391.217 211.23 388.613 210.047 385.401 210.047C382.188 210.047 379.584 211.23 379.584 212.689C379.584 214.148 382.188 215.331 385.401 215.331Z" fill="#C7C7C7" stroke="black" stroke-width="0.833333" stroke-miterlimit="10"/>
<path d="M379.084 202.031V211.047C379.084 212.631 381.909 213.914 385.393 213.914C388.876 213.914 391.701 212.631 391.701 211.047V202.031H379.076H379.084Z" fill="#C7C7C7" stroke="black" stroke-width="0.833333" stroke-miterlimit="10"/>
<path d="M469.983 167.264L299.458 238.089L289.824 239.089V242.089L172.416 290.847L27.6328 214.006V209.839L325.199 90.4222L469.983 163.097V167.264Z" fill="#C7C7C7" stroke="black" stroke-width="0.833333" stroke-linejoin="round"/>
<path d="M469.983 163.097L172.416 286.681L27.6328 209.839L325.199 86.2556L469.983 163.097Z" fill="#F3F3F3" stroke="black" stroke-width="0.833333" stroke-linejoin="round"/>
<path d="M464.15 162.239V158.072L325.175 88.4805L34.6582 204.972V209.139L173.633 282.897L464.15 162.239Z" fill="#C7C7C7" stroke="black" stroke-width="0.833333" stroke-linejoin="round"/>
<path d="M464.15 158.072L325.175 84.3139L34.6582 204.972L173.633 278.731L464.15 158.072Z" fill="#F3F3F3" stroke="black" stroke-width="0.833333" stroke-linejoin="round"/>
<path d="M301.475 227.656V245.306L269.584 228.297V238.814L130.609 165.056V154.539L121.184 149.539V136.947" fill="#963000"/>
<mask id="mask12_69562_3265" style="mask-type:luminance" maskUnits="userSpaceOnUse" x="121" y="136" width="181" height="110">
<path d="M301.475 227.656V245.306L269.584 228.297V238.814L130.609 165.056V154.539L121.184 149.539V136.947" fill="white"/>
</mask>
<g mask="url(#mask12_69562_3265)">
<path d="M121.358 139.464L301.475 234.747V227.656L121.95 135.147L121.358 139.464Z" fill="black"/>
</g>
<path d="M301.475 227.656V245.306L269.584 228.297V238.814L130.609 165.056V154.539L121.184 149.539V136.947" stroke="black" stroke-width="0.833333" stroke-linejoin="round"/>
<path d="M399.659 184.031V202.922L301.476 245.306V224.831L350.567 185.689L399.659 184.031Z" fill="#C7C7C7"/>
<mask id="mask13_69562_3265" style="mask-type:luminance" maskUnits="userSpaceOnUse" x="301" y="184" width="99" height="62">
<path d="M399.659 184.031V202.922L301.476 245.306V224.831L350.567 185.689L399.659 184.031Z" fill="white"/>
</mask>
<g mask="url(#mask13_69562_3265)">
<path d="M399.659 190.106L353.084 192.306L301.476 234.747V229.806L352.526 187.181L399.659 184.031V190.106Z" fill="#566578"/>
</g>
<path d="M399.659 184.031V202.922L301.476 245.306V224.831L350.567 185.689L399.659 184.031Z" stroke="black" stroke-width="0.833333" stroke-linejoin="round"/>
<path d="M117.008 134.572L299.474 231.414V225.581L117.008 128.739V134.572Z" fill="#C7C7C7" stroke="black" stroke-width="0.833333" stroke-linejoin="round"/>
<path d="M168.099 86.2639L350.566 183.106L299.474 225.581L117.008 128.739L168.099 86.2639Z" fill="#F3F3F3" stroke="black" stroke-width="0.833333" stroke-linejoin="round"/>
<path d="M168.101 86.2639L350.567 183.106L401.126 180.756L218.659 83.9139L168.101 86.2639Z" fill="#C7C7C7" stroke="black" stroke-width="0.833333" stroke-linejoin="round"/>
<path d="M401.126 180.756L350.567 183.106L299.476 225.581V231.414L352.576 187.272L401.126 184.922V180.756Z" fill="#C7C7C7" stroke="black" stroke-width="0.833333" stroke-linejoin="round"/>
<path d="M53.4512 237.472V290.181L75.4762 301.872V249.164L53.4512 237.472Z" fill="black"/>
<mask id="mask14_69562_3265" style="mask-type:luminance" maskUnits="userSpaceOnUse" x="53" y="237" width="23" height="65">
<path d="M53.4512 237.472V290.181L75.4762 301.872V249.164L53.4512 237.472Z" fill="white"/>
</mask>
<g mask="url(#mask14_69562_3265)">
<path d="M54.2832 236.639V289.347L76.3082 301.039V248.331L54.2832 236.639Z" fill="#F3F3F3" stroke="black" stroke-width="0.833333" stroke-linejoin="round"/>
<path d="M64.4678 243.322V295.214" stroke="black" stroke-width="0.833333" stroke-linejoin="round"/>
<path d="M75.4762 265.831L53.4512 254.139" stroke="black" stroke-width="0.833333" stroke-miterlimit="10"/>
<path d="M75.4762 282.497L53.4512 270.806" stroke="black" stroke-width="0.833333" stroke-miterlimit="10"/>
</g>
<path d="M53.4512 237.472V290.181L75.4762 301.872V249.164L53.4512 237.472Z" stroke="black" stroke-width="0.833333" stroke-miterlimit="10"/>
<path d="M93.208 258.722V311.431L115.241 323.122V270.414L93.208 258.722Z" fill="black"/>
<mask id="mask15_69562_3265" style="mask-type:luminance" maskUnits="userSpaceOnUse" x="93" y="258" width="23" height="66">
<path d="M93.208 258.722V311.431L115.241 323.122V270.414L93.208 258.722Z" fill="white"/>
</mask>
<g mask="url(#mask15_69562_3265)">
<path d="M94.042 257.889V310.597L116.075 322.289V269.581L94.042 257.889Z" fill="#F3F3F3" stroke="black" stroke-width="0.833333" stroke-linejoin="round"/>
<path d="M104.225 264.572V316.464" stroke="black" stroke-width="0.833333" stroke-linejoin="round"/>
<path d="M115.241 287.081L93.208 275.389" stroke="black" stroke-width="0.833333" stroke-miterlimit="10"/>
<path d="M115.241 303.747L93.208 292.056" stroke="black" stroke-width="0.833333" stroke-miterlimit="10"/>
</g>
<path d="M93.208 258.722V311.431L115.241 323.122V270.414L93.208 258.722Z" stroke="black" stroke-width="0.833333" stroke-miterlimit="10"/>
<path d="M132.967 279.972V332.681L155 344.372V291.664L132.967 279.972Z" fill="black"/>
<mask id="mask16_69562_3265" style="mask-type:luminance" maskUnits="userSpaceOnUse" x="132" y="279" width="23" height="66">
<path d="M132.967 279.972V332.681L155 344.372V291.664L132.967 279.972Z" fill="white"/>
</mask>
<g mask="url(#mask16_69562_3265)">
<path d="M133.801 279.139V331.847L155.834 343.539V290.831L133.801 279.139Z" fill="#F3F3F3" stroke="black" stroke-width="0.833333" stroke-linejoin="round"/>
<path d="M143.983 285.814V337.706" stroke="black" stroke-width="0.833333" stroke-linejoin="round"/>
<path d="M155 308.331L132.967 296.639" stroke="black" stroke-width="0.833333" stroke-miterlimit="10"/>
<path d="M155 324.997L132.967 313.306" stroke="black" stroke-width="0.833333" stroke-miterlimit="10"/>
</g>
<path d="M132.967 279.972V332.681L155 344.372V291.664L132.967 279.972Z" stroke="black" stroke-width="0.833333" stroke-miterlimit="10"/>
<path d="M205 289.539V342.247L187.566 349.531V296.839L205 289.539Z" fill="black"/>
<mask id="mask17_69562_3265" style="mask-type:luminance" maskUnits="userSpaceOnUse" x="187" y="289" width="18" height="61">
<path d="M205 289.539V342.247L187.566 349.531V296.839L205 289.539Z" fill="white"/>
</mask>
<g mask="url(#mask17_69562_3265)">
<path d="M204.167 288.614V341.322L182.134 350.539V297.839L204.167 288.614Z" fill="#F3F3F3" stroke="black" stroke-width="0.833333" stroke-linejoin="round"/>
<path d="M196.284 293.589V345.481" stroke="black" stroke-width="0.833333" stroke-linejoin="round"/>
<path d="M182.967 315.431L205 306.206" stroke="black" stroke-width="0.833333" stroke-miterlimit="10"/>
<path d="M182.967 332.097L205 322.872" stroke="black" stroke-width="0.833333" stroke-miterlimit="10"/>
</g>
<path d="M205 289.539V342.247L187.566 349.531V296.839L205 289.539Z" stroke="black" stroke-width="0.833333" stroke-miterlimit="10"/>
<path d="M232.682 278.031V330.739L215.249 338.031V285.331L232.682 278.031Z" fill="black"/>
<mask id="mask18_69562_3265" style="mask-type:luminance" maskUnits="userSpaceOnUse" x="215" y="278" width="18" height="61">
<path d="M232.682 278.031V330.739L215.249 338.031V285.331L232.682 278.031Z" fill="white"/>
</mask>
<g mask="url(#mask18_69562_3265)">
<path d="M231.85 277.106V329.814L209.825 339.039V286.331L231.85 277.106Z" fill="#F3F3F3" stroke="black" stroke-width="0.833333" stroke-linejoin="round"/>
<path d="M223.967 282.081V333.972" stroke="black" stroke-width="0.833333" stroke-linejoin="round"/>
<path d="M210.659 303.922L232.684 294.697" stroke="black" stroke-width="0.833333" stroke-miterlimit="10"/>
<path d="M210.659 320.589L232.684 311.364" stroke="black" stroke-width="0.833333" stroke-miterlimit="10"/>
</g>
<path d="M232.682 278.031V330.739L215.249 338.031V285.331L232.682 278.031Z" stroke="black" stroke-width="0.833333" stroke-miterlimit="10"/>
<path d="M260.376 266.522V319.231L242.942 326.522V273.822L260.376 266.522Z" fill="black"/>
<mask id="mask19_69562_3265" style="mask-type:luminance" maskUnits="userSpaceOnUse" x="242" y="266" width="19" height="61">
<path d="M260.376 266.522V319.231L242.942 326.522V273.822L260.376 266.522Z" fill="white"/>
</mask>
<g mask="url(#mask19_69562_3265)">
<path d="M259.542 265.597V318.306L237.509 327.531V274.822L259.542 265.597Z" fill="#F3F3F3" stroke="black" stroke-width="0.833333" stroke-linejoin="round"/>
<path d="M251.658 270.572V322.464" stroke="black" stroke-width="0.833333" stroke-linejoin="round"/>
<path d="M238.343 292.414L260.376 283.189" stroke="black" stroke-width="0.833333" stroke-miterlimit="10"/>
<path d="M238.343 309.081L260.376 299.856" stroke="black" stroke-width="0.833333" stroke-miterlimit="10"/>
</g>
<path d="M260.376 266.522V319.231L242.942 326.522V273.822L260.376 266.522Z" stroke="black" stroke-width="0.833333" stroke-miterlimit="10"/>
<path d="M269.584 228.297V238.814L280.742 234.247L269.584 228.297Z" fill="#566578" stroke="black" stroke-width="0.833333" stroke-miterlimit="10"/>
</g>
<defs>
</defs>
</svg>
