<svg width="500" height="500" viewBox="0 0 500 500" fill="none" xmlns="http://www.w3.org/2000/svg">
<g>
<path d="M250 445.392C329.856 445.392 394.592 417.212 394.592 382.45C394.592 347.688 329.856 319.508 250 319.508C170.144 319.508 105.408 347.688 105.408 382.45C105.408 417.212 170.144 445.392 250 445.392Z" fill="black"/>
<path d="M92.7249 147.567C92.7249 104.217 172.208 69.0834 270.25 69.0834C293.033 69.0834 314.808 70.9834 334.825 74.4334C336.058 74.6501 336.958 75.7251 336.958 76.9751L337.1 206.583C337.1 208.183 335.658 209.392 334.083 209.125C314.275 205.75 292.75 203.9 270.25 203.9C172.2 203.9 92.7249 239.042 92.7249 282.383V147.558V147.567Z" fill="black"/>
<mask id="mask0_69562_87" style="mask-type:luminance" maskUnits="userSpaceOnUse" x="92" y="69" width="246" height="214">
<path d="M92.7249 147.567C92.7249 104.217 172.208 69.0834 270.25 69.0834C293.033 69.0834 314.808 70.9834 334.825 74.4334C336.058 74.6501 336.958 75.7251 336.958 76.9751L337.1 206.583C337.1 208.183 335.658 209.392 334.083 209.125C314.275 205.75 292.75 203.9 270.25 203.9C172.2 203.9 92.7249 239.042 92.7249 282.383V147.558V147.567Z" fill="white"/>
</mask>
<g mask="url(#mask0_69562_87)">
<path d="M337.1 73.0335C337.1 73.0335 313.35 63.5335 292.725 91.3584C257.466 138.917 238.025 166.233 220.016 193.625C207.716 212.317 217.975 210.133 217.975 210.133C217.975 210.133 118.908 252.883 134.775 231.942C159.075 199.867 200.466 137.333 217.975 112.567C246.916 71.6251 235.716 69.4751 235.716 69.4751C235.716 69.4751 290.483 57.9751 337.108 73.0335H337.1Z" fill="#566578"/>
<path opacity="0.5" d="M92.5663 155.458C92.5663 108.992 174.166 73.9751 267.716 73.9751C289.45 73.9751 310.233 75.7834 329.324 79.0834C330.508 79.2834 331.358 80.3168 331.358 81.5084L331.491 201C331.491 202.533 330.116 203.683 328.608 203.425C309.708 200.208 289.175 198.442 267.708 198.442C174.158 198.442 98.3246 231.967 98.3246 273.325" stroke="#C7C7C7" stroke-width="0.833333" stroke-miterlimit="10"/>
</g>
<path d="M92.7249 147.567C92.7249 104.217 172.208 69.0834 270.25 69.0834C293.033 69.0834 314.808 70.9834 334.825 74.4334C336.058 74.6501 336.958 75.7251 336.958 76.9751L337.1 206.583C337.1 208.183 335.658 209.392 334.083 209.125C314.275 205.75 292.75 203.9 270.25 203.9C172.2 203.9 92.7249 239.042 92.7249 282.383V147.558V147.567Z" stroke="black" stroke-width="0.833333" stroke-miterlimit="10"/>
<path d="M217.966 266.917C217.966 268.017 218.841 268.925 219.941 268.95C223.408 269.042 226.9 269.083 230.408 269.083C273.341 269.083 312.725 262.342 343.425 251.125C344.466 250.742 345.15 249.75 345.15 248.633V178.383C345.15 176.975 343.75 176 342.425 176.483C311.875 187.483 272.883 194.075 230.408 194.075C227.141 194.075 223.9 194.033 220.675 193.958C219.191 193.925 217.966 195.108 217.966 196.6V266.908V266.917Z" fill="#F3F3F3"/>
<mask id="mask1_69562_87" style="mask-type:luminance" maskUnits="userSpaceOnUse" x="217" y="176" width="129" height="94">
<path d="M217.966 266.917C217.966 268.017 218.841 268.925 219.941 268.95C223.408 269.042 226.9 269.083 230.408 269.083C273.341 269.083 312.725 262.342 343.425 251.125C344.466 250.742 345.15 249.75 345.15 248.633V178.383C345.15 176.975 343.75 176 342.425 176.483C311.875 187.483 272.883 194.075 230.408 194.075C227.141 194.075 223.9 194.033 220.675 193.958C219.191 193.925 217.966 195.108 217.966 196.6V266.908V266.917Z" fill="white"/>
</mask>
<g mask="url(#mask1_69562_87)">
<path d="M222.467 270.417V256.142C222.467 254.817 223.542 253.733 224.867 253.717C276.742 253.092 317.233 245.042 350.091 230.967V256.575C350.091 256.575 218.7 270.442 222.467 270.408V270.417Z" fill="#C7C7C7"/>
</g>
<path d="M217.966 266.917C217.966 268.017 218.841 268.925 219.941 268.95C223.408 269.042 226.9 269.083 230.408 269.083C273.341 269.083 312.725 262.342 343.425 251.125C344.466 250.742 345.15 249.75 345.15 248.633V178.383C345.15 176.975 343.75 176 342.425 176.483C311.875 187.483 272.883 194.075 230.408 194.075C227.141 194.075 223.9 194.033 220.675 193.958C219.191 193.925 217.966 195.108 217.966 196.6V266.908V266.917Z" stroke="black" stroke-width="0.833333" stroke-miterlimit="10"/>
<path d="M328.3 246.767C328.3 272.083 307.783 294.225 282.466 296.225C257.15 298.225 236.633 279.333 236.633 254.017C236.633 228.7 257.15 206.558 282.466 204.558C307.783 202.558 328.3 221.45 328.3 246.767Z" stroke="white" stroke-width="6.66666" stroke-miterlimit="10"/>
<path d="M317.883 247.592C317.883 267.15 302.025 284.267 282.466 285.808C262.908 287.358 247.05 272.758 247.05 253.192C247.05 233.625 262.908 216.517 282.466 214.975C302.025 213.425 317.883 228.025 317.883 247.592Z" stroke="white" stroke-width="6.66666" stroke-miterlimit="10"/>
<path d="M307.467 248.417C307.467 262.225 296.275 274.3 282.467 275.392C268.658 276.483 257.467 266.175 257.467 252.367C257.467 238.558 268.658 226.483 282.467 225.392C296.275 224.3 307.467 234.608 307.467 248.417Z" stroke="white" stroke-width="6.66666" stroke-miterlimit="10"/>
<path opacity="0.7" d="M328.3 246.767C328.3 272.083 307.783 294.225 282.466 296.225C257.15 298.225 236.633 279.333 236.633 254.017C236.633 228.7 257.15 206.558 282.466 204.558C307.783 202.558 328.3 221.45 328.3 246.767Z" stroke="#C7C7C7" stroke-width="0.833333" stroke-miterlimit="10"/>
<path opacity="0.7" d="M317.883 247.592C317.883 267.15 302.025 284.267 282.466 285.808C262.908 287.358 247.05 272.758 247.05 253.192C247.05 233.625 262.908 216.517 282.466 214.975C302.025 213.425 317.883 228.025 317.883 247.592Z" stroke="#C7C7C7" stroke-width="0.833333" stroke-miterlimit="10"/>
<path opacity="0.7" d="M307.467 248.417C307.467 262.225 296.275 274.3 282.467 275.392C268.658 276.483 257.467 266.175 257.467 252.367C257.467 238.558 268.658 226.483 282.467 225.392C296.275 224.3 307.467 234.608 307.467 248.417Z" stroke="#C7C7C7" stroke-width="0.833333" stroke-miterlimit="10"/>
<path d="M282.466 204.558C307.783 202.558 328.3 221.45 328.3 246.767C328.3 272.083 307.783 294.225 282.466 296.225C257.15 298.225 236.633 279.333 236.633 254.017" stroke="#FF5200" stroke-width="6.66666" stroke-miterlimit="10" stroke-linecap="round"/>
<path d="M282.467 214.975C302.025 213.425 317.883 228.025 317.883 247.592" stroke="#FF5200" stroke-width="6.66666" stroke-miterlimit="10" stroke-linecap="round"/>
<path d="M282.467 225.392C292.408 224.608 300.992 229.725 305.025 237.808" stroke="#C3C4A1" stroke-width="6.66666" stroke-miterlimit="10" stroke-linecap="round"/>
<path d="M282.466 214.975C302.025 213.425 317.883 228.025 317.883 247.592C317.883 267.158 302.025 284.267 282.466 285.808C262.908 287.358 247.05 272.758 247.05 253.192" stroke="#566578" stroke-width="6.66666" stroke-miterlimit="10" stroke-linecap="round"/>
<path d="M282.466 204.558C307.783 202.558 328.3 221.45 328.3 246.767C328.3 272.083 307.783 294.225 282.466 296.225C257.15 298.225 236.633 279.333 236.633 254.017C236.633 247.067 238.183 240.358 240.95 234.233" stroke="#FF5200" stroke-width="6.66666" stroke-miterlimit="10" stroke-linecap="round"/>
<path d="M145.15 205.25C145.15 204.233 144.55 203.317 143.617 202.9C112.142 188.742 92.725 169.317 92.725 147.892V282.392C92.725 303.325 111.258 322.342 141.475 336.417C143.183 337.217 145.15 335.958 145.15 334.075V205.258V205.25Z" fill="#F3F3F3" stroke="black" stroke-width="0.833333" stroke-miterlimit="10"/>
<path d="M92.725 264.558C92.725 283.892 108.542 301.6 134.767 315.275V215.275C108.542 201.592 92.725 183.892 92.725 164.558V264.558Z" fill="white" stroke="black" stroke-width="0.833333" stroke-miterlimit="10"/>
<path d="M125.275 309.725L119.35 305.642V222.583L125.275 226.667V309.725Z" fill="#FF5200"/>
<path d="M100.275 287.225L95.3167 278.15V240.308C95.3167 240.067 95.65 239.983 95.75 240.208C96.2167 241.208 97 242.8 97.8 244.108C98.7667 245.683 99.6167 246.9 100.025 247.467C100.192 247.7 100.283 247.975 100.283 248.267V287.233L100.275 287.225Z" fill="#566578"/>
<path d="M112.775 300.558L106.85 295.275V239.492C106.85 239.283 107.1 239.183 107.242 239.342C108.05 240.267 110.042 242.442 112.534 244.367C112.692 244.483 112.784 244.667 112.784 244.867V300.567L112.775 300.558Z" fill="#FF945B"/>
<path d="M134.767 231.942C108.542 218.258 92.725 200.558 92.725 181.225" stroke="black" stroke-width="0.416666" stroke-miterlimit="10"/>
<path d="M134.767 248.608C108.542 234.925 92.7252 217.225 92.7252 197.892" stroke="black" stroke-width="0.416666" stroke-miterlimit="10"/>
<path d="M134.767 265.275C108.542 251.592 92.7252 233.892 92.7252 214.558" stroke="black" stroke-width="0.416666" stroke-miterlimit="10"/>
<path d="M134.767 281.942C108.542 268.258 92.7252 250.558 92.7252 231.225" stroke="black" stroke-width="0.416666" stroke-miterlimit="10"/>
<path d="M134.767 298.608C108.542 284.925 92.7252 267.225 92.7252 247.892" stroke="black" stroke-width="0.416666" stroke-miterlimit="10"/>
<path d="M355.516 260.242C355.516 261.258 356.116 262.175 357.05 262.592C388.525 276.75 407.941 296.175 407.941 317.6V183.1C407.941 162.167 389.408 143.15 359.191 129.075C357.483 128.275 355.516 129.533 355.516 131.417V260.233V260.242Z" fill="#566578"/>
<mask id="mask2_69562_87" style="mask-type:luminance" maskUnits="userSpaceOnUse" x="355" y="128" width="53" height="190">
<path d="M355.516 260.242C355.516 261.258 356.116 262.175 357.05 262.592C388.525 276.75 407.941 296.175 407.941 317.6V183.1C407.941 162.167 389.408 143.15 359.191 129.075C357.483 128.275 355.516 129.533 355.516 131.417V260.233V260.242Z" fill="white"/>
</mask>
<g mask="url(#mask2_69562_87)">
<g opacity="0.5">
<path d="M360.117 257.4C360.117 258.325 360.667 259.167 361.517 259.55C390.233 272.467 407.942 290.183 407.942 309.733V187.033C407.942 167.933 391.033 150.583 363.467 137.75C361.908 137.025 360.117 138.167 360.117 139.883V257.4Z" stroke="#C7C7C7" stroke-width="0.833333" stroke-miterlimit="10"/>
</g>
</g>
<path d="M355.516 260.242C355.516 261.258 356.116 262.175 357.05 262.592C388.525 276.75 407.941 296.175 407.941 317.6V183.1C407.941 162.167 389.408 143.15 359.191 129.075C357.483 128.275 355.516 129.533 355.516 131.417V260.233V260.242Z" stroke="black" stroke-width="0.833333" stroke-miterlimit="10"/>
<path d="M407.941 317.925C407.941 361.275 328.458 396.408 230.416 396.408C207.633 396.408 185.858 394.508 165.841 391.058C164.608 390.842 163.708 389.767 163.708 388.517L163.566 258.908C163.566 257.308 165.008 256.1 166.583 256.367C186.391 259.742 207.916 261.592 230.416 261.592C328.466 261.592 407.941 226.45 407.941 183.108V317.933V317.925Z" fill="#F3F3F3" stroke="black" stroke-width="0.833333" stroke-miterlimit="10"/>
<path d="M407.942 304.592C407.942 347.942 328.458 383.075 230.417 383.075C211.992 383.075 194.225 381.833 177.517 379.533V272.033C194.225 274.333 211.992 275.575 230.417 275.575C328.467 275.575 407.942 240.433 407.942 197.092V304.592Z" fill="white" stroke="black" stroke-width="0.833333" stroke-miterlimit="10"/>
<path d="M177.508 361.425C194.217 363.558 211.983 364.708 230.408 364.708C242.925 364.708 255.15 364.175 266.933 363.167V373.2C255.142 374.208 242.925 374.742 230.408 374.742C211.983 374.742 194.217 373.592 177.508 371.458V361.425Z" fill="#FF5200"/>
<mask id="mask3_69562_87" style="mask-type:luminance" maskUnits="userSpaceOnUse" x="177" y="361" width="90" height="14">
<path d="M177.508 361.425C194.217 363.558 211.983 364.708 230.408 364.708C242.925 364.708 255.15 364.175 266.933 363.167V373.2C255.142 374.208 242.925 374.742 230.408 374.742C211.983 374.742 194.217 373.592 177.508 371.458V361.425Z" fill="white"/>
</mask>
<g mask="url(#mask3_69562_87)">
<path d="M263.7 278.242C263.7 278.242 252.209 283.267 240.617 299.7C222.225 325.783 213.725 337.817 187.234 377.233L168.884 374.742L170.767 274.708C170.767 274.708 222.992 283.617 263.7 278.242Z" fill="#963000"/>
</g>
<path d="M177.508 341.35C194.217 343.483 211.983 344.633 230.408 344.633C257.267 344.633 282.733 342.192 305.55 337.817V347.85C282.733 352.225 257.267 354.667 230.408 354.667C211.983 354.667 194.217 353.517 177.508 351.383V341.35Z" fill="#FF5200"/>
<mask id="mask4_69562_87" style="mask-type:luminance" maskUnits="userSpaceOnUse" x="177" y="337" width="129" height="18">
<path d="M177.508 341.35C194.217 343.483 211.983 344.633 230.408 344.633C257.267 344.633 282.733 342.192 305.55 337.817V347.85C282.733 352.225 257.267 354.667 230.408 354.667C211.983 354.667 194.217 353.517 177.508 351.383V341.35Z" fill="white"/>
</mask>
<g mask="url(#mask4_69562_87)">
<path d="M263.7 278.242C263.7 278.242 252.209 283.267 240.617 299.7C222.225 325.783 213.725 337.817 187.234 377.233L168.884 374.742L170.767 274.708C170.767 274.708 222.992 283.617 263.7 278.242Z" fill="#963000"/>
</g>
<path d="M177.508 331.317C194.217 333.45 211.983 334.6 230.408 334.6C279.642 334.6 324.2 326.392 356.358 313.133V303.1C324.2 316.358 279.642 324.567 230.408 324.567C211.983 324.567 194.217 323.417 177.508 321.283V331.317Z" fill="#FF5200"/>
<mask id="mask5_69562_87" style="mask-type:luminance" maskUnits="userSpaceOnUse" x="177" y="303" width="180" height="32">
<path d="M177.508 331.317C194.217 333.45 211.983 334.6 230.408 334.6C279.642 334.6 324.2 326.392 356.358 313.133V303.1C324.2 316.358 279.642 324.567 230.408 324.567C211.983 324.567 194.217 323.417 177.508 321.283V331.317Z" fill="white"/>
</mask>
<g mask="url(#mask5_69562_87)">
<path d="M263.7 278.242C263.7 278.242 252.209 283.267 240.617 299.7C222.225 325.783 213.725 337.817 187.234 377.233L168.884 374.742L170.767 274.708C170.767 274.708 222.992 283.617 263.7 278.242Z" fill="#963000"/>
</g>
<path d="M177.508 291.167C194.217 293.3 211.983 294.45 230.408 294.45C301.8 294.45 363.35 277.192 391.533 252.308V242.275C363.342 267.158 301.792 284.417 230.408 284.417C211.983 284.417 194.217 283.267 177.508 281.133V291.167Z" fill="#FF5200"/>
<mask id="mask6_69562_87" style="mask-type:luminance" maskUnits="userSpaceOnUse" x="177" y="242" width="215" height="53">
<path d="M177.508 291.167C194.217 293.3 211.983 294.45 230.408 294.45C301.8 294.45 363.35 277.192 391.533 252.308V242.275C363.342 267.158 301.792 284.417 230.408 284.417C211.983 284.417 194.217 283.267 177.508 281.133V291.167Z" fill="white"/>
</mask>
<g mask="url(#mask6_69562_87)">
<path d="M263.7 278.242C263.7 278.242 252.209 283.267 240.617 299.7C222.225 325.783 213.725 337.817 187.234 377.233L168.884 374.742L170.767 274.708C170.767 274.708 222.992 283.617 263.7 278.242Z" fill="#963000"/>
</g>
<path d="M177.508 311.242C194.217 313.375 211.983 314.525 230.408 314.525C290.725 314.525 344.017 302.208 376.1 283.375V273.342C344.017 292.175 290.725 304.492 230.408 304.492C211.983 304.492 194.217 303.342 177.508 301.208V311.242Z" fill="#FF5200"/>
<mask id="mask7_69562_87" style="mask-type:luminance" maskUnits="userSpaceOnUse" x="177" y="273" width="200" height="42">
<path d="M177.508 311.242C194.217 313.375 211.983 314.525 230.408 314.525C290.725 314.525 344.017 302.208 376.1 283.375V273.342C344.017 292.175 290.725 304.492 230.408 304.492C211.983 304.492 194.217 303.342 177.508 301.208V311.242Z" fill="white"/>
</mask>
<g mask="url(#mask7_69562_87)">
<path d="M263.7 278.242C263.7 278.242 252.209 283.267 240.617 299.7C222.225 325.783 213.725 337.817 187.234 377.233L168.884 374.742L170.767 274.708C170.767 274.708 222.992 283.617 263.7 278.242Z" fill="#963000"/>
</g>
<path d="M228.058 275.567V383.075" stroke="black" stroke-width="0.416666" stroke-miterlimit="10"/>
<path d="M278.058 272.717V380.217" stroke="black" stroke-width="0.416666" stroke-miterlimit="10"/>
<path d="M328.058 262.642V370.142" stroke="black" stroke-width="0.416666" stroke-miterlimit="10"/>
<path d="M369.725 245.883V353.242" stroke="black" stroke-width="0.416666" stroke-miterlimit="10"/>
<path d="M394.725 226.85V334.6" stroke="black" stroke-width="0.416666" stroke-miterlimit="10"/>
<path d="M252.575 427.558C286.442 425.833 317.408 419.9 342.725 410.967C344.183 410.45 345.15 409.067 345.15 407.517V316.592C345.15 315.058 343.642 313.975 342.2 314.483C317.267 323.217 286.9 329.042 253.708 330.825C251.758 330.933 250.225 332.525 250.225 334.475V425.317C250.225 426.592 251.3 427.617 252.567 427.55L252.575 427.558Z" fill="#566578"/>
<mask id="mask8_69562_87" style="mask-type:luminance" maskUnits="userSpaceOnUse" x="250" y="314" width="96" height="114">
<path d="M252.575 427.558C286.442 425.833 317.408 419.9 342.725 410.967C344.183 410.45 345.15 409.067 345.15 407.517V316.592C345.15 315.058 343.642 313.975 342.2 314.483C317.267 323.217 286.9 329.042 253.708 330.825C251.758 330.933 250.225 332.525 250.225 334.475V425.317C250.225 426.592 251.3 427.617 252.567 427.55L252.575 427.558Z" fill="white"/>
</mask>
<g mask="url(#mask8_69562_87)">
<path opacity="0.5" d="M321.783 320.283C321.783 320.283 306.566 321.533 296.708 333.275C277.241 356.458 271.45 363.233 256.083 387.008C250.008 396.408 249.85 404.3 249.85 404.3L245.091 326.583L321.791 320.283H321.783Z" fill="#F3F3F3"/>
</g>
<path d="M252.575 427.558C286.442 425.833 317.408 419.9 342.725 410.967C344.183 410.45 345.15 409.067 345.15 407.517V316.592C345.15 315.058 343.642 313.975 342.2 314.483C317.267 323.217 286.9 329.042 253.708 330.825C251.758 330.933 250.225 332.525 250.225 334.475V425.317C250.225 426.592 251.3 427.617 252.567 427.55L252.575 427.558Z" stroke="black" stroke-width="0.833333" stroke-miterlimit="10"/>
<path d="M424.608 284.592C424.608 302.1 411.642 318.267 389.733 331.317C388.867 331.833 387.767 331.2 387.767 330.192V267.508C387.767 266.45 388.333 265.475 389.25 264.933C411.458 251.833 424.608 235.558 424.608 217.925V284.592Z" fill="#566578"/>
<mask id="mask9_69562_87" style="mask-type:luminance" maskUnits="userSpaceOnUse" x="387" y="217" width="38" height="115">
<path d="M424.608 284.592C424.608 302.1 411.642 318.267 389.733 331.317C388.867 331.833 387.767 331.2 387.767 330.192V267.508C387.767 266.45 388.333 265.475 389.25 264.933C411.458 251.833 424.608 235.558 424.608 217.925V284.592Z" fill="white"/>
</mask>
<g mask="url(#mask9_69562_87)">
<path opacity="0.5" d="M424.708 267.158C424.633 283.425 413.375 298.483 394.158 310.925V315.092C413.375 302.65 424.633 287.592 424.708 271.325" stroke="#C7C7C7" stroke-width="0.833333" stroke-miterlimit="10"/>
<path opacity="0.5" d="M424.708 250.492C424.633 266.758 413.375 281.817 394.158 294.258V298.425C413.375 285.983 424.633 270.925 424.708 254.658" stroke="#C7C7C7" stroke-width="0.833333" stroke-miterlimit="10"/>
<path opacity="0.5" d="M424.708 233.825C424.633 250.092 413.375 265.15 394.158 277.592V281.758C413.375 269.317 424.633 254.258 424.708 237.992" stroke="#C7C7C7" stroke-width="0.833333" stroke-miterlimit="10"/>
</g>
<path d="M424.608 284.592C424.608 302.1 411.642 318.267 389.733 331.317C388.867 331.833 387.767 331.2 387.767 330.192V267.508C387.767 266.45 388.333 265.475 389.25 264.933C411.458 251.833 424.608 235.558 424.608 217.925V284.592Z" stroke="black" stroke-width="0.833333" stroke-miterlimit="10"/>
<path d="M405.058 274.083V277.417C402.641 279.567 400.125 281.675 397.35 283.725V280.725L405.058 274.083Z" fill="black"/>
<path d="M92.725 264.558C92.725 283.892 108.542 301.6 134.767 315.275" stroke="black" stroke-width="0.833333" stroke-miterlimit="10"/>
<path d="M177.508 379.533V272.033" stroke="black" stroke-width="0.833333" stroke-miterlimit="10"/>
<path d="M330.683 380.175L312.875 377.008C311.891 381.075 309.375 384.642 305.975 387L315.691 401.883C323.066 396.75 328.55 389.008 330.691 380.175H330.683Z" fill="#963000" stroke="black" stroke-width="0.416666" stroke-miterlimit="10"/>
<path d="M297.692 389.975C291.433 390.408 286.05 387.108 283.542 381.975L266.95 390.958C272.392 402.092 284.108 409.25 297.692 408.3C304.3 407.842 310.467 405.517 315.692 401.883L305.975 387C303.567 388.675 300.733 389.75 297.692 389.967V389.975Z" fill="#FF5200" stroke="black" stroke-width="0.416666" stroke-miterlimit="10"/>
<path d="M282.024 375.4C282.024 366.75 289.033 359.25 297.683 358.65V340.317C278.908 341.625 263.691 357.9 263.691 376.675C263.691 381.867 264.858 386.7 266.941 390.958L283.533 381.975C282.574 380.017 282.024 377.792 282.024 375.4Z" fill="#FF945B"/>
<mask id="mask10_69562_87" style="mask-type:luminance" maskUnits="userSpaceOnUse" x="263" y="340" width="35" height="51">
<path d="M282.024 375.4C282.024 366.75 289.033 359.25 297.683 358.65V340.317C278.908 341.625 263.691 357.9 263.691 376.675C263.691 381.867 264.858 386.7 266.941 390.958L283.533 381.975C282.574 380.017 282.024 377.792 282.024 375.4Z" fill="white"/>
</mask>
<g mask="url(#mask10_69562_87)">
<path opacity="0.5" d="M321.783 320.283C321.783 320.283 306.566 321.533 296.708 333.275C277.241 356.458 271.45 363.233 256.083 387.008C250.008 396.408 249.85 404.3 249.85 404.3L245.091 326.583L321.791 320.283H321.783Z" fill="#F3F3F3"/>
</g>
<path d="M282.024 375.4C282.024 366.75 289.033 359.25 297.683 358.65V340.317C278.908 341.625 263.691 357.9 263.691 376.675C263.691 381.867 264.858 386.7 266.941 390.958L283.533 381.975C282.574 380.017 282.024 377.792 282.024 375.4Z" stroke="black" stroke-width="0.416666" stroke-miterlimit="10"/>
<path d="M313.349 373.217C313.349 374.517 313.174 375.783 312.874 377.008L330.683 380.175C331.324 377.517 331.674 374.758 331.674 371.942C331.674 357.9 323.158 346.442 311.008 342.1L303.816 359.467C309.416 361.467 313.341 366.742 313.341 373.217H313.349Z" fill="#ECE0D6" stroke="black" stroke-width="0.416666" stroke-miterlimit="10"/>
<path d="M303.833 359.475L311.025 342.108C306.933 340.65 302.425 339.992 297.7 340.317V358.65C299.883 358.5 301.958 358.8 303.841 359.475H303.833Z" fill="#CEC4A1" stroke="black" stroke-width="0.416666" stroke-miterlimit="10"/>
<path d="M266.95 390.958L283.542 381.975" stroke="black" stroke-width="0.416666" stroke-miterlimit="10"/>
<path d="M305.975 387.008L315.692 401.892" stroke="black" stroke-width="0.416666" stroke-miterlimit="10"/>
<path d="M312.875 377.008L330.683 380.175" stroke="black" stroke-width="0.416666" stroke-miterlimit="10"/>
<path d="M303.833 359.475L311.017 342.108" stroke="black" stroke-width="0.416666" stroke-miterlimit="10"/>
<path d="M297.691 358.65V340.317" stroke="black" stroke-width="0.416666" stroke-miterlimit="10"/>
<path d="M406.617 268.158L405.05 267.417C402.633 269.567 400.117 271.675 397.342 273.725V280.725L399.758 280.383C399.758 280.383 405.292 276.142 406.608 274.825V268.158H406.617Z" fill="#FF945B"/>
<path d="M406.617 274.825C404.5 276.725 402.208 278.575 399.767 280.383V273.717C402.217 271.908 404.5 270.058 406.617 268.158V274.825Z" fill="#FF5200"/>
<path d="M399.766 280.383L397.35 280.725V273.725L399.766 273.717V280.383Z" fill="#963000"/>
<path d="M406.617 301.492L405.05 300.75C402.633 302.9 400.117 305.008 397.342 307.058V314.058L399.758 313.717C399.758 313.717 405.292 309.475 406.608 308.158V301.492H406.617Z" fill="#FF945B"/>
<path d="M405.058 307.408V310.742C402.641 312.892 400.125 315 397.35 317.05V314.05L405.058 307.408Z" fill="black"/>
<path d="M406.617 308.158C404.5 310.058 402.208 311.908 399.767 313.717V307.05C402.217 305.242 404.5 303.392 406.617 301.492V308.158Z" fill="#FF5200"/>
<path d="M399.766 313.717L397.35 314.058V307.058L399.766 307.05V313.717Z" fill="#963000"/>
<path d="M421.966 266.633L419.858 266.333C419.858 266.333 417.391 270.8 415.308 273.783V281.033L417.841 280.475" fill="#FF945B"/>
<path d="M415.308 283.783C417.383 280.8 419.858 276.333 419.858 276.333L415.308 281.033V283.783Z" fill="black"/>
<path d="M421.967 273.3C420.842 275.733 419.467 278.133 417.842 280.475V273.808C419.467 271.467 420.842 269.067 421.967 266.633V273.3Z" fill="#FF5200"/>
<path d="M417.841 273.808L415.308 273.783V281.033L417.841 280.475V273.808Z" fill="#963000"/>
<path d="M357.792 92.2501L355.367 98.8084C355.325 98.9334 355.225 99.0251 355.1 99.0751L348.5 101.517C348.325 101.583 348.208 101.75 348.208 101.942V103.3C348.208 103.492 348.325 103.658 348.5 103.725L355.1 106.167C355.225 106.208 355.317 106.308 355.367 106.433L357.883 113.225C357.95 113.4 358.117 113.517 358.308 113.517H359.533C359.725 113.517 359.892 113.4 359.958 113.225L362.475 106.433C362.516 106.308 362.617 106.217 362.742 106.167L369.475 103.683C369.65 103.617 369.766 103.45 369.766 103.258V101.992C369.766 101.8 369.65 101.633 369.475 101.567L362.742 99.0834C362.617 99.0417 362.525 98.9417 362.475 98.8167L360.05 92.2584C359.983 92.0834 359.816 91.9667 359.625 91.9667H358.233C358.042 91.9667 357.875 92.0834 357.817 92.2584L357.792 92.2501Z" fill="#FF5200"/>
<path d="M369.658 83.1001L368.375 86.5667C368.35 86.6334 368.3 86.6834 368.233 86.7084L364.741 88.0001C364.65 88.0334 364.583 88.1251 364.583 88.2251V88.9417C364.583 89.0417 364.641 89.1334 364.741 89.1667L368.233 90.4584C368.3 90.4834 368.35 90.5334 368.375 90.6001L369.708 94.1917C369.741 94.2834 369.833 94.3501 369.933 94.3501H370.583C370.683 94.3501 370.775 94.2917 370.808 94.1917L372.141 90.6001C372.166 90.5334 372.216 90.4834 372.283 90.4584L375.841 89.1417C375.933 89.1084 376 89.0167 376 88.9167V88.2417C376 88.1417 375.941 88.0501 375.841 88.0167L372.283 86.7001C372.216 86.6751 372.166 86.6251 372.141 86.5584L370.858 83.0917C370.825 83.0001 370.733 82.9334 370.633 82.9334H369.891C369.791 82.9334 369.7 82.9917 369.666 83.0917L369.658 83.1001Z" fill="#FF5200"/>
</g>
<defs>
</defs>
</svg>
