<svg width="500" height="500" viewBox="0 0 500 500" fill="none" xmlns="http://www.w3.org/2000/svg">
<g>
<path d="M103.817 387.75L75.275 357.917C73.9916 356.575 73.375 354.742 73.5916 352.9L80.55 292.275L55.7416 195.8C54.8166 192.208 54.35 188.517 54.35 184.808V181.208L107.308 381.167L103.808 387.75H103.817Z" fill="black"/>
<mask id="mask0_69562_3529" style="mask-type:luminance" maskUnits="userSpaceOnUse" x="54" y="181" width="54" height="207">
<path d="M103.817 387.75L75.275 357.917C73.9916 356.575 73.375 354.742 73.5916 352.9L80.55 292.275L55.7416 195.8C54.8166 192.208 54.35 188.517 54.35 184.808V181.208L107.308 381.167L103.808 387.75H103.817Z" fill="white"/>
</mask>
<g mask="url(#mask0_69562_3529)">
<path d="M69.9584 355.567L102.85 349.867L113.958 390.15L103.817 394.7L69.9584 355.567Z" fill="#566578" stroke="black" stroke-width="0.833333" stroke-miterlimit="10"/>
</g>
<path d="M103.817 387.75L75.275 357.917C73.9916 356.575 73.375 354.742 73.5916 352.9L80.55 292.275L55.7416 195.8C54.8166 192.208 54.35 188.517 54.35 184.808V181.208L107.308 381.167L103.808 387.75H103.817Z" stroke="black" stroke-width="0.833333" stroke-miterlimit="10"/>
<path d="M108.217 370.158L104.642 371.108L103.883 392.617C103.883 392.617 113.358 402.608 129.717 402.608L108.217 370.158Z" fill="black" stroke="black" stroke-width="0.833333" stroke-linecap="round" stroke-linejoin="round"/>
<path d="M50.2167 151.167L47.425 155.05L38.2667 132.092C38.2667 132.092 40.975 122.267 54.3584 116.533L50.225 151.167H50.2167Z" fill="black" stroke="black" stroke-width="0.833333" stroke-linecap="round" stroke-linejoin="round"/>
<path d="M431.075 339.65V344.2L456.717 341.925C465.258 333.742 465.025 326.075 465.025 326.075L431.083 339.65H431.075Z" fill="black" stroke="black" stroke-width="0.833333" stroke-linecap="round" stroke-linejoin="round"/>
<path d="M440.033 342.567L131.85 398.525C121.108 400.475 110.666 393.842 107.875 383.283L46.2082 150.458C45.0832 146.217 45.5748 141.967 47.2582 138.325C49.8415 132.742 50.9998 131.083 50.9998 131.083L364.033 99.8917C373.733 98.9917 382.766 104.9 385.841 114.142L456.716 324.467C456.716 324.467 454.85 329.75 452.3 334.05C449.75 338.35 445.425 341.6 440.041 342.575L440.033 342.567Z" fill="black" stroke="black" stroke-width="0.833333" stroke-miterlimit="10"/>
<path d="M442.533 337.567L134.35 393.525C123.608 395.475 113.167 388.842 110.375 378.283L48.7082 145.458C45.8582 134.7 53.3582 123.967 64.4332 122.942L366.525 94.8917C376.225 93.9917 385.258 99.9 388.333 109.142L456.391 314.2C459.841 324.583 453.291 335.617 442.533 337.567Z" fill="#566578"/>
<mask id="mask1_69562_3529" style="mask-type:luminance" maskUnits="userSpaceOnUse" x="48" y="94" width="410" height="300">
<path d="M442.533 337.567L134.35 393.525C123.608 395.475 113.167 388.842 110.375 378.283L48.7082 145.458C45.8582 134.7 53.3582 123.967 64.4332 122.942L366.525 94.8917C376.225 93.9917 385.258 99.9 388.333 109.142L456.391 314.2C459.841 324.583 453.291 335.617 442.533 337.567Z" fill="white"/>
</mask>
<g mask="url(#mask1_69562_3529)">
<path d="M49.9579 124.525C55.6579 125.442 62.3079 129.908 62.3079 129.908L367.266 100.817C373.541 100.217 379.416 103.992 381.483 109.95L402.724 171.217C404.624 176.692 409.774 180.358 415.566 180.358H421.349L396.299 85.625C396.299 85.625 41.8162 123.217 49.9579 124.525Z" fill="#C7C7C7"/>
</g>
<path d="M442.533 337.567L134.35 393.525C123.608 395.475 113.167 388.842 110.375 378.283L48.7082 145.458C45.8582 134.7 53.3582 123.967 64.4332 122.942L366.525 94.8917C376.225 93.9917 385.258 99.9 388.333 109.142L456.391 314.2C459.841 324.583 453.291 335.617 442.533 337.567Z" stroke="black" stroke-width="0.833333" stroke-miterlimit="10"/>
<path d="M126.325 374.158L65.6167 144.942C64.575 141.025 67.2917 137.108 71.325 136.708L370.05 106.992C372.958 106.7 375.683 108.467 376.6 111.242L404.158 194.267C404.416 195.033 404.975 195.667 405.716 196L412.175 198.958C412.941 199.308 413.533 199.967 413.8 200.767L419.75 218.7C420.025 219.542 419.925 220.458 419.475 221.217L416.066 226.942C415.633 227.667 415.541 228.55 415.808 229.35L444.675 316.325C445.941 320.142 443.525 324.183 439.566 324.883L133.45 378.7C130.25 379.258 127.158 377.283 126.325 374.142V374.158Z" fill="black"/>
<mask id="mask2_69562_3529" style="mask-type:luminance" maskUnits="userSpaceOnUse" x="65" y="106" width="381" height="273">
<path d="M126.325 374.158L65.6167 144.942C64.575 141.025 67.2917 137.108 71.325 136.708L370.05 106.992C372.958 106.7 375.683 108.467 376.6 111.242L404.158 194.267C404.416 195.033 404.975 195.667 405.716 196L412.175 198.958C412.941 199.308 413.533 199.967 413.8 200.767L419.75 218.7C420.025 219.542 419.925 220.458 419.475 221.217L416.066 226.942C415.633 227.667 415.541 228.55 415.808 229.35L444.675 316.325C445.941 320.142 443.525 324.183 439.566 324.883L133.45 378.7C130.25 379.258 127.158 377.283 126.325 374.142V374.158Z" fill="white"/>
</mask>
<g mask="url(#mask2_69562_3529)">
<path d="M404.167 194.275L415.817 229.375L422.55 219.8L414.075 195.567L404.167 194.275Z" fill="#C7C7C7" stroke="black" stroke-width="0.833333" stroke-miterlimit="10"/>
<path d="M124.725 376.892L64.0166 147.683C62.975 143.767 65.6916 139.85 69.725 139.45L368.45 109.733C371.358 109.442 374.083 111.208 375 113.983L443.075 319.083C444.341 322.9 441.925 326.942 437.966 327.642L131.85 381.458C128.65 382.017 125.558 380.042 124.725 376.9V376.892Z" fill="#F3F3F3"/>
<mask id="mask3_69562_3529" style="mask-type:luminance" maskUnits="userSpaceOnUse" x="63" y="109" width="381" height="273">
<path d="M124.725 376.892L64.0166 147.683C62.975 143.767 65.6916 139.85 69.725 139.45L368.45 109.733C371.358 109.442 374.083 111.208 375 113.983L443.075 319.083C444.341 322.9 441.925 326.942 437.966 327.642L131.85 381.458C128.65 382.017 125.558 380.042 124.725 376.9V376.892Z" fill="white"/>
</mask>
<g mask="url(#mask3_69562_3529)">
<path d="M376.1 112.792L62.9 145.625V129.85L376.1 97.0167V112.792Z" fill="#FF5200"/>
</g>
<path d="M124.725 376.892L64.0166 147.683C62.975 143.767 65.6916 139.85 69.725 139.45L368.45 109.733C371.358 109.442 374.083 111.208 375 113.983L443.075 319.083C444.341 322.9 441.925 326.942 437.966 327.642L131.85 381.458C128.65 382.017 125.558 380.042 124.725 376.9V376.892Z" stroke="black" stroke-width="0.833333" stroke-miterlimit="10"/>
<path d="M418.925 219.55L412.975 201.617C412.708 200.817 412.116 200.158 411.35 199.808L404.891 196.85L403.3 192.75L415.458 197.692L421.5 220.125L418.208 223.5C418.208 223.5 419.45 221.108 418.933 219.558L418.925 219.55Z" fill="black" stroke="black" stroke-width="0.833333" stroke-miterlimit="10"/>
<path d="M413.208 212.525C413.871 212.525 414.408 211.988 414.408 211.325C414.408 210.662 413.871 210.125 413.208 210.125C412.546 210.125 412.008 210.662 412.008 211.325C412.008 211.988 412.546 212.525 413.208 212.525Z" fill="black" stroke="black" stroke-width="0.833333" stroke-miterlimit="10"/>
</g>
<path d="M126.325 374.158L65.6167 144.942C64.575 141.025 67.2917 137.108 71.325 136.708L370.05 106.992C372.958 106.7 375.683 108.467 376.6 111.242L404.158 194.267C404.416 195.033 404.975 195.667 405.716 196L412.175 198.958C412.941 199.308 413.533 199.967 413.8 200.767L419.75 218.7C420.025 219.542 419.925 220.458 419.475 221.217L416.066 226.942C415.633 227.667 415.541 228.55 415.808 229.35L444.675 316.325C445.941 320.142 443.525 324.183 439.566 324.883L133.45 378.7C130.25 379.258 127.158 377.283 126.325 374.142V374.158Z" stroke="black" stroke-width="0.833333" stroke-miterlimit="10"/>
<path d="M388.333 109.142C385.267 99.9 376.225 93.9916 366.525 94.8916L360.467 95.45L376.542 87.5667C376.542 87.5667 383.133 89.2916 390.742 95.5666L390.108 114.5L388.333 109.142Z" fill="#566578" stroke="black" stroke-width="0.833333" stroke-miterlimit="10"/>
<path d="M456.392 314.2C459.842 324.583 453.292 335.616 442.533 337.566L431.075 339.65H456.717C456.717 339.65 462.517 334 465.025 326.075L454.833 309.475L456.4 314.2H456.392Z" fill="#C7C7C7" stroke="black" stroke-width="0.833333" stroke-miterlimit="10"/>
<path d="M48.7081 145.458C45.8581 134.7 53.3581 123.967 64.4331 122.942L71.0581 122.325L54.3497 116.533C54.3497 116.533 46.1414 118.858 40.2581 129.975L50.2164 151.167L48.7081 145.458Z" fill="#566578" stroke="black" stroke-width="0.833333" stroke-miterlimit="10"/>
<path d="M134.35 393.525C123.608 395.475 113.166 388.842 110.375 378.283L108.225 370.158L106.5 391.042C106.5 391.042 116.941 401.425 129.733 402.608L148.225 391.008L134.358 393.525H134.35Z" fill="#C7C7C7" stroke="black" stroke-width="0.833333" stroke-miterlimit="10"/>
<path d="M69.8832 160.558L379.058 125.917" stroke="black" stroke-width="0.833333" stroke-miterlimit="10"/>
<path d="M306.658 129.1C308.269 129.1 309.575 127.794 309.575 126.183C309.575 124.573 308.269 123.267 306.658 123.267C305.047 123.267 303.741 124.573 303.741 126.183C303.741 127.794 305.047 129.1 306.658 129.1Z" fill="#C7C7C7"/>
<path d="M321.258 127.658C322.869 127.658 324.175 126.353 324.175 124.742C324.175 123.131 322.869 121.825 321.258 121.825C319.647 121.825 318.341 123.131 318.341 124.742C318.341 126.353 319.647 127.658 321.258 127.658Z" fill="#C7C7C7"/>
<path d="M335.858 126.217C337.469 126.217 338.775 124.911 338.775 123.3C338.775 121.689 337.469 120.383 335.858 120.383C334.247 120.383 332.942 121.689 332.942 123.3C332.942 124.911 334.247 126.217 335.858 126.217Z" fill="#C7C7C7"/>
<path d="M350.45 124.775C352.061 124.775 353.366 123.469 353.366 121.858C353.366 120.248 352.061 118.942 350.45 118.942C348.839 118.942 347.533 120.248 347.533 121.858C347.533 123.469 348.839 124.775 350.45 124.775Z" fill="#C7C7C7"/>
<path d="M365.05 123.325C366.661 123.325 367.966 122.019 367.966 120.408C367.966 118.798 366.661 117.492 365.05 117.492C363.439 117.492 362.133 118.798 362.133 120.408C362.133 122.019 363.439 123.325 365.05 123.325Z" fill="#C7C7C7"/>
<path d="M363.525 132.817L403.25 258.642L415.7 257.308L375.716 131.45L363.525 132.817Z" stroke="black" stroke-width="0.833333" stroke-miterlimit="10"/>
<path d="M443.016 318.842L126.45 374.875" stroke="black" stroke-width="0.833333" stroke-miterlimit="10"/>
<path d="M431.608 314.392L405.016 318.842L401.608 305.625L427.608 301.567L431.608 314.392Z" stroke="black" stroke-width="0.833333" stroke-miterlimit="10"/>
<path d="M409.366 306.85L406.6 311.7L412.133 314.958" stroke="black" stroke-width="0.833333" stroke-miterlimit="10"/>
<path d="M421.358 305.092L426.775 308.1L424.25 312.917" stroke="black" stroke-width="0.833333" stroke-miterlimit="10"/>
<path d="M380.717 146.45L368.525 147.817" stroke="black" stroke-width="0.833333" stroke-miterlimit="10"/>
<path d="M385.717 162.283L373.525 163.65" stroke="black" stroke-width="0.833333" stroke-miterlimit="10"/>
<path d="M390.716 178.117L378.525 179.483" stroke="black" stroke-width="0.833333" stroke-miterlimit="10"/>
<path d="M400.716 209.783L388.525 211.15" stroke="black" stroke-width="0.833333" stroke-miterlimit="10"/>
<path d="M395.716 193.95L383.525 195.317" stroke="black" stroke-width="0.833333" stroke-miterlimit="10"/>
<path d="M405.716 225.617L393.525 226.983" stroke="black" stroke-width="0.833333" stroke-miterlimit="10"/>
<path d="M410.716 241.45L398.266 242.85" stroke="black" stroke-width="0.833333" stroke-miterlimit="10"/>
<path d="M371.316 140.65C372.927 140.65 374.233 139.344 374.233 137.733C374.233 136.122 372.927 134.817 371.316 134.817C369.706 134.817 368.4 136.122 368.4 137.733C368.4 139.344 369.706 140.65 371.316 140.65Z" fill="#C7C7C7"/>
<path d="M376.316 156.425C377.927 156.425 379.233 155.119 379.233 153.508C379.233 151.898 377.927 150.592 376.316 150.592C374.705 150.592 373.4 151.898 373.4 153.508C373.4 155.119 374.705 156.425 376.316 156.425Z" fill="#C7C7C7"/>
<path d="M381.317 172.2C382.928 172.2 384.233 170.894 384.233 169.283C384.233 167.672 382.928 166.367 381.317 166.367C379.706 166.367 378.4 167.672 378.4 169.283C378.4 170.894 379.706 172.2 381.317 172.2Z" fill="#C7C7C7"/>
<path d="M386.317 187.975C387.927 187.975 389.233 186.669 389.233 185.058C389.233 183.447 387.927 182.142 386.317 182.142C384.706 182.142 383.4 183.447 383.4 185.058C383.4 186.669 384.706 187.975 386.317 187.975Z" fill="#C7C7C7"/>
<path d="M391.317 203.75C392.927 203.75 394.233 202.444 394.233 200.833C394.233 199.223 392.927 197.917 391.317 197.917C389.706 197.917 388.4 199.223 388.4 200.833C388.4 202.444 389.706 203.75 391.317 203.75Z" fill="#C7C7C7"/>
<path d="M396.316 219.525C397.927 219.525 399.233 218.219 399.233 216.608C399.233 214.997 397.927 213.692 396.316 213.692C394.706 213.692 393.4 214.997 393.4 216.608C393.4 218.219 394.706 219.525 396.316 219.525Z" fill="#C7C7C7"/>
<path d="M401.308 235.3C402.919 235.3 404.225 233.994 404.225 232.383C404.225 230.773 402.919 229.467 401.308 229.467C399.697 229.467 398.391 230.773 398.391 232.383C398.391 233.994 399.697 235.3 401.308 235.3Z" fill="#C7C7C7"/>
<path d="M406.308 251.067C407.919 251.067 409.225 249.761 409.225 248.15C409.225 246.539 407.919 245.233 406.308 245.233C404.697 245.233 403.391 246.539 403.391 248.15C403.391 249.761 404.697 251.067 406.308 251.067Z" fill="#C7C7C7"/>
<path d="M377.116 143.95L371.133 144.625" stroke="black" stroke-width="0.833333" stroke-miterlimit="10"/>
<path d="M382.083 159.725L376.1 160.392" stroke="black" stroke-width="0.833333" stroke-miterlimit="10"/>
<path d="M387.05 175.492L381.066 176.167" stroke="black" stroke-width="0.833333" stroke-miterlimit="10"/>
<path d="M392.016 191.258L386.033 191.933" stroke="black" stroke-width="0.833333" stroke-miterlimit="10"/>
<path d="M396.983 207.033L391 207.708" stroke="black" stroke-width="0.833333" stroke-miterlimit="10"/>
<path d="M401.95 222.8L395.967 223.475" stroke="black" stroke-width="0.833333" stroke-miterlimit="10"/>
<path d="M406.916 238.575L400.941 239.242" stroke="black" stroke-width="0.833333" stroke-miterlimit="10"/>
<path d="M411.891 254.342L405.908 255.017" stroke="black" stroke-width="0.833333" stroke-miterlimit="10"/>
<path d="M127.95 354.117L131.392 367.7L205.742 353.683L202.325 340.042L127.95 354.117Z" stroke="black" stroke-width="0.833333" stroke-miterlimit="10"/>
<path d="M135.9 361.983C137.783 361.983 139.308 360.554 139.308 358.792C139.308 357.029 137.783 355.6 135.9 355.6C134.018 355.6 132.492 357.029 132.492 358.792C132.492 360.554 134.018 361.983 135.9 361.983Z" stroke="black" stroke-width="0.833333" stroke-miterlimit="10"/>
<path d="M140.641 363.067L137.991 360.892" stroke="black" stroke-width="0.833333" stroke-miterlimit="10"/>
<path d="M83.3834 212.225L166.958 149.683" stroke="black" stroke-width="0.833333" stroke-miterlimit="10"/>
<path d="M69.8832 160.558L105.158 195.2" stroke="black" stroke-width="0.833333" stroke-miterlimit="10"/>
<path d="M118.333 155.05L135.966 172.367" stroke="black" stroke-width="0.833333" stroke-miterlimit="10"/>
<path d="M99.4585 268.125L241.017 162.192L371.133 290.208L302.667 342.033L253.725 292.975L206.758 328.017" stroke="black" stroke-width="0.833333" stroke-miterlimit="10"/>
<path d="M100.783 269.9L240.7 165.2L367.617 290.067L302.825 339.017L253.842 290.033L205.408 326.308" stroke="black" stroke-width="0.833333" stroke-miterlimit="10"/>
<path d="M136 343.725L159.883 326.025L102.475 268.633" stroke="black" stroke-width="0.833333" stroke-miterlimit="10"/>
<path d="M130.908 350.5L183.133 311.483L181.566 309.7L161.658 324.692L104.116 267.4" stroke="black" stroke-width="0.833333" stroke-miterlimit="10"/>
<path d="M190.65 202.258L249.317 260.483L231.242 274.392L229.633 272.842L245.908 260.317L188.783 203.65" stroke="black" stroke-width="0.833333" stroke-miterlimit="10"/>
<path d="M272.783 197.092L236.558 224.258L238.275 225.883L274.316 198.625" stroke="black" stroke-width="0.833333" stroke-miterlimit="10"/>
<path d="M334.125 257.117L295.767 285.817" stroke="black" stroke-width="0.833333" stroke-miterlimit="10"/>
<path d="M164.858 274.392L134.125 297.275" stroke="black" stroke-width="0.833333" stroke-miterlimit="10"/>
<g opacity="0.2">
<path d="M108.633 264.025L166 321.417" stroke="black" stroke-width="0.416666" stroke-miterlimit="10"/>
<path d="M113.275 260.567L170.625 317.942" stroke="black" stroke-width="0.416666" stroke-miterlimit="10"/>
<path d="M117.925 257.117L175.242 314.467" stroke="black" stroke-width="0.416666" stroke-miterlimit="10"/>
<path d="M122.567 253.667L180.034 311.166" stroke="black" stroke-width="0.416666" stroke-miterlimit="10"/>
<path d="M127.208 250.217L184.575 307.617" stroke="black" stroke-width="0.416666" stroke-miterlimit="10"/>
<path d="M131.85 246.758L188.9 303.842" stroke="black" stroke-width="0.416666" stroke-miterlimit="10"/>
<path d="M136.492 243.308L193.225 300.067" stroke="black" stroke-width="0.416666" stroke-miterlimit="10"/>
<path d="M141.133 239.858L197.467 296.217" stroke="black" stroke-width="0.416666" stroke-miterlimit="10"/>
</g>
<g opacity="0.2">
<path d="M152.125 231.608L208.808 288.325" stroke="black" stroke-width="0.416666" stroke-miterlimit="10"/>
<path d="M156.767 228.158L213.75 285.167" stroke="black" stroke-width="0.416666" stroke-miterlimit="10"/>
<path d="M161.408 224.7L218.392 281.717" stroke="black" stroke-width="0.416666" stroke-miterlimit="10"/>
<path d="M166.05 221.25L222.8 278.025" stroke="black" stroke-width="0.416666" stroke-miterlimit="10"/>
<path d="M170.691 217.8L227.258 274.392" stroke="black" stroke-width="0.416666" stroke-miterlimit="10"/>
<path d="M175.341 214.342L231.833 270.867" stroke="black" stroke-width="0.416666" stroke-miterlimit="10"/>
<path d="M179.983 210.892L236.35 267.292" stroke="black" stroke-width="0.416666" stroke-miterlimit="10"/>
<path d="M184.625 207.442L240.983 263.833" stroke="black" stroke-width="0.416666" stroke-miterlimit="10"/>
</g>
<g opacity="0.2">
<path d="M192.825 207.708L107.842 271.692" stroke="black" stroke-width="0.416666" stroke-miterlimit="10"/>
<path d="M196.95 211.317L111.967 275.3" stroke="black" stroke-width="0.416666" stroke-miterlimit="10"/>
<path d="M200.7 214.767L115.708 278.75" stroke="black" stroke-width="0.416666" stroke-miterlimit="10"/>
<path d="M204.375 218.225L119.392 282.208" stroke="black" stroke-width="0.416666" stroke-miterlimit="10"/>
<path d="M208.542 222.1L123.558 286.083" stroke="black" stroke-width="0.416666" stroke-miterlimit="10"/>
<path d="M212.192 226.033L127.209 290.017" stroke="black" stroke-width="0.416666" stroke-miterlimit="10"/>
<path d="M215.592 229.942L130.608 293.925" stroke="black" stroke-width="0.416666" stroke-miterlimit="10"/>
<path d="M219.25 233.767L134.267 297.75" stroke="black" stroke-width="0.416666" stroke-miterlimit="10"/>
<path d="M223.467 237.358L138.483 301.342" stroke="black" stroke-width="0.416666" stroke-miterlimit="10"/>
<path d="M227.067 241.067L142.083 305.05" stroke="black" stroke-width="0.416666" stroke-miterlimit="10"/>
<path d="M231.283 245.1L146.292 309.083" stroke="black" stroke-width="0.416666" stroke-miterlimit="10"/>
<path d="M234.692 248.825L149.7 312.808" stroke="black" stroke-width="0.416666" stroke-miterlimit="10"/>
<path d="M238.575 252.483L153.584 316.467" stroke="black" stroke-width="0.416666" stroke-miterlimit="10"/>
<path d="M242.559 257.117L157.575 321.1" stroke="black" stroke-width="0.416666" stroke-miterlimit="10"/>
</g>
<path d="M145.558 236.392L202.358 293.167L200.083 294.942L201.583 296.475L207.958 291.533L206.5 289.967L204.533 291.342L147.358 235.05" stroke="black" stroke-width="0.833333" stroke-miterlimit="10"/>
<g opacity="0.2">
<path d="M216.8 320.9L243.058 347.175" stroke="black" stroke-width="0.416666" stroke-miterlimit="10"/>
<path d="M221.441 317.442L247.591 343.608" stroke="black" stroke-width="0.416666" stroke-miterlimit="10"/>
<path d="M226.083 313.992L252.241 340.158" stroke="black" stroke-width="0.416666" stroke-miterlimit="10"/>
<path d="M230.725 310.542L256.817 336.642" stroke="black" stroke-width="0.416666" stroke-miterlimit="10"/>
<path d="M235.366 307.083L261.483 333.208" stroke="black" stroke-width="0.416666" stroke-miterlimit="10"/>
<path d="M240.008 303.633L266.108 329.742" stroke="black" stroke-width="0.416666" stroke-miterlimit="10"/>
<path d="M244.658 300.183L270.833 326.375" stroke="black" stroke-width="0.416666" stroke-miterlimit="10"/>
<path d="M249.3 296.733L275.367 322.808" stroke="black" stroke-width="0.416666" stroke-miterlimit="10"/>
<path d="M211.908 324.533L238.166 350.808" stroke="black" stroke-width="0.416666" stroke-miterlimit="10"/>
</g>
<g opacity="0.2">
<path d="M257.5 296.992L210.792 332.158" stroke="black" stroke-width="0.416666" stroke-miterlimit="10"/>
<path d="M261.625 300.608L214.708 335.925" stroke="black" stroke-width="0.416666" stroke-miterlimit="10"/>
<path d="M265.375 304.058L218.3 339.5" stroke="black" stroke-width="0.416666" stroke-miterlimit="10"/>
<path d="M269.05 307.508L221.867 343.033" stroke="black" stroke-width="0.416666" stroke-miterlimit="10"/>
<path d="M272.575 311.875L226.091 346.867" stroke="black" stroke-width="0.416666" stroke-miterlimit="10"/>
<path d="M276.384 315.692L229.742 350.808" stroke="black" stroke-width="0.416666" stroke-miterlimit="10"/>
</g>
<path d="M172.333 345.716L202.091 323.483L234.708 355.716" stroke="black" stroke-width="0.833333" stroke-miterlimit="10"/>
<path d="M177.558 344.725L201.766 326.642L231.833 356.358" stroke="black" stroke-width="0.833333" stroke-miterlimit="10"/>
<path d="M281.583 321.008L235.067 355.717" stroke="black" stroke-width="0.833333" stroke-miterlimit="10"/>
<path d="M279.866 319.442L233.274 354.342" stroke="black" stroke-width="0.833333" stroke-miterlimit="10"/>
<g opacity="0.3">
<path d="M196.083 198.583L226.683 228.483L221.216 232.6" stroke="black" stroke-width="0.416666" stroke-miterlimit="10"/>
<path d="M216.874 183.025L222.308 188.8L201.574 203.95" stroke="black" stroke-width="0.416666" stroke-miterlimit="10"/>
<path d="M232.383 171.425L252.174 190.817C254.591 193.192 254.324 197.158 251.608 199.183L235.299 211.317L243.249 219.242" fill="#F3F3F3"/>
<path d="M232.383 171.425L252.174 190.817C254.591 193.192 254.324 197.158 251.608 199.183L235.299 211.317L243.249 219.242" stroke="black" stroke-width="0.416666" stroke-miterlimit="10"/>
<path d="M251.157 189.817L259.549 183.742" stroke="black" stroke-width="0.416666" stroke-miterlimit="10"/>
<path d="M249.316 200.883L257.324 208.683" stroke="black" stroke-width="0.416666" stroke-miterlimit="10"/>
<path d="M293.583 217.233L271.399 235.392C269.649 236.825 269.541 239.458 271.166 241.033L283.149 252.642C284.549 254 286.758 254.067 288.241 252.792L310.391 233.775" stroke="black" stroke-width="0.416666" stroke-miterlimit="10"/>
<path d="M302.125 225.633L282.733 241.825" stroke="black" stroke-width="0.416666" stroke-miterlimit="10"/>
<path d="M273.95 233.3L291.316 250.158" stroke="black" stroke-width="0.416666" stroke-miterlimit="10"/>
<path d="M326.308 262.967L346.899 282.95C349.791 285.758 349.458 290.5 346.199 292.875L342.566 295.525C340.066 297.35 339.783 300.967 341.958 303.158L345.524 306.75" stroke="black" stroke-width="0.416666" stroke-miterlimit="10"/>
<path d="M331.999 316.975L325.724 310.467L311.574 320.75C307.116 323.992 300.974 323.508 297.066 319.625L281.958 304.583L274.208 310.4" stroke="black" stroke-width="0.416666" stroke-miterlimit="10"/>
<path d="M304.55 278.75L311.608 286.083L328.191 273.742L321.208 266.775" stroke="black" stroke-width="0.416666" stroke-miterlimit="10"/>
<path d="M312.941 272.842L319.95 279.758" stroke="black" stroke-width="0.416666" stroke-miterlimit="10"/>
<path d="M245 220.8L251.766 227.567L273.491 210.892L286.3 223.192" stroke="black" stroke-width="0.416666" stroke-miterlimit="10"/>
<path d="M254.916 213.525L261.533 219.817" stroke="black" stroke-width="0.416666" stroke-miterlimit="10"/>
<path d="M266.849 204.267L273.491 210.892" stroke="black" stroke-width="0.416666" stroke-miterlimit="10"/>
<path d="M285.599 209.483L278.108 215.333" stroke="black" stroke-width="0.416666" stroke-miterlimit="10"/>
<path d="M311.574 320.758L317.699 327.775" stroke="black" stroke-width="0.416666" stroke-miterlimit="10"/>
<path d="M297.066 319.633L289.724 325.917" stroke="black" stroke-width="0.416666" stroke-miterlimit="10"/>
</g>
<path d="M299.775 268.342C299.383 266.9 300.258 265.608 301.725 265.458C303.192 265.308 304.708 266.358 305.108 267.8" fill="#F3F3F3"/>
<path d="M299.775 268.342C299.383 266.9 300.258 265.608 301.725 265.458C303.192 265.308 304.708 266.358 305.108 267.8" stroke="black" stroke-width="0.833333" stroke-miterlimit="10"/>
<path d="M305.108 267.8C304.708 266.35 305.583 265.058 307.058 264.908C308.533 264.758 310.067 265.808 310.467 267.258" fill="#F3F3F3"/>
<path d="M305.108 267.8C304.708 266.35 305.583 265.058 307.058 264.908C308.533 264.758 310.067 265.808 310.467 267.258" stroke="black" stroke-width="0.833333" stroke-miterlimit="10"/>
<path d="M310.475 267.258C310.066 265.808 310.941 264.508 312.425 264.358C313.908 264.208 315.45 265.258 315.866 266.708" fill="#F3F3F3"/>
<path d="M310.475 267.258C310.066 265.808 310.941 264.508 312.425 264.358C313.908 264.208 315.45 265.258 315.866 266.708" stroke="black" stroke-width="0.833333" stroke-miterlimit="10"/>
<path d="M315.866 266.708C315.45 265.258 316.325 263.958 317.816 263.8C319.308 263.642 320.866 264.7 321.291 266.158" fill="#F3F3F3"/>
<path d="M315.866 266.708C315.45 265.258 316.325 263.958 317.816 263.8C319.308 263.642 320.866 264.7 321.291 266.158" stroke="black" stroke-width="0.833333" stroke-miterlimit="10"/>
<path d="M321.283 266.15C322.783 266 324.358 267.058 324.792 268.525C325.225 269.992 324.35 271.308 322.842 271.458" fill="#F3F3F3"/>
<path d="M321.283 266.15C322.783 266 324.358 267.058 324.792 268.525C325.225 269.992 324.35 271.308 322.842 271.458" stroke="black" stroke-width="0.833333" stroke-miterlimit="10"/>
<path d="M322.834 271.458C324.342 271.308 325.925 272.383 326.367 273.867C326.809 275.35 325.925 276.683 324.409 276.825" fill="#F3F3F3"/>
<path d="M322.834 271.458C324.342 271.308 325.925 272.383 326.367 273.867C326.809 275.35 325.925 276.683 324.409 276.825" stroke="black" stroke-width="0.833333" stroke-miterlimit="10"/>
<path d="M324.401 276.833C325.926 276.683 327.517 277.783 327.959 279.283C328.401 280.783 327.517 282.125 325.984 282.267" fill="#F3F3F3"/>
<path d="M324.401 276.833C325.926 276.683 327.517 277.783 327.959 279.283C328.401 280.783 327.517 282.125 325.984 282.267" stroke="black" stroke-width="0.833333" stroke-miterlimit="10"/>
<path d="M325.992 282.267C327.525 282.125 329.125 283.233 329.575 284.75C330.025 286.267 329.133 287.617 327.592 287.758" fill="#F3F3F3"/>
<path d="M325.992 282.267C327.525 282.125 329.125 283.233 329.575 284.75C330.025 286.267 329.133 287.617 327.592 287.758" stroke="black" stroke-width="0.833333" stroke-miterlimit="10"/>
<path d="M327.592 287.758C328.042 289.283 327.15 290.642 325.608 290.775C324.067 290.908 322.467 289.783 322.033 288.258" fill="#F3F3F3"/>
<path d="M327.592 287.758C328.042 289.283 327.15 290.642 325.608 290.775C324.067 290.908 322.467 289.783 322.033 288.258" stroke="black" stroke-width="0.833333" stroke-miterlimit="10"/>
<path d="M322.025 288.258C322.458 289.783 321.575 291.133 320.033 291.267C318.491 291.4 316.916 290.275 316.491 288.758" fill="#F3F3F3"/>
<path d="M322.025 288.258C322.458 289.783 321.575 291.133 320.033 291.267C318.491 291.4 316.916 290.275 316.491 288.758" stroke="black" stroke-width="0.833333" stroke-miterlimit="10"/>
<path d="M316.5 288.758C316.925 290.275 316.033 291.625 314.508 291.758C312.983 291.892 311.417 290.767 311 289.25" fill="#F3F3F3"/>
<path d="M316.5 288.758C316.925 290.275 316.033 291.625 314.508 291.758C312.983 291.892 311.417 290.767 311 289.25" stroke="black" stroke-width="0.833333" stroke-miterlimit="10"/>
<path d="M311 289.25C311.416 290.767 310.525 292.108 309.008 292.242C307.491 292.375 305.941 291.25 305.533 289.742" fill="#F3F3F3"/>
<path d="M311 289.25C311.416 290.767 310.525 292.108 309.008 292.242C307.491 292.375 305.941 291.25 305.533 289.742" stroke="black" stroke-width="0.833333" stroke-miterlimit="10"/>
<path d="M305.533 289.758C304.025 289.892 302.483 288.783 302.083 287.275C301.683 285.767 302.575 284.45 304.067 284.317" fill="#F3F3F3"/>
<path d="M305.533 289.758C304.025 289.892 302.483 288.783 302.083 287.275C301.683 285.767 302.575 284.45 304.067 284.317" stroke="black" stroke-width="0.833333" stroke-miterlimit="10"/>
<path d="M304.067 284.308C302.575 284.45 301.042 283.35 300.642 281.867C300.242 280.383 301.133 279.067 302.617 278.925" fill="#F3F3F3"/>
<path d="M304.067 284.308C302.575 284.45 301.042 283.35 300.642 281.867C300.242 280.383 301.133 279.067 302.617 278.925" stroke="black" stroke-width="0.833333" stroke-miterlimit="10"/>
<path d="M302.625 278.933C301.142 279.075 299.617 277.992 299.225 276.525C298.833 275.058 299.717 273.758 301.192 273.608" fill="#F3F3F3"/>
<path d="M302.625 278.933C301.142 279.075 299.617 277.992 299.225 276.525C298.833 275.058 299.717 273.758 301.192 273.608" stroke="black" stroke-width="0.833333" stroke-miterlimit="10"/>
<path d="M301.192 273.608C299.717 273.75 298.208 272.692 297.817 271.233C297.425 269.775 298.308 268.492 299.775 268.342" fill="#F3F3F3"/>
<path d="M301.192 273.608C299.717 273.75 298.208 272.692 297.817 271.233C297.425 269.775 298.308 268.492 299.775 268.342" stroke="black" stroke-width="0.833333" stroke-miterlimit="10"/>
<path d="M299.775 268.342L305.533 289.758L327.591 287.758L321.283 266.158L299.775 268.342Z" fill="#F3F3F3"/>
<path d="M249.075 289.325C248.525 287.575 249.566 286.008 251.391 285.817C253.216 285.625 255.15 286.892 255.708 288.65" fill="#F3F3F3"/>
<path d="M249.075 289.325C248.525 287.575 249.566 286.008 251.391 285.817C253.216 285.625 255.15 286.892 255.708 288.65" stroke="black" stroke-width="0.833333" stroke-miterlimit="10"/>
<path d="M255.708 288.65C255.15 286.892 256.183 285.325 258.016 285.133C259.85 284.942 261.808 286.217 262.375 287.975" fill="#F3F3F3"/>
<path d="M255.708 288.65C255.15 286.892 256.183 285.325 258.016 285.133C259.85 284.942 261.808 286.217 262.375 287.975" stroke="black" stroke-width="0.833333" stroke-miterlimit="10"/>
<path d="M262.375 287.975C261.808 286.217 262.833 284.642 264.683 284.45C266.533 284.258 268.5 285.533 269.083 287.292" fill="#F3F3F3"/>
<path d="M262.375 287.975C261.808 286.217 262.833 284.642 264.683 284.45C266.533 284.258 268.5 285.533 269.083 287.292" stroke="black" stroke-width="0.833333" stroke-miterlimit="10"/>
<path d="M269.083 287.292C268.5 285.525 269.533 283.95 271.392 283.758C273.25 283.567 275.242 284.842 275.833 286.608" fill="#F3F3F3"/>
<path d="M269.083 287.292C268.5 285.525 269.533 283.95 271.392 283.758C273.25 283.567 275.242 284.842 275.833 286.608" stroke="black" stroke-width="0.833333" stroke-miterlimit="10"/>
<path d="M275.825 286.6C277.691 286.408 279.7 287.692 280.308 289.475C280.916 291.258 279.875 292.858 278 293.05" fill="#F3F3F3"/>
<path d="M275.825 286.6C277.691 286.408 279.7 287.692 280.308 289.475C280.916 291.258 279.875 292.858 278 293.05" stroke="black" stroke-width="0.833333" stroke-miterlimit="10"/>
<path d="M277.991 293.042C279.875 292.858 281.891 294.158 282.508 295.958C283.125 297.758 282.083 299.375 280.183 299.558" fill="#F3F3F3"/>
<path d="M277.991 293.042C279.875 292.858 281.891 294.158 282.508 295.958C283.125 297.758 282.083 299.375 280.183 299.558" stroke="black" stroke-width="0.833333" stroke-miterlimit="10"/>
<path d="M280.183 299.567C282.075 299.383 284.117 300.708 284.733 302.533C285.35 304.358 284.308 305.991 282.4 306.166" fill="#F3F3F3"/>
<path d="M280.183 299.567C282.075 299.383 284.117 300.708 284.733 302.533C285.35 304.358 284.308 305.991 282.4 306.166" stroke="black" stroke-width="0.833333" stroke-miterlimit="10"/>
<path d="M282.424 306.225C283.041 308.058 281.991 309.692 280.083 309.867C278.174 310.042 276.141 308.692 275.541 306.867" fill="#F3F3F3"/>
<path d="M282.424 306.225C283.041 308.058 281.991 309.692 280.083 309.867C278.174 310.042 276.141 308.692 275.541 306.867" stroke="black" stroke-width="0.833333" stroke-miterlimit="10"/>
<path d="M275.541 306.867C276.149 308.7 275.099 310.325 273.199 310.5C271.299 310.675 269.291 309.325 268.699 307.5" fill="#F3F3F3"/>
<path d="M275.541 306.867C276.149 308.7 275.099 310.325 273.199 310.5C271.299 310.675 269.291 309.325 268.699 307.5" stroke="black" stroke-width="0.833333" stroke-miterlimit="10"/>
<path d="M268.7 307.508C269.291 309.333 268.241 310.958 266.358 311.133C264.475 311.308 262.483 309.967 261.9 308.142" fill="#F3F3F3"/>
<path d="M268.7 307.508C269.291 309.333 268.241 310.958 266.358 311.133C264.475 311.308 262.483 309.967 261.9 308.142" stroke="black" stroke-width="0.833333" stroke-miterlimit="10"/>
<path d="M261.899 308.133C262.483 309.958 261.424 311.575 259.549 311.75C257.674 311.925 255.699 310.583 255.133 308.767" fill="#F3F3F3"/>
<path d="M261.899 308.133C262.483 309.958 261.424 311.575 259.549 311.75C257.674 311.925 255.699 310.583 255.133 308.767" stroke="black" stroke-width="0.833333" stroke-miterlimit="10"/>
<path d="M255.116 308.708C253.258 308.883 251.299 307.55 250.741 305.75C250.183 303.95 251.233 302.35 253.083 302.175" fill="#F3F3F3"/>
<path d="M255.116 308.708C253.258 308.883 251.299 307.55 250.741 305.75C250.183 303.95 251.233 302.35 253.083 302.175" stroke="black" stroke-width="0.833333" stroke-miterlimit="10"/>
<path d="M253.083 302.175C251.233 302.35 249.291 301.041 248.741 299.258C248.191 297.475 249.233 295.891 251.075 295.716" fill="#F3F3F3"/>
<path d="M253.083 302.175C251.233 302.35 249.291 301.041 248.741 299.258C248.191 297.475 249.233 295.891 251.075 295.716" stroke="black" stroke-width="0.833333" stroke-miterlimit="10"/>
<path d="M251.066 295.717C249.233 295.9 247.299 294.608 246.758 292.842C246.216 291.075 247.25 289.508 249.075 289.325" fill="#F3F3F3"/>
<path d="M251.066 295.717C249.233 295.9 247.299 294.608 246.758 292.842C246.216 291.075 247.25 289.508 249.075 289.325" stroke="black" stroke-width="0.833333" stroke-miterlimit="10"/>
<path d="M249.075 289.325L255.133 308.767L282.424 306.225L275.833 286.608L249.075 289.325Z" fill="#F3F3F3"/>
<path d="M210.625 270.5C210.325 269.4 211 268.408 212.116 268.3C213.233 268.192 214.391 268.983 214.7 270.092" fill="#F3F3F3"/>
<path d="M210.625 270.5C210.325 269.4 211 268.408 212.116 268.3C213.233 268.192 214.391 268.983 214.7 270.092" stroke="black" stroke-width="0.833333" stroke-miterlimit="10"/>
<path d="M214.7 270.092C214.4 268.983 215.066 268 216.191 267.883C217.316 267.767 218.483 268.567 218.8 269.675" fill="#F3F3F3"/>
<path d="M214.7 270.092C214.4 268.983 215.066 268 216.191 267.883C217.316 267.767 218.483 268.567 218.8 269.675" stroke="black" stroke-width="0.833333" stroke-miterlimit="10"/>
<path d="M218.8 269.675C218.491 268.567 219.158 267.575 220.291 267.458C221.425 267.342 222.6 268.142 222.925 269.258" fill="#F3F3F3"/>
<path d="M218.8 269.675C218.491 268.567 219.158 267.575 220.291 267.458C221.425 267.342 222.6 268.142 222.925 269.258" stroke="black" stroke-width="0.833333" stroke-miterlimit="10"/>
<path d="M222.916 269.258C222.6 268.15 223.266 267.158 224.4 267.042C225.533 266.925 226.733 267.725 227.058 268.842" fill="#F3F3F3"/>
<path d="M222.916 269.258C222.6 268.15 223.266 267.158 224.4 267.042C225.533 266.925 226.733 267.725 227.058 268.842" stroke="black" stroke-width="0.833333" stroke-miterlimit="10"/>
<path d="M227.05 268.833C228.2 268.717 229.4 269.525 229.725 270.65C230.05 271.775 229.391 272.775 228.233 272.892" fill="#F3F3F3"/>
<path d="M227.05 268.833C228.2 268.717 229.4 269.525 229.725 270.65C230.05 271.775 229.391 272.775 228.233 272.892" stroke="black" stroke-width="0.833333" stroke-miterlimit="10"/>
<path d="M228.241 272.883C229.4 272.767 230.608 273.592 230.941 274.725C231.275 275.858 230.608 276.875 229.441 276.983" fill="#F3F3F3"/>
<path d="M228.241 272.883C229.4 272.767 230.608 273.592 230.941 274.725C231.275 275.858 230.608 276.875 229.441 276.983" stroke="black" stroke-width="0.833333" stroke-miterlimit="10"/>
<path d="M229.433 276.992C230.591 276.883 231.808 277.717 232.149 278.858C232.491 280 231.816 281.033 230.641 281.142" fill="#F3F3F3"/>
<path d="M229.433 276.992C230.591 276.883 231.808 277.717 232.149 278.858C232.491 280 231.816 281.033 230.641 281.142" stroke="black" stroke-width="0.833333" stroke-miterlimit="10"/>
<path d="M230.65 281.142C231.816 281.033 233.041 281.883 233.383 283.042C233.725 284.2 233.05 285.233 231.875 285.342" fill="#F3F3F3"/>
<path d="M230.65 281.142C231.816 281.033 233.041 281.883 233.383 283.042C233.725 284.2 233.05 285.233 231.875 285.342" stroke="black" stroke-width="0.833333" stroke-miterlimit="10"/>
<path d="M231.874 285.333C232.216 286.5 231.533 287.533 230.358 287.642C229.183 287.75 227.958 286.883 227.624 285.717" fill="#F3F3F3"/>
<path d="M231.874 285.333C232.216 286.5 231.533 287.533 230.358 287.642C229.183 287.75 227.958 286.883 227.624 285.717" stroke="black" stroke-width="0.833333" stroke-miterlimit="10"/>
<path d="M227.625 285.717C227.958 286.883 227.275 287.908 226.108 288.017C224.941 288.125 223.725 287.258 223.4 286.1" fill="#F3F3F3"/>
<path d="M227.625 285.717C227.958 286.883 227.275 287.908 226.108 288.017C224.941 288.125 223.725 287.258 223.4 286.1" stroke="black" stroke-width="0.833333" stroke-miterlimit="10"/>
<path d="M223.4 286.1C223.725 287.258 223.041 288.292 221.883 288.392C220.725 288.492 219.516 287.633 219.2 286.475" fill="#F3F3F3"/>
<path d="M223.4 286.1C223.725 287.258 223.041 288.292 221.883 288.392C220.725 288.492 219.516 287.633 219.2 286.475" stroke="black" stroke-width="0.833333" stroke-miterlimit="10"/>
<path d="M219.2 286.475C219.516 287.633 218.833 288.658 217.675 288.758C216.516 288.858 215.333 288 215.016 286.85" fill="#F3F3F3"/>
<path d="M219.2 286.475C219.516 287.633 218.833 288.658 217.675 288.758C216.516 288.858 215.333 288 215.016 286.85" stroke="black" stroke-width="0.833333" stroke-miterlimit="10"/>
<path d="M215.025 286.858C213.875 286.958 212.7 286.108 212.391 284.967C212.083 283.825 212.766 282.808 213.908 282.7" fill="#F3F3F3"/>
<path d="M215.025 286.858C213.875 286.958 212.7 286.108 212.391 284.967C212.083 283.825 212.766 282.808 213.908 282.7" stroke="black" stroke-width="0.833333" stroke-miterlimit="10"/>
<path d="M213.908 282.7C212.767 282.808 211.6 281.967 211.292 280.833C210.983 279.7 211.667 278.7 212.8 278.592" fill="#F3F3F3"/>
<path d="M213.908 282.7C212.767 282.808 211.6 281.967 211.292 280.833C210.983 279.7 211.667 278.7 212.8 278.592" stroke="black" stroke-width="0.833333" stroke-miterlimit="10"/>
<path d="M212.8 278.592C211.666 278.7 210.5 277.875 210.208 276.75C209.916 275.625 210.583 274.633 211.708 274.525" fill="#F3F3F3"/>
<path d="M212.8 278.592C211.666 278.7 210.5 277.875 210.208 276.75C209.916 275.625 210.583 274.633 211.708 274.525" stroke="black" stroke-width="0.833333" stroke-miterlimit="10"/>
<path d="M211.708 274.525C210.583 274.633 209.425 273.825 209.133 272.708C208.842 271.592 209.508 270.617 210.625 270.5" fill="#F3F3F3"/>
<path d="M211.708 274.525C210.583 274.633 209.425 273.825 209.133 272.708C208.842 271.592 209.508 270.617 210.625 270.5" stroke="black" stroke-width="0.833333" stroke-miterlimit="10"/>
<path d="M210.625 270.5L215.025 286.858L231.875 285.333L227.058 268.833L210.625 270.5Z" fill="#F3F3F3"/>
<path d="M206.867 225.375C206.567 224.408 207.133 223.55 208.142 223.442C209.15 223.333 210.217 224.033 210.517 225" fill="#F3F3F3"/>
<path d="M206.867 225.375C206.567 224.408 207.133 223.55 208.142 223.442C209.15 223.333 210.217 224.033 210.517 225" stroke="black" stroke-width="0.833333" stroke-miterlimit="10"/>
<path d="M210.525 225.008C210.217 224.042 210.784 223.175 211.8 223.075C212.817 222.975 213.884 223.667 214.2 224.642" fill="#F3F3F3"/>
<path d="M210.525 225.008C210.217 224.042 210.784 223.175 211.8 223.075C212.817 222.975 213.884 223.667 214.2 224.642" stroke="black" stroke-width="0.833333" stroke-miterlimit="10"/>
<path d="M214.192 224.633C213.875 223.667 214.45 222.8 215.459 222.692C216.467 222.583 217.559 223.283 217.884 224.258" fill="#F3F3F3"/>
<path d="M214.192 224.633C213.875 223.667 214.45 222.8 215.459 222.692C216.467 222.583 217.559 223.283 217.884 224.258" stroke="black" stroke-width="0.833333" stroke-miterlimit="10"/>
<path d="M217.892 224.258C217.575 223.283 218.142 222.417 219.158 222.308C220.175 222.2 221.275 222.908 221.608 223.875" fill="#F3F3F3"/>
<path d="M217.892 224.258C217.575 223.283 218.142 222.417 219.158 222.308C220.175 222.2 221.275 222.908 221.608 223.875" stroke="black" stroke-width="0.833333" stroke-miterlimit="10"/>
<path d="M221.6 223.875C222.633 223.767 223.733 224.475 224.067 225.458C224.4 226.442 223.833 227.325 222.792 227.425" fill="#F3F3F3"/>
<path d="M221.6 223.875C222.633 223.767 223.733 224.475 224.067 225.458C224.4 226.442 223.833 227.325 222.792 227.425" stroke="black" stroke-width="0.833333" stroke-miterlimit="10"/>
<path d="M222.792 227.425C223.825 227.325 224.942 228.042 225.275 229.033C225.609 230.025 225.042 230.917 224 231.017" fill="#F3F3F3"/>
<path d="M222.792 227.425C223.825 227.325 224.942 228.042 225.275 229.033C225.609 230.025 225.042 230.917 224 231.017" stroke="black" stroke-width="0.833333" stroke-miterlimit="10"/>
<path d="M224 231.017C225.042 230.917 226.167 231.65 226.508 232.65C226.85 233.65 226.275 234.55 225.225 234.65" fill="#F3F3F3"/>
<path d="M224 231.017C225.042 230.917 226.167 231.65 226.508 232.65C226.85 233.65 226.275 234.55 225.225 234.65" stroke="black" stroke-width="0.833333" stroke-miterlimit="10"/>
<path d="M225.233 234.683C225.575 235.692 225 236.592 223.941 236.692C222.883 236.792 221.775 236.05 221.441 235.042" fill="#F3F3F3"/>
<path d="M225.233 234.683C225.575 235.692 225 236.592 223.941 236.692C222.883 236.792 221.775 236.05 221.441 235.042" stroke="black" stroke-width="0.833333" stroke-miterlimit="10"/>
<path d="M221.45 235.033C221.783 236.042 221.208 236.942 220.158 237.033C219.108 237.125 218.008 236.392 217.683 235.383" fill="#F3F3F3"/>
<path d="M221.45 235.033C221.783 236.042 221.208 236.942 220.158 237.033C219.108 237.125 218.008 236.392 217.683 235.383" stroke="black" stroke-width="0.833333" stroke-miterlimit="10"/>
<path d="M217.675 235.383C218 236.392 217.425 237.283 216.383 237.375C215.342 237.467 214.25 236.733 213.925 235.725" fill="#F3F3F3"/>
<path d="M217.675 235.383C218 236.392 217.425 237.283 216.383 237.375C215.342 237.467 214.25 236.733 213.925 235.725" stroke="black" stroke-width="0.833333" stroke-miterlimit="10"/>
<path d="M213.933 235.733C214.25 236.733 213.675 237.625 212.641 237.725C211.608 237.825 210.525 237.083 210.208 236.083" fill="#F3F3F3"/>
<path d="M213.933 235.733C214.25 236.733 213.675 237.625 212.641 237.725C211.608 237.825 210.525 237.083 210.208 236.083" stroke="black" stroke-width="0.833333" stroke-miterlimit="10"/>
<path d="M210.2 236.05C209.175 236.142 208.1 235.417 207.792 234.417C207.483 233.417 208.058 232.542 209.083 232.45" fill="#F3F3F3"/>
<path d="M210.2 236.05C209.175 236.142 208.1 235.417 207.792 234.417C207.483 233.417 208.058 232.542 209.083 232.45" stroke="black" stroke-width="0.833333" stroke-miterlimit="10"/>
<path d="M209.075 232.45C208.058 232.55 206.983 231.825 206.683 230.842C206.383 229.858 206.958 228.992 207.967 228.892" fill="#F3F3F3"/>
<path d="M209.075 232.45C208.058 232.55 206.983 231.825 206.683 230.842C206.383 229.858 206.958 228.992 207.967 228.892" stroke="black" stroke-width="0.833333" stroke-miterlimit="10"/>
<path d="M207.967 228.892C206.958 228.992 205.892 228.283 205.592 227.308C205.292 226.333 205.867 225.475 206.867 225.375" fill="#F3F3F3"/>
<path d="M207.967 228.892C206.958 228.992 205.892 228.283 205.592 227.308C205.292 226.333 205.867 225.475 206.867 225.375" stroke="black" stroke-width="0.833333" stroke-miterlimit="10"/>
<path d="M206.867 225.375L210.208 236.083L225.233 234.683L221.6 223.883L206.867 225.375Z" fill="#F3F3F3"/>
<path d="M268.15 250.55L270.033 257.55C270.383 258.85 271.625 259.692 272.958 259.542L337.125 252.308C338.092 252.2 338.725 251.25 338.45 250.317L336.608 244.008C336.242 242.75 335.025 241.933 333.725 242.067L269.5 248.583C268.542 248.683 267.9 249.617 268.15 250.542V250.55Z" fill="#FF5200"/>
<path d="M307.133 260.275L302.125 255.8L307.966 254.975L307.133 260.275Z" fill="#FF5200"/>
<path d="M288.949 246.2L292.116 257.975" stroke="#F3F3F3" stroke-width="0.833333" stroke-miterlimit="10"/>
<path d="M313.683 243.817L316.85 255.583" stroke="#F3F3F3" stroke-width="0.833333" stroke-miterlimit="10"/>
<path d="M276.025 253.358L285.391 252.408" stroke="#F3F3F3" stroke-width="0.833333" stroke-miterlimit="10"/>
<path d="M298.625 250.808L307.991 249.858" stroke="#F3F3F3" stroke-width="0.833333" stroke-miterlimit="10"/>
<path d="M322.1 248.308L331.466 247.358" stroke="#F3F3F3" stroke-width="0.833333" stroke-miterlimit="10"/>
<path d="M291.641 264.925L299.816 295.333C300.116 296.45 301.183 297.192 302.333 297.092L333.558 294.267C335.05 294.133 336.05 292.667 335.633 291.225L326.675 260.558C326.35 259.458 325.291 258.733 324.141 258.85L293.7 261.942C292.233 262.092 291.258 263.517 291.633 264.933L291.641 264.925Z" stroke="black" stroke-width="0.416666" stroke-miterlimit="10" stroke-dasharray="1.67 1.67"/>
<path d="M353.366 258.033L332.191 271.25" stroke="black" stroke-width="0.833333" stroke-miterlimit="10"/>
<path d="M328.192 273.742L332.383 267.933L332.483 271.067L335.258 272.533L328.192 273.742Z" fill="black"/>
<path d="M351.183 252.308L354.15 263.342L397.792 258.425L394.35 247.925L351.183 252.308Z" fill="#FF5200"/>
<path d="M361.016 256.667L388.075 253.842" stroke="#F3F3F3" stroke-width="0.833333" stroke-miterlimit="10"/>
<path d="M291.333 193.767L294.3 204.8L337.942 199.883L334.5 189.392L291.333 193.767Z" fill="#FF5200"/>
<path d="M301.167 198.125L328.225 195.3" stroke="#F3F3F3" stroke-width="0.833333" stroke-miterlimit="10"/>
<path d="M266.033 194.758L269.983 209.483L287.15 207.55L283.591 192.983L266.033 194.758Z" fill="#F3F3F3" stroke="black" stroke-width="0.833333" stroke-miterlimit="10"/>
<path d="M285.25 199.783L292.75 199.025" stroke="black" stroke-width="0.833333" stroke-miterlimit="10"/>
<path d="M211.283 212.717L213.958 223.483" stroke="black" stroke-width="0.833333" stroke-miterlimit="10"/>
<path d="M200.367 206.675L202.717 215.433C202.867 215.983 203.392 216.35 203.967 216.283L219.325 214.55C220.025 214.475 220.492 213.792 220.317 213.108L218.083 204.517C217.942 203.967 217.417 203.6 216.842 203.658L201.367 205.225C200.658 205.3 200.183 205.992 200.367 206.675Z" fill="#FF5200"/>
<path d="M205.491 210.267L216.058 209.158" stroke="#F3F3F3" stroke-width="0.833333" stroke-miterlimit="10"/>
<path d="M209.333 257.367L212 268.142" stroke="black" stroke-width="0.833333" stroke-miterlimit="10"/>
<path d="M198.408 251.325L200.758 260.083C200.908 260.633 201.433 261 202.008 260.933L217.367 259.2C218.067 259.125 218.533 258.442 218.358 257.758L216.125 249.167C215.983 248.617 215.458 248.25 214.883 248.308L199.408 249.875C198.7 249.95 198.225 250.642 198.408 251.325Z" fill="#FF5200"/>
<path d="M203.533 254.917L214.1 253.817" stroke="#F3F3F3" stroke-width="0.833333" stroke-miterlimit="10"/>
<path d="M248.35 275.425L251.016 286.192" stroke="black" stroke-width="0.833333" stroke-miterlimit="10"/>
<path d="M237.425 269.383L239.775 278.142C239.925 278.692 240.45 279.058 241.025 278.992L256.383 277.258C257.083 277.183 257.55 276.5 257.375 275.817L255.141 267.225C255 266.675 254.475 266.308 253.9 266.367L238.425 267.933C237.716 268.008 237.241 268.7 237.425 269.383Z" fill="#FF5200"/>
<path d="M242.55 272.975L253.117 271.867" stroke="#F3F3F3" stroke-width="0.833333" stroke-miterlimit="10"/>
<path d="M140.075 230.683C143.798 230.683 146.817 229.195 146.817 227.358C146.817 225.522 143.798 224.033 140.075 224.033C136.352 224.033 133.333 225.522 133.333 227.358C133.333 229.195 136.352 230.683 140.075 230.683Z" fill="#F3F3F3" stroke="black" stroke-width="0.833333" stroke-miterlimit="10"/>
<path d="M136.242 227.358H143.908" stroke="black" stroke-width="0.833333" stroke-miterlimit="10"/>
<path d="M173.1 279.166C176.823 279.166 179.841 277.678 179.841 275.841C179.841 274.005 176.823 272.516 173.1 272.516C169.376 272.516 166.358 274.005 166.358 275.841C166.358 277.678 169.376 279.166 173.1 279.166Z" fill="#F3F3F3" stroke="black" stroke-width="0.833333" stroke-miterlimit="10"/>
<path d="M169.267 275.842H176.933" stroke="black" stroke-width="0.833333" stroke-miterlimit="10"/>
<path d="M189.9 305.517C193.623 305.517 196.642 304.028 196.642 302.192C196.642 300.355 193.623 298.867 189.9 298.867C186.177 298.867 183.158 300.355 183.158 302.192C183.158 304.028 186.177 305.517 189.9 305.517Z" fill="#F3F3F3" stroke="black" stroke-width="0.833333" stroke-miterlimit="10"/>
<path d="M186.067 302.192H193.733" stroke="black" stroke-width="0.833333" stroke-miterlimit="10"/>
<path d="M180.133 229.925C183.856 229.925 186.875 228.436 186.875 226.6C186.875 224.764 183.856 223.275 180.133 223.275C176.41 223.275 173.391 224.764 173.391 226.6C173.391 228.436 176.41 229.925 180.133 229.925Z" fill="#F3F3F3" stroke="black" stroke-width="0.833333" stroke-miterlimit="10"/>
<path d="M176.3 226.6H183.966" stroke="black" stroke-width="0.833333" stroke-miterlimit="10"/>
<path d="M207.708 180.358C211.432 180.358 214.45 178.87 214.45 177.033C214.45 175.197 211.432 173.708 207.708 173.708C203.985 173.708 200.967 175.197 200.967 177.033C200.967 178.87 203.985 180.358 207.708 180.358Z" fill="#F3F3F3" stroke="black" stroke-width="0.833333" stroke-miterlimit="10"/>
<path d="M203.875 177.033H211.542" stroke="black" stroke-width="0.833333" stroke-miterlimit="10"/>
<path d="M264.067 222.567C267.79 222.567 270.808 221.078 270.808 219.242C270.808 217.405 267.79 215.917 264.067 215.917C260.343 215.917 257.325 217.405 257.325 219.242C257.325 221.078 260.343 222.567 264.067 222.567Z" fill="#F3F3F3" stroke="black" stroke-width="0.833333" stroke-miterlimit="10"/>
<path d="M260.233 219.242H267.9" stroke="black" stroke-width="0.833333" stroke-miterlimit="10"/>
<path d="M340.783 326.1C344.507 326.1 347.525 324.611 347.525 322.775C347.525 320.939 344.507 319.45 340.783 319.45C337.06 319.45 334.042 320.939 334.042 322.775C334.042 324.611 337.06 326.1 340.783 326.1Z" fill="#F3F3F3" stroke="black" stroke-width="0.833333" stroke-miterlimit="10"/>
<path d="M336.95 322.775H344.616" stroke="black" stroke-width="0.833333" stroke-miterlimit="10"/>
<path d="M136.85 213.492L139.525 224.267" stroke="black" stroke-width="0.833333" stroke-miterlimit="10"/>
<path d="M125.933 207.45L128.283 216.208C128.433 216.758 128.958 217.125 129.533 217.058L144.892 215.325C145.592 215.25 146.058 214.567 145.883 213.883L143.65 205.292C143.508 204.742 142.983 204.375 142.408 204.433L126.933 206C126.225 206.075 125.75 206.767 125.933 207.45Z" fill="#FF5200"/>
<path d="M131.058 211.042L141.625 209.942" stroke="#F3F3F3" stroke-width="0.833333" stroke-miterlimit="10"/>
<path opacity="0.9" d="M269.075 120.075C269.075 120.075 291.725 119.9 301.183 125.217C309.833 130.075 368.691 162 377.883 167.067C387.075 172.133 398.658 186.775 398.658 186.775L383.625 141.617C383.625 141.617 384.325 149.808 372.291 145.975C360.266 142.142 324.791 123.333 319.566 120.6C314.333 117.867 317.658 115.183 317.658 115.183L269.066 120.067L269.075 120.075Z" fill="white"/>
<path d="M74.4667 402.358L104.083 436.967C106.908 440.267 111.25 441.842 115.525 441.125L446.091 385.683C450.208 384.992 451.575 379.767 448.325 377.15L413.108 348.767C410.416 346.6 406.95 345.658 403.533 346.158L77.4333 394.433C73.675 394.992 71.9917 399.475 74.4667 402.358Z" fill="black" stroke="black" stroke-width="0.833333" stroke-miterlimit="10"/>
<path d="M456.991 443.308L275.7 436.192C273.908 436.125 272.133 435.892 270.408 435.508L250.967 431.208C250.033 431 250.075 430.075 251.017 429.942L270.733 427.175C272.475 426.933 274.267 426.842 276.058 426.908L457.358 434.025C458.133 434.058 458.891 434.283 459.416 434.692C460.291 435.367 461.366 436.65 461.283 438.817C461.2 440.983 460.116 442.083 459.216 442.708C458.633 443.117 457.833 443.325 456.991 443.292V443.308Z" fill="black" stroke="black" stroke-width="0.833333" stroke-miterlimit="10"/>
<path d="M463.825 406.908L269.966 399.3C268.05 399.225 266.158 398.908 264.316 398.35L243.591 392.092C242.6 391.792 242.65 390.367 243.666 390.142L264.816 385.533C266.691 385.125 268.608 384.958 270.516 385.033L464.383 392.642C465.216 392.675 466.016 393.017 466.575 393.633C467.5 394.658 468.625 396.6 468.491 399.95C468.358 403.3 467.183 404.992 466.208 405.975C465.575 406.608 464.716 406.942 463.816 406.908H463.825Z" fill="#F3F3F3"/>
<mask id="mask4_69562_3529" style="mask-type:luminance" maskUnits="userSpaceOnUse" x="242" y="385" width="227" height="22">
<path d="M463.825 406.908L269.966 399.3C268.05 399.225 266.158 398.908 264.316 398.35L243.591 392.092C242.6 391.792 242.65 390.367 243.666 390.142L264.816 385.533C266.691 385.125 268.608 384.958 270.516 385.033L464.383 392.642C465.216 392.675 466.016 393.017 466.575 393.633C467.5 394.658 468.625 396.6 468.491 399.95C468.358 403.3 467.183 404.992 466.208 405.975C465.575 406.608 464.716 406.942 463.816 406.908H463.825Z" fill="white"/>
</mask>
<g mask="url(#mask4_69562_3529)">
<path d="M249.458 391.35L266.383 393.967C268.292 394.258 270.217 394.45 272.15 394.533L467.916 403.15L467.367 409.858L264.383 402.642L247.125 395.958L249.45 391.35" fill="#C7C7C7"/>
</g>
<path d="M463.825 406.908L269.966 399.3C268.05 399.225 266.158 398.908 264.316 398.35L243.591 392.092C242.6 391.792 242.65 390.367 243.666 390.142L264.816 385.533C266.691 385.125 268.608 384.958 270.516 385.033L464.383 392.642C465.216 392.675 466.016 393.017 466.575 393.633C467.5 394.658 468.625 396.6 468.491 399.95C468.358 403.3 467.183 404.992 466.208 405.975C465.575 406.608 464.716 406.942 463.816 406.908H463.825Z" stroke="black" stroke-width="0.833333" stroke-miterlimit="10"/>
<path d="M300.15 388.516L461.708 394.858C462.399 394.883 463.033 395.175 463.383 395.625C464.666 397.291 463.899 398.791 463.208 399.633C462.841 400.083 462.166 400.341 461.441 400.316L451.291 399.916" stroke="black" stroke-width="0.833333" stroke-miterlimit="10"/>
<path d="M248.716 389.05C248.716 389.05 249.516 389.983 249.458 391.35C249.4 392.717 248.533 393.592 248.533 393.592" stroke="black" stroke-width="0.833333" stroke-miterlimit="10"/>
</g>
<defs>
</defs>
</svg>
