<svg width="500" height="500" viewBox="0 0 500 500" fill="none" xmlns="http://www.w3.org/2000/svg">
<g>
<path d="M251.175 480.793L108.224 444.392C102.77 443.004 101.124 440.64 104.545 439.115L285.616 358.559C289.061 357.026 296.314 356.905 301.816 358.285L445.898 394.525C451.432 395.921 453.11 398.293 449.641 399.834L267.375 480.559C263.93 482.084 256.678 482.189 251.183 480.793H251.175Z" fill="black"/>
<path d="M255.807 442.431L109.232 405.763C103.633 404.368 102.262 400.761 106.159 397.72L312.087 236.971C316.008 233.913 323.761 232.55 329.4 233.929L477.201 270.153C482.881 271.549 484.292 275.163 480.339 278.237L273.104 439.446C269.183 442.496 261.438 443.827 255.807 442.415V442.431Z" fill="black" stroke="black" stroke-width="0.806772" stroke-miterlimit="10"/>
<path d="M254.919 440.85L108.344 404.182C102.745 402.786 101.374 399.18 105.271 396.139L311.199 235.389C315.12 232.332 322.873 230.968 328.512 232.348L476.313 268.572C481.993 269.968 483.404 273.582 479.451 276.656L272.216 437.865C268.295 440.914 260.55 442.246 254.919 440.834V440.85Z" fill="#F3F3F3"/>
<mask id="mask0_69562_238" style="mask-type:luminance" maskUnits="userSpaceOnUse" x="103" y="231" width="379" height="211">
<path d="M254.919 440.85L108.344 404.182C102.745 402.786 101.374 399.18 105.271 396.139L311.199 235.389C315.12 232.332 322.873 230.968 328.512 232.348L476.313 268.572C481.993 269.968 483.404 273.582 479.451 276.656L272.216 437.865C268.295 440.914 260.55 442.246 254.919 440.834V440.85Z" fill="white"/>
</mask>
<g mask="url(#mask0_69562_238)">
<path d="M354.902 360.891L211.974 325.473L322.155 239.488L465.68 274.687L354.902 360.891Z" fill="#566578" stroke="black" stroke-width="0.806772" stroke-miterlimit="10"/>
<path d="M168.021 368.071L197.92 375.518" stroke="black" stroke-width="0.806772" stroke-miterlimit="10"/>
<path d="M213.628 379.43L291.933 398.93" stroke="black" stroke-width="0.806772" stroke-miterlimit="10"/>
<path d="M208.093 383.747L286.383 403.246" stroke="black" stroke-width="0.806772" stroke-miterlimit="10"/>
<path d="M202.559 388.055L264.882 403.593" stroke="black" stroke-width="0.806772" stroke-miterlimit="10"/>
<path d="M145.924 385.312L175.807 392.766" stroke="black" stroke-width="0.806772" stroke-miterlimit="10"/>
<path d="M134.887 393.928L164.754 401.383" stroke="black" stroke-width="0.806772" stroke-miterlimit="10"/>
<path d="M191.49 396.679L261.76 414.21" stroke="black" stroke-width="0.806772" stroke-miterlimit="10"/>
<path d="M180.437 405.304L226.778 416.881" stroke="black" stroke-width="0.806772" stroke-miterlimit="10"/>
<path d="M219.985 346.022C216.524 348.717 209.699 349.903 204.729 348.668C199.759 347.434 198.541 344.247 201.994 341.552C205.447 338.858 212.281 337.672 217.25 338.898C222.22 340.133 223.446 343.319 219.985 346.014V346.022Z" fill="#C7C7C7"/>
<path d="M302.962 368.184L227.505 349.451C226.303 349.152 226.004 348.378 226.843 347.732C227.682 347.079 229.336 346.796 230.538 347.095L306.004 365.82C307.214 366.119 307.512 366.893 306.673 367.547C305.834 368.2 304.172 368.491 302.97 368.184H302.962Z" fill="#C7C7C7"/>
<path d="M163.479 350.701L330.803 392.306" stroke="black" stroke-width="0.806772" stroke-miterlimit="10"/>
<path d="M257.807 326.45L328.214 343.884L327.004 344.828L256.597 327.394L257.807 326.45Z" fill="black" stroke="black" stroke-width="0.806772" stroke-miterlimit="10"/>
<path d="M325.543 343.222L260.469 327.111L280.372 311.589L345.495 327.684L325.543 343.222Z" fill="#FF5200"/>
<mask id="mask1_69562_238" style="mask-type:luminance" maskUnits="userSpaceOnUse" x="260" y="311" width="86" height="33">
<path d="M325.543 343.222L260.469 327.111L280.372 311.589L345.495 327.684L325.543 343.222Z" fill="white"/>
</mask>
<g mask="url(#mask1_69562_238)">
<path d="M343.68 330.008L276.992 313.525L278.347 312.46L345.043 328.951L343.68 330.008Z" fill="#963000"/>
<path d="M280.372 311.589L345.494 327.684L343.437 329.29L278.323 313.194L280.372 311.589Z" fill="#566578"/>
</g>
<path d="M325.543 343.222L260.469 327.111L280.372 311.589L345.495 327.684L325.543 343.222Z" stroke="black" stroke-width="0.806772" stroke-miterlimit="10"/>
<path d="M365.374 312.202L300.203 296.131L299.219 296.898L364.39 312.969L365.374 312.202Z" fill="#566578" stroke="black" stroke-width="0.806772" stroke-miterlimit="10"/>
<path d="M344.793 327.515L281.074 311.766L299.92 297.067L363.688 312.799L344.793 327.515Z" fill="#FF5200"/>
<mask id="mask2_69562_238" style="mask-type:luminance" maskUnits="userSpaceOnUse" x="281" y="297" width="83" height="31">
<path d="M344.793 327.515L281.074 311.766L299.92 297.067L363.688 312.799L344.793 327.515Z" fill="white"/>
</mask>
<g mask="url(#mask2_69562_238)">
<path d="M363.599 314.171L296.854 297.704L298.218 296.648L364.962 313.114L363.599 314.171Z" fill="#963000"/>
</g>
<path d="M344.793 327.515L281.074 311.766L299.92 297.067L363.688 312.799L344.793 327.515Z" stroke="black" stroke-width="0.806772" stroke-miterlimit="10"/>
<path d="M385.261 296.712L320.049 280.657L319.065 281.424L384.276 297.478L385.261 296.712Z" fill="#566578" stroke="black" stroke-width="0.806772" stroke-miterlimit="10"/>
<path d="M364.672 312.033L300.905 296.301L319.759 281.593L383.575 297.309L364.672 312.033Z" fill="#FF5200"/>
<mask id="mask3_69562_238" style="mask-type:luminance" maskUnits="userSpaceOnUse" x="300" y="281" width="84" height="32">
<path d="M364.672 312.033L300.905 296.301L319.759 281.593L383.575 297.309L364.672 312.033Z" fill="white"/>
</mask>
<g mask="url(#mask3_69562_238)">
<path d="M383.486 298.689L316.693 282.239L318.056 281.174L384.849 297.624L383.486 298.689Z" fill="#963000"/>
</g>
<path d="M364.672 312.033L300.905 296.301L319.759 281.593L383.575 297.309L364.672 312.033Z" stroke="black" stroke-width="0.806772" stroke-miterlimit="10"/>
<path d="M385.592 264.215L385.011 263.449L383.204 263.634L335.644 268.491L334.426 269.443L383.784 264.401L399.678 285.49L400.904 284.538L385.592 264.215Z" fill="black" stroke="black" stroke-width="0.806772" stroke-miterlimit="10"/>
<path d="M399.33 285.038L384.558 296.543L320.743 280.827L335.579 269.258L383.784 264.401L399.33 285.038Z" fill="#FF5200"/>
<mask id="mask4_69562_238" style="mask-type:luminance" maskUnits="userSpaceOnUse" x="320" y="264" width="80" height="33">
<path d="M399.33 285.038L384.558 296.543L320.742 280.827L335.579 269.258L383.783 264.401L399.33 285.038Z" fill="white"/>
</mask>
<g mask="url(#mask4_69562_238)">
<path d="M332.836 270.686L382.195 265.643L398.08 286.732L399.839 285.361L383.413 264.691L334.587 269.314L332.836 270.686Z" fill="#963000"/>
</g>
<path d="M399.33 285.038L384.558 296.543L320.743 280.827L335.579 269.258L383.784 264.401L399.33 285.038Z" stroke="black" stroke-width="0.806772" stroke-miterlimit="10"/>
<path d="M364.857 287.878L347.835 283.691L348.98 282.795L366.003 286.982L364.857 287.878Z" fill="#566578"/>
<path d="M364.462 286.603L350.529 283.175L361.05 274.97L374.999 278.398L364.462 286.603Z" fill="#C7C7C7" stroke="black" stroke-width="0.806772" stroke-miterlimit="10"/>
<path d="M368.02 276.688L357.492 284.893" stroke="black" stroke-width="0.806772" stroke-miterlimit="10"/>
<path d="M348.504 304.215L324.495 298.293L325.64 297.398L349.65 303.32L348.504 304.215Z" fill="#566578"/>
<path d="M348.068 302.932L327.181 297.785L337.701 289.58L358.597 294.727L348.068 302.932Z" fill="#C7C7C7" stroke="black" stroke-width="0.806772" stroke-miterlimit="10"/>
<path d="M344.664 291.299L334.144 299.496" stroke="black" stroke-width="0.806772" stroke-miterlimit="10"/>
<path d="M351.634 293.009L341.106 301.214" stroke="black" stroke-width="0.806772" stroke-miterlimit="10"/>
<path d="M328.617 319.705L304.624 313.783L305.777 312.888L329.763 318.81L328.617 319.705Z" fill="#566578"/>
<path d="M328.189 318.422L307.318 313.267L317.83 305.07L338.71 310.225L328.189 318.422Z" fill="#C7C7C7" stroke="black" stroke-width="0.806772" stroke-miterlimit="10"/>
<path d="M324.785 306.789L314.273 314.985" stroke="black" stroke-width="0.806772" stroke-miterlimit="10"/>
<path d="M331.747 308.507L321.227 316.704" stroke="black" stroke-width="0.806772" stroke-miterlimit="10"/>
<path d="M335.047 330.072L324.712 327.515L309.61 339.277L319.944 341.835L335.047 330.072Z" fill="#C7C7C7" stroke="black" stroke-width="0.806772" stroke-miterlimit="10"/>
<path d="M306.439 335.365L268.231 325.909L280.268 316.526L318.492 325.982L306.439 335.365Z" fill="#C7C7C7"/>
<mask id="mask5_69562_238" style="mask-type:luminance" maskUnits="userSpaceOnUse" x="268" y="316" width="51" height="20">
<path d="M306.439 335.365L268.231 325.909L280.268 316.526L318.493 325.982L306.439 335.365Z" fill="white"/>
</mask>
<g mask="url(#mask5_69562_238)">
<path d="M309.545 324.021L309.626 324.352C309.69 324.634 309.214 324.933 308.601 324.981L280.138 327.248C278.718 327.361 277.315 327.369 275.967 327.273L272.821 327.039L285.592 330.201L285.342 329.838C285.197 329.628 285.528 329.378 286.012 329.33L318.5 325.982L309.553 324.021H309.545Z" fill="white"/>
</g>
<path d="M306.439 335.365L268.231 325.909L280.268 316.526L318.492 325.982L306.439 335.365Z" stroke="black" stroke-width="0.806772" stroke-miterlimit="10"/>
<path d="M332.038 332.42L321.703 329.862L309.61 339.277L319.944 341.835L332.038 332.42Z" fill="#566578" stroke="black" stroke-width="0.806772" stroke-miterlimit="10"/>
<path d="M299.371 321.254L287.326 330.637" stroke="black" stroke-width="0.806772" stroke-miterlimit="10"/>
<path d="M305.777 312.888L329.763 318.81" stroke="black" stroke-width="0.806772" stroke-miterlimit="10"/>
<path d="M325.64 297.398L349.65 303.32" stroke="black" stroke-width="0.806772" stroke-miterlimit="10"/>
<path d="M348.98 282.795L366.003 286.982" stroke="black" stroke-width="0.806772" stroke-miterlimit="10"/>
<g opacity="0.3" style="mix-blend-mode:multiply">
<path d="M229.054 423.617L82.4795 386.949C76.8805 385.554 75.509 381.947 79.4057 378.906L285.334 218.157C289.255 215.099 297.008 213.736 302.647 215.115L450.448 251.339C456.128 252.735 457.54 256.349 453.586 259.423L246.351 420.632C242.43 423.682 234.685 425.013 229.054 423.601V423.617Z" fill="#566578"/>
</g>
</g>
<path d="M254.919 440.85L108.344 404.182C102.745 402.786 101.374 399.18 105.271 396.139L311.199 235.389C315.12 232.332 322.873 230.968 328.512 232.348L476.313 268.572C481.993 269.968 483.404 273.582 479.451 276.656L272.216 437.865C268.295 440.914 260.55 442.246 254.919 440.834V440.85Z" stroke="black" stroke-width="0.806772" stroke-miterlimit="10"/>
<path d="M221.785 412.629L73.6533 371.935C68.1995 370.435 66.8845 365.973 70.7005 361.956L269.836 152.55C273.579 148.613 281.228 146.362 286.923 147.532L441.735 179.165C447.898 180.424 449.77 184.789 445.898 188.903L239.647 407.958C235.693 412.161 227.69 414.243 221.785 412.621V412.629Z" fill="black"/>
<path d="M221.785 412.629L73.6533 371.935C68.1995 370.435 66.8845 365.973 70.7005 361.956L269.836 152.55C273.579 148.613 281.228 146.362 286.923 147.532L441.735 179.165C447.899 180.424 449.77 184.789 445.898 188.903L239.647 407.958C235.693 412.161 227.69 414.243 221.785 412.621V412.629Z" stroke="black" stroke-width="0.806772" stroke-miterlimit="10"/>
<path d="M220.954 410.878L72.9277 370.265C67.4739 368.773 66.1669 364.311 69.9749 360.302L269.014 151.025C272.757 147.088 280.397 144.845 286.093 146.007L440.799 177.568C446.963 178.827 448.835 183.183 444.954 187.298L238.8 406.215C234.847 410.41 226.852 412.5 220.946 410.878H220.954Z" fill="#F3F3F3"/>
<mask id="mask6_69562_238" style="mask-type:luminance" maskUnits="userSpaceOnUse" x="67" y="145" width="380" height="267">
<path d="M220.954 410.878L72.9277 370.265C67.4739 368.773 66.1669 364.311 69.9749 360.302L269.014 151.025C272.757 147.088 280.397 144.845 286.093 146.007L440.799 177.568C446.963 178.827 448.835 183.183 444.954 187.298L238.8 406.215C234.847 410.41 226.852 412.5 220.946 410.878H220.954Z" fill="white"/>
</mask>
<g mask="url(#mask6_69562_238)">
<path d="M320.84 301.956L174.024 266.611L280.138 154.962L430.158 185.95L320.84 301.956Z" fill="#566578" stroke="black" stroke-width="0.806772" stroke-miterlimit="10"/>
<path d="M131.378 321.891L161.14 329.564" stroke="black" stroke-width="0.806772" stroke-miterlimit="10"/>
<path d="M176.937 333.63L257.493 354.388" stroke="black" stroke-width="0.806772" stroke-miterlimit="10"/>
<path d="M171.491 339.382L251.95 360.27" stroke="black" stroke-width="0.806772" stroke-miterlimit="10"/>
<path d="M166.029 345.143L229.78 361.802" stroke="black" stroke-width="0.806772" stroke-miterlimit="10"/>
<path d="M109.765 344.642L139.389 352.5" stroke="black" stroke-width="0.806772" stroke-miterlimit="10"/>
<path d="M98.9377 356.042L128.498 363.981" stroke="black" stroke-width="0.806772" stroke-miterlimit="10"/>
<path d="M155.113 356.663L226.989 375.719" stroke="black" stroke-width="0.806772" stroke-miterlimit="10"/>
<path d="M144.189 368.2L191.232 380.842" stroke="black" stroke-width="0.806772" stroke-miterlimit="10"/>
<path d="M182.471 291.444C179.099 295.002 172.33 296.882 167.368 295.655C162.423 294.429 161.148 290.565 164.512 287.023C167.876 283.481 174.613 281.593 179.567 282.811C184.536 284.03 185.843 287.894 182.471 291.452V291.444Z" fill="#C7C7C7"/>
<path d="M267.359 314.34L190.063 295.244C188.852 294.945 188.538 294.001 189.353 293.138C190.168 292.275 191.813 291.815 193.023 292.113L270.369 311.145C271.627 311.452 271.974 312.42 271.143 313.299C270.312 314.179 268.618 314.639 267.359 314.332V314.34Z" fill="#C7C7C7"/>
<path d="M126.747 300.617L297.621 343.755" stroke="black" stroke-width="0.806772" stroke-miterlimit="10"/>
<path d="M268.021 185.152L388.778 211.081L323.083 280.738L203.891 252.687L268.021 185.152Z" fill="#C7C7C7"/>
<mask id="mask7_69562_238" style="mask-type:luminance" maskUnits="userSpaceOnUse" x="203" y="185" width="186" height="96">
<path d="M268.021 185.152L388.778 211.081L323.083 280.738L203.891 252.687L268.021 185.152Z" fill="white"/>
</mask>
<g mask="url(#mask7_69562_238)">
<path d="M383.639 216.535L378.847 219.972C376.314 221.787 372.772 222.989 369.278 223.207L231.571 231.832C229.4 231.969 227.892 231.049 228.102 229.718L228.578 226.692L209.062 247.249L211.611 245.966C215.25 244.135 219.493 242.989 223.624 242.723L357.863 234.05C361.178 233.832 363.534 235.22 363.252 237.213L363.091 238.326L383.639 216.543V216.535Z" fill="white"/>
<path d="M337.976 264.941L218.428 237.374L219.985 235.728L339.573 263.247L337.976 264.941Z" fill="#566578"/>
<path d="M354.45 247.483L234.507 220.44L236.064 218.802L356.047 245.789L354.45 247.483Z" fill="#566578"/>
<path d="M370.9 230.041L250.562 203.538L252.119 201.9L372.49 228.354L370.9 230.041Z" fill="#566578"/>
</g>
<path d="M268.021 185.152L388.778 211.081L323.083 280.738L203.891 252.687L268.021 185.152Z" stroke="black" stroke-width="0.806772" stroke-miterlimit="10"/>
<path d="M218.227 233.752L344.002 262.65L342.752 263.981L217 235.042L218.227 233.752Z" fill="black" stroke="black" stroke-width="0.806772" stroke-miterlimit="10"/>
<path d="M234.289 216.842L360.485 245.175L359.226 246.507L233.071 218.124L234.289 216.842Z" fill="black" stroke="black" stroke-width="0.806772" stroke-miterlimit="10"/>
<path d="M250.337 199.956L376.935 227.733L375.685 229.056L249.11 201.239L250.337 199.956Z" fill="black" stroke="black" stroke-width="0.806772" stroke-miterlimit="10"/>
<path d="M299.678 176.923L379.993 193.873L367.964 206.612L287.835 189.403L299.678 176.923Z" fill="#FF5200" stroke="black" stroke-width="0.806772" stroke-miterlimit="10"/>
<path d="M250.336 199.956L255.976 194.01L382.727 221.594L376.935 227.733" stroke="black" stroke-width="0.806772" stroke-miterlimit="10"/>
<path d="M233.071 218.124L239.945 210.888L366.277 239.028L359.226 246.507" stroke="black" stroke-width="0.806772" stroke-miterlimit="10"/>
<path d="M342.752 263.981L349.811 256.486L223.89 227.79L217 235.042" stroke="black" stroke-width="0.806772" stroke-miterlimit="10"/>
<path d="M200.913 251.985L207.811 244.724L333.321 273.977L326.245 281.48" stroke="black" stroke-width="0.806772" stroke-miterlimit="10"/>
<path d="M283.769 188.532L372.207 207.524L306.722 276.89L219.429 256.341L283.769 188.532Z" fill="#F3F3F3"/>
<mask id="mask8_69562_238" style="mask-type:luminance" maskUnits="userSpaceOnUse" x="219" y="188" width="154" height="89">
<path d="M283.769 188.532L372.207 207.524L306.722 276.89L219.429 256.341L283.769 188.532Z" fill="white"/>
</mask>
<g mask="url(#mask8_69562_238)">
<path d="M349.521 231.549L235.58 239.318L219.429 256.341L306.721 276.89L349.521 231.549Z" fill="#ECE0D6"/>
<path d="M251.707 222.32L365.898 214.204L382.243 196.882L293.635 178.133L251.707 222.32Z" fill="#ECE0D6"/>
</g>
<path d="M283.769 188.532L372.207 207.524L306.722 276.89L219.429 256.341L283.769 188.532Z" stroke="black" stroke-width="0.806772" stroke-miterlimit="10"/>
<path d="M202.14 250.694L327.504 280.149L326.245 281.48L200.913 251.985L202.14 250.694Z" fill="black" stroke="black" stroke-width="0.806772" stroke-miterlimit="10"/>
<path d="M300.937 206.757L285.172 203.312L291.522 196.608L307.31 200.021L300.937 206.757Z" fill="#C7C7C7" stroke="black" stroke-width="0.806772" stroke-miterlimit="10"/>
<path d="M293.039 205.031L299.404 198.31" stroke="black" stroke-width="0.806772" stroke-miterlimit="10"/>
<path d="M347.366 216.89L331.231 213.365L337.653 206.588L353.804 210.081L347.366 216.89Z" fill="#C7C7C7" stroke="black" stroke-width="0.806772" stroke-miterlimit="10"/>
<path d="M339.282 215.123L345.712 208.33" stroke="black" stroke-width="0.806772" stroke-miterlimit="10"/>
<path d="M285.342 223.215L269.626 219.706L275.991 212.993L291.732 216.471L285.342 223.215Z" fill="#C7C7C7" stroke="black" stroke-width="0.806772" stroke-miterlimit="10"/>
<path d="M277.468 221.456L283.842 214.728" stroke="black" stroke-width="0.806772" stroke-miterlimit="10"/>
<path d="M331.627 233.55L315.548 229.96L321.97 223.167L338.073 226.725L331.627 233.55Z" fill="#C7C7C7" stroke="black" stroke-width="0.806772" stroke-miterlimit="10"/>
<path d="M323.575 231.751L330.005 224.942" stroke="black" stroke-width="0.806772" stroke-miterlimit="10"/>
<path d="M269.731 239.698L254.056 236.124L260.437 229.395L276.121 232.945L269.731 239.698Z" fill="#C7C7C7" stroke="black" stroke-width="0.806772" stroke-miterlimit="10"/>
<path d="M261.881 237.907L268.263 231.17" stroke="black" stroke-width="0.806772" stroke-miterlimit="10"/>
<path d="M315.871 250.226L299.832 246.571L306.27 239.77L322.325 243.401L315.871 250.226Z" fill="#C7C7C7" stroke="black" stroke-width="0.806772" stroke-miterlimit="10"/>
<path d="M307.835 248.395L314.281 241.577" stroke="black" stroke-width="0.806772" stroke-miterlimit="10"/>
<path d="M254.087 256.204L238.468 252.566L244.85 245.829L260.493 249.443L254.087 256.204Z" fill="#C7C7C7" stroke="black" stroke-width="0.806772" stroke-miterlimit="10"/>
<path d="M246.262 254.381L252.66 247.636" stroke="black" stroke-width="0.806772" stroke-miterlimit="10"/>
<path d="M300.082 266.934L284.1 263.207L290.546 256.398L306.544 260.093L300.082 266.934Z" fill="#C7C7C7" stroke="black" stroke-width="0.806772" stroke-miterlimit="10"/>
<path d="M292.079 265.071L298.533 258.245" stroke="black" stroke-width="0.806772" stroke-miterlimit="10"/>
<path d="M268.021 266.176L259.662 264.207L323.276 197.019L331.739 198.835L268.021 266.176Z" fill="#FF5200" stroke="black" stroke-width="0.806772" stroke-miterlimit="10"/>
<path d="M362.712 205.482L292.886 190.493L301.534 181.376L371.481 196.205L362.712 205.482Z" fill="#C7C7C7"/>
<mask id="mask9_69562_238" style="mask-type:luminance" maskUnits="userSpaceOnUse" x="292" y="181" width="80" height="25">
<path d="M362.712 205.482L292.886 190.493L301.534 181.376L371.481 196.205L362.712 205.482Z" fill="white"/>
</mask>
<g mask="url(#mask9_69562_238)">
<path d="M369.997 197.778L300.074 182.917L301.534 181.376L371.481 196.205L369.997 197.778Z" fill="#566578"/>
</g>
<path d="M362.712 205.482L292.886 190.493L301.534 181.376L371.481 196.205L362.712 205.482Z" stroke="black" stroke-width="0.806772" stroke-miterlimit="10"/>
<g style="mix-blend-mode:multiply" opacity="0.3">
<path d="M204.617 391.387L58.1558 351.718C52.7585 350.258 51.4757 345.853 55.2676 341.867L253.153 134.228C256.872 130.324 264.447 128.073 270.087 129.21L423.147 159.964C429.247 161.191 431.078 165.491 427.23 169.573L222.31 386.707C218.381 390.87 210.45 392.96 204.617 391.379V391.387Z" fill="#566578"/>
</g>
</g>
<path d="M220.954 410.878L72.9277 370.265C67.4739 368.773 66.1669 364.311 69.9749 360.302L269.014 151.025C272.757 147.088 280.397 144.845 286.093 146.007L440.799 177.568C446.963 178.827 448.835 183.183 444.954 187.298L238.8 406.215C234.847 410.41 226.852 412.5 220.946 410.878H220.954Z" stroke="black" stroke-width="0.806772" stroke-miterlimit="10"/>
<path d="M189.199 367.151L38.0508 323.634C32.4518 322.021 30.4591 316.768 33.5813 311.887L199.51 53.1881C202.681 48.2426 209.99 45.2736 215.847 46.5564L374.023 81.2476C380.291 82.6191 382.696 87.8954 379.38 93.0184L205.964 361.125C202.697 366.175 195.186 368.87 189.199 367.143V367.151Z" fill="black"/>
<path d="M189.199 367.151L38.0508 323.634C32.4518 322.02 30.4591 316.768 33.5813 311.887L199.51 53.1881C202.681 48.2426 209.99 45.2736 215.847 46.5564L374.023 81.2476C380.291 82.6191 382.696 87.8954 379.38 93.0184L205.964 361.125C202.697 366.175 195.186 368.87 189.199 367.143V367.151Z" stroke="black" stroke-width="0.806772" stroke-miterlimit="10"/>
<path d="M188.393 365.393L37.3086 321.932C31.7096 320.318 29.7169 315.066 32.8472 310.193L198.719 51.5664C201.89 46.6209 209.199 43.652 215.048 44.9348L373.152 79.5695C379.412 80.941 381.816 86.2092 378.5 91.3403L205.141 359.382C201.874 364.432 194.363 367.127 188.377 365.409L188.393 365.393Z" fill="#F3F3F3"/>
<path d="M188.393 365.393L37.3086 321.932C31.7096 320.318 29.7169 315.066 32.8472 310.193L198.719 51.5664C201.89 46.6209 209.199 43.652 215.048 44.9348L373.152 79.5695C379.412 80.941 381.816 86.2092 378.5 91.3403L205.141 359.382C201.874 364.432 194.363 367.127 188.377 365.409L188.393 365.393Z" stroke="black" stroke-width="0.806772" stroke-miterlimit="10"/>
<path d="M271.119 233.3L121.237 195.019L210.377 56.1086L363.688 90.0817L271.119 233.3Z" fill="#566578" stroke="black" stroke-width="0.806772" stroke-miterlimit="10"/>
<path d="M87.4333 262.626L117.929 270.912" stroke="black" stroke-width="0.806772" stroke-miterlimit="10"/>
<path d="M134.081 275.3L216.17 297.616" stroke="black" stroke-width="0.806772" stroke-miterlimit="10"/>
<path d="M129.571 282.319L211.563 304.748" stroke="black" stroke-width="0.806772" stroke-miterlimit="10"/>
<path d="M125.061 289.33L190.055 307.224" stroke="black" stroke-width="0.806772" stroke-miterlimit="10"/>
<path d="M69.6036 290.395L99.9625 298.858" stroke="black" stroke-width="0.806772" stroke-miterlimit="10"/>
<path d="M60.7049 304.272L90.983 312.823" stroke="black" stroke-width="0.806772" stroke-miterlimit="10"/>
<path d="M116.041 303.344L189.304 323.771" stroke="black" stroke-width="0.806772" stroke-miterlimit="10"/>
<path d="M107.03 317.349L155.033 330.903" stroke="black" stroke-width="0.806772" stroke-miterlimit="10"/>
<path d="M133.298 224.667C130.491 229.032 124.093 231.493 119.01 230.153C113.936 228.822 112.104 224.216 114.896 219.867C117.687 215.519 124.069 213.05 129.151 214.373C134.25 215.696 136.106 220.311 133.298 224.675V224.667Z" fill="#C7C7C7"/>
<path d="M220.252 249.653L141.35 229.016C140.107 228.693 139.656 227.572 140.341 226.515C141.019 225.458 142.576 224.861 143.818 225.184L222.769 245.756C224.052 246.087 224.528 247.233 223.834 248.314C223.14 249.387 221.535 249.992 220.26 249.653H220.252Z" fill="#C7C7C7"/>
<path d="M79.6078 237.277L254.016 283.812" stroke="black" stroke-width="0.806772" stroke-miterlimit="10"/>
<path d="M150.216 169.557L278.324 201.392L277.267 203.03L149.192 171.154L150.216 169.557Z" fill="black" stroke="black" stroke-width="0.806772" stroke-miterlimit="10"/>
<path d="M154.702 170.678L273.604 200.214L331.571 110.469L210.966 83.0629L154.702 170.678Z" fill="#F3F3F3" stroke="black" stroke-width="0.806772" stroke-miterlimit="10"/>
<path d="M169.498 149.178L282.406 176.632L324.019 112.187L209.95 86.1931L169.498 149.178Z" fill="#C7C7C7"/>
<mask id="mask10_69562_238" style="mask-type:luminance" maskUnits="userSpaceOnUse" x="169" y="86" width="156" height="91">
<path d="M169.498 149.178L282.406 176.632L324.019 112.187L209.95 86.1931L169.498 149.178Z" fill="white"/>
</mask>
<g mask="url(#mask10_69562_238)">
<path d="M310.651 118.351L204.069 93.8574L204.617 93.0023L311.216 117.472L310.651 118.351Z" fill="#566578"/>
<path d="M262.68 106.193L264.859 108.186C265.746 109.001 265.181 110.429 263.705 111.09L183.77 146.919C180.446 148.411 176.84 149.194 173.403 149.186H169.498L204.657 157.722L202.6 156.358C201.406 155.567 201.914 153.897 203.568 153.147L283.834 116.705C287.093 115.229 290.651 114.446 294.064 114.454L298.792 114.47L262.672 106.177L262.68 106.193Z" fill="white"/>
<path d="M297.622 138.544L191.378 113.623L191.927 112.768L298.186 137.665L297.622 138.544Z" fill="#566578"/>
<path d="M284.697 158.561L178.792 133.212L179.341 132.357L285.27 157.681L284.697 158.561Z" fill="#566578"/>
</g>
<path d="M169.498 149.178L282.406 176.632L324.019 112.187L209.95 86.1931L169.498 149.178Z" stroke="black" stroke-width="0.806772" stroke-miterlimit="10"/>
<path d="M204.665 92.8732L319.469 119.222L324.019 112.187L209.087 85.9915L204.665 92.8732Z" fill="black" stroke="black" stroke-width="0.806772" stroke-miterlimit="10"/>
<path d="M310.126 117.084L298.977 134.365L193.798 109.791L192.072 112.486L297.194 137.116L286.052 154.381L181.212 129.388L179.486 132.082L284.278 157.132L273.152 174.381L282.406 176.632L319.469 119.222L310.126 117.084Z" fill="#FF5200"/>
<mask id="mask11_69562_238" style="mask-type:luminance" maskUnits="userSpaceOnUse" x="179" y="109" width="141" height="68">
<path d="M310.126 117.084L298.977 134.365L193.798 109.791L192.072 112.486L297.194 137.116L286.052 154.381L181.212 129.388L179.486 132.082L284.278 157.132L273.152 174.381L282.406 176.632L319.469 119.222L310.126 117.084Z" fill="white"/>
</mask>
<g mask="url(#mask11_69562_238)">
<path d="M307.238 118.633L315.814 120.602L280.018 176.051L283.551 176.906L320.622 119.489L308.117 116.616L307.238 118.633Z" fill="#963000"/>
</g>
<path d="M310.126 117.084L298.977 134.365L193.798 109.791L192.072 112.486L297.194 137.116L286.052 154.381L181.212 129.388L179.486 132.082L284.278 157.132L273.152 174.381L282.406 176.632L319.469 119.222L310.126 117.084Z" stroke="black" stroke-width="0.806772" stroke-miterlimit="10"/>
<path d="M165.561 153.76L279.244 181.537L268.062 198.843L154.702 170.678L165.561 153.76Z" fill="#C7C7C7"/>
<mask id="mask12_69562_238" style="mask-type:luminance" maskUnits="userSpaceOnUse" x="154" y="153" width="126" height="46">
<path d="M165.561 153.76L279.244 181.537L268.062 198.843L154.702 170.678L165.561 153.76Z" fill="white"/>
</mask>
<g mask="url(#mask12_69562_238)">
<path d="M279.236 182.917L165.094 154.995L165.642 154.139L279.808 182.046L279.236 182.917Z" fill="#566578"/>
</g>
<path d="M165.561 153.76L279.244 181.537L268.062 198.843L154.702 170.678L165.561 153.76Z" stroke="black" stroke-width="0.806772" stroke-miterlimit="10"/>
</g>
<defs>
</defs>
</svg>
