<svg width="500" height="500" viewBox="0 0 500 500" fill="none" xmlns="http://www.w3.org/2000/svg">
<g>
<path d="M315.025 436.367C295.933 436.367 277.983 437.692 262.375 440.017C258.525 440.592 254.592 440.017 251.042 438.425C235.525 431.45 192.925 411.367 184.85 407.733C182.567 406.708 181.358 405.558 181.317 404.392C181.275 403.308 181.35 401.833 181.8 400.225C182.733 396.942 174.35 394.075 171.025 392.7C169.358 392.008 167.817 391.558 166.7 391.292C165.708 391.05 164.292 390.95 162.933 391.017C155.483 391.367 128.708 393.008 114.017 395.133C113.108 395.267 112.667 395.525 112.925 395.775C113.342 396.175 115 396.917 117.5 398.008C120.792 399.442 124.517 400.875 127.408 401.967C130.208 403.017 134.142 404.667 138.85 405.15C142.392 405.517 150.408 406.483 150.742 406.533C157.458 407.483 163.042 408.058 166.775 409.733L237.025 442.133C238.475 442.783 238.317 444.892 236.783 445.317C217.717 450.617 205.975 457.85 205.975 465.817C205.975 482.075 254.808 495.25 315.042 495.25C375.275 495.25 424.108 482.067 424.108 465.817C424.108 449.567 375.275 436.383 315.042 436.383L315.025 436.367ZM168.908 403.033C168.825 403.158 168.358 403.233 167.867 403.208C158.633 402.783 144.333 401.117 140.4 399.8C137.392 398.792 134.408 397.442 133.633 397.083C133.533 397.033 133.633 396.983 133.833 396.967L161.717 394.65C162.183 394.608 162.692 394.65 162.983 394.742C164.242 395.15 167.575 396.267 169.575 397.408C171.75 398.642 169.525 402.125 168.9 403.025L168.908 403.033Z" fill="black"/>
<path d="M432.133 376.583C432.133 402.125 348.4 451.658 315.033 451.658C281.666 451.658 197.933 402.125 197.933 376.583" fill="#8D6E5B"/>
<path d="M432.133 376.583C432.133 402.125 346.083 451.658 315.033 451.658C283.983 451.658 197.933 402.125 197.933 376.583" stroke="black" stroke-width="0.833333" stroke-miterlimit="10"/>
<path d="M315.025 422.825C379.697 422.825 432.125 402.122 432.125 376.583C432.125 351.045 379.697 330.342 315.025 330.342C250.352 330.342 197.925 351.045 197.925 376.583C197.925 402.122 250.352 422.825 315.025 422.825Z" fill="#CEC4A1"/>
<mask id="mask0_69562_21" style="mask-type:luminance" maskUnits="userSpaceOnUse" x="197" y="330" width="236" height="93">
<path d="M315.025 422.825C379.697 422.825 432.125 402.122 432.125 376.583C432.125 351.045 379.697 330.342 315.025 330.342C250.352 330.342 197.925 351.045 197.925 376.583C197.925 402.122 250.352 422.825 315.025 422.825Z" fill="white"/>
</mask>
<g mask="url(#mask0_69562_21)">
<path d="M287.008 396.625L203.758 357.925C203.758 357.925 240.933 317.2 290.892 319.367C335.225 321.292 360.967 354.383 366.208 361.817C366.558 362.317 366.1 362.975 365.517 362.817C354.458 359.892 292.892 345.892 289.15 395.367C289.067 396.417 287.967 397.067 287.017 396.625H287.008Z" fill="black"/>
</g>
<path d="M315.025 422.825C379.697 422.825 432.125 402.122 432.125 376.583C432.125 351.045 379.697 330.342 315.025 330.342C250.352 330.342 197.925 351.045 197.925 376.583C197.925 402.122 250.352 422.825 315.025 422.825Z" stroke="black" stroke-width="0.833333" stroke-miterlimit="10"/>
<path d="M113.158 46.0083L150.975 33.175C150.975 33.175 155.708 40.4417 158.267 46.4583C162.283 55.9167 160.025 74.8083 160.025 74.8083C160.025 74.8083 166.233 50.7333 162.292 39.675C158.35 28.6167 151.217 24.3 151.217 24.3L106.825 38.3417L113.167 46L113.158 46.0083Z" fill="black"/>
<path d="M334.116 317.175C322.816 299.758 312.975 281.025 302.85 262.95C301.966 261.375 300.091 260.667 298.383 261.25L279.366 267.783C274.325 269.517 268.808 267.008 266.8 262.067C263.083 252.925 256.808 238.3 250.008 226.05C240.816 209.475 191.825 120.192 177.558 94.1834C174.875 89.2918 173.45 83.8251 173.4 78.2418C173.35 73.0584 173.433 66.0251 173.975 58.3584C175.075 42.6751 165.191 29.0251 161.266 22.4334C159.3 19.1251 157.491 17.0084 156.175 15.7084C155.008 14.5584 153.341 14.0834 151.733 14.3834C142.95 16.0418 111.383 23.9001 94.0664 34.0168C92.9997 34.6418 92.4747 35.8834 92.7831 37.0834C93.2664 39.0001 95.2247 42.5418 98.1747 47.7418C102.058 54.5918 106.441 61.4251 109.85 66.6251C113.15 71.6501 117.933 75.5168 123.483 77.8334C127.658 79.5751 132.608 81.7584 136.325 83.7668C136.716 83.9751 137.108 84.1918 137.491 84.4168C145.408 88.9418 151.841 95.6751 156.25 103.658L229.5 236.392L246.483 265.058C250.191 271.317 247.216 279.392 240.341 281.758L220.033 288.758C218.025 289.45 217.033 291.708 217.883 293.658C221.733 302.433 232.258 325.592 244.558 345.667C260.208 371.225 280.9 390.425 287.166 395.95C288.175 396.842 289.725 396.717 290.575 395.667L305.008 377.783C311.391 369.875 320.875 365.117 331.025 364.717L365.041 363.392C365.966 363.358 366.475 362.3 365.916 361.558C361.033 355.083 343.766 332.033 334.141 317.183L334.116 317.175ZM160.025 74.8168C159.908 75.5084 159.25 75.9584 158.558 75.8251C145.541 73.4168 125.383 63.9084 119.833 56.3918C115.591 50.6418 111.383 42.9251 110.3 40.9001C110.158 40.6334 110.291 40.3084 110.575 40.2084L149.891 26.9918C150.541 26.7751 151.258 26.9918 151.683 27.5334C153.458 29.8501 158.158 36.2584 160.975 42.7418C164.041 49.7834 160.908 69.6751 160.025 74.8168Z" fill="#566578"/>
<mask id="mask1_69562_21" style="mask-type:luminance" maskUnits="userSpaceOnUse" x="92" y="14" width="275" height="383">
<path d="M334.116 317.175C322.816 299.758 312.975 281.025 302.85 262.95C301.966 261.375 300.091 260.667 298.383 261.25L279.366 267.783C274.324 269.517 268.808 267.008 266.799 262.067C263.083 252.925 256.808 238.3 250.008 226.05C240.816 209.475 191.824 120.192 177.558 94.1834C174.874 89.2918 173.449 83.8251 173.399 78.2418C173.349 73.0584 173.433 66.0251 173.974 58.3584C175.074 42.6751 165.191 29.0251 161.266 22.4334C159.299 19.1251 157.491 17.0084 156.174 15.7084C155.008 14.5584 153.341 14.0834 151.733 14.3834C142.949 16.0418 111.383 23.9001 94.0662 34.0168C92.9995 34.6418 92.4745 35.8834 92.7828 37.0834C93.2662 39.0001 95.2245 42.5418 98.1745 47.7418C102.058 54.5918 106.441 61.4251 109.849 66.6251C113.149 71.6501 117.933 75.5168 123.483 77.8334C127.658 79.5751 132.608 81.7584 136.324 83.7668C136.716 83.9751 137.108 84.1918 137.491 84.4168C145.408 88.9418 151.841 95.6751 156.249 103.658L229.499 236.392L246.483 265.058C250.191 271.317 247.216 279.392 240.341 281.758L220.033 288.758C218.024 289.45 217.033 291.708 217.883 293.658C221.733 302.433 232.258 325.592 244.558 345.667C260.208 371.225 280.899 390.425 287.166 395.95C288.174 396.842 289.724 396.717 290.574 395.667L305.008 377.783C311.391 369.875 320.874 365.117 331.024 364.717L365.041 363.392C365.966 363.358 366.474 362.3 365.916 361.558C361.033 355.083 343.766 332.033 334.141 317.183L334.116 317.175ZM160.024 74.8168C159.908 75.5084 159.249 75.9584 158.558 75.8251C145.541 73.4168 125.383 63.9084 119.833 56.3918C115.591 50.6418 111.383 42.9251 110.299 40.9001C110.158 40.6334 110.291 40.3084 110.574 40.2084L149.891 26.9918C150.541 26.7751 151.258 26.9918 151.683 27.5334C153.458 29.8501 158.158 36.2584 160.974 42.7418C164.041 49.7834 160.908 69.6751 160.024 74.8168Z" fill="white"/>
</mask>
<g mask="url(#mask1_69562_21)">
<path d="M118.933 72.925L119.425 72.6C120.717 71.75 122.383 71.75 123.667 72.6C128.942 76.0833 142.483 85.3 146.617 90.9416C151.058 97 126.092 80.325 118.908 75.4666C118.008 74.8583 118.017 73.525 118.925 72.925H118.933Z" fill="black"/>
<path d="M224.075 218.583C224.075 218.583 223.533 220.758 225.7 224.883C230.25 233.55 248.017 262.617 248.617 266.333C250.358 277.142 244.867 278.875 244.867 278.875L216.317 225.533L224.083 218.575L224.075 218.583Z" fill="black"/>
<path d="M94.3167 33.9167C94.15 33.975 94.05 34.0167 94.05 34.0167L94.3167 33.9167Z" fill="#C7C7C7"/>
<path d="M168.141 34.1917C162.191 21.175 163.374 13.6167 146.266 14.2917C121.166 15.2917 94.3162 33.9167 94.3162 33.9167C94.9328 33.7167 96.4745 33.4083 97.2995 35.1C101.208 43.0917 106.499 51.375 115.208 64.2333C120.891 72.625 134.575 75.4 147.883 82.9167C152.866 85.7333 156.991 89.8583 159.833 94.825L163.6 101.408C175.441 93.5583 179.433 97.6 179.433 97.6C179.433 97.6 172.783 83.5167 174.116 62.4167C175.158 45.9417 171.141 40.7333 168.141 34.1833V34.1917ZM163.666 72.375C163.283 75.0583 160.691 76.8417 158.049 76.25C148.008 74.0083 125.283 68.0583 118.274 58.7417C113.908 52.9417 107.599 41.6 105.358 37.4833C104.899 36.6417 105.249 35.6 106.116 35.2C109.733 33.525 119.091 29.35 129.416 25.975C139.591 22.65 147.974 21.3167 151.324 20.875C152.291 20.75 153.241 21.1667 153.799 21.9667C155.941 25.0583 161.341 33.3333 164.274 42.1583C166.583 49.1 164.808 64.4833 163.674 72.375H163.666Z" fill="#C7C7C7"/>
<path d="M227.717 215.458C227.717 215.458 245.325 242.267 254.742 263.45C264.158 284.633 269.017 301.492 280.542 317.958C286.575 326.575 294.083 336.992 298.633 343.283C299.358 344.275 300.908 343.467 300.5 342.308C298.433 336.5 295.058 327.7 290.892 319.367C288.017 313.617 282.45 305.4 279.125 295.917C272.85 278.033 269.633 268.542 266.025 259.917C260.683 247.15 248.692 221.8 242.183 211.992C242.183 211.992 237.008 209.325 227.708 215.45L227.717 215.458Z" fill="#C7C7C7"/>
<mask id="mask2_69562_21" style="mask-type:luminance" maskUnits="userSpaceOnUse" x="227" y="211" width="74" height="133">
<path d="M227.717 215.458C227.717 215.458 245.325 242.267 254.742 263.45C264.158 284.633 269.017 301.492 280.542 317.958C286.575 326.575 294.083 336.992 298.633 343.283C299.358 344.275 300.908 343.467 300.5 342.308C298.433 336.5 295.058 327.7 290.892 319.367C288.017 313.617 282.45 305.4 279.125 295.917C272.85 278.033 269.633 268.542 266.025 259.917C260.683 247.15 248.692 221.8 242.183 211.992C242.183 211.992 237.008 209.325 227.708 215.45L227.717 215.458Z" fill="white"/>
</mask>
<g mask="url(#mask2_69562_21)">
<path d="M256.3 238.458C256.3 238.458 257.684 242.858 257.859 246.092C258.034 249.325 257.859 255.058 255.567 258.15C253.892 260.417 251.95 257.458 251.95 257.458L257.3 269.008C257.3 269.008 257.425 268.042 259.117 263.508C261.75 256.442 262.067 250.808 262.067 250.808C262.367 249.842 256.309 238.458 256.309 238.458H256.3Z" fill="white"/>
</g>
<path d="M179.433 97.6083C178.625 96.3083 172.35 96.3916 167.175 99.1916C164.466 100.658 160.466 102.975 158.658 107.683L222.125 223.058C222.125 223.058 221.483 219.133 229.616 214.275C232.8 212.367 240.5 209.767 242.758 212.917L179.433 97.6083Z" fill="#FF5200"/>
<mask id="mask3_69562_21" style="mask-type:luminance" maskUnits="userSpaceOnUse" x="158" y="96" width="85" height="128">
<path d="M179.433 97.6083C178.625 96.3083 172.35 96.3916 167.175 99.1916C164.466 100.658 160.466 102.975 158.658 107.683L222.125 223.058C222.125 223.058 221.483 219.133 229.616 214.275C232.8 212.367 240.5 209.767 242.758 212.917L179.433 97.6083Z" fill="white"/>
</mask>
<g mask="url(#mask3_69562_21)">
<path d="M157.908 109.1C157.908 109.1 159.675 104.55 163.6 101.417L226.566 213.142C226.775 213.508 227.233 213.65 227.608 213.45C230.075 212.133 238.816 207.875 243.133 211.192L229.808 218.892L219.916 230.875L157.908 109.108V109.1Z" fill="#963000"/>
<path d="M158.149 111.533C158.149 111.533 158.958 109.267 160.933 106.633C165.008 101.192 173.291 101.575 176.849 107.358C180.399 113.125 185.033 120.725 188.083 125.933C190.066 129.325 194.241 130.742 197.883 129.258L179.024 93.1C179.024 93.1 163.299 91.925 156.008 105.567L158.158 111.525L158.149 111.533Z" fill="#FF945B"/>
</g>
<path d="M298.5 263.267C292.775 265.408 283.342 269.1 275.425 271.342C272.975 272.033 271.617 274.642 272.467 277.042L275.325 285.058L297.442 277.217C297.384 272.417 298.959 268 300.275 265.167C300.8 264.033 299.675 262.825 298.5 263.267Z" fill="black"/>
<path d="M247.617 281.408C241.442 283.75 230.992 287.825 222.25 290.175C220.792 290.567 220.225 292.342 221.192 293.5C223.075 295.758 225.675 299.183 226.975 302.275L256.667 291.75C254.283 287.467 252.558 284.542 251.475 282.75C250.675 281.433 249.058 280.867 247.617 281.417V281.408Z" fill="black"/>
<path d="M331 331.483C338.875 340.033 352.383 354.108 363.683 361.892C364.383 362.375 364.1 363.45 363.258 363.542C354.808 364.4 327.708 367.417 319.208 371.767C310.658 376.142 295.008 391.533 290.358 396.208C289.633 396.942 288.441 396.883 287.775 396.1C283.766 391.325 271.008 375.808 263.883 363.3C259.083 354.883 270.608 337.042 280.983 328.667C282.141 327.733 283.841 327.917 284.766 329.092C286.675 331.517 289.983 335.625 292.925 338.783C293.891 339.825 295.491 341.067 296.75 341.983C297.108 342.25 297.558 341.8 297.3 341.433L285.808 325.45C295.025 320.592 308.058 321.625 316.075 322.958C322.666 324.058 327.4 327.575 331 331.492V331.483Z" fill="#C7C7C7"/>
<mask id="mask4_69562_21" style="mask-type:luminance" maskUnits="userSpaceOnUse" x="262" y="321" width="103" height="76">
<path d="M331 331.483C338.875 340.033 352.383 354.108 363.683 361.892C364.383 362.375 364.1 363.45 363.258 363.542C354.808 364.4 327.708 367.417 319.208 371.767C310.658 376.142 295.008 391.533 290.358 396.208C289.633 396.942 288.441 396.883 287.775 396.1C283.766 391.325 271.008 375.808 263.883 363.3C259.083 354.883 270.608 337.042 280.983 328.667C282.141 327.733 283.841 327.917 284.766 329.092C286.675 331.517 289.983 335.625 292.925 338.783C293.891 339.825 295.491 341.067 296.75 341.983C297.108 342.25 297.558 341.8 297.3 341.433L285.808 325.45C295.025 320.592 308.058 321.625 316.075 322.958C322.666 324.058 327.4 327.575 331 331.492V331.483Z" fill="white"/>
</mask>
<g mask="url(#mask4_69562_21)">
<path d="M320.183 323.833C321.566 325.817 321.725 328.65 320.95 331.267L311.108 364.5C309.925 368.492 308.25 372.308 306.116 375.883L304.991 377.775L322.208 366.183L322.008 366.05C320.708 365.208 320.125 363.6 320.583 362.117L328.941 335.283C329.4 333.808 331.05 333.083 332.45 333.733L333.666 334.3C333.666 334.3 331.866 328.392 328.366 325.8C324.866 323.208 320.191 323.833 320.191 323.833H320.183Z" fill="white"/>
</g>
</g>
<path d="M152.333 97.6083C144.992 87.5416 133.858 80.0083 122.708 72.1166C116.042 67.4 108.567 54.7166 105.142 49.1333C102.958 45.5833 99.4583 38.85 97.3166 35.1C96.6166 33.8833 95.075 33.4583 93.85 34.1583" stroke="black" stroke-width="0.833333" stroke-miterlimit="10"/>
<path d="M110.584 40.2084C110.3 40.3084 110.167 40.6334 110.309 40.9C111.392 42.925 115.6 50.6417 119.842 56.3917C125.384 63.9084 145.542 73.4167 158.567 75.825C159.259 75.95 159.909 75.5084 160.034 74.8167C160.917 69.6834 164.05 49.7917 160.984 42.7417C158.167 36.2584 153.467 29.8417 151.692 27.5334C151.275 26.9834 150.559 26.775 149.9 26.9917L110.584 40.2084Z" stroke="black" stroke-width="0.833333" stroke-miterlimit="10"/>
<path d="M159.442 75.6583C160.325 70.5083 161.492 56.7667 159.308 49.4083C157.358 42.8417 152.675 35.9417 151.242 33.925C150.992 33.575 150.55 33.4333 150.142 33.5667L113.158 46" stroke="black" stroke-width="0.833333" stroke-miterlimit="10"/>
<path d="M179.725 98.1333C178.508 95.775 172.858 96.2583 167.183 99.1917C161.508 102.125 157.875 106.475 159.092 108.833" stroke="black" stroke-width="0.833333" stroke-miterlimit="10"/>
<path d="M242.758 212.917C241.542 210.558 235.95 211.008 230.333 213.908C224.717 216.808 221.15 221.133 222.367 223.483" stroke="black" stroke-width="0.833333" stroke-miterlimit="10"/>
<path d="M300.742 343.45L296.317 331.133C294.708 326.65 292.675 322.342 290.258 318.242C286.583 312 280.758 301.267 276.975 290.15C271.092 272.858 268.042 264.525 263.883 255.058" stroke="black" stroke-width="0.833333" stroke-miterlimit="10"/>
<path d="M290.741 332.508C287.066 326.267 276.391 315.45 267.208 293.1C260.275 276.2 257.141 268.1 252.658 258.775C246.733 246.433 227.708 215.467 227.708 215.467" stroke="black" stroke-width="0.833333" stroke-miterlimit="10"/>
<path d="M252.217 285.05C255.034 289.392 260.092 296.933 267.367 306.817C275.075 317.283 292.625 338.108 292.625 338.108" stroke="black" stroke-width="0.833333" stroke-miterlimit="10"/>
<path d="M356 356.05C284.208 291.533 298.508 269.017 298.508 269.017" stroke="black" stroke-width="0.833333" stroke-miterlimit="10"/>
<path d="M290.492 395.792C289.675 396.767 288.225 396.883 287.267 396.05C281.158 390.667 260.3 371.383 244.542 345.667C232.242 325.592 221.717 302.425 217.867 293.658C217.008 291.708 218.008 289.458 220.017 288.758L240.325 281.758C247.2 279.392 250.167 271.308 246.467 265.058L229.483 236.392L156.233 103.658C151.825 95.675 145.4 88.9417 137.475 84.4167C137.092 84.1917 136.7 83.975 136.308 83.7667C132.592 81.7583 127.642 79.575 123.467 77.8333C117.917 75.5167 113.133 71.65 109.833 66.625C106.425 61.4333 102.033 54.5917 98.1582 47.7417C95.2082 42.5417 93.2582 39 92.7665 37.0833C92.4665 35.8833 92.9832 34.6417 94.0498 34.0167C111.367 23.8917 142.933 16.0417 151.717 14.3833C153.325 14.075 154.992 14.5583 156.158 15.7083C157.475 17 159.283 19.125 161.25 22.4333C165.175 29.025 175.05 42.6667 173.958 58.3583C173.425 66.025 173.333 73.05 173.383 78.2333C173.442 83.8167 174.867 89.2833 177.55 94.1833C191.825 120.2 240.808 209.467 250 226.042C256.8 238.3 263.075 252.925 266.792 262.058C268.8 267 274.317 269.508 279.358 267.775L298.375 261.242C300.083 260.658 301.958 261.367 302.842 262.942C312.975 281.017 322.817 299.758 334.108 317.167C343.717 331.983 360.942 354.975 365.858 361.5C366.433 362.258 365.917 363.342 364.967 363.392L329.942 365.092C320.7 365.542 312.075 369.842 306.158 376.95L290.492 395.783V395.792Z" stroke="black" stroke-width="0.833333" stroke-miterlimit="10"/>
<path d="M288.467 398.867C288.467 398.867 287.683 394.358 289.958 390.475C291.525 387.792 295.058 386.708 295.058 386.708C295.058 386.708 296.283 374.658 302.825 371.175C308.558 368.125 312.342 371.217 312.342 371.217L314.133 370.025" fill="#CEC4A1"/>
<path d="M288.467 398.867C288.467 398.867 287.683 394.358 289.958 390.475C291.525 387.792 295.058 386.708 295.058 386.708C295.058 386.708 296.283 374.658 302.825 371.175C308.558 368.125 312.342 371.217 312.342 371.217L314.133 370.025" stroke="black" stroke-width="0.833333" stroke-miterlimit="10"/>
<path d="M357.292 363.725C357.758 363.683 358.158 363.375 358.308 362.933C358.95 361.067 362.5 356.308 368.15 358.25C375.892 360.908 368.15 365.308 368.15 365.308L355.675 364.375L357.292 363.725Z" fill="#CEC4A1"/>
<path d="M368.15 358.242C361.809 356.342 359.15 361.1 358.367 363C358.175 363.45 357.75 363.75 357.259 363.775L355.084 363.883" stroke="black" stroke-width="0.833333" stroke-miterlimit="10"/>
<path d="M220.525 220.158C219.308 217.8 222.883 213.475 228.492 210.583C232.017 208.767 235.525 207.908 237.958 208.108" stroke="black" stroke-width="0.833333" stroke-miterlimit="10"/>
</g>
<defs>
</defs>
</svg>
