<svg width="500" height="500" viewBox="0 0 500 500" fill="none" xmlns="http://www.w3.org/2000/svg">
<g>
<path d="M350.441 400.582L326.916 410.882C326.683 410.982 326.417 411.007 326.175 410.94L285.733 400.182C284.7 399.907 284.591 398.482 285.566 398.049L306.7 388.799C310.625 387.082 310.233 381.39 306.108 380.232L142.208 334.065C141.958 333.99 141.683 334.015 141.45 334.115L103.55 350.707C99.6998 352.39 100.091 357.974 104.133 359.107L134.066 367.54C135.433 367.924 134.991 369.957 133.591 369.749C133.383 369.715 133.167 369.749 132.975 369.832L96.5915 385.749C93.9165 386.915 90.9165 387.124 88.1082 386.332L63.6332 379.44C58.3498 377.949 52.7082 378.34 47.6748 380.54L17.0832 393.932C13.2665 395.599 13.6498 401.132 17.6582 402.257L169.342 444.982C177.708 447.34 186.633 446.724 194.6 443.24L221.708 431.374C225.166 429.857 224.825 424.84 221.183 423.815L207.325 419.907C206.308 419.624 206.2 418.215 207.167 417.782L220.025 412.024C223.283 410.565 226.933 410.274 230.383 411.19L279.066 424.14C282.675 425.099 283.05 430.065 279.633 431.565L272.325 434.765C271.35 435.19 271.45 436.607 272.475 436.89L359 461.257C372.108 464.949 386.116 463.782 398.433 457.965L430.383 442.874C439.592 438.524 438.467 425.09 428.667 422.332L351.216 400.515C350.966 400.44 350.691 400.465 350.458 400.565L350.441 400.582Z" fill="black"/>
<path d="M238.767 99.6071C238.767 99.6071 233.458 91.8321 218.642 95.1737C202.908 98.7237 205.925 109.124 187.167 117.515C168.4 125.907 172.875 141.607 172.875 141.607" stroke="black" stroke-width="0.833333" stroke-miterlimit="10"/>
<path d="M456.142 238.94L412.433 233.257C411.533 233.14 410.6 234.607 410.35 236.532C410.1 238.457 410.625 240.115 411.525 240.232L455.233 245.915C456.133 246.032 457.067 244.565 457.317 242.64C457.567 240.715 457.042 239.057 456.142 238.94Z" fill="black" stroke="black" stroke-width="0.833333" stroke-miterlimit="10"/>
<path d="M399.575 289.765L389.575 295.857C389.575 295.857 381.533 336.59 379.25 346.39C375.091 364.274 357.4 372.315 348.958 375.19C347.766 375.599 347.858 377.299 349.083 377.574C361.091 380.274 392.958 387.09 403.033 385.899C415.541 384.415 427.516 378.865 439.875 371.907C445.858 368.54 454.108 363.724 461.166 359.565C474.691 351.599 483.433 337.265 483.683 321.565C483.808 314.032 482.033 306.324 476.433 300.149C459.641 281.624 436.433 275.282 436.433 275.282L399.566 289.782L399.575 289.765Z" fill="#566578"/>
<mask id="mask0_69562_9627" style="mask-type:luminance" maskUnits="userSpaceOnUse" x="348" y="275" width="136" height="112">
<path d="M399.575 289.765L389.575 295.857C389.575 295.857 381.533 336.59 379.25 346.39C375.091 364.274 357.4 372.315 348.958 375.19C347.766 375.599 347.858 377.299 349.083 377.574C361.091 380.274 392.958 387.09 403.033 385.899C415.541 384.415 427.516 378.865 439.875 371.907C445.858 368.54 454.108 363.724 461.166 359.565C474.691 351.599 483.433 337.265 483.683 321.565C483.808 314.032 482.033 306.324 476.433 300.149C459.641 281.624 436.433 275.282 436.433 275.282L399.566 289.782L399.575 289.765Z" fill="white"/>
</mask>
<g mask="url(#mask0_69562_9627)">
<path d="M486.317 299.315L421.3 330.69L368.467 291.14L437.834 266.049L486.317 299.315Z" fill="#C7C7C7"/>
<path d="M411.125 384.365C439.875 374.032 445.55 336.732 433.092 322.982C415.05 303.065 390.1 296.249 390.1 296.249L343.283 375.682C343.283 375.682 347.183 380.382 365.667 384.732C396.442 391.974 411.125 384.365 411.125 384.365Z" fill="black" stroke="black" stroke-width="0.833333" stroke-miterlimit="10"/>
</g>
<path d="M399.575 289.765L389.575 295.857C389.575 295.857 381.533 336.59 379.25 346.39C375.091 364.274 357.4 372.315 348.958 375.19C347.766 375.599 347.858 377.299 349.083 377.574C361.091 380.274 392.958 387.09 403.033 385.899C415.541 384.415 427.516 378.865 439.875 371.907C445.858 368.54 454.108 363.724 461.166 359.565C474.691 351.599 483.433 337.265 483.683 321.565C483.808 314.032 482.033 306.324 476.433 300.149C459.641 281.624 436.433 275.282 436.433 275.282L399.566 289.782L399.575 289.765Z" stroke="black" stroke-width="0.833333" stroke-miterlimit="10"/>
<path d="M418.15 281.074V271.257C418.15 268.407 419.825 265.824 422.433 264.665L427.367 262.474C427.367 262.474 432.8 261.982 439.708 267.415C444.717 271.349 453.95 278.215 458.658 281.707C460.508 283.074 461.6 285.24 461.6 287.54V301.282L458.717 302.44L418.142 281.082L418.15 281.074Z" fill="#566578"/>
<mask id="mask1_69562_9627" style="mask-type:luminance" maskUnits="userSpaceOnUse" x="418" y="262" width="44" height="41">
<path d="M418.15 281.074V271.257C418.15 268.407 419.825 265.824 422.433 264.665L427.367 262.474C427.367 262.474 432.8 261.982 439.708 267.415C444.717 271.349 453.95 278.215 458.658 281.707C460.508 283.074 461.6 285.24 461.6 287.54V301.282L458.717 302.44L418.142 281.082L418.15 281.074Z" fill="white"/>
</mask>
<g mask="url(#mask1_69562_9627)">
<path d="M415.525 282.824V273.007C415.525 270.157 417.2 267.574 419.808 266.415L424.741 264.224C424.741 264.224 430.175 263.732 437.083 269.165C442.091 273.099 451.325 279.965 456.033 283.457C457.883 284.824 458.975 286.99 458.975 289.29V305.707L415.525 282.832V282.824Z" fill="black" stroke="black" stroke-width="0.833333" stroke-miterlimit="10"/>
</g>
<path d="M418.15 281.074V271.257C418.15 268.407 419.825 265.824 422.433 264.665L427.367 262.474C427.367 262.474 432.8 261.982 439.708 267.415C444.717 271.349 453.95 278.215 458.658 281.707C460.508 283.074 461.6 285.24 461.6 287.54V301.282L458.717 302.44L418.142 281.082L418.15 281.074Z" stroke="black" stroke-width="0.833333" stroke-miterlimit="10"/>
<path d="M354.933 103.557L355.875 63.8153C355.875 63.8153 365.683 61.3153 366.233 61.207C366.967 61.0653 367.742 61.0487 368.525 61.1903C373.317 62.0487 377.383 65.1737 379.442 69.582L400.85 115.515C400.85 115.515 393.692 120.815 400.85 154.149C408.008 187.482 424.217 269.465 424.217 269.465C424.217 269.465 423.942 273.157 420.15 274.215C416.358 275.274 414.058 273.807 414.058 273.807L360 125.515L354.933 103.557Z" fill="#FF5200"/>
<mask id="mask2_69562_9627" style="mask-type:luminance" maskUnits="userSpaceOnUse" x="354" y="61" width="71" height="214">
<path d="M354.933 103.557L355.875 63.8153C355.875 63.8153 365.683 61.3153 366.233 61.207C366.967 61.0653 367.742 61.0487 368.525 61.1903C373.317 62.0487 377.383 65.1737 379.442 69.582L400.85 115.515C400.85 115.515 393.692 120.815 400.85 154.149C408.008 187.482 424.217 269.465 424.217 269.465C424.217 269.465 423.942 273.157 420.15 274.215C416.358 275.274 414.058 273.807 414.058 273.807L360 125.515L354.933 103.557Z" fill="white"/>
</mask>
<g mask="url(#mask2_69562_9627)">
<path d="M388.133 66.4153L359.742 75.2986L343.45 61.0903L372.333 57.032L388.133 66.4153Z" fill="#FF945B"/>
</g>
<path d="M354.933 103.557L355.875 63.8153C355.875 63.8153 365.683 61.3153 366.233 61.207C366.967 61.0653 367.742 61.0487 368.525 61.1903C373.317 62.0487 377.383 65.1737 379.442 69.582L400.85 115.515C400.85 115.515 393.692 120.815 400.85 154.149C408.008 187.482 424.217 269.465 424.217 269.465C424.217 269.465 423.942 273.157 420.15 274.215C416.358 275.274 414.058 273.807 414.058 273.807L360 125.515L354.933 103.557Z" stroke="black" stroke-width="0.833333" stroke-miterlimit="10"/>
<path d="M229.183 111.29C227.683 111.574 225.975 109.19 225.375 105.974C224.775 102.757 225.508 99.9236 227.008 99.6403L300.075 86.0153L302.25 97.6653L229.183 111.29Z" fill="black" stroke="black" stroke-width="0.833333" stroke-miterlimit="10"/>
<path d="M302.248 97.6777C303.75 97.3976 304.482 94.5628 303.882 91.346C303.282 88.1291 301.579 85.7483 300.077 86.0284C298.574 86.3084 297.843 89.1432 298.443 92.3601C299.042 95.5769 300.746 97.9577 302.248 97.6777Z" fill="#566578" stroke="black" stroke-width="0.833333" stroke-miterlimit="10"/>
<path d="M302.542 93.6903C301.992 93.7903 301.367 92.9236 301.15 91.7403C300.933 90.557 301.2 89.5236 301.75 89.4236L348.717 80.757L349.508 85.0236L302.542 93.6903Z" fill="#566578" stroke="black" stroke-width="0.833333" stroke-miterlimit="10"/>
<path d="M344.442 106.182L350.792 68.907C351.375 65.4903 354.625 63.207 358.033 63.8153C362.825 64.6736 366.892 67.7986 368.95 72.207L390.358 118.14C390.358 118.14 383.2 123.44 390.358 156.774C397.517 190.107 414.058 273.799 414.058 273.799H404.675L349.508 128.132L344.442 106.174V106.182Z" fill="#963000" stroke="black" stroke-width="0.833333" stroke-miterlimit="10"/>
<path d="M171.367 381.049L69.5166 312.374C56.3833 305.84 48.075 292.432 48.075 277.765L30.775 276.34C30.6 276.324 30.55 276.082 30.7166 276.007C34.6166 274.14 56.7083 263.574 57.2416 263.324C61.35 261.382 66.3083 261.157 70.9416 263.382L184.408 316.807C197.808 323.24 207.142 334.699 207.142 352.44C207.142 360.724 203.042 365.982 197.667 368.499C191.958 371.174 171.375 381.049 171.375 381.049H171.367Z" fill="black"/>
<mask id="mask3_69562_9627" style="mask-type:luminance" maskUnits="userSpaceOnUse" x="30" y="261" width="178" height="121">
<path d="M171.367 381.049L69.5166 312.374C56.3833 305.84 48.075 292.432 48.075 277.765L30.775 276.34C30.6 276.324 30.55 276.082 30.7166 276.007C34.6166 274.14 56.7083 263.574 57.2416 263.324C61.35 261.382 66.3083 261.157 70.9416 263.382L184.408 316.807C197.808 323.24 207.142 334.699 207.142 352.44C207.142 360.724 203.042 365.982 197.667 368.499C191.958 371.174 171.375 381.049 171.375 381.049H171.367Z" fill="white"/>
</mask>
<g mask="url(#mask3_69562_9627)">
<path d="M207.134 354.274C200.576 357.349 176.892 368.715 176.892 368.715L207.134 354.274Z" fill="black"/>
<path d="M207.134 354.274C200.576 357.349 176.892 368.715 176.892 368.715" stroke="#566578" stroke-width="0.833333" stroke-miterlimit="10"/>
<path d="M207.134 342.032C200.576 345.107 176.892 356.474 176.892 356.474L207.134 342.032Z" fill="black"/>
<path d="M207.134 342.032C200.576 345.107 176.892 356.474 176.892 356.474" stroke="#566578" stroke-width="0.833333" stroke-miterlimit="10"/>
<path d="M202.759 330.665C196.2 333.74 172.517 345.107 172.517 345.107L202.759 330.665Z" fill="black"/>
<path d="M202.759 330.665C196.2 333.74 172.517 345.107 172.517 345.107" stroke="#566578" stroke-width="0.833333" stroke-miterlimit="10"/>
<path d="M193.142 321.049C186.584 324.124 162.9 335.49 162.9 335.49L193.142 321.049Z" fill="black"/>
<path d="M193.142 321.049C186.584 324.124 162.9 335.49 162.9 335.49" stroke="#566578" stroke-width="0.833333" stroke-miterlimit="10"/>
<path d="M180.025 314.057C173.467 317.132 149.784 328.499 149.784 328.499L180.025 314.057Z" fill="black"/>
<path d="M180.025 314.057C173.467 317.132 149.784 328.499 149.784 328.499" stroke="#566578" stroke-width="0.833333" stroke-miterlimit="10"/>
<path d="M165.159 307.057C158.6 310.132 134.917 321.499 134.917 321.499L165.159 307.057Z" fill="black"/>
<path d="M165.159 307.057C158.6 310.132 134.917 321.499 134.917 321.499" stroke="#566578" stroke-width="0.833333" stroke-miterlimit="10"/>
<path d="M152.042 300.065C145.484 303.14 121.8 314.507 121.8 314.507L152.042 300.065Z" fill="black"/>
<path d="M152.042 300.065C145.484 303.14 121.8 314.507 121.8 314.507" stroke="#566578" stroke-width="0.833333" stroke-miterlimit="10"/>
<path d="M137.183 293.94C130.625 297.015 106.942 308.382 106.942 308.382L137.183 293.94Z" fill="black"/>
<path d="M137.183 293.94C130.625 297.015 106.942 308.382 106.942 308.382" stroke="#566578" stroke-width="0.833333" stroke-miterlimit="10"/>
<path d="M205.384 362.149C198.825 365.224 175.142 376.59 175.142 376.59L205.384 362.149Z" fill="black"/>
<path d="M205.384 362.149C198.825 365.224 175.142 376.59 175.142 376.59" stroke="#566578" stroke-width="0.833333" stroke-miterlimit="10"/>
<path d="M121.442 286.948C114.884 290.023 91.2007 301.39 91.2007 301.39L121.442 286.948Z" fill="black"/>
<path d="M121.442 286.948C114.884 290.023 91.2007 301.39 91.2007 301.39" stroke="#566578" stroke-width="0.833333" stroke-miterlimit="10"/>
<path d="M108.325 279.957C101.767 283.032 78.0835 294.399 78.0835 294.399L108.325 279.957Z" fill="black"/>
<path d="M108.325 279.957C101.767 283.032 78.0835 294.399 78.0835 294.399" stroke="#566578" stroke-width="0.833333" stroke-miterlimit="10"/>
<path d="M93.4585 273.832C86.9001 276.907 63.2168 288.274 63.2168 288.274L93.4585 273.832Z" fill="black"/>
<path d="M93.4585 273.832C86.9001 276.907 63.2168 288.274 63.2168 288.274" stroke="#566578" stroke-width="0.833333" stroke-miterlimit="10"/>
<path d="M79.467 266.84C72.9087 269.915 49.2253 281.282 49.2253 281.282L79.467 266.84Z" fill="black"/>
<path d="M79.467 266.84C72.9087 269.915 49.2253 281.282 49.2253 281.282" stroke="#566578" stroke-width="0.833333" stroke-miterlimit="10"/>
<path d="M69.8501 261.59C63.2917 264.665 39.6084 276.032 39.6084 276.032L69.8501 261.59Z" fill="black"/>
<path d="M69.8501 261.59C63.2917 264.665 39.6084 276.032 39.6084 276.032" stroke="#566578" stroke-width="0.833333" stroke-miterlimit="10"/>
</g>
<path d="M171.367 381.049L69.5166 312.374C56.3833 305.84 48.075 292.432 48.075 277.765L30.775 276.34C30.6 276.324 30.55 276.082 30.7166 276.007C34.6166 274.14 56.7083 263.574 57.2416 263.324C61.35 261.382 66.3083 261.157 70.9416 263.382L184.408 316.807C197.808 323.24 207.142 334.699 207.142 352.44C207.142 360.724 203.042 365.982 197.667 368.499C191.958 371.174 171.375 381.049 171.375 381.049H171.367Z" stroke="black" stroke-width="0.833333" stroke-miterlimit="10"/>
<path d="M154.275 381.057L42.3001 325.374C29.1667 318.84 20.8584 305.432 20.8584 290.765C20.8584 279.015 33.1251 271.299 43.7167 276.382L157.183 329.807C170.583 336.24 179.917 347.699 179.917 365.44C179.917 381.365 164.875 386.332 154.267 381.057H154.275Z" fill="#566578" stroke="black" stroke-width="0.833333" stroke-miterlimit="10"/>
<path d="M156.183 378.057L42.3001 321.424C31.0751 315.84 23.9751 304.382 23.9751 291.84C23.9751 281.799 34.4584 275.199 43.5168 279.54L157.15 334.09C168.608 339.59 175.892 351.174 175.892 363.874V365.84C175.892 375.965 165.25 382.565 156.183 378.049V378.057Z" fill="black"/>
<mask id="mask4_69562_9627" style="mask-type:luminance" maskUnits="userSpaceOnUse" x="23" y="278" width="153" height="102">
<path d="M156.183 378.057L42.3001 321.424C31.0751 315.84 23.9751 304.382 23.9751 291.84C23.9751 281.799 34.4584 275.199 43.5168 279.54L157.15 334.09C168.608 339.59 175.892 351.174 175.892 363.874V365.84C175.892 375.965 165.25 382.565 156.183 378.049V378.057Z" fill="white"/>
</mask>
<g mask="url(#mask4_69562_9627)">
<path d="M175.892 371.899L88.325 329.599L65.6167 339.799L164.533 398.399L175.892 371.899Z" fill="#566578" stroke="black" stroke-width="0.833333" stroke-miterlimit="10"/>
</g>
<path d="M156.183 378.057L42.3001 321.424C31.0751 315.84 23.9751 304.382 23.9751 291.84C23.9751 281.799 34.4584 275.199 43.5168 279.54L157.15 334.09C168.608 339.59 175.892 351.174 175.892 363.874V365.84C175.892 375.965 165.25 382.565 156.183 378.049V378.057Z" stroke="black" stroke-width="0.833333" stroke-miterlimit="10"/>
<path d="M268.05 330.69L173.384 266.857C161.175 260.782 153.459 248.324 153.459 234.69L137.375 233.365C137.209 233.349 137.167 233.124 137.317 233.057C140.942 231.324 161.475 221.507 161.975 221.265C165.792 219.457 170.4 219.249 174.709 221.315L280.167 270.974C292.625 276.949 301.3 287.607 301.3 304.09C301.3 311.79 297.484 316.674 292.492 319.015C287.192 321.499 268.059 330.682 268.059 330.682L268.05 330.69Z" fill="black"/>
<mask id="mask5_69562_9627" style="mask-type:luminance" maskUnits="userSpaceOnUse" x="137" y="219" width="165" height="112">
<path d="M268.05 330.69L173.384 266.857C161.175 260.782 153.459 248.324 153.459 234.69L137.375 233.365C137.209 233.349 137.167 233.124 137.317 233.057C140.942 231.324 161.475 221.507 161.975 221.265C165.792 219.457 170.4 219.249 174.709 221.315L280.167 270.974C292.625 276.949 301.3 287.607 301.3 304.09C301.3 311.79 297.484 316.674 292.492 319.015C287.192 321.499 268.059 330.682 268.059 330.682L268.05 330.69Z" fill="white"/>
</mask>
<g mask="url(#mask5_69562_9627)">
<path d="M301.292 305.815C295.192 308.674 273.184 319.24 273.184 319.24L301.292 305.815Z" fill="black"/>
<path d="M301.292 305.815C295.192 308.674 273.184 319.24 273.184 319.24" stroke="#566578" stroke-width="0.833333" stroke-miterlimit="10"/>
<path d="M301.292 294.432C295.192 297.29 273.184 307.857 273.184 307.857L301.292 294.432Z" fill="black"/>
<path d="M301.292 294.432C295.192 297.29 273.184 307.857 273.184 307.857" stroke="#566578" stroke-width="0.833333" stroke-miterlimit="10"/>
<path d="M297.226 283.865C291.126 286.724 269.117 297.29 269.117 297.29L297.226 283.865Z" fill="black"/>
<path d="M297.226 283.865C291.126 286.724 269.117 297.29 269.117 297.29" stroke="#566578" stroke-width="0.833333" stroke-miterlimit="10"/>
<path d="M288.292 274.932C282.192 277.79 260.183 288.357 260.183 288.357L288.292 274.932Z" fill="black"/>
<path d="M288.292 274.932C282.192 277.79 260.183 288.357 260.183 288.357" stroke="#566578" stroke-width="0.833333" stroke-miterlimit="10"/>
<path d="M276.101 268.424C270.001 271.282 247.992 281.849 247.992 281.849L276.101 268.424Z" fill="black"/>
<path d="M276.101 268.424C270.001 271.282 247.992 281.849 247.992 281.849" stroke="#566578" stroke-width="0.833333" stroke-miterlimit="10"/>
<path d="M262.283 261.923C256.183 264.782 234.175 275.348 234.175 275.348L262.283 261.923Z" fill="black"/>
<path d="M262.283 261.923C256.183 264.782 234.175 275.348 234.175 275.348" stroke="#566578" stroke-width="0.833333" stroke-miterlimit="10"/>
<path d="M250.092 255.424C243.992 258.282 221.984 268.849 221.984 268.849L250.092 255.424Z" fill="black"/>
<path d="M250.092 255.424C243.992 258.282 221.984 268.849 221.984 268.849" stroke="#566578" stroke-width="0.833333" stroke-miterlimit="10"/>
<path d="M236.275 249.732C230.175 252.59 208.167 263.157 208.167 263.157L236.275 249.732Z" fill="black"/>
<path d="M236.275 249.732C230.175 252.59 208.167 263.157 208.167 263.157" stroke="#566578" stroke-width="0.833333" stroke-miterlimit="10"/>
<path d="M299.667 313.124C293.567 315.982 271.559 326.549 271.559 326.549L299.667 313.124Z" fill="black"/>
<path d="M299.667 313.124C293.567 315.982 271.559 326.549 271.559 326.549" stroke="#566578" stroke-width="0.833333" stroke-miterlimit="10"/>
<path d="M221.651 243.232C215.551 246.09 193.542 256.657 193.542 256.657L221.651 243.232Z" fill="black"/>
<path d="M221.651 243.232C215.551 246.09 193.542 256.657 193.542 256.657" stroke="#566578" stroke-width="0.833333" stroke-miterlimit="10"/>
<path d="M209.459 236.732C203.359 239.59 181.351 250.157 181.351 250.157L209.459 236.732Z" fill="black"/>
<path d="M209.459 236.732C203.359 239.59 181.351 250.157 181.351 250.157" stroke="#566578" stroke-width="0.833333" stroke-miterlimit="10"/>
<path d="M195.642 231.04C189.542 233.898 167.534 244.465 167.534 244.465L195.642 231.04Z" fill="black"/>
<path d="M195.642 231.04C189.542 233.898 167.534 244.465 167.534 244.465" stroke="#566578" stroke-width="0.833333" stroke-miterlimit="10"/>
<path d="M182.642 224.54C176.542 227.399 154.534 237.965 154.534 237.965L182.642 224.54Z" fill="black"/>
<path d="M182.642 224.54C176.542 227.399 154.534 237.965 154.534 237.965" stroke="#566578" stroke-width="0.833333" stroke-miterlimit="10"/>
<path d="M173.7 219.665C167.6 222.524 145.592 233.09 145.592 233.09L173.7 219.665Z" fill="black"/>
<path d="M173.7 219.665C167.6 222.524 145.592 233.09 145.592 233.09" stroke="#566578" stroke-width="0.833333" stroke-miterlimit="10"/>
</g>
<path d="M268.05 330.69L173.384 266.857C161.175 260.782 153.459 248.324 153.459 234.69L137.375 233.365C137.209 233.349 137.167 233.124 137.317 233.057C140.942 231.324 161.475 221.507 161.975 221.265C165.792 219.457 170.4 219.249 174.709 221.315L280.167 270.974C292.625 276.949 301.3 287.607 301.3 304.09C301.3 311.79 297.484 316.674 292.492 319.015C287.192 321.499 268.059 330.682 268.059 330.682L268.05 330.69Z" stroke="black" stroke-width="0.833333" stroke-miterlimit="10"/>
<path d="M252.166 330.699L148.1 278.949C135.891 272.874 128.175 260.415 128.175 246.782C128.175 235.865 139.575 228.69 149.425 233.415L254.883 283.074C267.341 289.049 276.016 299.707 276.016 316.19C276.016 330.99 262.033 335.607 252.175 330.707L252.166 330.699Z" fill="#566578" stroke="black" stroke-width="0.833333" stroke-miterlimit="10"/>
<path d="M253.933 327.915L148.092 275.282C137.658 270.09 131.058 259.44 131.058 247.782C131.058 238.449 140.808 232.315 149.217 236.357L254.833 287.057C265.483 292.165 272.25 302.932 272.25 314.74V316.565C272.25 325.974 262.358 332.107 253.925 327.915H253.933Z" fill="black"/>
<mask id="mask6_69562_9627" style="mask-type:luminance" maskUnits="userSpaceOnUse" x="131" y="235" width="142" height="95">
<path d="M253.933 327.915L148.092 275.282C137.658 270.09 131.058 259.44 131.058 247.782C131.058 238.449 140.808 232.315 149.217 236.357L254.833 287.057C265.483 292.165 272.25 302.932 272.25 314.74V316.565C272.25 325.974 262.358 332.107 253.925 327.915H253.933Z" fill="white"/>
</mask>
<g mask="url(#mask6_69562_9627)">
<path d="M272.259 322.19L190.875 282.874L169.759 292.357L261.7 346.815L272.259 322.19Z" fill="#566578" stroke="black" stroke-width="0.833333" stroke-miterlimit="10"/>
</g>
<path d="M253.933 327.915L148.092 275.282C137.658 270.09 131.058 259.44 131.058 247.782C131.058 238.449 140.808 232.315 149.217 236.357L254.833 287.057C265.483 292.165 272.25 302.932 272.25 314.74V316.565C272.25 325.974 262.358 332.107 253.925 327.915H253.933Z" stroke="black" stroke-width="0.833333" stroke-miterlimit="10"/>
<path d="M180.883 251.907L105.608 277.807L156.908 303.857L217.041 274.132V268.915L180.883 251.907Z" fill="#566578" stroke="black" stroke-width="0.833333" stroke-miterlimit="10"/>
<path d="M196.367 256.29L223.533 268.374C224.975 269.015 226.633 268.965 228.033 268.232L261.492 250.807C262.45 250.307 263.225 249.524 263.717 248.565L264.05 247.915C265.175 245.707 265.758 243.274 265.758 240.799V218.824C265.758 218.824 266.55 180.482 259.525 166.157C258.392 163.849 256.408 162.082 254.008 161.165L222.633 149.09L186.258 162.374L166.508 230.024L196.367 256.299V256.29Z" fill="#566578"/>
<mask id="mask7_69562_9627" style="mask-type:luminance" maskUnits="userSpaceOnUse" x="166" y="149" width="100" height="120">
<path d="M196.367 256.29L223.533 268.374C224.975 269.015 226.633 268.965 228.033 268.232L261.492 250.807C262.45 250.307 263.225 249.524 263.717 248.565L264.05 247.915C265.175 245.707 265.758 243.274 265.758 240.799V218.824C265.758 218.824 266.55 180.482 259.525 166.157C258.392 163.849 256.408 162.082 254.008 161.165L222.633 149.09L186.258 162.374L166.508 230.024L196.367 256.299V256.29Z" fill="white"/>
</mask>
<g mask="url(#mask7_69562_9627)">
<path d="M228.483 236.324C228.483 236.324 229.342 194.79 221.608 180.149C220.483 178.007 218.55 176.399 216.3 175.532L182.958 162.699L159.592 248.124L225.525 269.282L226.767 266.849C227.892 264.64 228.475 262.207 228.475 259.732V236.324" fill="black"/>
<path d="M228.483 236.324C228.483 236.324 229.342 194.79 221.608 180.149C220.483 178.007 218.55 176.399 216.3 175.532L182.958 162.699L159.592 248.124L225.525 269.282L226.767 266.849C227.892 264.64 228.475 262.207 228.475 259.732V236.324" stroke="black" stroke-width="0.833333" stroke-miterlimit="10"/>
</g>
<path d="M196.367 256.29L223.533 268.374C224.975 269.015 226.633 268.965 228.033 268.232L261.492 250.807C262.45 250.307 263.225 249.524 263.717 248.565L264.05 247.915C265.175 245.707 265.758 243.274 265.758 240.799V218.824C265.758 218.824 266.55 180.482 259.525 166.157C258.392 163.849 256.408 162.082 254.008 161.165L222.633 149.09L186.258 162.374L166.508 230.024L196.367 256.299V256.29Z" stroke="black" stroke-width="0.833333" stroke-miterlimit="10"/>
<path d="M195.4 250.157L179.266 224.424L140.25 235.59V268.365L160.175 278.082L196.55 260.699L195.4 250.157Z" fill="black"/>
<mask id="mask8_69562_9627" style="mask-type:luminance" maskUnits="userSpaceOnUse" x="140" y="224" width="57" height="55">
<path d="M195.4 250.157L179.266 224.424L140.25 235.59V268.365L160.175 278.082L196.55 260.699L195.4 250.157Z" fill="white"/>
</mask>
<g mask="url(#mask8_69562_9627)">
<path d="M156.467 268.04L195.4 250.157L178.358 217.34L137.225 231.007V255.857L156.467 268.04Z" fill="#566578" stroke="black" stroke-width="0.833333" stroke-miterlimit="10"/>
</g>
<path d="M195.4 250.157L179.266 224.424L140.25 235.59V268.365L160.175 278.082L196.55 260.699L195.4 250.157Z" stroke="black" stroke-width="0.833333" stroke-miterlimit="10"/>
<path d="M190.742 249.315C190.317 250.782 187.417 251.232 184.275 250.315C181.133 249.399 178.933 247.465 179.358 245.999L200.175 174.649L211.55 177.965L190.733 249.315H190.742Z" fill="black" stroke="#566578" stroke-width="0.833333" stroke-miterlimit="10"/>
<path d="M211.571 177.981C212 176.514 209.8 174.582 206.659 173.665C203.518 172.748 200.624 173.194 200.196 174.661C199.768 176.128 201.967 178.06 205.109 178.977C208.25 179.893 211.143 179.448 211.571 177.981Z" fill="#566578" stroke="black" stroke-width="0.833333" stroke-miterlimit="10"/>
<path d="M141.158 244.932L180.833 226.924C180.833 226.924 221.517 166.257 226.908 159.532C232.3 152.807 242.383 148.94 242.383 148.94L190.125 155.49L141.158 244.924V244.932Z" fill="black" stroke="black" stroke-width="0.833333" stroke-miterlimit="10"/>
<path d="M195.7 118.14C195.7 118.14 205.1 105.282 223.283 99.7736C224.675 99.3486 226.2 99.7486 227.175 100.84C229.275 103.182 232.467 107.949 232.017 114.982" fill="#FF5200"/>
<path d="M195.7 118.14C195.7 118.14 205.1 105.282 223.283 99.7736C224.675 99.3486 226.2 99.7486 227.175 100.84C229.275 103.182 232.467 107.949 232.017 114.982" stroke="black" stroke-width="0.833333" stroke-miterlimit="10"/>
<path d="M157.325 282.307L125.2 297.665L33.1917 254.082L29.5667 248.157V204.707L36.025 197.624L115.317 166.807L161.075 190.182L141.158 224.415V248.007L161.075 258.04V276.349C161.075 278.89 159.617 281.207 157.317 282.307H157.325Z" fill="black"/>
<mask id="mask9_69562_9627" style="mask-type:luminance" maskUnits="userSpaceOnUse" x="29" y="166" width="133" height="132">
<path d="M157.325 282.307L125.2 297.665L33.1917 254.082L29.5667 248.157V204.707L36.025 197.624L115.317 166.807L161.075 190.182L141.158 224.415V248.007L161.075 258.04V276.349C161.075 278.89 159.617 281.207 157.317 282.307H157.325Z" fill="white"/>
</mask>
<g mask="url(#mask9_69562_9627)">
<path d="M20.8586 240.715L128.167 291.199L161.325 275.665V252.074L166.509 185.907L47.1586 181.365L25.2086 189.857L20.8586 240.715Z" fill="#FF5200" stroke="black" stroke-width="0.833333" stroke-miterlimit="10"/>
<path d="M36.0251 197.632L89.4085 222.882L113.608 234.282L138.525 223.19L112.108 211.832L161.075 190.19L149.883 178.99L80.2668 170.357L36.0251 197.632Z" fill="#FF945B"/>
<path d="M107.417 263.257L128.167 272.674L161.075 258.04L141.159 248.007L107.417 263.257Z" fill="#FF945B"/>
<path d="M154.508 193.157L113.125 211.832L137.225 222.624L154.508 193.157Z" fill="#963000"/>
<path d="M35.8418 250.399V206.974L42.2501 200.499L47.7251 197.624" stroke="black" stroke-width="0.833333" stroke-miterlimit="10"/>
<path d="M84.3499 270.065V230.057L88.7832 222.59L163.125 189.299" stroke="black" stroke-width="0.833333" stroke-miterlimit="10"/>
<path d="M107.417 263.257V241.215L113.35 234.715L138.525 223.19L141.159 224.424V247.132" stroke="black" stroke-width="0.833333" stroke-miterlimit="10"/>
<path d="M128.167 272.674V292.949" stroke="black" stroke-width="0.833333" stroke-miterlimit="10"/>
<path d="M60.8915 213.19L58.5332 218.199V226.465L76.3082 234.79V226.574L78.6749 221.565L60.8915 213.19Z" fill="black" stroke="black" stroke-width="0.833333" stroke-miterlimit="10"/>
<path d="M35.4919 222.94L59.0336 233.99" stroke="black" stroke-width="0.833333" stroke-miterlimit="10"/>
<path d="M35.4919 227.315L59.0336 238.357" stroke="black" stroke-width="0.833333" stroke-miterlimit="10"/>
<path d="M35.4919 231.682L59.0336 242.732" stroke="black" stroke-width="0.833333" stroke-miterlimit="10"/>
<path d="M35.4919 236.057L59.0336 247.107" stroke="black" stroke-width="0.833333" stroke-miterlimit="10"/>
</g>
<path d="M157.325 282.307L125.2 297.665L33.1917 254.082L29.5667 248.157V204.707L36.025 197.624L115.317 166.807L161.075 190.182L141.158 224.415V248.007L161.075 258.04V276.349C161.075 278.89 159.617 281.207 157.317 282.307H157.325Z" stroke="black" stroke-width="0.833333" stroke-miterlimit="10"/>
<path d="M85.9999 216.265L41.9082 195.782V188.64C41.9082 185.34 44.0249 182.407 47.1499 181.365L106.483 158.907C110.325 157.449 114.575 157.507 118.383 159.057L161.067 176.465V184.107L85.9915 216.265H85.9999Z" fill="#963000"/>
<mask id="mask10_69562_9627" style="mask-type:luminance" maskUnits="userSpaceOnUse" x="41" y="157" width="121" height="60">
<path d="M85.9999 216.265L41.9082 195.782V188.64C41.9082 185.34 44.0249 182.407 47.1499 181.365L106.483 158.907C110.325 157.449 114.575 157.507 118.383 159.057L161.067 176.465V184.107L85.9915 216.265H85.9999Z" fill="white"/>
</mask>
<g mask="url(#mask10_69562_9627)">
<path d="M85.9999 208.399L41.9082 187.915V180.774C41.9082 177.474 44.0249 174.54 47.1499 173.499L109.842 152.649C113.917 151.29 118.325 151.349 122.367 152.815L161.067 168.599V176.24L85.9915 208.399H85.9999Z" fill="#FF5200"/>
<path d="M41.9084 184.849C41.9084 184.849 42.7334 183.099 47.8334 184.999C51.3834 186.324 67.8584 193.665 77.5417 197.999C82.1417 200.057 87.3584 200.249 92.1001 198.524L115.483 190.024L88.7667 195.874C85.5834 196.574 82.2667 196.274 79.2584 195.015L55.0917 184.915C52.9417 184.015 52.1417 181.39 53.4251 179.449C53.4251 179.449 43.0584 177.432 41.9001 183.399C40.7417 189.365 41.9001 184.849 41.9001 184.849H41.9084Z" fill="#FF945B"/>
</g>
<path d="M85.9999 216.265L41.9082 195.782V188.64C41.9082 185.34 44.0249 182.407 47.1499 181.365L106.483 158.907C110.325 157.449 114.575 157.507 118.383 159.057L161.067 176.465V184.107L85.9915 216.265H85.9999Z" stroke="black" stroke-width="0.833333" stroke-miterlimit="10"/>
<path d="M180.833 226.924C180.833 226.924 221.517 166.257 226.908 159.532C232.3 152.807 242.383 148.94 242.383 148.94" stroke="#FF5200" stroke-width="0.833333" stroke-miterlimit="10"/>
<path d="M141.158 243.182L197.9 171.557C206.116 161.182 217.725 154.032 230.683 151.365L336.433 129.557C337.633 129.307 338.866 129.215 340.091 129.282L353.341 129.965C356.508 130.132 359.441 128.282 360.666 125.357C361.883 122.432 361.141 119.057 358.808 116.924L348.716 107.665C347.558 106.599 346 106.065 344.433 106.19L199.875 117.499C189.9 118.282 181.1 124.324 176.8 133.357L134.758 221.582L141.15 224.432V243.199L141.158 243.182Z" fill="#FF5200"/>
<mask id="mask11_69562_9627" style="mask-type:luminance" maskUnits="userSpaceOnUse" x="134" y="106" width="228" height="138">
<path d="M141.158 243.182L197.9 171.557C206.116 161.182 217.725 154.032 230.683 151.365L336.433 129.557C337.633 129.307 338.866 129.215 340.091 129.282L353.341 129.965C356.508 130.132 359.441 128.282 360.666 125.357C361.883 122.432 361.141 119.057 358.808 116.924L348.716 107.665C347.558 106.599 346 106.065 344.433 106.19L199.875 117.499C189.9 118.282 181.1 124.324 176.8 133.357L134.758 221.582L141.15 224.432V243.199L141.158 243.182Z" fill="white"/>
</mask>
<g mask="url(#mask11_69562_9627)">
<path d="M137.391 225.065L179.433 136.84C183.733 127.807 192.533 121.765 202.508 120.982L345.008 109.832C345.975 109.757 346.933 110.09 347.649 110.749L348.716 111.732L203.141 123.357C195.824 123.94 189.366 128.374 186.191 134.99L140.241 230.832L137.383 225.057L137.391 225.065Z" fill="black" stroke="black" stroke-width="0.833333" stroke-miterlimit="10"/>
</g>
<path d="M141.158 243.182L197.9 171.557C206.116 161.182 217.725 154.032 230.683 151.365L336.433 129.557C337.633 129.307 338.866 129.215 340.091 129.282L353.341 129.965C356.508 130.132 359.441 128.282 360.666 125.357C361.883 122.432 361.141 119.057 358.808 116.924L348.716 107.665C347.558 106.599 346 106.065 344.433 106.19L199.875 117.499C189.9 118.282 181.1 124.324 176.8 133.357L134.758 221.582L141.15 224.432V243.199L141.158 243.182Z" stroke="black" stroke-width="0.833333" stroke-miterlimit="10"/>
<path d="M123.333 296.799L51.8335 263.515" stroke="#566578" stroke-width="0.833333" stroke-miterlimit="10"/>
<path d="M150.492 300.832L216.15 269.332C216.558 269.132 217.042 269.432 217.042 269.89V274.124L156.908 303.849L150.492 300.832Z" fill="black" stroke="black" stroke-width="0.833333" stroke-miterlimit="10"/>
<path d="M112.467 211.982L138.525 223.19" stroke="black" stroke-width="0.833333" stroke-miterlimit="10"/>
<path d="M169.525 257.857C169.1 259.324 166.2 259.774 163.058 258.857C159.916 257.94 157.716 256.007 158.141 254.54L178.958 183.19L190.333 186.507L169.516 257.857H169.525Z" fill="black" stroke="#566578" stroke-width="0.833333" stroke-miterlimit="10"/>
<path d="M190.36 186.516C190.788 185.049 188.589 183.117 185.447 182.2C182.306 181.283 179.413 181.729 178.985 183.196C178.557 184.662 180.756 186.595 183.897 187.512C187.038 188.428 189.932 187.982 190.36 186.516Z" fill="#566578" stroke="#566578" stroke-width="0.833333" stroke-miterlimit="10"/>
<path d="M186.934 184.457C186.775 184.99 185.717 185.157 184.567 184.824C183.417 184.49 182.609 183.782 182.767 183.24L195.717 137.424L199.884 138.64L186.934 184.457Z" fill="#566578" stroke="black" stroke-width="0.833333" stroke-miterlimit="10"/>
<path d="M199.892 138.656C200.05 138.117 199.246 137.408 198.097 137.073C196.949 136.738 195.89 136.903 195.733 137.442C195.575 137.981 196.379 138.69 197.528 139.025C198.676 139.36 199.735 139.195 199.892 138.656Z" fill="#566578" stroke="black" stroke-width="0.833333" stroke-miterlimit="10"/>
<path d="M198.825 147.432C202.719 147.432 205.875 143.988 205.875 139.74C205.875 135.492 202.719 132.049 198.825 132.049C194.931 132.049 191.775 135.492 191.775 139.74C191.775 143.988 194.931 147.432 198.825 147.432Z" fill="black" stroke="black" stroke-width="0.833333" stroke-miterlimit="10"/>
<path d="M196.15 144.515C198.566 144.515 200.525 142.377 200.525 139.74C200.525 137.103 198.566 134.965 196.15 134.965C193.734 134.965 191.775 137.103 191.775 139.74C191.775 142.377 193.734 144.515 196.15 144.515Z" fill="#566578" stroke="black" stroke-width="0.833333" stroke-miterlimit="10"/>
<path d="M392.892 122.424C392.7 121.89 393.467 121.124 394.608 120.707C395.75 120.29 396.825 120.39 397.025 120.924L413.442 166.382L409.317 167.882L392.9 122.424H392.892Z" fill="#566578" stroke="black" stroke-width="0.833333" stroke-miterlimit="10"/>
<path d="M399.575 289.765V279.949C399.575 277.099 401.25 274.515 403.859 273.357L408.792 271.165C408.792 271.165 414.225 270.674 421.134 276.107C426.142 280.04 435.375 286.907 440.084 290.399C441.934 291.765 443.025 293.932 443.025 296.232V309.974L440.142 311.132L399.567 289.774L399.575 289.765Z" fill="#566578"/>
<mask id="mask12_69562_9627" style="mask-type:luminance" maskUnits="userSpaceOnUse" x="399" y="271" width="45" height="41">
<path d="M399.575 289.765V279.949C399.575 277.099 401.25 274.515 403.859 273.357L408.792 271.165C408.792 271.165 414.225 270.674 421.134 276.107C426.142 280.04 435.375 286.907 440.084 290.399C441.934 291.765 443.025 293.932 443.025 296.232V309.974L440.142 311.132L399.567 289.774L399.575 289.765Z" fill="white"/>
</mask>
<g mask="url(#mask12_69562_9627)">
<path d="M396.95 291.515V281.699C396.95 278.849 398.625 276.265 401.233 275.107L406.166 272.915C406.166 272.915 411.6 272.424 418.508 277.857C423.516 281.79 432.75 288.657 437.458 292.149C439.308 293.515 440.4 295.682 440.4 297.982V314.399L396.95 291.524V291.515Z" fill="black" stroke="black" stroke-width="0.833333" stroke-miterlimit="10"/>
</g>
<path d="M399.575 289.765V279.949C399.575 277.099 401.25 274.515 403.859 273.357L408.792 271.165C408.792 271.165 414.225 270.674 421.134 276.107C426.142 280.04 435.375 286.907 440.084 290.399C441.934 291.765 443.025 293.932 443.025 296.232V309.974L440.142 311.132L399.567 289.774L399.575 289.765Z" stroke="black" stroke-width="0.833333" stroke-miterlimit="10"/>
<path d="M392.942 131.907C392.417 130.449 394.508 128.357 397.625 127.224C400.742 126.09 403.692 126.357 404.217 127.807L429.892 198.507L418.617 202.599L392.942 131.899V131.907Z" fill="black" stroke="black" stroke-width="0.833333" stroke-miterlimit="10"/>
<path d="M425.216 203.2C428.331 202.069 430.428 199.974 429.9 198.52C429.372 197.067 426.42 196.806 423.305 197.937C420.19 199.068 418.093 201.163 418.621 202.617C419.149 204.07 422.102 204.332 425.216 203.2Z" fill="#566578" stroke="black" stroke-width="0.833333" stroke-miterlimit="10"/>
<path d="M422.625 202.24C422.433 201.707 423.2 200.94 424.342 200.524C425.483 200.107 426.558 200.207 426.758 200.74L443.175 246.199L439.05 247.699L422.633 202.24H422.625Z" fill="#566578" stroke="black" stroke-width="0.833333" stroke-miterlimit="10"/>
<path d="M444.908 247.065L401.2 241.382C400.3 241.265 399.367 242.732 399.117 244.657C398.867 246.582 399.392 248.24 400.292 248.357L444 254.04C444.9 254.157 445.833 252.69 446.083 250.765C446.333 248.84 445.808 247.182 444.908 247.065Z" fill="black" stroke="black" stroke-width="0.833333" stroke-miterlimit="10"/>
<path d="M453.933 239.582L433.833 248.74L441.709 254.04L455.234 245.907L453.933 239.582Z" fill="black" stroke="black" stroke-width="0.833333" stroke-miterlimit="10"/>
<path d="M452.25 247.707L446.142 287.624L432.883 283.799L436.158 251.457L452.25 247.707Z" fill="black" stroke="black" stroke-width="0.833333" stroke-miterlimit="10"/>
<path d="M375.425 175.29L365.391 144.132C363.541 138.39 363.058 132.299 364.008 126.349C365.525 116.882 367.35 102.207 365.425 95.5487C362.391 85.0487 347.258 83.1904 338.15 96.0237C335.333 99.9904 331.016 102.632 326.183 103.14L265.441 109.532C262.633 109.824 259.991 111.024 257.925 112.949" stroke="black" stroke-width="0.833333" stroke-miterlimit="10"/>
<path d="M254.225 169.415L230.817 179.515C228.783 180.39 227.7 182.632 228.283 184.765C229.875 190.59 232.583 203.174 232.583 221.257V251.532C232.583 252.699 233.8 253.457 234.85 252.94L260.583 240.332C261.958 239.657 262.825 238.265 262.825 236.732V211.399C262.825 191.032 259.683 177.09 258.058 171.249C257.6 169.59 255.783 168.732 254.208 169.407L254.225 169.415Z" fill="black"/>
<mask id="mask13_69562_9627" style="mask-type:luminance" maskUnits="userSpaceOnUse" x="228" y="169" width="35" height="85">
<path d="M254.225 169.415L230.817 179.515C228.783 180.39 227.7 182.632 228.283 184.765C229.875 190.59 232.583 203.174 232.583 221.257V251.532C232.583 252.699 233.8 253.457 234.85 252.94L260.583 240.332C261.958 239.657 262.825 238.265 262.825 236.732V211.399C262.825 191.032 259.683 177.09 258.058 171.249C257.6 169.59 255.783 168.732 254.208 169.407L254.225 169.415Z" fill="white"/>
</mask>
<g mask="url(#mask13_69562_9627)">
<path d="M252.475 169.415L229.067 179.515C227.033 180.39 225.95 182.632 226.533 184.765C228.125 190.59 230.833 203.174 230.833 221.257V251.532C230.833 252.699 232.05 253.457 233.1 252.94L258.833 240.332C260.208 239.657 261.075 238.265 261.075 236.732V211.399C261.075 191.032 257.933 177.09 256.308 171.249C255.85 169.59 254.033 168.732 252.458 169.407L252.475 169.415Z" fill="#C7C7C7"/>
<path d="M259.5 177.107C259.5 177.107 259.5 192.507 255.308 200.565C251.908 207.09 239.933 227.59 235.5 235.157C234.666 236.582 232.7 236.799 231.575 235.59L229.383 233.249L233.083 256.765C233.083 256.765 234.566 248.44 237.525 241.374C239.7 236.182 249.683 221.124 254.825 213.499C256.741 210.657 259.941 208.957 263.375 208.957H267.4L259.491 177.107H259.5Z" fill="#F3F3F3"/>
</g>
<path d="M254.225 169.415L230.817 179.515C228.783 180.39 227.7 182.632 228.283 184.765C229.875 190.59 232.583 203.174 232.583 221.257V251.532C232.583 252.699 233.8 253.457 234.85 252.94L260.583 240.332C261.958 239.657 262.825 238.265 262.825 236.732V211.399C262.825 191.032 259.683 177.09 258.058 171.249C257.6 169.59 255.783 168.732 254.208 169.407L254.225 169.415Z" stroke="black" stroke-width="0.833333" stroke-miterlimit="10"/>
</g>
<defs>
</defs>
</svg>
