<svg width="500" height="500" viewBox="0 0 500 500" fill="none" xmlns="http://www.w3.org/2000/svg">
<g>
<path d="M458.05 413.792L361.816 383.733C360.716 383.392 360.625 381.867 361.675 381.4L362.766 380.908C367.291 378.875 366.9 372.317 362.158 370.842L262.008 339.558C254.666 337.267 246.816 337.15 239.416 339.217L232.066 341.275C229.933 341.875 227.666 341.833 225.55 341.175L147.766 316.875C139.875 314.408 131.4 314.575 123.616 317.333L47.8496 344.225C44.5162 345.408 44.4579 350.092 47.7579 351.367L69.3996 359.692L59.9162 362.342C54.9829 363.717 54.5662 370.558 59.2996 372.517L138.683 405.467C147.525 409.133 157.391 409.5 166.475 406.492L176.366 403.217C178.533 402.5 180.883 402.558 183.016 403.375L215.991 416.05C217.333 416.567 217.358 418.45 216.033 419.008L205.7 423.333C201.275 425.183 201.291 431.45 205.716 433.292L287.191 467.108C297.341 471.325 308.783 471.15 318.808 466.642L328.225 462.4C330.683 461.292 333.475 461.217 335.991 462.183L352.366 468.475C361 471.8 370.658 471.217 378.833 466.892L459.05 424.45C463.6 422.042 462.983 415.333 458.066 413.8L458.05 413.792Z" fill="black"/>
<path d="M297.333 272.542L242.016 165.6L247.716 161.708L303.008 268.617C303.116 268.775 303.183 268.942 303.216 269.125C303.333 269.758 303.333 271.217 301.475 272.55C299.483 273.975 298.075 273.2 297.6 272.833C297.491 272.75 297.4 272.65 297.325 272.542H297.333Z" fill="#566578"/>
<mask id="mask0_69562_640" style="mask-type:luminance" maskUnits="userSpaceOnUse" x="242" y="161" width="62" height="113">
<path d="M297.333 272.542L242.016 165.6L247.716 161.708L303.008 268.617C303.116 268.775 303.183 268.942 303.216 269.125C303.333 269.758 303.333 271.217 301.474 272.55C299.483 273.975 298.074 273.2 297.599 272.833C297.491 272.75 297.399 272.65 297.324 272.542H297.333Z" fill="white"/>
</mask>
<g mask="url(#mask0_69562_640)">
<path d="M262.283 178.283C262.283 178.283 261.892 181.008 259.492 182.442C257.092 183.875 252.525 183.483 252.525 183.483L247.217 176.608L258.775 173.417L262.283 178.292V178.283Z" fill="black" stroke="black" stroke-width="0.833333" stroke-miterlimit="10"/>
</g>
<path d="M297.333 272.542L242.016 165.6L247.716 161.708L303.008 268.617C303.116 268.775 303.183 268.942 303.216 269.125C303.333 269.758 303.333 271.217 301.475 272.55C299.483 273.975 298.075 273.2 297.6 272.833C297.491 272.75 297.4 272.65 297.325 272.542H297.333Z" stroke="black" stroke-width="0.833333" stroke-miterlimit="10"/>
<path d="M222.075 300.183C221.983 300.467 221.816 300.708 221.575 300.875C221.05 301.225 219.958 301.642 218.1 301.042C216.25 300.442 215.658 299.5 215.475 298.933C215.391 298.675 215.4 298.4 215.475 298.15L251.216 165.933C251.283 165.717 251.55 165.65 251.708 165.808C252.075 166.167 252.808 166.7 254.125 167.067C255.425 167.433 256.6 167.35 257.325 167.225C257.675 167.167 257.958 167.492 257.85 167.833L222.066 300.175L222.075 300.183Z" fill="#566578"/>
<path d="M222.075 300.183C221.983 300.467 221.816 300.708 221.575 300.875C221.05 301.225 219.958 301.642 218.1 301.042C216.25 300.442 215.658 299.5 215.475 298.933C215.391 298.675 215.4 298.4 215.475 298.15L251.216 165.933C251.283 165.717 251.55 165.65 251.708 165.808C252.075 166.167 252.808 166.7 254.125 167.067C255.425 167.433 256.6 167.35 257.325 167.225C257.675 167.167 257.958 167.492 257.85 167.833L222.066 300.175L222.075 300.183Z" stroke="black" stroke-width="0.833333" stroke-miterlimit="10"/>
<path d="M211.4 215.267C211.4 216.883 212.383 218.342 213.883 218.95C220.975 221.8 241.892 229.967 258.892 234.217C274.392 238.092 294.925 241.5 304.392 242.992C307.767 243.525 311.225 243.217 314.45 242.092L350.3 229.642C352.242 228.967 353.542 227.142 353.542 225.083V219.217C353.542 218.175 353.2 217.15 352.567 216.325L351.733 215.225C350.625 213.767 348.942 212.883 347.108 212.8C335.767 212.3 293.283 209.717 265.525 198.625C263.108 197.658 260.458 197.433 257.9 197.908L216.633 205.533C215.592 205.725 214.625 206.2 213.842 206.908L212.225 208.358C211.692 208.833 211.392 209.517 211.392 210.225V215.275L211.4 215.267Z" fill="#566578"/>
<mask id="mask1_69562_640" style="mask-type:luminance" maskUnits="userSpaceOnUse" x="211" y="197" width="143" height="47">
<path d="M211.4 215.267C211.4 216.883 212.383 218.342 213.883 218.95C220.975 221.8 241.892 229.967 258.892 234.217C274.392 238.092 294.925 241.5 304.392 242.992C307.767 243.525 311.225 243.217 314.45 242.092L350.3 229.642C352.242 228.967 353.542 227.142 353.542 225.083V219.217C353.542 218.175 353.2 217.15 352.567 216.325L351.733 215.225C350.625 213.767 348.942 212.883 347.108 212.8C335.767 212.3 293.283 209.717 265.525 198.625C263.108 197.658 260.458 197.433 257.9 197.908L216.633 205.533C215.592 205.725 214.625 206.2 213.842 206.908L212.225 208.358C211.692 208.833 211.392 209.517 211.392 210.225V215.275L211.4 215.267Z" fill="white"/>
</mask>
<g mask="url(#mask1_69562_640)">
<path d="M214.808 206.208L213.55 207.142C212.775 207.717 212.941 208.908 213.833 209.25C222.608 212.583 243.292 219.608 258.892 223.508C274.392 227.383 294.925 230.792 304.391 232.283C307.766 232.817 311.225 232.508 314.45 231.383L351.508 218.508C352.517 218.158 352.891 216.925 352.258 216.075L351.058 214.467C351.058 214.467 347.125 210.375 330.05 207.275C312.975 204.167 255.242 192.758 255.242 192.758L214.808 206.208Z" fill="#C7C7C7"/>
<path d="M217.825 203.833L216.616 204.725C215.875 205.267 216.033 206.417 216.891 206.742C225.275 209.925 245.041 216.642 259.95 220.367C274.766 224.067 294.383 227.325 303.425 228.75C306.65 229.258 309.95 228.958 313.041 227.892L348.45 215.592C349.416 215.258 349.775 214.083 349.166 213.267L348.016 211.725C348.016 211.725 344.258 207.817 327.941 204.85C311.625 201.883 256.458 190.975 256.458 190.975L217.816 203.825L217.825 203.833Z" fill="#C7C7C7" stroke="black" stroke-width="0.416667" stroke-miterlimit="10"/>
<path d="M216.25 201.358L313.017 227.142C314.333 227.492 315.567 228.108 316.642 228.95L317.483 229.608C318.308 230.258 318.792 231.242 318.792 232.292V240.058C318.792 240.058 317.183 246.475 308.975 246.517C300.767 246.558 206.658 225.733 206.658 222.025C206.658 218.317 207.142 204.783 207.142 204.783L216.233 201.35L216.25 201.358Z" fill="black"/>
</g>
<path d="M211.4 215.267C211.4 216.883 212.383 218.342 213.883 218.95C220.975 221.8 241.892 229.967 258.892 234.217C274.392 238.092 294.925 241.5 304.392 242.992C307.767 243.525 311.225 243.217 314.45 242.092L350.3 229.642C352.242 228.967 353.542 227.142 353.542 225.083V219.217C353.542 218.175 353.2 217.15 352.567 216.325L351.733 215.225C350.625 213.767 348.942 212.883 347.108 212.8C335.767 212.3 293.283 209.717 265.525 198.625C263.108 197.658 260.458 197.433 257.9 197.908L216.633 205.533C215.592 205.725 214.625 206.2 213.842 206.908L212.225 208.358C211.692 208.833 211.392 209.517 211.392 210.225V215.275L211.4 215.267Z" stroke="black" stroke-width="0.833333" stroke-miterlimit="10"/>
<path d="M379.258 280.875L293.641 259.85C292.658 259.6 292.058 258.6 292.308 257.617C292.558 256.633 293.558 256.033 294.541 256.283L380.975 277.508L379.266 280.883L379.258 280.875Z" fill="#566578" stroke="black" stroke-width="0.833333" stroke-miterlimit="10"/>
<path d="M383.875 296.092L336.933 196.417L343.058 192.333L390.083 292.125C390.191 292.283 390.275 292.458 390.316 292.65C390.458 293.275 390.458 294.633 388.441 296C386.591 297.258 385.25 296.992 384.566 296.683C384.283 296.55 384.041 296.342 383.866 296.083L383.875 296.092Z" fill="#566578"/>
<mask id="mask2_69562_640" style="mask-type:luminance" maskUnits="userSpaceOnUse" x="336" y="192" width="55" height="105">
<path d="M383.875 296.092L336.933 196.417L343.058 192.333L390.083 292.125C390.191 292.283 390.275 292.458 390.316 292.65C390.458 293.275 390.458 294.633 388.441 296C386.591 297.258 385.25 296.992 384.566 296.683C384.283 296.55 384.041 296.342 383.866 296.083L383.875 296.092Z" fill="white"/>
</mask>
<g mask="url(#mask2_69562_640)">
<path d="M349.883 199.608C349.883 199.608 349.083 202.567 346.683 203.992C344.283 205.417 341.483 205.458 341.483 205.458L336.375 200.275L346.383 194.733L349.891 199.608H349.883Z" fill="black" stroke="black" stroke-width="0.833333" stroke-miterlimit="10"/>
</g>
<path d="M383.875 296.092L336.933 196.417L343.058 192.333L390.083 292.125C390.191 292.283 390.275 292.458 390.316 292.65C390.458 293.275 390.458 294.633 388.441 296C386.591 297.258 385.25 296.992 384.566 296.683C384.283 296.55 384.041 296.342 383.866 296.083L383.875 296.092Z" stroke="black" stroke-width="0.833333" stroke-miterlimit="10"/>
<path d="M314.667 313.625L224.892 286.1C223.933 285.75 223.442 284.692 223.792 283.742C224.142 282.783 225.2 282.292 226.15 282.642L315.925 310.167L314.667 313.625Z" fill="#566578" stroke="black" stroke-width="0.833333" stroke-miterlimit="10"/>
<path d="M312.742 335.567C312.683 335.817 312.542 336.042 312.342 336.2C311.867 336.558 310.817 337 308.708 336.467C306.617 335.933 305.9 335.075 305.65 334.55C305.542 334.317 305.533 334.058 305.592 333.808L342.608 186.208C342.683 185.908 343.042 185.792 343.275 185.992C343.817 186.467 344.792 187.15 346.1 187.308C347.208 187.45 348.283 187.158 349.05 186.858C349.508 186.683 349.975 187.092 349.858 187.567L312.742 335.558V335.567Z" fill="#566578"/>
<path d="M312.742 335.567C312.683 335.817 312.542 336.042 312.342 336.2C311.867 336.558 310.817 337 308.708 336.467C306.617 335.933 305.9 335.075 305.65 334.55C305.542 334.317 305.533 334.058 305.592 333.808L342.608 186.208C342.683 185.908 343.042 185.792 343.275 185.992C343.817 186.467 344.792 187.15 346.1 187.308C347.208 187.45 348.283 187.158 349.05 186.858C349.508 186.683 349.975 187.092 349.858 187.567L312.742 335.558V335.567Z" stroke="black" stroke-width="0.833333" stroke-miterlimit="10"/>
<path d="M270.15 142.267L363.75 162.642L372.617 132.117C375.408 123.95 372.15 114.892 364.725 110.483C357.783 106.35 347.317 101.683 331.942 99.0833C310.292 95.425 297.208 97.5333 290.083 99.9083C285.883 101.308 282.567 104.583 281.025 108.733L270.15 142.258V142.267Z" fill="#C7C7C7"/>
<mask id="mask3_69562_640" style="mask-type:luminance" maskUnits="userSpaceOnUse" x="270" y="97" width="104" height="66">
<path d="M270.15 142.267L363.75 162.642L372.617 132.117C375.408 123.95 372.15 114.892 364.725 110.483C357.783 106.35 347.317 101.683 331.942 99.0833C310.292 95.425 297.208 97.5333 290.083 99.9083C285.883 101.308 282.567 104.583 281.025 108.733L270.15 142.258V142.267Z" fill="white"/>
</mask>
<g mask="url(#mask3_69562_640)">
<path d="M281.341 100.592C281.341 100.592 289.466 103.075 290.991 109.175L362.633 123.525C362.633 123.525 367.458 117.425 375.233 120.858C375.233 120.858 370.091 102.15 334.358 97.1083C298.625 92.0667 281.35 100.592 281.35 100.592H281.341Z" fill="#F3F3F3"/>
</g>
<path d="M270.15 142.267L363.75 162.642L372.617 132.117C375.408 123.95 372.15 114.892 364.725 110.483C357.783 106.35 347.317 101.683 331.942 99.0833C310.292 95.425 297.208 97.5333 290.083 99.9083C285.883 101.308 282.567 104.583 281.025 108.733L270.15 142.258V142.267Z" stroke="black" stroke-width="0.833333" stroke-miterlimit="10"/>
<path d="M277.042 143.767L355.242 160.792L363.383 132.392C365.708 125.575 362.992 118.017 356.8 114.333C351.008 110.883 342.266 106.992 329.441 104.825C311.375 101.767 300.45 103.533 294.508 105.517C291 106.683 288.233 109.417 286.95 112.883L277.05 143.775L277.042 143.767Z" fill="#C7C7C7" stroke="black" stroke-width="0.416667" stroke-miterlimit="10"/>
<path d="M446.558 338.942C446.558 334.6 444.675 330.392 441.242 327.733C437.092 324.533 431.642 323.95 426.967 326.142L370.617 351.35C355.617 358.367 346.033 373.433 346.033 389.992V419.108C346.033 420.042 347.642 420.8 349.633 420.8C351.625 420.8 353.233 420.042 353.233 419.108V389.992C353.233 376.283 361.258 363.675 373.667 357.867L430.017 332.658C432.1 331.683 434.4 331.833 436.325 333.075C438.267 334.317 439.35 336.533 439.35 338.833V369.4C439.35 370.333 440.958 371.092 442.95 371.092C444.942 371.092 446.55 370.333 446.55 369.4V338.95L446.558 338.942Z" fill="#566578" stroke="black" stroke-width="0.833333" stroke-miterlimit="10"/>
<path d="M162.325 242.075C158.684 239.183 154.334 238.058 150.4 238.975L96.4336 251.567C81.2836 255.1 71.4919 268.125 71.4919 284.742V304.867C71.4919 305.683 72.9003 306.35 74.6336 306.35C76.3669 306.35 77.7753 305.692 77.7753 304.867H77.7836V284.742C77.7836 270.95 85.4753 260.592 97.8586 257.7L151.825 245.108C153.884 244.625 156.284 245.325 158.409 247.008C160.892 248.975 162.425 251.9 162.425 254.633V276.408H162.45C162.542 277.192 163.9 277.808 165.575 277.808C167.25 277.808 168.617 277.183 168.7 276.408H168.717V254.633C168.717 249.95 166.325 245.25 162.317 242.075H162.325Z" fill="#566578" stroke="black" stroke-width="0.833333" stroke-miterlimit="10"/>
<path d="M365.85 354.192C365.85 355.125 367.458 355.883 369.45 355.883C371.442 355.883 373.05 355.125 373.05 354.192V214.475H365.85V354.192Z" fill="#566578"/>
<mask id="mask4_69562_640" style="mask-type:luminance" maskUnits="userSpaceOnUse" x="365" y="214" width="9" height="142">
<path d="M365.85 354.192C365.85 355.125 367.458 355.883 369.45 355.883C371.442 355.883 373.05 355.125 373.05 354.192V214.475H365.85V354.192Z" fill="white"/>
</mask>
<g mask="url(#mask4_69562_640)">
<path d="M365.85 263.175C365.85 264.108 367.458 264.867 369.45 264.867C371.442 264.867 373.05 264.108 373.05 263.175V214.475H365.85V263.175Z" fill="black" stroke="black" stroke-width="0.833333" stroke-miterlimit="10"/>
</g>
<path d="M365.85 354.192C365.85 355.125 367.458 355.883 369.45 355.883C371.442 355.883 373.05 355.125 373.05 354.192V214.475H365.85V354.192Z" stroke="black" stroke-width="0.833333" stroke-miterlimit="10"/>
<path d="M417.517 200.258V329.933C417.517 330.867 419.125 331.625 421.117 331.625C423.109 331.625 424.717 330.867 424.717 329.933V200.258H417.517Z" fill="#566578"/>
<mask id="mask5_69562_640" style="mask-type:luminance" maskUnits="userSpaceOnUse" x="417" y="200" width="8" height="132">
<path d="M417.517 200.258V329.933C417.517 330.867 419.125 331.625 421.117 331.625C423.109 331.625 424.717 330.867 424.717 329.933V200.258H417.517Z" fill="white"/>
</mask>
<g mask="url(#mask5_69562_640)">
<path d="M417.517 239.958C417.517 240.891 419.125 241.65 421.117 241.65C423.109 241.65 424.717 240.891 424.717 239.958V200.25H417.517V239.958Z" fill="black" stroke="black" stroke-width="0.833333" stroke-miterlimit="10"/>
</g>
<path d="M417.517 200.258V329.933C417.517 330.867 419.125 331.625 421.117 331.625C423.109 331.625 424.717 330.867 424.717 329.933V200.258H417.517Z" stroke="black" stroke-width="0.833333" stroke-miterlimit="10"/>
<path d="M92.1917 253.508C92.1917 254.325 93.6 254.992 95.3417 254.992C97.0833 254.992 98.4917 254.325 98.4917 253.508V141.183H92.1917V253.508Z" fill="#566578"/>
<mask id="mask6_69562_640" style="mask-type:luminance" maskUnits="userSpaceOnUse" x="92" y="141" width="7" height="114">
<path d="M92.1917 253.508C92.1917 254.325 93.6 254.992 95.3417 254.992C97.0833 254.992 98.4917 254.325 98.4917 253.508V141.183H92.1917V253.508Z" fill="white"/>
</mask>
<g mask="url(#mask6_69562_640)">
<path d="M92.1167 182.725C92.1167 183.567 93.5584 184.242 95.3417 184.242C97.125 184.242 98.5667 183.567 98.5667 182.725V138.167H92.1167V182.725Z" fill="black" stroke="black" stroke-width="0.833333" stroke-miterlimit="10"/>
</g>
<path d="M92.1917 253.508C92.1917 254.325 93.6 254.992 95.3417 254.992C97.0833 254.992 98.4917 254.325 98.4917 253.508V141.183H92.1917V253.508Z" stroke="black" stroke-width="0.833333" stroke-miterlimit="10"/>
<path d="M141.025 150.425V241.908C141.025 242.725 142.433 243.392 144.175 243.392C145.917 243.392 147.325 242.725 147.325 241.908V150.425H141.025Z" fill="#566578"/>
<mask id="mask7_69562_640" style="mask-type:luminance" maskUnits="userSpaceOnUse" x="141" y="150" width="7" height="94">
<path d="M141.025 150.425V241.908C141.025 242.725 142.433 243.392 144.175 243.392C145.917 243.392 147.325 242.725 147.325 241.908V150.425H141.025Z" fill="white"/>
</mask>
<g mask="url(#mask7_69562_640)">
<path d="M140.95 173.983C140.95 174.825 142.392 175.5 144.175 175.5C145.959 175.5 147.4 174.825 147.4 173.983V138.425H140.95V173.983Z" fill="black" stroke="black" stroke-width="0.833333" stroke-miterlimit="10"/>
</g>
<path d="M141.025 150.425V241.908C141.025 242.725 142.433 243.392 144.175 243.392C145.917 243.392 147.325 242.725 147.325 241.908V150.425H141.025Z" stroke="black" stroke-width="0.833333" stroke-miterlimit="10"/>
<path d="M475.709 168.467C481.55 169.858 485.284 174.983 486.342 176.617C486.55 176.933 486.65 177.3 486.65 177.675V182.833C486.65 184.117 485.809 185.25 484.575 185.617L382.725 216.025C372.292 219.075 361.242 219.3 350.692 216.667L31.6585 131.358C30.7335 131.108 30.0835 130.267 30.0835 129.308V124.483C30.0835 124.017 30.2002 123.558 30.4252 123.142C31.2335 121.642 33.4835 118.142 37.2252 117.433L475.709 168.475V168.467Z" fill="#566578"/>
<mask id="mask8_69562_640" style="mask-type:luminance" maskUnits="userSpaceOnUse" x="30" y="117" width="457" height="102">
<path d="M475.709 168.467C481.55 169.858 485.284 174.983 486.342 176.617C486.55 176.933 486.65 177.3 486.65 177.675V182.833C486.65 184.117 485.809 185.25 484.575 185.617L382.725 216.025C372.292 219.075 361.242 219.3 350.692 216.667L31.6585 131.358C30.7335 131.108 30.0835 130.267 30.0835 129.308V124.483C30.0835 124.017 30.2002 123.558 30.4252 123.142C31.2335 121.642 33.4835 118.142 37.2252 117.433L475.709 168.475V168.467Z" fill="white"/>
</mask>
<g mask="url(#mask8_69562_640)">
<path d="M30.0835 112.858L486.659 161.975V177.625C486.617 178.1 486.317 178.55 485.75 178.717L382.725 208.842C372.292 211.892 361.242 212.117 350.692 209.483L32.2585 125.625C31.0502 125.308 30.7002 122.633 30.7002 122.633" fill="#C7C7C7"/>
</g>
<path d="M475.709 168.467C481.55 169.858 485.284 174.983 486.342 176.617C486.55 176.933 486.65 177.3 486.65 177.675V182.833C486.65 184.117 485.809 185.25 484.575 185.617L382.725 216.025C372.292 219.075 361.242 219.3 350.692 216.667L31.6585 131.358C30.7335 131.108 30.0835 130.267 30.0835 129.308V124.483C30.0835 124.017 30.2002 123.558 30.4252 123.142C31.2335 121.642 33.4835 118.142 37.2252 117.433L475.709 168.475V168.467Z" stroke="black" stroke-width="0.833333" stroke-miterlimit="10"/>
<path d="M353.567 198.608L36.7832 119.633C35.6082 119.342 35.6999 117.642 36.8999 117.475L154.092 100.983C158.767 100.325 163.525 100.5 168.133 101.508L475.9 168.517C477.058 168.767 477.108 170.392 475.975 170.725L382.6 198.025C373.142 200.792 363.125 200.992 353.567 198.608Z" fill="#F3F3F3" stroke="black" stroke-width="0.833333" stroke-miterlimit="10"/>
<path d="M125.284 292.742L50.1753 174.933L55.467 171.325L130.55 289.1C130.65 289.242 130.717 289.4 130.75 289.575C130.859 290.167 130.859 291.517 129.134 292.758C127.284 294.083 125.975 293.358 125.542 293.025C125.442 292.95 125.359 292.858 125.284 292.75V292.742Z" fill="#566578"/>
<mask id="mask9_69562_640" style="mask-type:luminance" maskUnits="userSpaceOnUse" x="50" y="171" width="81" height="123">
<path d="M125.284 292.742L50.1753 174.933L55.467 171.325L130.55 289.1C130.65 289.242 130.717 289.4 130.75 289.575C130.859 290.167 130.859 291.517 129.134 292.758C127.284 294.083 125.975 293.358 125.542 293.025C125.442 292.95 125.359 292.858 125.284 292.75V292.742Z" fill="white"/>
</mask>
<g mask="url(#mask9_69562_640)">
<path d="M68.9833 186.717C68.9833 186.717 68.6167 189.25 66.3917 190.575C64.1667 191.9 59.925 191.542 59.925 191.542L55 185.158L65.7333 182.192L68.9917 186.717H68.9833Z" fill="black" stroke="black" stroke-width="0.833333" stroke-miterlimit="10"/>
</g>
<path d="M125.284 292.742L50.1753 174.933L55.467 171.325L130.55 289.1C130.65 289.242 130.717 289.4 130.75 289.575C130.859 290.167 130.859 291.517 129.134 292.758C127.284 294.083 125.975 293.358 125.542 293.025C125.442 292.95 125.359 292.858 125.284 292.75V292.742Z" stroke="black" stroke-width="0.833333" stroke-miterlimit="10"/>
<path d="M29.9585 326.883C29.8751 327.142 29.7168 327.375 29.4918 327.525C29.0001 327.85 27.9918 328.242 26.2668 327.683C24.5501 327.125 24.0001 326.258 23.8251 325.725C23.7501 325.492 23.7585 325.233 23.8251 324.992L64.1585 197.467C64.2251 197.267 64.4668 197.208 64.6168 197.35C64.9585 197.683 65.6335 198.175 66.8585 198.525C68.0668 198.867 69.1501 198.792 69.8335 198.675C70.1585 198.617 70.4251 198.925 70.3251 199.242L29.9585 326.892V326.883Z" fill="#566578"/>
<path d="M29.9585 326.883C29.8751 327.142 29.7168 327.375 29.4918 327.525C29.0001 327.85 27.9918 328.242 26.2668 327.683C24.5501 327.125 24.0001 326.258 23.8251 325.725C23.7501 325.492 23.7585 325.233 23.8251 324.992L64.1585 197.467C64.2251 197.267 64.4668 197.208 64.6168 197.35C64.9585 197.683 65.6335 198.175 66.8585 198.525C68.0668 198.867 69.1501 198.792 69.8335 198.675C70.1585 198.617 70.4251 198.925 70.3251 199.242L29.9585 326.892V326.883Z" stroke="black" stroke-width="0.833333" stroke-miterlimit="10"/>
<path d="M207.908 225.075C207.067 224.25 206.042 223.65 204.908 223.317L137.6 203.658C134.075 202.633 130.308 202.883 126.95 204.358L93.4417 219.792C91.8084 220.517 90.1334 221.117 88.4334 221.6C86.1084 222.267 83.6834 222.533 81.2667 222.45L62.3917 221.817C62.0001 221.775 61.6501 221.833 61.3417 221.967H61.3251C61.3251 221.967 61.3084 221.983 61.3001 221.983L60.7751 222.208C58.7751 223.067 57.4834 225.033 57.4834 227.208V232.083C57.4834 233.683 58.2251 235.192 59.5001 236.158C70.7001 244.683 94.3584 258.017 139.317 261.592L146.275 261.7C153.533 261.808 160.725 260.342 167.367 257.408L207.492 239.208C209.217 238.45 210.333 236.75 210.333 234.867V230.458C210.333 229.133 209.933 227.842 209.208 226.733C208.8 226.117 208.342 225.492 207.917 225.075H207.908Z" fill="#566578"/>
<mask id="mask10_69562_640" style="mask-type:luminance" maskUnits="userSpaceOnUse" x="57" y="203" width="154" height="59">
<path d="M207.908 225.075C207.067 224.25 206.042 223.65 204.908 223.317L137.6 203.658C134.075 202.633 130.308 202.883 126.95 204.358L93.4417 219.792C91.8084 220.517 90.1334 221.117 88.4334 221.6C86.1084 222.267 83.6834 222.533 81.2667 222.45L62.3917 221.817C62.0001 221.775 61.6501 221.833 61.3417 221.967H61.3251C61.3251 221.967 61.3084 221.983 61.3001 221.983L60.7751 222.208C58.7751 223.067 57.4834 225.033 57.4834 227.208V232.083C57.4834 233.683 58.2251 235.192 59.5001 236.158C70.7001 244.683 94.3584 258.017 139.317 261.592L146.275 261.7C153.533 261.808 160.725 260.342 167.367 257.408L207.492 239.208C209.217 238.45 210.333 236.75 210.333 234.867V230.458C210.333 229.133 209.933 227.842 209.208 226.733C208.8 226.117 208.342 225.492 207.917 225.075H207.908Z" fill="white"/>
</mask>
<g mask="url(#mask10_69562_640)">
<path d="M130.408 260.458C130.408 260.458 90.0918 262.25 54.5335 236.1L53.8418 219.508L130.383 249.475L129.625 249.85C128.467 250.425 127.725 251.608 127.725 252.9V257.792C127.725 258.867 128.417 259.817 129.433 260.142L130.408 260.458Z" fill="black"/>
<path d="M85.3419 221.717C82.5836 222.933 59.6586 221.3 59.6586 221.3L58.8586 223.575C58.3336 225.075 58.8669 226.742 60.1752 227.633C70.5502 234.75 90.3836 245.175 137.875 250.592C144 251.292 159.459 250.658 166.667 247.458L207.659 229.15C209.459 228.342 209.817 225.875 208.259 224.667C208.067 224.517 207.867 224.4 207.667 224.342L137.684 203.367" fill="#C7C7C7"/>
<path d="M125.575 204.125L88.2249 220.633C85.6249 221.783 72.2749 221.358 63.8083 220.958C61.7333 220.858 60.7999 223.517 62.4833 224.742C71.6416 231.392 89.5999 242.325 137.667 247.8C143.433 248.458 157.983 247.858 164.758 244.85L205.975 226.442C207.242 225.875 207.117 224.042 205.792 223.65L137.483 203.367C133.55 202.2 129.333 202.467 125.575 204.125Z" fill="#C7C7C7"/>
<mask id="mask11_69562_640" style="mask-type:luminance" maskUnits="userSpaceOnUse" x="61" y="202" width="146" height="47">
<path d="M125.575 204.125L88.2249 220.633C85.6249 221.783 72.2749 221.358 63.8083 220.958C61.7333 220.858 60.7999 223.517 62.4833 224.742C71.6416 231.392 89.5999 242.325 137.667 247.8C143.433 248.458 157.983 247.858 164.758 244.85L205.975 226.442C207.242 225.875 207.117 224.042 205.792 223.65L137.483 203.367C133.55 202.2 129.333 202.467 125.575 204.125Z" fill="white"/>
</mask>
<g mask="url(#mask11_69562_640)">
<path d="M98.9507 217.058L99.834 216.958C101.634 216.758 103.459 216.908 105.201 217.4C117.059 220.758 165.284 234.392 175.392 237.125C176.217 237.35 176.992 237.692 177.709 238.15L178.542 238.683L217.684 222.408L136.051 198.8L98.9507 217.058Z" fill="black"/>
<path d="M62.3922 221.825C62.3922 221.825 60.4005 225.908 83.8755 229.075C103.651 231.742 111.309 232.558 121.301 240.125C131.576 247.908 152.126 247.775 152.126 247.775C152.126 247.775 106.651 251.608 76.4255 237.708C46.1922 223.808 62.3922 221.825 62.3922 221.825Z" fill="#F3F3F3"/>
</g>
<path d="M125.575 204.125L88.2249 220.633C85.6249 221.783 72.2749 221.358 63.8083 220.958C61.7333 220.858 60.7999 223.517 62.4833 224.742C71.6416 231.392 89.5999 242.325 137.667 247.8C143.433 248.458 157.983 247.858 164.758 244.85L205.975 226.442C207.242 225.875 207.117 224.042 205.792 223.65L137.483 203.367C133.55 202.2 129.333 202.467 125.575 204.125Z" stroke="black" stroke-width="0.833333" stroke-miterlimit="10"/>
<path d="M178.541 238.683L179.875 240.2C180.425 240.825 180.733 241.633 180.733 242.467V251.483L213.066 236.458C213.066 236.458 213.066 224.7 209.766 223.167C206.466 221.633 178.533 238.675 178.533 238.675L178.541 238.683Z" fill="black"/>
</g>
<path d="M207.908 225.075C207.067 224.25 206.042 223.65 204.908 223.317L137.6 203.658C134.075 202.633 130.308 202.883 126.95 204.358L93.4417 219.792C91.8084 220.517 90.1334 221.117 88.4334 221.6C86.1084 222.267 83.6834 222.533 81.2667 222.45L62.3917 221.817C62.0001 221.775 61.6501 221.833 61.3417 221.967H61.3251C61.3251 221.967 61.3084 221.983 61.3001 221.983L60.7751 222.208C58.7751 223.067 57.4834 225.033 57.4834 227.208V232.083C57.4834 233.683 58.2251 235.192 59.5001 236.158C70.7001 244.683 94.3584 258.017 139.317 261.592L146.275 261.7C153.533 261.808 160.725 260.342 167.367 257.408L207.492 239.208C209.217 238.45 210.333 236.75 210.333 234.867V230.458C210.333 229.133 209.933 227.842 209.208 226.733C208.8 226.117 208.342 225.492 207.917 225.075H207.908Z" stroke="black" stroke-width="0.833333" stroke-miterlimit="10"/>
<path d="M206.266 301.108L116.216 274.058C115.316 273.775 114.816 272.817 115.1 271.917C115.383 271.017 116.341 270.517 117.241 270.8L207.283 297.85L206.258 301.108H206.266Z" fill="#566578" stroke="black" stroke-width="0.833333" stroke-miterlimit="10"/>
<path d="M213.675 319.267L130.067 187.967L135.758 184.175L219.442 315.592C219.542 315.742 219.617 315.908 219.658 316.083C219.792 316.667 219.792 317.925 217.917 319.192C216.2 320.358 214.95 320.108 214.325 319.825C214.058 319.708 213.842 319.508 213.675 319.267Z" fill="#566578"/>
<mask id="mask12_69562_640" style="mask-type:luminance" maskUnits="userSpaceOnUse" x="130" y="184" width="90" height="137">
<path d="M213.675 319.267L130.067 187.967L135.758 184.175L219.442 315.592C219.542 315.742 219.617 315.908 219.658 316.083C219.792 316.667 219.792 317.925 217.917 319.192C216.2 320.358 214.95 320.108 214.325 319.825C214.058 319.708 213.842 319.508 213.675 319.267Z" fill="white"/>
</mask>
<g mask="url(#mask12_69562_640)">
<path d="M142.092 190.917C142.092 190.917 141.351 193.658 139.117 194.992C136.884 196.325 134.284 196.35 134.284 196.35L129.542 191.542L138.834 186.4L142.092 190.925V190.917Z" fill="black" stroke="black" stroke-width="0.833333" stroke-miterlimit="10"/>
</g>
<path d="M213.675 319.267L130.067 187.967L135.758 184.175L219.442 315.592C219.542 315.742 219.617 315.908 219.658 316.083C219.792 316.667 219.792 317.925 217.917 319.192C216.2 320.358 214.95 320.108 214.325 319.825C214.058 319.708 213.842 319.508 213.675 319.267Z" stroke="black" stroke-width="0.833333" stroke-miterlimit="10"/>
<path d="M13.4832 125.117C13.4832 125.117 13.0415 121.808 14.4748 118.808C14.4998 118.758 14.5248 118.7 14.5498 118.65C16.8915 113.883 22.0332 111.283 27.6415 111.808C33.2498 112.333 40.3748 113.258 48.9082 114.858C66.6665 118.175 82.3165 123.233 93.8832 127.808C102.783 131.325 110.558 137.6 115.983 145.608C118.158 148.825 120.575 152.517 123 156.467C129.3 166.75 136.383 178.3 138.766 182.175C139.4 183.208 139.65 184.4 139.416 185.5C138.958 187.717 137.366 191.067 131.975 191.533C131.175 191.6 130.366 191.158 129.916 190.442L123.75 180.492L13.4832 125.117Z" fill="#C7C7C7"/>
<mask id="mask13_69562_640" style="mask-type:luminance" maskUnits="userSpaceOnUse" x="13" y="111" width="127" height="81">
<path d="M13.4832 125.117C13.4832 125.117 13.0415 121.808 14.4748 118.808C14.4998 118.758 14.5248 118.7 14.5498 118.65C16.8915 113.883 22.0332 111.283 27.6415 111.808C33.2498 112.333 40.3748 113.258 48.9082 114.858C66.6665 118.175 82.3165 123.233 93.8832 127.808C102.783 131.325 110.558 137.6 115.983 145.608C118.158 148.825 120.575 152.517 123 156.467C129.3 166.75 136.383 178.3 138.766 182.175C139.4 183.208 139.65 184.4 139.416 185.5C138.958 187.717 137.366 191.067 131.975 191.533C131.175 191.6 130.366 191.158 129.916 190.442L123.75 180.492L13.4832 125.117Z" fill="white"/>
</mask>
<g mask="url(#mask13_69562_640)">
<path d="M10.5417 122.725C10.5417 122.725 12.2334 117.217 20.5334 117.433C28.8334 117.65 70.7251 122.467 92.6084 134.65C94.2667 135.575 96.2501 135.675 98.0418 135.058C100.817 134.1 105.175 133.45 108.467 136.95C108.467 136.95 106.617 127.133 70.3501 116.467C34.0834 105.8 20.1917 109.575 17.6584 111.75C15.1251 113.925 10.5417 122.733 10.5417 122.733V122.725Z" fill="#F3F3F3"/>
</g>
<path d="M13.4832 125.117C13.4832 125.117 13.0415 121.808 14.4748 118.808C14.4998 118.758 14.5248 118.7 14.5498 118.65C16.8915 113.883 22.0332 111.283 27.6415 111.808C33.2498 112.333 40.3748 113.258 48.9082 114.858C66.6665 118.175 82.3165 123.233 93.8832 127.808C102.783 131.325 110.558 137.6 115.983 145.608C118.158 148.825 120.575 152.517 123 156.467C129.3 166.75 136.383 178.3 138.766 182.175C139.4 183.208 139.65 184.4 139.416 185.5C138.958 187.717 137.366 191.067 131.975 191.533C131.175 191.6 130.366 191.158 129.916 190.442L123.75 180.492L13.4832 125.117Z" stroke="black" stroke-width="0.833333" stroke-miterlimit="10"/>
<path d="M130.625 191.592L118.758 196.725C112.375 199.483 105.125 200.308 97.8498 199.008C85.8748 196.875 67.1915 192.117 52.9248 181.9C50.5082 180.167 48.4165 178 46.7415 175.55L14.7748 128.833C11.6915 124.325 14.4915 118.733 19.7082 119.025C26.0998 119.392 35.1998 120.325 47.2082 122.542C62.3332 125.333 75.8498 129.725 85.0665 133.158C92.8915 136.083 99.6748 141.65 104.117 148.825L130.617 191.583L130.625 191.592Z" fill="#C7C7C7"/>
<mask id="mask14_69562_640" style="mask-type:luminance" maskUnits="userSpaceOnUse" x="13" y="119" width="118" height="81">
<path d="M130.625 191.592L118.758 196.725C112.375 199.483 105.125 200.308 97.8498 199.008C85.8748 196.875 67.1915 192.117 52.9248 181.9C50.5082 180.167 48.4165 178 46.7415 175.55L14.7748 128.833C11.6915 124.325 14.4915 118.733 19.7082 119.025C26.0998 119.392 35.1998 120.325 47.2082 122.542C62.3332 125.333 75.8498 129.725 85.0665 133.158C92.8915 136.083 99.6748 141.65 104.117 148.825L130.617 191.583L130.625 191.592Z" fill="white"/>
</mask>
<g mask="url(#mask14_69562_640)">
<path d="M130.626 191.592L114.542 198.883C108.684 201.417 101.192 200.317 94.5172 199.125C83.5256 197.167 66.3589 191.508 53.2589 182.133C51.0422 180.542 49.1256 178.55 47.5839 176.3L18.2422 133.417C17.0006 131.808 16.2922 129.817 15.8922 128.108C15.4339 126.158 16.9589 124.308 18.9672 124.325C20.3506 124.342 21.8256 124.367 22.7756 124.417C28.6422 124.75 37.0006 125.608 48.0172 127.642C61.9006 130.2 74.3089 134.233 82.7672 137.392C89.9506 140.075 96.1756 145.183 100.259 151.775C100.259 151.775 121.192 185.758 123.342 189.017C125.484 192.283 130.634 191.583 130.634 191.583L130.626 191.592Z" fill="#566578"/>
<path d="M32.0336 149.542C31.3002 147.958 32.4169 146.142 34.1586 146.1C36.9169 146.042 41.5836 146.325 49.1752 147.75C59.2919 149.65 70.3336 154.55 76.3586 157.492C79.2669 158.908 81.6502 161.217 83.1586 164.075L97.7836 191.742C99.3669 194.742 101.675 197.292 104.492 199.183L106.642 200.617L77.2002 198.158L49.1586 186.45L32.0169 149.533L32.0336 149.542Z" fill="black"/>
</g>
<path d="M130.625 191.592L118.758 196.725C112.375 199.483 105.125 200.308 97.8498 199.008C85.8748 196.875 67.1915 192.117 52.9248 181.9C50.5082 180.167 48.4165 178 46.7415 175.55L14.7748 128.833C11.6915 124.325 14.4915 118.733 19.7082 119.025C26.0998 119.392 35.1998 120.325 47.2082 122.542C62.3332 125.333 75.8498 129.725 85.0665 133.158C92.8915 136.083 99.6748 141.65 104.117 148.825L130.617 191.583L130.625 191.592Z" stroke="black" stroke-width="0.833333" stroke-miterlimit="10"/>
<path d="M114.383 339.6L33.9751 309.642C33.1001 309.283 32.6835 308.292 33.0335 307.417C33.3918 306.542 34.3835 306.125 35.2585 306.475L115.667 336.433L114.375 339.6H114.383Z" fill="#566578" stroke="black" stroke-width="0.833333" stroke-miterlimit="10"/>
<path d="M113.175 358.508C113.117 358.742 112.992 358.95 112.8 359.092C112.358 359.425 111.383 359.842 109.425 359.342C107.483 358.85 106.817 358.05 106.592 357.558C106.492 357.342 106.483 357.1 106.533 356.875L148.417 217.325C148.483 217.05 148.817 216.942 149.033 217.125C149.533 217.567 150.442 218.2 151.658 218.35C152.683 218.475 153.683 218.208 154.4 217.933C154.825 217.767 155.258 218.15 155.15 218.592L113.175 358.508Z" fill="#566578"/>
<path d="M113.175 358.508C113.117 358.742 112.992 358.95 112.8 359.092C112.358 359.425 111.383 359.842 109.425 359.342C107.483 358.85 106.817 358.05 106.592 357.558C106.492 357.342 106.483 357.1 106.533 356.875L148.417 217.325C148.483 217.05 148.817 216.942 149.033 217.125C149.533 217.567 150.442 218.2 151.658 218.35C152.683 218.475 153.683 218.208 154.4 217.933C154.825 217.767 155.258 218.15 155.15 218.592L113.175 358.508Z" stroke="black" stroke-width="0.833333" stroke-miterlimit="10"/>
<path d="M283.009 336.433L199.684 218.158L205.267 214.35L288.567 332.592C288.667 332.742 288.742 332.908 288.775 333.092C288.892 333.717 288.892 335.133 287.067 336.442C285.117 337.842 283.742 337.075 283.275 336.725C283.167 336.642 283.084 336.55 283.009 336.433Z" fill="#566578"/>
<mask id="mask15_69562_640" style="mask-type:luminance" maskUnits="userSpaceOnUse" x="199" y="214" width="90" height="124">
<path d="M283.009 336.433L199.684 218.158L205.267 214.35L288.567 332.592C288.667 332.742 288.742 332.908 288.775 333.092C288.892 333.717 288.892 335.133 287.067 336.442C285.117 337.842 283.742 337.075 283.275 336.725C283.167 336.642 283.084 336.55 283.009 336.433Z" fill="white"/>
</mask>
<g mask="url(#mask15_69562_640)">
<path d="M219.509 230.575C219.509 230.575 219.125 233.242 216.775 234.642C214.425 236.042 209.959 235.658 209.959 235.658L204.767 228.933L216.075 225.808L219.509 230.575Z" fill="black" stroke="black" stroke-width="0.833333" stroke-miterlimit="10"/>
</g>
<path d="M283.009 336.433L199.684 218.158L205.267 214.35L288.567 332.592C288.667 332.742 288.742 332.908 288.775 333.092C288.892 333.717 288.892 335.133 287.067 336.442C285.117 337.842 283.742 337.075 283.275 336.725C283.167 336.642 283.084 336.55 283.009 336.433Z" stroke="black" stroke-width="0.833333" stroke-miterlimit="10"/>
<path d="M181.9 383.292C181.817 383.567 181.642 383.808 181.409 383.967C180.892 384.317 179.825 384.717 178.009 384.133C176.192 383.55 175.617 382.625 175.434 382.067C175.35 381.817 175.359 381.55 175.434 381.3L216.259 241.9C216.325 241.692 216.584 241.625 216.742 241.783C217.1 242.133 217.817 242.65 219.1 243.017C220.375 243.375 221.517 243.3 222.234 243.175C222.575 243.117 222.859 243.442 222.75 243.767L181.884 383.292H181.9Z" fill="#566578"/>
<path d="M181.9 383.292C181.817 383.567 181.642 383.808 181.409 383.967C180.892 384.317 179.825 384.717 178.009 384.133C176.192 383.55 175.617 382.625 175.434 382.067C175.35 381.817 175.359 381.55 175.434 381.3L216.259 241.9C216.325 241.692 216.584 241.625 216.742 241.783C217.1 242.133 217.817 242.65 219.1 243.017C220.375 243.375 221.517 243.3 222.234 243.175C222.575 243.117 222.859 243.442 222.75 243.767L181.884 383.292H181.9Z" stroke="black" stroke-width="0.833333" stroke-miterlimit="10"/>
<path d="M365.9 271C365.016 270.133 363.933 269.5 362.741 269.15L291.816 248.442C288.108 247.358 284.133 247.617 280.6 249.183L245.291 265.442C243.575 266.2 241.808 266.833 240.008 267.35C237.558 268.05 235.008 268.333 232.458 268.25L212.566 267.575C212.158 267.533 211.783 267.592 211.458 267.733H211.441C211.441 267.733 211.425 267.75 211.416 267.75L210.858 267.992C208.75 268.9 207.391 270.967 207.391 273.258V278.392C207.391 280.083 208.175 281.667 209.516 282.692C221.316 291.675 246.25 305.725 293.625 309.492L300.958 309.6C308.608 309.717 316.191 308.175 323.183 305.075L365.466 285.892C367.283 285.1 368.458 283.3 368.458 281.317V276.675C368.458 275.275 368.041 273.917 367.266 272.75C366.841 272.1 366.35 271.442 365.9 271Z" fill="#566578"/>
<mask id="mask16_69562_640" style="mask-type:luminance" maskUnits="userSpaceOnUse" x="207" y="247" width="162" height="63">
<path d="M365.9 271C365.016 270.133 363.933 269.5 362.741 269.15L291.816 248.442C288.108 247.358 284.133 247.617 280.6 249.183L245.291 265.442C243.575 266.2 241.808 266.833 240.008 267.35C237.558 268.05 235.008 268.333 232.458 268.25L212.566 267.575C212.158 267.533 211.783 267.592 211.458 267.733H211.441C211.441 267.733 211.425 267.75 211.416 267.75L210.858 267.992C208.75 268.9 207.391 270.967 207.391 273.258V278.392C207.391 280.083 208.175 281.667 209.516 282.692C221.316 291.675 246.25 305.725 293.625 309.492L300.958 309.6C308.608 309.717 316.191 308.175 323.183 305.075L365.466 285.892C367.283 285.1 368.458 283.3 368.458 281.317V276.675C368.458 275.275 368.041 273.917 367.266 272.75C366.841 272.1 366.35 271.442 365.9 271Z" fill="white"/>
</mask>
<g mask="url(#mask16_69562_640)">
<path d="M291.142 309.017C291.142 309.017 241.742 310.175 204.283 282.617L203.55 265.133L291.117 297.433L290.317 297.825C289.092 298.425 288.317 299.675 288.317 301.042V306.2C288.317 307.333 289.042 308.333 290.117 308.675L291.142 309.008V309.017Z" fill="black"/>
<path d="M236.742 267.458C233.833 268.742 209.675 267.017 209.675 267.017L208.833 269.408C208.283 270.983 208.842 272.742 210.225 273.683C221.158 281.183 242.05 292.167 292.1 297.875C298.558 298.608 314.85 297.942 322.442 294.575L365.633 275.283C367.533 274.433 367.908 271.833 366.267 270.558C366.058 270.4 365.85 270.275 365.642 270.217L291.9 248.117" fill="#C7C7C7"/>
<path d="M279.142 248.925L239.783 266.317C237.05 267.525 222.983 267.075 214.05 266.658C211.858 266.558 210.875 269.358 212.65 270.65C222.3 277.658 241.225 289.175 291.875 294.95C297.95 295.642 313.283 295.017 320.425 291.842L363.858 272.442C365.192 271.85 365.067 269.917 363.667 269.5L291.683 248.125C287.542 246.892 283.092 247.175 279.142 248.925Z" fill="#C7C7C7"/>
<mask id="mask17_69562_640" style="mask-type:luminance" maskUnits="userSpaceOnUse" x="211" y="247" width="154" height="49">
<path d="M279.142 248.925L239.783 266.317C237.05 267.525 222.983 267.075 214.05 266.658C211.858 266.558 210.875 269.358 212.65 270.65C222.3 277.658 241.225 289.175 291.875 294.95C297.95 295.642 313.283 295.017 320.425 291.842L363.858 272.442C365.192 271.85 365.067 269.917 363.667 269.5L291.683 248.125C287.542 246.892 283.092 247.175 279.142 248.925Z" fill="white"/>
</mask>
<g mask="url(#mask17_69562_640)">
<path d="M251.084 262.55L252.017 262.45C253.917 262.242 255.834 262.4 257.675 262.917C270.167 266.45 320.984 280.817 331.642 283.7C332.509 283.933 333.325 284.3 334.084 284.783L334.959 285.342L376.2 268.192L290.175 243.317L251.084 262.558V262.55Z" fill="black"/>
<path d="M235.184 268.55C235.184 268.55 228.5 269.783 230.284 273.375C232.059 276.967 249.909 280.067 259.875 285.917C269.834 291.767 284.459 294.033 284.459 294.033C284.459 294.033 235.875 295.633 212.759 276.583C189.642 257.533 235.192 268.55 235.192 268.55H235.184Z" fill="#F3F3F3"/>
</g>
<path d="M279.142 248.925L239.783 266.317C237.05 267.525 222.983 267.075 214.05 266.658C211.858 266.558 210.875 269.358 212.65 270.65C222.3 277.658 241.225 289.175 291.875 294.95C297.95 295.642 313.283 295.017 320.425 291.842L363.858 272.442C365.192 271.85 365.067 269.917 363.667 269.5L291.683 248.125C287.542 246.892 283.092 247.175 279.142 248.925Z" stroke="black" stroke-width="0.833333" stroke-miterlimit="10"/>
<path d="M334.958 285.333L336.367 286.933C336.95 287.592 337.267 288.442 337.267 289.325V298.825L371.342 282.992C371.342 282.992 371.342 270.6 367.867 268.983C364.392 267.367 334.958 285.325 334.958 285.325V285.333Z" fill="black"/>
</g>
<path d="M365.9 271C365.016 270.133 363.933 269.5 362.741 269.15L291.816 248.442C288.108 247.358 284.133 247.617 280.6 249.183L245.291 265.442C243.575 266.2 241.808 266.833 240.008 267.35C237.558 268.05 235.008 268.333 232.458 268.25L212.566 267.575C212.158 267.533 211.783 267.592 211.458 267.733H211.441C211.441 267.733 211.425 267.75 211.416 267.75L210.858 267.992C208.75 268.9 207.391 270.967 207.391 273.258V278.392C207.391 280.083 208.175 281.667 209.516 282.692C221.316 291.675 246.25 305.725 293.625 309.492L300.958 309.6C308.608 309.717 316.191 308.175 323.183 305.075L365.466 285.892C367.283 285.1 368.458 283.3 368.458 281.317V276.675C368.458 275.275 368.041 273.917 367.266 272.75C366.841 272.1 366.35 271.442 365.9 271Z" stroke="black" stroke-width="0.833333" stroke-miterlimit="10"/>
<path d="M363.233 344.808L271.942 316.267C271 315.942 270.5 314.917 270.825 313.975C271.15 313.033 272.175 312.533 273.117 312.858L364.4 341.4L363.225 344.808H363.233Z" fill="#566578" stroke="black" stroke-width="0.833333" stroke-miterlimit="10"/>
<path d="M373.409 361.733L283.875 231.892L289.867 227.9L379.484 357.867C379.592 358.025 379.667 358.2 379.717 358.383C379.859 359 379.859 360.325 377.884 361.658C376.075 362.883 374.759 362.625 374.092 362.325C373.809 362.2 373.584 361.992 373.409 361.742V361.733Z" fill="#566578"/>
<mask id="mask18_69562_640" style="mask-type:luminance" maskUnits="userSpaceOnUse" x="283" y="227" width="97" height="136">
<path d="M373.409 361.733L283.875 231.892L289.867 227.9L379.484 357.867C379.592 358.025 379.667 358.2 379.717 358.383C379.859 359 379.859 360.325 377.884 361.658C376.075 362.883 374.759 362.625 374.092 362.325C373.809 362.2 373.584 361.992 373.409 361.742V361.733Z" fill="white"/>
</mask>
<g mask="url(#mask18_69562_640)">
<path d="M296.542 235.008C296.542 235.008 295.759 237.9 293.409 239.3C291.059 240.7 288.317 240.733 288.317 240.733L283.317 235.667L293.109 230.242L296.542 235.008Z" fill="black" stroke="black" stroke-width="0.833333" stroke-miterlimit="10"/>
</g>
<path d="M373.409 361.733L283.875 231.892L289.867 227.9L379.484 357.867C379.592 358.025 379.667 358.2 379.717 358.383C379.859 359 379.859 360.325 377.884 361.658C376.075 362.883 374.759 362.625 374.092 362.325C373.809 362.2 373.584 361.992 373.409 361.742V361.733Z" stroke="black" stroke-width="0.833333" stroke-miterlimit="10"/>
<path d="M277.209 224.017L283.709 234.5C284.175 235.258 285.042 235.725 285.875 235.658C291.55 235.158 293.234 231.633 293.717 229.3C293.959 228.142 293.7 226.883 293.034 225.8C290.525 221.717 283.059 209.542 276.425 198.708C273.875 194.55 271.334 190.65 269.034 187.267C263.309 178.825 255.125 172.217 245.742 168.508C233.55 163.692 217.067 158.358 198.35 154.858C189.359 153.175 181.909 152.208 175.942 151.65C169.975 151.092 164.617 153.842 162.15 158.867C162.125 158.925 162.092 158.975 162.067 159.033C160.559 162.2 161.025 165.683 161.025 165.683L277.217 224.025L277.209 224.017Z" fill="#C7C7C7"/>
<mask id="mask19_69562_640" style="mask-type:luminance" maskUnits="userSpaceOnUse" x="160" y="151" width="134" height="85">
<path d="M277.209 224.017L283.709 234.5C284.175 235.258 285.042 235.725 285.875 235.658C291.55 235.158 293.234 231.633 293.717 229.3C293.959 228.142 293.7 226.883 293.034 225.8C290.525 221.717 283.059 209.542 276.425 198.708C273.875 194.55 271.334 190.65 269.034 187.267C263.309 178.825 255.125 172.217 245.742 168.508C233.55 163.692 217.067 158.358 198.35 154.858C189.359 153.175 181.909 152.208 175.942 151.65C169.975 151.092 164.617 153.842 162.15 158.867C162.125 158.925 162.092 158.975 162.067 159.033C160.559 162.2 161.025 165.683 161.025 165.683L277.217 224.025L277.209 224.017Z" fill="white"/>
</mask>
<g mask="url(#mask19_69562_640)">
<path d="M158.009 160.792C158.009 160.792 160.167 156.933 169.317 156.933C178.467 156.933 223.434 162.525 244.159 174.642C245.859 175.633 247.9 175.65 249.675 174.8C251.609 173.875 254.609 173.392 258.375 175.8C265.217 180.183 249.975 162.65 249.975 162.65C249.975 162.65 191.675 145.633 180.117 145.883C168.559 146.133 158.017 160.792 158.017 160.792H158.009Z" fill="#F3F3F3"/>
</g>
<path d="M277.209 224.017L283.709 234.5C284.175 235.258 285.042 235.725 285.875 235.658C291.55 235.158 293.234 231.633 293.717 229.3C293.959 228.142 293.7 226.883 293.034 225.8C290.525 221.717 283.059 209.542 276.425 198.708C273.875 194.55 271.334 190.65 269.034 187.267C263.309 178.825 255.125 172.217 245.742 168.508C233.55 163.692 217.067 158.358 198.35 154.858C189.359 153.175 181.909 152.208 175.942 151.65C169.975 151.092 164.617 153.842 162.15 158.867C162.125 158.925 162.092 158.975 162.067 159.033C160.559 162.2 161.025 165.683 161.025 165.683L277.217 224.025L277.209 224.017Z" stroke="black" stroke-width="0.833333" stroke-miterlimit="10"/>
<path d="M284.459 235.708L271.959 241.117C265.234 244.025 257.592 244.892 249.925 243.525C237.309 241.275 217.617 236.258 202.584 225.5C200.034 223.675 197.834 221.383 196.067 218.808L162.384 169.575C159.134 164.817 162.084 158.933 167.584 159.242C174.317 159.625 183.909 160.617 196.567 162.95C212.509 165.892 226.742 170.517 236.459 174.142C244.7 177.217 251.85 183.092 256.534 190.65L284.459 235.708Z" fill="#C7C7C7"/>
<mask id="mask20_69562_640" style="mask-type:luminance" maskUnits="userSpaceOnUse" x="161" y="159" width="124" height="86">
<path d="M284.459 235.708L271.959 241.117C265.234 244.025 257.592 244.892 249.925 243.525C237.309 241.275 217.617 236.258 202.584 225.5C200.034 223.675 197.834 221.383 196.067 218.808L162.384 169.575C159.134 164.817 162.084 158.933 167.584 159.242C174.317 159.625 183.909 160.617 196.567 162.95C212.509 165.892 226.742 170.517 236.459 174.142C244.7 177.217 251.85 183.092 256.534 190.65L284.459 235.708Z" fill="white"/>
</mask>
<g mask="url(#mask20_69562_640)">
<path d="M284.459 235.708L267.509 243.392C261.334 246.058 253.442 244.9 246.4 243.65C234.817 241.583 216.725 235.625 202.925 225.75C200.584 224.075 198.567 221.975 196.95 219.608L166.034 174.417C164.725 172.725 163.975 170.625 163.55 168.817C163.067 166.767 164.675 164.808 166.784 164.833C168.242 164.85 169.792 164.875 170.8 164.933C176.984 165.283 185.784 166.192 197.4 168.333C212.034 171.033 225.1 175.275 234.017 178.608C241.584 181.433 248.142 186.825 252.442 193.758C252.442 193.758 274.509 229.567 276.767 233.008C279.025 236.45 284.45 235.708 284.45 235.708H284.459Z" fill="#566578"/>
<path d="M180.567 191.4C179.792 189.733 180.975 187.817 182.809 187.775C185.709 187.708 190.634 188.008 198.634 189.517C209.292 191.517 220.934 196.683 227.284 199.783C230.35 201.275 232.859 203.708 234.45 206.725L249.867 235.875C251.534 239.033 253.967 241.725 256.942 243.708L259.209 245.225L228.184 242.633L198.642 230.3L180.575 191.4H180.567Z" fill="black"/>
</g>
<path d="M284.459 235.708L271.959 241.117C265.234 244.025 257.592 244.892 249.925 243.525C237.309 241.275 217.617 236.258 202.584 225.5C200.034 223.675 197.834 221.383 196.067 218.808L162.384 169.575C159.134 164.817 162.084 158.933 167.584 159.242C174.317 159.625 183.909 160.617 196.567 162.95C212.509 165.892 226.742 170.517 236.459 174.142C244.7 177.217 251.85 183.092 256.534 190.65L284.459 235.708Z" stroke="black" stroke-width="0.833333" stroke-miterlimit="10"/>
<path d="M272.109 397.467L184.984 365.975C184.059 365.617 183.6 364.567 183.959 363.642C184.317 362.717 185.367 362.258 186.292 362.617L273.417 394.108L272.109 397.467Z" fill="#566578" stroke="black" stroke-width="0.833333" stroke-miterlimit="10"/>
<path d="M270.575 418C270.517 418.242 270.384 418.467 270.184 418.617C269.725 418.967 268.692 419.4 266.625 418.875C264.575 418.35 263.875 417.517 263.633 417C263.525 416.775 263.517 416.517 263.575 416.275L304.025 261.733C304.1 261.442 304.45 261.325 304.675 261.525C305.208 261.992 306.159 262.658 307.442 262.817C308.525 262.95 309.575 262.675 310.333 262.375C310.784 262.2 311.242 262.6 311.125 263.075L270.584 418H270.575Z" fill="#566578"/>
<path d="M270.575 418C270.517 418.242 270.384 418.467 270.184 418.617C269.725 418.967 268.692 419.4 266.625 418.875C264.575 418.35 263.875 417.517 263.633 417C263.525 416.775 263.517 416.517 263.575 416.275L304.025 261.733C304.1 261.442 304.45 261.325 304.675 261.525C305.208 261.992 306.158 262.658 307.442 262.817C308.525 262.95 309.575 262.675 310.334 262.375C310.784 262.2 311.242 262.6 311.125 263.075L270.584 418H270.575Z" stroke="black" stroke-width="0.833333" stroke-miterlimit="10"/>
<path d="M446.558 338.942C446.558 334.6 444.675 330.392 441.242 327.733C437.092 324.533 431.642 323.95 426.967 326.142L370.617 351.35C355.617 358.367 346.033 373.433 346.033 389.992V419.108C346.033 420.042 347.642 420.8 349.633 420.8C351.625 420.8 353.233 420.042 353.233 419.108V389.992C353.233 376.283 361.258 363.675 373.667 357.867L430.017 332.658C432.1 331.683 434.4 331.833 436.325 333.075C438.267 334.317 439.35 336.533 439.35 338.833V369.4C439.35 370.333 440.958 371.092 442.95 371.092C444.942 371.092 446.55 370.333 446.55 369.4V338.95L446.558 338.942Z" fill="#566578" stroke="black" stroke-width="0.833333" stroke-miterlimit="10"/>
<path d="M365.85 354.192C365.85 355.125 367.458 355.883 369.45 355.883C371.442 355.883 373.05 355.125 373.05 354.192V223.467H365.85V354.192Z" fill="#566578"/>
<mask id="mask21_69562_640" style="mask-type:luminance" maskUnits="userSpaceOnUse" x="365" y="223" width="9" height="133">
<path d="M365.85 354.192C365.85 355.125 367.458 355.883 369.45 355.883C371.442 355.883 373.05 355.125 373.05 354.192V223.467H365.85V354.192Z" fill="white"/>
</mask>
<g mask="url(#mask21_69562_640)">
<path d="M365.85 263.175C365.85 264.108 367.458 264.867 369.45 264.867C371.442 264.867 373.05 264.108 373.05 263.175V214.475H365.85V263.175Z" fill="black" stroke="black" stroke-width="0.833333" stroke-miterlimit="10"/>
</g>
<path d="M365.85 354.192C365.85 355.125 367.458 355.883 369.45 355.883C371.442 355.883 373.05 355.125 373.05 354.192V223.467H365.85V354.192Z" stroke="black" stroke-width="0.833333" stroke-miterlimit="10"/>
<path d="M417.517 209.25V329.925C417.517 330.858 419.125 331.617 421.117 331.617C423.108 331.617 424.717 330.858 424.717 329.925V209.25H417.517Z" fill="#566578"/>
<mask id="mask22_69562_640" style="mask-type:luminance" maskUnits="userSpaceOnUse" x="417" y="209" width="8" height="123">
<path d="M417.517 209.25V329.925C417.517 330.858 419.125 331.617 421.117 331.617C423.108 331.617 424.717 330.858 424.717 329.925V209.25H417.517Z" fill="white"/>
</mask>
<g mask="url(#mask22_69562_640)">
<path d="M417.517 239.958C417.517 240.892 419.125 241.65 421.117 241.65C423.108 241.65 424.717 240.892 424.717 239.958V200.25H417.517V239.958Z" fill="black" stroke="black" stroke-width="0.833333" stroke-miterlimit="10"/>
</g>
<path d="M417.517 209.25V329.925C417.517 330.858 419.125 331.617 421.117 331.617C423.108 331.617 424.717 330.858 424.717 329.925V209.25H417.517Z" stroke="black" stroke-width="0.833333" stroke-miterlimit="10"/>
<path d="M283.008 158.633L325.017 165.375C325.017 165.375 325.075 165.325 325.042 165.308C322.567 164.05 298.083 151.633 290.975 150.542C283.492 149.392 283.008 158.633 283.008 158.633Z" fill="black" stroke="black" stroke-width="0.833333" stroke-miterlimit="10"/>
<path d="M281.891 151.133L281.499 157.158C281.466 157.625 281.708 158.075 282.116 158.308L282.566 158.567C282.874 158.742 283.266 158.683 283.508 158.417L289.183 152.167C289.183 152.167 285.299 149.342 281.883 151.125L281.891 151.133Z" fill="#566578"/>
<mask id="mask23_69562_640" style="mask-type:luminance" maskUnits="userSpaceOnUse" x="281" y="150" width="9" height="9">
<path d="M281.891 151.133L281.499 157.158C281.466 157.625 281.708 158.075 282.116 158.308L282.566 158.567C282.874 158.742 283.266 158.683 283.508 158.417L289.183 152.167C289.183 152.167 285.299 149.342 281.883 151.125L281.891 151.133Z" fill="white"/>
</mask>
<g mask="url(#mask23_69562_640)">
<path d="M287.641 153.875C287.641 153.875 285.983 152.575 285.549 152.525C285.116 152.475 281.508 157.158 281.508 157.158L281.899 151.133C281.899 151.133 284.799 151.192 286.841 151.575C288.883 151.958 289.199 152.167 289.199 152.167L287.649 153.875H287.641Z" fill="black" stroke="black" stroke-width="0.833333" stroke-miterlimit="10"/>
</g>
<path d="M281.891 151.133L281.499 157.158C281.466 157.625 281.708 158.075 282.116 158.308L282.566 158.567C282.874 158.742 283.266 158.683 283.508 158.417L289.183 152.167C289.183 152.167 285.299 149.342 281.883 151.125L281.891 151.133Z" stroke="black" stroke-width="0.833333" stroke-miterlimit="10"/>
<path d="M345.391 157.092L337.683 150.817C337.641 149.158 337.533 147.15 337.324 144.933C335.808 128.85 324.733 115.75 309.199 114.442C299.441 113.617 290.841 117.867 285.799 124.992C281.849 128.842 279.424 134.267 279.424 140.467L277.358 143.192L275.633 150.067C275.633 150.067 276.858 151.875 277.391 151.817C277.924 151.758 281.833 150.283 287.891 151.817C293.949 153.358 299.283 156.108 306.608 159.133C313.933 162.158 320.916 165.533 327.574 165.533C333.466 165.533 338.366 164.392 342.324 162.558C345.116 161.267 345.941 159.825 346.133 158.817C346.258 158.142 345.958 157.467 345.391 157.083V157.092Z" fill="#FF5200"/>
<mask id="mask24_69562_640" style="mask-type:luminance" maskUnits="userSpaceOnUse" x="275" y="114" width="72" height="52">
<path d="M345.391 157.092L337.683 150.817C337.641 149.158 337.533 147.15 337.324 144.933C335.808 128.85 324.733 115.75 309.199 114.442C299.441 113.617 290.841 117.867 285.799 124.992C281.849 128.842 279.424 134.267 279.424 140.467L277.358 143.192L275.633 150.067C275.633 150.067 276.858 151.875 277.391 151.817C277.924 151.758 281.833 150.283 287.891 151.817C293.949 153.358 299.283 156.108 306.608 159.133C313.933 162.158 320.916 165.533 327.574 165.533C333.466 165.533 338.366 164.392 342.324 162.558C345.116 161.267 345.941 159.825 346.133 158.817C346.258 158.142 345.958 157.467 345.391 157.083V157.092Z" fill="white"/>
</mask>
<g mask="url(#mask24_69562_640)">
<path d="M333.475 136.558C330.083 142.492 316.666 141.375 305.116 134.775C293.566 128.175 289.458 123.6 283.483 126.608C277.508 129.617 295.566 104.508 317.408 113.283C329.75 118.242 336.875 130.625 333.475 136.567V136.558Z" fill="#FF945B"/>
<path d="M337.683 150.817C337.683 150.817 338.617 155.067 337.717 155.775C336.817 156.483 333.442 159.192 320.6 158.875C307.683 158.558 300.858 154.275 295.575 153.175C290.892 152.2 287.908 151.817 287.908 151.817C287.908 151.817 308.683 168.7 320.825 168.442C332.967 168.175 344.717 163.775 344.717 163.775L350 157.433L337.692 150.825L337.683 150.817Z" fill="#FF945B"/>
<path d="M279.425 140.458C279.425 140.458 278.85 142.433 281.5 143.492C284.15 144.55 304.758 147.408 309.933 148.617C315.108 149.825 319.4 154.008 319.4 154.008C319.4 154.008 315 148.283 310.375 147.292C305.75 146.3 282.925 142.892 281.5 142.117C280.075 141.342 279.425 140.458 279.425 140.458Z" fill="#FF945B"/>
<path d="M287.366 123.617C287.366 123.617 302.316 111.358 317.283 126.967C317.283 126.967 313.625 118.508 303.041 117.808C297.841 117.467 295.583 118.05 290.683 119.833C289.116 120.4 287.366 123.617 287.366 123.617Z" fill="#FF5200"/>
<path d="M279.058 140.95C279.058 140.95 277.983 142.783 278.542 145.142L277.4 151.808L274.742 149.858L276.925 142.383L279.067 140.95H279.058Z" fill="#FF945B"/>
</g>
<path d="M345.391 157.092L337.683 150.817C337.641 149.158 337.533 147.15 337.324 144.933C335.808 128.85 324.733 115.75 309.199 114.442C299.441 113.617 290.841 117.867 285.799 124.992C281.849 128.842 279.424 134.267 279.424 140.467L277.358 143.192L275.633 150.067C275.633 150.067 276.858 151.875 277.391 151.817C277.924 151.758 281.833 150.283 287.891 151.817C293.949 153.358 299.283 156.108 306.608 159.133C313.933 162.158 320.916 165.533 327.574 165.533C333.466 165.533 338.366 164.392 342.324 162.558C345.116 161.267 345.941 159.825 346.133 158.817C346.258 158.142 345.958 157.467 345.391 157.083V157.092Z" stroke="black" stroke-width="0.833333" stroke-miterlimit="10"/>
<path d="M318.658 129.167C316.192 124.175 309.783 119.717 302.733 119.125C289.867 118.042 279.433 127.592 279.433 140.458V141.358C279.433 141.892 279.683 142.392 280.117 142.692C280.55 142.992 281.192 143.317 282.158 143.483" stroke="black" stroke-width="0.416667" stroke-miterlimit="10"/>
<path d="M305.175 155.883C305.175 155.883 316.075 160.617 332.067 158.167C334.567 157.783 336.008 157.05 336.8 156.483C337.35 156.083 337.666 155.442 337.683 154.758C337.725 153.142 337.75 149.492 337.316 144.933C335.8 128.85 324.725 115.75 309.191 114.442C299.433 113.617 290.833 117.867 285.792 124.992" stroke="black" stroke-width="0.416667" stroke-miterlimit="10"/>
<path d="M155.167 139.433C159.921 139.433 163.775 138.314 163.775 136.933C163.775 135.553 159.921 134.433 155.167 134.433C150.412 134.433 146.558 135.553 146.558 136.933C146.558 138.314 150.412 139.433 155.167 139.433Z" fill="black" stroke="black" stroke-width="0.833333" stroke-miterlimit="10"/>
<path d="M146.558 107.242V116.383L150.658 136.367C150.658 137.092 152.675 137.675 155.167 137.675C157.658 137.675 159.675 137.092 159.675 136.367L163.775 116.383V107.242" fill="#FF5200"/>
<mask id="mask25_69562_640" style="mask-type:luminance" maskUnits="userSpaceOnUse" x="146" y="107" width="18" height="31">
<path d="M146.558 107.242V116.383L150.658 136.367C150.658 137.092 152.675 137.675 155.167 137.675C157.658 137.675 159.675 137.092 159.675 136.367L163.775 116.383V107.242" fill="white"/>
</mask>
<g mask="url(#mask25_69562_640)">
<path d="M163.767 113.058C163.767 114.442 159.917 115.558 155.159 115.558C150.401 115.558 146.551 114.433 146.551 113.058V107.233H163.767V113.058Z" fill="#566578"/>
<path opacity="0.3" d="M156.9 108.492V115.517L156 137.683H157.417L159.942 116.033C160.009 115.433 160.05 114.825 160.05 114.225V108.183L156.9 108.5V108.492Z" fill="white"/>
</g>
<path d="M146.558 107.242V116.383L150.658 136.367C150.658 137.092 152.675 137.675 155.167 137.675C157.658 137.675 159.675 137.092 159.675 136.367L163.775 116.383V107.242" stroke="black" stroke-width="0.833333" stroke-miterlimit="10"/>
<path d="M155.166 109.742C159.921 109.742 163.775 108.622 163.775 107.242C163.775 105.861 159.921 104.742 155.166 104.742C150.412 104.742 146.558 105.861 146.558 107.242C146.558 108.622 150.412 109.742 155.166 109.742Z" fill="black" stroke="black" stroke-width="0.833333" stroke-miterlimit="10"/>
<path d="M239.892 139.617L210.967 126.692C210.625 126.542 210.25 126.5 209.892 126.575L169.225 135.317C168.942 135.375 168.733 135.633 168.733 135.925V143.267C168.733 143.55 168.925 143.8 169.2 143.867L201.525 152.008C201.967 152.117 202.433 152.117 202.875 151.992L239.825 141.842C240.15 141.75 240.125 141.283 239.8 141.225L237.033 140.733L239.858 139.942C240.017 139.9 240.033 139.675 239.883 139.608L239.892 139.617Z" fill="#566578" stroke="black" stroke-width="0.833333" stroke-miterlimit="10"/>
<path d="M169.183 143.875L202.175 152.183C202.175 152.183 202.216 152.183 202.233 152.183L239.925 141.6C240.033 141.567 240.033 141.417 239.925 141.392L210.475 134.8C210.475 134.8 210.442 134.8 210.425 134.8L169.192 143.658C169.075 143.683 169.075 143.842 169.192 143.875H169.183Z" fill="#566578" stroke="black" stroke-width="0.416667" stroke-miterlimit="10"/>
<path d="M171.025 135.783C171.025 135.783 172.267 137.017 172.267 139.783C172.267 141.908 171.025 143.492 171.025 143.492L200.067 150.908L237.042 140.75L208.667 128.1L171.033 135.783H171.025Z" fill="#F3F3F3"/>
<mask id="mask26_69562_640" style="mask-type:luminance" maskUnits="userSpaceOnUse" x="171" y="128" width="67" height="23">
<path d="M171.025 135.783C171.025 135.783 172.267 137.017 172.267 139.783C172.267 141.908 171.025 143.492 171.025 143.492L200.067 150.908L237.042 140.75L208.667 128.1L171.033 135.783H171.025Z" fill="white"/>
</mask>
<g mask="url(#mask26_69562_640)">
<path d="M170.625 138.492L199.975 150.15V151.742L234.859 141.9L171.025 135.783L170.625 138.492Z" fill="#C7C7C7"/>
</g>
<path d="M169.216 135.642L201.625 150.258C202 150.425 202.433 150.458 202.833 150.35L239.883 139.95C240.041 139.908 240.058 139.692 239.908 139.625L211.025 126.725C210.65 126.558 210.233 126.517 209.833 126.6L169.258 135.317C169.092 135.35 169.067 135.575 169.225 135.65L169.216 135.642Z" fill="white" stroke="black" stroke-width="0.416667" stroke-miterlimit="10"/>
</g>
<defs>
</defs>
</svg>
