<svg width="500" height="500" viewBox="0 0 500 500" fill="none" xmlns="http://www.w3.org/2000/svg">
<g>
<path d="M333.983 489.682L89.958 465.232C85.4664 464.782 83.2997 460.84 86.283 458.574L98.508 449.274C104.375 444.807 112.983 442.715 121.791 443.599L365.816 468.049C370.308 468.499 372.475 472.44 369.491 474.707L357.266 484.007C351.4 488.474 342.791 490.565 333.983 489.682Z" fill="black" stroke="black" stroke-width="0.833333" stroke-miterlimit="10"/>
<path d="M390.016 204.832C390.016 204.832 352.024 350.832 328.099 396.84C304.174 442.849 249.574 442.624 249.574 442.624L64.4158 303.749C64.4158 303.749 104.616 285.99 128.641 230.382C159.674 158.54 181.049 58.6569 181.049 58.6569L390.024 204.84L390.016 204.832Z" fill="#8D6E5B"/>
<mask id="mask0_69562_9536" style="mask-type:luminance" maskUnits="userSpaceOnUse" x="64" y="58" width="327" height="385">
<path d="M390.015 204.832C390.015 204.832 352.024 350.832 328.099 396.84C304.174 442.849 249.574 442.624 249.574 442.624L64.4153 303.749C64.4153 303.749 104.615 285.99 128.64 230.382C159.674 158.54 181.049 58.6569 181.049 58.6569L390.024 204.84L390.015 204.832Z" fill="white"/>
</mask>
<g mask="url(#mask0_69562_9536)">
<path d="M94.9573 266.199L133.074 288.315L129.774 373.024L273.349 443.39L300.074 436.482L140.132 272.315L96.3656 253.024L94.9573 266.199Z" fill="black" stroke="black" stroke-width="0.833333" stroke-miterlimit="10"/>
</g>
<path d="M390.016 204.832C390.016 204.832 352.024 350.832 328.099 396.84C304.174 442.849 249.574 442.624 249.574 442.624L64.4158 303.749C64.4158 303.749 104.616 285.99 128.641 230.382C159.674 158.54 181.049 58.6569 181.049 58.6569L390.024 204.84L390.016 204.832Z" stroke="black" stroke-width="0.833333" stroke-miterlimit="10"/>
<path d="M385.192 182.674C385.192 182.674 375.108 330.874 360.358 379.757C345.617 428.64 292.75 438.399 292.75 438.399L88.2249 337.857C88.2249 337.857 123.875 313.332 136.958 255.132C153.858 179.957 156.292 79.407 156.292 79.407L385.192 182.665V182.674Z" fill="#CEC4A1"/>
<mask id="mask1_69562_9536" style="mask-type:luminance" maskUnits="userSpaceOnUse" x="88" y="79" width="298" height="360">
<path d="M385.192 182.674C385.192 182.674 375.108 330.874 360.358 379.757C345.617 428.64 292.75 438.399 292.75 438.399L88.2249 337.857C88.2249 337.857 123.875 313.332 136.958 255.132C153.858 179.957 156.292 79.407 156.292 79.407L385.192 182.665V182.674Z" fill="white"/>
</mask>
<g mask="url(#mask1_69562_9536)">
<path d="M124.366 291.499L172.133 317.965L146.25 345.724L327.666 434.199L348.6 414.907L210.25 299.14L123.658 261.965L124.366 291.499Z" fill="black" stroke="black" stroke-width="0.833333" stroke-miterlimit="10"/>
</g>
<path d="M385.192 182.674C385.192 182.674 375.108 330.874 360.358 379.757C345.617 428.64 292.75 438.399 292.75 438.399L88.2249 337.857C88.2249 337.857 123.875 313.332 136.958 255.132C153.858 179.957 156.292 79.407 156.292 79.407L385.192 182.665V182.674Z" stroke="black" stroke-width="0.833333" stroke-miterlimit="10"/>
<path d="M419.999 164.357C419.999 164.357 409.916 312.557 395.166 361.44C380.424 410.324 340.849 426.615 340.849 426.615L126.691 319.54C126.691 319.54 166.908 295.49 175.899 236.515C184.883 177.549 191.091 61.0903 191.091 61.0903L419.991 164.349L419.999 164.357Z" fill="#FF5200"/>
<mask id="mask2_69562_9536" style="mask-type:luminance" maskUnits="userSpaceOnUse" x="126" y="61" width="294" height="366">
<path d="M419.999 164.357C419.999 164.357 409.916 312.557 395.166 361.44C380.424 410.324 340.849 426.615 340.849 426.615L126.691 319.54C126.691 319.54 166.908 295.49 175.899 236.515C184.883 177.549 191.091 61.0903 191.091 61.0903L419.991 164.349L419.999 164.357Z" fill="white"/>
</mask>
<g mask="url(#mask2_69562_9536)">
<path d="M407.092 124.049C407.092 124.049 388.958 238.874 380.008 283.932C367.758 345.624 323.192 363.607 323.192 363.607L136.958 255.132L234.183 109.299L406.258 124.04" fill="black"/>
<path d="M407.092 124.049C407.092 124.049 388.958 238.874 380.008 283.932C367.758 345.624 323.192 363.607 323.192 363.607L136.958 255.132L234.183 109.299L406.258 124.04" stroke="black" stroke-width="0.833333" stroke-miterlimit="10"/>
<path d="M420 164.357L417.466 165.965L379.35 148.707L390.016 149.649L420 164.357Z" fill="#FF945B"/>
<path d="M126.7 317.257L340.783 423.474L340.85 426.615L123.425 319.607L126.7 317.257Z" fill="#FF945B"/>
<path d="M340.783 423.474C340.783 423.474 378.758 408.649 393.5 359.765C408.241 310.882 417.466 165.957 417.466 165.957L420 164.349C420 164.349 418.408 308.39 398.958 360.307C379.508 412.232 340.858 426.607 340.858 426.607L340.791 423.465L340.783 423.474Z" fill="#963000"/>
</g>
<path d="M419.999 164.357C419.999 164.357 409.916 312.557 395.166 361.44C380.425 410.324 340.849 426.615 340.849 426.615L126.691 319.54C126.691 319.54 166.908 295.49 175.899 236.515C184.883 177.549 191.091 61.0903 191.091 61.0903L419.991 164.349L419.999 164.357Z" stroke="black" stroke-width="0.833333" stroke-miterlimit="10"/>
<path d="M406.258 124.049C406.258 124.049 389.583 241.307 346.908 297.949C316.183 338.724 254.442 349.932 254.442 349.932L52.8333 231.999C52.8333 231.999 98.3583 228.732 135.858 182.34C179.758 128.024 177.358 20.7903 177.358 20.7903L406.258 124.049Z" fill="#CEC4A1"/>
<mask id="mask3_69562_9536" style="mask-type:luminance" maskUnits="userSpaceOnUse" x="52" y="20" width="355" height="330">
<path d="M406.258 124.049C406.258 124.049 389.583 241.307 346.908 297.949C316.183 338.724 254.442 349.932 254.442 349.932L52.8333 231.999C52.8333 231.999 98.3583 228.732 135.858 182.34C179.758 128.024 177.358 20.7903 177.358 20.7903L406.258 124.049Z" fill="white"/>
</mask>
<g mask="url(#mask3_69562_9536)">
<path d="M406.258 124.049L177.358 20.7903L406.258 124.049Z" fill="#ECE0D6"/>
<path d="M254.441 349.94L52.833 231.999L56.6747 230.849L255.858 347.157L254.441 349.94Z" fill="#ECE0D6"/>
<path d="M177.383 23.532L403.641 125.299L406.258 124.049L177.358 20.7903L177.383 23.532Z" fill="#ECE0D6"/>
<path d="M144.708 170.232C144.708 170.232 142.483 184.34 148.599 190.124C160.049 200.949 305.933 278.749 328.366 285.657C343.074 290.182 359.899 277.19 359.899 277.19C359.899 277.19 320.424 338.524 293.133 340.399C293.133 340.399 303.091 329.04 278.616 312.574C254.149 296.107 145.624 238.599 113.308 226.365C98.1328 220.615 83.1995 223.332 83.1995 223.332L144.708 170.24V170.232Z" fill="#ECE0D6"/>
<path d="M403.641 125.299C403.641 125.299 387.825 240.349 345.658 296.315C315.3 336.607 255.85 347.157 255.85 347.157L254.433 349.94C254.433 349.94 326.008 344.157 359.258 287.065C392.516 229.965 406.25 124.057 406.25 124.057L403.633 125.307L403.641 125.299Z" fill="#8D6E5B"/>
</g>
<path d="M406.258 124.049C406.258 124.049 389.583 241.307 346.908 297.949C316.183 338.724 254.442 349.932 254.442 349.932L52.8333 231.999C52.8333 231.999 98.3583 228.732 135.858 182.34C179.758 128.024 177.358 20.7903 177.358 20.7903L406.258 124.049Z" stroke="black" stroke-width="0.833333" stroke-miterlimit="10"/>
<path d="M188.608 179.299C194.417 207.199 203.817 240.982 203.817 240.982C203.817 240.982 262.833 239.549 336.483 209.007C339.4 207.799 330.983 186.499 327.967 187.824C310.942 195.315 270.5 210.207 221.292 217.14C221.292 217.14 215.133 198.457 210.533 174.824C210.117 172.674 188.192 177.29 188.608 179.307V179.299Z" fill="#FF5200"/>
<mask id="mask4_69562_9536" style="mask-type:luminance" maskUnits="userSpaceOnUse" x="188" y="174" width="150" height="67">
<path d="M188.608 179.299C194.417 207.199 203.817 240.982 203.817 240.982C203.817 240.982 262.833 239.549 336.483 209.007C339.4 207.799 330.983 186.499 327.967 187.824C310.942 195.315 270.5 210.207 221.292 217.14C221.292 217.14 215.133 198.457 210.533 174.824C210.117 172.674 188.192 177.29 188.608 179.307V179.299Z" fill="white"/>
</mask>
<g mask="url(#mask4_69562_9536)">
<path d="M144.708 170.232C144.708 170.232 142.483 184.34 148.6 190.124C160.05 200.949 305.933 278.749 328.366 285.657C343.075 290.182 359.9 277.19 359.9 277.19C359.9 277.19 320.425 338.524 293.133 340.399C293.133 340.399 303.091 329.04 278.616 312.574C254.15 296.107 145.625 238.599 113.308 226.365C98.133 220.615 83.1997 223.332 83.1997 223.332L144.708 170.24V170.232Z" fill="#FF945B"/>
</g>
<path d="M262.642 125.265C263.242 125.74 267.792 120.949 272.817 114.582C276.725 109.624 279.4 104.882 280.392 103.024C280.483 102.849 280.267 102.674 280.117 102.807C278.533 104.215 274.55 107.924 270.65 112.882C265.625 119.257 262.042 124.807 262.642 125.274V125.265Z" fill="black" stroke="black" stroke-width="0.833333" stroke-miterlimit="10"/>
<path d="M267.618 143.867C277.113 131.813 279.515 117.87 272.982 112.724C266.449 107.577 253.456 113.177 243.96 125.23C234.465 137.284 232.063 151.227 238.596 156.373C245.129 161.52 258.122 155.92 267.618 143.867Z" fill="black" stroke="black" stroke-width="0.833333" stroke-miterlimit="10"/>
<path d="M269.042 96.2903L271.067 93.7153L280.267 102.082C280.967 102.715 280.109 103.807 279.326 103.274L269.042 96.2903Z" fill="#566578" stroke="black" stroke-width="0.833333" stroke-miterlimit="10"/>
<path d="M272.789 97.1555C282.458 84.8815 283.576 69.6374 275.286 63.1069C266.996 56.5763 252.438 61.2323 242.769 73.5063C233.1 85.7803 231.982 101.024 240.271 107.555C248.561 114.086 263.12 109.43 272.789 97.1555Z" fill="#963000"/>
<mask id="mask5_69562_9536" style="mask-type:luminance" maskUnits="userSpaceOnUse" x="234" y="60" width="47" height="51">
<path d="M272.789 97.1555C282.458 84.8815 283.576 69.6374 275.286 63.1069C266.996 56.5763 252.438 61.2323 242.769 73.5063C233.1 85.7803 231.982 101.024 240.271 107.555C248.561 114.086 263.12 109.43 272.789 97.1555Z" fill="white"/>
</mask>
<g mask="url(#mask5_69562_9536)">
<path d="M269.148 91.0852C277.208 80.8538 278.142 68.1476 271.233 62.705C264.324 57.2624 252.189 61.1444 244.129 71.3758C236.069 81.6071 235.136 94.3133 242.045 99.756C248.954 105.199 261.089 101.317 269.148 91.0852Z" fill="#FF5200"/>
<path d="M276.835 64.5403C276.835 64.5403 271.601 61.8403 266.643 65.0236C262.41 67.7403 260.835 71.8153 260.285 73.882C260.118 74.507 260.051 75.157 260.118 75.7986C260.268 77.332 260.101 81.4487 254.96 85.6403C254.96 85.6403 256.685 77.182 253.551 73.257C250.418 69.332 253.551 63.7653 253.551 63.7653C253.551 63.7653 258.193 56.632 269.051 58.0403C279.91 59.4486 276.843 64.532 276.843 64.532L276.835 64.5403Z" fill="#FF945B"/>
<path d="M234.927 99.3736C234.927 99.3736 236.443 107.44 247.777 109.14C256.71 110.474 265.843 102.465 269.318 99.007C269.952 98.3736 271.035 98.6986 271.218 99.582L271.493 100.907C271.493 100.907 263.193 113.374 251.543 112.44C239.893 111.507 234.927 105.499 234.927 105.499V99.382V99.3736Z" fill="#FF5200"/>
</g>
<path d="M272.789 97.1555C282.458 84.8815 283.576 69.6374 275.286 63.1069C266.996 56.5763 252.438 61.2323 242.769 73.5063C233.1 85.7803 231.982 101.024 240.271 107.555C248.561 114.086 263.12 109.43 272.789 97.1555Z" stroke="black" stroke-width="0.833333" stroke-miterlimit="10"/>
<path d="M248.493 87.3987L229.601 72.5153L238.726 60.932L257.618 75.8153C258.451 76.4737 258.868 77.532 258.668 78.5737C258.418 79.832 257.734 81.6737 255.976 83.907C254.218 86.1403 252.593 87.232 251.426 87.7653C250.459 88.207 249.326 88.057 248.493 87.3987Z" fill="#FF5200"/>
<mask id="mask6_69562_9536" style="mask-type:luminance" maskUnits="userSpaceOnUse" x="229" y="60" width="30" height="29">
<path d="M248.493 87.3987L229.601 72.5153L238.726 60.932L257.618 75.8153C258.451 76.4737 258.868 77.532 258.668 78.5737C258.418 79.832 257.734 81.6737 255.976 83.907C254.218 86.1403 252.593 87.232 251.426 87.7653C250.459 88.207 249.326 88.057 248.493 87.3987Z" fill="white"/>
</mask>
<g mask="url(#mask6_69562_9536)">
<path d="M255.968 83.907C255.968 83.907 252.484 85.0237 248.368 81.907C244.251 78.7904 237.901 73.2404 237.901 73.2404L231.659 76.907L249.309 93.7237L255.968 83.9154" fill="#963000"/>
<path d="M236.709 64.9404L257.801 81.4071L258.451 79.407C258.451 79.407 250.676 73.332 247.051 70.407C243.426 67.482 243.776 64.5154 243.776 64.5154L236.709 64.932V64.9404Z" fill="#FF945B"/>
</g>
<path d="M248.493 87.3987L229.601 72.5153L238.726 60.932L257.618 75.8153C258.451 76.4737 258.868 77.532 258.668 78.5737C258.418 79.832 257.734 81.6737 255.976 83.907C254.218 86.1403 252.592 87.232 251.426 87.7653C250.459 88.207 249.326 88.057 248.493 87.3987Z" stroke="black" stroke-width="0.833333" stroke-miterlimit="10"/>
<path d="M239.726 71.107C246.651 62.3237 248.151 51.657 243.759 45.6654L239.218 38.6154L236.943 41.4237C230.276 40.1487 221.634 44.1404 215.451 51.982C209.468 59.5737 207.534 68.5654 209.959 74.7404L207.343 77.9654L215.926 80.982C222.784 83.8404 232.801 79.8904 239.718 71.107H239.726Z" fill="#FF5200"/>
<mask id="mask7_69562_9536" style="mask-type:luminance" maskUnits="userSpaceOnUse" x="207" y="38" width="40" height="44">
<path d="M239.726 71.107C246.651 62.3237 248.151 51.657 243.759 45.6654L239.218 38.6154L236.943 41.4237C230.276 40.1487 221.634 44.1404 215.451 51.982C209.468 59.5737 207.534 68.5654 209.959 74.7404L207.343 77.9654L215.926 80.982C222.784 83.8404 232.801 79.8904 239.718 71.107H239.726Z" fill="white"/>
</mask>
<g mask="url(#mask7_69562_9536)">
<path d="M236.709 63.4987C236.709 63.4987 234.876 65.5737 236.209 66.7487C237.542 67.9237 241.076 70.5153 241.076 70.5153C241.076 70.5153 237.542 77.4153 231.117 80.2403C224.692 83.0653 223.701 81.632 223.701 81.632C223.701 81.632 224.992 80.8653 222.642 79.4153C220.292 77.9653 216.109 78.632 216.109 78.632L236.709 63.4987Z" fill="#963000"/>
<path d="M243.517 53.2237L247.076 57.257L248.842 46.082L239.892 40.0903L241.101 48.032C241.392 49.957 242.234 51.7653 243.526 53.2237H243.517Z" fill="#FF945B"/>
</g>
<path d="M239.726 71.107C246.651 62.3237 248.151 51.657 243.759 45.6654L239.218 38.6154L236.943 41.4237C230.276 40.1487 221.634 44.1404 215.451 51.982C209.468 59.5737 207.534 68.5654 209.959 74.7404L207.343 77.9654L215.926 80.982C222.784 83.8404 232.801 79.8904 239.718 71.107H239.726Z" stroke="black" stroke-width="0.833333" stroke-miterlimit="10"/>
<path d="M234.155 66.712C243.013 55.4684 244.038 41.5052 236.446 35.5243C228.854 29.5434 215.519 33.8097 206.662 45.0533C197.804 56.297 196.778 70.2602 204.371 76.2411C211.963 82.222 225.298 77.9557 234.155 66.712Z" fill="#FF5200"/>
<mask id="mask8_69562_9536" style="mask-type:luminance" maskUnits="userSpaceOnUse" x="199" y="32" width="43" height="47">
<path d="M234.155 66.712C243.013 55.4684 244.038 41.5052 236.446 35.5243C228.854 29.5434 215.519 33.8097 206.662 45.0533C197.804 56.297 196.778 70.2602 204.371 76.2411C211.963 82.222 225.298 77.9557 234.155 66.712Z" fill="white"/>
</mask>
<g mask="url(#mask8_69562_9536)">
<path d="M199.293 52.5487C199.293 52.5487 200.018 62.8404 206.484 65.257C212.676 67.5737 223.018 63.832 230.643 60.2654C234.493 58.4654 238.418 62.4987 236.534 66.3154C233.093 73.2987 226.826 80.9904 215.926 80.9904C188.126 80.9904 199.284 52.557 199.284 52.557L199.293 52.5487Z" fill="#963000"/>
<path d="M214.076 37.932L214.667 38.0904C216.209 38.4987 217.842 38.3404 219.284 37.657C222.017 36.3487 226.934 34.5154 231.026 35.7654C236.509 37.4404 237.734 42.8487 238.009 45.4654C238.117 46.532 238.509 47.5404 239.109 48.432C240.026 49.7904 242.151 49.157 242.176 47.5237C242.242 42.682 240.909 35.4654 232.984 32.8404C221.851 29.1487 214.067 37.9404 214.067 37.9404L214.076 37.932Z" fill="#FF945B"/>
</g>
<path d="M234.155 66.712C243.013 55.4684 244.038 41.5052 236.446 35.5243C228.854 29.5434 215.519 33.8097 206.662 45.0533C197.804 56.297 196.778 70.2602 204.371 76.2411C211.963 82.222 225.298 77.9557 234.155 66.712Z" stroke="black" stroke-width="0.833333" stroke-miterlimit="10"/>
</g>
<defs>
</defs>
</svg>
