<svg width="500" height="500" viewBox="0 0 500 500" fill="none" xmlns="http://www.w3.org/2000/svg">
<g>
<g clip-path="url(#clip0_69562_923)">
<path d="M291.525 200.957L287.775 208.048C282.825 217.398 274.742 225.223 264.575 230.498L57.2338 338.057C43.5088 345.173 27.3921 347.982 11.5671 346.007L6.38379 345.357L204.242 446.198C221.542 449.482 239.634 446.915 254.842 439.023L381.342 373.39C386.025 370.965 391.609 371.057 396.209 373.632L445.542 401.34C448.509 402.982 452.825 402.982 457.459 400.94C465.517 397.382 471.475 388.998 470.767 382.215C470.475 379.415 469.084 377.348 466.992 376.107C466.817 376.007 466.65 375.898 466.467 375.807L427.709 354.048C425.825 352.99 425.875 350.273 427.784 349.282L463.925 330.532C474.659 324.965 483.059 316.557 487.909 306.54L490.492 301.19L291.509 200.957H291.525Z" fill="black"/>
<path d="M204.25 404.332C221.55 408.107 239.642 405.157 254.85 396.073L463.95 271.265C474.683 264.857 483.083 255.19 487.933 243.665L490.517 237.507L291.533 122.198L287.783 130.357C282.833 141.115 274.75 150.115 264.583 156.182L57.2416 279.923C43.5166 288.115 27.3999 291.34 11.5749 289.065L6.3916 288.323L204.25 404.332Z" fill="#C7C7C7"/>
<mask id="mask0_69562_923" style="mask-type:luminance" maskUnits="userSpaceOnUse" x="6" y="122" width="485" height="284">
<path d="M204.25 404.332C221.55 408.107 239.642 405.157 254.85 396.073L463.95 271.265C474.683 264.857 483.083 255.19 487.933 243.665L490.517 237.507L291.533 122.198L287.783 130.357C282.833 141.115 274.75 150.115 264.583 156.182L57.2416 279.923C43.5166 288.115 27.3999 291.34 11.5749 289.065L6.3916 288.323L204.25 404.332Z" fill="white"/>
</mask>
<g mask="url(#mask0_69562_923)">
<path d="M210.3 397.257C221.816 396.773 233.1 393.44 243.108 387.465L450.45 263.723C458.341 259.015 464.975 252.54 469.866 244.848L298.158 145.64C293.266 153.332 286.633 159.807 278.741 164.515L71.3996 288.257C61.3913 294.232 50.108 297.565 38.5913 298.048L210.3 397.257Z" fill="#F3F3F3"/>
<mask id="mask1_69562_923" style="mask-type:luminance" maskUnits="userSpaceOnUse" x="38" y="145" width="432" height="253">
<path d="M210.3 397.257C221.816 396.773 233.1 393.44 243.108 387.465L450.45 263.723C458.341 259.015 464.975 252.54 469.866 244.848L298.158 145.64C293.266 153.332 286.633 159.807 278.741 164.515L71.3996 288.257C61.3913 294.232 50.108 297.565 38.5913 298.048L210.3 397.257Z" fill="white"/>
</mask>
<g mask="url(#mask1_69562_923)">
<path opacity="0.2" d="M461.933 263.048L273.024 153.898" stroke="black" stroke-width="0.416667" stroke-miterlimit="10"/>
<path opacity="0.2" d="M444.841 273.407L255.933 164.257" stroke="black" stroke-width="0.416667" stroke-miterlimit="10"/>
<path opacity="0.2" d="M427.749 283.765L238.841 174.615" stroke="black" stroke-width="0.416667" stroke-miterlimit="10"/>
<path opacity="0.2" d="M410.649 294.123L221.741 184.973" stroke="black" stroke-width="0.416667" stroke-miterlimit="10"/>
<path opacity="0.2" d="M376.458 314.84L187.55 205.69" stroke="black" stroke-width="0.416667" stroke-miterlimit="10"/>
<path opacity="0.2" d="M342.266 335.557L153.358 226.407" stroke="black" stroke-width="0.416667" stroke-miterlimit="10"/>
<path opacity="0.2" d="M308.074 356.273L119.166 247.123" stroke="black" stroke-width="0.416667" stroke-miterlimit="10"/>
<path opacity="0.2" d="M273.883 376.99L84.9744 267.84" stroke="black" stroke-width="0.416667" stroke-miterlimit="10"/>
<path opacity="0.2" d="M239.691 397.707L50.7827 288.557" stroke="black" stroke-width="0.416667" stroke-miterlimit="10"/>
<path opacity="0.2" d="M393.558 304.482L204.65 195.332" stroke="black" stroke-width="0.416667" stroke-miterlimit="10"/>
<path opacity="0.2" d="M359.366 325.198L170.458 216.048" stroke="black" stroke-width="0.416667" stroke-miterlimit="10"/>
<path opacity="0.2" d="M325.174 345.915L136.266 236.765" stroke="black" stroke-width="0.416667" stroke-miterlimit="10"/>
<path opacity="0.2" d="M290.983 366.632L102.074 257.482" stroke="black" stroke-width="0.416667" stroke-miterlimit="10"/>
<path opacity="0.2" d="M256.791 387.348L67.8828 278.198" stroke="black" stroke-width="0.416667" stroke-miterlimit="10"/>
<path opacity="0.2" d="M313.316 154.69C308.425 162.382 301.791 168.857 293.9 173.565L86.5578 297.307C76.5495 303.282 65.2662 306.615 53.7495 307.098" stroke="black" stroke-width="0.416667" stroke-miterlimit="10"/>
<path opacity="0.2" d="M329.058 163.765C324.166 171.457 317.533 177.932 309.641 182.64L102.3 306.382C92.2915 312.357 81.0081 315.69 69.4915 316.173" stroke="black" stroke-width="0.416667" stroke-miterlimit="10"/>
<path opacity="0.2" d="M344.799 172.84C339.908 180.532 333.274 187.007 325.383 191.715L118.041 315.457C108.033 321.432 96.7493 324.765 85.2327 325.248" stroke="black" stroke-width="0.416667" stroke-miterlimit="10"/>
<path opacity="0.2" d="M360.541 181.915C355.649 189.607 349.016 196.082 341.124 200.79L133.783 324.532C123.774 330.507 112.491 333.84 100.974 334.323" stroke="black" stroke-width="0.416667" stroke-miterlimit="10"/>
<path opacity="0.2" d="M376.283 190.99C371.391 198.682 364.758 205.157 356.866 209.865L149.525 333.607C139.516 339.582 128.233 342.915 116.716 343.398" stroke="black" stroke-width="0.416667" stroke-miterlimit="10"/>
<path opacity="0.2" d="M392.024 200.065C387.132 207.757 380.499 214.232 372.608 218.94L165.266 342.682C155.258 348.657 143.974 351.99 132.458 352.473" stroke="black" stroke-width="0.416667" stroke-miterlimit="10"/>
<path opacity="0.2" d="M407.766 209.132C402.874 216.823 396.241 223.298 388.349 228.007L181.008 351.748C170.999 357.723 159.716 361.057 148.199 361.54" stroke="black" stroke-width="0.416667" stroke-miterlimit="10"/>
<path opacity="0.2" d="M423.499 218.207C418.608 225.898 411.974 232.373 404.083 237.082L196.741 360.823C186.733 366.798 175.449 370.132 163.933 370.615" stroke="black" stroke-width="0.416667" stroke-miterlimit="10"/>
<path opacity="0.2" d="M439.241 227.282C434.35 234.973 427.716 241.448 419.825 246.157L212.483 369.898C202.475 375.873 191.191 379.207 179.675 379.69" stroke="black" stroke-width="0.416667" stroke-miterlimit="10"/>
<path opacity="0.2" d="M454.983 236.357C450.091 244.048 443.458 250.523 435.566 255.232L228.225 378.973C218.216 384.948 206.933 388.282 195.416 388.765" stroke="black" stroke-width="0.416667" stroke-miterlimit="10"/>
</g>
<path d="M210.3 397.257C221.816 396.773 233.1 393.44 243.108 387.465L450.45 263.723C458.341 259.015 464.975 252.54 469.866 244.848L298.158 145.64C293.266 153.332 286.633 159.807 278.741 164.515L71.3996 288.257C61.3913 294.232 50.108 297.565 38.5913 298.048L210.3 397.257Z" stroke="black" stroke-width="0.416667" stroke-miterlimit="10"/>
<path d="M126.241 291.99L298.875 189.073L408.933 252.665L305.566 314.348L258.4 287.098L189.483 328.223L126.241 291.99Z" stroke="black" stroke-width="0.416667" stroke-miterlimit="10"/>
<path d="M127.691 292.873L300.316 189.957" stroke="black" stroke-width="0.416667" stroke-miterlimit="10"/>
<path d="M303.991 313.44L407.4 251.773" stroke="black" stroke-width="0.416667" stroke-miterlimit="10"/>
<path d="M298.825 190.848L405.875 252.682" stroke="black" stroke-width="0.416667" stroke-miterlimit="10"/>
<path d="M187.6 327.148L258.35 285.207L305.458 312.565" stroke="black" stroke-width="0.416667" stroke-miterlimit="10"/>
<path d="M129.35 291.882L189.325 326.123" stroke="black" stroke-width="0.416667" stroke-miterlimit="10"/>
<path d="M196.942 251.59L242.667 278.015L240.958 279.04L242.5 280.04L246.9 277.39L245.375 276.398L244.117 277.148L198.317 250.773" stroke="black" stroke-width="0.416667" stroke-miterlimit="10"/>
<path d="M328.783 208.157L295.866 227.798L294.366 226.94L292.958 227.798L297.425 230.507L298.825 229.682L297.075 228.507L330.2 208.973" stroke="black" stroke-width="0.416667" stroke-miterlimit="10"/>
<path d="M275.666 295.265L308.574 275.615L338.449 292.873" stroke="black" stroke-width="0.416667" stroke-miterlimit="10"/>
<path d="M277.025 296.048L308.85 277.132L337.225 293.623" stroke="black" stroke-width="0.416667" stroke-miterlimit="10"/>
<path d="M192.491 289.49L162.466 272.14" stroke="black" stroke-width="0.416667" stroke-miterlimit="10"/>
<path d="M288.208 304.323L255.333 324.107L235.667 312.682L234.275 313.657L255.325 325.873L289.75 305.323" stroke="black" stroke-width="0.416667" stroke-miterlimit="10"/>
<path opacity="0.8" d="M455.441 357.215C455.15 353.998 453.758 351.615 451.666 350.19C451.491 350.073 451.325 349.957 451.141 349.848L327.1 269.74C325.733 268.69 324.033 268.098 322.116 267.998C320.308 264.215 320.708 259.582 323.458 256.14C323.766 255.807 324.425 255.065 324.425 255.065C335.4 242.74 341.183 228.657 339.908 214.182C336.425 174.498 281.283 146.915 216.758 152.582C152.225 158.248 102.741 195.015 106.225 234.698C109.708 274.382 164.85 301.965 229.375 296.298C244.141 294.998 258.116 292.073 270.85 287.857H270.841C270.841 287.857 270.925 287.832 270.966 287.823C271.533 287.64 272.091 287.448 272.65 287.257C280.225 284.932 288.45 285.657 295.525 289.357L301.466 292.465C301.95 295.09 303.225 297.082 305.033 298.332V298.348L305.45 298.623C305.45 298.623 305.458 298.623 305.466 298.632L430.208 379.215C433.175 381.107 437.491 381.107 442.125 378.748C450.183 374.657 456.141 365.007 455.433 357.207L455.441 357.215ZM227.016 278.865C175.2 283.415 130.983 261.965 128.258 230.948C125.533 199.932 165.333 171.107 217.158 166.557C268.975 162.007 313.191 183.457 315.916 214.473C318.641 245.49 278.841 274.315 227.016 278.865Z" fill="black"/>
</g>
<path d="M204.25 404.332C221.55 408.107 239.642 405.157 254.85 396.073L463.95 271.265C474.683 264.857 483.083 255.19 487.933 243.665L490.517 237.507L291.533 122.198L287.783 130.357C282.833 141.115 274.75 150.115 264.583 156.182L57.2416 279.923C43.5166 288.115 27.3999 291.34 11.5749 289.065L6.3916 288.323L204.25 404.332Z" stroke="black" stroke-width="0.833333" stroke-miterlimit="10"/>
<path d="M109.559 188.032C113.042 227.715 168.184 255.298 232.709 249.632C247.475 248.332 261.45 245.407 274.184 241.19H274.175C274.175 241.19 274.259 241.165 274.3 241.157C274.867 240.973 275.425 240.782 275.984 240.59C283.559 238.265 291.784 238.99 298.859 242.69L309.467 248.232L337.234 231.765L328.834 225.465C323.7 221.615 322.909 214.348 326.8 209.482C327.109 209.148 327.767 208.407 327.767 208.407C338.742 196.082 344.525 181.998 343.25 167.523L339.917 140.857L106.225 161.373L109.559 188.04V188.032Z" fill="#566578"/>
<mask id="mask2_69562_923" style="mask-type:luminance" maskUnits="userSpaceOnUse" x="106" y="140" width="238" height="111">
<path d="M109.559 188.032C113.042 227.715 168.184 255.298 232.709 249.632C247.475 248.332 261.45 245.407 274.184 241.19H274.175C274.175 241.19 274.259 241.165 274.3 241.157C274.867 240.973 275.425 240.782 275.984 240.59C283.559 238.265 291.784 238.99 298.859 242.69L309.467 248.232L337.234 231.765L328.834 225.465C323.7 221.615 322.909 214.348 326.8 209.482C327.109 209.148 327.767 208.407 327.767 208.407C338.742 196.082 344.525 181.998 343.25 167.523L339.917 140.857L106.225 161.373L109.559 188.04V188.032Z" fill="white"/>
</mask>
<g mask="url(#mask2_69562_923)">
<path d="M134.484 199.057L138.059 234.54C138.059 234.54 165.876 255.732 210.817 255.732C255.759 255.732 287.151 239.89 287.151 239.89L283.551 209.382C283.551 209.382 250.817 220.24 207.384 220.24C163.951 220.24 134.492 199.065 134.492 199.065L134.484 199.057Z" fill="#C7C7C7"/>
</g>
<path d="M109.559 188.032C113.042 227.715 168.184 255.298 232.709 249.632C247.475 248.332 261.45 245.407 274.184 241.19H274.175C274.175 241.19 274.259 241.165 274.3 241.157C274.867 240.973 275.425 240.782 275.984 240.59C283.559 238.265 291.784 238.99 298.859 242.69L309.467 248.232L337.234 231.765L328.834 225.465C323.7 221.615 322.909 214.348 326.8 209.482C327.109 209.148 327.767 208.407 327.767 208.407C338.742 196.082 344.525 181.998 343.25 167.523L339.917 140.857L106.225 161.373L109.559 188.04V188.032Z" stroke="black" stroke-width="0.833333" stroke-linecap="round" stroke-linejoin="round"/>
<path d="M323.458 182.807C323.767 182.473 324.425 181.732 324.425 181.732C335.4 169.407 341.183 155.323 339.908 140.848C336.425 101.165 281.283 73.5815 216.758 79.2482C152.225 84.9149 102.742 121.682 106.225 161.365C109.708 201.048 164.85 228.632 229.375 222.965C244.142 221.665 258.117 218.74 270.85 214.523H270.842C270.842 214.523 270.925 214.498 270.967 214.49C271.533 214.307 272.092 214.115 272.65 213.923C280.225 211.598 288.45 212.323 295.525 216.023L306.133 221.565L333.9 205.098L325.5 198.798C320.367 194.948 319.575 187.682 323.467 182.815L323.458 182.807Z" fill="#F3F3F3" stroke="black" stroke-width="0.833333" stroke-linecap="round" stroke-linejoin="round"/>
<path d="M228.459 212.351C286.589 207.245 331.235 174.904 328.179 140.115C325.123 105.326 275.522 81.2636 217.393 86.3697C159.263 91.4759 114.617 123.817 117.673 158.606C120.729 193.395 170.329 217.457 228.459 212.351Z" fill="#C7C7C7"/>
<mask id="mask3_69562_923" style="mask-type:luminance" maskUnits="userSpaceOnUse" x="117" y="85" width="212" height="129">
<path d="M228.459 212.351C286.589 207.245 331.235 174.904 328.179 140.115C325.123 105.326 275.522 81.2636 217.393 86.3697C159.263 91.4759 114.617 123.817 117.673 158.606C120.729 193.395 170.329 217.457 228.459 212.351Z" fill="white"/>
</mask>
<g mask="url(#mask3_69562_923)">
<path d="M228.725 217.987C285.603 212.991 329.288 181.345 326.297 147.303C323.307 113.261 274.774 89.7156 217.896 94.7117C161.018 99.7079 117.334 131.354 120.324 165.396C123.314 199.437 171.847 222.983 228.725 217.987Z" fill="#566578"/>
<mask id="mask4_69562_923" style="mask-type:luminance" maskUnits="userSpaceOnUse" x="120" y="94" width="207" height="125">
<path d="M228.725 217.987C285.603 212.991 329.288 181.345 326.297 147.303C323.307 113.261 274.774 89.7156 217.896 94.7117C161.018 99.7079 117.334 131.354 120.324 165.396C123.314 199.437 171.847 222.983 228.725 217.987Z" fill="white"/>
</mask>
<g mask="url(#mask4_69562_923)">
<path d="M137.583 125.248V135.448L121.158 172.898C121.158 172.898 109.667 143.448 137.583 125.248Z" fill="black" stroke="black" stroke-width="0.833333" stroke-miterlimit="10"/>
<path d="M299.309 105.957V121.015L325.859 157.265C325.859 157.265 331.275 149.89 324.434 132.623C316.6 112.857 299.309 105.957 299.309 105.957Z" fill="black" stroke="black" stroke-width="0.833333" stroke-miterlimit="10"/>
</g>
<path d="M228.725 217.987C285.603 212.991 329.288 181.345 326.297 147.303C323.307 113.261 274.774 89.7156 217.896 94.7117C161.018 99.7079 117.334 131.354 120.324 165.396C123.314 199.437 171.847 222.983 228.725 217.987Z" stroke="black" stroke-width="0.833333" stroke-miterlimit="10"/>
<path d="M229.561 225.485C286.439 220.489 330.124 188.843 327.134 154.801C324.144 120.76 275.611 97.2138 218.733 102.21C161.855 107.206 118.17 138.853 121.16 172.894C124.151 206.936 172.683 230.482 229.561 225.485Z" fill="#F3F3F3"/>
<mask id="mask5_69562_923" style="mask-type:luminance" maskUnits="userSpaceOnUse" x="121" y="101" width="207" height="126">
<path d="M229.561 225.485C286.439 220.489 330.124 188.843 327.134 154.801C324.144 120.76 275.611 97.2138 218.733 102.21C161.855 107.206 118.17 138.853 121.16 172.894C124.151 206.936 172.683 230.482 229.561 225.485Z" fill="white"/>
</mask>
<g mask="url(#mask5_69562_923)">
<path d="M246.5 239.973C437.292 177.865 286.6 79.8899 285.134 82.2815C279.2 91.9399 271 100.065 261.192 105.915L84.3003 211.482C84.3003 211.482 152.8 270.473 246.5 239.973Z" fill="#C7C7C7"/>
<mask id="mask6_69562_923" style="mask-type:luminance" maskUnits="userSpaceOnUse" x="84" y="82" width="260" height="167">
<path d="M246.5 239.973C437.292 177.865 286.6 79.8899 285.134 82.2815C279.2 91.9399 271 100.065 261.192 105.915L84.3003 211.482C84.3003 211.482 152.8 270.473 246.5 239.973Z" fill="white"/>
</mask>
<g mask="url(#mask6_69562_923)">
<path d="M305.458 200.957C389.742 134.09 301.6 93.2232 301.6 93.2232C295.717 102.482 287.725 110.273 278.233 115.94L105.992 218.731C105.992 218.731 221.175 267.823 305.458 200.957Z" fill="#F3F3F3"/>
<mask id="mask7_69562_923" style="mask-type:luminance" maskUnits="userSpaceOnUse" x="105" y="93" width="237" height="144">
<path d="M305.458 200.957C389.742 134.09 301.6 93.2232 301.6 93.2232C295.717 102.482 287.725 110.273 278.233 115.94L105.992 218.731C105.992 218.731 221.175 267.823 305.458 200.957Z" fill="white"/>
</mask>
<g mask="url(#mask7_69562_923)">
<path opacity="0.2" d="M498.676 234.507L271.359 103.173" stroke="black" stroke-width="0.416667" stroke-miterlimit="10"/>
<path opacity="0.2" d="M478.109 246.973L250.792 115.632" stroke="black" stroke-width="0.416667" stroke-miterlimit="10"/>
<path opacity="0.2" d="M457.534 259.44L230.218 128.098" stroke="black" stroke-width="0.416667" stroke-miterlimit="10"/>
<path opacity="0.2" d="M436.959 271.898L209.642 140.565" stroke="black" stroke-width="0.416667" stroke-miterlimit="10"/>
<path opacity="0.2" d="M395.817 296.832L168.501 165.49" stroke="black" stroke-width="0.416667" stroke-miterlimit="10"/>
<path opacity="0.2" d="M354.676 321.757L127.359 190.423" stroke="black" stroke-width="0.416667" stroke-miterlimit="10"/>
<path opacity="0.2" d="M416.393 284.365L189.076 153.023" stroke="black" stroke-width="0.416667" stroke-miterlimit="10"/>
<path opacity="0.2" d="M375.251 309.298L147.934 177.957" stroke="black" stroke-width="0.416667" stroke-miterlimit="10"/>
<path opacity="0.2" d="M319.843 104.123C313.959 113.382 305.967 121.173 296.476 126.84L131.601 225.24" stroke="black" stroke-width="0.416667" stroke-miterlimit="10"/>
<path opacity="0.2" d="M338.784 115.04C332.901 124.298 324.909 132.09 315.417 137.756L163.859 228.206" stroke="black" stroke-width="0.416667" stroke-miterlimit="10"/>
<path opacity="0.2" d="M357.726 125.957C351.843 135.215 343.851 143.007 334.359 148.673L179.584 241.04" stroke="black" stroke-width="0.416667" stroke-miterlimit="10"/>
</g>
<path d="M305.458 200.957C389.742 134.09 301.6 93.2232 301.6 93.2232C295.717 102.482 287.725 110.273 278.233 115.94L105.992 218.732C105.992 218.732 221.175 267.823 305.458 200.957Z" stroke="black" stroke-width="0.416667" stroke-miterlimit="10"/>
<path d="M94.7336 269.332L302.459 145.49L434.9 222.007L310.517 296.24L253.75 263.448L170.834 312.932L94.7336 269.332Z" stroke="black" stroke-width="0.416667" stroke-miterlimit="10"/>
<path d="M96.467 270.398L304.2 146.556" stroke="black" stroke-width="0.416667" stroke-miterlimit="10"/>
<path d="M302.4 147.632L431.217 222.04" stroke="black" stroke-width="0.416667" stroke-miterlimit="10"/>
<path d="M338.45 168.456L298.833 192.098L297.042 191.056L295.333 192.098L300.717 195.348L302.4 194.356L300.292 192.94L340.158 169.44" stroke="black" stroke-width="0.416667" stroke-miterlimit="10"/>
<path opacity="0.8" d="M490.859 347.823C490.509 343.948 488.825 341.082 486.317 339.365C486.109 339.223 485.9 339.082 485.684 338.957L336.417 242.565C334.775 241.307 332.725 240.59 330.425 240.465C328.25 235.915 328.725 230.34 332.042 226.198C332.409 225.798 333.209 224.898 333.209 224.898C346.417 210.065 353.375 193.123 351.842 175.707C347.65 127.957 281.3 94.7649 203.65 101.582C126 108.398 66.4503 152.64 70.642 200.39C74.8336 248.14 141.184 281.332 218.834 274.515C236.6 272.957 253.417 269.432 268.742 264.357H268.734C268.784 264.348 268.834 264.332 268.884 264.315C269.559 264.09 270.242 263.865 270.909 263.632C280.025 260.832 289.917 261.707 298.434 266.157L305.584 269.89C306.159 273.057 307.7 275.44 309.875 276.948L309.859 276.965L310.375 277.298C310.375 277.298 310.384 277.298 310.392 277.307L460.492 374.273V374.257C464.075 376.548 469.267 376.548 474.842 373.715C484.542 368.79 491.709 357.182 490.859 347.798V347.823ZM215.992 253.54C153.634 259.015 100.434 233.198 97.1586 195.882C93.8836 158.565 141.775 123.873 204.134 118.398C266.492 112.923 319.692 138.74 322.967 176.057C326.242 213.373 278.35 248.065 215.992 253.54Z" fill="black"/>
</g>
<path d="M246.5 239.973C437.292 177.865 286.6 79.8899 285.134 82.2815C279.2 91.9399 271 100.065 261.192 105.915L84.3003 211.482C84.3003 211.482 152.8 270.473 246.5 239.973Z" stroke="black" stroke-width="0.833333" stroke-miterlimit="10"/>
<path d="M113.817 159.14C113.817 159.14 136.3 141.148 170.667 143.798C205.033 146.448 297.233 175.248 299.442 185.131C301.642 195.006 292.25 200.965 292.25 200.965C292.25 200.965 333.025 165.39 335.233 153.806C337.442 142.223 330.233 158.34 305.325 155.131C280.417 151.923 173.483 120.915 168.733 106.148C163.992 91.3732 113.817 159.148 113.817 159.148V159.14Z" fill="white"/>
</g>
<path d="M229.561 225.485C286.439 220.489 330.124 188.843 327.134 154.801C324.144 120.76 275.611 97.2138 218.733 102.21C161.855 107.206 118.17 138.853 121.16 172.894C124.151 206.936 172.683 230.482 229.561 225.485Z" stroke="black" stroke-width="0.833333" stroke-miterlimit="10"/>
</g>
<path d="M228.459 212.351C286.589 207.245 331.235 174.904 328.179 140.115C325.123 105.326 275.522 81.2636 217.393 86.3697C159.263 91.4759 114.617 123.817 117.673 158.606C120.729 193.395 170.329 217.457 228.459 212.351Z" stroke="black" stroke-width="0.833333" stroke-miterlimit="10"/>
<path d="M306.134 221.565L309.467 248.232L337.225 231.765L333.892 205.098L306.134 221.565Z" fill="#566578"/>
<mask id="mask8_69562_923" style="mask-type:luminance" maskUnits="userSpaceOnUse" x="306" y="205" width="32" height="44">
<path d="M306.134 221.565L309.467 248.232L337.225 231.765L333.892 205.098L306.134 221.565Z" fill="white"/>
</mask>
<g mask="url(#mask8_69562_923)">
<path d="M310.825 232.332V247.448L334.992 233.09L310.825 232.332Z" fill="black" stroke="black" stroke-width="0.833333" stroke-linecap="round" stroke-linejoin="round"/>
</g>
<path d="M306.134 221.565L309.467 248.232L337.225 231.765L333.892 205.098L306.134 221.565Z" stroke="black" stroke-width="0.833333" stroke-linecap="round" stroke-linejoin="round"/>
<path d="M336.017 214.157L325.45 214.848V214.865C323.992 214.957 322.425 215.382 320.8 216.207C314.767 219.273 310.3 226.498 310.833 232.34C310.917 233.265 311.183 234.065 311.433 234.823C311.592 235.29 313.858 242.532 313.858 242.532L336.017 214.165V214.157Z" fill="#CEC4A1"/>
<mask id="mask9_69562_923" style="mask-type:luminance" maskUnits="userSpaceOnUse" x="310" y="214" width="27" height="29">
<path d="M336.017 214.157L325.45 214.848V214.865C323.992 214.957 322.425 215.382 320.8 216.207C314.767 219.273 310.3 226.498 310.833 232.34C310.917 233.265 311.183 234.065 311.433 234.823C311.592 235.29 313.858 242.532 313.858 242.532L336.017 214.165V214.157Z" fill="white"/>
</mask>
<g mask="url(#mask9_69562_923)">
<path d="M313.767 222.573L313.559 224.223C313.467 224.932 313.742 225.64 314.284 226.107L316.875 228.332L313.317 244.148C313.317 244.148 308.484 238.265 308.875 231.44C309.267 224.615 313.767 222.573 313.767 222.573Z" fill="#8D6E5B"/>
</g>
<path d="M336.017 214.157L325.45 214.848V214.865C323.992 214.957 322.425 215.382 320.8 216.207C314.767 219.273 310.3 226.498 310.833 232.34C310.917 233.265 311.183 234.065 311.433 234.823C311.592 235.29 313.858 242.532 313.858 242.532L336.017 214.165V214.157Z" stroke="black" stroke-width="0.833333" stroke-miterlimit="10"/>
<path d="M345.65 223.59C346.433 232.207 339.85 242.873 330.941 247.398C322.033 251.923 314.175 248.607 313.391 239.99C312.608 231.373 319.191 220.707 328.1 216.182C337.008 211.657 344.866 214.973 345.65 223.59Z" fill="#CEC4A1"/>
<mask id="mask10_69562_923" style="mask-type:luminance" maskUnits="userSpaceOnUse" x="313" y="214" width="33" height="36">
<path d="M345.65 223.59C346.433 232.207 339.85 242.873 330.941 247.398C322.033 251.923 314.175 248.607 313.391 239.99C312.608 231.373 319.191 220.707 328.1 216.182C337.008 211.657 344.866 214.973 345.65 223.59Z" fill="white"/>
</mask>
<g mask="url(#mask10_69562_923)">
<path d="M316.216 228.082C316.216 228.082 315.233 231.248 318.566 231.232C321.899 231.215 324.341 250.257 324.341 250.257L313.658 250.373L310.783 241.923C310.783 241.923 312.066 229.598 316.216 228.082Z" fill="#8D6E5B"/>
</g>
<path d="M345.65 223.59C346.433 232.207 339.85 242.873 330.941 247.398C322.033 251.923 314.175 248.607 313.391 239.99C312.608 231.373 319.191 220.707 328.1 216.182C337.008 211.657 344.866 214.973 345.65 223.59Z" stroke="black" stroke-width="0.833333" stroke-miterlimit="10"/>
<path d="M470.784 306.557C470.492 303.34 469.1 300.957 467.009 299.532C466.834 299.415 466.667 299.298 466.484 299.19L342.442 219.082C339.467 216.798 334.9 216.64 329.967 219.14C321.909 223.24 315.95 232.882 316.659 240.682C316.95 243.873 318.325 246.24 320.384 247.673V247.69L320.8 247.965C320.8 247.965 320.809 247.965 320.817 247.973L445.559 328.557C448.525 330.448 452.842 330.448 457.475 328.09C465.534 323.998 471.492 314.348 470.784 306.548V306.557Z" fill="#FF5200"/>
<mask id="mask11_69562_923" style="mask-type:luminance" maskUnits="userSpaceOnUse" x="316" y="217" width="155" height="113">
<path d="M470.784 306.557C470.492 303.34 469.1 300.957 467.009 299.532C466.834 299.415 466.667 299.298 466.484 299.19L342.442 219.082C339.467 216.798 334.9 216.64 329.967 219.14C321.909 223.24 315.95 232.882 316.659 240.682C316.95 243.873 318.325 246.24 320.384 247.673V247.69L320.8 247.965C320.8 247.965 320.809 247.965 320.817 247.973L445.559 328.557C448.525 330.448 452.842 330.448 457.475 328.09C465.534 323.998 471.492 314.348 470.784 306.548V306.557Z" fill="white"/>
</mask>
<g mask="url(#mask11_69562_923)">
<path d="M317.876 232.882C317.876 232.882 317.226 237.256 323.409 241.49C328.726 245.131 409.051 296.115 431.442 310.315C434.384 312.181 438.292 311.356 440.192 308.423C444.076 302.423 453.109 292.848 464.492 295.756C481.726 300.165 440.617 332.623 440.617 332.623L310.792 247.448L317.884 232.882H317.876Z" fill="#963000"/>
</g>
<path d="M470.784 306.557C470.492 303.34 469.1 300.957 467.009 299.532C466.834 299.415 466.667 299.298 466.484 299.19L342.442 219.082C339.467 216.798 334.9 216.64 329.967 219.14C321.909 223.24 315.95 232.882 316.659 240.682C316.95 243.873 318.325 246.24 320.384 247.673V247.69L320.8 247.965C320.8 247.965 320.809 247.965 320.817 247.973L445.559 328.557C448.525 330.448 452.842 330.448 457.475 328.09C465.534 323.998 471.492 314.348 470.784 306.548V306.557Z" stroke="black" stroke-width="0.833333" stroke-miterlimit="10"/>
<path d="M470.05 306.082C470.809 314.373 464.467 324.632 455.9 328.982C447.325 333.34 439.767 330.148 439.009 321.848C438.25 313.548 444.592 303.298 453.159 298.948C461.734 294.59 469.292 297.782 470.05 306.082Z" fill="#CEC4A1"/>
<mask id="mask12_69562_923" style="mask-type:luminance" maskUnits="userSpaceOnUse" x="438" y="296" width="33" height="35">
<path d="M470.05 306.082C470.809 314.373 464.467 324.632 455.9 328.982C447.325 333.34 439.767 330.148 439.009 321.848C438.25 313.548 444.592 303.298 453.159 298.948C461.734 294.59 469.292 297.782 470.05 306.082Z" fill="white"/>
</mask>
<g mask="url(#mask12_69562_923)">
<path d="M442.409 309.215L442.192 311.307C442.15 311.723 442.35 312.14 442.7 312.365L443.459 312.848C443.85 313.098 444.358 313.082 444.733 312.798L447.183 310.948L442.808 335.457L437.275 329.932C437.275 329.932 437.25 316.573 442.4 309.223L442.409 309.215Z" fill="#8D6E5B"/>
</g>
<path d="M470.05 306.082C470.809 314.373 464.467 324.632 455.9 328.982C447.325 333.34 439.767 330.148 439.009 321.848C438.25 313.548 444.592 303.298 453.159 298.948C461.734 294.59 469.292 297.782 470.05 306.082Z" stroke="black" stroke-width="0.833333" stroke-miterlimit="10"/>
<path d="M476.742 309.307C477.583 318.54 470.533 329.948 460.992 334.798C451.45 339.648 443.042 336.09 442.2 326.865C441.358 317.632 448.408 306.223 457.95 301.373C467.492 296.523 475.9 300.082 476.742 309.307Z" fill="#8D6E5B"/>
<mask id="mask13_69562_923" style="mask-type:luminance" maskUnits="userSpaceOnUse" x="442" y="299" width="35" height="38">
<path d="M476.742 309.307C477.583 318.54 470.533 329.948 460.992 334.798C451.45 339.648 443.042 336.09 442.2 326.865C441.358 317.632 448.408 306.223 457.95 301.373C467.492 296.523 475.9 300.082 476.742 309.307Z" fill="white"/>
</mask>
<g mask="url(#mask13_69562_923)">
<path d="M478.758 308.14C479.5 316.307 473.266 326.398 464.825 330.682C456.391 334.965 448.95 331.823 448.2 323.665C447.458 315.498 453.691 305.407 462.133 301.123C470.566 296.84 478.008 299.982 478.758 308.14Z" fill="#CEC4A1"/>
</g>
<path d="M476.742 309.307C477.583 318.54 470.533 329.948 460.992 334.798C451.45 339.648 443.042 336.09 442.2 326.865C441.358 317.632 448.408 306.223 457.95 301.373C467.492 296.523 475.9 300.082 476.742 309.307Z" stroke="black" stroke-width="0.833333" stroke-miterlimit="10"/>
<path d="M477.2 314.54C477.867 321.865 472.267 330.932 464.692 334.782C457.117 338.632 450.433 335.807 449.767 328.482C449.1 321.157 454.7 312.09 462.275 308.24C469.85 304.39 476.533 307.215 477.2 314.54Z" fill="#8D6E5B"/>
<mask id="mask14_69562_923" style="mask-type:luminance" maskUnits="userSpaceOnUse" x="449" y="306" width="29" height="31">
<path d="M477.2 314.54C477.867 321.865 472.267 330.932 464.692 334.782C457.117 338.632 450.433 335.807 449.767 328.482C449.1 321.157 454.7 312.09 462.275 308.24C469.85 304.39 476.533 307.215 477.2 314.54Z" fill="white"/>
</mask>
<g mask="url(#mask14_69562_923)">
<path d="M479.742 313.598C480.4 320.848 475.167 329.79 468.05 333.565C460.933 337.34 454.633 334.523 453.975 327.265C453.317 320.015 458.55 311.073 465.667 307.298C472.783 303.523 479.083 306.34 479.742 313.598Z" fill="#CEC4A1"/>
</g>
<path d="M477.2 314.54C477.867 321.865 472.267 330.932 464.692 334.782C457.117 338.632 450.433 335.807 449.767 328.482C449.1 321.157 454.7 312.09 462.275 308.24C469.85 304.39 476.533 307.215 477.2 314.54Z" stroke="black" stroke-width="0.833333" stroke-miterlimit="10"/>
<path d="M237.667 175.607L235.475 174.382C230.45 171.573 226.775 169.148 224.434 167.107C222.092 165.065 220.642 163.165 220.092 161.407C219.542 159.657 219.45 157.832 219.817 155.932C220.117 154.282 220.3 152.765 220.359 151.365C220.417 149.965 220.142 148.682 219.534 147.498C218.925 146.323 217.767 145.257 216.059 144.307C214.534 143.457 212.9 142.882 211.15 142.59C209.4 142.29 207.7 142.265 206.05 142.507C204.4 142.748 202.959 143.232 201.725 143.957C200.392 144.74 199.542 145.682 199.184 146.765C198.817 147.857 198.967 148.973 199.634 150.123C200.292 151.273 201.509 152.34 203.275 153.323L184.317 164.507C177.667 160.74 173.467 156.973 171.7 153.207C169.934 149.44 170.067 145.832 172.1 142.373C174.134 138.915 177.55 135.773 182.334 132.948C187.617 129.832 193.284 127.582 199.334 126.198C205.384 124.815 211.517 124.482 217.725 125.207C223.942 125.932 229.909 127.89 235.634 131.082C239.317 133.14 242.034 135.248 243.8 137.407C245.567 139.565 246.592 141.773 246.892 144.023C247.192 146.273 247 148.598 246.317 150.998C245.817 152.765 245.642 154.382 245.784 155.848C245.925 157.315 246.55 158.715 247.659 160.04C248.759 161.365 250.534 162.707 252.967 164.065L255.159 165.29L237.684 175.598L237.667 175.607ZM277.384 187.415C274.517 189.107 270.834 189.857 266.317 189.673C261.8 189.49 257.775 188.398 254.234 186.39C250.742 184.465 248.775 182.215 248.35 179.64C247.925 177.065 249.142 174.923 252 173.24C254.717 171.64 258.35 170.907 262.9 171.057C267.45 171.207 271.475 172.24 274.967 174.165C277.317 175.507 278.967 177.007 279.925 178.657C280.884 180.315 281.159 181.915 280.742 183.473C280.325 185.032 279.209 186.348 277.384 187.423V187.415Z" fill="black"/>
</g>
</g>
<defs>
<clipPath id="clip0_69562_923">
<rect width="500" height="500" fill="white"/>
</clipPath>
</defs>
</svg>
