<svg width="500" height="500" viewBox="0 0 500 500" fill="none" xmlns="http://www.w3.org/2000/svg">
<g>
<path d="M478.3 268.608L297.275 162.475C295.333 161.333 292.933 161.325 290.983 162.45L159.467 238.375C158.883 238.717 158.875 239.558 159.467 239.9L316.6 332.033L310.675 336.333L154.658 244.858C152.717 243.717 150.317 243.708 148.367 244.833L20.4666 318.675C18.2583 319.95 18.25 323.125 20.45 324.417L201.708 430.692C203.608 431.808 205.958 431.817 207.867 430.708L337.017 356.142C338.692 355.175 338.7 352.767 337.033 351.792L328.792 346.958C327.708 346.192 327.783 344.525 328.992 343.892C331.567 342.542 334.667 342.617 337.175 344.092L337.367 344.2L342.6 347.292V347.275L344.133 348.167C346.158 349.35 348.658 349.358 350.692 348.192L478.283 274.533C480.567 273.217 480.575 269.925 478.3 268.6V268.608Z" fill="black"/>
<path d="M342.875 314.642L342.8 318.017C342.8 318.625 342.492 319.233 341.892 319.583L204.742 398.758C203.625 399.408 202.242 399.4 201.125 398.75L7.89165 285.442C7.14998 285.008 6.69165 284.208 6.69165 283.342V280.9" fill="#963000"/>
<path d="M342.875 314.642L342.8 318.017C342.8 318.625 342.492 319.233 341.892 319.583L204.742 398.758C203.625 399.408 202.242 399.4 201.125 398.75L7.89165 285.442C7.14998 285.008 6.69165 284.208 6.69165 283.342V280.9" stroke="black" stroke-width="0.833333" stroke-miterlimit="10"/>
<path d="M491.45 228.808L491.375 232.183C491.375 232.792 491.067 233.4 490.467 233.75L353.317 312.925C352.2 313.575 350.817 313.567 349.7 312.917L156.459 199.617C155.717 199.183 155.259 198.383 155.259 197.517V195.075" fill="#963000"/>
<path d="M491.45 228.808L491.375 232.183C491.375 232.792 491.067 233.4 490.467 233.75L353.317 312.925C352.2 313.575 350.817 313.567 349.7 312.917L156.459 199.617C155.717 199.183 155.259 198.383 155.259 197.517V195.075" stroke="black" stroke-width="0.833333" stroke-miterlimit="10"/>
<path d="M490.475 230.433L353.183 309.692C352.15 310.283 350.883 310.283 349.85 309.683L155.717 195.858C155.108 195.5 155.108 194.625 155.717 194.275L292.725 115.175C294.758 114 297.258 114.008 299.275 115.2L490.466 227.3C491.667 228 491.658 229.742 490.458 230.442L490.475 230.433Z" fill="#FF5200" stroke="black" stroke-width="0.833333" stroke-miterlimit="10"/>
<path d="M341.892 316.267L204.6 395.525C203.567 396.117 202.3 396.117 201.267 395.517L7.14155 281.692C6.53322 281.333 6.53322 280.458 7.14155 280.108L144.15 201.008C146.183 199.833 148.683 199.842 150.7 201.033L341.892 313.133C343.092 313.833 343.083 315.575 341.883 316.275L341.892 316.267Z" fill="#FF5200" stroke="black" stroke-width="0.833333" stroke-miterlimit="10"/>
<path d="M336.767 300.25L336.7 311.617C336.7 312.208 336.409 312.792 335.825 313.133L202.334 390.2C201.817 390.5 201.184 390.5 200.667 390.2L10.9004 278.942V267.683" fill="#566578"/>
<mask id="mask0_69562_488" style="mask-type:luminance" maskUnits="userSpaceOnUse" x="10" y="267" width="327" height="124">
<path d="M336.767 300.25L336.7 311.617C336.7 312.208 336.409 312.792 335.825 313.133L202.334 390.2C201.817 390.5 201.184 390.5 200.667 390.2L10.9004 278.942V267.683" fill="white"/>
</mask>
<g mask="url(#mask0_69562_488)">
<path d="M201.608 379.075V390.425L336.691 312.692L336.766 301.192L201.608 379.075Z" fill="#C7C7C7"/>
</g>
<path d="M336.767 300.25L336.7 311.617C336.7 312.208 336.409 312.792 335.825 313.133L202.334 390.2C201.817 390.5 201.184 390.5 200.667 390.2L10.9004 278.942V267.683" stroke="black" stroke-width="0.833333" stroke-miterlimit="10"/>
<path d="M335.817 301.875L202.608 378.775C201.917 379.175 201.058 379.175 200.367 378.775L10.9417 267.708C10.9417 267.708 10.9251 267.675 10.9417 267.658L144.667 190.458C146.625 189.325 149.05 189.333 151 190.483L335.825 298.85C336.983 299.533 336.983 301.208 335.817 301.883V301.875Z" fill="#F3F3F3" stroke="black" stroke-width="0.833333" stroke-miterlimit="10"/>
<path d="M478.475 206.425L485 210.25V226.917L349.742 305.008C348.7 305.608 347.425 305.6 346.392 305L159.442 195.383C158.967 195.108 158.75 194.617 158.792 194.133L158.808 177.425" fill="#566578"/>
<mask id="mask1_69562_488" style="mask-type:luminance" maskUnits="userSpaceOnUse" x="158" y="177" width="327" height="129">
<path d="M478.475 206.425L485 210.25V226.917L349.742 305.008C348.7 305.608 347.425 305.6 346.392 305L159.442 195.383C158.967 195.108 158.75 194.617 158.792 194.133L158.808 177.425" fill="white"/>
</mask>
<g mask="url(#mask1_69562_488)">
<path d="M485 210.25L348.075 288.992V306.25L485 226.917V210.25Z" fill="#C7C7C7"/>
<path d="M478.475 206.425L454.167 228.05L485 210.25L478.475 206.425Z" fill="black"/>
</g>
<path d="M478.475 206.425L485 210.25V226.917L349.742 305.008C348.7 305.608 347.425 305.6 346.392 305L159.442 195.383C158.967 195.108 158.75 194.617 158.792 194.133L158.808 177.425" stroke="black" stroke-width="0.833333" stroke-miterlimit="10"/>
<path d="M485 210.25L349.742 288.342C348.7 288.942 347.425 288.933 346.392 288.333" stroke="black" stroke-width="0.833333" stroke-miterlimit="10"/>
<path d="M60.3831 305.45L17.7498 280.45" stroke="black" stroke-width="0.833333" stroke-miterlimit="10"/>
<path d="M226.858 373.533L202.325 387.7C201.808 388 201.175 388 200.658 387.7L193.058 383.242" stroke="black" stroke-width="0.833333" stroke-miterlimit="10"/>
<path d="M336.692 309.117C336.692 309.708 336.4 310.292 335.817 310.633L267.6 350.017" stroke="black" stroke-width="0.833333" stroke-miterlimit="10"/>
<path d="M323.325 315.342L255.333 354.6" stroke="black" stroke-width="0.833333" stroke-miterlimit="10"/>
<path d="M102.883 324.533L44.3335 290.208" stroke="black" stroke-width="0.833333" stroke-miterlimit="10"/>
<path d="M241.167 359.442L202.325 381.867C201.808 382.167 201.175 382.167 200.658 381.867L182.35 371.133" stroke="black" stroke-width="0.833333" stroke-miterlimit="10"/>
<path d="M336.692 303.283C336.692 303.875 336.4 304.458 335.817 304.8L275.033 339.892" stroke="black" stroke-width="0.833333" stroke-miterlimit="10"/>
<path d="M394.625 276.592L349.741 302.5C348.7 303.1 347.425 303.092 346.391 302.492L283.858 265.825" stroke="black" stroke-width="0.833333" stroke-miterlimit="10"/>
<path d="M318.517 283.442L228.108 230.433" stroke="black" stroke-width="0.833333" stroke-miterlimit="10"/>
<path d="M349.742 299.8C348.7 300.4 347.425 300.392 346.392 299.792L336.7 294.108" stroke="black" stroke-width="0.833333" stroke-miterlimit="10"/>
<path d="M457.7 237.475L370.867 287.6" stroke="black" stroke-width="0.833333" stroke-miterlimit="10"/>
<path d="M377.783 280.9L349.741 297.092" stroke="black" stroke-width="0.833333" stroke-miterlimit="10"/>
<path d="M477.875 223.117L421.008 255.942" stroke="black" stroke-width="0.833333" stroke-miterlimit="10"/>
<path d="M235.283 229.225L199.358 208.158" stroke="black" stroke-width="0.833333" stroke-miterlimit="10"/>
<path d="M390.075 271.092L349.742 294.375C348.7 294.975 347.425 294.967 346.392 294.367" stroke="black" stroke-width="0.833333" stroke-miterlimit="10"/>
<path d="M422.758 249.517L349.742 291.675C348.7 292.275 347.425 292.267 346.392 291.667L266.35 244.733" stroke="black" stroke-width="0.833333" stroke-miterlimit="10"/>
<path d="M481.667 203.583L454.167 228.05L349.742 288.342C348.7 288.942 347.425 288.933 346.392 288.333L159.442 178.717C158.567 178.2 158.567 176.933 159.442 176.425L294.408 98.5084L469.9 201.4L481.658 203.583H481.667Z" fill="#F3F3F3" stroke="black" stroke-width="0.833333" stroke-miterlimit="10"/>
<path d="M303.617 305.808L140.217 210L38.9751 268.45L202.375 364.25L303.617 305.808Z" fill="white"/>
<mask id="mask2_69562_488" style="mask-type:luminance" maskUnits="userSpaceOnUse" x="38" y="210" width="266" height="155">
<path d="M303.617 305.808L140.217 210L38.9751 268.45L202.375 364.25L303.617 305.808Z" fill="white"/>
</mask>
<g mask="url(#mask2_69562_488)">
<path d="M46.5918 272.891L147.825 214.45L140.217 209.983L38.9751 268.425L46.5918 272.891Z" fill="#FF5200"/>
</g>
<path d="M303.617 305.808L140.217 210L38.9751 268.45L202.375 364.25L303.617 305.808Z" stroke="black" stroke-width="0.416667" stroke-miterlimit="10"/>
<path d="M147.825 214.475L46.3999 273.025" stroke="black" stroke-width="0.416667" stroke-miterlimit="10"/>
<path d="M64.592 253.85L227.992 349.658" stroke="black" stroke-width="0.416667" stroke-miterlimit="10"/>
<path d="M90.4253 238.833L253.825 334.633" stroke="black" stroke-width="0.416667" stroke-miterlimit="10"/>
<path d="M116.267 223.808L279.667 319.608" stroke="black" stroke-width="0.416667" stroke-miterlimit="10"/>
<path d="M187.008 236.842L85.5835 295.4" stroke="black" stroke-width="0.416667" stroke-miterlimit="10"/>
<path d="M226.367 260.125L124.933 318.683" stroke="black" stroke-width="0.416667" stroke-miterlimit="10"/>
<path d="M265.717 283.408L164.292 341.967" stroke="black" stroke-width="0.416667" stroke-miterlimit="10"/>
<path d="M115.684 308.133C115.684 308.133 113.842 305.383 113.609 304.15C113.475 303.467 114.134 303.925 114.742 304.467C115.292 304.95 116.125 304.925 116.642 304.408C118.025 303.025 120.742 300.45 123.609 298.567C127.725 295.858 139.017 289.45 142.317 285.008" stroke="#FF5200" stroke-width="0.833333" stroke-miterlimit="10"/>
<path d="M155.268 329.05C155.268 329.05 173.726 316.417 179.493 312.683" stroke="#FF5200" stroke-width="0.833333" stroke-miterlimit="10"/>
<path d="M189.959 334.633C189.959 334.633 182.142 333.783 182.342 345.542C182.542 357.308 195.992 354 199.017 350.483C201.176 347.975 203.367 341.392 196.667 338.017C189.959 334.633 182.351 340.067 185.492 344.725" stroke="#FF5200" stroke-width="0.833333" stroke-miterlimit="10"/>
<path d="M185.525 346.567C185.642 347.033 186.583 348.292 187.325 347.117C188.067 345.942 187.875 344.608 189.833 343.317C191.792 342.025 193.758 340.075 193.758 340.075" stroke="#FF5200" stroke-width="0.833333" stroke-miterlimit="10"/>
<path d="M190.434 349.192C190.434 349.192 193.301 344.908 195.451 343.833" stroke="#FF5200" stroke-width="0.833333" stroke-miterlimit="10"/>
<path d="M88.0258 280.042C87.1425 281.542 76.2508 283.683 76.0842 271.017C75.9342 260.125 85.5925 261.9 88.0258 263.858C90.4592 265.817 101.317 280.242 91.0842 287.133C80.4925 294.258 68.7925 281.55 70.0258 270.208C71.1175 260.158 78.8508 255.942 85.9092 261.133C92.9675 266.325 100.792 281.9 92.9675 288.175C82.5842 296.5 74.1425 285.975 74.1425 285.975" stroke="#FF5200" stroke-width="0.833333" stroke-miterlimit="10"/>
<path d="M79.3589 274.742C79.3589 274.742 80.7672 276.392 81.5922 276.508C82.4172 276.625 81.9672 274.275 82.2172 273.858C82.4672 273.442 84.0006 274.208 84.1172 273.858C84.2339 273.508 83.6506 271.45 84.5256 271.45C85.4006 271.45 87.2339 272.45 88.2339 270.567" stroke="#FF5200" stroke-width="0.833333" stroke-miterlimit="10"/>
<path d="M52.8418 243.475L232.567 348.917C239.242 352.833 247.508 352.858 254.208 348.992L333.284 303.292L135.225 195.908L52.8335 243.475H52.8418Z" fill="black" stroke="black" stroke-width="0.833333" stroke-miterlimit="10"/>
<path d="M335.967 298.925L151.233 190.608C149.217 189.425 146.65 189.15 144.625 190.317C139.475 193.3 134.55 195.758 129.842 197.758L226.483 254.425C226.483 254.425 244.633 354.592 335.892 301.758C336.992 301.125 337.058 299.567 335.958 298.925H335.967Z" fill="#F3F3F3" stroke="black" stroke-width="0.833333" stroke-miterlimit="10"/>
<path d="M194.9 193.417C197.822 193.417 200.191 191.995 200.191 190.242C200.191 188.488 197.822 187.067 194.9 187.067C191.977 187.067 189.608 188.488 189.608 190.242C189.608 191.995 191.977 193.417 194.9 193.417Z" fill="#566578" stroke="black" stroke-width="0.833333" stroke-miterlimit="10"/>
<path d="M213.608 204.358C216.531 204.358 218.9 202.937 218.9 201.183C218.9 199.43 216.531 198.008 213.608 198.008C210.686 198.008 208.316 199.43 208.316 201.183C208.316 202.937 210.686 204.358 213.608 204.358Z" fill="#566578" stroke="black" stroke-width="0.833333" stroke-miterlimit="10"/>
<path d="M232.317 215.292C235.239 215.292 237.608 213.87 237.608 212.117C237.608 210.363 235.239 208.942 232.317 208.942C229.394 208.942 227.025 210.363 227.025 212.117C227.025 213.87 229.394 215.292 232.317 215.292Z" fill="#566578" stroke="black" stroke-width="0.833333" stroke-miterlimit="10"/>
<path d="M251.016 226.225C253.939 226.225 256.308 224.804 256.308 223.05C256.308 221.296 253.939 219.875 251.016 219.875C248.094 219.875 245.725 221.296 245.725 223.05C245.725 224.804 248.094 226.225 251.016 226.225Z" fill="#566578" stroke="black" stroke-width="0.833333" stroke-miterlimit="10"/>
<path d="M269.725 237.158C272.647 237.158 275.016 235.737 275.016 233.983C275.016 232.23 272.647 230.808 269.725 230.808C266.802 230.808 264.433 232.23 264.433 233.983C264.433 235.737 266.802 237.158 269.725 237.158Z" fill="#566578" stroke="black" stroke-width="0.833333" stroke-miterlimit="10"/>
<path d="M288.433 248.092C291.355 248.092 293.724 246.67 293.724 244.917C293.724 243.163 291.355 241.742 288.433 241.742C285.51 241.742 283.141 243.163 283.141 244.917C283.141 246.67 285.51 248.092 288.433 248.092Z" fill="#566578" stroke="black" stroke-width="0.833333" stroke-miterlimit="10"/>
<path d="M307.141 259.025C310.064 259.025 312.433 257.603 312.433 255.85C312.433 254.096 310.064 252.675 307.141 252.675C304.219 252.675 301.85 254.096 301.85 255.85C301.85 257.603 304.219 259.025 307.141 259.025Z" fill="#566578" stroke="black" stroke-width="0.833333" stroke-miterlimit="10"/>
<path d="M325.849 269.958C328.772 269.958 331.141 268.537 331.141 266.783C331.141 265.03 328.772 263.608 325.849 263.608C322.927 263.608 320.558 265.03 320.558 266.783C320.558 268.537 322.927 269.958 325.849 269.958Z" fill="#566578" stroke="black" stroke-width="0.833333" stroke-miterlimit="10"/>
<path d="M176.192 182.483C179.114 182.483 181.483 181.062 181.483 179.308C181.483 177.555 179.114 176.133 176.192 176.133C173.269 176.133 170.9 177.555 170.9 179.308C170.9 181.062 173.269 182.483 176.192 182.483Z" fill="#566578" stroke="black" stroke-width="0.833333" stroke-miterlimit="10"/>
<path d="M344.549 280.9C347.472 280.9 349.841 279.478 349.841 277.725C349.841 275.971 347.472 274.55 344.549 274.55C341.627 274.55 339.258 275.971 339.258 277.725C339.258 279.478 341.627 280.9 344.549 280.9Z" fill="#566578" stroke="black" stroke-width="0.833333" stroke-miterlimit="10"/>
<path d="M169.808 214.425C172.731 214.425 175.1 213.004 175.1 211.25C175.1 209.497 172.731 208.075 169.808 208.075C166.886 208.075 164.517 209.497 164.517 211.25C164.517 213.004 166.886 214.425 169.808 214.425Z" fill="#566578" stroke="black" stroke-width="0.833333" stroke-miterlimit="10"/>
<path d="M188.516 225.358C191.439 225.358 193.808 223.937 193.808 222.183C193.808 220.43 191.439 219.008 188.516 219.008C185.594 219.008 183.225 220.43 183.225 222.183C183.225 223.937 185.594 225.358 188.516 225.358Z" fill="#566578" stroke="black" stroke-width="0.833333" stroke-miterlimit="10"/>
<path d="M207.225 236.292C210.147 236.292 212.516 234.87 212.516 233.117C212.516 231.363 210.147 229.942 207.225 229.942C204.302 229.942 201.933 231.363 201.933 233.117C201.933 234.87 204.302 236.292 207.225 236.292Z" fill="#566578" stroke="black" stroke-width="0.833333" stroke-miterlimit="10"/>
<path d="M225.933 247.225C228.855 247.225 231.224 245.804 231.224 244.05C231.224 242.296 228.855 240.875 225.933 240.875C223.01 240.875 220.641 242.296 220.641 244.05C220.641 245.804 223.01 247.225 225.933 247.225Z" fill="#566578" stroke="black" stroke-width="0.833333" stroke-miterlimit="10"/>
<path d="M244.633 258.158C247.556 258.158 249.925 256.737 249.925 254.983C249.925 253.23 247.556 251.808 244.633 251.808C241.711 251.808 239.342 253.23 239.342 254.983C239.342 256.737 241.711 258.158 244.633 258.158Z" fill="#566578" stroke="black" stroke-width="0.833333" stroke-miterlimit="10"/>
<path d="M263.341 269.092C266.264 269.092 268.633 267.67 268.633 265.917C268.633 264.163 266.264 262.742 263.341 262.742C260.419 262.742 258.05 264.163 258.05 265.917C258.05 267.67 260.419 269.092 263.341 269.092Z" fill="#566578" stroke="black" stroke-width="0.833333" stroke-miterlimit="10"/>
<path d="M282.05 280.025C284.972 280.025 287.342 278.604 287.342 276.85C287.342 275.097 284.972 273.675 282.05 273.675C279.127 273.675 276.758 275.097 276.758 276.85C276.758 278.604 279.127 280.025 282.05 280.025Z" fill="#566578" stroke="black" stroke-width="0.833333" stroke-miterlimit="10"/>
<path d="M300.758 290.967C303.68 290.967 306.05 289.545 306.05 287.792C306.05 286.038 303.68 284.617 300.758 284.617C297.835 284.617 295.466 286.038 295.466 287.792C295.466 289.545 297.835 290.967 300.758 290.967Z" fill="#566578" stroke="black" stroke-width="0.833333" stroke-miterlimit="10"/>
<path d="M151.1 203.483C154.022 203.483 156.391 202.062 156.391 200.308C156.391 198.555 154.022 197.133 151.1 197.133C148.177 197.133 145.808 198.555 145.808 200.308C145.808 202.062 148.177 203.483 151.1 203.483Z" fill="#566578" stroke="black" stroke-width="0.833333" stroke-miterlimit="10"/>
<path d="M319.458 301.9C322.381 301.9 324.75 300.479 324.75 298.725C324.75 296.972 322.381 295.55 319.458 295.55C316.536 295.55 314.167 296.972 314.167 298.725C314.167 300.479 316.536 301.9 319.458 301.9Z" fill="#566578" stroke="black" stroke-width="0.833333" stroke-miterlimit="10"/>
<path d="M152.858 203.308C152.816 202.608 152.791 201.9 152.791 201.183C152.791 188.525 159.75 178.225 168.308 178.225C171.633 178.225 174.716 179.783 177.241 182.433C178.966 182.225 180.391 181.508 181.066 180.558C177.625 176.517 173.175 174.067 168.308 174.067C157.45 174.067 148.625 186.233 148.625 201.192C148.625 201.85 148.65 202.5 148.683 203.15C149.408 203.375 150.233 203.5 151.1 203.5C151.716 203.5 152.308 203.433 152.858 203.317V203.308Z" fill="black"/>
<path d="M171.567 214.233C171.525 213.533 171.5 212.825 171.5 212.108C171.5 199.45 178.458 189.15 187.017 189.15C190.342 189.15 193.425 190.708 195.95 193.358C197.675 193.15 199.1 192.433 199.775 191.483C196.333 187.442 191.883 184.992 187.017 184.992C176.158 184.992 167.333 197.158 167.333 212.117C167.333 212.775 167.358 213.425 167.392 214.075C168.117 214.3 168.942 214.425 169.808 214.425C170.425 214.425 171.017 214.358 171.567 214.242V214.233Z" fill="black"/>
<path d="M190.267 225.158C190.225 224.458 190.2 223.75 190.2 223.033C190.2 210.375 197.158 200.075 205.717 200.075C209.042 200.075 212.125 201.633 214.65 204.283C216.375 204.075 217.8 203.358 218.475 202.408C215.033 198.367 210.583 195.917 205.717 195.917C194.858 195.917 186.033 208.083 186.033 223.042C186.033 223.7 186.058 224.35 186.092 225C186.817 225.225 187.642 225.35 188.508 225.35C189.125 225.35 189.717 225.283 190.267 225.167V225.158Z" fill="black"/>
<path d="M208.975 236.083C208.933 235.383 208.908 234.675 208.908 233.958C208.908 221.3 215.867 211 224.425 211C227.75 211 230.833 212.558 233.358 215.208C235.083 215 236.508 214.283 237.183 213.333C233.742 209.292 229.292 206.842 224.425 206.842C213.567 206.842 204.742 219.008 204.742 233.967C204.742 234.625 204.767 235.275 204.8 235.925C205.525 236.15 206.35 236.275 207.217 236.275C207.833 236.275 208.425 236.208 208.975 236.092V236.083Z" fill="black"/>
<path d="M227.675 247.008C227.633 246.308 227.608 245.6 227.608 244.883C227.608 232.225 234.566 221.925 243.125 221.925C246.45 221.925 249.533 223.483 252.058 226.133C253.783 225.925 255.208 225.208 255.883 224.258C252.441 220.217 247.991 217.767 243.125 217.767C232.266 217.767 223.441 229.933 223.441 244.892C223.441 245.55 223.466 246.2 223.5 246.85C224.225 247.075 225.05 247.2 225.916 247.2C226.533 247.2 227.125 247.133 227.675 247.017V247.008Z" fill="black"/>
<path d="M246.383 257.933C246.342 257.233 246.317 256.525 246.317 255.808C246.317 243.15 253.275 232.85 261.833 232.85C265.158 232.85 268.242 234.408 270.767 237.058C272.492 236.85 273.917 236.133 274.592 235.183C271.15 231.142 266.7 228.692 261.833 228.692C250.975 228.692 242.15 240.858 242.15 255.817C242.15 256.475 242.175 257.125 242.208 257.775C242.933 258 243.758 258.125 244.625 258.125C245.242 258.125 245.833 258.058 246.383 257.942V257.933Z" fill="black"/>
<path d="M265.083 268.858C265.041 268.158 265.016 267.45 265.016 266.733C265.016 254.075 271.975 243.775 280.533 243.775C283.858 243.775 286.941 245.333 289.466 247.983C291.191 247.775 292.616 247.058 293.291 246.108C289.85 242.067 285.4 239.617 280.533 239.617C269.675 239.617 260.85 251.783 260.85 266.742C260.85 267.4 260.875 268.05 260.908 268.7C261.633 268.925 262.458 269.05 263.325 269.05C263.941 269.05 264.533 268.983 265.083 268.867V268.858Z" fill="black"/>
<path d="M283.791 279.783C283.75 279.083 283.725 278.375 283.725 277.658C283.725 265 290.683 254.7 299.241 254.7C302.566 254.7 305.65 256.258 308.175 258.908C309.9 258.7 311.325 257.983 312 257.033C308.558 252.992 304.108 250.542 299.241 250.542C288.383 250.542 279.558 262.708 279.558 277.667C279.558 278.325 279.583 278.975 279.616 279.625C280.341 279.85 281.166 279.975 282.033 279.975C282.65 279.975 283.241 279.908 283.791 279.792V279.783Z" fill="black"/>
<path d="M302.491 290.717C302.45 290.017 302.425 289.308 302.425 288.592C302.425 275.933 309.383 265.633 317.941 265.633C321.266 265.633 324.35 267.192 326.875 269.842C328.6 269.633 330.025 268.917 330.7 267.967C327.258 263.925 322.808 261.475 317.941 261.475C307.083 261.475 298.258 273.642 298.258 288.6C298.258 289.258 298.283 289.908 298.316 290.558C299.041 290.783 299.866 290.908 300.733 290.908C301.35 290.908 301.941 290.842 302.491 290.725V290.717Z" fill="black"/>
<path d="M321.192 301.642C321.15 300.942 321.125 300.233 321.125 299.517C321.125 286.858 328.083 276.558 336.642 276.558C339.967 276.558 343.05 278.117 345.575 280.767C347.3 280.558 348.725 279.842 349.4 278.892C345.958 274.85 341.508 272.4 336.642 272.4C325.783 272.4 316.958 284.567 316.958 299.525C316.958 300.183 316.983 300.833 317.017 301.483C317.742 301.708 318.567 301.833 319.433 301.833C320.05 301.833 320.642 301.767 321.192 301.65V301.642Z" fill="black"/>
<path d="M303.617 305.808L140.217 210L248.858 299.583C248.858 299.583 276.533 322.208 303.617 305.808Z" fill="white" stroke="black" stroke-width="0.416667" stroke-miterlimit="10"/>
<path d="M210.692 277.317C210.692 277.317 238.367 299.942 265.45 283.542L210.692 277.317Z" fill="white"/>
<path d="M210.692 277.317C210.692 277.317 238.367 299.942 265.45 283.542" stroke="black" stroke-width="0.416667" stroke-miterlimit="10"/>
<path d="M262.525 310.783C233.808 294.833 226.483 254.433 226.483 254.433L35.9001 142.683C35.9001 142.683 44.8418 183.642 74.6918 199.033L262.533 310.783H262.525Z" fill="#566578" stroke="black" stroke-width="0.833333" stroke-miterlimit="10"/>
<path d="M459.475 208.408L296.075 112.608L194.842 171.05L358.242 266.858L459.475 208.408Z" fill="white"/>
<mask id="mask3_69562_488" style="mask-type:luminance" maskUnits="userSpaceOnUse" x="194" y="112" width="266" height="155">
<path d="M459.475 208.408L296.075 112.608L194.842 171.05L358.242 266.858L459.475 208.408Z" fill="white"/>
</mask>
<g mask="url(#mask3_69562_488)">
<path d="M202.45 175.517L303.683 117.075L296.075 112.608L194.842 171.05L202.45 175.517Z" fill="#FF5200"/>
</g>
<path d="M459.475 208.408L296.075 112.608L194.842 171.05L358.242 266.858L459.475 208.408Z" stroke="black" stroke-width="0.416667" stroke-miterlimit="10"/>
<path d="M303.683 117.075L202.542 175.467" stroke="black" stroke-width="0.416667" stroke-miterlimit="10"/>
<path d="M220.45 156.45L383.85 252.258" stroke="black" stroke-width="0.416667" stroke-miterlimit="10"/>
<path d="M246.283 141.433L409.683 237.233" stroke="black" stroke-width="0.416667" stroke-miterlimit="10"/>
<path d="M272.125 126.408L435.525 222.217" stroke="black" stroke-width="0.416667" stroke-miterlimit="10"/>
<path d="M342.358 139.742L241.125 198.192" stroke="black" stroke-width="0.416667" stroke-miterlimit="10"/>
<path d="M381.892 162.917L280.8 221.283" stroke="black" stroke-width="0.416667" stroke-miterlimit="10"/>
<path d="M421.425 186.1L320.15 244.567" stroke="black" stroke-width="0.416667" stroke-miterlimit="10"/>
<path d="M236.158 182.483C236.158 182.483 238.825 179.5 243.842 179.308" stroke="#FF5200" stroke-width="0.833333" stroke-miterlimit="10"/>
<path d="M250 182.483C250 182.483 249.183 169.7 261.867 168.283" stroke="#FF5200" stroke-width="0.833333" stroke-miterlimit="10"/>
<path d="M259.359 166.483C260.534 167.258 262.634 168.725 263.709 170.05C263.942 170.333 264.375 170.308 264.559 169.992L265.958 167.592L259.5 166.167C259.308 166.125 259.192 166.383 259.359 166.492V166.483Z" stroke="#FF5200" stroke-width="0.833333" stroke-miterlimit="10"/>
<path d="M293.125 142.183C293.125 142.183 287.467 139.892 281.05 144.65C274.633 149.408 275.167 158 283.342 159.883C291.517 161.767 302.8 148.692 299.633 142.108C296.458 135.525 286.7 144.467 286.7 144.467" stroke="#FF5200" stroke-width="0.833333" stroke-miterlimit="10"/>
<path d="M321.609 164.842C321.609 164.842 325.2 178.725 325.375 186.375" stroke="#FF5200" stroke-width="0.833333" stroke-miterlimit="10"/>
<path d="M318.017 172.608C318.017 172.608 333.9 180.2 335.25 178.9" stroke="#FF5200" stroke-width="0.833333" stroke-miterlimit="10"/>
<path d="M266.825 206.725C267.209 206.583 267.775 204.975 268.159 203.758C268.359 203.108 268.984 202.733 269.659 202.758C270 202.775 270.384 202.692 270.75 202.408C271.767 201.625 272.709 198.6 275.459 198.192" stroke="#FF5200" stroke-width="0.833333" stroke-miterlimit="10"/>
<path d="M277.492 207.667C277.492 207.667 279.259 206.175 279.667 205.075C280.075 203.975 281.567 202.017 282.2 203.275C282.834 204.533 282.984 200.308 284.717 200.383C286.45 200.458 286.9 199.858 286.9 199.858" stroke="#FF5200" stroke-width="0.833333" stroke-miterlimit="10"/>
<path d="M350.9 251.783C350.9 251.783 368.55 238.842 373.492 236.492" stroke="#FF5200" stroke-width="0.833333" stroke-miterlimit="10"/>
<path d="M364.975 202.167C364.975 202.167 363.134 199.417 362.9 198.183C362.767 197.5 363.425 197.958 364.034 198.5C364.584 198.983 365.417 198.958 365.934 198.442C367.317 197.058 370.034 194.483 372.9 192.6C377.017 189.892 388.309 183.483 391.609 179.042" stroke="#FF5200" stroke-width="0.833333" stroke-miterlimit="10"/>
<path d="M281.817 152.3C281.817 152.3 282.642 153.533 283.225 152.892C283.809 152.25 285.342 147.658 285.634 148.833C285.925 150.008 286.925 150.65 287.634 149.892C288.342 149.133 289.042 147.308 289.575 147.775C290.109 148.242 291.192 148.067 293.117 147.008C295.042 145.95 296.575 145.3 296.575 145.3" stroke="#FF5200" stroke-width="0.833333" stroke-miterlimit="10"/>
<path d="M456.783 221.875L409.683 247.917L363.767 223.5L410.858 197.467L456.783 221.875Z" fill="black"/>
<path d="M363.767 221.283L410.667 193.642C410.667 193.642 431.692 204.958 439.842 210C447.992 215.042 456.783 219.867 456.783 219.867C456.783 219.867 444.55 227.358 433.492 233.975C422.433 240.592 409.692 247.217 409.692 247.217C409.692 247.217 399.375 241.567 388.317 236.258C377.258 230.95 369.575 226.667 363.767 221.275V221.283Z" fill="#CEC4A1"/>
<path d="M459.617 198.192L414.284 228.875L364.942 205L410.275 174.317L459.617 198.192Z" fill="black"/>
<path d="M443.725 217.117C443.725 217.117 439.891 221.275 436.275 222.492C434.858 222.967 433.808 222.408 431.816 226.283C429.825 230.158 428.333 226.558 426.608 226.033C424.883 225.508 424.408 229.075 423.775 231.358C423.141 233.642 420.7 232.058 419.808 233.4C418.183 235.85 418.008 236.067 416.633 237.008C415.258 237.95 414.95 235.692 413.375 235.992C412.433 236.175 412.933 237.625 413.141 239C413.333 240.217 411.991 241.092 410.966 240.408C410.516 240.108 410 239.692 409.45 239.125" stroke="black" stroke-width="0.833333" stroke-miterlimit="10"/>
<path d="M384.275 228.058C380.508 228.767 378.117 221.942 380.725 220.725C382.508 219.892 382.6 222.15 382.458 223.792C382.392 224.525 383.05 224.892 383.783 224.85C384.667 224.8 386.15 224.15 386.442 223.8C388.508 221.292 388.117 218.45 389.525 219.233C390.933 220.017 392.808 219.583 393.45 217.3C394.092 215.017 394.558 211.45 396.283 211.975C398.008 212.5 399.492 216.1 401.492 212.225C403.492 208.35 404.683 207.325 406.1 206.85C409.717 205.633 412.825 201.925 412.825 201.925" stroke="black" stroke-width="0.833333" stroke-miterlimit="10"/>
<path d="M398.816 234.642C397.016 231.7 395.341 230.667 396.908 230.367C397.708 230.217 398.766 230.85 399.616 231.508C400.108 231.892 400.816 231.492 400.741 230.875C400.6 229.6 400.616 228.242 401.408 228.683C402.816 229.467 405.491 229.908 406.133 227.625C406.775 225.342 408.9 222 410.625 222.525C412.35 223.05 416.416 223.025 418.416 219.15" stroke="black" stroke-width="0.833333" stroke-miterlimit="10"/>
<path d="M364.942 205C364.942 205 380.159 212.217 387.217 214.408C394.275 216.6 398.134 219.075 405.175 222.767C409.034 224.783 414.209 228.45 414.209 228.45C414.209 228.45 433.184 215.192 441.967 208.133C450.75 201.075 459.484 196.842 459.484 196.842C459.484 196.842 443.059 188.058 433.65 184.608C424.242 181.158 410.275 174.317 410.275 174.317L364.942 205Z" fill="#FF5200"/>
<mask id="mask4_69562_488" style="mask-type:luminance" maskUnits="userSpaceOnUse" x="364" y="174" width="96" height="55">
<path d="M364.942 205C364.942 205 380.159 212.217 387.217 214.408C394.275 216.6 398.134 219.075 405.175 222.767C409.034 224.783 414.209 228.45 414.209 228.45C414.209 228.45 433.184 215.192 441.967 208.133C450.75 201.075 459.484 196.842 459.484 196.842C459.484 196.842 443.059 188.058 433.65 184.608C424.242 181.158 410.275 174.317 410.275 174.317L364.942 205Z" fill="white"/>
</mask>
<g mask="url(#mask4_69562_488)">
<path d="M420.058 179.05C420.058 179.05 425.55 179.625 424.075 188.133C421.425 203.492 419.608 215.958 416.775 221.283C413.941 226.608 409.45 225.425 409.45 225.425L414.208 228.442L460.55 196.492L437.141 185.367L420.066 179.042L420.058 179.05Z" fill="#FF945B"/>
<path d="M386.842 190.167C382.792 192.908 382.075 196.742 380.783 201.375C379.492 206.008 377.4 210.367 380.55 212.217C383.7 214.067 363.767 206.483 363.767 206.483V203.492L386.85 190.167H386.842Z" fill="#FF945B"/>
</g>
<path d="M390.075 209.392C391.608 208.292 390.683 203.767 392.25 203.467C393.817 203.167 393.242 206.408 394.617 205.467C395.992 204.525 395.675 198.25 397.092 199.033C398.508 199.817 400.983 201.25 401.625 198.967C402.267 196.683 402.733 193.117 404.458 193.642C406.183 194.167 407.667 197.767 409.667 193.892C411.667 190.017 412.858 188.992 414.275 188.517C417.892 187.3 421 183.592 421 183.592" stroke="black" stroke-width="0.833333" stroke-miterlimit="10"/>
<path d="M416.225 200.342C416.225 200.342 414.759 199.992 414.55 201.992C414.384 203.617 415.642 204.842 416.434 203.667C416.925 202.933 417.075 201.792 417.125 201.075C417.142 200.858 417.4 200.767 417.542 200.933C418.034 201.508 418.425 202.167 418.85 201.383C419.525 200.133 419.2 197.15 415.442 197.467C411.684 197.783 408.975 201.967 411.559 206.433C415.092 212.525 422.35 208.667 422.967 203.608C423.5 199.25 420.692 198.267 418.709 198.675" stroke="black" stroke-width="0.833333" stroke-miterlimit="10"/>
<path d="M428.725 201.592C428.725 201.592 427.525 208.308 430.433 207.4C432.025 206.9 433.483 203.292 434.083 201.383C435.117 198.108 436.842 197.433 437.083 198.842C437.758 202.783 438.992 198.492 439.992 196.9C440.992 195.308 444.725 193.842 444.725 193.842" stroke="black" stroke-width="0.833333" stroke-miterlimit="10"/>
</g>
<defs>
</defs>
</svg>
