<svg width="500" height="500" viewBox="0 0 500 500" fill="none" xmlns="http://www.w3.org/2000/svg">
<g>
<path d="M272.933 488.082C344.192 488.082 401.958 475.703 401.958 460.432C401.958 445.161 344.192 432.782 272.933 432.782C201.675 432.782 143.908 445.161 143.908 460.432C143.908 475.703 201.675 488.082 272.933 488.082Z" fill="black"/>
<path d="M368.455 425.295C409.03 401.566 432.633 366.446 421.174 346.852C409.714 327.258 367.533 330.61 326.958 354.339C286.383 378.068 262.78 413.188 274.239 432.782C285.698 452.376 327.88 449.024 368.455 425.295Z" fill="#F3F3F3" stroke="black" stroke-width="0.833333" stroke-miterlimit="10"/>
<path d="M164.034 75.7403C121.884 100.39 97.3587 136.874 109.267 157.232L274.525 428.865C285.684 447.949 326.767 444.682 366.284 421.574C405.8 398.465 428.792 364.257 417.625 345.174L261.909 67.9653C250 47.607 206.184 51.0903 164.025 75.7403H164.034Z" fill="#FF5200"/>
<mask id="mask0_69562_9819" style="mask-type:luminance" maskUnits="userSpaceOnUse" x="106" y="54" width="315" height="388">
<path d="M164.034 75.7403C121.884 100.39 97.3587 136.874 109.267 157.232L274.525 428.865C285.684 447.949 326.767 444.682 366.284 421.574C405.8 398.465 428.792 364.257 417.625 345.174L261.909 67.9653C250 47.607 206.184 51.0903 164.025 75.7403H164.034Z" fill="white"/>
</mask>
<g mask="url(#mask0_69562_9819)">
<path d="M121.867 154.732L273.05 404.115C286.075 425.607 311.534 436.265 335.942 430.265C356.4 425.232 381.425 413.957 405.959 389.815C462.426 334.24 396.034 461.682 347.7 460.432C299.367 459.182 247.251 428.124 247.251 428.124L86.1921 159.882L121.867 154.732Z" fill="#963000"/>
<path d="M207.141 149.46C249.293 124.809 273.813 88.3226 261.907 67.9657C250.002 47.6088 206.18 51.0901 164.028 75.7415C121.876 100.393 97.3564 136.879 109.262 157.236C121.167 177.593 164.989 174.112 207.141 149.46Z" fill="#FF945B"/>
<mask id="mask1_69562_9819" style="mask-type:luminance" maskUnits="userSpaceOnUse" x="106" y="54" width="159" height="117">
<path d="M207.141 149.46C249.293 124.809 273.813 88.3226 261.907 67.9657C250.002 47.6088 206.18 51.0901 164.028 75.7415C121.876 100.393 97.3564 136.879 109.262 157.236C121.167 177.593 164.989 174.112 207.141 149.46Z" fill="white"/>
</mask>
<g mask="url(#mask1_69562_9819)">
<path d="M169.818 119.19C169.818 119.19 169.143 155.74 173.309 175.699C177.476 195.657 92.2176 191.14 90.8093 162.524C89.4009 133.907 122.159 102.399 122.159 102.399L169.826 119.199L169.818 119.19Z" fill="#FF5200"/>
</g>
<path d="M261.909 67.9653C273.817 88.3237 249.292 124.807 207.142 149.457C164.992 174.107 121.167 177.59 109.259 157.232" stroke="#FF945B" stroke-width="0.833333" stroke-miterlimit="10"/>
<path d="M271.809 102.982L401.942 332.149L402.076 334.699C402.076 334.699 403.059 334.107 403.976 335.724L410.017 346.365C412.451 350.657 413.184 355.699 412.067 360.515C409.817 370.274 402.526 386.982 379.509 405.24C377.242 407.04 374.292 404.074 376.117 401.824C385.726 389.982 395.184 373.365 392.784 354.949C392.592 353.457 392.976 352.957 392.976 352.957C392.976 352.957 392.417 352.307 392.317 351.682C387.867 324.874 367.426 289.69 341.659 239.732C316.559 191.065 271.809 102.982 271.809 102.982Z" fill="#FF945B"/>
<path d="M400.717 314.224L293.917 124.424C301.367 137.165 294.55 156.215 278.075 174.74C274.859 178.357 274.35 183.632 276.817 187.799L377.859 358.457C380.084 362.215 385.35 362.599 388.142 359.24C401.992 342.532 407.417 325.699 400.717 314.224Z" fill="#F3F3F3"/>
<mask id="mask2_69562_9819" style="mask-type:luminance" maskUnits="userSpaceOnUse" x="275" y="124" width="129" height="238">
<path d="M400.717 314.224L293.917 124.424C301.367 137.165 294.55 156.215 278.075 174.74C274.859 178.357 274.35 183.632 276.817 187.799L377.859 358.457C380.084 362.215 385.35 362.599 388.142 359.24C401.992 342.532 407.417 325.699 400.717 314.224Z" fill="white"/>
</mask>
<g mask="url(#mask2_69562_9819)">
<path d="M265.217 183.557L283.842 182.474L393.092 361.832L370.9 376.357L265.217 183.557Z" fill="#566578"/>
<path d="M402.384 314.224L295.584 124.424C303.034 137.165 296.217 156.215 279.742 174.74C276.525 178.357 276.017 183.632 278.484 187.799L379.525 358.457C381.75 362.215 387.017 362.599 389.809 359.24C403.659 342.532 409.084 325.699 402.384 314.224Z" fill="#C7C7C7"/>
<path d="M271.808 102.982L297.367 143.999C297.367 143.999 296.433 146.34 297.742 148.649C299.05 150.957 401.308 331.024 401.308 331.024C401.625 331.59 402.3 331.849 402.917 331.649L410.025 346.365C412.458 350.657 413.192 355.699 412.075 360.515C409.825 370.274 402.533 386.982 379.517 405.24C377.25 407.04 374.317 404.057 376.133 401.807C385.733 389.965 394.983 373.382 392.792 354.949C392.692 354.074 391.4 355.44 391.767 354.607C392.708 352.465 392.092 350.299 391.892 349.282C386.667 322.774 366.683 288.215 341.667 239.724C329.158 215.474 311.767 181.432 297.467 153.374C296.725 151.915 295.3 150.69 294.158 151.79C273.05 172.174 271.817 102.974 271.817 102.974L271.808 102.982Z" fill="#F3F3F3"/>
</g>
</g>
<path d="M164.034 75.7403C121.884 100.39 97.3587 136.874 109.267 157.232L274.525 428.865C285.684 447.949 326.767 444.682 366.284 421.574C405.8 398.465 428.792 364.257 417.625 345.174L261.909 67.9653C250 47.607 206.184 51.0903 164.025 75.7403H164.034Z" stroke="black" stroke-width="0.833333" stroke-miterlimit="10"/>
<path d="M198.516 134.715C238.626 111.258 261.96 76.5412 250.633 57.1735C239.306 37.8059 197.609 41.121 157.499 64.5782C117.389 88.0354 94.0553 122.752 105.382 142.119C116.709 161.487 158.406 158.172 198.516 134.715Z" fill="#C7C7C7" stroke="black" stroke-width="0.833333" stroke-miterlimit="10"/>
<path d="M196.562 131.377C237.137 107.648 260.74 72.5281 249.281 52.934C237.822 33.3399 195.64 36.6918 155.065 60.4208C114.491 84.1498 90.8876 119.27 102.347 138.864C113.806 158.458 155.987 155.106 196.562 131.377Z" fill="#F3F3F3" stroke="black" stroke-width="0.833333" stroke-miterlimit="10"/>
<path d="M193.638 126.368C232.254 103.785 255.135 71.0744 244.745 53.3078C234.355 35.5412 194.627 39.4461 156.011 62.0296C117.395 84.6132 94.5133 117.323 104.904 135.09C115.294 152.857 155.022 148.952 193.638 126.368Z" fill="#C7C7C7"/>
<mask id="mask3_69562_9819" style="mask-type:luminance" maskUnits="userSpaceOnUse" x="102" y="42" width="146" height="105">
<path d="M193.638 126.368C232.254 103.785 255.135 71.0744 244.745 53.3078C234.355 35.5412 194.627 39.4461 156.011 62.0296C117.395 84.6132 94.5133 117.323 104.904 135.09C115.294 152.857 155.022 148.952 193.638 126.368Z" fill="white"/>
</mask>
<g mask="url(#mask3_69562_9819)">
<path d="M198.809 135.207C236.214 113.332 258.377 81.647 248.312 64.4366C238.247 47.2262 199.765 51.0075 162.361 72.8824C124.956 94.7574 102.793 126.442 112.858 143.653C122.923 160.863 161.405 157.082 198.809 135.207Z" fill="black"/>
<path d="M243.192 73.307C259.125 100.557 139.034 170.79 123.1 143.54C107.167 116.29 121.125 78.4737 154.292 59.082C187.459 39.6903 227.259 46.057 243.2 73.307H243.192Z" fill="#566578"/>
<mask id="mask4_69562_9819" style="mask-type:luminance" maskUnits="userSpaceOnUse" x="116" y="47" width="129" height="103">
<path d="M243.192 73.307C259.125 100.557 139.034 170.79 123.1 143.54C107.167 116.29 121.125 78.4737 154.292 59.082C187.459 39.6903 227.259 46.057 243.2 73.307H243.192Z" fill="white"/>
</mask>
<g mask="url(#mask4_69562_9819)">
<path d="M161.508 103.049C161.508 103.049 159.7 105.732 160.133 114.549C160.483 121.59 163.308 127.457 165.658 131.174C167.35 133.857 170.525 135.215 173.65 134.657L186.417 132.382L162.192 144.482L135.342 148.04C135.342 148.04 123.675 138.415 123.675 118.982C123.675 114.215 121.775 109.649 118.283 106.415C128.458 100.815 161.508 103.057 161.508 103.057V103.049Z" fill="black"/>
</g>
<path d="M243.192 73.307C259.125 100.557 139.034 170.79 123.1 143.54C107.167 116.29 121.125 78.4737 154.292 59.082C187.459 39.6903 227.259 46.057 243.2 73.307H243.192Z" stroke="black" stroke-width="0.833333" stroke-miterlimit="10"/>
</g>
<path d="M193.638 126.368C232.254 103.785 255.135 71.0744 244.745 53.3078C234.355 35.5412 194.627 39.4461 156.011 62.0296C117.395 84.6132 94.5133 117.323 104.904 135.09C115.294 152.857 155.022 148.952 193.638 126.368Z" stroke="black" stroke-width="0.833333" stroke-miterlimit="10"/>
<path d="M175.816 95.8966C202.76 80.1392 218.718 57.3041 211.46 44.8929C204.202 32.4817 176.475 35.1943 149.531 50.9517C122.587 66.709 106.629 89.5442 113.887 101.955C121.146 114.367 148.872 111.654 175.816 95.8966Z" fill="#F3F3F3"/>
<mask id="mask5_69562_9819" style="mask-type:luminance" maskUnits="userSpaceOnUse" x="112" y="37" width="102" height="73">
<path d="M175.816 95.8966C202.76 80.1392 218.718 57.3041 211.46 44.8929C204.202 32.4817 176.475 35.1943 149.531 50.9517C122.587 66.709 106.629 89.5442 113.887 101.955C121.146 114.367 148.872 111.654 175.816 95.8966Z" fill="white"/>
</mask>
<g mask="url(#mask5_69562_9819)">
<path d="M122.641 93.8903C127.866 99.9486 139.516 98.1736 144.5 97.0653C145.425 96.857 146.275 97.6986 146.041 98.6236C145.241 101.69 145.75 105.474 150.4 108.924C150.4 108.924 80.7662 119.415 103.466 89.4153C112.758 77.132 119.733 77.9903 122.183 78.8486C122.708 79.032 122.958 79.632 122.716 80.1403C121.583 82.5403 118.841 89.482 122.65 93.8903H122.641Z" fill="#C7C7C7"/>
<path d="M113.3 99.4737C120.567 111.899 148.308 109.182 175.275 93.4153C202.242 77.6487 218.208 54.7903 210.942 42.3737C210.942 42.3737 218.842 48.5487 213.375 62.6403C207.908 76.732 181.292 108.499 154.242 109.54C127.192 110.582 124.175 120.582 112.967 112.249C101.758 103.924 113.3 99.4653 113.3 99.4653V99.4737Z" fill="black"/>
</g>
<path d="M175.816 95.8966C202.76 80.1392 218.718 57.3041 211.46 44.8929C204.202 32.4817 176.475 35.1943 149.531 50.9517C122.587 66.709 106.629 89.5442 113.887 101.955C121.146 114.367 148.872 111.654 175.816 95.8966Z" stroke="black" stroke-width="0.833333" stroke-miterlimit="10"/>
<path d="M169.755 85.5185C190.609 73.323 203.464 56.5121 198.469 47.9705C193.474 39.4288 172.519 42.3909 151.665 54.5865C130.812 66.7821 117.956 83.5929 122.952 92.1346C127.947 100.676 148.902 97.7141 169.755 85.5185Z" fill="#C7C7C7"/>
<mask id="mask6_69562_9819" style="mask-type:luminance" maskUnits="userSpaceOnUse" x="121" y="43" width="79" height="55">
<path d="M169.755 85.5185C190.609 73.323 203.464 56.5121 198.469 47.9705C193.474 39.4288 172.519 42.3909 151.665 54.5865C130.812 66.7821 117.956 83.5929 122.952 92.1346C127.947 100.676 148.902 97.7141 169.755 85.5185Z" fill="white"/>
</mask>
<g mask="url(#mask6_69562_9819)">
<path d="M181.5 43.3069L181.467 58.3069L195.908 62.3735C195.908 62.3735 204.242 58.2985 201.05 50.2985C197.867 42.2985 181.5 43.3069 181.5 43.3069Z" fill="black"/>
<path d="M172.873 90.8578C191.343 80.0562 202.972 65.5832 198.848 58.5314C194.724 51.4796 176.408 54.5193 157.938 65.3209C139.469 76.1224 127.839 90.5954 131.963 97.6472C136.087 104.699 154.403 101.659 172.873 90.8578Z" fill="#566578"/>
<path d="M172.871 90.8576C188.318 81.8241 197.841 69.3739 194.142 63.0491C190.443 56.7243 174.923 58.9201 159.476 67.9535C144.03 76.9869 134.507 89.4372 138.205 95.762C141.904 102.087 157.425 99.891 172.871 90.8576Z" fill="black"/>
</g>
<path d="M169.755 85.5185C190.609 73.323 203.464 56.5121 198.469 47.9705C193.474 39.4288 172.519 42.3909 151.665 54.5865C130.812 66.7821 117.956 83.5929 122.952 92.1346C127.947 100.676 148.902 97.7141 169.755 85.5185Z" stroke="black" stroke-width="0.833333" stroke-miterlimit="10"/>
<path d="M164.555 76.6392C174.276 70.9538 180.034 62.7152 177.416 58.2378C174.797 53.7604 164.794 54.7397 155.072 60.4251C145.351 66.1104 139.592 74.349 142.211 78.8264C144.829 83.3038 154.833 82.3246 164.555 76.6392Z" fill="#566578"/>
<mask id="mask7_69562_9819" style="mask-type:luminance" maskUnits="userSpaceOnUse" x="141" y="55" width="38" height="27">
<path d="M164.555 76.6392C174.276 70.9538 180.034 62.7152 177.416 58.2378C174.797 53.7604 164.794 54.7397 155.072 60.4251C145.351 66.1104 139.592 74.349 142.211 78.8264C144.829 83.3038 154.833 82.3246 164.555 76.6392Z" fill="white"/>
</mask>
<g mask="url(#mask7_69562_9819)">
<path d="M167.084 64.1237L166.225 76.4653L148.375 83.232L151.425 71.8487L167.084 64.1237Z" fill="black"/>
</g>
<path d="M164.555 76.6392C174.276 70.9538 180.034 62.7152 177.416 58.2378C174.797 53.7604 164.794 54.7397 155.072 60.4251C145.351 66.1104 139.592 74.349 142.211 78.8264C144.829 83.3038 154.833 82.3246 164.555 76.6392Z" stroke="black" stroke-width="0.833333" stroke-miterlimit="10"/>
<path d="M166.817 62.8486C167.958 64.807 165.442 68.407 161.192 70.8903C156.942 73.3736 152.567 73.807 151.425 71.8486L148.317 66.532L163.708 57.532L166.817 62.8486Z" fill="black"/>
<path d="M156.668 63.1529C166.525 57.3885 172.362 49.0343 169.706 44.4934C167.051 39.9524 156.908 40.9442 147.051 46.7085C137.194 52.4729 131.357 60.8271 134.012 65.368C136.668 69.909 146.811 68.9172 156.668 63.1529Z" fill="#F3F3F3" stroke="black" stroke-width="0.833333" stroke-miterlimit="10"/>
<path d="M166.384 44.2319C168.692 48.1736 163.625 55.4236 155.067 60.4236C146.517 65.4236 137.709 66.2903 135.409 62.3486L119.35 34.8819L150.325 16.7653L166.384 44.2319Z" fill="#F3F3F3"/>
<mask id="mask8_69562_9819" style="mask-type:luminance" maskUnits="userSpaceOnUse" x="119" y="16" width="48" height="49">
<path d="M166.384 44.2319C168.692 48.1736 163.625 55.4236 155.067 60.4236C146.517 65.4236 137.709 66.2903 135.409 62.3486L119.35 34.8819L150.325 16.7653L166.384 44.2319Z" fill="white"/>
</mask>
<g mask="url(#mask8_69562_9819)">
<path d="M139.008 32.9569L135.825 35.6486C134.95 36.3819 134.733 37.6402 135.308 38.6319L147.608 59.7652C148.241 60.8569 149.491 61.4319 150.733 61.2069L156.458 60.1736C156.458 60.1736 148.508 70.5652 136.183 63.2902L137.566 63.2402C139.091 63.1819 140.008 61.5319 139.25 60.2069L128.958 42.2569C128.116 40.7902 126.883 39.5986 125.391 38.7986L121.041 36.4819L138.991 32.9652" fill="#C7C7C7"/>
</g>
<path d="M166.384 44.2319C168.692 48.1736 163.625 55.4236 155.067 60.4236C146.517 65.4236 137.709 66.2903 135.409 62.3486L119.35 34.8819L150.325 16.7653L166.384 44.2319Z" stroke="black" stroke-width="0.833333" stroke-miterlimit="10"/>
<path d="M150.325 16.7652C152.633 20.7069 147.567 27.9569 139.008 32.9569C130.458 37.9569 121.65 38.8236 119.35 34.8819C116.158 29.4152 126.167 27.4402 132.5 23.7402C142.75 17.7402 147.092 11.2486 150.325 16.7736V16.7652Z" fill="#F3F3F3" stroke="black" stroke-width="0.833333" stroke-miterlimit="10"/>
<path d="M155.955 45.6832C159.566 43.5712 160.573 38.574 158.203 34.5217C155.833 30.4694 150.984 28.8965 147.373 31.0084C143.762 33.1204 142.755 38.1176 145.125 42.1699C147.495 46.2222 152.344 47.7952 155.955 45.6832Z" fill="black"/>
<mask id="mask9_69562_9819" style="mask-type:luminance" maskUnits="userSpaceOnUse" x="143" y="30" width="17" height="17">
<path d="M155.955 45.6832C159.566 43.5712 160.573 38.574 158.203 34.5217C155.833 30.4694 150.984 28.8965 147.373 31.0084C143.762 33.1204 142.755 38.1176 145.125 42.1699C147.495 46.2222 152.344 47.7952 155.955 45.6832Z" fill="white"/>
</mask>
<g mask="url(#mask9_69562_9819)">
<path d="M154.471 45.2003C157.586 43.3788 158.453 39.068 156.408 35.5719C154.364 32.0757 150.181 30.7182 147.067 32.5398C143.952 34.3614 143.084 38.6722 145.129 42.1683C147.174 45.6644 151.356 47.0219 154.471 45.2003Z" fill="#566578"/>
</g>
<path d="M155.955 45.6832C159.566 43.5712 160.573 38.574 158.203 34.5217C155.833 30.4694 150.984 28.8965 147.373 31.0084C143.762 33.1204 142.755 38.1176 145.125 42.1699C147.495 46.2222 152.344 47.7952 155.955 45.6832Z" stroke="black" stroke-width="0.833333" stroke-miterlimit="10"/>
<path d="M151.168 39.5534C151.502 39.3583 151.594 38.8941 151.373 38.5167C151.152 38.1392 150.703 37.9915 150.369 38.1867C150.035 38.3818 149.944 38.846 150.165 39.2234C150.385 39.6008 150.835 39.7486 151.168 39.5534Z" fill="black" stroke="black" stroke-width="0.833333" stroke-miterlimit="10"/>
<path d="M215.183 69.4154C219.166 70.1321 229.55 72.4404 237.191 78.1737C237.641 78.5154 238.225 77.9737 237.925 77.4987C235.3 73.4154 229.058 65.2737 218.6 60.7571C217.925 60.4654 217.141 60.8487 216.95 61.5571C216.575 62.8904 215.825 65.0987 214.375 67.7071C213.991 68.4071 214.391 69.2737 215.175 69.4154H215.183Z" fill="#C7C7C7"/>
<path d="M207.9 76.732C204.867 80.3403 196.5 89.5653 184.808 96.5403C184.5 96.7237 184.725 97.1903 185.058 97.057C188.267 95.7653 193.783 93.082 200.4 87.9987C205.658 83.957 207.8 79.5903 208.642 77.1487C208.792 76.6987 208.208 76.3737 207.908 76.7403L207.9 76.732Z" fill="#C7C7C7"/>
<path d="M152.225 180.157C156.517 179.949 163.25 179.082 171.175 176.132C174.367 174.949 177.95 176.207 179.667 179.14L324.983 427.624C325.917 429.224 325.158 431.282 323.4 431.865C319.142 433.282 311.208 435.299 302 434.574C299.725 434.39 297.658 433.132 296.492 431.165L149.892 184.549C148.775 182.674 150.05 180.257 152.233 180.157H152.225Z" fill="#FF945B"/>
</g>
<defs>
</defs>
</svg>
