<svg width="500" height="500" viewBox="0 0 500 500" fill="none" xmlns="http://www.w3.org/2000/svg">
<g>
<path d="M210.717 309.95L96.5916 395.892C93.6833 398.083 94.4416 402.642 97.9 403.775L308.933 472.7C312.558 473.883 316.542 472.758 319.008 469.842L406.967 365.975C409.1 363.458 407.892 359.575 404.708 358.717L218.817 308.383C216.017 307.625 213.033 308.2 210.717 309.942V309.95Z" fill="black" stroke="black" stroke-width="0.833333" stroke-miterlimit="10"/>
<path d="M216.633 200.075L91.7078 289.892C90.0078 291.117 88.9995 293.083 88.9995 295.175V352.267C88.9995 355.058 90.7828 357.542 93.4328 358.433L311.325 431.85C313.883 432.708 316.708 431.908 318.425 429.825L416.116 311.483C417.083 310.317 417.608 308.85 417.608 307.342V257.675C417.608 254.742 415.65 252.175 412.816 251.4L222.166 199.083C220.266 198.567 218.241 198.925 216.641 200.075H216.633Z" fill="black" stroke="black" stroke-width="0.833333" stroke-miterlimit="10"/>
<path d="M88.9995 296.342V352.275C88.9995 355.067 90.7829 357.55 93.4329 358.442L160.258 380.958C162.366 381.667 164.55 380.1 164.55 377.875V321.467C164.55 318.658 162.75 316.167 160.075 315.283L93.2662 293.25C91.1579 292.558 88.9912 294.125 88.9912 296.342H88.9995Z" fill="#ECE0D6"/>
<mask id="mask0_69562_1288" style="mask-type:luminance" maskUnits="userSpaceOnUse" x="88" y="293" width="77" height="89">
<path d="M88.9995 296.342V352.275C88.9995 355.067 90.7829 357.55 93.4329 358.442L160.258 380.958C162.366 381.667 164.55 380.1 164.55 377.875V321.467C164.55 318.658 162.75 316.167 160.075 315.283L93.2662 293.25C91.1579 292.558 88.9912 294.125 88.9912 296.342H88.9995Z" fill="white"/>
</mask>
<g mask="url(#mask0_69562_1288)">
<path d="M88.9663 304.633V291.917L164.583 317.35V330.217L163.125 321.958C162.775 319.967 161.358 318.333 159.441 317.7L93.3746 295.967C91.8663 295.475 90.2746 296.442 90.0246 298.008L88.9746 304.633H88.9663Z" fill="#F3F3F3"/>
</g>
<path d="M88.9995 296.342V352.275C88.9995 355.067 90.7829 357.55 93.4329 358.442L160.258 380.958C162.366 381.667 164.55 380.1 164.55 377.875V321.467C164.55 318.658 162.75 316.167 160.075 315.283L93.2662 293.25C91.1579 292.558 88.9912 294.125 88.9912 296.342H88.9995Z" stroke="black" stroke-width="0.833333" stroke-miterlimit="10"/>
<path d="M168.825 318.167L235.475 340.15C238.141 341.033 239.95 343.525 239.95 346.333V403.283C239.95 405.508 237.766 407.083 235.658 406.367L168.983 383.9C166.333 383.008 164.55 380.525 164.55 377.733V321.258C164.55 319.042 166.716 317.475 168.825 318.167Z" fill="#FF5200" stroke="black" stroke-width="0.833333" stroke-miterlimit="10"/>
<path d="M244.225 343.025L311.091 364.983C313.766 365.858 315.575 368.358 315.575 371.167V428.767C315.575 430.992 313.391 432.567 311.283 431.85L244.391 409.308C241.741 408.417 239.958 405.933 239.958 403.142V346.117C239.958 343.9 242.125 342.333 244.233 343.025H244.225Z" fill="#FF945B"/>
<mask id="mask1_69562_1288" style="mask-type:luminance" maskUnits="userSpaceOnUse" x="239" y="342" width="77" height="91">
<path d="M244.225 343.025L311.091 364.983C313.766 365.858 315.575 368.358 315.575 371.167V428.767C315.575 430.992 313.391 432.567 311.283 431.85L244.391 409.308C241.741 408.417 239.958 405.933 239.958 403.142V346.117C239.958 343.9 242.125 342.333 244.233 343.025H244.225Z" fill="white"/>
</mask>
<g mask="url(#mask1_69562_1288)">
<path d="M239.95 353.983V341.267L315.566 366.7V379.567L314.108 371.308C313.758 369.317 312.341 367.683 310.425 367.05L244.358 345.317C242.85 344.825 241.258 345.792 241.008 347.358L239.958 353.983H239.95Z" fill="#F3F3F3"/>
</g>
<path d="M244.225 343.025L311.091 364.983C313.766 365.858 315.575 368.358 315.575 371.167V428.767C315.575 430.992 313.391 432.567 311.283 431.85L244.391 409.308C241.741 408.417 239.958 405.933 239.958 403.142V346.117C239.958 343.9 242.125 342.333 244.233 343.025H244.225Z" stroke="black" stroke-width="0.833333" stroke-miterlimit="10"/>
<path d="M414.757 255.892L388.657 285.017C387.591 286.208 386.999 287.758 386.999 289.358V342.242C386.999 343.767 388.907 344.458 389.882 343.275L416.116 311.5C417.082 310.333 417.607 308.867 417.607 307.358V256.983C417.607 255.492 415.766 254.783 414.766 255.9L414.757 255.892Z" fill="#566578" stroke="black" stroke-width="0.833333" stroke-miterlimit="10"/>
<path d="M353.641 382.642V326.567C353.641 324.967 354.233 323.417 355.299 322.225L384.15 290.033C385.15 288.925 386.991 289.625 386.991 291.117V344.425C386.991 345.942 386.466 347.4 385.499 348.567L356.516 383.675C355.541 384.85 353.633 384.167 353.633 382.642H353.641Z" fill="#963000" stroke="black" stroke-width="0.833333" stroke-miterlimit="10"/>
<path d="M317.233 364.592L350.8 327.233C351.8 326.125 353.641 326.825 353.641 328.325V384.833C353.641 386.35 353.116 387.808 352.15 388.975L318.45 429.8C317.475 430.975 315.566 430.292 315.566 428.767V368.942C315.566 367.333 316.158 365.783 317.233 364.592Z" fill="#FF5200" stroke="black" stroke-width="0.833333" stroke-miterlimit="10"/>
<path d="M94.1909 288.108L136.616 257.608C138.291 256.408 140.433 256.067 142.399 256.692L203.358 276.133C205.774 276.9 206.416 280.008 204.516 281.683L165.958 315.525C165.091 316.283 163.883 316.533 162.791 316.167L95.0743 293.833C92.5493 293 92.0326 289.65 94.1909 288.1V288.108Z" fill="black" stroke="black" stroke-width="0.833333" stroke-miterlimit="10"/>
<path d="M179.891 226.492L144.525 251.917C142.35 253.475 142.883 256.85 145.433 257.658L205.325 276.767C207.5 277.458 209.883 276.967 211.6 275.458L242.708 248.15C244.625 246.467 243.95 243.333 241.508 242.592L185.583 225.55C183.641 224.958 181.533 225.308 179.883 226.492H179.891Z" fill="black" stroke="black" stroke-width="0.833333" stroke-miterlimit="10"/>
<path d="M216.633 200.075L187.85 220.767C185.658 222.342 186.225 225.742 188.8 226.525L243.641 243.233C245.8 243.892 248.141 243.383 249.833 241.9L275.866 219.05C277.816 217.342 277.083 214.15 274.583 213.467L222.158 199.083C220.258 198.567 218.233 198.925 216.633 200.075Z" fill="black" stroke="black" stroke-width="0.833333" stroke-miterlimit="10"/>
<path d="M283.791 216L342.849 232.208C345.257 232.867 346.057 235.892 344.282 237.65L319.191 262.658C317.491 264.35 314.991 264.975 312.699 264.275L252.707 246C250.266 245.258 249.591 242.125 251.507 240.442L277.774 217.383C279.416 215.942 281.682 215.417 283.791 216Z" fill="black" stroke="black" stroke-width="0.833333" stroke-miterlimit="10"/>
<path d="M213.167 274.092L244.383 246.692C246.075 245.208 248.417 244.7 250.575 245.358L311.225 263.833C313.575 264.55 314.317 267.517 312.575 269.25L283.658 298.067C281.933 299.783 279.4 300.4 277.083 299.658L214.325 279.642C211.908 278.875 211.267 275.767 213.167 274.092Z" fill="black" stroke="black" stroke-width="0.833333" stroke-miterlimit="10"/>
<path d="M168.833 313L206.074 280.317C207.791 278.808 210.174 278.317 212.349 279.008L275.758 299.233C278.083 299.975 278.799 302.917 277.066 304.642L242.791 338.8C241.049 340.533 238.491 341.142 236.158 340.375L169.966 318.55C167.574 317.758 166.949 314.675 168.841 313.008L168.833 313Z" fill="black" stroke="black" stroke-width="0.833333" stroke-miterlimit="10"/>
<path d="M348.841 322.55L284.625 302.067C282.308 301.325 279.775 301.942 278.05 303.658L243.708 337.883C241.991 339.6 242.683 342.525 244.991 343.283L311.533 365.133C313.983 365.942 316.683 365.217 318.408 363.3L350.275 327.833C351.858 326.075 351.091 323.275 348.841 322.558V322.55Z" fill="black" stroke="black" stroke-width="0.833333" stroke-miterlimit="10"/>
<path d="M384.549 286.125L320.157 266.55C317.857 265.85 315.366 266.475 313.666 268.167L284.649 297.083C282.924 298.808 283.632 301.75 285.957 302.492L349.624 322.8C352.066 323.583 354.741 322.85 356.449 320.942L385.282 288.767C386.074 287.883 385.682 286.467 384.541 286.125H384.549Z" fill="black" stroke="black" stroke-width="0.833333" stroke-miterlimit="10"/>
<path d="M351.908 234.692L412.525 251.325C414.858 251.967 415.7 254.833 414.092 256.633L389.767 283.767C388.075 285.65 385.45 286.383 383.025 285.65L321.633 266.983C319.275 266.267 318.542 263.3 320.283 261.567L345.592 236.35C347.25 234.7 349.658 234.067 351.908 234.683V234.692Z" fill="black" stroke="black" stroke-width="0.833333" stroke-miterlimit="10"/>
<path d="M236.149 340.367L231.858 341.183C228.199 341.875 224.874 343.775 222.408 346.575L204.791 366.617C198.741 373.5 187.491 371.142 184.716 362.408L170.774 318.542L236.158 340.367H236.149Z" fill="black" stroke="black" stroke-width="0.833333" stroke-miterlimit="10"/>
<path d="M289.958 132.95L414.883 246.4C416.583 247.942 417.592 250.1 417.592 252.2V309.292C417.592 312.084 415.808 314.234 413.158 314.625L195.267 346.825C192.708 347.2 189.883 345.867 188.167 343.459L90.4751 206.634C89.5084 205.284 88.9834 203.717 88.9834 202.209V152.542C88.9834 149.609 90.9417 147.409 93.7751 147.167L284.425 130.917C286.325 130.759 288.35 131.5 289.95 132.95H289.958Z" fill="black" stroke="black" stroke-width="0.833333" stroke-miterlimit="10"/>
<path d="M417.6 253.367V309.3C417.6 312.092 415.817 314.242 413.167 314.633L346.342 324.508C344.234 324.817 342.05 322.833 342.05 320.608V264.2C342.05 261.392 343.85 259.242 346.525 258.867L413.334 249.475C415.442 249.175 417.609 251.158 417.609 253.375L417.6 253.367Z" fill="#FF5200"/>
<mask id="mask2_69562_1288" style="mask-type:luminance" maskUnits="userSpaceOnUse" x="342" y="249" width="76" height="76">
<path d="M417.6 253.367V309.3C417.6 312.092 415.817 314.242 413.167 314.633L346.342 324.508C344.234 324.817 342.05 322.833 342.05 320.608V264.2C342.05 261.392 343.85 259.242 346.525 258.867L413.334 249.475C415.442 249.175 417.609 251.158 417.609 253.375L417.6 253.367Z" fill="white"/>
</mask>
<g mask="url(#mask2_69562_1288)">
<path d="M342.017 269.608L343 264.467C343.367 262.55 344.917 261.075 346.85 260.8L413.542 251.467C414.975 251.267 416.317 252.217 416.609 253.642L417.642 258.767V247.575L342.025 257.358V269.608H342.017Z" fill="#F3F3F3"/>
</g>
<path d="M417.6 253.367V309.3C417.6 312.092 415.817 314.242 413.167 314.633L346.342 324.508C344.234 324.817 342.05 322.833 342.05 320.608V264.2C342.05 261.392 343.85 259.242 346.525 258.867L413.334 249.475C415.442 249.175 417.609 251.158 417.609 253.375L417.6 253.367Z" stroke="black" stroke-width="0.833333" stroke-miterlimit="10"/>
<path d="M337.767 260.083L271.117 269.45C268.45 269.825 266.642 271.975 266.642 274.783V331.733C266.642 333.958 268.825 335.942 270.933 335.633L337.608 325.783C340.258 325.392 342.042 323.25 342.042 320.45V263.975C342.042 261.758 339.875 259.775 337.767 260.075V260.083Z" fill="#566578" stroke="black" stroke-width="0.833333" stroke-miterlimit="10"/>
<path d="M262.375 270.683L195.509 279.992C192.834 280.367 191.025 282.517 191.025 285.333V342.933C191.025 345.158 193.209 347.142 195.317 346.833L262.209 336.95C264.859 336.558 266.642 334.417 266.642 331.617V274.592C266.642 272.375 264.475 270.4 262.367 270.692L262.375 270.683Z" fill="#963000"/>
<mask id="mask3_69562_1288" style="mask-type:luminance" maskUnits="userSpaceOnUse" x="191" y="270" width="76" height="77">
<path d="M262.375 270.683L195.509 279.992C192.834 280.367 191.025 282.517 191.025 285.333V342.933C191.025 345.158 193.209 347.142 195.317 346.833L262.209 336.95C264.859 336.558 266.642 334.417 266.642 331.617V274.592C266.642 272.375 264.475 270.4 262.367 270.692L262.375 270.683Z" fill="white"/>
</mask>
<g mask="url(#mask3_69562_1288)">
<path d="M191.034 290.95L192.017 285.808C192.384 283.892 193.934 282.417 195.867 282.142L262.559 272.808C263.992 272.608 265.334 273.558 265.625 274.983L266.659 280.108V268.917L191.042 278.7V290.95H191.034Z" fill="#F3F3F3"/>
</g>
<path d="M262.375 270.683L195.509 279.992C192.834 280.367 191.025 282.517 191.025 285.333V342.933C191.025 345.158 193.209 347.142 195.317 346.833L262.209 336.95C264.859 336.558 266.642 334.417 266.642 331.617V274.592C266.642 272.375 264.475 270.4 262.367 270.692L262.375 270.683Z" stroke="black" stroke-width="0.833333" stroke-miterlimit="10"/>
<path d="M91.8412 151.275L117.941 185.333C119.008 186.733 119.6 188.392 119.6 189.992V242.875C119.6 244.4 117.691 244.725 116.716 243.367L90.4829 206.625C89.5162 205.275 88.9912 203.708 88.9912 202.2V151.825C88.9912 150.333 90.8329 149.975 91.8329 151.275H91.8412Z" fill="#566578" stroke="black" stroke-width="0.833333" stroke-miterlimit="10"/>
<path d="M152.958 289.6V233.525C152.958 231.925 152.366 230.258 151.3 228.867L122.45 191.217C121.45 189.917 119.608 190.275 119.608 191.767V245.075C119.608 246.592 120.133 248.15 121.1 249.5L150.083 290.092C151.058 291.45 152.966 291.125 152.966 289.6H152.958Z" fill="#ECE0D6" stroke="black" stroke-width="0.833333" stroke-miterlimit="10"/>
<path d="M189.358 278.433L155.791 234.725C154.791 233.425 152.95 233.783 152.95 235.275V291.783C152.95 293.3 153.475 294.858 154.441 296.208L188.141 343.408C189.116 344.767 191.025 344.442 191.025 342.917V283.092C191.025 281.483 190.433 279.825 189.358 278.425V278.433Z" fill="#CEC4A1" stroke="black" stroke-width="0.833333" stroke-miterlimit="10"/>
<path d="M412.408 244.15L369.983 205.625C368.308 204.108 366.167 203.358 364.2 203.617L303.242 211.533C300.825 211.85 300.183 214.833 302.083 216.867L340.642 258.008C341.508 258.933 342.717 259.408 343.808 259.25L411.525 249.733C414.05 249.375 414.567 246.125 412.408 244.167V244.15Z" fill="black" stroke="black" stroke-width="0.833333" stroke-miterlimit="10"/>
<path d="M326.7 166.317L362.067 198.433C364.242 200.408 363.708 203.675 361.158 204.008L301.267 211.783C299.092 212.067 296.708 211.117 294.992 209.283L263.883 176.092C261.967 174.05 262.642 171.042 265.083 170.758L321.008 164.3C322.95 164.075 325.058 164.825 326.708 166.317H326.7Z" fill="black" stroke="black" stroke-width="0.833333" stroke-miterlimit="10"/>
<path d="M289.958 132.95L318.741 159.092C320.933 161.075 320.366 164.375 317.791 164.667L262.95 171C260.791 171.25 258.45 170.3 256.758 168.492L230.725 140.717C228.775 138.642 229.508 135.583 232.008 135.375L284.433 130.908C286.333 130.75 288.358 131.492 289.958 132.942V132.95Z" fill="black" stroke="black" stroke-width="0.833333" stroke-miterlimit="10"/>
<path d="M222.808 136.167L163.75 141.2C161.342 141.408 160.542 144.275 162.317 146.375L187.408 176.133C189.108 178.15 191.608 179.242 193.9 178.975L253.892 172.05C256.333 171.767 257.008 168.758 255.092 166.717L228.825 138.692C227.183 136.933 224.917 135.992 222.808 136.167Z" fill="black" stroke="black" stroke-width="0.833333" stroke-miterlimit="10"/>
<path d="M293.433 207.617L262.216 174.308C260.525 172.5 258.183 171.55 256.025 171.8L195.375 178.8C193.025 179.075 192.283 181.9 194.025 183.967L222.941 218.258C224.666 220.3 227.2 221.392 229.516 221.092L292.275 212.942C294.691 212.625 295.333 209.642 293.433 207.608V207.617Z" fill="black" stroke="black" stroke-width="0.833333" stroke-miterlimit="10"/>
<path d="M337.766 254.917L300.525 215.183C298.808 213.35 296.425 212.408 294.25 212.683L230.841 220.917C228.516 221.217 227.8 224.025 229.533 226.075L263.808 266.717C265.55 268.775 268.108 269.875 270.441 269.542L336.633 260.233C339.025 259.9 339.65 256.925 337.758 254.908L337.766 254.917Z" fill="black" stroke="black" stroke-width="0.833333" stroke-miterlimit="10"/>
<path d="M157.758 230.408L221.975 222.075C224.291 221.775 226.825 222.867 228.55 224.908L262.891 265.633C264.608 267.675 263.916 270.467 261.608 270.792L195.066 280.05C192.616 280.392 189.916 279.158 188.191 276.917L156.325 235.417C154.741 233.358 155.508 230.7 157.758 230.408Z" fill="black" stroke="black" stroke-width="0.833333" stroke-miterlimit="10"/>
<path d="M122.042 187.225L186.433 179.833C188.733 179.567 191.225 180.667 192.925 182.675L221.942 217.083C223.667 219.133 222.958 221.942 220.633 222.242L156.967 230.508C154.525 230.825 151.85 229.592 150.142 227.358L121.308 189.733C120.517 188.7 120.908 187.358 122.05 187.233L122.042 187.225Z" fill="black" stroke="black" stroke-width="0.833333" stroke-miterlimit="10"/>
<path d="M154.691 141.975L94.0744 147.142C91.7411 147.342 90.8994 150.05 92.5077 152.158L116.833 183.892C118.524 186.1 121.149 187.333 123.574 187.05L184.966 180C187.324 179.733 188.058 176.9 186.316 174.833L161.008 144.833C159.349 142.875 156.941 141.775 154.691 141.975Z" fill="black" stroke="black" stroke-width="0.833333" stroke-miterlimit="10"/>
<path d="M268.357 272.517L272.699 273.983C276.032 275.108 279.074 276.95 281.607 279.383L304.524 301.35C309.907 306.517 318.782 304.792 321.849 297.992L338.874 260.2L268.357 272.517Z" fill="black" stroke="black" stroke-width="0.833333" stroke-miterlimit="10"/>
<path d="M158.35 237.683L156.267 235.667C152.892 232.408 147.442 232.8 144.575 236.508L127.55 258.533L96.2168 214.642L116.833 183.883L158.35 237.667V237.683Z" fill="black" stroke="black" stroke-width="0.833333" stroke-miterlimit="10"/>
<path d="M216.633 55.2083L91.7078 145.025C90.0078 146.25 88.9995 148.217 88.9995 150.308V207.4C88.9995 210.192 90.7828 212.675 93.4328 213.567L311.325 286.983C313.883 287.842 316.708 287.042 318.425 284.958L416.116 166.617C417.083 165.45 417.608 163.983 417.608 162.475V112.808C417.608 109.875 415.65 107.308 412.816 106.533L222.166 54.2167C220.266 53.7 218.241 54.0583 216.641 55.2083H216.633Z" fill="black" stroke="black" stroke-width="0.833333" stroke-miterlimit="10"/>
<path d="M88.9995 151.475V207.408C88.9995 210.2 90.7829 212.683 93.4329 213.575L160.258 236.092C162.366 236.8 164.55 235.233 164.55 233.008V176.6C164.55 173.792 162.75 171.3 160.075 170.417L93.2662 148.383C91.1579 147.692 88.9912 149.258 88.9912 151.475H88.9995Z" fill="#CEC4A1" stroke="black" stroke-width="0.833333" stroke-miterlimit="10"/>
<path d="M168.825 173.3L235.475 195.283C238.141 196.167 239.95 198.658 239.95 201.467V258.417C239.95 260.642 237.766 262.217 235.658 261.5L168.983 239.033C166.333 238.142 164.55 235.658 164.55 232.867V176.392C164.55 174.175 166.716 172.608 168.825 173.3Z" fill="#FF945B" stroke="black" stroke-width="0.833333" stroke-miterlimit="10"/>
<path d="M244.225 198.158L311.091 220.117C313.766 220.992 315.575 223.492 315.575 226.3V283.9C315.575 286.125 313.391 287.7 311.283 286.983L244.391 264.442C241.741 263.55 239.958 261.067 239.958 258.275V201.25C239.958 199.033 242.125 197.467 244.233 198.158H244.225Z" fill="#ECE0D6" stroke="black" stroke-width="0.833333" stroke-miterlimit="10"/>
<path d="M414.757 111.017L388.657 140.142C387.591 141.333 386.999 142.883 386.999 144.483V197.367C386.999 198.892 388.907 199.583 389.882 198.4L416.116 166.625C417.082 165.458 417.607 163.992 417.607 162.483V112.108C417.607 110.617 415.766 109.908 414.766 111.025L414.757 111.017Z" fill="#566578" stroke="black" stroke-width="0.833333" stroke-miterlimit="10"/>
<path d="M353.641 237.775V181.7C353.641 180.1 354.233 178.55 355.299 177.358L384.15 145.167C385.15 144.058 386.991 144.758 386.991 146.25V199.558C386.991 201.075 386.466 202.533 385.499 203.7L356.516 238.808C355.541 239.983 353.633 239.3 353.633 237.775H353.641Z" fill="#963000" stroke="black" stroke-width="0.833333" stroke-miterlimit="10"/>
<path d="M317.233 219.725L350.8 182.367C351.8 181.258 353.641 181.958 353.641 183.458V239.967C353.641 241.483 353.116 242.942 352.15 244.108L318.45 284.933C317.475 286.108 315.566 285.425 315.566 283.9V224.075C315.566 222.467 316.158 220.917 317.233 219.725Z" fill="#FF5200" stroke="black" stroke-width="0.833333" stroke-miterlimit="10"/>
<path d="M94.1909 143.242L136.616 112.742C138.291 111.542 140.433 111.2 142.399 111.825L203.358 131.267C205.774 132.033 206.416 135.142 204.516 136.817L165.958 170.658C165.091 171.417 163.883 171.667 162.791 171.3L95.0743 148.967C92.5493 148.133 92.0326 144.783 94.1909 143.233V143.242Z" fill="#FF945B"/>
<mask id="mask4_69562_1288" style="mask-type:luminance" maskUnits="userSpaceOnUse" x="92" y="111" width="114" height="61">
<path d="M94.1909 143.242L136.616 112.742C138.291 111.542 140.433 111.2 142.399 111.825L203.358 131.267C205.774 132.033 206.416 135.142 204.516 136.817L165.958 170.658C165.091 171.417 163.883 171.667 162.791 171.3L95.0743 148.967C92.5493 148.133 92.0326 144.783 94.1909 143.233V143.242Z" fill="white"/>
</mask>
<g mask="url(#mask4_69562_1288)">
<path d="M93.5911 144.325L93.4911 144.642C93.2078 145.583 93.7244 146.583 94.6577 146.883L160.858 168.392C162.658 168.975 164.608 168.842 166.308 168.025L172.116 165.233L162.733 174.525L86.1494 149.275L93.5828 144.317L93.5911 144.325Z" fill="#F3F3F3"/>
</g>
<path d="M94.1909 143.242L136.616 112.742C138.291 111.542 140.433 111.2 142.399 111.825L203.358 131.267C205.774 132.033 206.416 135.142 204.516 136.817L165.958 170.658C165.091 171.417 163.883 171.667 162.791 171.3L95.0743 148.967C92.5493 148.133 92.0326 144.783 94.1909 143.233V143.242Z" stroke="black" stroke-width="0.833333" stroke-miterlimit="10"/>
<path d="M179.891 81.625L144.525 107.05C142.35 108.608 142.883 111.983 145.433 112.792L205.325 131.9C207.5 132.592 209.883 132.1 211.6 130.592L242.708 103.283C244.625 101.6 243.95 98.4667 241.508 97.725L185.583 80.6833C183.641 80.0917 181.533 80.4417 179.883 81.625H179.891Z" fill="#ECE0D6"/>
<mask id="mask5_69562_1288" style="mask-type:luminance" maskUnits="userSpaceOnUse" x="143" y="80" width="101" height="53">
<path d="M179.891 81.625L144.525 107.05C142.35 108.608 142.883 111.983 145.433 112.792L205.325 131.9C207.5 132.592 209.883 132.1 211.6 130.592L242.708 103.283C244.625 101.6 243.95 98.4667 241.508 97.725L185.583 80.6833C183.641 80.0917 181.533 80.4417 179.883 81.625H179.891Z" fill="white"/>
</mask>
<g mask="url(#mask5_69562_1288)">
<path d="M143.792 108.125L143.708 108.417C143.45 109.283 143.942 110.2 144.808 110.475L206.083 129.717C207.742 130.242 209.542 130.1 211.108 129.333L216.442 126.708L207.867 135.367L136.983 112.758L143.792 108.117V108.125Z" fill="#F3F3F3"/>
</g>
<path d="M179.891 81.625L144.525 107.05C142.35 108.608 142.883 111.983 145.433 112.792L205.325 131.9C207.5 132.592 209.883 132.1 211.6 130.592L242.708 103.283C244.625 101.6 243.95 98.4667 241.508 97.725L185.583 80.6833C183.641 80.0917 181.533 80.4417 179.883 81.625H179.891Z" stroke="black" stroke-width="0.833333" stroke-miterlimit="10"/>
<path d="M216.633 55.2083L187.85 75.9C185.658 77.475 186.225 80.875 188.8 81.6583L243.641 98.3667C245.8 99.025 248.141 98.5167 249.833 97.0333L275.866 74.1833C277.816 72.475 277.083 69.2833 274.583 68.6L222.158 54.2167C220.258 53.7 218.233 54.0583 216.633 55.2083Z" fill="#ECE0D6"/>
<mask id="mask6_69562_1288" style="mask-type:luminance" maskUnits="userSpaceOnUse" x="186" y="53" width="91" height="46">
<path d="M216.633 55.2083L187.85 75.9C185.658 77.475 186.225 80.875 188.8 81.6583L243.641 98.3667C245.8 99.025 248.141 98.5167 249.833 97.0333L275.866 74.1833C277.816 72.475 277.083 69.2833 274.583 68.6L222.158 54.2167C220.258 53.7 218.233 54.0583 216.633 55.2083Z" fill="white"/>
</mask>
<g mask="url(#mask6_69562_1288)">
<path d="M186.941 77.525L186.866 77.7917C186.641 78.5834 187.099 79.4167 187.891 79.65L243.908 96.425C245.424 96.8834 247.066 96.7334 248.474 96.0084L253.299 93.55L245.599 101.542L180.791 81.8334L186.933 77.525H186.941Z" fill="#F3F3F3"/>
</g>
<path d="M216.633 55.2083L187.85 75.9C185.658 77.475 186.225 80.875 188.8 81.6583L243.641 98.3667C245.8 99.025 248.141 98.5167 249.833 97.0333L275.866 74.1833C277.816 72.475 277.083 69.2833 274.583 68.6L222.158 54.2167C220.258 53.7 218.233 54.0583 216.633 55.2083Z" stroke="black" stroke-width="0.833333" stroke-miterlimit="10"/>
<path d="M283.791 71.125L342.849 87.3333C345.257 87.9917 346.057 91.0167 344.282 92.775L319.191 117.783C317.491 119.475 314.991 120.1 312.699 119.4L252.707 101.125C250.266 100.383 249.591 97.25 251.507 95.5667L277.774 72.5083C279.416 71.0667 281.682 70.5417 283.791 71.125Z" fill="#FF945B"/>
<mask id="mask7_69562_1288" style="mask-type:luminance" maskUnits="userSpaceOnUse" x="250" y="70" width="96" height="50">
<path d="M283.791 71.125L342.849 87.3333C345.257 87.9917 346.057 91.0167 344.282 92.775L319.191 117.783C317.491 119.475 314.991 120.1 312.699 119.4L252.707 101.125C250.266 100.383 249.591 97.25 251.507 95.5667L277.774 72.5083C279.416 71.0667 281.682 70.5417 283.791 71.125Z" fill="white"/>
</mask>
<g mask="url(#mask7_69562_1288)">
<path d="M251.016 96.9667L250.932 97.2583C250.691 98.125 251.191 99.0167 252.049 99.275L312.841 117.475C314.491 117.967 316.266 117.808 317.799 117.025L323.033 114.358L314.674 123.033L244.341 101.642L251.007 96.9667H251.016Z" fill="#F3F3F3"/>
</g>
<path d="M283.791 71.125L342.849 87.3333C345.257 87.9917 346.057 91.0167 344.282 92.775L319.191 117.783C317.491 119.475 314.991 120.1 312.699 119.4L252.707 101.125C250.266 100.383 249.591 97.25 251.507 95.5667L277.774 72.5083C279.416 71.0667 281.682 70.5417 283.791 71.125Z" stroke="black" stroke-width="0.833333" stroke-miterlimit="10"/>
<path d="M213.167 129.217L244.383 101.817C246.075 100.333 248.417 99.825 250.575 100.483L311.225 118.958C313.575 119.675 314.317 122.642 312.575 124.375L283.658 153.192C281.933 154.908 279.4 155.525 277.083 154.783L214.325 134.767C211.908 134 211.267 130.892 213.167 129.217Z" fill="#CEC4A1"/>
<mask id="mask8_69562_1288" style="mask-type:luminance" maskUnits="userSpaceOnUse" x="212" y="100" width="102" height="56">
<path d="M213.167 129.217L244.383 101.817C246.075 100.333 248.417 99.825 250.575 100.483L311.225 118.958C313.575 119.675 314.317 122.642 312.575 124.375L283.658 153.192C281.933 154.908 279.4 155.525 277.083 154.783L214.325 134.767C211.908 134 211.267 130.892 213.167 129.217Z" fill="white"/>
</mask>
<g mask="url(#mask8_69562_1288)">
<path d="M212.7 130.283L212.608 130.592C212.341 131.5 212.85 132.45 213.75 132.725L277.45 152.733C279.175 153.275 281.05 153.133 282.675 152.333L288.216 149.6L279.308 158.6L205.625 135.1L212.708 130.275L212.7 130.283Z" fill="#F3F3F3"/>
</g>
<path d="M213.167 129.217L244.383 101.817C246.075 100.333 248.417 99.825 250.575 100.483L311.225 118.958C313.575 119.675 314.317 122.642 312.575 124.375L283.658 153.192C281.933 154.908 279.4 155.525 277.083 154.783L214.325 134.767C211.908 134 211.267 130.892 213.167 129.217Z" stroke="black" stroke-width="0.833333" stroke-miterlimit="10"/>
<path d="M168.833 168.133L206.074 135.45C207.791 133.942 210.174 133.45 212.349 134.142L275.758 154.367C278.083 155.108 278.799 158.05 277.066 159.775L242.791 193.933C241.049 195.667 238.491 196.275 236.158 195.508L169.966 173.683C167.574 172.892 166.949 169.808 168.841 168.142L168.833 168.133Z" fill="#ECE0D6"/>
<mask id="mask9_69562_1288" style="mask-type:luminance" maskUnits="userSpaceOnUse" x="167" y="133" width="112" height="63">
<path d="M168.833 168.133L206.074 135.45C207.791 133.942 210.174 133.45 212.349 134.142L275.758 154.367C278.083 155.108 278.799 158.05 277.066 159.775L242.791 193.933C241.049 195.667 238.491 196.275 236.158 195.508L169.966 173.683C167.574 172.892 166.949 169.808 168.841 168.142L168.833 168.133Z" fill="white"/>
</mask>
<g mask="url(#mask9_69562_1288)">
<path d="M168.782 168.642L168.682 168.958C168.399 169.9 168.916 170.9 169.849 171.2L236.049 192.708C237.849 193.292 239.799 193.158 241.499 192.342L247.307 189.55L237.924 198.842L161.341 173.592L168.774 168.633L168.782 168.642Z" fill="#F3F3F3"/>
</g>
<path d="M168.833 168.133L206.074 135.45C207.791 133.942 210.174 133.45 212.349 134.142L275.758 154.367C278.083 155.108 278.799 158.05 277.066 159.775L242.791 193.933C241.049 195.667 238.491 196.275 236.158 195.508L169.966 173.683C167.574 172.892 166.949 169.808 168.841 168.142L168.833 168.133Z" stroke="black" stroke-width="0.833333" stroke-miterlimit="10"/>
<path d="M348.841 177.675L284.625 157.192C282.308 156.45 279.775 157.067 278.05 158.783L243.708 193.008C241.991 194.725 242.683 197.65 244.991 198.408L311.533 220.258C313.983 221.067 316.683 220.342 318.408 218.425L350.275 182.958C351.858 181.2 351.091 178.4 348.841 177.683V177.675Z" fill="#CEC4A1"/>
<mask id="mask10_69562_1288" style="mask-type:luminance" maskUnits="userSpaceOnUse" x="242" y="156" width="110" height="65">
<path d="M348.841 177.675L284.625 157.192C282.308 156.45 279.775 157.067 278.05 158.783L243.708 193.008C241.991 194.725 242.683 197.65 244.991 198.408L311.533 220.258C313.983 221.067 316.683 220.342 318.408 218.425L350.275 182.958C351.858 181.2 351.091 178.4 348.841 177.683V177.675Z" fill="white"/>
</mask>
<g mask="url(#mask10_69562_1288)">
<path d="M244.166 193.258L244.066 193.575C243.783 194.517 244.3 195.517 245.233 195.817L311.433 217.325C313.233 217.908 315.183 217.775 316.883 216.958L322.691 214.167L313.308 223.458L236.725 198.208L244.158 193.25L244.166 193.258Z" fill="#F3F3F3"/>
</g>
<path d="M348.841 177.675L284.625 157.192C282.308 156.45 279.775 157.067 278.05 158.783L243.708 193.008C241.991 194.725 242.683 197.65 244.991 198.408L311.533 220.258C313.983 221.067 316.683 220.342 318.408 218.425L350.275 182.958C351.858 181.2 351.091 178.4 348.841 177.683V177.675Z" stroke="black" stroke-width="0.833333" stroke-miterlimit="10"/>
<path d="M384.55 141.25L320.158 121.675C317.858 120.975 315.366 121.6 313.666 123.292L284.65 152.208C282.925 153.933 283.633 156.875 285.958 157.617L349.625 177.925C352.066 178.708 354.741 177.975 356.45 176.067L385.283 143.892C386.075 143.008 385.683 141.592 384.541 141.25H384.55Z" fill="#ECE0D6"/>
<mask id="mask11_69562_1288" style="mask-type:luminance" maskUnits="userSpaceOnUse" x="283" y="121" width="103" height="58">
<path d="M384.551 141.25L320.159 121.675C317.859 120.975 315.367 121.6 313.667 123.292L284.651 152.208C282.926 153.933 283.634 156.875 285.959 157.617L349.626 177.925C352.067 178.708 354.742 177.975 356.451 176.067L385.284 143.892C386.076 143.008 385.684 141.592 384.542 141.25H384.551Z" fill="white"/>
</mask>
<g mask="url(#mask11_69562_1288)">
<path d="M284.366 152.942L284.274 153.25C284.008 154.158 284.516 155.108 285.416 155.383L349.116 175.392C350.841 175.933 352.716 175.792 354.341 174.992L359.883 172.258L350.974 181.258L277.291 157.758L284.374 152.933L284.366 152.942Z" fill="#F3F3F3"/>
</g>
<path d="M384.55 141.25L320.158 121.675C317.858 120.975 315.366 121.6 313.666 123.292L284.65 152.208C282.925 153.933 283.633 156.875 285.958 157.617L349.625 177.925C352.066 178.708 354.741 177.975 356.45 176.067L385.283 143.892C386.075 143.008 385.683 141.592 384.541 141.25H384.55Z" stroke="black" stroke-width="0.833333" stroke-miterlimit="10"/>
<path d="M351.908 89.8167L412.525 106.45C414.858 107.092 415.7 109.958 414.092 111.758L389.767 138.892C388.075 140.775 385.45 141.508 383.025 140.775L321.633 122.108C319.275 121.392 318.542 118.425 320.283 116.692L345.592 91.475C347.25 89.825 349.658 89.1917 351.908 89.8083V89.8167Z" fill="#CEC4A1"/>
<mask id="mask12_69562_1288" style="mask-type:luminance" maskUnits="userSpaceOnUse" x="319" y="89" width="96" height="53">
<path d="M351.908 89.8167L412.525 106.45C414.858 107.092 415.7 109.958 414.092 111.758L389.767 138.892C388.075 140.775 385.45 141.508 383.025 140.775L321.633 122.108C319.275 121.392 318.542 118.425 320.283 116.692L345.592 91.475C347.25 89.825 349.658 89.1917 351.908 89.8083V89.8167Z" fill="white"/>
</mask>
<g mask="url(#mask12_69562_1288)">
<path d="M319.941 117.558L319.858 117.858C319.616 118.733 320.116 119.642 320.983 119.9L382.466 138.308C384.133 138.808 385.933 138.642 387.483 137.858L392.774 135.167L384.324 143.933L313.191 122.3L319.933 117.575L319.941 117.558Z" fill="#F3F3F3"/>
</g>
<path d="M351.908 89.8167L412.525 106.45C414.858 107.092 415.7 109.958 414.092 111.758L389.767 138.892C388.075 140.775 385.45 141.508 383.025 140.775L321.633 122.108C319.275 121.392 318.542 118.425 320.283 116.692L345.592 91.475C347.25 89.825 349.658 89.1917 351.908 89.8083V89.8167Z" stroke="black" stroke-width="0.833333" stroke-miterlimit="10"/>
<path d="M352.8 323.55L356.891 322.942C359.625 322.542 362.283 324.008 363.392 326.542L368.9 339.092C371.058 344 378.158 343.575 379.717 338.442L385.7 318.683L352.792 323.542L352.8 323.55Z" fill="black" stroke="black" stroke-width="0.833333" stroke-miterlimit="10"/>
</g>
<defs>
</defs>
</svg>
