<svg width="500" height="500" viewBox="0 0 500 500" fill="none" xmlns="http://www.w3.org/2000/svg">
<g>
<path d="M342.65 465.57L56.2001 410.229C48.3585 408.712 46.1668 398.537 52.6918 393.929L93.3751 365.187C103.058 358.345 115.017 355.545 126.725 357.379L413.983 402.362C421.317 403.512 424.233 412.495 418.975 417.737L383.458 453.112C372.758 463.771 357.475 468.437 342.65 465.57Z" fill="black" stroke="black" stroke-width="0.833333" stroke-miterlimit="10" stroke-linecap="round"/>
<path d="M462.484 179.746L142.742 68.6122C137.9 66.9289 132.759 66.2789 127.65 66.7122L90.6004 69.8122C87.3837 70.0789 84.467 71.7872 82.642 74.4455L76.9004 82.8455C74.7254 86.0289 73.1004 89.5455 72.0921 93.2622L27.6921 256.846C27.0421 259.229 27.2421 261.771 28.2504 264.021L36.6004 282.721C37.767 285.329 39.9171 287.362 42.5837 288.371L377.909 415.646C380.025 416.446 382.342 416.562 384.525 415.971L407.534 409.712C411.2 408.712 414.067 405.846 415.067 402.179L470.35 198.504C470.767 196.962 470.834 195.354 470.55 193.787L469.492 187.971C468.8 184.162 466.117 181.029 462.467 179.762L462.484 179.746Z" fill="#566578"/>
<mask id="mask0_69562_10132" style="mask-type:luminance" maskUnits="userSpaceOnUse" x="27" y="66" width="444" height="351">
<path d="M462.484 179.746L142.742 68.6122C137.9 66.9289 132.759 66.2789 127.65 66.7122L90.6004 69.8122C87.3837 70.0789 84.467 71.7872 82.642 74.4455L76.9004 82.8455C74.7254 86.0289 73.1004 89.5455 72.0921 93.2622L27.6921 256.846C27.0421 259.229 27.2421 261.771 28.2504 264.021L36.6004 282.721C37.767 285.329 39.9171 287.362 42.5837 288.371L377.909 415.646C380.025 416.446 382.342 416.562 384.525 415.971L407.534 409.712C411.2 408.712 414.067 405.846 415.067 402.179L470.35 198.504C470.767 196.962 470.834 195.354 470.55 193.787L469.492 187.971C468.8 184.162 466.117 181.029 462.467 179.762L462.484 179.746Z" fill="white"/>
</mask>
<g mask="url(#mask0_69562_10132)">
<path d="M85.5169 70.2371L73.6169 87.6537L26.6919 260.537L38.4169 286.804L375.834 414.87C378.692 415.954 381.859 414.337 382.659 411.387L435.525 216.612L451.992 187.737L218.65 105.454L85.5086 70.2454L85.5169 70.2371Z" fill="#FF5200"/>
<mask id="mask1_69562_10132" style="mask-type:luminance" maskUnits="userSpaceOnUse" x="26" y="70" width="426" height="346">
<path d="M85.5169 70.2371L73.6169 87.6537L26.6919 260.537L38.4169 286.804L375.834 414.87C378.692 415.954 381.859 414.337 382.659 411.387L435.525 216.612L451.992 187.737L218.65 105.454L85.5086 70.2454L85.5169 70.2371Z" fill="white"/>
</mask>
<g mask="url(#mask1_69562_10132)">
<path d="M26.7002 260.529L164.092 309.579C168.409 311.12 172.342 313.554 175.684 316.687C184.934 325.362 195.759 332.304 207.85 336.879C219.8 341.404 231.884 343.187 243.559 342.554C248.084 342.304 252.609 343.087 256.859 344.679L387.467 393.72L378.8 425.662L33.5586 293.929L26.6919 260.537L26.7002 260.529Z" fill="#963000"/>
<path d="M435.542 216.604L304.684 170.121C300.975 168.804 297.6 166.687 294.792 163.929C285.142 154.421 273.667 146.829 260.759 141.937C246.409 136.504 231.85 135.012 218.05 136.946C213.784 137.546 209.434 137.012 205.384 135.537L73.6252 87.6538L86.1336 62.5205L248.575 108.079L458.317 185.979L435.534 216.612L435.542 216.604Z" fill="#FF945B"/>
</g>
<path d="M85.5169 70.2371L73.6169 87.6537L26.6919 260.537L38.4169 286.804L375.834 414.87C378.692 415.954 381.859 414.337 382.659 411.387L435.525 216.612L451.992 187.737L218.65 105.454L85.5086 70.2454L85.5169 70.2371Z" stroke="black" stroke-width="0.833333" stroke-miterlimit="10"/>
<path d="M452 187.729L223.767 107.245C220.383 106.054 216.833 105.429 213.242 105.404L191.5 105.229C186.925 105.195 182.392 104.395 178.075 102.879L85.5168 70.2371L135.392 66.0621L475.517 184.279L452 187.737V187.729Z" fill="#C7C7C7" stroke="black" stroke-width="0.833333" stroke-miterlimit="10"/>
<path d="M461.934 183.279L454.634 184.954C450.642 185.87 447.334 188.645 445.742 192.42L435.534 216.595L382.575 411.72C381.959 414.004 384.05 416.095 386.334 415.479L413.467 408.095L470.992 196.154L469.567 188.312C468.925 184.762 465.45 182.47 461.934 183.279Z" fill="#566578"/>
<mask id="mask2_69562_10132" style="mask-type:luminance" maskUnits="userSpaceOnUse" x="382" y="183" width="89" height="233">
<path d="M461.934 183.279L454.634 184.954C450.642 185.87 447.334 188.645 445.742 192.42L435.534 216.595L382.575 411.72C381.959 414.004 384.05 416.095 386.334 415.479L413.467 408.095L470.992 196.154L469.567 188.312C468.925 184.762 465.45 182.47 461.934 183.279Z" fill="white"/>
</mask>
<g mask="url(#mask2_69562_10132)">
<path opacity="0.2" d="M460.334 182.962C461.067 184.354 461.242 185.97 460.834 187.487L400.692 409.054C400.351 410.312 399.584 411.412 398.526 412.17" stroke="#C7C7C7" stroke-width="0.833333" stroke-miterlimit="10"/>
</g>
<path d="M461.934 183.279L454.634 184.954C450.642 185.87 447.334 188.645 445.742 192.42L435.534 216.595L382.575 411.72C381.959 414.004 384.05 416.095 386.334 415.479L413.467 408.095L470.992 196.154L469.567 188.312C468.925 184.762 465.45 182.47 461.934 183.279Z" stroke="black" stroke-width="0.833333" stroke-miterlimit="10"/>
</g>
<path d="M462.484 179.746L142.742 68.6122C137.9 66.9289 132.759 66.2789 127.65 66.7122L90.6004 69.8122C87.3837 70.0789 84.467 71.7872 82.642 74.4455L76.9004 82.8455C74.7254 86.0289 73.1004 89.5455 72.0921 93.2622L27.6921 256.846C27.0421 259.229 27.2421 261.771 28.2504 264.021L36.6004 282.721C37.767 285.329 39.9171 287.362 42.5837 288.371L377.909 415.646C380.025 416.446 382.342 416.562 384.525 415.971L407.534 409.712C411.2 408.712 414.067 405.846 415.067 402.179L470.35 198.504C470.767 196.962 470.834 195.354 470.55 193.787L469.492 187.971C468.8 184.162 466.117 181.029 462.467 179.762L462.484 179.746Z" stroke="black" stroke-width="0.833333" stroke-miterlimit="10"/>
<path d="M316.625 267.879C303.817 315.07 257.225 339.729 212.567 322.946C167.909 306.162 142.092 254.296 154.9 207.104C167.709 159.912 214.3 135.254 258.959 152.037C303.617 168.82 329.434 220.687 316.625 267.879Z" fill="#C7C7C7" stroke="black" stroke-width="0.833333" stroke-miterlimit="10"/>
<path d="M310.159 268.345C297.492 315.012 252.334 339.629 209.292 323.337C166.25 307.046 141.625 256.012 154.292 209.345C166.959 162.679 212.117 138.062 255.159 154.354C298.2 170.645 322.825 221.679 310.159 268.345Z" fill="#F3F3F3" stroke="black" stroke-width="0.833333" stroke-miterlimit="10"/>
<path d="M304.392 266.237C292.55 309.854 250.342 332.87 210.109 317.637C169.875 302.404 146.859 254.704 158.692 211.079C170.534 167.462 212.742 144.445 252.975 159.679C293.209 174.912 316.225 222.612 304.392 266.237Z" fill="black"/>
<mask id="mask3_69562_10132" style="mask-type:luminance" maskUnits="userSpaceOnUse" x="155" y="154" width="153" height="169">
<path d="M304.392 266.237C292.55 309.854 250.342 332.87 210.109 317.637C169.875 302.404 146.859 254.704 158.692 211.079C170.534 167.462 212.742 144.445 252.975 159.679C293.209 174.912 316.225 222.612 304.392 266.237Z" fill="white"/>
</mask>
<g mask="url(#mask3_69562_10132)">
<path d="M173.651 173.687L186.976 188.637L243.201 178.645L250.159 153.004C250.159 153.004 203.392 140.195 173.651 173.687Z" fill="#566578" stroke="black" stroke-width="0.833333" stroke-miterlimit="10"/>
<path d="M289.459 261.045C279.342 298.312 243.284 317.97 208.909 304.962C174.534 291.954 299.576 223.779 289.459 261.045Z" fill="#C7C7C7"/>
</g>
<path d="M304.392 266.237C292.55 309.854 250.342 332.87 210.109 317.637C169.875 302.404 146.859 254.704 158.692 211.079C170.534 167.462 212.742 144.445 252.975 159.679C293.209 174.912 316.225 222.612 304.392 266.237Z" stroke="black" stroke-width="0.833333" stroke-miterlimit="10"/>
<path d="M287.917 260.462C278.05 296.804 242.884 315.97 209.367 303.287C175.85 290.604 156.675 250.854 166.534 214.52C176.4 178.179 211.567 159.012 245.084 171.695C278.6 184.379 297.775 224.129 287.917 260.462Z" fill="#566578"/>
<mask id="mask4_69562_10132" style="mask-type:luminance" maskUnits="userSpaceOnUse" x="163" y="167" width="128" height="141">
<path d="M287.917 260.462C278.05 296.804 242.884 315.97 209.367 303.287C175.85 290.604 156.675 250.854 166.534 214.52C176.4 178.179 211.567 159.012 245.084 171.695C278.6 184.379 297.775 224.129 287.917 260.462Z" fill="white"/>
</mask>
<g mask="url(#mask4_69562_10132)">
<path d="M193.851 176.537L202.392 183.862L282.701 220.396L292.284 219.812C292.284 219.812 285.267 174.996 237.167 163.571C189.067 152.137 193.842 176.537 193.842 176.537H193.851Z" fill="black" stroke="black" stroke-width="0.833333" stroke-miterlimit="10"/>
<path d="M186.484 262.296L167.343 268.146L190.026 298.337L201.643 280.687L186.484 262.296Z" fill="black" stroke="black" stroke-width="0.833333" stroke-miterlimit="10"/>
</g>
<path d="M287.917 260.462C278.05 296.804 242.884 315.97 209.367 303.287C175.85 290.604 156.675 250.854 166.534 214.52C176.4 178.179 211.567 159.012 245.084 171.695C278.6 184.379 297.775 224.129 287.917 260.462Z" stroke="black" stroke-width="0.833333" stroke-miterlimit="10"/>
<path d="M283.433 259.012C274.592 291.595 243.683 308.954 214.392 297.787C185.108 286.62 168.533 251.154 177.383 218.57C186.225 185.987 217.133 168.629 246.425 179.795C275.708 190.962 292.283 226.429 283.433 259.012Z" fill="#566578"/>
<mask id="mask5_69562_10132" style="mask-type:luminance" maskUnits="userSpaceOnUse" x="175" y="176" width="111" height="126">
<path d="M283.433 259.012C274.592 291.595 243.683 308.954 214.392 297.787C185.108 286.62 168.533 251.154 177.383 218.57C186.225 185.987 217.133 168.629 246.425 179.795C275.708 190.962 292.283 226.429 283.433 259.012Z" fill="white"/>
</mask>
<g mask="url(#mask5_69562_10132)">
<path d="M276.434 206.02L265.534 214.17L273.343 246.77L286.534 247.587C286.534 247.587 291.101 223.337 276.434 206.012V206.02Z" fill="#C7C7C7"/>
</g>
<path d="M283.433 259.012C274.592 291.595 243.683 308.954 214.392 297.787C185.108 286.62 168.533 251.154 177.383 218.57C186.225 185.987 217.133 168.629 246.425 179.795C275.708 190.962 292.283 226.429 283.433 259.012Z" stroke="black" stroke-width="0.833333" stroke-miterlimit="10"/>
<path d="M273.275 255.104C266.175 281.262 241.358 295.195 217.85 286.237C194.342 277.27 181.042 248.795 188.142 222.645C195.242 196.487 220.058 182.554 243.567 191.512C267.075 200.479 280.375 228.954 273.275 255.104Z" fill="#C7C7C7"/>
<path d="M273.308 254.987C266.4 280.445 242.25 294.004 219.375 285.279C196.5 276.554 183.55 248.845 190.458 223.387C197.367 197.929 221.517 184.37 244.392 193.095C267.267 201.82 280.217 229.529 273.308 254.987Z" fill="black" stroke="black" stroke-width="0.833333" stroke-miterlimit="10"/>
<path d="M262.492 217.262L220.834 202.07C218.9 201.37 216.75 201.562 215 202.637C207.109 207.454 200.859 215.595 198.017 226.079C195.784 234.304 195.967 242.804 198.092 250.612C198.675 252.745 200.25 254.47 202.325 255.229L251.734 273.245C254.209 274.145 256.975 273.52 258.859 271.67C263.65 266.945 267.367 260.704 269.375 253.295C272.417 242.087 270.984 230.37 266.225 220.595C265.467 219.037 264.109 217.854 262.484 217.262H262.492Z" fill="#566578" stroke="black" stroke-width="0.833333" stroke-miterlimit="10"/>
<path d="M217.625 210.87L207.725 247.337C206.975 250.087 208.434 252.962 211.1 253.979L247.825 268.029C250.9 269.204 254.309 267.47 255.175 264.295L265.292 227.037C266.05 224.237 264.534 221.329 261.809 220.354L224.867 207.095C221.817 206.004 218.475 207.737 217.625 210.87Z" fill="#566578"/>
<mask id="mask6_69562_10132" style="mask-type:luminance" maskUnits="userSpaceOnUse" x="207" y="206" width="59" height="63">
<path d="M217.625 210.87L207.725 247.337C206.975 250.087 208.434 252.962 211.1 253.979L247.825 268.029C250.9 269.204 254.309 267.47 255.175 264.295L265.292 227.037C266.05 224.237 264.534 221.329 261.809 220.354L224.867 207.095C221.817 206.004 218.475 207.737 217.625 210.87Z" fill="white"/>
</mask>
<g mask="url(#mask6_69562_10132)">
<path d="M245.908 216.52L218.642 231.487C215.7 233.104 213.217 235.429 211.4 238.245L209.308 241.504L216.708 210.195L217.442 212.587C217.842 213.879 219.292 214.529 220.525 213.962L228.758 210.17L245.908 216.52Z" fill="#C7C7C7"/>
</g>
<path d="M217.625 210.87L207.725 247.337C206.975 250.087 208.434 252.962 211.1 253.979L247.825 268.029C250.9 269.204 254.309 267.47 255.175 264.295L265.292 227.037C266.05 224.237 264.534 221.329 261.809 220.354L224.867 207.095C221.817 206.004 218.475 207.737 217.625 210.87Z" stroke="black" stroke-width="0.833333" stroke-miterlimit="10"/>
<path d="M228.45 213.054L257.85 223.312L261.217 230.079L253.742 257.629L247.384 261.271L218.259 250.604L215.35 243.962L222.95 215.954L228.45 213.054Z" fill="black"/>
<mask id="mask7_69562_10132" style="mask-type:luminance" maskUnits="userSpaceOnUse" x="215" y="213" width="47" height="49">
<path d="M228.45 213.054L257.85 223.312L261.217 230.079L253.742 257.629L247.384 261.271L218.259 250.604L215.35 243.962L222.95 215.954L228.45 213.054Z" fill="white"/>
</mask>
<g mask="url(#mask7_69562_10132)">
<path d="M257.484 243.82C254.45 254.995 243.842 260.954 233.8 257.12C223.75 253.287 218.067 241.12 221.1 229.945C224.134 218.77 234.742 212.812 244.783 216.645C254.833 220.479 260.517 232.645 257.484 243.82Z" fill="black" stroke="#566578" stroke-width="0.833333" stroke-miterlimit="10"/>
<path d="M252.25 234.937C250.942 239.746 246.383 242.304 242.067 240.654C237.75 239.004 235.3 233.779 236.608 228.971C237.917 224.162 242.475 221.604 246.792 223.254C251.108 224.904 253.558 230.129 252.25 234.937Z" fill="#C7C7C7"/>
</g>
<path d="M228.45 213.054L257.85 223.312L261.217 230.079L253.742 257.629L247.384 261.271L218.259 250.604L215.35 243.962L222.95 215.954L228.45 213.054Z" stroke="black" stroke-width="0.833333" stroke-miterlimit="10"/>
<path d="M245.084 171.695C263.8 178.779 278.05 194.304 285.259 212.962" stroke="#C7C7C7" stroke-width="0.833333" stroke-miterlimit="10"/>
<path d="M267.95 102.137L254.783 103.329C252.066 103.579 249.608 105.029 248.075 107.287L243.408 114.179L300.7 134.379L323.391 131.221L323.283 122.396C323.283 122.187 323.316 121.979 323.341 121.762C323.5 120.621 322.825 119.496 321.708 119.112L274.591 102.937C272.458 102.204 270.191 101.929 267.941 102.137H267.95Z" fill="#C7C7C7"/>
<mask id="mask8_69562_10132" style="mask-type:luminance" maskUnits="userSpaceOnUse" x="243" y="102" width="81" height="33">
<path d="M267.95 102.137L254.783 103.329C252.066 103.579 249.608 105.029 248.075 107.287L243.408 114.179L300.7 134.379L323.391 131.221L323.283 122.396C323.283 122.187 323.316 121.979 323.341 121.762C323.5 120.621 322.825 119.496 321.708 119.112L274.591 102.937C272.458 102.204 270.191 101.929 267.941 102.137H267.95Z" fill="white"/>
</mask>
<g mask="url(#mask8_69562_10132)">
<path d="M300.699 134.379L323.391 131.22L323.341 121.87C323.608 120.904 322.816 119.962 321.816 120.054L304.266 121.687C302.899 121.812 301.816 122.895 301.683 124.262L300.699 134.387V134.379Z" fill="#566578" stroke="black" stroke-width="0.833333" stroke-miterlimit="10"/>
<path d="M243.408 114.17L248.425 106.77C249.641 104.97 251.916 104.22 253.966 104.945L299.975 121.212C301.116 121.62 301.841 122.745 301.725 123.954L300.708 134.37L243.416 114.17H243.408Z" fill="black" stroke="black" stroke-width="0.833333" stroke-miterlimit="10"/>
<path d="M323.891 119.862L271.358 101.829" stroke="black" stroke-width="0.833333" stroke-miterlimit="10"/>
</g>
<path d="M267.95 102.137L254.783 103.329C252.066 103.579 249.608 105.029 248.075 107.287L243.408 114.179L300.7 134.379L323.391 131.221L323.283 122.396C323.283 122.187 323.316 121.979 323.341 121.762C323.5 120.621 322.825 119.496 321.708 119.112L274.591 102.937C272.458 102.204 270.191 101.929 267.941 102.137H267.95Z" stroke="black" stroke-width="0.833333" stroke-miterlimit="10"/>
<path d="M167.509 69.0038L162.875 66.6121C162.875 66.6121 154.275 65.6704 150.117 68.3954C145.967 71.1204 154.35 71.6704 154.35 71.6704L167.509 69.0038Z" fill="#566578" stroke="black" stroke-width="0.833333" stroke-linecap="round" stroke-linejoin="round"/>
<path d="M148.667 85.4206L154.883 69.6873C154.883 69.6873 154.883 64.6039 167.5 69.0039L164.908 78.5373L148.658 85.4123L148.667 85.4206Z" fill="black" stroke="black" stroke-width="0.833333" stroke-linecap="round" stroke-linejoin="round"/>
<path d="M204.983 100.704C204.125 103.87 190.816 103.02 175.266 98.8038C159.716 94.5788 147.808 88.5871 148.666 85.4205L157.583 71.4371L204.358 84.1371L204.983 100.712V100.704Z" fill="#566578"/>
<mask id="mask9_69562_10132" style="mask-type:luminance" maskUnits="userSpaceOnUse" x="148" y="71" width="57" height="32">
<path d="M204.983 100.704C204.125 103.87 190.816 103.02 175.266 98.8038C159.716 94.5788 147.808 88.5871 148.666 85.4205L157.583 71.4371L204.358 84.1371L204.983 100.712V100.704Z" fill="white"/>
</mask>
<g mask="url(#mask9_69562_10132)">
<path d="M172.2 82.3788C172.2 82.3788 169.966 83.1622 167.558 88.4372C165.15 93.7122 165.866 97.0788 165.866 97.0788L152.65 89.9538C152.65 89.9538 155.05 89.4705 158.675 83.9122C161.258 79.9455 160.5 77.3372 160.5 77.3372C160.5 77.3372 162.666 79.0538 172.208 82.3788H172.2Z" fill="black" stroke="black" stroke-width="0.833333" stroke-linecap="round" stroke-linejoin="round"/>
</g>
<path d="M204.983 100.704C204.125 103.87 190.816 103.02 175.266 98.8038C159.716 94.5788 147.808 88.5871 148.666 85.4205L157.583 71.4371L204.358 84.1371L204.983 100.712V100.704Z" stroke="black" stroke-width="0.833333" stroke-miterlimit="10"/>
<path d="M204.368 84.1383C205.083 81.5044 195.192 76.5264 182.276 73.0196C169.36 69.5128 158.31 68.8051 157.595 71.439C156.88 74.0729 166.771 79.0508 179.687 82.5576C192.603 86.0645 203.653 86.7721 204.368 84.1383Z" fill="#566578" stroke="black" stroke-width="0.833333" stroke-miterlimit="10"/>
<path d="M198.805 81.6115C199.379 79.4973 191.98 75.6483 182.28 73.0146C172.579 70.3809 164.25 69.9597 163.676 72.0739C163.102 74.1881 170.501 78.037 180.201 80.6708C189.902 83.3045 198.231 83.7256 198.805 81.6115Z" fill="#C7C7C7" stroke="black" stroke-width="0.833333" stroke-miterlimit="10"/>
<path d="M100.159 69.0121L115.751 67.7704L148.501 71.4037L137.526 77.6871L100.159 69.0121Z" fill="#566578" stroke="black" stroke-width="0.833333" stroke-linecap="round" stroke-linejoin="round"/>
<path d="M207.292 85.6537C206.842 86.4454 204.683 87.5037 195.783 86.6704C194.992 86.5954 194.283 87.1871 194.225 87.9871L193.183 102.312C193.183 102.312 205.275 104.604 213.733 103.979C222.192 103.345 223.442 103.687 226.958 104.645C230.475 105.604 245.425 111.204 245.425 111.204L249.25 105.887L227.533 92.5204C223.467 90.0204 219.067 88.1121 214.458 86.8621L208.45 85.2287C208.017 85.1121 207.525 85.2621 207.308 85.6537H207.292Z" fill="#566578"/>
<mask id="mask10_69562_10132" style="mask-type:luminance" maskUnits="userSpaceOnUse" x="193" y="85" width="57" height="27">
<path d="M207.292 85.6537C206.842 86.4454 204.683 87.5037 195.783 86.6704C194.992 86.5954 194.283 87.1871 194.225 87.9871L193.183 102.312C193.183 102.312 205.275 104.604 213.733 103.979C222.192 103.345 223.442 103.687 226.958 104.645C230.475 105.604 245.425 111.204 245.425 111.204L249.25 105.887L227.533 92.5204C223.467 90.0204 219.067 88.1121 214.458 86.8621L208.45 85.2287C208.017 85.1121 207.525 85.2621 207.308 85.6537H207.292Z" fill="white"/>
</mask>
<g mask="url(#mask10_69562_10132)">
<path d="M195.059 86.7954L213.534 93.0204C216.125 93.8954 218.625 95.0538 220.967 96.4621L245.417 111.195L192.45 103.454L193.034 87.5454L195.059 86.7871V86.7954Z" fill="black" stroke="black" stroke-width="0.833333" stroke-miterlimit="10"/>
</g>
<path d="M207.292 85.6537C206.842 86.4454 204.683 87.5037 195.783 86.6704C194.992 86.5954 194.283 87.1871 194.225 87.9871L193.183 102.312C193.183 102.312 205.275 104.604 213.733 103.979C222.192 103.345 223.442 103.687 226.958 104.645C230.475 105.604 245.425 111.204 245.425 111.204L249.25 105.887L227.533 92.5204C223.467 90.0204 219.067 88.1121 214.458 86.8621L208.45 85.2287C208.017 85.1121 207.525 85.2621 207.308 85.6537H207.292Z" stroke="black" stroke-width="0.833333" stroke-miterlimit="10"/>
<path d="M148.667 85.4205L100.159 69.0122L139.317 72.9705C142.717 73.3122 146.101 72.1705 148.584 69.8288L150.117 68.3955L154.884 69.6872" fill="black"/>
<path d="M148.667 85.4205L100.159 69.0122L139.317 72.9705C142.717 73.3122 146.101 72.1705 148.584 69.8288L150.117 68.3955L154.884 69.6872" stroke="black" stroke-width="0.833333" stroke-linecap="round" stroke-linejoin="round"/>
<path d="M326.4 163.079L392.766 186.004C399.9 188.47 403.716 196.229 401.3 203.387L400.016 207.179C397.633 214.254 389.916 218.004 382.883 215.52L316.741 192.17C309.766 189.712 305.991 182.162 308.2 175.104L309.258 171.729C311.516 164.529 319.266 160.612 326.4 163.079Z" fill="black"/>
<mask id="mask11_69562_10132" style="mask-type:luminance" maskUnits="userSpaceOnUse" x="307" y="162" width="96" height="55">
<path d="M326.399 163.079L392.765 186.004C399.899 188.47 403.715 196.229 401.299 203.387L400.015 207.179C397.632 214.254 389.915 218.004 382.882 215.52L316.74 192.17C309.765 189.712 305.99 182.162 308.199 175.104L309.257 171.729C311.515 164.529 319.265 160.612 326.399 163.079Z" fill="white"/>
</mask>
<g mask="url(#mask11_69562_10132)">
<path d="M316.557 160.779L318.174 165.02C318.174 165.02 321.316 163.287 325.766 164.495C330.216 165.704 390.199 186.679 393.241 188.079C396.282 189.479 400.166 192.295 400.091 199.729L402.766 199.537C402.766 199.537 404.041 188.787 393.382 184.92C377.882 179.295 323.666 160.387 323.666 160.387L316.549 160.77L316.557 160.779Z" fill="#566578"/>
</g>
<path d="M326.4 163.079L392.766 186.004C399.9 188.47 403.716 196.229 401.3 203.387L400.016 207.179C397.633 214.254 389.916 218.004 382.883 215.52L316.741 192.17C309.766 189.712 305.991 182.162 308.2 175.104L309.258 171.729C311.516 164.529 319.266 160.612 326.4 163.079Z" stroke="black" stroke-width="0.833333" stroke-miterlimit="10"/>
<path d="M326.758 166.87L390.392 188.77C395.875 190.662 398.8 196.629 396.95 202.12L395.967 205.037C394.133 210.47 388.208 213.354 382.8 211.445L319.333 189.22C313.975 187.329 311.075 181.537 312.775 176.112L313.583 173.52C315.317 167.987 321.275 164.987 326.75 166.879L326.758 166.87Z" fill="#566578"/>
<mask id="mask12_69562_10132" style="mask-type:luminance" maskUnits="userSpaceOnUse" x="312" y="166" width="86" height="47">
<path d="M326.757 166.87L390.391 188.77C395.874 190.662 398.799 196.629 396.949 202.12L395.966 205.037C394.132 210.47 388.207 213.354 382.799 211.445L319.332 189.22C313.974 187.329 311.074 181.537 312.774 176.112L313.582 173.52C315.316 167.987 321.274 164.987 326.749 166.879L326.757 166.87Z" fill="white"/>
</mask>
<g mask="url(#mask12_69562_10132)">
<path d="M328 165.479L391.633 187.379C397.116 189.27 400.041 195.237 398.191 200.729L397.208 203.645C395.374 209.079 389.45 211.962 384.041 210.054L320.575 187.829C315.216 185.937 312.316 180.145 314.016 174.72L314.825 172.129C316.558 166.595 322.516 163.595 327.991 165.487L328 165.479Z" fill="#C7C7C7"/>
</g>
<path d="M326.758 166.87L390.392 188.77C395.875 190.662 398.8 196.629 396.95 202.12L395.967 205.037C394.133 210.47 388.208 213.354 382.8 211.445L319.333 189.22C313.975 187.329 311.075 181.537 312.775 176.112L313.583 173.52C315.317 167.987 321.275 164.987 326.75 166.879L326.758 166.87Z" stroke="black" stroke-width="0.833333" stroke-miterlimit="10"/>
<path d="M325.7 166.562L318.133 188.704" stroke="black" stroke-width="0.833333" stroke-miterlimit="10"/>
<path d="M391.608 189.671L384.042 211.812" stroke="black" stroke-width="0.833333" stroke-miterlimit="10"/>
<path d="M324.45 170.362L390.292 192.87" stroke="black" stroke-width="0.833333" stroke-miterlimit="10"/>
<path d="M323.134 174.212L388.967 196.72" stroke="black" stroke-width="0.833333" stroke-miterlimit="10"/>
<path d="M321.808 178.062L387.65 200.57" stroke="black" stroke-width="0.833333" stroke-miterlimit="10"/>
<path d="M320.484 181.912L386.325 204.42" stroke="black" stroke-width="0.833333" stroke-miterlimit="10"/>
<path d="M319.159 185.754L385.001 208.262" stroke="black" stroke-width="0.833333" stroke-miterlimit="10"/>
<path d="M62.7172 108.662L26.4172 242.404C25.2839 246.595 27.5672 250.954 31.6589 252.395L104.401 278.104C108.001 279.379 111.817 276.895 112.134 273.095C113.217 259.87 116.317 231.145 124.276 201.82C132.234 172.495 143.659 147.995 149.042 137.345C150.617 134.237 149.109 130.454 145.834 129.262L73.5589 103.037C69.0005 101.379 63.9922 103.979 62.7255 108.662H62.7172Z" fill="black"/>
<mask id="mask13_69562_10132" style="mask-type:luminance" maskUnits="userSpaceOnUse" x="26" y="102" width="124" height="177">
<path d="M62.7172 108.662L26.4172 242.404C25.2839 246.595 27.5672 250.954 31.6589 252.395L104.401 278.104C108.001 279.379 111.817 276.895 112.134 273.095C113.217 259.87 116.317 231.145 124.276 201.82C132.234 172.495 143.659 147.995 149.042 137.345C150.617 134.237 149.109 130.454 145.834 129.262L73.5589 103.037C69.0005 101.379 63.9922 103.979 62.7255 108.662H62.7172Z" fill="white"/>
</mask>
<g mask="url(#mask13_69562_10132)">
<path d="M59.5833 97.5205L112.783 123.654L74.3417 265.279L19.1833 245.07L59.5833 97.5205Z" fill="#566578" stroke="black" stroke-width="0.833333" stroke-miterlimit="10"/>
<path d="M107.234 123.104L153.292 132.745" stroke="#566578" stroke-width="0.833333" stroke-miterlimit="10"/>
</g>
<path d="M62.7172 108.662L26.4172 242.404C25.2839 246.595 27.5672 250.954 31.6589 252.395L104.401 278.104C108.001 279.379 111.817 276.895 112.134 273.095C113.217 259.87 116.317 231.145 124.276 201.82C132.234 172.495 143.659 147.995 149.042 137.345C150.617 134.237 149.109 130.454 145.834 129.262L73.5589 103.037C69.0005 101.379 63.9922 103.979 62.7255 108.662H62.7172Z" stroke="black" stroke-width="0.833333" stroke-miterlimit="10"/>
</g>
<defs>
</defs>
</svg>
