<svg width="500" height="500" viewBox="0 0 500 500" fill="none" xmlns="http://www.w3.org/2000/svg">
<g>
<path d="M338.259 479.967C335.859 481.867 332.242 482.375 328.834 481.275L201.375 440.392C200.167 440 198.934 439.683 197.692 439.433C195.617 439.017 191.667 438.542 188.434 437.65C182.775 436.083 181.192 433.925 181.192 433.925L170.884 430.617C170.884 430.617 167.95 430.542 163.792 429.358C161.884 428.817 160.459 428.15 159.475 427.592C157.709 426.583 155.8 425.783 153.842 425.158C153.842 425.158 54.592 393.408 43.9503 389.908C40.342 388.725 35.2587 387.017 30.1003 385.275C22.0587 382.558 20.642 372.25 27.742 368.133C28.717 367.567 29.6587 367.017 30.5503 366.492C38.817 361.642 138.909 302.858 151.017 295.692C160.767 289.917 181.4 279.983 189.075 276.333C190.967 275.433 193.267 275.175 195.559 275.633C201.734 276.85 209.95 279.267 220.175 281.5C248.417 287.658 254.134 290.55 266.942 290.367C271.95 290.3 275.967 291.483 279.017 292.775C280.467 293.383 281.8 294.192 283.017 295.117C284.584 296.317 287.65 298.367 292.442 300.35C292.442 300.35 310.917 304.942 315.142 306.008L374.609 320.9L383.117 318.825C385.659 318.208 388.467 318.325 391.134 319.167C393.8 320.008 397.217 321.183 401.417 322.892C407.442 325.342 413.134 329.558 440.792 336.483C449.267 338.608 470.05 344.533 470.05 344.533C474.609 346.192 477.542 350.183 477.092 354.108C476.742 357.175 476.184 360.892 475.309 364.417C474.459 367.842 472.717 371.533 471 374.65C468.584 379.025 465.242 382.917 461.125 386.183L338.242 479.975L338.259 479.967Z" fill="black"/>
<path d="M476.9 244.075C476.9 244.075 471.141 242.483 464.45 240.683C464.458 240.683 464.475 240.683 464.491 240.683L434.475 232.942C434.475 232.942 421.125 228.383 420.766 228.358C414.466 225.842 411.425 223.875 408.25 222.517C407.275 222.1 406.341 221.717 405.441 221.358C402.483 220.183 399.941 219.308 397.991 218.692C395.325 217.85 392.458 217.9 389.816 218.833L385.616 220.317C384.508 220.65 382.941 221.2 380.975 221.95L321.216 207.967C316.966 206.958 298.408 202.667 298.408 202.667C293.65 200.583 290.658 198.3 289.141 196.95C287.966 195.9 286.65 195.017 285.216 194.375C282.183 193.017 278.158 191.85 273.041 192.283C264.733 192.983 259.425 191.992 249.408 189.758C244.658 188.7 238.841 187.358 231.141 185.792L209.6 181.117C206.433 180.375 203.6 179.733 201.083 179.308C198.775 178.917 196.4 179.383 194.4 180.617C186.308 185.592 164.525 199.108 154.15 206.808C147.825 211.5 116.841 234.367 86.9331 256.433L55.4664 279.642C38.4164 292.217 26.0831 301.308 26.0831 301.308C18.8331 306.658 14.3581 315.05 14.1914 324.067C14.1914 324.3 14.1914 324.542 14.1914 324.783C14.1914 338.975 27.1331 343.775 27.1331 343.775L137.025 379.025C138.983 379.65 140.875 380.492 142.616 381.6C143.583 382.217 144.991 382.925 146.9 383.45C148.266 383.825 149.508 384.067 150.558 384.225C150.558 384.225 150.558 384.225 150.566 384.225C152.708 384.542 154.058 384.492 154.058 384.492L157.583 385.625C158.366 386.292 159.291 386.833 160.391 387.183L160.775 386.65L164.366 387.8C164.366 387.8 165.833 390.325 171.508 391.833C173.591 392.383 175.983 392.708 177.983 392.967C179.1 393.108 180.091 393.233 180.841 393.358C182.091 393.575 183.333 393.883 184.541 394.267L207.483 401.625C209.625 402.483 211.025 402.758 211.025 402.758L312 435.15C315.408 436.242 319.141 435.375 321.725 432.9L327.408 427.442L334.2 420.917L464.891 295.35C469.325 291.092 473.016 286.117 475.783 280.633C477.758 276.725 479.791 272.108 480.9 267.883C482.041 263.533 482.866 258.975 483.433 255.217C484.158 250.417 481.441 245.767 476.9 244.058V244.075Z" fill="#FF5200"/>
<mask id="mask0_69562_1129" style="mask-type:luminance" maskUnits="userSpaceOnUse" x="14" y="179" width="470" height="257">
<path d="M476.9 244.075C476.9 244.075 471.141 242.483 464.45 240.683C464.458 240.683 464.475 240.683 464.491 240.683L434.475 232.942C434.475 232.942 421.125 228.383 420.766 228.358C414.466 225.842 411.425 223.875 408.25 222.517C407.275 222.1 406.341 221.717 405.441 221.358C402.483 220.183 399.941 219.308 397.991 218.692C395.325 217.85 392.458 217.9 389.816 218.833L385.616 220.317C384.508 220.65 382.941 221.2 380.975 221.95L321.216 207.967C316.966 206.958 298.408 202.667 298.408 202.667C293.65 200.583 290.658 198.3 289.141 196.95C287.966 195.9 286.65 195.017 285.216 194.375C282.183 193.017 278.158 191.85 273.041 192.283C264.733 192.983 259.425 191.992 249.408 189.758C244.658 188.7 238.841 187.358 231.141 185.792L209.6 181.117C206.433 180.375 203.6 179.733 201.083 179.308C198.775 178.917 196.4 179.383 194.4 180.617C186.308 185.592 164.525 199.108 154.15 206.808C147.825 211.5 116.841 234.367 86.9331 256.433L55.4664 279.642C38.4164 292.217 26.0831 301.308 26.0831 301.308C18.8331 306.658 14.3581 315.05 14.1914 324.067C14.1914 324.3 14.1914 324.542 14.1914 324.783C14.1914 338.975 27.1331 343.775 27.1331 343.775L137.025 379.025C138.983 379.65 140.875 380.492 142.616 381.6C143.583 382.217 144.991 382.925 146.9 383.45C148.266 383.825 149.508 384.067 150.558 384.225C150.558 384.225 150.558 384.225 150.566 384.225C152.708 384.542 154.058 384.492 154.058 384.492L157.583 385.625C158.366 386.292 159.291 386.833 160.391 387.183L160.775 386.65L164.366 387.8C164.366 387.8 165.833 390.325 171.508 391.833C173.591 392.383 175.983 392.708 177.983 392.967C179.1 393.108 180.091 393.233 180.841 393.358C182.091 393.575 183.333 393.883 184.541 394.267L207.483 401.625C209.625 402.483 211.025 402.758 211.025 402.758L312 435.15C315.408 436.242 319.141 435.375 321.725 432.9L327.408 427.442L334.2 420.917L464.891 295.35C469.325 291.092 473.016 286.117 475.783 280.633C477.758 276.725 479.791 272.108 480.9 267.883C482.041 263.533 482.866 258.975 483.433 255.217C484.158 250.417 481.441 245.767 476.9 244.058V244.075Z" fill="white"/>
</mask>
<g mask="url(#mask0_69562_1129)">
<path d="M323.993 430.733C323.993 430.733 317.909 434.142 317.334 430.733C314.551 413.983 327.268 399.483 352.843 375.683C378.426 351.875 445.693 285.925 455.618 276.458C470.718 262.067 473.143 246.833 481.776 251.083C490.409 255.342 483.043 274.167 467.334 298.658C451.626 323.15 323.976 430.725 323.976 430.725L323.993 430.733Z" fill="#963000"/>
<mask id="mask1_69562_1129" style="mask-type:luminance" maskUnits="userSpaceOnUse" x="316" y="250" width="170" height="183">
<path d="M323.994 430.733C323.994 430.733 317.91 434.142 317.335 430.733C314.552 413.983 327.269 399.483 352.844 375.683C378.427 351.875 445.694 285.925 455.619 276.458C470.719 262.067 473.144 246.833 481.777 251.083C490.41 255.342 483.044 274.167 467.335 298.658C451.627 323.15 323.977 430.725 323.977 430.725L323.994 430.733Z" fill="white"/>
</mask>
<g mask="url(#mask1_69562_1129)">
<path d="M369.018 360.15C386.718 363.892 384.335 372.767 384.335 372.767C384.335 372.767 356.868 407.108 358.226 397.85C359.693 387.85 343.018 385.133 343.018 385.133L369.018 360.158V360.15Z" fill="#F3F3F3"/>
</g>
</g>
<path d="M464.483 240.683L464.842 240.783C464.842 240.783 464.717 240.717 464.483 240.683Z" fill="#FF5200"/>
<path d="M211.025 323.242C211.025 323.242 318.725 358.692 336.009 363.925C339.667 365.033 343.334 365.667 345.575 366.817C353.925 371.1 352.842 375.683 352.842 375.683L381.617 348.033C381.617 348.033 382.767 340.542 374.05 337.7C366.625 335.275 242 297.208 242 297.208L211.025 323.25V323.242Z" fill="#F3F3F3"/>
<path d="M55.4751 279.65C55.4751 279.65 58.6334 278.808 61.3418 279.592C64.0501 280.375 67.2418 282.9 67.2418 282.9L92.9334 290.85L178.7 312.542C179.692 312.792 180.742 312.55 181.525 311.9L208.85 289.142C209.292 288.775 209.133 288.058 208.567 287.917L148.233 272.742C148.233 272.742 115.433 265.625 109.542 264.058C101.117 261.833 97.2084 256.958 91.2501 255.975C88.1418 255.467 86.9418 256.433 86.9418 256.433L55.4751 279.642V279.65Z" fill="#F3F3F3"/>
<path d="M422.85 229.167C422.85 229.167 421.025 227.358 417.375 229.425C413.725 231.5 391.717 253.1 391.717 253.1L436.308 268L459.25 243.233C460.55 241.825 462.3 240.917 464.192 240.65L435.842 233.325L422.842 229.158L422.85 229.167Z" fill="#F3F3F3"/>
<path d="M209.659 181.125L178.067 203.783L214.492 212.892C214.492 212.892 223.592 205.675 231.275 199.408C241.3 191.233 249.459 189.758 249.459 189.758L209.65 181.125H209.659Z" fill="#F3F3F3"/>
<path d="M275.425 197.25C257.709 201.2 262.1 234.808 253.917 250C247.167 262.525 229.509 283.383 229.509 283.383L236.667 292.433C236.667 292.433 289.15 261.242 316.85 252.175C344.55 243.108 380.975 221.958 380.975 221.958L275.434 197.258L275.425 197.25Z" fill="#963000"/>
<path d="M386.742 225.633C369.117 232.467 332.5 247.408 293.225 267.158C279.55 274.033 264.9 281.283 254.592 287.825C245.433 293.642 240.083 298.942 236.025 302.358C225.533 311.2 214.208 320.767 201.967 330.85C186.108 343.917 171.7 352.75 168.483 369.6C165.175 386.9 176.475 392.758 176.475 392.758L167.592 390.783L164.375 387.792L154.067 384.483L149.175 384.217C149.175 384.217 133.642 377.933 145.575 350.742C147.367 346.658 150.133 342.308 156.142 336.517C161.258 331.592 168.867 325.667 178.783 317.425C204.883 295.733 224.75 278.842 232.467 270.65C236.433 266.433 248.883 250.808 254.033 227.225C258.308 207.65 259.325 199.367 267.033 194.733C276.55 189.008 285.225 194.375 285.225 194.375L290.767 198.267C290.767 198.267 287.508 195.758 282.317 195.708C279.692 195.683 275.433 197.25 275.433 197.25C275.433 197.25 268.6 199.283 265.1 209.6C262.45 217.417 258.35 244.558 250.2 257.608C247.767 261.508 244.242 267.467 240.183 272.358C235.042 278.567 229.517 283.375 229.517 283.375L240.117 290.642C240.117 290.642 243.733 286.775 264.167 276.133C284.6 265.492 384.017 216.508 395.808 218.2L405.45 221.358C405.45 221.358 401.892 219.767 386.758 225.633H386.742Z" fill="#F3F3F3"/>
<path d="M321.733 432.908C319.149 435.392 315.416 436.25 312.008 435.158L184.549 394.275C183.341 393.883 182.099 393.583 180.849 393.367C178.758 393.008 174.749 392.7 171.508 391.833C165.833 390.325 164.366 387.8 164.366 387.8L154.058 384.492C154.058 384.492 151.066 384.6 146.891 383.45C144.983 382.925 143.574 382.217 142.608 381.6C140.866 380.5 138.983 379.658 137.016 379.025L27.1243 343.775C27.1243 343.775 14.1826 338.975 14.1826 324.783C14.1826 324.542 14.1826 324.3 14.1826 324.067C14.3493 315.05 18.8243 306.667 26.0743 301.308C26.0743 301.308 141.266 216.375 154.141 206.808C164.508 199.108 186.299 185.592 194.391 180.617C196.391 179.392 198.758 178.917 201.074 179.308C207.308 180.367 215.533 182.733 225.833 184.733C254.274 190.267 259.924 193.383 273.024 192.275C278.149 191.842 282.174 193.008 285.199 194.367C286.633 195.008 287.949 195.892 289.124 196.942C290.641 198.292 293.633 200.575 298.391 202.658C298.391 202.658 316.958 206.958 321.199 207.958L380.958 221.942L389.799 218.825C392.441 217.892 395.308 217.842 397.974 218.683C400.516 219.483 404.049 220.717 408.233 222.508C414.224 225.067 419.741 229.8 447.541 236.308C456.058 238.3 476.891 244.067 476.891 244.067C481.433 245.775 484.158 250.425 483.424 255.225C482.858 258.975 482.024 263.542 480.891 267.892C479.783 272.117 477.749 276.733 475.774 280.642C473.008 286.133 469.316 291.1 464.883 295.358L321.716 432.9L321.733 432.908Z" stroke="black" stroke-width="0.833333" stroke-miterlimit="10" stroke-linecap="round"/>
<path d="M318.867 416.325C322.417 408.042 329.875 397.742 338.375 389.575C346.875 381.408 450.442 281.908 450.442 281.908C462.683 269.458 467.917 261.308 473.567 253.7C475.142 251.575 478.417 251.675 479.775 253.95" stroke="black" stroke-width="0.833333" stroke-miterlimit="10" stroke-linecap="round"/>
<path d="M317.342 430.733C316.634 427.45 318.675 426.75 319.525 426.283C322.675 424.558 325.284 419.783 319.967 413.958" stroke="black" stroke-width="0.833333" stroke-miterlimit="10" stroke-linecap="round"/>
<path d="M324.342 413.958C324.342 413.958 332.5 418.533 327.417 427.45" stroke="black" stroke-width="0.833333" stroke-miterlimit="10" stroke-linecap="round"/>
<path d="M117.267 345.483C117.267 353.642 121.825 369.1 142.608 381.6" stroke="black" stroke-width="0.833333" stroke-miterlimit="10" stroke-linecap="round"/>
<path d="M182.649 382.617C182.649 382.617 187.241 382.617 193.783 391.158C201.191 400.833 211.024 402.767 211.024 402.767" stroke="black" stroke-width="0.833333" stroke-miterlimit="10" stroke-linecap="round"/>
<path d="M273.032 192.292C259.457 195.833 258.924 205.15 253.874 227.775C253.532 229.317 253.157 230.833 252.774 232.308C247.807 251.342 236.982 268.342 221.924 281L159.407 333.558C150.391 341.142 142.191 352.758 141.224 365.717C141.107 367.25 141.049 368.767 141.099 370.258C141.349 377.642 144.941 383.092 150.566 384.225" stroke="black" stroke-width="0.833333" stroke-miterlimit="10" stroke-linecap="round"/>
<path d="M164.374 387.8C160.115 382.475 160.657 375.492 160.757 374.283C161.74 362.542 167.524 351.717 176.54 344.133L236.024 294.125L221.715 289.967L162.982 339.342C153.965 346.925 148.174 357.75 147.199 369.492C147.074 371.017 146.507 382.075 154.057 384.492L164.365 387.8H164.374Z" fill="black" stroke="black" stroke-width="0.833333" stroke-miterlimit="10" stroke-linecap="round"/>
<path d="M279.007 196.058C265.432 199.6 264.899 208.917 259.849 231.542C259.507 233.083 259.132 234.6 258.749 236.075C253.782 255.108 242.957 272.108 227.899 284.767L224.549 287.583L221.382 290.25" stroke="black" stroke-width="0.833333" stroke-miterlimit="10" stroke-linecap="round"/>
<path d="M386.233 220.142C372.658 223.683 256.516 276.9 241.458 289.558L238.608 291.95L236.033 294.117" stroke="black" stroke-width="0.833333" stroke-miterlimit="10" stroke-linecap="round"/>
<path d="M177.991 392.967C172.283 391.558 166.766 383.717 168.008 372.808C169.408 360.5 177.316 351.592 182.091 347.567L247 293C261.525 280.792 361.758 232.542 397.95 221.808C401.158 220.858 405.433 221.358 405.433 221.358" stroke="black" stroke-width="0.833333" stroke-miterlimit="10" stroke-linecap="round"/>
<path d="M55.4741 279.65C55.4741 279.65 60.2325 277.358 66.7075 282.508C71.6658 286.45 167.241 309.708 178.832 312.567C179.557 312.742 180.324 312.567 180.899 312.092L208.799 289.125C209.249 288.758 209.091 288.033 208.524 287.892C200.507 285.833 159.057 275.183 142.607 271.508C124.366 267.425 105.916 263.883 100.949 260.683C95.9825 257.492 91.8491 254.95 86.9991 256.4" stroke="black" stroke-width="0.833333" stroke-miterlimit="10" stroke-linecap="round"/>
<path d="M211.024 323.242C211.024 323.242 326.433 361.092 332.291 362.867C338.149 364.642 352.016 366.3 352.849 375.675" stroke="black" stroke-width="0.833333" stroke-miterlimit="10" stroke-linecap="round"/>
<path d="M242.007 297.2C242.007 297.2 356.124 332.108 361.982 333.883C367.841 335.658 383.332 338.267 381.632 348.033" stroke="black" stroke-width="0.833333" stroke-miterlimit="10" stroke-linecap="round"/>
<path d="M343.016 385.125C349.499 387.117 358.432 388.583 358.224 397.842" stroke="black" stroke-width="0.833333" stroke-miterlimit="10" stroke-linecap="round"/>
<path d="M369.016 360.15C375.499 362.142 384.541 363.5 384.332 372.767" stroke="black" stroke-width="0.833333" stroke-miterlimit="10" stroke-linecap="round"/>
<path d="M209.599 181.125L178.007 203.783L214.432 212.892C214.432 212.892 240.182 190.058 249.407 189.758" stroke="black" stroke-width="0.833333" stroke-miterlimit="10" stroke-linecap="round"/>
<path d="M464.841 240.792C464.841 240.792 462.924 239.8 459.491 243.3C455.332 247.542 436.307 268.017 436.307 268.017L391.716 253.117C391.716 253.117 407.766 237.825 413.241 232.658C419.033 227.192 421.274 228.492 421.274 228.492" stroke="black" stroke-width="0.833333" stroke-miterlimit="10" stroke-linecap="round"/>
<path d="M370.233 324.658C369.483 325.358 368.408 325.592 367.433 325.275L281.991 297.492C281.575 297.358 281.3 296.975 281.3 296.533V295.108C281.3 294.717 281.466 294.35 281.758 294.092L333.741 248.3L422.841 274.125C423.433 274.3 370.225 324.65 370.225 324.65L370.233 324.658Z" fill="#FF5200" stroke="black" stroke-width="0.833333" stroke-miterlimit="10" stroke-linecap="round"/>
<path d="M411.432 278.925L369.949 321.7C369.199 322.4 368.124 322.633 367.149 322.317L281.382 294.425" stroke="black" stroke-width="0.833333" stroke-miterlimit="10" stroke-linecap="round"/>
<path d="M403.733 284.958L422.491 274.333C422.624 274.258 422.599 274.058 422.458 274.017L334.699 248.575C334.091 248.4 333.433 248.475 332.883 248.783L318.741 256.717C318.449 256.883 318.274 257.192 318.274 257.525L318.291 258.383C318.291 258.842 318.599 259.242 319.041 259.375L401.999 285.142C402.583 285.325 403.208 285.25 403.733 284.958Z" fill="#FF945B"/>
<mask id="mask2_69562_1129" style="mask-type:luminance" maskUnits="userSpaceOnUse" x="318" y="248" width="105" height="38">
<path d="M403.732 284.958L422.49 274.333C422.623 274.258 422.598 274.058 422.457 274.017L334.698 248.575C334.09 248.4 333.432 248.475 332.882 248.783L318.74 256.717C318.448 256.883 318.273 257.192 318.273 257.525L318.29 258.383C318.29 258.842 318.598 259.242 319.04 259.375L401.998 285.142C402.582 285.325 403.207 285.25 403.732 284.958Z" fill="white"/>
</mask>
<g mask="url(#mask2_69562_1129)">
<path d="M317.241 256.725L402.166 282.925C402.633 283.067 403.141 283.033 403.583 282.817L422.483 274.325L402.716 286.558L315.758 259.783L317.233 256.725H317.241Z" stroke="black" stroke-width="0.833333" stroke-miterlimit="10"/>
</g>
<path d="M403.733 284.958L422.491 274.333C422.624 274.258 422.599 274.058 422.458 274.017L334.699 248.575C334.091 248.4 333.433 248.475 332.883 248.783L318.741 256.717C318.449 256.883 318.274 257.192 318.274 257.525L318.291 258.383C318.291 258.842 318.599 259.242 319.041 259.375L401.999 285.142C402.583 285.325 403.208 285.25 403.733 284.958Z" stroke="black" stroke-width="0.833333" stroke-miterlimit="10" stroke-linecap="round"/>
<path d="M318.191 257.025L401.991 283.05C402.574 283.233 403.199 283.158 403.724 282.867L422.841 274.125" stroke="black" stroke-width="0.833333" stroke-miterlimit="10" stroke-linecap="round"/>
<path d="M228.875 291.95L169.317 342.025C160.3 349.608 154.508 360.433 153.533 372.175C153.408 373.7 152.842 384.758 160.392 387.175" stroke="white" stroke-width="0.833333" stroke-miterlimit="10" stroke-linecap="round"/>
<path d="M231.041 284.933L238.449 287.117C239.524 287.433 240.241 288.45 240.166 289.575L240.099 290.65C240.032 291.692 239.299 292.575 238.291 292.833L227.391 295.583C226.424 295.825 225.416 295.8 224.466 295.5C223.182 295.1 222.482 293.725 222.899 292.45L224.407 287.892C224.866 286.517 226.007 285.475 227.424 285.15L228.699 284.858C229.474 284.683 230.274 284.708 231.032 284.933H231.041Z" fill="#F3F3F3" stroke="black" stroke-width="0.833333" stroke-miterlimit="10" stroke-linecap="round"/>
<path d="M231.041 283.567L238.449 285.75C239.524 286.067 240.241 287.083 240.166 288.208L240.099 289.283C240.032 290.325 239.299 291.208 238.291 291.467L227.391 294.217C226.424 294.458 225.416 294.433 224.466 294.133C223.182 293.733 222.482 292.358 222.899 291.083L224.407 286.525C224.866 285.15 226.007 284.108 227.424 283.783L228.699 283.492C229.474 283.317 230.274 283.342 231.032 283.567H231.041Z" fill="#F3F3F3" stroke="black" stroke-width="0.833333" stroke-miterlimit="10" stroke-linecap="round"/>
<path d="M228.741 292.933L217.833 309.4C217.041 310.475 215.674 310.95 214.391 310.608L204.008 307.842C203.574 307.725 203.308 307.383 203.241 307C203.174 306.617 203.241 304.542 203.241 304.542L223.641 292.133C223.641 292.133 225.233 290.875 227.474 291.275C228.591 291.475 228.924 290.592 229.091 291.158C229.274 291.767 229.124 292.425 228.749 292.933H228.741Z" fill="#F3F3F3" stroke="black" stroke-width="0.833333" stroke-miterlimit="10" stroke-linecap="round"/>
<path d="M228.874 292.4L217.841 306.908C217.049 307.95 215.682 308.408 214.399 308.075L204.016 305.4C203.141 305.175 202.941 304.067 203.682 303.567L223.632 290.217C223.632 290.217 225.224 289 227.466 289.392C228.582 289.592 229.041 290.142 229.216 290.683C229.399 291.267 229.249 291.908 228.874 292.4Z" fill="#F3F3F3" stroke="black" stroke-width="0.833333" stroke-miterlimit="10" stroke-linecap="round"/>
<path d="M230.6 284.75V286.65L233.308 287.4C233.475 287.45 233.65 287.317 233.65 287.142V286.083C233.65 285.475 232.942 285.15 232.483 285.542" fill="#F3F3F3"/>
<path d="M230.6 284.75V286.65L233.308 287.4C233.475 287.45 233.65 287.317 233.65 287.142V286.083C233.65 285.475 232.942 285.15 232.483 285.542" stroke="black" stroke-width="0.833333" stroke-miterlimit="10" stroke-linecap="round"/>
<path d="M227.591 292.167C226.924 292.908 225.666 293.233 224.774 292.892C223.883 292.55 223.699 291.667 224.366 290.917C225.033 290.167 226.291 289.85 227.183 290.192C228.074 290.533 228.258 291.417 227.591 292.167Z" fill="#F3F3F3" stroke="black" stroke-width="0.833333" stroke-miterlimit="10" stroke-linecap="round"/>
<path d="M229.442 284.825L225.067 288.625C224.683 288.958 224.458 289.442 224.458 289.95V291.1C224.458 291.192 224.517 291.267 224.608 291.292L227.25 292.025C227.375 292.058 227.508 291.967 227.508 291.833V290.792C227.508 290.283 227.725 289.8 228.117 289.467L232.867 285.342V285.317L230.35 284.617C230.034 284.525 229.692 284.608 229.442 284.817V284.825Z" fill="#F3F3F3" stroke="black" stroke-width="0.833333" stroke-miterlimit="10" stroke-linecap="round"/>
<path d="M380.974 221.95L275.424 197.25" stroke="black" stroke-width="0.833333" stroke-miterlimit="10" stroke-linecap="round"/>
<path d="M44.4411 299.158C42.5744 303.967 37.3161 308.192 40.7161 308.833C52.5161 311.067 121.141 281.55 137.316 277.8C153.491 274.05 166.058 272.742 166.058 272.742" stroke="black" stroke-width="0.833333" stroke-miterlimit="10" stroke-linecap="round"/>
<path d="M205.8 257.133C205.8 257.133 224.458 274.183 223.966 279.233" stroke="black" stroke-width="0.833333" stroke-miterlimit="10" stroke-linecap="round"/>
<path d="M197.4 273.575C197.4 273.575 218.1 278.483 219.092 283.383" stroke="black" stroke-width="0.833333" stroke-miterlimit="10" stroke-linecap="round"/>
<path d="M176.882 212.067C176.882 212.067 169.516 207.058 141.091 216.483" stroke="black" stroke-width="0.833333" stroke-miterlimit="10" stroke-linecap="round"/>
<path d="M315.783 342.05C338.491 348.5 372.983 342.775 373.083 356.025C373.083 356.025 387.708 357.017 388.749 368.517L439.466 319.567C439.466 319.567 443.499 304.942 427.974 300.075L315.791 342.042L315.783 342.05Z" fill="black" stroke="black" stroke-width="0.833333" stroke-miterlimit="10" stroke-linecap="round"/>
<path d="M421.95 274.85L370.317 324.658C369.517 325.433 368.358 325.7 367.3 325.35L281.55 297.333C281.15 297.2 281.542 294.333 281.542 294.333L367.158 322.392C368.15 322.717 369.233 322.442 369.95 321.692L411.9 278.283L421.825 274.65C421.942 274.592 422.05 274.742 421.958 274.833L421.95 274.85Z" fill="#963000"/>
<path d="M132.025 261.583L211.533 298.317L212.408 297.733C212.958 297.367 213.658 297.317 214.258 297.592L221 300.708C221.692 301.025 222.108 301.75 222.042 302.508L221.983 303.142L281.942 330.842L306.6 274.65L136.575 221.95L132.025 261.575V261.583Z" fill="black" stroke="black" stroke-width="0.833333" stroke-miterlimit="10" stroke-linecap="round"/>
<path d="M440.275 282.45L409.15 236.158L408.584 236.025V229.542C407.875 226.083 403.909 217.4 403.909 217.4C403.484 215.383 403.167 213.958 403.167 213.958V209.942C402.559 193.717 399.392 177.158 393.425 160.875C382.259 130.433 366.075 104.65 337.842 87.6834C305.259 60.2834 260.342 48.85 218.942 64.0334C192.934 73.575 172.359 91.4584 159.075 113.625C150.709 119.067 137.617 141.75 134.792 173.275C129.409 179.142 128.684 187.692 128.684 187.692L117.684 215.958C117.684 222.208 119.367 228.1 120.9 232.175C121.942 234.942 124.134 237.067 126.85 238.058C127.475 238.283 128.125 238.458 128.792 238.558L130.184 238.775L132.025 261.567C132.084 262.267 132.859 262.667 133.459 262.308C134.634 261.608 136.442 260.45 138.275 259.008C138.275 259.008 140.4 259.142 142.467 257.633C143.65 256.767 149.392 250.942 150.609 248.958C151.734 247.117 151.275 246.55 151.2 246.483C154.584 248.2 157.9 250.058 161.275 251.975C170.325 257.117 182.134 264.867 191.609 271.4C216.092 288.275 229.95 301.192 262.617 320.8C297.375 341.667 342.117 351.958 381.459 342.167C389.084 340.267 396.475 337.758 403.167 334.467C420.967 325.708 431.95 316.35 438.592 308.85C445.125 301.475 445.8 290.6 440.284 282.433L440.275 282.45Z" fill="#C7C7C7"/>
<mask id="mask3_69562_1129" style="mask-type:luminance" maskUnits="userSpaceOnUse" x="117" y="57" width="327" height="289">
<path d="M440.275 282.45L409.15 236.158L408.584 236.025V229.542C407.875 226.083 403.909 217.4 403.909 217.4C403.484 215.383 403.167 213.958 403.167 213.958V209.942C402.559 193.717 399.392 177.158 393.425 160.875C382.259 130.433 366.075 104.65 337.842 87.6834C305.259 60.2834 260.342 48.85 218.942 64.0334C192.934 73.575 172.359 91.4584 159.075 113.625C150.709 119.067 137.617 141.75 134.792 173.275C129.409 179.142 128.684 187.692 128.684 187.692L117.684 215.958C117.684 222.208 119.367 228.1 120.9 232.175C121.942 234.942 124.134 237.067 126.85 238.058C127.475 238.283 128.125 238.458 128.792 238.558L130.184 238.775L132.025 261.567C132.084 262.267 132.859 262.667 133.459 262.308C134.634 261.608 136.442 260.45 138.275 259.008C138.275 259.008 140.4 259.142 142.467 257.633C143.65 256.767 149.392 250.942 150.609 248.958C151.734 247.117 151.275 246.55 151.2 246.483C154.584 248.2 157.9 250.058 161.275 251.975C170.325 257.117 182.134 264.867 191.609 271.4C216.092 288.275 229.95 301.192 262.617 320.8C297.375 341.667 342.117 351.958 381.459 342.167C389.084 340.267 396.475 337.758 403.167 334.467C420.967 325.708 431.95 316.35 438.592 308.85C445.125 301.475 445.8 290.6 440.284 282.433L440.275 282.45Z" fill="white"/>
</mask>
<g mask="url(#mask3_69562_1129)">
<path d="M126.849 238.075C126.849 238.075 135.132 239.075 145.174 243.708C151.366 246.567 156.191 249.142 156.191 249.142L129.941 266.867L126.849 238.075Z" fill="#566578"/>
<path d="M400.832 194.067C386.007 233.583 320.574 231.875 254.674 190.25C215.874 165.733 196.324 136.625 166.491 121.517C156.566 116.492 154.149 103.375 161.749 95.25C186.957 68.325 240.757 24.4 308.349 47.125C382.232 71.9667 415.649 154.542 400.824 194.058L400.832 194.067Z" fill="#F3F3F3"/>
<path d="M321.674 293.608C321.674 293.608 317.024 276.05 280.832 268.217C258.932 263.475 197.391 228.717 175.157 216.842C167.999 213.017 137.424 197.558 135.507 191.083C133.032 182.725 134.782 173.283 134.782 173.283L106.016 209.6L117.674 215.967C117.674 215.967 118.607 228.992 124.516 234.908C126.682 237.075 132.191 236.583 136.732 238.075C144.649 240.675 152.557 243.308 162.324 249.208C193.966 268.317 222.899 292.442 251.641 310.708C277.432 327.1 306.116 339.067 334.649 341.333C351.366 342.667 371.407 342.058 388.749 336.008C416.357 326.375 443.799 307.042 443.482 290.933C443.007 266.7 428.132 250.4 417.949 242.058C417.166 241.417 407.132 222.375 404.657 219.825C403.799 218.942 404.507 232.317 402.966 247.317C402.449 252.367 399.582 264.675 399.257 269.083C398.874 274.175 400.582 273.792 401.249 273.042C401.249 273.042 400.316 270.942 401.749 265.158C403.466 258.217 405.407 249.058 405.907 245.325C406.141 243.592 406.174 230.067 406.174 230.067L408.574 229.55V235.5C408.574 235.5 408.574 244.85 408.574 254.033C408.574 257.933 406.232 255.383 406.282 258.908C406.324 262.2 401.257 273.042 401.257 273.042L399.691 273.175C394.416 284.608 378.224 291.208 366.882 295.475C351.349 301.317 322.966 303.317 322.966 303.317C322.066 304.608 294.599 306.208 281.299 303.742C250.124 297.958 224.224 281.458 210.524 272.275C162.066 239.783 148.224 237.083 148.224 237.083C151.341 220.142 134.241 201.258 134.241 201.258C134.241 201.258 137.299 203.85 145.516 207.067C153.124 210.042 161.549 215.75 175.557 224.417C200.774 240.017 232.866 260.442 255.899 266.058C260.666 267.225 285.616 273.542 301.616 277.167C313.866 279.942 321.674 293.608 321.674 293.608Z" fill="#F3F3F3"/>
<path d="M163.55 106.725C163.55 106.725 187.333 72.3833 233.483 85.5417C276.641 97.85 299.316 132.058 307.008 146.058C309.408 150.433 312.558 154.342 316.3 157.642L341.742 180.067C341.742 180.067 325.225 163.575 318.533 148.258C309.825 128.333 292.6 106.733 278.367 96.8417C262.417 85.75 254.2 80.7333 233.475 76.2C197.992 68.4333 177.4 90.3083 177.4 90.3083L163.542 106.725H163.55Z" fill="#C7C7C7"/>
</g>
<path d="M403.159 213.958V248.3C403.159 248.3 406.517 233.975 406.275 229.517C406.034 225.067 403.159 213.958 403.159 213.958Z" fill="black"/>
<path d="M393.009 247.133C391.034 266.15 379.8 282.275 367.909 283.15C357.992 283.883 350.759 273.767 349.775 259.358C349.775 259.358 351.534 241.625 351.659 241.15C355.667 226.367 365.134 215.017 375.05 214.292C386.942 213.417 394.975 228.125 393 247.133H393.009Z" fill="#CEC4A1"/>
<mask id="mask4_69562_1129" style="mask-type:luminance" maskUnits="userSpaceOnUse" x="349" y="214" width="45" height="70">
<path d="M393.008 247.133C391.033 266.15 379.799 282.275 367.908 283.15C357.991 283.883 350.758 273.767 349.774 259.358C349.774 259.358 351.533 241.625 351.658 241.15C355.666 226.367 365.133 215.017 375.049 214.292C386.941 213.417 394.974 228.125 392.999 247.133H393.008Z" fill="white"/>
</mask>
<g mask="url(#mask4_69562_1129)">
<path d="M360.24 221.95C360.24 221.95 370.982 221.225 381.874 215.642C381.874 215.642 380.324 209.85 371.24 213.142C364.982 215.408 360.24 221.95 360.24 221.95Z" fill="#ECE0D6"/>
</g>
<path d="M351.675 241.758C351.675 241.758 352.016 252.775 352.075 257.125C352.133 261.475 350.316 263.942 350.316 263.942L350.075 258.608L351.675 241.767V241.758Z" fill="black" stroke="black" stroke-width="0.416667" stroke-miterlimit="10" stroke-linecap="round"/>
<path d="M205.458 150.075C199.291 170.1 182.775 184.725 168.566 182.742C154.358 180.75 147.833 162.908 154 142.875C160.166 122.85 176.683 108.225 190.891 110.208C205.1 112.2 211.625 130.042 205.458 150.075Z" fill="#963000"/>
<mask id="mask5_69562_1129" style="mask-type:luminance" maskUnits="userSpaceOnUse" x="151" y="110" width="57" height="73">
<path d="M205.458 150.075C199.291 170.1 182.775 184.725 168.566 182.742C154.358 180.75 147.833 162.908 154 142.875C160.166 122.85 176.683 108.225 190.891 110.208C205.1 112.2 211.625 130.042 205.458 150.075Z" fill="white"/>
</mask>
<g mask="url(#mask5_69562_1129)">
<path d="M163.124 119.275C164.124 120.133 165.249 120.883 166.49 121.517C182.149 129.442 194.965 141.233 209.224 154.183C209.224 154.183 218.874 124.858 197.99 111.325C177.107 97.7917 163.115 119.283 163.115 119.283L163.124 119.275Z" fill="#FF5200"/>
</g>
<path d="M230.824 172.95C230.224 170.992 228.075 169.958 226.175 170.708C222.575 172.142 216.866 174.55 212.1 177.233C206.416 180.433 201.974 183.208 199.616 184.733C198.458 185.475 197.841 186.825 198.041 188.183C198.491 191.35 199.483 197.442 201.074 203.3C202.541 208.683 205.025 215.042 206.633 218.933C207.433 220.867 209.725 221.683 211.566 220.683C214.65 219.008 219.6 216.367 225.425 213.475C231.166 210.625 235.749 208.483 238.483 207.242L238.558 206.125L236.708 191.358C236.291 190.075 235.858 188.75 235.416 187.408C233.6 181.933 231.891 176.425 230.824 172.958V172.95Z" fill="#8D6E5B"/>
<mask id="mask6_69562_1129" style="mask-type:luminance" maskUnits="userSpaceOnUse" x="198" y="170" width="41" height="52">
<path d="M230.825 172.95C230.225 170.992 228.075 169.958 226.175 170.708C222.575 172.142 216.867 174.55 212.1 177.233C206.417 180.433 201.975 183.208 199.617 184.733C198.459 185.475 197.842 186.825 198.042 188.183C198.492 191.35 199.484 197.442 201.075 203.3C202.542 208.683 205.025 215.042 206.634 218.933C207.434 220.867 209.725 221.683 211.567 220.683C214.65 219.008 219.6 216.367 225.425 213.475C231.167 210.625 235.75 208.483 238.484 207.242L238.559 206.125L236.709 191.358C236.292 190.075 235.859 188.75 235.417 187.408C233.6 181.933 231.892 176.425 230.825 172.958V172.95Z" fill="white"/>
</mask>
<g mask="url(#mask6_69562_1129)">
<path d="M224.817 181.25C224.459 180.075 223.167 179.45 222.025 179.908C219.867 180.767 216.442 182.217 213.584 183.825C210.175 185.742 207.509 187.408 206.092 188.325C205.4 188.775 205.025 189.575 205.142 190.392C205.417 192.292 206.009 195.942 206.967 199.458C207.85 202.692 209.342 206.5 210.3 208.842C210.775 210 212.159 210.492 213.259 209.892C215.109 208.883 218.076 207.3 221.576 205.567C225.026 203.858 227.767 202.575 229.409 201.825C230.367 201.383 230.859 200.3 230.55 199.292C229.925 197.258 228.825 193.717 227.575 189.925C226.484 186.642 225.459 183.333 224.826 181.258L224.817 181.25Z" fill="white"/>
<path d="M238.474 207.242L235.208 208.758C234.316 208.242 234.574 207.6 235.083 206.7C236.658 203.917 236.374 199.775 236.766 198.233C237.541 195.192 236.583 192.625 236.583 192.625L238.466 207.25L238.474 207.242Z" fill="black"/>
<path d="M236.966 193.242C236.966 193.242 236.008 200.817 235.841 202.725C235.508 206.492 238.841 206.958 238.841 206.958L236.958 193.233L236.966 193.242Z" fill="#CEC4A1"/>
</g>
<path d="M198.449 149.258C193.682 164.742 180.915 176.05 169.924 174.517C158.932 172.983 153.89 159.183 158.657 143.7C163.424 128.217 176.19 116.908 187.182 118.442C198.174 119.975 203.215 133.775 198.449 149.258Z" fill="#FF5200"/>
<mask id="mask7_69562_1129" style="mask-type:luminance" maskUnits="userSpaceOnUse" x="156" y="118" width="45" height="57">
<path d="M198.449 149.258C193.682 164.742 180.915 176.05 169.924 174.517C158.932 172.983 153.89 159.183 158.657 143.7C163.424 128.217 176.19 116.908 187.182 118.442C198.174 119.975 203.215 133.775 198.449 149.258Z" fill="white"/>
</mask>
<g mask="url(#mask7_69562_1129)">
<path d="M163.123 119.275C164.123 120.133 165.248 120.883 166.49 121.517C182.148 129.442 194.965 141.233 209.223 154.183C209.223 154.183 218.873 124.858 197.99 111.325C177.106 97.7917 163.115 119.283 163.115 119.283L163.123 119.275Z" fill="#FF945B"/>
</g>
<path d="M352.074 240.225C352.074 240.225 352.133 241.375 352.324 243.3C352.591 245.925 352.758 248.683 352.483 251.083C352.033 255.1 349.766 259.358 349.766 259.358L351.724 241.267L352.074 240.225Z" fill="#CEC4A1"/>
<path d="M186.158 134.467C182.533 134.058 178.9 133.8 175.275 133.692C173.275 133.633 171.191 135.542 170.325 138.117C168.883 142.433 167.475 146.683 166.083 150.875C165.258 153.375 166.066 155.242 167.991 155.392C171.5 155.658 175 156.067 178.483 156.625C180.4 156.933 182.425 155.333 183.325 152.733C183.733 151.542 184.15 150.35 184.566 149.158C183.258 148.942 181.941 148.733 180.625 148.558C179.6 149.8 178.583 151.033 177.566 152.267C175.583 152.008 173.591 151.792 171.6 151.617C171.358 149.283 171.108 146.958 170.866 144.65C172.633 142.425 174.416 140.183 176.225 137.925C178.258 138.042 180.3 138.2 182.333 138.408C182.45 139.808 182.566 141.217 182.683 142.625C184.008 142.792 185.341 142.975 186.666 143.183C187.091 141.975 187.525 140.758 187.95 139.533C188.9 136.867 188.15 134.692 186.158 134.467Z" fill="white"/>
<path d="M176.55 141.308C175.608 142.483 174.667 143.65 173.742 144.808C173.867 146.042 173.992 147.275 174.117 148.517C175.167 148.608 176.217 148.717 177.267 148.833C178.2 147.692 179.133 146.55 180.083 145.4C179.975 144.125 179.858 142.85 179.75 141.583C178.692 141.475 177.625 141.383 176.567 141.308H176.55Z" fill="white"/>
<path d="M383.766 231.45C383.508 233.942 381.824 236.033 379.991 236.117C378.166 236.2 376.891 234.25 377.141 231.758C377.399 229.267 379.083 227.175 380.916 227.092C382.741 227.008 384.016 228.958 383.766 231.45Z" fill="#FF5200"/>
<path d="M361.708 271.733C366.442 270.675 377.858 267.475 385.725 260.067C386.242 259.583 386.467 258.85 386.342 258.158L384.475 247.525C384.225 246.1 382.225 246 381.825 247.392L380.85 250.808C380.658 251.467 379.725 251.483 379.517 250.825L374.8 235.967C374.383 234.65 372.492 234.725 372.175 236.075L369.475 247.717C369.333 248.317 368.55 248.45 368.217 247.942L365.567 243.858C364.875 242.792 363.242 243.167 363.075 244.425L359.792 270.008C359.65 271.092 360.625 271.983 361.692 271.75L361.708 271.733Z" fill="#8D6E5B"/>
<path d="M380.166 249.908C380.166 249.908 380.491 251.842 378.7 255.283C377.65 257.3 375.583 260.5 377.675 262.417C378.991 263.625 379.358 264.942 377.966 266.55" stroke="#CEC4A1" stroke-width="0.833333" stroke-miterlimit="10"/>
<path d="M368.858 247.642C368.933 252.608 373.883 252.425 372.041 255.242C371.35 256.3 368.05 257.867 367.808 259.958C367.541 262.25 370.225 261.283 371.983 262.742C373.816 264.258 370.516 267.842 374.175 268.133" stroke="#CEC4A1" stroke-width="0.833333" stroke-miterlimit="10"/>
<path d="M217.565 193.283C216.899 191.575 216.215 189.9 215.532 188.258C215.182 187.408 215.607 186.358 216.49 185.883C216.549 185.85 216.607 185.825 216.657 185.792C217.54 185.308 218.549 185.617 218.899 186.492C219.132 187.075 219.365 187.658 219.599 188.242C220.149 187.917 220.699 187.592 221.249 187.258C222.14 186.717 223.199 187.033 223.565 187.983C223.599 188.067 223.632 188.158 223.665 188.242C224.015 189.158 223.59 190.3 222.699 190.75C220.982 191.633 219.274 192.475 217.557 193.283H217.565Z" fill="#5E7677"/>
<path d="M216.508 195.775C217.166 197.483 217.824 199.217 218.466 200.992C218.799 201.908 218.341 202.942 217.449 203.267C217.391 203.292 217.333 203.308 217.274 203.333C216.383 203.658 215.383 203.175 215.058 202.283C214.841 201.692 214.616 201.1 214.399 200.517C213.841 200.758 213.283 201 212.733 201.233C211.824 201.617 210.783 201.175 210.433 200.3C210.399 200.217 210.366 200.142 210.341 200.058C210.008 199.217 210.458 198.267 211.341 197.917C213.066 197.242 214.783 196.525 216.508 195.767V195.775Z" fill="#5E7677"/>
<path d="M215.841 194.075C214.124 194.85 212.399 195.592 210.683 196.292C209.791 196.65 208.799 196.267 208.458 195.458C208.433 195.408 208.416 195.35 208.391 195.3C208.049 194.492 208.491 193.542 209.383 193.15C209.974 192.892 210.566 192.633 211.149 192.375C210.899 191.867 210.649 191.358 210.399 190.858C209.991 190.042 210.416 189 211.333 188.55C211.416 188.508 211.499 188.467 211.583 188.425C212.466 187.983 213.466 188.283 213.824 189.125C214.508 190.742 215.183 192.392 215.849 194.075H215.841Z" fill="#5E7677"/>
<path d="M218.232 195C219.949 194.217 221.665 193.4 223.382 192.542C224.265 192.1 225.265 192.483 225.615 193.442C225.64 193.5 225.657 193.567 225.682 193.625C226.032 194.583 225.582 195.717 224.69 196.133C224.099 196.408 223.507 196.683 222.915 196.95C223.157 197.533 223.407 198.125 223.649 198.717C224.04 199.683 223.599 200.842 222.674 201.217C222.59 201.25 222.507 201.283 222.415 201.325C221.524 201.692 220.532 201.217 220.199 200.292C219.549 198.492 218.899 196.733 218.232 195Z" fill="#5E7677"/>
<path d="M406.083 231.733C406.158 231.175 406.183 230.625 406.183 230.067L406.241 230.417V235.5L405.591 235.35C405.808 233.842 405.975 232.617 406.083 231.733ZM134.325 239.783C139.283 241.133 143.833 242.942 148.233 245.025C148.233 245.025 149.675 246.567 147.375 250.067C143.491 255.975 139.483 258.5 139.483 258.5C139.55 258.25 144.3 252.75 145.075 249.083C145.525 246.967 144.9 245.5 144.541 244.792C144.383 244.467 144.075 244.242 143.725 244.175L141.441 243.7C140.983 243.625 140.516 243.75 140.316 243.925C139.875 244.317 139.416 244.708 138.991 245.083C138.258 245.733 134.383 239.842 134.333 239.775L134.325 239.783Z" fill="black" stroke="black" stroke-width="0.833333" stroke-miterlimit="10"/>
<path d="M399.692 273.175C399.192 274.208 398.592 275.192 397.9 276.125C391.25 285.133 372.375 299.825 322.967 303.317C322.967 303.317 322.067 303.925 320.983 304.058C310.783 305.317 301.608 305.433 286.875 304.408C279.55 303.9 261.058 300.417 245.358 292.433C222.375 280.75 193.267 260.983 177.767 251.717C153.283 237.083 148.225 237.083 148.225 237.083" stroke="black" stroke-width="0.833333" stroke-miterlimit="10" stroke-linecap="round"/>
<path d="M337.833 87.6917C363.633 102.392 382.841 129.758 393.416 160.883C398.991 177.3 402.549 193.725 403.158 209.95V242.592C403.158 251.267 401.183 258.908 401.183 258.908" stroke="black" stroke-width="0.833333" stroke-miterlimit="10" stroke-linecap="round"/>
<path d="M409.15 236.158L440.275 282.45C445.792 290.617 445.117 301.492 438.584 308.867C431.934 316.367 420.959 325.725 403.159 334.483C396.467 337.775 389.084 340.283 381.45 342.183C342.109 351.975 297.367 341.683 262.609 320.817C229.942 301.208 216.084 288.292 191.6 271.417C182.125 264.883 170.309 257.133 161.267 251.992C151.425 246.392 142.017 241.258 130.175 238.792L128.784 238.575C125.2 238.025 122.175 235.592 120.9 232.192C119.367 228.117 117.684 222.217 117.684 215.975L128.684 187.708C128.684 187.708 129.409 179.158 134.792 173.292" stroke="black" stroke-width="0.833333" stroke-miterlimit="10" stroke-linecap="round"/>
<path d="M159.075 113.633C179.541 82.7333 196.458 74.75 217.866 74.75C250.875 74.75 284.65 94.4167 307.891 128.333" stroke="black" stroke-width="0.833333" stroke-miterlimit="10" stroke-linecap="round"/>
<path d="M158.892 113.942C174.95 90.7749 190.925 82.9666 211.342 82.8083C247.417 82.5333 284.233 105.717 306.6 145.275" stroke="black" stroke-width="0.833333" stroke-miterlimit="10" stroke-linecap="round"/>
<path d="M325.725 166.142C332.517 171.433 352.5 189.383 364.592 202.442C366.033 204 368.208 204.658 370.275 204.158C372.617 203.6 374.392 201.667 374.742 199.283L375.133 196.625" stroke="black" stroke-width="0.833333" stroke-miterlimit="10" stroke-linecap="round"/>
<path d="M280.841 268.217C261.866 263.692 234.983 248.525 210.233 235.483C194.508 227.2 167.758 213.175 151.066 203.375C145.8 200.283 141.733 197.417 139.15 195.467C136.091 193.167 134.266 189.558 134.25 185.733C134.25 185.683 134.25 185.625 134.25 185.575C134.25 147.725 148.625 121.317 159.075 113.633C172.358 91.4667 192.925 73.5834 218.941 64.0417C279.95 41.6584 348.583 77.1 374.166 136.225" stroke="black" stroke-width="0.833333" stroke-miterlimit="10" stroke-linecap="round"/>
<path d="M128.683 187.708C128.316 193.242 130.258 197.75 134.241 201.258C137.941 204.508 145.7 206.742 151.066 209.658C165.433 217.467 197.05 238.425 204.908 242.567C229.658 255.608 235.6 262.083 276.583 271.308C285.241 273.258 300.15 275.7 306.741 279.292C315.833 284.242 320.916 290.85 324.208 298.767C325.208 301.175 323.583 303.858 320.983 304.067" stroke="black" stroke-width="0.833333" stroke-miterlimit="10" stroke-linecap="round"/>
<path d="M403.158 213.958C403.158 213.958 405.267 223.583 406.017 228.1C406.217 229.3 406.233 230.517 406.083 231.725C405.575 235.708 404.017 246.783 401.192 258.9C400.217 263.058 399.267 266.825 399.267 270.342C399.267 271.5 399.5 272.367 399.767 272.975C400.033 273.583 400.925 273.633 401.258 273.033C403.733 268.592 406.242 262.467 406.242 257.017" stroke="black" stroke-width="0.833333" stroke-miterlimit="10" stroke-linecap="round"/>
<path d="M403.899 217.408C403.899 217.408 407.866 226.092 408.574 229.55V254.033C408.574 254.033 408.183 256.942 406.233 257.033V230.417" stroke="black" stroke-width="0.833333" stroke-miterlimit="10" stroke-linecap="round"/>
<path d="M244.666 270.625C243.533 274.05 241.049 282.108 239.158 292.1C238.924 293.325 239.116 294.592 239.691 295.692L240.308 296.875C240.658 297.55 241.224 298.1 241.916 298.425C247.108 300.858 257.408 305.55 272.274 307.417C273.283 307.542 274.291 307.208 275.033 306.508L276.724 304.892C277.591 304.058 278.124 302.933 278.208 301.733C278.799 293.292 278.908 285.5 278.758 280.025C278.716 278.625 277.833 277.4 276.524 276.925C272.266 275.383 261.783 271.917 247.124 269.183C246.058 268.983 245.016 269.6 244.674 270.633L244.666 270.625Z" fill="#F3F3F3"/>
<mask id="mask8_69562_1129" style="mask-type:luminance" maskUnits="userSpaceOnUse" x="239" y="269" width="40" height="39">
<path d="M244.666 270.625C243.533 274.05 241.049 282.108 239.158 292.1C238.924 293.325 239.116 294.592 239.691 295.692L240.308 296.875C240.658 297.55 241.224 298.1 241.916 298.425C247.108 300.858 257.408 305.55 272.274 307.417C273.283 307.542 274.291 307.208 275.033 306.508L276.724 304.892C277.591 304.058 278.124 302.933 278.208 301.733C278.799 293.292 278.908 285.5 278.758 280.025C278.716 278.625 277.833 277.4 276.524 276.925C272.266 275.383 261.783 271.917 247.124 269.183C246.058 268.983 245.016 269.6 244.674 270.633L244.666 270.625Z" fill="white"/>
</mask>
<g mask="url(#mask8_69562_1129)">
<path d="M272.015 307.517C272.015 307.517 273.74 307.017 273.999 304.833C274.849 297.7 275.232 289.725 275.107 285.075C275.074 283.892 274.94 283.025 273.824 282.625C270.207 281.317 260.849 278.217 248.407 275.9C247.507 275.733 246.974 276.133 246.607 276.983C245.349 279.892 243.39 285.5 241.874 294C241.54 295.85 241.365 297.358 241.874 298.225" fill="#F3F3F3"/>
<path d="M272.015 307.517C272.015 307.517 273.74 307.017 273.999 304.833C274.849 297.7 275.232 289.725 275.107 285.075C275.074 283.892 274.94 283.025 273.824 282.625C270.207 281.317 260.849 278.217 248.407 275.9C247.507 275.733 246.974 276.133 246.607 276.983C245.349 279.892 243.39 285.5 241.874 294C241.54 295.85 241.365 297.358 241.874 298.225" stroke="black" stroke-width="0.833333" stroke-miterlimit="10" stroke-linecap="round"/>
</g>
<path d="M244.666 270.625C243.533 274.05 241.049 282.108 239.158 292.1C238.924 293.325 239.116 294.592 239.691 295.692L240.308 296.875C240.658 297.55 241.224 298.1 241.916 298.425C247.108 300.858 257.408 305.55 272.274 307.417C273.283 307.542 274.291 307.208 275.033 306.508L276.724 304.892C277.591 304.058 278.124 302.933 278.208 301.733C278.799 293.292 278.908 285.5 278.758 280.025C278.716 278.625 277.832 277.4 276.524 276.925C272.266 275.383 261.783 271.917 247.124 269.183C246.058 268.983 245.016 269.6 244.674 270.633L244.666 270.625Z" stroke="black" stroke-width="0.833333" stroke-miterlimit="10" stroke-linecap="round"/>
<path d="M134.241 201.258C139.091 205.808 147.783 218.825 148.225 230.883" stroke="black" stroke-width="0.833333" stroke-miterlimit="10" stroke-linecap="round"/>
<path d="M117.684 215.975C117.684 215.975 119.65 232.833 125.609 235.608C127.134 236.317 127.675 236.2 130.359 236.675" stroke="black" stroke-width="0.833333" stroke-miterlimit="10" stroke-linecap="round"/>
<path d="M130.183 238.783L132.025 261.575C132.083 262.275 132.858 262.675 133.458 262.317C134.766 261.533 136.875 260.183 138.925 258.492C139.716 257.833 140.408 256.767 140.8 255.817C141.7 253.658 142.358 251.533 142.816 249.092C143.191 247.083 142.733 245.292 142.483 244.583C142.066 243.433 140.7 243.592 140.308 243.933C139.866 244.325 139.408 244.717 138.983 245.092C138.241 245.742 134.325 239.775 134.325 239.775" stroke="black" stroke-width="0.833333" stroke-miterlimit="10" stroke-linecap="round"/>
<path d="M141.433 243.708L143.717 244.183C144.067 244.258 144.375 244.483 144.533 244.8C144.892 245.508 145.392 246.95 145.067 249.092C144.575 252.342 141.592 255.508 139.475 257.967" stroke="black" stroke-width="0.833333" stroke-miterlimit="10" stroke-linecap="round"/>
<path d="M443.491 290.933C443.75 295.842 441.283 301.008 437.75 305C431.1 312.5 420.125 321.858 402.325 330.617C395.633 333.908 388.25 336.417 380.616 338.317C341.275 348.108 296.533 337.817 261.775 316.95C229.108 297.342 215.25 284.425 190.766 267.55C181.291 261.017 169.475 253.267 160.433 248.125C151.866 243.25 140.341 238.292 130.358 236.675" stroke="black" stroke-width="0.833333" stroke-miterlimit="10" stroke-linecap="round"/>
<path d="M148.225 245.025C148.225 245.025 149.292 246.192 148.584 247.842C147.609 250.117 144.825 253.942 141.442 257.3C140.067 258.667 138.917 258.492 138.917 258.492" stroke="black" stroke-width="0.833333" stroke-miterlimit="10" stroke-linecap="round"/>
<path d="M151.183 246.483C151.183 246.483 151.808 246.992 150.6 248.967C149.392 250.942 143.642 256.775 142.458 257.642C140.4 259.15 138.267 259.025 138.267 259.025" stroke="black" stroke-width="0.833333" stroke-miterlimit="10" stroke-linecap="round"/>
<path d="M393.008 247.133C391.033 266.15 379.8 282.275 367.908 283.15C358.133 283.867 350.958 274.05 349.817 259.967C349.8 259.717 349.8 259.467 349.817 259.225L351.708 240.967C355.75 226.275 365.175 215.017 375.05 214.292C386.942 213.417 394.975 228.125 393 247.133H393.008Z" stroke="black" stroke-width="0.833333" stroke-miterlimit="10" stroke-linecap="round"/>
<path d="M205.458 150.075C199.291 170.1 182.775 184.725 168.566 182.742C154.358 180.75 147.833 162.908 154 142.875C160.166 122.85 176.683 108.225 190.891 110.208C205.1 112.2 211.625 130.042 205.458 150.075Z" stroke="black" stroke-width="0.833333" stroke-miterlimit="10" stroke-linecap="round"/>
<path d="M352.308 238.933C352.075 239.85 351.958 240.875 352.125 241.8C352.417 243.425 352.908 248.375 352.325 251.983C351.733 255.65 350.608 257.092 350.075 258.608C349.883 259.167 349.792 259.85 349.842 260.442" stroke="black" stroke-width="0.833333" stroke-miterlimit="10" stroke-linecap="round"/>
<path d="M236.308 190.125C236.85 191.775 236.85 194.35 236.675 195.85C236.408 198.183 236.016 201.683 235.858 203.15C235.691 204.742 236.608 206.217 238.058 206.792C238.208 206.85 238.616 207.008 238.641 207.15C238.641 207.15 237.091 194.133 236.958 193.242C236.683 191.3 236.3 190.125 236.3 190.125" stroke="black" stroke-width="0.833333" stroke-miterlimit="10" stroke-linecap="round"/>
<path d="M236.307 190.125C235.882 188.817 235.866 188.767 235.407 187.4C233.591 181.925 231.882 176.417 230.816 172.95C230.216 170.992 228.066 169.958 226.166 170.708C222.566 172.142 216.857 174.55 212.091 177.233C206.407 180.433 201.966 183.208 199.607 184.733C198.449 185.475 197.832 186.825 198.032 188.183C198.482 191.35 199.474 197.442 201.066 203.3C202.532 208.683 205.016 215.042 206.624 218.933C207.424 220.867 209.716 221.683 211.557 220.683C214.641 219.008 219.591 216.367 225.416 213.475C231.157 210.625 235.741 208.483 238.474 207.242C238.532 207.217 238.591 207.183 238.649 207.158" stroke="black" stroke-width="0.833333" stroke-miterlimit="10" stroke-linecap="round"/>
</g>
<defs>
</defs>
</svg>
