<svg width="500" height="500" viewBox="0 0 500 500" fill="none" xmlns="http://www.w3.org/2000/svg">
<g>
<path d="M436.117 407.437L208.55 314.629L343.8 262.829L460.542 394.279C462.759 396.771 462.792 400.579 460.5 403.004C458.15 405.487 453.709 408.004 445.334 408.796C442.2 409.096 439.042 408.621 436.125 407.429L436.117 407.437Z" fill="black"/>
<path d="M178.409 284.821L170.351 277.546C168.476 276.112 167.409 273.629 168.159 270.97L203.334 146.37C206.142 136.412 213.442 128.337 223.059 124.529L343.451 76.9038C345.909 75.9288 348.376 76.6372 350.009 78.2122L358.284 85.6872L178.409 284.821Z" fill="#FF945B" stroke="black" stroke-width="0.833333" stroke-miterlimit="10"/>
<path d="M231.16 131.845L351.551 84.2205C356.41 82.2955 361.31 86.9205 359.668 91.8788L318.476 216.679C316.235 223.479 311.226 229.02 304.685 231.945L184.701 285.579C179.935 287.712 174.835 283.312 176.26 278.279L211.435 153.679C214.243 143.72 221.543 135.645 231.16 131.837V131.845Z" fill="#FF5200"/>
<mask id="mask0_69562_10077" style="mask-type:luminance" maskUnits="userSpaceOnUse" x="176" y="83" width="184" height="204">
<path d="M231.161 131.845L351.552 84.2205C356.411 82.2955 361.311 86.9205 359.669 91.8788L318.477 216.679C316.236 223.479 311.227 229.02 304.686 231.945L184.702 285.579C179.936 287.712 174.836 283.312 176.261 278.279L211.436 153.679C214.244 143.72 221.544 135.645 231.161 131.837V131.845Z" fill="white"/>
</mask>
<g mask="url(#mask0_69562_10077)">
<path d="M232.96 133.729L353.277 86.1372C357.477 84.4789 361.71 88.4705 360.293 92.7622L319.135 217.462C316.918 224.179 311.977 229.646 305.527 232.529L185.643 286.121C181.518 287.962 177.118 284.162 178.343 279.812L213.493 155.287C216.268 145.462 223.468 137.487 232.96 133.729Z" fill="#963000"/>
</g>
<path d="M231.16 131.845L351.551 84.2205C356.41 82.2955 361.31 86.9205 359.668 91.8788L318.476 216.679C316.235 223.479 311.226 229.02 304.685 231.945L184.701 285.579C179.935 287.712 174.835 283.312 176.26 278.279L211.435 153.679C214.243 143.72 221.543 135.645 231.16 131.837V131.845Z" stroke="black" stroke-width="0.833333" stroke-miterlimit="10"/>
<path d="M473.934 340.712C476.776 344.862 474.301 354.921 466.151 363.937C458.001 372.954 447.326 375.737 443.109 373.604L239.784 250.904C224.984 237.537 224.793 202.621 253.884 170.412C282.976 138.204 314.926 136.246 329.726 149.612L473.943 340.704L473.934 340.712Z" fill="#FF5200"/>
<mask id="mask1_69562_10077" style="mask-type:luminance" maskUnits="userSpaceOnUse" x="229" y="141" width="247" height="234">
<path d="M473.935 340.712C476.777 344.862 474.302 354.921 466.152 363.937C458.002 372.954 447.327 375.737 443.11 373.604L239.785 250.904C224.985 237.537 224.794 202.621 253.885 170.412C282.977 138.204 314.927 136.246 329.727 149.612L473.944 340.704L473.935 340.712Z" fill="white"/>
</mask>
<g mask="url(#mask1_69562_10077)">
<path d="M253.885 170.412C253.885 170.412 248.535 179.42 256.085 184.954C263.21 190.179 427.793 333.854 446.093 349.837C447.01 350.637 447.185 351.987 446.502 352.995C444.102 356.529 439.318 364.762 442.327 370.412C443.343 372.32 445.218 374.02 449.885 373.629C449.885 373.629 447.202 376.395 441.443 373.037C436.852 370.354 233.018 251.987 233.018 251.987C233.018 251.987 205.093 199.437 253.885 170.42V170.412Z" fill="#963000"/>
<path d="M475.368 345.437C475.368 345.437 474.776 341.387 471.135 339.745C468.285 338.462 462.718 337.995 454.193 344.529C454.193 344.529 456.543 337.937 445.251 327.904C433.96 317.87 373.551 244.362 365.326 234.329C357.101 224.287 383.235 218.687 395.318 236.779C402.518 247.554 421.251 265.204 427.835 279.987C434.426 294.77 443.11 320.22 454.343 329.162C461.56 334.904 466.135 333.337 469.618 335.712C475.368 339.637 475.368 345.445 475.368 345.445V345.437Z" fill="#FF945B"/>
<path d="M272.835 272.554C259.601 260.604 265.068 228.487 288.043 203.054C311.018 177.62 342.801 168.495 356.035 180.445L380.493 214.804C370.335 205.629 343.776 213.987 324.176 235.687C304.576 257.387 299.351 284.22 309.501 293.395L272.835 272.554Z" fill="#F3F3F3" stroke="black" stroke-width="0.833333" stroke-miterlimit="10"/>
<path d="M416.118 258.42C405.652 248.97 381.835 254.537 365.302 272.845C348.768 291.145 345.793 315.245 356.252 324.695L398.518 346.545C390.893 339.662 392.543 321.662 404.585 308.329C416.627 294.995 434.51 291.37 442.135 298.254L416.118 258.42Z" fill="#F3F3F3" stroke="black" stroke-width="0.833333" stroke-miterlimit="10"/>
<path d="M332.552 151.745C332.552 151.745 342.202 163.279 322.102 172.32C311.527 177.079 284.785 180.637 265.177 193.629C242.543 208.62 236.852 221.52 236.852 221.52L232.985 202.945C232.985 202.945 246.635 151.67 284.768 141.829C322.902 131.987 332.318 141.829 332.318 141.829L332.552 151.745Z" fill="black" stroke="black" stroke-width="0.833333" stroke-miterlimit="10"/>
</g>
<path d="M473.934 340.712C476.776 344.862 474.301 354.921 466.151 363.937C458.001 372.954 447.326 375.737 443.109 373.604L239.784 250.904C224.984 237.537 224.793 202.621 253.884 170.412C282.976 138.204 314.926 136.246 329.726 149.612L473.943 340.704L473.934 340.712Z" stroke="black" stroke-width="0.833333" stroke-miterlimit="10"/>
<path d="M464.962 362.863C472.131 354.926 474.779 345.633 470.875 342.106C466.971 338.58 457.995 342.156 450.825 350.094C443.656 358.031 441.008 367.324 444.912 370.85C448.816 374.376 457.793 370.8 464.962 362.863Z" fill="#963000" stroke="black" stroke-width="0.833333" stroke-miterlimit="10"/>
<path d="M463.336 361.392C468.806 355.337 471.155 348.545 468.583 346.222C466.011 343.899 459.492 346.925 454.023 352.98C448.553 359.036 446.204 365.828 448.776 368.151C451.348 370.474 457.866 367.448 463.336 361.392Z" fill="black" stroke="black" stroke-width="0.833333" stroke-miterlimit="10"/>
<path d="M163.592 457.346L44.9253 398.629C40.1336 396.262 40.2836 389.379 45.1753 387.221L168.117 332.937C174.817 329.979 182.459 329.979 189.159 332.937L312.1 387.221C316.992 389.379 317.142 396.262 312.35 398.629L193.684 457.346C184.2 462.037 173.067 462.037 163.584 457.346H163.592Z" fill="black"/>
<path d="M322.076 342.487V354.096C322.284 356.612 321.076 359.237 318.434 360.546L194.376 421.929C184.459 426.837 172.826 426.837 162.909 421.929L38.8506 360.546C36.3173 359.296 35.1006 356.829 35.1923 354.412V342.487H322.084H322.076Z" fill="#963000"/>
<path d="M162.909 410.271L38.8503 348.887C33.8419 346.412 34.0003 339.212 39.1086 336.962L167.642 280.212C174.65 277.121 182.634 277.121 189.634 280.212L318.167 336.962C323.275 339.221 323.434 346.412 318.425 348.887L194.367 410.271C184.45 415.179 172.817 415.179 162.9 410.271H162.909Z" fill="#FF5200"/>
<mask id="mask2_69562_10077" style="mask-type:luminance" maskUnits="userSpaceOnUse" x="35" y="277" width="288" height="137">
<path d="M162.91 410.271L38.8513 348.887C33.8429 346.412 34.0013 339.212 39.1096 336.962L167.643 280.212C174.651 277.121 182.635 277.121 189.635 280.212L318.168 336.962C323.276 339.221 323.435 346.412 318.426 348.887L194.368 410.271C184.451 415.179 172.818 415.179 162.901 410.271H162.91Z" fill="white"/>
</mask>
<g mask="url(#mask2_69562_10077)">
<path d="M163.401 403.32L41.6923 343.096C37.4423 340.996 37.5757 334.887 41.9173 332.971L167.992 277.304C174.784 274.304 182.517 274.304 189.301 277.304L315.376 332.971C319.717 334.887 319.851 340.996 315.601 343.096L193.892 403.32L253.026 353.87L103.617 352.929L163.409 403.32H163.401Z" fill="#FF945B"/>
</g>
<path d="M162.909 410.271L38.8503 348.887C33.8419 346.412 34.0003 339.212 39.1086 336.962L167.642 280.212C174.65 277.121 182.634 277.121 189.634 280.212L318.167 336.962C323.275 339.22 323.434 346.412 318.425 348.887L194.367 410.271C184.45 415.179 172.817 415.179 162.9 410.271H162.909Z" stroke="black" stroke-width="0.833333" stroke-miterlimit="10"/>
<path d="M155.109 65.5039C156.367 60.2789 165.642 57.5122 178.642 57.5122C191.642 57.5122 200.842 60.6289 202.175 65.5039L262.667 335.337C262.667 356.662 225.05 373.946 178.65 373.946C132.25 373.946 94.6338 356.662 94.6338 335.337L155.109 65.5039Z" fill="#FF5200"/>
<mask id="mask3_69562_10077" style="mask-type:luminance" maskUnits="userSpaceOnUse" x="94" y="57" width="169" height="317">
<path d="M155.109 65.5039C156.367 60.2789 165.642 57.5122 178.642 57.5122C191.642 57.5122 200.842 60.6289 202.175 65.5039L262.667 335.337C262.667 356.662 225.05 373.946 178.65 373.946C132.25 373.946 94.6338 356.662 94.6338 335.337L155.109 65.5039Z" fill="white"/>
</mask>
<g mask="url(#mask3_69562_10077)">
<path d="M171.841 73.6288C178.875 77.4371 183.458 84.5788 183.983 92.5538C186.016 123.345 199.508 325.404 201.808 359.587C202.433 368.845 199.133 373.237 199.133 373.237L241.175 361.787C241.175 361.787 242.608 353.687 241.683 348.137C234.275 303.595 200.125 103.337 199.266 95.8788C198.75 91.4121 198.55 83.2788 205.033 78.2705L201.783 64.5288C201.783 64.5288 202.508 67.6121 197.783 70.3538C193.425 72.8788 185.35 75.2455 171.841 73.6371V73.6288Z" fill="#FF945B"/>
<path d="M98.5837 317.862C98.5837 317.862 84.5671 366.804 178.634 366.804C272.7 366.804 258.659 318.271 258.659 318.271C258.659 318.271 272.684 340.062 261.484 355.979C251.642 369.971 215.384 378.612 181.484 379.271C109.017 380.679 88.7754 338.804 88.7754 338.804L98.5754 317.862H98.5837Z" fill="#963000"/>
<path d="M252.85 272.279C252.85 293.604 219.625 310.887 178.642 310.887C137.659 310.887 104.434 293.604 104.434 272.279L115.325 223.037C115.325 239.404 143.675 252.662 178.642 252.662C213.609 252.662 241.959 239.396 241.959 223.037L252.85 272.279Z" fill="#F3F3F3" stroke="black" stroke-width="0.833333" stroke-miterlimit="10"/>
<path d="M126.817 166.054C126.817 182.421 150.017 195.679 178.634 195.679C207.25 195.679 230.45 182.412 230.45 166.054L216.392 112.662C216.392 124.587 199.492 134.246 178.634 134.246C157.775 134.246 140.875 124.579 140.875 112.662L126.817 166.054Z" fill="#F3F3F3" stroke="black" stroke-width="0.833333" stroke-miterlimit="10"/>
</g>
<path d="M155.109 65.5039C156.367 60.2789 165.642 57.5122 178.642 57.5122C191.642 57.5122 200.842 60.6289 202.175 65.5039L262.667 335.337C262.667 356.662 225.05 373.946 178.65 373.946C132.25 373.946 94.6338 356.662 94.6338 335.337L155.109 65.5039Z" stroke="black" stroke-width="0.833333" stroke-miterlimit="10"/>
<path d="M178.642 71.9622C190.387 71.9622 199.909 68.7275 199.909 64.7372C199.909 60.7469 190.387 57.5122 178.642 57.5122C166.897 57.5122 157.375 60.7469 157.375 64.7372C157.375 68.7275 166.897 71.9622 178.642 71.9622Z" fill="#FF945B" stroke="black" stroke-width="0.833333" stroke-miterlimit="10"/>
<path d="M178.642 67.9039C186.853 67.9039 193.509 66.1914 193.509 64.0789C193.509 61.9664 186.853 60.2539 178.642 60.2539C170.431 60.2539 163.775 61.9664 163.775 64.0789C163.775 66.1914 170.431 67.9039 178.642 67.9039Z" fill="black" stroke="black" stroke-width="0.833333" stroke-miterlimit="10"/>
</g>
<defs>
</defs>
</svg>
