<svg width="24" height="24" viewBox="0 0 24 24" fill="none" xmlns="http://www.w3.org/2000/svg">
<path d="M10.6696 10.6696C10.1664 11.1727 9.61532 11.6161 9.02137 12C7.08004 10.7451 4.68077 10.125 2 10.125C4.74905 10.125 6.72819 9.30766 8.01792 8.01792C9.30766 6.72819 10.125 4.74905 10.125 2H13.875C13.875 5.50095 12.8173 8.52181 10.6696 10.6696Z" fill="#FF7433"/>
<path d="M13.3304 13.3304C13.8336 12.8273 14.3847 12.3839 14.9786 12C16.92 13.2549 19.3192 13.875 22 13.875C19.251 13.875 17.2718 14.6924 15.9821 15.9821C14.6923 17.2718 13.875 19.251 13.875 22H10.125C10.125 18.4991 11.1827 15.4782 13.3304 13.3304Z" fill="#FF7433"/>
<path d="M13.3304 10.6696C12.8273 10.1664 12.3839 9.61532 12 9.02138C13.2549 7.08004 13.875 4.68077 13.875 2C13.875 4.74905 14.6923 6.72819 15.9821 8.01792C17.2718 9.30766 19.251 10.125 22 10.125V13.875C18.499 13.875 15.4782 12.8173 13.3304 10.6696Z" fill="#FF5100"/>
<path d="M10.6696 13.3304C8.52181 11.1827 5.50095 10.125 2 10.125V13.875C4.74905 13.875 6.72819 14.6924 8.01793 15.9821C9.30766 17.2718 10.125 19.251 10.125 22C10.125 19.3192 10.7451 16.92 12 14.9786C11.6161 14.3847 11.1727 13.8336 10.6696 13.3304Z" fill="#FF5100"/>
</svg>
