<svg width="106" height="15" viewBox="0 0 106 15" fill="none" xmlns="http://www.w3.org/2000/svg">
<path d="M92.76 0.023454H105.904V2.62786H96.2494V5.7161H102.464V8.32051H96.2494V11.4087H105.904V14.0235H92.76V0.023454ZM44.5462 2.90581V11.1411C44.5585 11.519 44.4967 11.8956 44.3646 12.2474C44.2325 12.5992 44.033 12.9187 43.7784 13.1861C43.5238 13.4535 43.2195 13.6631 42.8846 13.8018C42.5496 13.9406 42.191 14.0055 41.8312 13.9926H33.245C32.8815 14.0112 32.5183 13.9506 32.1781 13.8146C31.838 13.6786 31.5284 13.4701 31.2687 13.2022C31.0091 12.9344 30.805 12.613 30.6695 12.2583C30.5339 11.9035 30.4697 11.5232 30.481 11.1411V2.90581C30.4701 2.52736 30.5331 2.15058 30.6663 1.79875C30.7995 1.44692 31 1.12752 31.2554 0.860273C31.5108 0.593031 31.8156 0.38363 32.1511 0.245009C32.4865 0.106389 32.8455 0.0414935 33.2058 0.0543351H41.792C42.1551 0.0355845 42.5179 0.0961864 42.8575 0.232304C43.1971 0.368421 43.5062 0.577092 43.7651 0.845113C44.0239 1.11314 44.227 1.43467 44.3615 1.78938C44.496 2.14409 44.5589 2.52425 44.5462 2.90581ZM42.3899 7.02345L39.9591 2.62786H35.0583L32.6863 7.02345L35.1073 11.419H40.0081L42.3899 7.02345ZM88.7806 8.88669L91.6132 14.0235H87.8494L85.0266 8.88669H80.9491V14.0235H77.4598V0.023454H88.5257C88.889 0.00881299 89.2512 0.0735117 89.5894 0.213457C89.9276 0.353402 90.2344 0.565545 90.4906 0.836468C90.7467 1.10739 90.9465 1.43119 91.0773 1.78739C91.2081 2.14359 91.2671 2.52442 91.2506 2.90581V6.07639C91.2669 6.78997 91.0183 7.48224 90.5573 8.00673C90.0963 8.53122 89.4592 8.84679 88.7806 8.88669ZM87.8004 3.49257C87.7979 3.26407 87.7103 3.04567 87.5565 2.88409C87.4026 2.7225 87.1947 2.63054 86.9771 2.62786H80.9982V6.29257H86.9771C87.1947 6.2899 87.4026 6.19794 87.5565 6.03635C87.7103 5.87476 87.7979 5.65637 87.8004 5.42787V3.49257ZM75.8523 2.90581V11.1411C75.8633 11.5195 75.8002 11.8963 75.667 12.2482C75.5338 12.6 75.3333 12.9194 75.078 13.1866C74.8226 13.4539 74.5177 13.6633 74.1823 13.8019C73.8468 13.9405 73.4878 14.0054 73.1275 13.9926H64.5414C64.1831 14.0026 63.8267 13.9356 63.4941 13.7956C63.1614 13.6556 62.8596 13.4455 62.6071 13.1784C62.3546 12.9113 62.1568 12.5928 62.0259 12.2424C61.895 11.8921 61.8338 11.5173 61.8459 11.1411V2.90581C61.8336 2.52786 61.8954 2.1513 62.0275 1.79949C62.1596 1.44769 62.3592 1.12817 62.6138 0.860766C62.8684 0.593362 63.1726 0.38379 63.5076 0.245062C63.8426 0.106335 64.2011 0.0414147 64.561 0.0543351H73.1471C73.5058 0.0443584 73.8626 0.111373 74.1958 0.251275C74.5289 0.391177 74.8314 0.601022 75.0847 0.867964C75.3379 1.13491 75.5366 1.45333 75.6686 1.80373C75.8006 2.15413 75.8631 2.52914 75.8523 2.90581ZM73.6862 7.02345L71.2652 2.62786H66.3645L63.9827 7.02345L66.4135 11.419H71.3142L73.6862 7.02345ZM57.5333 0.023454H48.9471C48.5842 0.0103679 48.2227 0.076131 47.8852 0.216624C47.5477 0.357117 47.2414 0.56931 46.9856 0.839908C46.7298 1.11051 46.5299 1.43368 46.3986 1.78917C46.2672 2.14466 46.2072 2.52481 46.2223 2.90581V11.1411C46.2113 11.5195 46.2744 11.8963 46.4076 12.2482C46.5408 12.6 46.7413 12.9194 46.9967 13.1866C47.252 13.4539 47.5569 13.6633 47.8924 13.8019C48.2278 13.9405 48.5868 14.0054 48.9471 13.9926H57.5333C57.8931 14.0055 58.2517 13.9406 58.5866 13.8018C58.9216 13.6631 59.2258 13.4535 59.4804 13.1861C59.735 12.9187 59.9346 12.5992 60.0667 12.2474C60.1988 11.8956 60.2606 11.519 60.2483 11.1411V8.89698H57.053L55.6612 11.419H50.7604L48.3884 7.02345L50.8094 2.62786H55.7102L57.102 5.14992H60.2973V2.90581C60.3142 2.5208 60.2542 2.13634 60.121 1.77719C59.9879 1.41805 59.7845 1.0922 59.5241 0.820641C59.2637 0.549082 58.952 0.337843 58.6091 0.200537C58.2662 0.0632319 57.8997 0.00290881 57.5333 0.023454ZM26.5604 8.88669L29.393 14.0235H25.6586L22.826 8.88669H18.7191V14.0235H15.269V0.023454H26.3251C26.688 0.0103679 27.0495 0.076131 27.387 0.216624C27.7246 0.357117 28.0308 0.56931 28.2867 0.839908C28.5425 1.11051 28.7423 1.43368 28.8736 1.78917C29.005 2.14466 29.065 2.52481 29.05 2.90581V6.07639C29.0661 6.79335 28.8148 7.48855 28.3497 8.0136C27.8845 8.53865 27.2424 8.85197 26.5604 8.88669ZM25.5802 3.49257C25.5776 3.26229 25.4887 3.04237 25.3328 2.8805C25.1768 2.71862 24.9664 2.62785 24.7471 2.62786H18.7191V6.29257H24.6883C24.9075 6.29259 25.118 6.20181 25.2739 6.03994C25.4299 5.87806 25.5188 5.65814 25.5214 5.42787L25.5802 3.49257ZM13.8772 2.90581V6.07639C13.8895 6.45434 13.8277 6.8309 13.6956 7.18271C13.5635 7.53451 13.3639 7.85403 13.1093 8.12143C12.8547 8.38884 12.5505 8.59841 12.2155 8.73714C11.8805 8.87587 11.522 8.94079 11.1621 8.92787H3.58554V14.0235H0.0961914V0.023454H11.1621C11.5246 0.0102711 11.8857 0.0760491 12.2227 0.216645C12.5598 0.357242 12.8654 0.569609 13.1205 0.840376C13.3755 1.11114 13.5744 1.43444 13.7047 1.78991C13.8349 2.14538 13.8936 2.52532 13.8772 2.90581ZM10.3878 3.52345C10.3852 3.29318 10.2963 3.07325 10.1404 2.91138C9.98439 2.7495 9.77396 2.65873 9.55468 2.65875H3.58554V6.32345H9.55468C9.77396 6.32347 9.98439 6.2327 10.1404 6.07082C10.2963 5.90895 10.3852 5.68902 10.3878 5.45875V3.52345Z" fill="white"/>
<path d="M51.9561 4.71777L50.6819 7.02366L51.9561 9.32954H54.5045L55.7787 7.02366L54.5045 4.71777H51.9561Z" fill="#FF5100"/>
</svg>
