<svg width="24" height="24" viewBox="0 0 24 24" fill="none" xmlns="http://www.w3.org/2000/svg">
<g opacity="0.99">
<path d="M6.77991 14.3743C6.77991 15.4151 5.92972 16.2653 4.88898 16.2653C3.84823 16.2653 2.99805 15.4151 2.99805 14.3743C2.99805 13.3336 3.84823 12.4834 4.88898 12.4834H6.77991V14.3743Z" fill="#E01E5A"/>
<path d="M7.73242 14.3743C7.73242 13.3336 8.58261 12.4834 9.62335 12.4834C10.6641 12.4834 11.5143 13.3336 11.5143 14.3743V19.109C11.5143 20.1497 10.6641 20.9999 9.62335 20.9999C8.58261 20.9999 7.73242 20.1497 7.73242 19.109V14.3743Z" fill="#E01E5A"/>
<path d="M9.62335 6.78064C8.58261 6.78064 7.73242 5.93046 7.73242 4.88971C7.73242 3.84897 8.58261 2.99878 9.62335 2.99878C10.6641 2.99878 11.5143 3.84897 11.5143 4.88971V6.78064H9.62335Z" fill="#36C5F0"/>
<path d="M9.62364 7.73413C10.6644 7.73413 11.5146 8.58432 11.5146 9.62506C11.5146 10.6658 10.6644 11.516 9.62364 11.516H4.88898C3.84823 11.516 2.99805 10.6658 2.99805 9.62506C2.99805 8.58432 3.84823 7.73413 4.88898 7.73413H9.62364Z" fill="#36C5F0"/>
<path d="M17.2168 9.62531C17.2168 8.58456 18.067 7.73438 19.1077 7.73438C20.1485 7.73438 20.9987 8.58456 20.9987 9.62531C20.9987 10.6661 20.1485 11.5162 19.1077 11.5162H17.2168V9.62531Z" fill="#2EB67D"/>
<path d="M16.2643 9.62461C16.2643 10.6654 15.4141 11.5155 14.3734 11.5155C13.3326 11.5155 12.4824 10.6654 12.4824 9.62461V4.88995C12.4824 3.84921 13.3326 2.99902 14.3734 2.99902C15.4141 2.99902 16.2643 3.84921 16.2643 4.88995V9.62461Z" fill="#2EB67D"/>
<path d="M14.3734 17.2185C15.4141 17.2185 16.2643 18.0687 16.2643 19.1094C16.2643 20.1502 15.4141 21.0004 14.3734 21.0004C13.3326 21.0004 12.4824 20.1502 12.4824 19.1094V17.2185H14.3734Z" fill="#ECB22E"/>
<path d="M14.3734 16.2655C13.3326 16.2655 12.4824 15.4153 12.4824 14.3746C12.4824 13.3338 13.3326 12.4836 14.3734 12.4836H19.108C20.1488 12.4836 20.9989 13.3338 20.9989 14.3746C20.9989 15.4153 20.1488 16.2655 19.108 16.2655H14.3734Z" fill="#ECB22E"/>
</g>
</svg>
