<svg width="727" height="256" viewBox="0 0 727 256" fill="none" xmlns="http://www.w3.org/2000/svg">
<g clipPath="url(#datagrid-wm-clip)">
<path d="M81.4561 182.014V75.2729H126.279C155.237 75.2729 174.671 96.7321 174.671 128.632C174.671 160.531 155.213 181.99 126.279 181.99H81.4561V182.014ZM126.014 165.811C145.134 165.811 157.962 150.742 157.962 128.318C157.962 105.894 145.11 91.4276 126.014 91.4276H98.0447V165.787H126.014V165.811Z" fill="black"/>
<path d="M269.212 118.601H285.801V166.872H311.263V181.99H293.324C280.014 181.99 269.212 171.188 269.212 157.879V118.577V118.601Z" fill="black"/>
<path d="M489.542 182.014V125.352C489.542 112.043 500.344 101.241 513.654 101.241H535.041V117.83H506.155V182.014H489.567H489.542Z" fill="black"/>
<path d="M561.66 101.241H545.071V182.014H561.66V101.241Z" fill="black"/>
<path d="M545.095 96.1293V77.1295H561.684V79.5407C561.684 88.703 554.258 96.1293 545.095 96.1293Z" fill="black"/>
<path d="M269.212 93.7182V77.1295H285.801V101.241H310.564V117.83H293.324C280.014 117.83 269.212 107.028 269.212 93.7182Z" fill="black"/>
<path d="M659.914 170.995H664.182V181.99H666.231V170.995H670.499V169.042H659.938V170.995H659.914ZM682.748 169.066L678.817 179.193L674.815 169.066H672.163V182.014H674.14V172.539L677.901 182.014H679.637L683.399 172.539V182.014H685.376V169.066H682.772H682.748Z" fill="black"/>
<path d="M631.1 72.693V110.548C624.639 104.52 616.32 100.879 607.23 100.879C586.687 100.879 570.05 119.421 570.05 142.303C570.05 165.185 586.687 183.726 607.23 183.726C616.32 183.726 624.639 180.085 631.1 174.058V182.038H647.593V72.693H631.1ZM609.4 168.705C596.332 168.705 586.084 156.938 586.084 141.917C586.084 126.896 596.115 115.105 609.4 115.105C622.686 115.105 632.716 126.63 632.716 141.917C632.716 157.204 622.469 168.705 609.4 168.705Z" fill="black"/>
<path d="M241.749 101.241V110.09C235.287 104.062 226.969 100.421 217.879 100.421C197.336 100.421 180.699 118.963 180.699 141.845C180.699 164.726 197.336 183.268 217.879 183.268C226.969 183.268 235.287 179.627 241.749 173.599V181.58H258.241V101.241H241.749ZM220.073 168.223C207.004 168.223 196.757 156.456 196.757 141.435C196.757 126.413 206.787 114.623 220.073 114.623C233.358 114.623 243.388 126.148 243.388 141.435C243.388 156.721 233.141 168.223 220.073 168.223Z" fill="black"/>
<path d="M374.989 101.241V110.09C368.527 104.062 360.209 100.421 351.119 100.421C330.576 100.421 313.938 118.963 313.938 141.845C313.938 164.726 330.576 183.268 351.119 183.268C360.209 183.268 368.527 179.627 374.989 173.599V181.58H391.481V101.241H374.989ZM353.289 168.223C340.22 168.223 329.973 156.456 329.973 141.435C329.973 126.413 340.003 114.623 353.289 114.623C366.574 114.623 376.604 126.148 376.604 141.435C376.604 156.721 366.357 168.223 353.289 168.223Z" fill="black"/>
<path d="M461.669 101.241V110.042C455.207 104.038 446.889 100.421 437.799 100.421C417.28 100.421 400.619 118.866 400.619 141.603C400.619 163.304 417.256 180.881 437.799 180.881C446.889 180.881 455.207 177.433 461.669 171.695V179.917C461.501 194.576 453.182 203.666 440.065 203.666C429.866 203.666 422.705 199.736 418.196 191.635L417.979 191.273L403.416 197.06L403.657 197.542C408.696 207.187 419.04 218.688 439.776 218.688C462.393 218.688 478.162 202.678 478.162 179.772V101.241H461.669ZM439.993 166.294C426.925 166.294 416.677 155.202 416.677 141.049C416.677 125.931 426.708 114.55 439.993 114.55C453.279 114.55 463.309 125.931 463.309 141.049C463.309 155.226 453.062 166.294 439.993 166.294Z" fill="black"/>
</g>
<defs>
<clipPath id="datagrid-wm-clip">
<rect width="605.197" height="147.08" fill="white" transform="translate(81.4561 72.693)"/>
</clipPath>
</defs>
</svg>
